<svg width="755" height="120" viewBox="0 0 755 120" xmlns="http://www.w3.org/2000/svg">
<rect width="755" height="120" fill="transparent"/>
<line x1="63" y1="67.5" x2="547" y2="67.5" stroke="currentColor" stroke-width="0.5" opacity="0.2" stroke-dasharray="2,2"/>
<polyline fill="none" stroke="#3b82f6" stroke-width="2" points="48.0,86.7 103.3,85.5 143.7,87.3 184.0,86.8 224.3,58.0 264.7,66.4 305.0,65.6 345.3,103.5 385.7,23.0 426.0,104.2 466.3,81.5 506.7,63.2 547.0,112.0" stroke-linecap="round" stroke-linejoin="round"/>
<circle cx="48.0" cy="86.7" r="3" fill="#3b82f6" stroke="white" stroke-width="1"/>
<text x="48.0" y="78.7" font-size="9" fill="#3b82f6" text-anchor="middle" font-family="system-ui, -apple-system, sans-serif" font-weight="600" opacity="0.9">v0.4.1</text>
<circle cx="103.3" cy="85.5" r="3" fill="#3b82f6" stroke="white" stroke-width="1"/>
<text x="103.3" y="77.5" font-size="9" fill="#3b82f6" text-anchor="middle" font-family="system-ui, -apple-system, sans-serif" font-weight="600" opacity="0.9">v0.4.1</text>
<circle cx="143.7" cy="87.3" r="3" fill="#3b82f6" stroke="white" stroke-width="1"/>
<text x="143.7" y="79.3" font-size="9" fill="#3b82f6" text-anchor="middle" font-family="system-ui, -apple-system, sans-serif" font-weight="600" opacity="0.9">v0.5.0</text>
<circle cx="184.0" cy="86.8" r="3" fill="#3b82f6" stroke="white" stroke-width="1"/>
<text x="184.0" y="78.8" font-size="9" fill="#3b82f6" text-anchor="middle" font-family="system-ui, -apple-system, sans-serif" font-weight="600" opacity="0.9">v0.5.0</text>
<circle cx="224.3" cy="58.0" r="3" fill="#3b82f6" stroke="white" stroke-width="1"/>
<text x="224.3" y="50.0" font-size="9" fill="#3b82f6" text-anchor="middle" font-family="system-ui, -apple-system, sans-serif" font-weight="600" opacity="0.9">v0.6.0</text>
<circle cx="264.7" cy="66.4" r="3" fill="#3b82f6" stroke="white" stroke-width="1"/>
<text x="264.7" y="58.4" font-size="9" fill="#3b82f6" text-anchor="middle" font-family="system-ui, -apple-system, sans-serif" font-weight="600" opacity="0.9">v0.6.1</text>
<circle cx="305.0" cy="65.6" r="3" fill="#3b82f6" stroke="white" stroke-width="1"/>
<text x="305.0" y="57.6" font-size="9" fill="#3b82f6" text-anchor="middle" font-family="system-ui, -apple-system, sans-serif" font-weight="600" opacity="0.9">v0.7.0</text>
<circle cx="345.3" cy="103.5" r="3" fill="#3b82f6" stroke="white" stroke-width="1"/>
<text x="345.3" y="95.5" font-size="9" fill="#3b82f6" text-anchor="middle" font-family="system-ui, -apple-system, sans-serif" font-weight="600" opacity="0.9">v0.7.0</text>
<circle cx="385.7" cy="23.0" r="3" fill="#3b82f6" stroke="white" stroke-width="1"/>
<text x="385.7" y="17.0" font-size="9" fill="#3b82f6" text-anchor="middle" font-family="system-ui, -apple-system, sans-serif" font-weight="600" opacity="0.9">v0.7.0 (13.76K ops/s)</text>
<circle cx="426.0" cy="104.2" r="3" fill="#3b82f6" stroke="white" stroke-width="1"/>
<text x="426.0" y="96.2" font-size="9" fill="#3b82f6" text-anchor="middle" font-family="system-ui, -apple-system, sans-serif" font-weight="600" opacity="0.9">v0.8.0</text>
<circle cx="466.3" cy="81.5" r="3" fill="#3b82f6" stroke="white" stroke-width="1"/>
<text x="466.3" y="73.5" font-size="9" fill="#3b82f6" text-anchor="middle" font-family="system-ui, -apple-system, sans-serif" font-weight="600" opacity="0.9">v0.8.0</text>
<circle cx="506.7" cy="63.2" r="3" fill="#3b82f6" stroke="white" stroke-width="1"/>
<text x="506.7" y="55.2" font-size="9" fill="#3b82f6" text-anchor="middle" font-family="system-ui, -apple-system, sans-serif" font-weight="600" opacity="0.9">v0.8.0</text>
<circle cx="547.0" cy="112.0" r="3" fill="#3b82f6" stroke="white" stroke-width="1"/>
<text x="547.0" y="104.0" font-size="9" fill="#3b82f6" text-anchor="middle" font-family="system-ui, -apple-system, sans-serif" font-weight="600" opacity="0.9">v0.8.0 (7.13K ops/s)</text>
</svg>