<svg width="615" height="120" viewBox="0 0 615 120" xmlns="http://www.w3.org/2000/svg">
<rect width="615" height="120" fill="transparent"/>
<line x1="63" y1="67.5" x2="547" y2="67.5" stroke="currentColor" stroke-width="0.5" opacity="0.2" stroke-dasharray="2,2"/>
<polyline fill="none" stroke="#3b82f6" stroke-width="2" points="48.0,102.2 95.3,102.1 127.5,102.1 159.8,102.9 192.1,60.7 224.3,73.6 256.6,80.7 288.9,90.5 321.1,23.0 353.4,109.0 385.7,90.7 417.9,71.9 450.2,103.4 482.5,112.0 514.7,69.3 547.0,89.8" stroke-linecap="round" stroke-linejoin="round"/>
<circle cx="48.0" cy="102.2" r="3" fill="#3b82f6" stroke="white" stroke-width="1"/>
<text x="48.0" y="94.2" font-size="9" fill="#3b82f6" text-anchor="middle" font-family="system-ui, -apple-system, sans-serif" font-weight="600" opacity="0.9">v0.4.1</text>
<circle cx="95.3" cy="102.1" r="3" fill="#3b82f6" stroke="white" stroke-width="1"/>
<text x="95.3" y="94.1" font-size="9" fill="#3b82f6" text-anchor="middle" font-family="system-ui, -apple-system, sans-serif" font-weight="600" opacity="0.9">v0.4.1</text>
<circle cx="127.5" cy="102.1" r="3" fill="#3b82f6" stroke="white" stroke-width="1"/>
<text x="127.5" y="94.1" font-size="9" fill="#3b82f6" text-anchor="middle" font-family="system-ui, -apple-system, sans-serif" font-weight="600" opacity="0.9">v0.5.0</text>
<circle cx="159.8" cy="102.9" r="3" fill="#3b82f6" stroke="white" stroke-width="1"/>
<text x="159.8" y="94.9" font-size="9" fill="#3b82f6" text-anchor="middle" font-family="system-ui, -apple-system, sans-serif" font-weight="600" opacity="0.9">v0.5.0</text>
<circle cx="192.1" cy="60.7" r="3" fill="#3b82f6" stroke="white" stroke-width="1"/>
<text x="192.1" y="52.7" font-size="9" fill="#3b82f6" text-anchor="middle" font-family="system-ui, -apple-system, sans-serif" font-weight="600" opacity="0.9">v0.6.0</text>
<circle cx="224.3" cy="73.6" r="3" fill="#3b82f6" stroke="white" stroke-width="1"/>
<text x="224.3" y="65.6" font-size="9" fill="#3b82f6" text-anchor="middle" font-family="system-ui, -apple-system, sans-serif" font-weight="600" opacity="0.9">v0.6.1</text>
<circle cx="256.6" cy="80.7" r="3" fill="#3b82f6" stroke="white" stroke-width="1"/>
<text x="256.6" y="72.7" font-size="9" fill="#3b82f6" text-anchor="middle" font-family="system-ui, -apple-system, sans-serif" font-weight="600" opacity="0.9">v0.7.0</text>
<circle cx="288.9" cy="90.5" r="3" fill="#3b82f6" stroke="white" stroke-width="1"/>
<text x="288.9" y="82.5" font-size="9" fill="#3b82f6" text-anchor="middle" font-family="system-ui, -apple-system, sans-serif" font-weight="600" opacity="0.9">v0.7.0</text>
<circle cx="321.1" cy="23.0" r="3" fill="#3b82f6" stroke="white" stroke-width="1"/>
<text x="321.1" y="17.0" font-size="9" fill="#3b82f6" text-anchor="middle" font-family="system-ui, -apple-system, sans-serif" font-weight="600" opacity="0.9">v0.7.0 (164.84K ops/s)</text>
<circle cx="353.4" cy="109.0" r="3" fill="#3b82f6" stroke="white" stroke-width="1"/>
<text x="353.4" y="101.0" font-size="9" fill="#3b82f6" text-anchor="middle" font-family="system-ui, -apple-system, sans-serif" font-weight="600" opacity="0.9">v0.8.0</text>
<circle cx="385.7" cy="90.7" r="3" fill="#3b82f6" stroke="white" stroke-width="1"/>
<text x="385.7" y="82.7" font-size="9" fill="#3b82f6" text-anchor="middle" font-family="system-ui, -apple-system, sans-serif" font-weight="600" opacity="0.9">v0.8.0</text>
<circle cx="417.9" cy="71.9" r="3" fill="#3b82f6" stroke="white" stroke-width="1"/>
<text x="417.9" y="63.9" font-size="9" fill="#3b82f6" text-anchor="middle" font-family="system-ui, -apple-system, sans-serif" font-weight="600" opacity="0.9">v0.8.0</text>
<circle cx="450.2" cy="103.4" r="3" fill="#3b82f6" stroke="white" stroke-width="1"/>
<text x="450.2" y="95.4" font-size="9" fill="#3b82f6" text-anchor="middle" font-family="system-ui, -apple-system, sans-serif" font-weight="600" opacity="0.9">v0.8.0</text>
<circle cx="482.5" cy="112.0" r="3" fill="#3b82f6" stroke="white" stroke-width="1"/>
<text x="482.5" y="104.0" font-size="9" fill="#3b82f6" text-anchor="middle" font-family="system-ui, -apple-system, sans-serif" font-weight="600" opacity="0.9">v0.8.0 (97.24K ops/s)</text>
<circle cx="514.7" cy="69.3" r="3" fill="#3b82f6" stroke="white" stroke-width="1"/>
<text x="514.7" y="61.3" font-size="9" fill="#3b82f6" text-anchor="middle" font-family="system-ui, -apple-system, sans-serif" font-weight="600" opacity="0.9">v0.8.0</text>
<circle cx="547.0" cy="89.8" r="3" fill="#3b82f6" stroke="white" stroke-width="1"/>
<text x="547.0" y="81.8" font-size="9" fill="#3b82f6" text-anchor="middle" font-family="system-ui, -apple-system, sans-serif" font-weight="600" opacity="0.9">v0.9.0</text>
</svg>