<svg width="615" height="120" viewBox="0 0 615 120" xmlns="http://www.w3.org/2000/svg">
<rect width="615" height="120" fill="transparent"/>
<line x1="63" y1="67.5" x2="547" y2="67.5" stroke="currentColor" stroke-width="0.5" opacity="0.2" stroke-dasharray="2,2"/>
<polyline fill="none" stroke="#3b82f6" stroke-width="2" points="48.0,108.3 91.5,109.6 119.9,109.2 148.4,112.0 176.9,79.7 205.4,99.3 233.8,80.2 262.3,82.5 290.8,23.0 319.2,82.7 347.7,82.6 376.2,72.0 404.6,83.7 433.1,82.0 461.6,72.5 490.1,81.8 518.5,71.9 547.0,81.8" stroke-linecap="round" stroke-linejoin="round"/>
<circle cx="48.0" cy="108.3" r="3" fill="#3b82f6" stroke="white" stroke-width="1"/>
<text x="48.0" y="100.3" font-size="9" fill="#3b82f6" text-anchor="middle" font-family="system-ui, -apple-system, sans-serif" font-weight="600" opacity="0.9">v0.4.1</text>
<circle cx="91.5" cy="109.6" r="3" fill="#3b82f6" stroke="white" stroke-width="1"/>
<text x="91.5" y="101.6" font-size="9" fill="#3b82f6" text-anchor="middle" font-family="system-ui, -apple-system, sans-serif" font-weight="600" opacity="0.9">v0.4.1</text>
<circle cx="119.9" cy="109.2" r="3" fill="#3b82f6" stroke="white" stroke-width="1"/>
<text x="119.9" y="101.2" font-size="9" fill="#3b82f6" text-anchor="middle" font-family="system-ui, -apple-system, sans-serif" font-weight="600" opacity="0.9">v0.5.0</text>
<circle cx="148.4" cy="112.0" r="3" fill="#3b82f6" stroke="white" stroke-width="1"/>
<text x="148.4" y="104.0" font-size="9" fill="#3b82f6" text-anchor="middle" font-family="system-ui, -apple-system, sans-serif" font-weight="600" opacity="0.9">v0.5.0 (2.9 ops/s)</text>
<circle cx="176.9" cy="79.7" r="3" fill="#3b82f6" stroke="white" stroke-width="1"/>
<text x="176.9" y="71.7" font-size="9" fill="#3b82f6" text-anchor="middle" font-family="system-ui, -apple-system, sans-serif" font-weight="600" opacity="0.9">v0.6.0</text>
<circle cx="205.4" cy="99.3" r="3" fill="#3b82f6" stroke="white" stroke-width="1"/>
<text x="205.4" y="91.3" font-size="9" fill="#3b82f6" text-anchor="middle" font-family="system-ui, -apple-system, sans-serif" font-weight="600" opacity="0.9">v0.6.1</text>
<circle cx="233.8" cy="80.2" r="3" fill="#3b82f6" stroke="white" stroke-width="1"/>
<text x="233.8" y="72.2" font-size="9" fill="#3b82f6" text-anchor="middle" font-family="system-ui, -apple-system, sans-serif" font-weight="600" opacity="0.9">v0.7.0</text>
<circle cx="262.3" cy="82.5" r="3" fill="#3b82f6" stroke="white" stroke-width="1"/>
<text x="262.3" y="74.5" font-size="9" fill="#3b82f6" text-anchor="middle" font-family="system-ui, -apple-system, sans-serif" font-weight="600" opacity="0.9">v0.7.0</text>
<circle cx="290.8" cy="23.0" r="3" fill="#3b82f6" stroke="white" stroke-width="1"/>
<text x="290.8" y="17.0" font-size="9" fill="#3b82f6" text-anchor="middle" font-family="system-ui, -apple-system, sans-serif" font-weight="600" opacity="0.9">v0.7.0 (4.7 ops/s)</text>
<circle cx="319.2" cy="82.7" r="3" fill="#3b82f6" stroke="white" stroke-width="1"/>
<text x="319.2" y="74.7" font-size="9" fill="#3b82f6" text-anchor="middle" font-family="system-ui, -apple-system, sans-serif" font-weight="600" opacity="0.9">v0.8.0</text>
<circle cx="347.7" cy="82.6" r="3" fill="#3b82f6" stroke="white" stroke-width="1"/>
<text x="347.7" y="74.6" font-size="9" fill="#3b82f6" text-anchor="middle" font-family="system-ui, -apple-system, sans-serif" font-weight="600" opacity="0.9">v0.8.0</text>
<circle cx="376.2" cy="72.0" r="3" fill="#3b82f6" stroke="white" stroke-width="1"/>
<text x="376.2" y="64.0" font-size="9" fill="#3b82f6" text-anchor="middle" font-family="system-ui, -apple-system, sans-serif" font-weight="600" opacity="0.9">v0.8.0</text>
<circle cx="404.6" cy="83.7" r="3" fill="#3b82f6" stroke="white" stroke-width="1"/>
<text x="404.6" y="75.7" font-size="9" fill="#3b82f6" text-anchor="middle" font-family="system-ui, -apple-system, sans-serif" font-weight="600" opacity="0.9">v0.8.0</text>
<circle cx="433.1" cy="82.0" r="3" fill="#3b82f6" stroke="white" stroke-width="1"/>
<text x="433.1" y="74.0" font-size="9" fill="#3b82f6" text-anchor="middle" font-family="system-ui, -apple-system, sans-serif" font-weight="600" opacity="0.9">v0.8.0</text>
<circle cx="461.6" cy="72.5" r="3" fill="#3b82f6" stroke="white" stroke-width="1"/>
<text x="461.6" y="64.5" font-size="9" fill="#3b82f6" text-anchor="middle" font-family="system-ui, -apple-system, sans-serif" font-weight="600" opacity="0.9">v0.8.0</text>
<circle cx="490.1" cy="81.8" r="3" fill="#3b82f6" stroke="white" stroke-width="1"/>
<text x="490.1" y="73.8" font-size="9" fill="#3b82f6" text-anchor="middle" font-family="system-ui, -apple-system, sans-serif" font-weight="600" opacity="0.9">v0.9.0</text>
<circle cx="518.5" cy="71.9" r="3" fill="#3b82f6" stroke="white" stroke-width="1"/>
<text x="518.5" y="63.9" font-size="9" fill="#3b82f6" text-anchor="middle" font-family="system-ui, -apple-system, sans-serif" font-weight="600" opacity="0.9">v0.9.0</text>
<circle cx="547.0" cy="81.8" r="3" fill="#3b82f6" stroke="white" stroke-width="1"/>
<text x="547.0" y="73.8" font-size="9" fill="#3b82f6" text-anchor="middle" font-family="system-ui, -apple-system, sans-serif" font-weight="600" opacity="0.9">v0.10.0</text>
</svg>