<svg width="615" height="120" viewBox="0 0 615 120" xmlns="http://www.w3.org/2000/svg">
<rect width="615" height="120" fill="transparent"/>
<line x1="63" y1="67.5" x2="547" y2="67.5" stroke="currentColor" stroke-width="0.5" opacity="0.2" stroke-dasharray="2,2"/>
<polyline fill="none" stroke="#3b82f6" stroke-width="2" points="48.0,102.2 97.6,102.1 132.1,102.1 166.7,102.9 201.3,60.7 235.9,73.6 270.4,80.7 305.0,90.5 339.6,23.0 374.1,109.0 408.7,90.7 443.3,71.9 477.9,103.4 512.4,112.0 547.0,69.3" stroke-linecap="round" stroke-linejoin="round"/>
<circle cx="48.0" cy="102.2" r="3" fill="#3b82f6" stroke="white" stroke-width="1"/>
<text x="48.0" y="94.2" font-size="9" fill="#3b82f6" text-anchor="middle" font-family="system-ui, -apple-system, sans-serif" font-weight="600" opacity="0.9">v0.4.1</text>
<circle cx="97.6" cy="102.1" r="3" fill="#3b82f6" stroke="white" stroke-width="1"/>
<text x="97.6" y="94.1" font-size="9" fill="#3b82f6" text-anchor="middle" font-family="system-ui, -apple-system, sans-serif" font-weight="600" opacity="0.9">v0.4.1</text>
<circle cx="132.1" cy="102.1" r="3" fill="#3b82f6" stroke="white" stroke-width="1"/>
<text x="132.1" y="94.1" font-size="9" fill="#3b82f6" text-anchor="middle" font-family="system-ui, -apple-system, sans-serif" font-weight="600" opacity="0.9">v0.5.0</text>
<circle cx="166.7" cy="102.9" r="3" fill="#3b82f6" stroke="white" stroke-width="1"/>
<text x="166.7" y="94.9" font-size="9" fill="#3b82f6" text-anchor="middle" font-family="system-ui, -apple-system, sans-serif" font-weight="600" opacity="0.9">v0.5.0</text>
<circle cx="201.3" cy="60.7" r="3" fill="#3b82f6" stroke="white" stroke-width="1"/>
<text x="201.3" y="52.7" font-size="9" fill="#3b82f6" text-anchor="middle" font-family="system-ui, -apple-system, sans-serif" font-weight="600" opacity="0.9">v0.6.0</text>
<circle cx="235.9" cy="73.6" r="3" fill="#3b82f6" stroke="white" stroke-width="1"/>
<text x="235.9" y="65.6" font-size="9" fill="#3b82f6" text-anchor="middle" font-family="system-ui, -apple-system, sans-serif" font-weight="600" opacity="0.9">v0.6.1</text>
<circle cx="270.4" cy="80.7" r="3" fill="#3b82f6" stroke="white" stroke-width="1"/>
<text x="270.4" y="72.7" font-size="9" fill="#3b82f6" text-anchor="middle" font-family="system-ui, -apple-system, sans-serif" font-weight="600" opacity="0.9">v0.7.0</text>
<circle cx="305.0" cy="90.5" r="3" fill="#3b82f6" stroke="white" stroke-width="1"/>
<text x="305.0" y="82.5" font-size="9" fill="#3b82f6" text-anchor="middle" font-family="system-ui, -apple-system, sans-serif" font-weight="600" opacity="0.9">v0.7.0</text>
<circle cx="339.6" cy="23.0" r="3" fill="#3b82f6" stroke="white" stroke-width="1"/>
<text x="339.6" y="17.0" font-size="9" fill="#3b82f6" text-anchor="middle" font-family="system-ui, -apple-system, sans-serif" font-weight="600" opacity="0.9">v0.7.0 (164.84K ops/s)</text>
<circle cx="374.1" cy="109.0" r="3" fill="#3b82f6" stroke="white" stroke-width="1"/>
<text x="374.1" y="101.0" font-size="9" fill="#3b82f6" text-anchor="middle" font-family="system-ui, -apple-system, sans-serif" font-weight="600" opacity="0.9">v0.8.0</text>
<circle cx="408.7" cy="90.7" r="3" fill="#3b82f6" stroke="white" stroke-width="1"/>
<text x="408.7" y="82.7" font-size="9" fill="#3b82f6" text-anchor="middle" font-family="system-ui, -apple-system, sans-serif" font-weight="600" opacity="0.9">v0.8.0</text>
<circle cx="443.3" cy="71.9" r="3" fill="#3b82f6" stroke="white" stroke-width="1"/>
<text x="443.3" y="63.9" font-size="9" fill="#3b82f6" text-anchor="middle" font-family="system-ui, -apple-system, sans-serif" font-weight="600" opacity="0.9">v0.8.0</text>
<circle cx="477.9" cy="103.4" r="3" fill="#3b82f6" stroke="white" stroke-width="1"/>
<text x="477.9" y="95.4" font-size="9" fill="#3b82f6" text-anchor="middle" font-family="system-ui, -apple-system, sans-serif" font-weight="600" opacity="0.9">v0.8.0</text>
<circle cx="512.4" cy="112.0" r="3" fill="#3b82f6" stroke="white" stroke-width="1"/>
<text x="512.4" y="104.0" font-size="9" fill="#3b82f6" text-anchor="middle" font-family="system-ui, -apple-system, sans-serif" font-weight="600" opacity="0.9">v0.8.0 (97.24K ops/s)</text>
<circle cx="547.0" cy="69.3" r="3" fill="#3b82f6" stroke="white" stroke-width="1"/>
<text x="547.0" y="61.3" font-size="9" fill="#3b82f6" text-anchor="middle" font-family="system-ui, -apple-system, sans-serif" font-weight="600" opacity="0.9">v0.8.0</text>
</svg>