<svg width="615" height="120" viewBox="0 0 615 120" xmlns="http://www.w3.org/2000/svg">
<rect width="615" height="120" fill="transparent"/>
<line x1="63" y1="67.5" x2="547" y2="67.5" stroke="currentColor" stroke-width="0.5" opacity="0.2" stroke-dasharray="2,2"/>
<polyline fill="none" stroke="#3b82f6" stroke-width="2" points="48.0,102.4 97.6,104.0 132.1,112.0 166.7,102.4 201.3,109.3 235.9,82.2 270.4,77.1 305.0,98.7 339.6,23.0 374.1,91.2 408.7,88.3 443.3,77.4 477.9,103.5 512.4,88.9 547.0,77.3" stroke-linecap="round" stroke-linejoin="round"/>
<circle cx="48.0" cy="102.4" r="3" fill="#3b82f6" stroke="white" stroke-width="1"/>
<text x="48.0" y="94.4" font-size="9" fill="#3b82f6" text-anchor="middle" font-family="system-ui, -apple-system, sans-serif" font-weight="600" opacity="0.9">v0.4.1</text>
<circle cx="97.6" cy="104.0" r="3" fill="#3b82f6" stroke="white" stroke-width="1"/>
<text x="97.6" y="96.0" font-size="9" fill="#3b82f6" text-anchor="middle" font-family="system-ui, -apple-system, sans-serif" font-weight="600" opacity="0.9">v0.4.1</text>
<circle cx="132.1" cy="112.0" r="3" fill="#3b82f6" stroke="white" stroke-width="1"/>
<text x="132.1" y="104.0" font-size="9" fill="#3b82f6" text-anchor="middle" font-family="system-ui, -apple-system, sans-serif" font-weight="600" opacity="0.9">v0.5.0 (1.25K ops/s)</text>
<circle cx="166.7" cy="102.4" r="3" fill="#3b82f6" stroke="white" stroke-width="1"/>
<text x="166.7" y="94.4" font-size="9" fill="#3b82f6" text-anchor="middle" font-family="system-ui, -apple-system, sans-serif" font-weight="600" opacity="0.9">v0.5.0</text>
<circle cx="201.3" cy="109.3" r="3" fill="#3b82f6" stroke="white" stroke-width="1"/>
<text x="201.3" y="101.3" font-size="9" fill="#3b82f6" text-anchor="middle" font-family="system-ui, -apple-system, sans-serif" font-weight="600" opacity="0.9">v0.6.0</text>
<circle cx="235.9" cy="82.2" r="3" fill="#3b82f6" stroke="white" stroke-width="1"/>
<text x="235.9" y="74.2" font-size="9" fill="#3b82f6" text-anchor="middle" font-family="system-ui, -apple-system, sans-serif" font-weight="600" opacity="0.9">v0.6.1</text>
<circle cx="270.4" cy="77.1" r="3" fill="#3b82f6" stroke="white" stroke-width="1"/>
<text x="270.4" y="69.1" font-size="9" fill="#3b82f6" text-anchor="middle" font-family="system-ui, -apple-system, sans-serif" font-weight="600" opacity="0.9">v0.7.0</text>
<circle cx="305.0" cy="98.7" r="3" fill="#3b82f6" stroke="white" stroke-width="1"/>
<text x="305.0" y="90.7" font-size="9" fill="#3b82f6" text-anchor="middle" font-family="system-ui, -apple-system, sans-serif" font-weight="600" opacity="0.9">v0.7.0</text>
<circle cx="339.6" cy="23.0" r="3" fill="#3b82f6" stroke="white" stroke-width="1"/>
<text x="339.6" y="17.0" font-size="9" fill="#3b82f6" text-anchor="middle" font-family="system-ui, -apple-system, sans-serif" font-weight="600" opacity="0.9">v0.7.0 (1.96K ops/s)</text>
<circle cx="374.1" cy="91.2" r="3" fill="#3b82f6" stroke="white" stroke-width="1"/>
<text x="374.1" y="83.2" font-size="9" fill="#3b82f6" text-anchor="middle" font-family="system-ui, -apple-system, sans-serif" font-weight="600" opacity="0.9">v0.8.0</text>
<circle cx="408.7" cy="88.3" r="3" fill="#3b82f6" stroke="white" stroke-width="1"/>
<text x="408.7" y="80.3" font-size="9" fill="#3b82f6" text-anchor="middle" font-family="system-ui, -apple-system, sans-serif" font-weight="600" opacity="0.9">v0.8.0</text>
<circle cx="443.3" cy="77.4" r="3" fill="#3b82f6" stroke="white" stroke-width="1"/>
<text x="443.3" y="69.4" font-size="9" fill="#3b82f6" text-anchor="middle" font-family="system-ui, -apple-system, sans-serif" font-weight="600" opacity="0.9">v0.8.0</text>
<circle cx="477.9" cy="103.5" r="3" fill="#3b82f6" stroke="white" stroke-width="1"/>
<text x="477.9" y="95.5" font-size="9" fill="#3b82f6" text-anchor="middle" font-family="system-ui, -apple-system, sans-serif" font-weight="600" opacity="0.9">v0.8.0</text>
<circle cx="512.4" cy="88.9" r="3" fill="#3b82f6" stroke="white" stroke-width="1"/>
<text x="512.4" y="80.9" font-size="9" fill="#3b82f6" text-anchor="middle" font-family="system-ui, -apple-system, sans-serif" font-weight="600" opacity="0.9">v0.8.0</text>
<circle cx="547.0" cy="77.3" r="3" fill="#3b82f6" stroke="white" stroke-width="1"/>
<text x="547.0" y="69.3" font-size="9" fill="#3b82f6" text-anchor="middle" font-family="system-ui, -apple-system, sans-serif" font-weight="600" opacity="0.9">v0.8.0</text>
</svg>