<svg width="615" height="120" viewBox="0 0 615 120" xmlns="http://www.w3.org/2000/svg">
<rect width="615" height="120" fill="transparent"/>
<line x1="63" y1="67.5" x2="547" y2="67.5" stroke="currentColor" stroke-width="0.5" opacity="0.2" stroke-dasharray="2,2"/>
<polyline fill="none" stroke="#3b82f6" stroke-width="2" points="48.0,108.3 116.8,109.6 170.6,109.2 224.3,112.0 278.1,79.7 331.9,99.3 385.7,80.2 439.4,82.5 493.2,23.0 547.0,82.7" stroke-linecap="round" stroke-linejoin="round"/>
<circle cx="48.0" cy="108.3" r="3" fill="#3b82f6" stroke="white" stroke-width="1"/>
<text x="48.0" y="100.3" font-size="9" fill="#3b82f6" text-anchor="middle" font-family="system-ui, -apple-system, sans-serif" font-weight="600" opacity="0.9">v0.4.1</text>
<circle cx="116.8" cy="109.6" r="3" fill="#3b82f6" stroke="white" stroke-width="1"/>
<text x="116.8" y="101.6" font-size="9" fill="#3b82f6" text-anchor="middle" font-family="system-ui, -apple-system, sans-serif" font-weight="600" opacity="0.9">v0.4.1</text>
<circle cx="170.6" cy="109.2" r="3" fill="#3b82f6" stroke="white" stroke-width="1"/>
<text x="170.6" y="101.2" font-size="9" fill="#3b82f6" text-anchor="middle" font-family="system-ui, -apple-system, sans-serif" font-weight="600" opacity="0.9">v0.5.0</text>
<circle cx="224.3" cy="112.0" r="3" fill="#3b82f6" stroke="white" stroke-width="1"/>
<text x="224.3" y="104.0" font-size="9" fill="#3b82f6" text-anchor="middle" font-family="system-ui, -apple-system, sans-serif" font-weight="600" opacity="0.9">v0.5.0 (2.9 ops/s)</text>
<circle cx="278.1" cy="79.7" r="3" fill="#3b82f6" stroke="white" stroke-width="1"/>
<text x="278.1" y="71.7" font-size="9" fill="#3b82f6" text-anchor="middle" font-family="system-ui, -apple-system, sans-serif" font-weight="600" opacity="0.9">v0.6.0</text>
<circle cx="331.9" cy="99.3" r="3" fill="#3b82f6" stroke="white" stroke-width="1"/>
<text x="331.9" y="91.3" font-size="9" fill="#3b82f6" text-anchor="middle" font-family="system-ui, -apple-system, sans-serif" font-weight="600" opacity="0.9">v0.6.1</text>
<circle cx="385.7" cy="80.2" r="3" fill="#3b82f6" stroke="white" stroke-width="1"/>
<text x="385.7" y="72.2" font-size="9" fill="#3b82f6" text-anchor="middle" font-family="system-ui, -apple-system, sans-serif" font-weight="600" opacity="0.9">v0.7.0</text>
<circle cx="439.4" cy="82.5" r="3" fill="#3b82f6" stroke="white" stroke-width="1"/>
<text x="439.4" y="74.5" font-size="9" fill="#3b82f6" text-anchor="middle" font-family="system-ui, -apple-system, sans-serif" font-weight="600" opacity="0.9">v0.7.0</text>
<circle cx="493.2" cy="23.0" r="3" fill="#3b82f6" stroke="white" stroke-width="1"/>
<text x="493.2" y="17.0" font-size="9" fill="#3b82f6" text-anchor="middle" font-family="system-ui, -apple-system, sans-serif" font-weight="600" opacity="0.9">v0.7.0 (4.7 ops/s)</text>
<circle cx="547.0" cy="82.7" r="3" fill="#3b82f6" stroke="white" stroke-width="1"/>
<text x="547.0" y="74.7" font-size="9" fill="#3b82f6" text-anchor="middle" font-family="system-ui, -apple-system, sans-serif" font-weight="600" opacity="0.9">v0.8.0</text>
</svg>