<svg width="755" height="120" viewBox="0 0 755 120" xmlns="http://www.w3.org/2000/svg">
<rect width="755" height="120" fill="transparent"/>
<line x1="63" y1="67.5" x2="547" y2="67.5" stroke="currentColor" stroke-width="0.5" opacity="0.2" stroke-dasharray="2,2"/>
<polyline fill="none" stroke="#3b82f6" stroke-width="2" points="48.0,102.2 100.2,102.1 137.5,102.1 174.7,102.9 211.9,60.7 249.2,73.6 286.4,80.7 323.6,90.5 360.8,23.0 398.1,109.0 435.3,90.7 472.5,71.9 509.8,103.4 547.0,112.0" stroke-linecap="round" stroke-linejoin="round"/>
<circle cx="48.0" cy="102.2" r="3" fill="#3b82f6" stroke="white" stroke-width="1"/>
<text x="48.0" y="94.2" font-size="9" fill="#3b82f6" text-anchor="middle" font-family="system-ui, -apple-system, sans-serif" font-weight="600" opacity="0.9">v0.4.1</text>
<circle cx="100.2" cy="102.1" r="3" fill="#3b82f6" stroke="white" stroke-width="1"/>
<text x="100.2" y="94.1" font-size="9" fill="#3b82f6" text-anchor="middle" font-family="system-ui, -apple-system, sans-serif" font-weight="600" opacity="0.9">v0.4.1</text>
<circle cx="137.5" cy="102.1" r="3" fill="#3b82f6" stroke="white" stroke-width="1"/>
<text x="137.5" y="94.1" font-size="9" fill="#3b82f6" text-anchor="middle" font-family="system-ui, -apple-system, sans-serif" font-weight="600" opacity="0.9">v0.5.0</text>
<circle cx="174.7" cy="102.9" r="3" fill="#3b82f6" stroke="white" stroke-width="1"/>
<text x="174.7" y="94.9" font-size="9" fill="#3b82f6" text-anchor="middle" font-family="system-ui, -apple-system, sans-serif" font-weight="600" opacity="0.9">v0.5.0</text>
<circle cx="211.9" cy="60.7" r="3" fill="#3b82f6" stroke="white" stroke-width="1"/>
<text x="211.9" y="52.7" font-size="9" fill="#3b82f6" text-anchor="middle" font-family="system-ui, -apple-system, sans-serif" font-weight="600" opacity="0.9">v0.6.0</text>
<circle cx="249.2" cy="73.6" r="3" fill="#3b82f6" stroke="white" stroke-width="1"/>
<text x="249.2" y="65.6" font-size="9" fill="#3b82f6" text-anchor="middle" font-family="system-ui, -apple-system, sans-serif" font-weight="600" opacity="0.9">v0.6.1</text>
<circle cx="286.4" cy="80.7" r="3" fill="#3b82f6" stroke="white" stroke-width="1"/>
<text x="286.4" y="72.7" font-size="9" fill="#3b82f6" text-anchor="middle" font-family="system-ui, -apple-system, sans-serif" font-weight="600" opacity="0.9">v0.7.0</text>
<circle cx="323.6" cy="90.5" r="3" fill="#3b82f6" stroke="white" stroke-width="1"/>
<text x="323.6" y="82.5" font-size="9" fill="#3b82f6" text-anchor="middle" font-family="system-ui, -apple-system, sans-serif" font-weight="600" opacity="0.9">v0.7.0</text>
<circle cx="360.8" cy="23.0" r="3" fill="#3b82f6" stroke="white" stroke-width="1"/>
<text x="360.8" y="17.0" font-size="9" fill="#3b82f6" text-anchor="middle" font-family="system-ui, -apple-system, sans-serif" font-weight="600" opacity="0.9">v0.7.0 (164.84K ops/s)</text>
<circle cx="398.1" cy="109.0" r="3" fill="#3b82f6" stroke="white" stroke-width="1"/>
<text x="398.1" y="101.0" font-size="9" fill="#3b82f6" text-anchor="middle" font-family="system-ui, -apple-system, sans-serif" font-weight="600" opacity="0.9">v0.8.0</text>
<circle cx="435.3" cy="90.7" r="3" fill="#3b82f6" stroke="white" stroke-width="1"/>
<text x="435.3" y="82.7" font-size="9" fill="#3b82f6" text-anchor="middle" font-family="system-ui, -apple-system, sans-serif" font-weight="600" opacity="0.9">v0.8.0</text>
<circle cx="472.5" cy="71.9" r="3" fill="#3b82f6" stroke="white" stroke-width="1"/>
<text x="472.5" y="63.9" font-size="9" fill="#3b82f6" text-anchor="middle" font-family="system-ui, -apple-system, sans-serif" font-weight="600" opacity="0.9">v0.8.0</text>
<circle cx="509.8" cy="103.4" r="3" fill="#3b82f6" stroke="white" stroke-width="1"/>
<text x="509.8" y="95.4" font-size="9" fill="#3b82f6" text-anchor="middle" font-family="system-ui, -apple-system, sans-serif" font-weight="600" opacity="0.9">v0.8.0</text>
<circle cx="547.0" cy="112.0" r="3" fill="#3b82f6" stroke="white" stroke-width="1"/>
<text x="547.0" y="104.0" font-size="9" fill="#3b82f6" text-anchor="middle" font-family="system-ui, -apple-system, sans-serif" font-weight="600" opacity="0.9">v0.8.0 (97.24K ops/s)</text>
</svg>