<svg width="615" height="120" viewBox="0 0 615 120" xmlns="http://www.w3.org/2000/svg">
<rect width="615" height="120" fill="transparent"/>
<line x1="63" y1="67.5" x2="547" y2="67.5" stroke="currentColor" stroke-width="0.5" opacity="0.2" stroke-dasharray="2,2"/>
<polyline fill="none" stroke="#3b82f6" stroke-width="2" points="48.0,108.3 107.0,109.6 151.0,109.2 195.0,112.0 239.0,79.7 283.0,99.3 327.0,80.2 371.0,82.5 415.0,23.0 459.0,82.7 503.0,82.6 547.0,72.0" stroke-linecap="round" stroke-linejoin="round"/>
<circle cx="48.0" cy="108.3" r="3" fill="#3b82f6" stroke="white" stroke-width="1"/>
<text x="48.0" y="100.3" font-size="9" fill="#3b82f6" text-anchor="middle" font-family="system-ui, -apple-system, sans-serif" font-weight="600" opacity="0.9">v0.4.1</text>
<circle cx="107.0" cy="109.6" r="3" fill="#3b82f6" stroke="white" stroke-width="1"/>
<text x="107.0" y="101.6" font-size="9" fill="#3b82f6" text-anchor="middle" font-family="system-ui, -apple-system, sans-serif" font-weight="600" opacity="0.9">v0.4.1</text>
<circle cx="151.0" cy="109.2" r="3" fill="#3b82f6" stroke="white" stroke-width="1"/>
<text x="151.0" y="101.2" font-size="9" fill="#3b82f6" text-anchor="middle" font-family="system-ui, -apple-system, sans-serif" font-weight="600" opacity="0.9">v0.5.0</text>
<circle cx="195.0" cy="112.0" r="3" fill="#3b82f6" stroke="white" stroke-width="1"/>
<text x="195.0" y="104.0" font-size="9" fill="#3b82f6" text-anchor="middle" font-family="system-ui, -apple-system, sans-serif" font-weight="600" opacity="0.9">v0.5.0 (2.9 ops/s)</text>
<circle cx="239.0" cy="79.7" r="3" fill="#3b82f6" stroke="white" stroke-width="1"/>
<text x="239.0" y="71.7" font-size="9" fill="#3b82f6" text-anchor="middle" font-family="system-ui, -apple-system, sans-serif" font-weight="600" opacity="0.9">v0.6.0</text>
<circle cx="283.0" cy="99.3" r="3" fill="#3b82f6" stroke="white" stroke-width="1"/>
<text x="283.0" y="91.3" font-size="9" fill="#3b82f6" text-anchor="middle" font-family="system-ui, -apple-system, sans-serif" font-weight="600" opacity="0.9">v0.6.1</text>
<circle cx="327.0" cy="80.2" r="3" fill="#3b82f6" stroke="white" stroke-width="1"/>
<text x="327.0" y="72.2" font-size="9" fill="#3b82f6" text-anchor="middle" font-family="system-ui, -apple-system, sans-serif" font-weight="600" opacity="0.9">v0.7.0</text>
<circle cx="371.0" cy="82.5" r="3" fill="#3b82f6" stroke="white" stroke-width="1"/>
<text x="371.0" y="74.5" font-size="9" fill="#3b82f6" text-anchor="middle" font-family="system-ui, -apple-system, sans-serif" font-weight="600" opacity="0.9">v0.7.0</text>
<circle cx="415.0" cy="23.0" r="3" fill="#3b82f6" stroke="white" stroke-width="1"/>
<text x="415.0" y="17.0" font-size="9" fill="#3b82f6" text-anchor="middle" font-family="system-ui, -apple-system, sans-serif" font-weight="600" opacity="0.9">v0.7.0 (4.7 ops/s)</text>
<circle cx="459.0" cy="82.7" r="3" fill="#3b82f6" stroke="white" stroke-width="1"/>
<text x="459.0" y="74.7" font-size="9" fill="#3b82f6" text-anchor="middle" font-family="system-ui, -apple-system, sans-serif" font-weight="600" opacity="0.9">v0.8.0</text>
<circle cx="503.0" cy="82.6" r="3" fill="#3b82f6" stroke="white" stroke-width="1"/>
<text x="503.0" y="74.6" font-size="9" fill="#3b82f6" text-anchor="middle" font-family="system-ui, -apple-system, sans-serif" font-weight="600" opacity="0.9">v0.8.0</text>
<circle cx="547.0" cy="72.0" r="3" fill="#3b82f6" stroke="white" stroke-width="1"/>
<text x="547.0" y="64.0" font-size="9" fill="#3b82f6" text-anchor="middle" font-family="system-ui, -apple-system, sans-serif" font-weight="600" opacity="0.9">v0.8.0</text>
</svg>