<svg width="615" height="120" viewBox="0 0 615 120" xmlns="http://www.w3.org/2000/svg">
<rect width="615" height="120" fill="transparent"/>
<line x1="63" y1="67.5" x2="547" y2="67.5" stroke="currentColor" stroke-width="0.5" opacity="0.2" stroke-dasharray="2,2"/>
<polyline fill="none" stroke="#3b82f6" stroke-width="2" points="48.0,102.4 93.2,104.0 123.5,112.0 153.8,102.4 184.0,109.3 214.2,82.2 244.5,77.1 274.8,98.7 305.0,23.0 335.2,91.2 365.5,88.3 395.8,77.4 426.0,103.5 456.2,88.9 486.5,77.3 516.8,103.5 547.0,78.0" stroke-linecap="round" stroke-linejoin="round"/>
<circle cx="48.0" cy="102.4" r="3" fill="#3b82f6" stroke="white" stroke-width="1"/>
<text x="48.0" y="94.4" font-size="9" fill="#3b82f6" text-anchor="middle" font-family="system-ui, -apple-system, sans-serif" font-weight="600" opacity="0.9">v0.4.1</text>
<circle cx="93.2" cy="104.0" r="3" fill="#3b82f6" stroke="white" stroke-width="1"/>
<text x="93.2" y="96.0" font-size="9" fill="#3b82f6" text-anchor="middle" font-family="system-ui, -apple-system, sans-serif" font-weight="600" opacity="0.9">v0.4.1</text>
<circle cx="123.5" cy="112.0" r="3" fill="#3b82f6" stroke="white" stroke-width="1"/>
<text x="123.5" y="104.0" font-size="9" fill="#3b82f6" text-anchor="middle" font-family="system-ui, -apple-system, sans-serif" font-weight="600" opacity="0.9">v0.5.0 (1.25K ops/s)</text>
<circle cx="153.8" cy="102.4" r="3" fill="#3b82f6" stroke="white" stroke-width="1"/>
<text x="153.8" y="94.4" font-size="9" fill="#3b82f6" text-anchor="middle" font-family="system-ui, -apple-system, sans-serif" font-weight="600" opacity="0.9">v0.5.0</text>
<circle cx="184.0" cy="109.3" r="3" fill="#3b82f6" stroke="white" stroke-width="1"/>
<text x="184.0" y="101.3" font-size="9" fill="#3b82f6" text-anchor="middle" font-family="system-ui, -apple-system, sans-serif" font-weight="600" opacity="0.9">v0.6.0</text>
<circle cx="214.2" cy="82.2" r="3" fill="#3b82f6" stroke="white" stroke-width="1"/>
<text x="214.2" y="74.2" font-size="9" fill="#3b82f6" text-anchor="middle" font-family="system-ui, -apple-system, sans-serif" font-weight="600" opacity="0.9">v0.6.1</text>
<circle cx="244.5" cy="77.1" r="3" fill="#3b82f6" stroke="white" stroke-width="1"/>
<text x="244.5" y="69.1" font-size="9" fill="#3b82f6" text-anchor="middle" font-family="system-ui, -apple-system, sans-serif" font-weight="600" opacity="0.9">v0.7.0</text>
<circle cx="274.8" cy="98.7" r="3" fill="#3b82f6" stroke="white" stroke-width="1"/>
<text x="274.8" y="90.7" font-size="9" fill="#3b82f6" text-anchor="middle" font-family="system-ui, -apple-system, sans-serif" font-weight="600" opacity="0.9">v0.7.0</text>
<circle cx="305.0" cy="23.0" r="3" fill="#3b82f6" stroke="white" stroke-width="1"/>
<text x="305.0" y="17.0" font-size="9" fill="#3b82f6" text-anchor="middle" font-family="system-ui, -apple-system, sans-serif" font-weight="600" opacity="0.9">v0.7.0 (1.96K ops/s)</text>
<circle cx="335.2" cy="91.2" r="3" fill="#3b82f6" stroke="white" stroke-width="1"/>
<text x="335.2" y="83.2" font-size="9" fill="#3b82f6" text-anchor="middle" font-family="system-ui, -apple-system, sans-serif" font-weight="600" opacity="0.9">v0.8.0</text>
<circle cx="365.5" cy="88.3" r="3" fill="#3b82f6" stroke="white" stroke-width="1"/>
<text x="365.5" y="80.3" font-size="9" fill="#3b82f6" text-anchor="middle" font-family="system-ui, -apple-system, sans-serif" font-weight="600" opacity="0.9">v0.8.0</text>
<circle cx="395.8" cy="77.4" r="3" fill="#3b82f6" stroke="white" stroke-width="1"/>
<text x="395.8" y="69.4" font-size="9" fill="#3b82f6" text-anchor="middle" font-family="system-ui, -apple-system, sans-serif" font-weight="600" opacity="0.9">v0.8.0</text>
<circle cx="426.0" cy="103.5" r="3" fill="#3b82f6" stroke="white" stroke-width="1"/>
<text x="426.0" y="95.5" font-size="9" fill="#3b82f6" text-anchor="middle" font-family="system-ui, -apple-system, sans-serif" font-weight="600" opacity="0.9">v0.8.0</text>
<circle cx="456.2" cy="88.9" r="3" fill="#3b82f6" stroke="white" stroke-width="1"/>
<text x="456.2" y="80.9" font-size="9" fill="#3b82f6" text-anchor="middle" font-family="system-ui, -apple-system, sans-serif" font-weight="600" opacity="0.9">v0.8.0</text>
<circle cx="486.5" cy="77.3" r="3" fill="#3b82f6" stroke="white" stroke-width="1"/>
<text x="486.5" y="69.3" font-size="9" fill="#3b82f6" text-anchor="middle" font-family="system-ui, -apple-system, sans-serif" font-weight="600" opacity="0.9">v0.8.0</text>
<circle cx="516.8" cy="103.5" r="3" fill="#3b82f6" stroke="white" stroke-width="1"/>
<text x="516.8" y="95.5" font-size="9" fill="#3b82f6" text-anchor="middle" font-family="system-ui, -apple-system, sans-serif" font-weight="600" opacity="0.9">v0.9.0</text>
<circle cx="547.0" cy="78.0" r="3" fill="#3b82f6" stroke="white" stroke-width="1"/>
<text x="547.0" y="70.0" font-size="9" fill="#3b82f6" text-anchor="middle" font-family="system-ui, -apple-system, sans-serif" font-weight="600" opacity="0.9">v0.9.0</text>
</svg>