<svg width="615" height="120" viewBox="0 0 615 120" xmlns="http://www.w3.org/2000/svg">
<rect width="615" height="120" fill="transparent"/>
<line x1="63" y1="67.5" x2="547" y2="67.5" stroke="currentColor" stroke-width="0.5" opacity="0.2" stroke-dasharray="2,2"/>
<polyline fill="none" stroke="#3b82f6" stroke-width="2" points="48.0,86.7 95.3,85.5 127.5,87.3 159.8,86.8 192.1,58.0 224.3,66.4 256.6,65.6 288.9,103.5 321.1,23.0 353.4,104.2 385.7,81.5 417.9,63.2 450.2,112.0 482.5,107.8 514.7,62.9 547.0,107.7" stroke-linecap="round" stroke-linejoin="round"/>
<circle cx="48.0" cy="86.7" r="3" fill="#3b82f6" stroke="white" stroke-width="1"/>
<text x="48.0" y="78.7" font-size="9" fill="#3b82f6" text-anchor="middle" font-family="system-ui, -apple-system, sans-serif" font-weight="600" opacity="0.9">v0.4.1</text>
<circle cx="95.3" cy="85.5" r="3" fill="#3b82f6" stroke="white" stroke-width="1"/>
<text x="95.3" y="77.5" font-size="9" fill="#3b82f6" text-anchor="middle" font-family="system-ui, -apple-system, sans-serif" font-weight="600" opacity="0.9">v0.4.1</text>
<circle cx="127.5" cy="87.3" r="3" fill="#3b82f6" stroke="white" stroke-width="1"/>
<text x="127.5" y="79.3" font-size="9" fill="#3b82f6" text-anchor="middle" font-family="system-ui, -apple-system, sans-serif" font-weight="600" opacity="0.9">v0.5.0</text>
<circle cx="159.8" cy="86.8" r="3" fill="#3b82f6" stroke="white" stroke-width="1"/>
<text x="159.8" y="78.8" font-size="9" fill="#3b82f6" text-anchor="middle" font-family="system-ui, -apple-system, sans-serif" font-weight="600" opacity="0.9">v0.5.0</text>
<circle cx="192.1" cy="58.0" r="3" fill="#3b82f6" stroke="white" stroke-width="1"/>
<text x="192.1" y="50.0" font-size="9" fill="#3b82f6" text-anchor="middle" font-family="system-ui, -apple-system, sans-serif" font-weight="600" opacity="0.9">v0.6.0</text>
<circle cx="224.3" cy="66.4" r="3" fill="#3b82f6" stroke="white" stroke-width="1"/>
<text x="224.3" y="58.4" font-size="9" fill="#3b82f6" text-anchor="middle" font-family="system-ui, -apple-system, sans-serif" font-weight="600" opacity="0.9">v0.6.1</text>
<circle cx="256.6" cy="65.6" r="3" fill="#3b82f6" stroke="white" stroke-width="1"/>
<text x="256.6" y="57.6" font-size="9" fill="#3b82f6" text-anchor="middle" font-family="system-ui, -apple-system, sans-serif" font-weight="600" opacity="0.9">v0.7.0</text>
<circle cx="288.9" cy="103.5" r="3" fill="#3b82f6" stroke="white" stroke-width="1"/>
<text x="288.9" y="95.5" font-size="9" fill="#3b82f6" text-anchor="middle" font-family="system-ui, -apple-system, sans-serif" font-weight="600" opacity="0.9">v0.7.0</text>
<circle cx="321.1" cy="23.0" r="3" fill="#3b82f6" stroke="white" stroke-width="1"/>
<text x="321.1" y="17.0" font-size="9" fill="#3b82f6" text-anchor="middle" font-family="system-ui, -apple-system, sans-serif" font-weight="600" opacity="0.9">v0.7.0 (13.76K ops/s)</text>
<circle cx="353.4" cy="104.2" r="3" fill="#3b82f6" stroke="white" stroke-width="1"/>
<text x="353.4" y="96.2" font-size="9" fill="#3b82f6" text-anchor="middle" font-family="system-ui, -apple-system, sans-serif" font-weight="600" opacity="0.9">v0.8.0</text>
<circle cx="385.7" cy="81.5" r="3" fill="#3b82f6" stroke="white" stroke-width="1"/>
<text x="385.7" y="73.5" font-size="9" fill="#3b82f6" text-anchor="middle" font-family="system-ui, -apple-system, sans-serif" font-weight="600" opacity="0.9">v0.8.0</text>
<circle cx="417.9" cy="63.2" r="3" fill="#3b82f6" stroke="white" stroke-width="1"/>
<text x="417.9" y="55.2" font-size="9" fill="#3b82f6" text-anchor="middle" font-family="system-ui, -apple-system, sans-serif" font-weight="600" opacity="0.9">v0.8.0</text>
<circle cx="450.2" cy="112.0" r="3" fill="#3b82f6" stroke="white" stroke-width="1"/>
<text x="450.2" y="104.0" font-size="9" fill="#3b82f6" text-anchor="middle" font-family="system-ui, -apple-system, sans-serif" font-weight="600" opacity="0.9">v0.8.0 (7.13K ops/s)</text>
<circle cx="482.5" cy="107.8" r="3" fill="#3b82f6" stroke="white" stroke-width="1"/>
<text x="482.5" y="99.8" font-size="9" fill="#3b82f6" text-anchor="middle" font-family="system-ui, -apple-system, sans-serif" font-weight="600" opacity="0.9">v0.8.0</text>
<circle cx="514.7" cy="62.9" r="3" fill="#3b82f6" stroke="white" stroke-width="1"/>
<text x="514.7" y="54.9" font-size="9" fill="#3b82f6" text-anchor="middle" font-family="system-ui, -apple-system, sans-serif" font-weight="600" opacity="0.9">v0.8.0</text>
<circle cx="547.0" cy="107.7" r="3" fill="#3b82f6" stroke="white" stroke-width="1"/>
<text x="547.0" y="99.7" font-size="9" fill="#3b82f6" text-anchor="middle" font-family="system-ui, -apple-system, sans-serif" font-weight="600" opacity="0.9">v0.9.0</text>
</svg>