<svg width="615" height="120" viewBox="0 0 615 120" xmlns="http://www.w3.org/2000/svg">
<rect width="615" height="120" fill="transparent"/>
<line x1="63" y1="67.5" x2="547" y2="67.5" stroke="currentColor" stroke-width="0.5" opacity="0.2" stroke-dasharray="2,2"/>
<polyline fill="none" stroke="#3b82f6" stroke-width="2" points="48.0,102.2 91.5,102.1 119.9,102.1 148.4,102.9 176.9,60.7 205.4,73.6 233.8,80.7 262.3,90.5 290.8,23.0 319.2,109.0 347.7,90.7 376.2,71.9 404.6,103.4 433.1,112.0 461.6,69.3 490.1,89.8 518.5,74.6 547.0,109.5" stroke-linecap="round" stroke-linejoin="round"/>
<circle cx="48.0" cy="102.2" r="3" fill="#3b82f6" stroke="white" stroke-width="1"/>
<text x="48.0" y="94.2" font-size="9" fill="#3b82f6" text-anchor="middle" font-family="system-ui, -apple-system, sans-serif" font-weight="600" opacity="0.9">v0.4.1</text>
<circle cx="91.5" cy="102.1" r="3" fill="#3b82f6" stroke="white" stroke-width="1"/>
<text x="91.5" y="94.1" font-size="9" fill="#3b82f6" text-anchor="middle" font-family="system-ui, -apple-system, sans-serif" font-weight="600" opacity="0.9">v0.4.1</text>
<circle cx="119.9" cy="102.1" r="3" fill="#3b82f6" stroke="white" stroke-width="1"/>
<text x="119.9" y="94.1" font-size="9" fill="#3b82f6" text-anchor="middle" font-family="system-ui, -apple-system, sans-serif" font-weight="600" opacity="0.9">v0.5.0</text>
<circle cx="148.4" cy="102.9" r="3" fill="#3b82f6" stroke="white" stroke-width="1"/>
<text x="148.4" y="94.9" font-size="9" fill="#3b82f6" text-anchor="middle" font-family="system-ui, -apple-system, sans-serif" font-weight="600" opacity="0.9">v0.5.0</text>
<circle cx="176.9" cy="60.7" r="3" fill="#3b82f6" stroke="white" stroke-width="1"/>
<text x="176.9" y="52.7" font-size="9" fill="#3b82f6" text-anchor="middle" font-family="system-ui, -apple-system, sans-serif" font-weight="600" opacity="0.9">v0.6.0</text>
<circle cx="205.4" cy="73.6" r="3" fill="#3b82f6" stroke="white" stroke-width="1"/>
<text x="205.4" y="65.6" font-size="9" fill="#3b82f6" text-anchor="middle" font-family="system-ui, -apple-system, sans-serif" font-weight="600" opacity="0.9">v0.6.1</text>
<circle cx="233.8" cy="80.7" r="3" fill="#3b82f6" stroke="white" stroke-width="1"/>
<text x="233.8" y="72.7" font-size="9" fill="#3b82f6" text-anchor="middle" font-family="system-ui, -apple-system, sans-serif" font-weight="600" opacity="0.9">v0.7.0</text>
<circle cx="262.3" cy="90.5" r="3" fill="#3b82f6" stroke="white" stroke-width="1"/>
<text x="262.3" y="82.5" font-size="9" fill="#3b82f6" text-anchor="middle" font-family="system-ui, -apple-system, sans-serif" font-weight="600" opacity="0.9">v0.7.0</text>
<circle cx="290.8" cy="23.0" r="3" fill="#3b82f6" stroke="white" stroke-width="1"/>
<text x="290.8" y="17.0" font-size="9" fill="#3b82f6" text-anchor="middle" font-family="system-ui, -apple-system, sans-serif" font-weight="600" opacity="0.9">v0.7.0 (164.84K ops/s)</text>
<circle cx="319.2" cy="109.0" r="3" fill="#3b82f6" stroke="white" stroke-width="1"/>
<text x="319.2" y="101.0" font-size="9" fill="#3b82f6" text-anchor="middle" font-family="system-ui, -apple-system, sans-serif" font-weight="600" opacity="0.9">v0.8.0</text>
<circle cx="347.7" cy="90.7" r="3" fill="#3b82f6" stroke="white" stroke-width="1"/>
<text x="347.7" y="82.7" font-size="9" fill="#3b82f6" text-anchor="middle" font-family="system-ui, -apple-system, sans-serif" font-weight="600" opacity="0.9">v0.8.0</text>
<circle cx="376.2" cy="71.9" r="3" fill="#3b82f6" stroke="white" stroke-width="1"/>
<text x="376.2" y="63.9" font-size="9" fill="#3b82f6" text-anchor="middle" font-family="system-ui, -apple-system, sans-serif" font-weight="600" opacity="0.9">v0.8.0</text>
<circle cx="404.6" cy="103.4" r="3" fill="#3b82f6" stroke="white" stroke-width="1"/>
<text x="404.6" y="95.4" font-size="9" fill="#3b82f6" text-anchor="middle" font-family="system-ui, -apple-system, sans-serif" font-weight="600" opacity="0.9">v0.8.0</text>
<circle cx="433.1" cy="112.0" r="3" fill="#3b82f6" stroke="white" stroke-width="1"/>
<text x="433.1" y="104.0" font-size="9" fill="#3b82f6" text-anchor="middle" font-family="system-ui, -apple-system, sans-serif" font-weight="600" opacity="0.9">v0.8.0 (97.24K ops/s)</text>
<circle cx="461.6" cy="69.3" r="3" fill="#3b82f6" stroke="white" stroke-width="1"/>
<text x="461.6" y="61.3" font-size="9" fill="#3b82f6" text-anchor="middle" font-family="system-ui, -apple-system, sans-serif" font-weight="600" opacity="0.9">v0.8.0</text>
<circle cx="490.1" cy="89.8" r="3" fill="#3b82f6" stroke="white" stroke-width="1"/>
<text x="490.1" y="81.8" font-size="9" fill="#3b82f6" text-anchor="middle" font-family="system-ui, -apple-system, sans-serif" font-weight="600" opacity="0.9">v0.9.0</text>
<circle cx="518.5" cy="74.6" r="3" fill="#3b82f6" stroke="white" stroke-width="1"/>
<text x="518.5" y="66.6" font-size="9" fill="#3b82f6" text-anchor="middle" font-family="system-ui, -apple-system, sans-serif" font-weight="600" opacity="0.9">v0.9.0</text>
<circle cx="547.0" cy="109.5" r="3" fill="#3b82f6" stroke="white" stroke-width="1"/>
<text x="547.0" y="101.5" font-size="9" fill="#3b82f6" text-anchor="middle" font-family="system-ui, -apple-system, sans-serif" font-weight="600" opacity="0.9">v0.10.0</text>
</svg>