<svg width="615" height="120" viewBox="0 0 615 120" xmlns="http://www.w3.org/2000/svg">
<rect width="615" height="120" fill="transparent"/>
<line x1="63" y1="67.5" x2="547" y2="67.5" stroke="currentColor" stroke-width="0.5" opacity="0.2" stroke-dasharray="2,2"/>
<polyline fill="none" stroke="#3b82f6" stroke-width="2" points="48.0,102.4 91.5,104.0 119.9,112.0 148.4,102.4 176.9,109.3 205.4,82.2 233.8,77.1 262.3,98.7 290.8,23.0 319.2,91.2 347.7,88.3 376.2,77.4 404.6,103.5 433.1,88.9 461.6,77.3 490.1,103.5 518.5,78.0 547.0,91.2" stroke-linecap="round" stroke-linejoin="round"/>
<circle cx="48.0" cy="102.4" r="3" fill="#3b82f6" stroke="white" stroke-width="1"/>
<text x="48.0" y="94.4" font-size="9" fill="#3b82f6" text-anchor="middle" font-family="system-ui, -apple-system, sans-serif" font-weight="600" opacity="0.9">v0.4.1</text>
<circle cx="91.5" cy="104.0" r="3" fill="#3b82f6" stroke="white" stroke-width="1"/>
<text x="91.5" y="96.0" font-size="9" fill="#3b82f6" text-anchor="middle" font-family="system-ui, -apple-system, sans-serif" font-weight="600" opacity="0.9">v0.4.1</text>
<circle cx="119.9" cy="112.0" r="3" fill="#3b82f6" stroke="white" stroke-width="1"/>
<text x="119.9" y="104.0" font-size="9" fill="#3b82f6" text-anchor="middle" font-family="system-ui, -apple-system, sans-serif" font-weight="600" opacity="0.9">v0.5.0 (1.25K ops/s)</text>
<circle cx="148.4" cy="102.4" r="3" fill="#3b82f6" stroke="white" stroke-width="1"/>
<text x="148.4" y="94.4" font-size="9" fill="#3b82f6" text-anchor="middle" font-family="system-ui, -apple-system, sans-serif" font-weight="600" opacity="0.9">v0.5.0</text>
<circle cx="176.9" cy="109.3" r="3" fill="#3b82f6" stroke="white" stroke-width="1"/>
<text x="176.9" y="101.3" font-size="9" fill="#3b82f6" text-anchor="middle" font-family="system-ui, -apple-system, sans-serif" font-weight="600" opacity="0.9">v0.6.0</text>
<circle cx="205.4" cy="82.2" r="3" fill="#3b82f6" stroke="white" stroke-width="1"/>
<text x="205.4" y="74.2" font-size="9" fill="#3b82f6" text-anchor="middle" font-family="system-ui, -apple-system, sans-serif" font-weight="600" opacity="0.9">v0.6.1</text>
<circle cx="233.8" cy="77.1" r="3" fill="#3b82f6" stroke="white" stroke-width="1"/>
<text x="233.8" y="69.1" font-size="9" fill="#3b82f6" text-anchor="middle" font-family="system-ui, -apple-system, sans-serif" font-weight="600" opacity="0.9">v0.7.0</text>
<circle cx="262.3" cy="98.7" r="3" fill="#3b82f6" stroke="white" stroke-width="1"/>
<text x="262.3" y="90.7" font-size="9" fill="#3b82f6" text-anchor="middle" font-family="system-ui, -apple-system, sans-serif" font-weight="600" opacity="0.9">v0.7.0</text>
<circle cx="290.8" cy="23.0" r="3" fill="#3b82f6" stroke="white" stroke-width="1"/>
<text x="290.8" y="17.0" font-size="9" fill="#3b82f6" text-anchor="middle" font-family="system-ui, -apple-system, sans-serif" font-weight="600" opacity="0.9">v0.7.0 (1.96K ops/s)</text>
<circle cx="319.2" cy="91.2" r="3" fill="#3b82f6" stroke="white" stroke-width="1"/>
<text x="319.2" y="83.2" font-size="9" fill="#3b82f6" text-anchor="middle" font-family="system-ui, -apple-system, sans-serif" font-weight="600" opacity="0.9">v0.8.0</text>
<circle cx="347.7" cy="88.3" r="3" fill="#3b82f6" stroke="white" stroke-width="1"/>
<text x="347.7" y="80.3" font-size="9" fill="#3b82f6" text-anchor="middle" font-family="system-ui, -apple-system, sans-serif" font-weight="600" opacity="0.9">v0.8.0</text>
<circle cx="376.2" cy="77.4" r="3" fill="#3b82f6" stroke="white" stroke-width="1"/>
<text x="376.2" y="69.4" font-size="9" fill="#3b82f6" text-anchor="middle" font-family="system-ui, -apple-system, sans-serif" font-weight="600" opacity="0.9">v0.8.0</text>
<circle cx="404.6" cy="103.5" r="3" fill="#3b82f6" stroke="white" stroke-width="1"/>
<text x="404.6" y="95.5" font-size="9" fill="#3b82f6" text-anchor="middle" font-family="system-ui, -apple-system, sans-serif" font-weight="600" opacity="0.9">v0.8.0</text>
<circle cx="433.1" cy="88.9" r="3" fill="#3b82f6" stroke="white" stroke-width="1"/>
<text x="433.1" y="80.9" font-size="9" fill="#3b82f6" text-anchor="middle" font-family="system-ui, -apple-system, sans-serif" font-weight="600" opacity="0.9">v0.8.0</text>
<circle cx="461.6" cy="77.3" r="3" fill="#3b82f6" stroke="white" stroke-width="1"/>
<text x="461.6" y="69.3" font-size="9" fill="#3b82f6" text-anchor="middle" font-family="system-ui, -apple-system, sans-serif" font-weight="600" opacity="0.9">v0.8.0</text>
<circle cx="490.1" cy="103.5" r="3" fill="#3b82f6" stroke="white" stroke-width="1"/>
<text x="490.1" y="95.5" font-size="9" fill="#3b82f6" text-anchor="middle" font-family="system-ui, -apple-system, sans-serif" font-weight="600" opacity="0.9">v0.9.0</text>
<circle cx="518.5" cy="78.0" r="3" fill="#3b82f6" stroke="white" stroke-width="1"/>
<text x="518.5" y="70.0" font-size="9" fill="#3b82f6" text-anchor="middle" font-family="system-ui, -apple-system, sans-serif" font-weight="600" opacity="0.9">v0.9.0</text>
<circle cx="547.0" cy="91.2" r="3" fill="#3b82f6" stroke="white" stroke-width="1"/>
<text x="547.0" y="83.2" font-size="9" fill="#3b82f6" text-anchor="middle" font-family="system-ui, -apple-system, sans-serif" font-weight="600" opacity="0.9">v0.10.0</text>
</svg>