<svg width="615" height="120" viewBox="0 0 615 120" xmlns="http://www.w3.org/2000/svg">
<rect width="615" height="120" fill="transparent"/>
<line x1="63" y1="67.5" x2="547" y2="67.5" stroke="currentColor" stroke-width="0.5" opacity="0.2" stroke-dasharray="2,2"/>
<polyline fill="none" stroke="#3b82f6" stroke-width="2" points="48.0,86.7 91.5,85.5 119.9,87.3 148.4,86.8 176.9,58.0 205.4,66.4 233.8,65.6 262.3,103.5 290.8,23.0 319.2,104.2 347.7,81.5 376.2,63.2 404.6,112.0 433.1,107.8 461.6,62.9 490.1,107.7 518.5,63.1 547.0,102.5" stroke-linecap="round" stroke-linejoin="round"/>
<circle cx="48.0" cy="86.7" r="3" fill="#3b82f6" stroke="white" stroke-width="1"/>
<text x="48.0" y="78.7" font-size="9" fill="#3b82f6" text-anchor="middle" font-family="system-ui, -apple-system, sans-serif" font-weight="600" opacity="0.9">v0.4.1</text>
<circle cx="91.5" cy="85.5" r="3" fill="#3b82f6" stroke="white" stroke-width="1"/>
<text x="91.5" y="77.5" font-size="9" fill="#3b82f6" text-anchor="middle" font-family="system-ui, -apple-system, sans-serif" font-weight="600" opacity="0.9">v0.4.1</text>
<circle cx="119.9" cy="87.3" r="3" fill="#3b82f6" stroke="white" stroke-width="1"/>
<text x="119.9" y="79.3" font-size="9" fill="#3b82f6" text-anchor="middle" font-family="system-ui, -apple-system, sans-serif" font-weight="600" opacity="0.9">v0.5.0</text>
<circle cx="148.4" cy="86.8" r="3" fill="#3b82f6" stroke="white" stroke-width="1"/>
<text x="148.4" y="78.8" font-size="9" fill="#3b82f6" text-anchor="middle" font-family="system-ui, -apple-system, sans-serif" font-weight="600" opacity="0.9">v0.5.0</text>
<circle cx="176.9" cy="58.0" r="3" fill="#3b82f6" stroke="white" stroke-width="1"/>
<text x="176.9" y="50.0" font-size="9" fill="#3b82f6" text-anchor="middle" font-family="system-ui, -apple-system, sans-serif" font-weight="600" opacity="0.9">v0.6.0</text>
<circle cx="205.4" cy="66.4" r="3" fill="#3b82f6" stroke="white" stroke-width="1"/>
<text x="205.4" y="58.4" font-size="9" fill="#3b82f6" text-anchor="middle" font-family="system-ui, -apple-system, sans-serif" font-weight="600" opacity="0.9">v0.6.1</text>
<circle cx="233.8" cy="65.6" r="3" fill="#3b82f6" stroke="white" stroke-width="1"/>
<text x="233.8" y="57.6" font-size="9" fill="#3b82f6" text-anchor="middle" font-family="system-ui, -apple-system, sans-serif" font-weight="600" opacity="0.9">v0.7.0</text>
<circle cx="262.3" cy="103.5" r="3" fill="#3b82f6" stroke="white" stroke-width="1"/>
<text x="262.3" y="95.5" font-size="9" fill="#3b82f6" text-anchor="middle" font-family="system-ui, -apple-system, sans-serif" font-weight="600" opacity="0.9">v0.7.0</text>
<circle cx="290.8" cy="23.0" r="3" fill="#3b82f6" stroke="white" stroke-width="1"/>
<text x="290.8" y="17.0" font-size="9" fill="#3b82f6" text-anchor="middle" font-family="system-ui, -apple-system, sans-serif" font-weight="600" opacity="0.9">v0.7.0 (13.76K ops/s)</text>
<circle cx="319.2" cy="104.2" r="3" fill="#3b82f6" stroke="white" stroke-width="1"/>
<text x="319.2" y="96.2" font-size="9" fill="#3b82f6" text-anchor="middle" font-family="system-ui, -apple-system, sans-serif" font-weight="600" opacity="0.9">v0.8.0</text>
<circle cx="347.7" cy="81.5" r="3" fill="#3b82f6" stroke="white" stroke-width="1"/>
<text x="347.7" y="73.5" font-size="9" fill="#3b82f6" text-anchor="middle" font-family="system-ui, -apple-system, sans-serif" font-weight="600" opacity="0.9">v0.8.0</text>
<circle cx="376.2" cy="63.2" r="3" fill="#3b82f6" stroke="white" stroke-width="1"/>
<text x="376.2" y="55.2" font-size="9" fill="#3b82f6" text-anchor="middle" font-family="system-ui, -apple-system, sans-serif" font-weight="600" opacity="0.9">v0.8.0</text>
<circle cx="404.6" cy="112.0" r="3" fill="#3b82f6" stroke="white" stroke-width="1"/>
<text x="404.6" y="104.0" font-size="9" fill="#3b82f6" text-anchor="middle" font-family="system-ui, -apple-system, sans-serif" font-weight="600" opacity="0.9">v0.8.0 (7.13K ops/s)</text>
<circle cx="433.1" cy="107.8" r="3" fill="#3b82f6" stroke="white" stroke-width="1"/>
<text x="433.1" y="99.8" font-size="9" fill="#3b82f6" text-anchor="middle" font-family="system-ui, -apple-system, sans-serif" font-weight="600" opacity="0.9">v0.8.0</text>
<circle cx="461.6" cy="62.9" r="3" fill="#3b82f6" stroke="white" stroke-width="1"/>
<text x="461.6" y="54.9" font-size="9" fill="#3b82f6" text-anchor="middle" font-family="system-ui, -apple-system, sans-serif" font-weight="600" opacity="0.9">v0.8.0</text>
<circle cx="490.1" cy="107.7" r="3" fill="#3b82f6" stroke="white" stroke-width="1"/>
<text x="490.1" y="99.7" font-size="9" fill="#3b82f6" text-anchor="middle" font-family="system-ui, -apple-system, sans-serif" font-weight="600" opacity="0.9">v0.9.0</text>
<circle cx="518.5" cy="63.1" r="3" fill="#3b82f6" stroke="white" stroke-width="1"/>
<text x="518.5" y="55.1" font-size="9" fill="#3b82f6" text-anchor="middle" font-family="system-ui, -apple-system, sans-serif" font-weight="600" opacity="0.9">v0.9.0</text>
<circle cx="547.0" cy="102.5" r="3" fill="#3b82f6" stroke="white" stroke-width="1"/>
<text x="547.0" y="94.5" font-size="9" fill="#3b82f6" text-anchor="middle" font-family="system-ui, -apple-system, sans-serif" font-weight="600" opacity="0.9">v0.10.0</text>
</svg>