<svg width="615" height="120" viewBox="0 0 615 120" xmlns="http://www.w3.org/2000/svg">
<rect width="615" height="120" fill="transparent"/>
<line x1="63" y1="67.5" x2="547" y2="67.5" stroke="currentColor" stroke-width="0.5" opacity="0.2" stroke-dasharray="2,2"/>
<polyline fill="none" stroke="#3b82f6" stroke-width="2" points="48.0,108.3 93.2,109.6 123.5,109.2 153.8,112.0 184.0,79.7 214.2,99.3 244.5,80.2 274.8,82.5 305.0,23.0 335.2,82.7 365.5,82.6 395.8,72.0 426.0,83.7 456.2,82.0 486.5,72.5 516.8,81.8 547.0,71.9" stroke-linecap="round" stroke-linejoin="round"/>
<circle cx="48.0" cy="108.3" r="3" fill="#3b82f6" stroke="white" stroke-width="1"/>
<text x="48.0" y="100.3" font-size="9" fill="#3b82f6" text-anchor="middle" font-family="system-ui, -apple-system, sans-serif" font-weight="600" opacity="0.9">v0.4.1</text>
<circle cx="93.2" cy="109.6" r="3" fill="#3b82f6" stroke="white" stroke-width="1"/>
<text x="93.2" y="101.6" font-size="9" fill="#3b82f6" text-anchor="middle" font-family="system-ui, -apple-system, sans-serif" font-weight="600" opacity="0.9">v0.4.1</text>
<circle cx="123.5" cy="109.2" r="3" fill="#3b82f6" stroke="white" stroke-width="1"/>
<text x="123.5" y="101.2" font-size="9" fill="#3b82f6" text-anchor="middle" font-family="system-ui, -apple-system, sans-serif" font-weight="600" opacity="0.9">v0.5.0</text>
<circle cx="153.8" cy="112.0" r="3" fill="#3b82f6" stroke="white" stroke-width="1"/>
<text x="153.8" y="104.0" font-size="9" fill="#3b82f6" text-anchor="middle" font-family="system-ui, -apple-system, sans-serif" font-weight="600" opacity="0.9">v0.5.0 (2.9 ops/s)</text>
<circle cx="184.0" cy="79.7" r="3" fill="#3b82f6" stroke="white" stroke-width="1"/>
<text x="184.0" y="71.7" font-size="9" fill="#3b82f6" text-anchor="middle" font-family="system-ui, -apple-system, sans-serif" font-weight="600" opacity="0.9">v0.6.0</text>
<circle cx="214.2" cy="99.3" r="3" fill="#3b82f6" stroke="white" stroke-width="1"/>
<text x="214.2" y="91.3" font-size="9" fill="#3b82f6" text-anchor="middle" font-family="system-ui, -apple-system, sans-serif" font-weight="600" opacity="0.9">v0.6.1</text>
<circle cx="244.5" cy="80.2" r="3" fill="#3b82f6" stroke="white" stroke-width="1"/>
<text x="244.5" y="72.2" font-size="9" fill="#3b82f6" text-anchor="middle" font-family="system-ui, -apple-system, sans-serif" font-weight="600" opacity="0.9">v0.7.0</text>
<circle cx="274.8" cy="82.5" r="3" fill="#3b82f6" stroke="white" stroke-width="1"/>
<text x="274.8" y="74.5" font-size="9" fill="#3b82f6" text-anchor="middle" font-family="system-ui, -apple-system, sans-serif" font-weight="600" opacity="0.9">v0.7.0</text>
<circle cx="305.0" cy="23.0" r="3" fill="#3b82f6" stroke="white" stroke-width="1"/>
<text x="305.0" y="17.0" font-size="9" fill="#3b82f6" text-anchor="middle" font-family="system-ui, -apple-system, sans-serif" font-weight="600" opacity="0.9">v0.7.0 (4.7 ops/s)</text>
<circle cx="335.2" cy="82.7" r="3" fill="#3b82f6" stroke="white" stroke-width="1"/>
<text x="335.2" y="74.7" font-size="9" fill="#3b82f6" text-anchor="middle" font-family="system-ui, -apple-system, sans-serif" font-weight="600" opacity="0.9">v0.8.0</text>
<circle cx="365.5" cy="82.6" r="3" fill="#3b82f6" stroke="white" stroke-width="1"/>
<text x="365.5" y="74.6" font-size="9" fill="#3b82f6" text-anchor="middle" font-family="system-ui, -apple-system, sans-serif" font-weight="600" opacity="0.9">v0.8.0</text>
<circle cx="395.8" cy="72.0" r="3" fill="#3b82f6" stroke="white" stroke-width="1"/>
<text x="395.8" y="64.0" font-size="9" fill="#3b82f6" text-anchor="middle" font-family="system-ui, -apple-system, sans-serif" font-weight="600" opacity="0.9">v0.8.0</text>
<circle cx="426.0" cy="83.7" r="3" fill="#3b82f6" stroke="white" stroke-width="1"/>
<text x="426.0" y="75.7" font-size="9" fill="#3b82f6" text-anchor="middle" font-family="system-ui, -apple-system, sans-serif" font-weight="600" opacity="0.9">v0.8.0</text>
<circle cx="456.2" cy="82.0" r="3" fill="#3b82f6" stroke="white" stroke-width="1"/>
<text x="456.2" y="74.0" font-size="9" fill="#3b82f6" text-anchor="middle" font-family="system-ui, -apple-system, sans-serif" font-weight="600" opacity="0.9">v0.8.0</text>
<circle cx="486.5" cy="72.5" r="3" fill="#3b82f6" stroke="white" stroke-width="1"/>
<text x="486.5" y="64.5" font-size="9" fill="#3b82f6" text-anchor="middle" font-family="system-ui, -apple-system, sans-serif" font-weight="600" opacity="0.9">v0.8.0</text>
<circle cx="516.8" cy="81.8" r="3" fill="#3b82f6" stroke="white" stroke-width="1"/>
<text x="516.8" y="73.8" font-size="9" fill="#3b82f6" text-anchor="middle" font-family="system-ui, -apple-system, sans-serif" font-weight="600" opacity="0.9">v0.9.0</text>
<circle cx="547.0" cy="71.9" r="3" fill="#3b82f6" stroke="white" stroke-width="1"/>
<text x="547.0" y="63.9" font-size="9" fill="#3b82f6" text-anchor="middle" font-family="system-ui, -apple-system, sans-serif" font-weight="600" opacity="0.9">v0.9.0</text>
</svg>