<svg width="615" height="120" viewBox="0 0 615 120" xmlns="http://www.w3.org/2000/svg">
<rect width="615" height="120" fill="transparent"/>
<line x1="63" y1="67.5" x2="547" y2="67.5" stroke="currentColor" stroke-width="0.5" opacity="0.2" stroke-dasharray="2,2"/>
<polyline fill="none" stroke="#3b82f6" stroke-width="2" points="48.0,104.9 103.3,104.8 143.7,104.8 184.0,105.6 224.3,62.0 264.7,75.4 305.0,82.7 345.3,92.8 385.7,23.0 426.0,112.0 466.3,93.0 506.7,73.6 547.0,106.2" stroke-linecap="round" stroke-linejoin="round"/>
<circle cx="48.0" cy="104.9" r="3" fill="#3b82f6" stroke="white" stroke-width="1"/>
<text x="48.0" y="96.9" font-size="9" fill="#3b82f6" text-anchor="middle" font-family="system-ui, -apple-system, sans-serif" font-weight="600" opacity="0.9">v0.4.1</text>
<circle cx="103.3" cy="104.8" r="3" fill="#3b82f6" stroke="white" stroke-width="1"/>
<text x="103.3" y="96.8" font-size="9" fill="#3b82f6" text-anchor="middle" font-family="system-ui, -apple-system, sans-serif" font-weight="600" opacity="0.9">v0.4.1</text>
<circle cx="143.7" cy="104.8" r="3" fill="#3b82f6" stroke="white" stroke-width="1"/>
<text x="143.7" y="96.8" font-size="9" fill="#3b82f6" text-anchor="middle" font-family="system-ui, -apple-system, sans-serif" font-weight="600" opacity="0.9">v0.5.0</text>
<circle cx="184.0" cy="105.6" r="3" fill="#3b82f6" stroke="white" stroke-width="1"/>
<text x="184.0" y="97.6" font-size="9" fill="#3b82f6" text-anchor="middle" font-family="system-ui, -apple-system, sans-serif" font-weight="600" opacity="0.9">v0.5.0</text>
<circle cx="224.3" cy="62.0" r="3" fill="#3b82f6" stroke="white" stroke-width="1"/>
<text x="224.3" y="54.0" font-size="9" fill="#3b82f6" text-anchor="middle" font-family="system-ui, -apple-system, sans-serif" font-weight="600" opacity="0.9">v0.6.0</text>
<circle cx="264.7" cy="75.4" r="3" fill="#3b82f6" stroke="white" stroke-width="1"/>
<text x="264.7" y="67.4" font-size="9" fill="#3b82f6" text-anchor="middle" font-family="system-ui, -apple-system, sans-serif" font-weight="600" opacity="0.9">v0.6.1</text>
<circle cx="305.0" cy="82.7" r="3" fill="#3b82f6" stroke="white" stroke-width="1"/>
<text x="305.0" y="74.7" font-size="9" fill="#3b82f6" text-anchor="middle" font-family="system-ui, -apple-system, sans-serif" font-weight="600" opacity="0.9">v0.7.0</text>
<circle cx="345.3" cy="92.8" r="3" fill="#3b82f6" stroke="white" stroke-width="1"/>
<text x="345.3" y="84.8" font-size="9" fill="#3b82f6" text-anchor="middle" font-family="system-ui, -apple-system, sans-serif" font-weight="600" opacity="0.9">v0.7.0</text>
<circle cx="385.7" cy="23.0" r="3" fill="#3b82f6" stroke="white" stroke-width="1"/>
<text x="385.7" y="17.0" font-size="9" fill="#3b82f6" text-anchor="middle" font-family="system-ui, -apple-system, sans-serif" font-weight="600" opacity="0.9">v0.7.0 (164.84K ops/s)</text>
<circle cx="426.0" cy="112.0" r="3" fill="#3b82f6" stroke="white" stroke-width="1"/>
<text x="426.0" y="104.0" font-size="9" fill="#3b82f6" text-anchor="middle" font-family="system-ui, -apple-system, sans-serif" font-weight="600" opacity="0.9">v0.8.0 (99.49K ops/s)</text>
<circle cx="466.3" cy="93.0" r="3" fill="#3b82f6" stroke="white" stroke-width="1"/>
<text x="466.3" y="85.0" font-size="9" fill="#3b82f6" text-anchor="middle" font-family="system-ui, -apple-system, sans-serif" font-weight="600" opacity="0.9">v0.8.0</text>
<circle cx="506.7" cy="73.6" r="3" fill="#3b82f6" stroke="white" stroke-width="1"/>
<text x="506.7" y="65.6" font-size="9" fill="#3b82f6" text-anchor="middle" font-family="system-ui, -apple-system, sans-serif" font-weight="600" opacity="0.9">v0.8.0</text>
<circle cx="547.0" cy="106.2" r="3" fill="#3b82f6" stroke="white" stroke-width="1"/>
<text x="547.0" y="98.2" font-size="9" fill="#3b82f6" text-anchor="middle" font-family="system-ui, -apple-system, sans-serif" font-weight="600" opacity="0.9">v0.8.0</text>
</svg>