<svg width="615" height="120" viewBox="0 0 615 120" xmlns="http://www.w3.org/2000/svg">
<rect width="615" height="120" fill="transparent"/>
<line x1="63" y1="67.5" x2="547" y2="67.5" stroke="currentColor" stroke-width="0.5" opacity="0.2" stroke-dasharray="2,2"/>
<polyline fill="none" stroke="#3b82f6" stroke-width="2" points="48.0,102.6 95.3,110.7 127.5,112.0 159.8,96.1 192.1,60.1 224.3,107.1 256.6,100.3 288.9,95.4 321.1,23.0 353.4,88.7 385.7,84.4 417.9,100.2 450.2,94.5 482.5,83.0 514.7,98.8 547.0,88.2" stroke-linecap="round" stroke-linejoin="round"/>
<circle cx="48.0" cy="102.6" r="3" fill="#3b82f6" stroke="white" stroke-width="1"/>
<text x="48.0" y="94.6" font-size="9" fill="#3b82f6" text-anchor="middle" font-family="system-ui, -apple-system, sans-serif" font-weight="600" opacity="0.9">v0.4.1</text>
<circle cx="95.3" cy="110.7" r="3" fill="#3b82f6" stroke="white" stroke-width="1"/>
<text x="95.3" y="102.7" font-size="9" fill="#3b82f6" text-anchor="middle" font-family="system-ui, -apple-system, sans-serif" font-weight="600" opacity="0.9">v0.4.1</text>
<circle cx="127.5" cy="112.0" r="3" fill="#3b82f6" stroke="white" stroke-width="1"/>
<text x="127.5" y="104.0" font-size="9" fill="#3b82f6" text-anchor="middle" font-family="system-ui, -apple-system, sans-serif" font-weight="600" opacity="0.9">v0.5.0 (447.6 ops/s)</text>
<circle cx="159.8" cy="96.1" r="3" fill="#3b82f6" stroke="white" stroke-width="1"/>
<text x="159.8" y="88.1" font-size="9" fill="#3b82f6" text-anchor="middle" font-family="system-ui, -apple-system, sans-serif" font-weight="600" opacity="0.9">v0.5.0</text>
<circle cx="192.1" cy="60.1" r="3" fill="#3b82f6" stroke="white" stroke-width="1"/>
<text x="192.1" y="52.1" font-size="9" fill="#3b82f6" text-anchor="middle" font-family="system-ui, -apple-system, sans-serif" font-weight="600" opacity="0.9">v0.6.0</text>
<circle cx="224.3" cy="107.1" r="3" fill="#3b82f6" stroke="white" stroke-width="1"/>
<text x="224.3" y="99.1" font-size="9" fill="#3b82f6" text-anchor="middle" font-family="system-ui, -apple-system, sans-serif" font-weight="600" opacity="0.9">v0.6.1</text>
<circle cx="256.6" cy="100.3" r="3" fill="#3b82f6" stroke="white" stroke-width="1"/>
<text x="256.6" y="92.3" font-size="9" fill="#3b82f6" text-anchor="middle" font-family="system-ui, -apple-system, sans-serif" font-weight="600" opacity="0.9">v0.7.0</text>
<circle cx="288.9" cy="95.4" r="3" fill="#3b82f6" stroke="white" stroke-width="1"/>
<text x="288.9" y="87.4" font-size="9" fill="#3b82f6" text-anchor="middle" font-family="system-ui, -apple-system, sans-serif" font-weight="600" opacity="0.9">v0.7.0</text>
<circle cx="321.1" cy="23.0" r="3" fill="#3b82f6" stroke="white" stroke-width="1"/>
<text x="321.1" y="17.0" font-size="9" fill="#3b82f6" text-anchor="middle" font-family="system-ui, -apple-system, sans-serif" font-weight="600" opacity="0.9">v0.7.0 (554.1 ops/s)</text>
<circle cx="353.4" cy="88.7" r="3" fill="#3b82f6" stroke="white" stroke-width="1"/>
<text x="353.4" y="80.7" font-size="9" fill="#3b82f6" text-anchor="middle" font-family="system-ui, -apple-system, sans-serif" font-weight="600" opacity="0.9">v0.8.0</text>
<circle cx="385.7" cy="84.4" r="3" fill="#3b82f6" stroke="white" stroke-width="1"/>
<text x="385.7" y="76.4" font-size="9" fill="#3b82f6" text-anchor="middle" font-family="system-ui, -apple-system, sans-serif" font-weight="600" opacity="0.9">v0.8.0</text>
<circle cx="417.9" cy="100.2" r="3" fill="#3b82f6" stroke="white" stroke-width="1"/>
<text x="417.9" y="92.2" font-size="9" fill="#3b82f6" text-anchor="middle" font-family="system-ui, -apple-system, sans-serif" font-weight="600" opacity="0.9">v0.8.0</text>
<circle cx="450.2" cy="94.5" r="3" fill="#3b82f6" stroke="white" stroke-width="1"/>
<text x="450.2" y="86.5" font-size="9" fill="#3b82f6" text-anchor="middle" font-family="system-ui, -apple-system, sans-serif" font-weight="600" opacity="0.9">v0.8.0</text>
<circle cx="482.5" cy="83.0" r="3" fill="#3b82f6" stroke="white" stroke-width="1"/>
<text x="482.5" y="75.0" font-size="9" fill="#3b82f6" text-anchor="middle" font-family="system-ui, -apple-system, sans-serif" font-weight="600" opacity="0.9">v0.8.0</text>
<circle cx="514.7" cy="98.8" r="3" fill="#3b82f6" stroke="white" stroke-width="1"/>
<text x="514.7" y="90.8" font-size="9" fill="#3b82f6" text-anchor="middle" font-family="system-ui, -apple-system, sans-serif" font-weight="600" opacity="0.9">v0.8.0</text>
<circle cx="547.0" cy="88.2" r="3" fill="#3b82f6" stroke="white" stroke-width="1"/>
<text x="547.0" y="80.2" font-size="9" fill="#3b82f6" text-anchor="middle" font-family="system-ui, -apple-system, sans-serif" font-weight="600" opacity="0.9">v0.9.0</text>
</svg>