<svg width="615" height="120" viewBox="0 0 615 120" xmlns="http://www.w3.org/2000/svg">
<rect width="615" height="120" fill="transparent"/>
<line x1="63" y1="67.5" x2="547" y2="67.5" stroke="currentColor" stroke-width="0.5" opacity="0.2" stroke-dasharray="2,2"/>
<polyline fill="none" stroke="#3b82f6" stroke-width="2" points="48.0,112.0 107.0,107.5 151.0,107.8 195.0,101.1 239.0,66.5 283.0,107.9 327.0,97.7 371.0,95.4 415.0,23.0 459.0,102.2 503.0,99.8 547.0,100.6" stroke-linecap="round" stroke-linejoin="round"/>
<circle cx="48.0" cy="112.0" r="3" fill="#3b82f6" stroke="white" stroke-width="1"/>
<text x="48.0" y="104.0" font-size="9" fill="#3b82f6" text-anchor="middle" font-family="system-ui, -apple-system, sans-serif" font-weight="600" opacity="0.9">v0.4.1 (47.96K ops/s)</text>
<circle cx="107.0" cy="107.5" r="3" fill="#3b82f6" stroke="white" stroke-width="1"/>
<text x="107.0" y="99.5" font-size="9" fill="#3b82f6" text-anchor="middle" font-family="system-ui, -apple-system, sans-serif" font-weight="600" opacity="0.9">v0.4.1</text>
<circle cx="151.0" cy="107.8" r="3" fill="#3b82f6" stroke="white" stroke-width="1"/>
<text x="151.0" y="99.8" font-size="9" fill="#3b82f6" text-anchor="middle" font-family="system-ui, -apple-system, sans-serif" font-weight="600" opacity="0.9">v0.5.0</text>
<circle cx="195.0" cy="101.1" r="3" fill="#3b82f6" stroke="white" stroke-width="1"/>
<text x="195.0" y="93.1" font-size="9" fill="#3b82f6" text-anchor="middle" font-family="system-ui, -apple-system, sans-serif" font-weight="600" opacity="0.9">v0.5.0</text>
<circle cx="239.0" cy="66.5" r="3" fill="#3b82f6" stroke="white" stroke-width="1"/>
<text x="239.0" y="58.5" font-size="9" fill="#3b82f6" text-anchor="middle" font-family="system-ui, -apple-system, sans-serif" font-weight="600" opacity="0.9">v0.6.0</text>
<circle cx="283.0" cy="107.9" r="3" fill="#3b82f6" stroke="white" stroke-width="1"/>
<text x="283.0" y="99.9" font-size="9" fill="#3b82f6" text-anchor="middle" font-family="system-ui, -apple-system, sans-serif" font-weight="600" opacity="0.9">v0.6.1</text>
<circle cx="327.0" cy="97.7" r="3" fill="#3b82f6" stroke="white" stroke-width="1"/>
<text x="327.0" y="89.7" font-size="9" fill="#3b82f6" text-anchor="middle" font-family="system-ui, -apple-system, sans-serif" font-weight="600" opacity="0.9">v0.7.0</text>
<circle cx="371.0" cy="95.4" r="3" fill="#3b82f6" stroke="white" stroke-width="1"/>
<text x="371.0" y="87.4" font-size="9" fill="#3b82f6" text-anchor="middle" font-family="system-ui, -apple-system, sans-serif" font-weight="600" opacity="0.9">v0.7.0</text>
<circle cx="415.0" cy="23.0" r="3" fill="#3b82f6" stroke="white" stroke-width="1"/>
<text x="415.0" y="17.0" font-size="9" fill="#3b82f6" text-anchor="middle" font-family="system-ui, -apple-system, sans-serif" font-weight="600" opacity="0.9">v0.7.0 (61.97K ops/s)</text>
<circle cx="459.0" cy="102.2" r="3" fill="#3b82f6" stroke="white" stroke-width="1"/>
<text x="459.0" y="94.2" font-size="9" fill="#3b82f6" text-anchor="middle" font-family="system-ui, -apple-system, sans-serif" font-weight="600" opacity="0.9">v0.8.0</text>
<circle cx="503.0" cy="99.8" r="3" fill="#3b82f6" stroke="white" stroke-width="1"/>
<text x="503.0" y="91.8" font-size="9" fill="#3b82f6" text-anchor="middle" font-family="system-ui, -apple-system, sans-serif" font-weight="600" opacity="0.9">v0.8.0</text>
<circle cx="547.0" cy="100.6" r="3" fill="#3b82f6" stroke="white" stroke-width="1"/>
<text x="547.0" y="92.6" font-size="9" fill="#3b82f6" text-anchor="middle" font-family="system-ui, -apple-system, sans-serif" font-weight="600" opacity="0.9">v0.8.0</text>
</svg>