<svg width="615" height="120" viewBox="0 0 615 120" xmlns="http://www.w3.org/2000/svg">
<rect width="615" height="120" fill="transparent"/>
<line x1="63" y1="67.5" x2="547" y2="67.5" stroke="currentColor" stroke-width="0.5" opacity="0.2" stroke-dasharray="2,2"/>
<polyline fill="none" stroke="#3b82f6" stroke-width="2" points="48.0,112.0 91.5,107.5 119.9,107.8 148.4,101.1 176.9,66.5 205.4,107.9 233.8,97.7 262.3,95.4 290.8,23.0 319.2,102.2 347.7,99.8 376.2,100.6 404.6,96.4 433.1,95.6 461.6,101.9 490.1,94.6 518.5,104.2 547.0,98.0" stroke-linecap="round" stroke-linejoin="round"/>
<circle cx="48.0" cy="112.0" r="3" fill="#3b82f6" stroke="white" stroke-width="1"/>
<text x="48.0" y="104.0" font-size="9" fill="#3b82f6" text-anchor="middle" font-family="system-ui, -apple-system, sans-serif" font-weight="600" opacity="0.9">v0.4.1 (47.96K ops/s)</text>
<circle cx="91.5" cy="107.5" r="3" fill="#3b82f6" stroke="white" stroke-width="1"/>
<text x="91.5" y="99.5" font-size="9" fill="#3b82f6" text-anchor="middle" font-family="system-ui, -apple-system, sans-serif" font-weight="600" opacity="0.9">v0.4.1</text>
<circle cx="119.9" cy="107.8" r="3" fill="#3b82f6" stroke="white" stroke-width="1"/>
<text x="119.9" y="99.8" font-size="9" fill="#3b82f6" text-anchor="middle" font-family="system-ui, -apple-system, sans-serif" font-weight="600" opacity="0.9">v0.5.0</text>
<circle cx="148.4" cy="101.1" r="3" fill="#3b82f6" stroke="white" stroke-width="1"/>
<text x="148.4" y="93.1" font-size="9" fill="#3b82f6" text-anchor="middle" font-family="system-ui, -apple-system, sans-serif" font-weight="600" opacity="0.9">v0.5.0</text>
<circle cx="176.9" cy="66.5" r="3" fill="#3b82f6" stroke="white" stroke-width="1"/>
<text x="176.9" y="58.5" font-size="9" fill="#3b82f6" text-anchor="middle" font-family="system-ui, -apple-system, sans-serif" font-weight="600" opacity="0.9">v0.6.0</text>
<circle cx="205.4" cy="107.9" r="3" fill="#3b82f6" stroke="white" stroke-width="1"/>
<text x="205.4" y="99.9" font-size="9" fill="#3b82f6" text-anchor="middle" font-family="system-ui, -apple-system, sans-serif" font-weight="600" opacity="0.9">v0.6.1</text>
<circle cx="233.8" cy="97.7" r="3" fill="#3b82f6" stroke="white" stroke-width="1"/>
<text x="233.8" y="89.7" font-size="9" fill="#3b82f6" text-anchor="middle" font-family="system-ui, -apple-system, sans-serif" font-weight="600" opacity="0.9">v0.7.0</text>
<circle cx="262.3" cy="95.4" r="3" fill="#3b82f6" stroke="white" stroke-width="1"/>
<text x="262.3" y="87.4" font-size="9" fill="#3b82f6" text-anchor="middle" font-family="system-ui, -apple-system, sans-serif" font-weight="600" opacity="0.9">v0.7.0</text>
<circle cx="290.8" cy="23.0" r="3" fill="#3b82f6" stroke="white" stroke-width="1"/>
<text x="290.8" y="17.0" font-size="9" fill="#3b82f6" text-anchor="middle" font-family="system-ui, -apple-system, sans-serif" font-weight="600" opacity="0.9">v0.7.0 (61.97K ops/s)</text>
<circle cx="319.2" cy="102.2" r="3" fill="#3b82f6" stroke="white" stroke-width="1"/>
<text x="319.2" y="94.2" font-size="9" fill="#3b82f6" text-anchor="middle" font-family="system-ui, -apple-system, sans-serif" font-weight="600" opacity="0.9">v0.8.0</text>
<circle cx="347.7" cy="99.8" r="3" fill="#3b82f6" stroke="white" stroke-width="1"/>
<text x="347.7" y="91.8" font-size="9" fill="#3b82f6" text-anchor="middle" font-family="system-ui, -apple-system, sans-serif" font-weight="600" opacity="0.9">v0.8.0</text>
<circle cx="376.2" cy="100.6" r="3" fill="#3b82f6" stroke="white" stroke-width="1"/>
<text x="376.2" y="92.6" font-size="9" fill="#3b82f6" text-anchor="middle" font-family="system-ui, -apple-system, sans-serif" font-weight="600" opacity="0.9">v0.8.0</text>
<circle cx="404.6" cy="96.4" r="3" fill="#3b82f6" stroke="white" stroke-width="1"/>
<text x="404.6" y="88.4" font-size="9" fill="#3b82f6" text-anchor="middle" font-family="system-ui, -apple-system, sans-serif" font-weight="600" opacity="0.9">v0.8.0</text>
<circle cx="433.1" cy="95.6" r="3" fill="#3b82f6" stroke="white" stroke-width="1"/>
<text x="433.1" y="87.6" font-size="9" fill="#3b82f6" text-anchor="middle" font-family="system-ui, -apple-system, sans-serif" font-weight="600" opacity="0.9">v0.8.0</text>
<circle cx="461.6" cy="101.9" r="3" fill="#3b82f6" stroke="white" stroke-width="1"/>
<text x="461.6" y="93.9" font-size="9" fill="#3b82f6" text-anchor="middle" font-family="system-ui, -apple-system, sans-serif" font-weight="600" opacity="0.9">v0.8.0</text>
<circle cx="490.1" cy="94.6" r="3" fill="#3b82f6" stroke="white" stroke-width="1"/>
<text x="490.1" y="86.6" font-size="9" fill="#3b82f6" text-anchor="middle" font-family="system-ui, -apple-system, sans-serif" font-weight="600" opacity="0.9">v0.9.0</text>
<circle cx="518.5" cy="104.2" r="3" fill="#3b82f6" stroke="white" stroke-width="1"/>
<text x="518.5" y="96.2" font-size="9" fill="#3b82f6" text-anchor="middle" font-family="system-ui, -apple-system, sans-serif" font-weight="600" opacity="0.9">v0.9.0</text>
<circle cx="547.0" cy="98.0" r="3" fill="#3b82f6" stroke="white" stroke-width="1"/>
<text x="547.0" y="90.0" font-size="9" fill="#3b82f6" text-anchor="middle" font-family="system-ui, -apple-system, sans-serif" font-weight="600" opacity="0.9">v0.10.0</text>
</svg>