<svg width="615" height="120" viewBox="0 0 615 120" xmlns="http://www.w3.org/2000/svg">
<rect width="615" height="120" fill="transparent"/>
<line x1="63" y1="67.5" x2="547" y2="67.5" stroke="currentColor" stroke-width="0.5" opacity="0.2" stroke-dasharray="2,2"/>
<polyline fill="none" stroke="#3b82f6" stroke-width="2" points="48.0,85.4 91.5,92.1 119.9,87.3 148.4,82.6 176.9,62.0 205.4,112.0 233.8,98.9 262.3,75.6 290.8,23.0 319.2,77.3 347.7,73.9 376.2,99.9 404.6,70.2 433.1,71.7 461.6,97.5 490.1,97.3 518.5,95.2 547.0,73.3" stroke-linecap="round" stroke-linejoin="round"/>
<circle cx="48.0" cy="85.4" r="3" fill="#3b82f6" stroke="white" stroke-width="1"/>
<text x="48.0" y="77.4" font-size="9" fill="#3b82f6" text-anchor="middle" font-family="system-ui, -apple-system, sans-serif" font-weight="600" opacity="0.9">v0.4.1</text>
<circle cx="91.5" cy="92.1" r="3" fill="#3b82f6" stroke="white" stroke-width="1"/>
<text x="91.5" y="84.1" font-size="9" fill="#3b82f6" text-anchor="middle" font-family="system-ui, -apple-system, sans-serif" font-weight="600" opacity="0.9">v0.4.1</text>
<circle cx="119.9" cy="87.3" r="3" fill="#3b82f6" stroke="white" stroke-width="1"/>
<text x="119.9" y="79.3" font-size="9" fill="#3b82f6" text-anchor="middle" font-family="system-ui, -apple-system, sans-serif" font-weight="600" opacity="0.9">v0.5.0</text>
<circle cx="148.4" cy="82.6" r="3" fill="#3b82f6" stroke="white" stroke-width="1"/>
<text x="148.4" y="74.6" font-size="9" fill="#3b82f6" text-anchor="middle" font-family="system-ui, -apple-system, sans-serif" font-weight="600" opacity="0.9">v0.5.0</text>
<circle cx="176.9" cy="62.0" r="3" fill="#3b82f6" stroke="white" stroke-width="1"/>
<text x="176.9" y="54.0" font-size="9" fill="#3b82f6" text-anchor="middle" font-family="system-ui, -apple-system, sans-serif" font-weight="600" opacity="0.9">v0.6.0</text>
<circle cx="205.4" cy="112.0" r="3" fill="#3b82f6" stroke="white" stroke-width="1"/>
<text x="205.4" y="104.0" font-size="9" fill="#3b82f6" text-anchor="middle" font-family="system-ui, -apple-system, sans-serif" font-weight="600" opacity="0.9">v0.6.1 (3.16K ops/s)</text>
<circle cx="233.8" cy="98.9" r="3" fill="#3b82f6" stroke="white" stroke-width="1"/>
<text x="233.8" y="90.9" font-size="9" fill="#3b82f6" text-anchor="middle" font-family="system-ui, -apple-system, sans-serif" font-weight="600" opacity="0.9">v0.7.0</text>
<circle cx="262.3" cy="75.6" r="3" fill="#3b82f6" stroke="white" stroke-width="1"/>
<text x="262.3" y="67.6" font-size="9" fill="#3b82f6" text-anchor="middle" font-family="system-ui, -apple-system, sans-serif" font-weight="600" opacity="0.9">v0.7.0</text>
<circle cx="290.8" cy="23.0" r="3" fill="#3b82f6" stroke="white" stroke-width="1"/>
<text x="290.8" y="17.0" font-size="9" fill="#3b82f6" text-anchor="middle" font-family="system-ui, -apple-system, sans-serif" font-weight="600" opacity="0.9">v0.7.0 (3.95K ops/s)</text>
<circle cx="319.2" cy="77.3" r="3" fill="#3b82f6" stroke="white" stroke-width="1"/>
<text x="319.2" y="69.3" font-size="9" fill="#3b82f6" text-anchor="middle" font-family="system-ui, -apple-system, sans-serif" font-weight="600" opacity="0.9">v0.8.0</text>
<circle cx="347.7" cy="73.9" r="3" fill="#3b82f6" stroke="white" stroke-width="1"/>
<text x="347.7" y="65.9" font-size="9" fill="#3b82f6" text-anchor="middle" font-family="system-ui, -apple-system, sans-serif" font-weight="600" opacity="0.9">v0.8.0</text>
<circle cx="376.2" cy="99.9" r="3" fill="#3b82f6" stroke="white" stroke-width="1"/>
<text x="376.2" y="91.9" font-size="9" fill="#3b82f6" text-anchor="middle" font-family="system-ui, -apple-system, sans-serif" font-weight="600" opacity="0.9">v0.8.0</text>
<circle cx="404.6" cy="70.2" r="3" fill="#3b82f6" stroke="white" stroke-width="1"/>
<text x="404.6" y="62.2" font-size="9" fill="#3b82f6" text-anchor="middle" font-family="system-ui, -apple-system, sans-serif" font-weight="600" opacity="0.9">v0.8.0</text>
<circle cx="433.1" cy="71.7" r="3" fill="#3b82f6" stroke="white" stroke-width="1"/>
<text x="433.1" y="63.7" font-size="9" fill="#3b82f6" text-anchor="middle" font-family="system-ui, -apple-system, sans-serif" font-weight="600" opacity="0.9">v0.8.0</text>
<circle cx="461.6" cy="97.5" r="3" fill="#3b82f6" stroke="white" stroke-width="1"/>
<text x="461.6" y="89.5" font-size="9" fill="#3b82f6" text-anchor="middle" font-family="system-ui, -apple-system, sans-serif" font-weight="600" opacity="0.9">v0.8.0</text>
<circle cx="490.1" cy="97.3" r="3" fill="#3b82f6" stroke="white" stroke-width="1"/>
<text x="490.1" y="89.3" font-size="9" fill="#3b82f6" text-anchor="middle" font-family="system-ui, -apple-system, sans-serif" font-weight="600" opacity="0.9">v0.9.0</text>
<circle cx="518.5" cy="95.2" r="3" fill="#3b82f6" stroke="white" stroke-width="1"/>
<text x="518.5" y="87.2" font-size="9" fill="#3b82f6" text-anchor="middle" font-family="system-ui, -apple-system, sans-serif" font-weight="600" opacity="0.9">v0.9.0</text>
<circle cx="547.0" cy="73.3" r="3" fill="#3b82f6" stroke="white" stroke-width="1"/>
<text x="547.0" y="65.3" font-size="9" fill="#3b82f6" text-anchor="middle" font-family="system-ui, -apple-system, sans-serif" font-weight="600" opacity="0.9">v0.10.0</text>
</svg>