<svg width="615" height="120" viewBox="0 0 615 120" xmlns="http://www.w3.org/2000/svg">
<rect width="615" height="120" fill="transparent"/>
<line x1="63" y1="67.5" x2="547" y2="67.5" stroke="currentColor" stroke-width="0.5" opacity="0.2" stroke-dasharray="2,2"/>
<polyline fill="none" stroke="#3b82f6" stroke-width="2" points="48.0,102.6 93.2,110.7 123.5,112.0 153.8,96.1 184.0,60.1 214.2,107.1 244.5,100.3 274.8,95.4 305.0,23.0 335.2,88.7 365.5,84.4 395.8,100.2 426.0,94.5 456.2,83.0 486.5,98.8 516.8,88.2 547.0,103.6" stroke-linecap="round" stroke-linejoin="round"/>
<circle cx="48.0" cy="102.6" r="3" fill="#3b82f6" stroke="white" stroke-width="1"/>
<text x="48.0" y="94.6" font-size="9" fill="#3b82f6" text-anchor="middle" font-family="system-ui, -apple-system, sans-serif" font-weight="600" opacity="0.9">v0.4.1</text>
<circle cx="93.2" cy="110.7" r="3" fill="#3b82f6" stroke="white" stroke-width="1"/>
<text x="93.2" y="102.7" font-size="9" fill="#3b82f6" text-anchor="middle" font-family="system-ui, -apple-system, sans-serif" font-weight="600" opacity="0.9">v0.4.1</text>
<circle cx="123.5" cy="112.0" r="3" fill="#3b82f6" stroke="white" stroke-width="1"/>
<text x="123.5" y="104.0" font-size="9" fill="#3b82f6" text-anchor="middle" font-family="system-ui, -apple-system, sans-serif" font-weight="600" opacity="0.9">v0.5.0 (447.6 ops/s)</text>
<circle cx="153.8" cy="96.1" r="3" fill="#3b82f6" stroke="white" stroke-width="1"/>
<text x="153.8" y="88.1" font-size="9" fill="#3b82f6" text-anchor="middle" font-family="system-ui, -apple-system, sans-serif" font-weight="600" opacity="0.9">v0.5.0</text>
<circle cx="184.0" cy="60.1" r="3" fill="#3b82f6" stroke="white" stroke-width="1"/>
<text x="184.0" y="52.1" font-size="9" fill="#3b82f6" text-anchor="middle" font-family="system-ui, -apple-system, sans-serif" font-weight="600" opacity="0.9">v0.6.0</text>
<circle cx="214.2" cy="107.1" r="3" fill="#3b82f6" stroke="white" stroke-width="1"/>
<text x="214.2" y="99.1" font-size="9" fill="#3b82f6" text-anchor="middle" font-family="system-ui, -apple-system, sans-serif" font-weight="600" opacity="0.9">v0.6.1</text>
<circle cx="244.5" cy="100.3" r="3" fill="#3b82f6" stroke="white" stroke-width="1"/>
<text x="244.5" y="92.3" font-size="9" fill="#3b82f6" text-anchor="middle" font-family="system-ui, -apple-system, sans-serif" font-weight="600" opacity="0.9">v0.7.0</text>
<circle cx="274.8" cy="95.4" r="3" fill="#3b82f6" stroke="white" stroke-width="1"/>
<text x="274.8" y="87.4" font-size="9" fill="#3b82f6" text-anchor="middle" font-family="system-ui, -apple-system, sans-serif" font-weight="600" opacity="0.9">v0.7.0</text>
<circle cx="305.0" cy="23.0" r="3" fill="#3b82f6" stroke="white" stroke-width="1"/>
<text x="305.0" y="17.0" font-size="9" fill="#3b82f6" text-anchor="middle" font-family="system-ui, -apple-system, sans-serif" font-weight="600" opacity="0.9">v0.7.0 (554.1 ops/s)</text>
<circle cx="335.2" cy="88.7" r="3" fill="#3b82f6" stroke="white" stroke-width="1"/>
<text x="335.2" y="80.7" font-size="9" fill="#3b82f6" text-anchor="middle" font-family="system-ui, -apple-system, sans-serif" font-weight="600" opacity="0.9">v0.8.0</text>
<circle cx="365.5" cy="84.4" r="3" fill="#3b82f6" stroke="white" stroke-width="1"/>
<text x="365.5" y="76.4" font-size="9" fill="#3b82f6" text-anchor="middle" font-family="system-ui, -apple-system, sans-serif" font-weight="600" opacity="0.9">v0.8.0</text>
<circle cx="395.8" cy="100.2" r="3" fill="#3b82f6" stroke="white" stroke-width="1"/>
<text x="395.8" y="92.2" font-size="9" fill="#3b82f6" text-anchor="middle" font-family="system-ui, -apple-system, sans-serif" font-weight="600" opacity="0.9">v0.8.0</text>
<circle cx="426.0" cy="94.5" r="3" fill="#3b82f6" stroke="white" stroke-width="1"/>
<text x="426.0" y="86.5" font-size="9" fill="#3b82f6" text-anchor="middle" font-family="system-ui, -apple-system, sans-serif" font-weight="600" opacity="0.9">v0.8.0</text>
<circle cx="456.2" cy="83.0" r="3" fill="#3b82f6" stroke="white" stroke-width="1"/>
<text x="456.2" y="75.0" font-size="9" fill="#3b82f6" text-anchor="middle" font-family="system-ui, -apple-system, sans-serif" font-weight="600" opacity="0.9">v0.8.0</text>
<circle cx="486.5" cy="98.8" r="3" fill="#3b82f6" stroke="white" stroke-width="1"/>
<text x="486.5" y="90.8" font-size="9" fill="#3b82f6" text-anchor="middle" font-family="system-ui, -apple-system, sans-serif" font-weight="600" opacity="0.9">v0.8.0</text>
<circle cx="516.8" cy="88.2" r="3" fill="#3b82f6" stroke="white" stroke-width="1"/>
<text x="516.8" y="80.2" font-size="9" fill="#3b82f6" text-anchor="middle" font-family="system-ui, -apple-system, sans-serif" font-weight="600" opacity="0.9">v0.9.0</text>
<circle cx="547.0" cy="103.6" r="3" fill="#3b82f6" stroke="white" stroke-width="1"/>
<text x="547.0" y="95.6" font-size="9" fill="#3b82f6" text-anchor="middle" font-family="system-ui, -apple-system, sans-serif" font-weight="600" opacity="0.9">v0.9.0</text>
</svg>