<svg width="615" height="120" viewBox="0 0 615 120" xmlns="http://www.w3.org/2000/svg">
<rect width="615" height="120" fill="transparent"/>
<line x1="63" y1="67.5" x2="547" y2="67.5" stroke="currentColor" stroke-width="0.5" opacity="0.2" stroke-dasharray="2,2"/>
<polyline fill="none" stroke="#3b82f6" stroke-width="2" points="48.0,85.4 93.2,92.1 123.5,87.3 153.8,82.6 184.0,62.0 214.2,112.0 244.5,98.9 274.8,75.6 305.0,23.0 335.2,77.3 365.5,73.9 395.8,99.9 426.0,70.2 456.2,71.7 486.5,97.5 516.8,97.3 547.0,95.2" stroke-linecap="round" stroke-linejoin="round"/>
<circle cx="48.0" cy="85.4" r="3" fill="#3b82f6" stroke="white" stroke-width="1"/>
<text x="48.0" y="77.4" font-size="9" fill="#3b82f6" text-anchor="middle" font-family="system-ui, -apple-system, sans-serif" font-weight="600" opacity="0.9">v0.4.1</text>
<circle cx="93.2" cy="92.1" r="3" fill="#3b82f6" stroke="white" stroke-width="1"/>
<text x="93.2" y="84.1" font-size="9" fill="#3b82f6" text-anchor="middle" font-family="system-ui, -apple-system, sans-serif" font-weight="600" opacity="0.9">v0.4.1</text>
<circle cx="123.5" cy="87.3" r="3" fill="#3b82f6" stroke="white" stroke-width="1"/>
<text x="123.5" y="79.3" font-size="9" fill="#3b82f6" text-anchor="middle" font-family="system-ui, -apple-system, sans-serif" font-weight="600" opacity="0.9">v0.5.0</text>
<circle cx="153.8" cy="82.6" r="3" fill="#3b82f6" stroke="white" stroke-width="1"/>
<text x="153.8" y="74.6" font-size="9" fill="#3b82f6" text-anchor="middle" font-family="system-ui, -apple-system, sans-serif" font-weight="600" opacity="0.9">v0.5.0</text>
<circle cx="184.0" cy="62.0" r="3" fill="#3b82f6" stroke="white" stroke-width="1"/>
<text x="184.0" y="54.0" font-size="9" fill="#3b82f6" text-anchor="middle" font-family="system-ui, -apple-system, sans-serif" font-weight="600" opacity="0.9">v0.6.0</text>
<circle cx="214.2" cy="112.0" r="3" fill="#3b82f6" stroke="white" stroke-width="1"/>
<text x="214.2" y="104.0" font-size="9" fill="#3b82f6" text-anchor="middle" font-family="system-ui, -apple-system, sans-serif" font-weight="600" opacity="0.9">v0.6.1 (3.16K ops/s)</text>
<circle cx="244.5" cy="98.9" r="3" fill="#3b82f6" stroke="white" stroke-width="1"/>
<text x="244.5" y="90.9" font-size="9" fill="#3b82f6" text-anchor="middle" font-family="system-ui, -apple-system, sans-serif" font-weight="600" opacity="0.9">v0.7.0</text>
<circle cx="274.8" cy="75.6" r="3" fill="#3b82f6" stroke="white" stroke-width="1"/>
<text x="274.8" y="67.6" font-size="9" fill="#3b82f6" text-anchor="middle" font-family="system-ui, -apple-system, sans-serif" font-weight="600" opacity="0.9">v0.7.0</text>
<circle cx="305.0" cy="23.0" r="3" fill="#3b82f6" stroke="white" stroke-width="1"/>
<text x="305.0" y="17.0" font-size="9" fill="#3b82f6" text-anchor="middle" font-family="system-ui, -apple-system, sans-serif" font-weight="600" opacity="0.9">v0.7.0 (3.95K ops/s)</text>
<circle cx="335.2" cy="77.3" r="3" fill="#3b82f6" stroke="white" stroke-width="1"/>
<text x="335.2" y="69.3" font-size="9" fill="#3b82f6" text-anchor="middle" font-family="system-ui, -apple-system, sans-serif" font-weight="600" opacity="0.9">v0.8.0</text>
<circle cx="365.5" cy="73.9" r="3" fill="#3b82f6" stroke="white" stroke-width="1"/>
<text x="365.5" y="65.9" font-size="9" fill="#3b82f6" text-anchor="middle" font-family="system-ui, -apple-system, sans-serif" font-weight="600" opacity="0.9">v0.8.0</text>
<circle cx="395.8" cy="99.9" r="3" fill="#3b82f6" stroke="white" stroke-width="1"/>
<text x="395.8" y="91.9" font-size="9" fill="#3b82f6" text-anchor="middle" font-family="system-ui, -apple-system, sans-serif" font-weight="600" opacity="0.9">v0.8.0</text>
<circle cx="426.0" cy="70.2" r="3" fill="#3b82f6" stroke="white" stroke-width="1"/>
<text x="426.0" y="62.2" font-size="9" fill="#3b82f6" text-anchor="middle" font-family="system-ui, -apple-system, sans-serif" font-weight="600" opacity="0.9">v0.8.0</text>
<circle cx="456.2" cy="71.7" r="3" fill="#3b82f6" stroke="white" stroke-width="1"/>
<text x="456.2" y="63.7" font-size="9" fill="#3b82f6" text-anchor="middle" font-family="system-ui, -apple-system, sans-serif" font-weight="600" opacity="0.9">v0.8.0</text>
<circle cx="486.5" cy="97.5" r="3" fill="#3b82f6" stroke="white" stroke-width="1"/>
<text x="486.5" y="89.5" font-size="9" fill="#3b82f6" text-anchor="middle" font-family="system-ui, -apple-system, sans-serif" font-weight="600" opacity="0.9">v0.8.0</text>
<circle cx="516.8" cy="97.3" r="3" fill="#3b82f6" stroke="white" stroke-width="1"/>
<text x="516.8" y="89.3" font-size="9" fill="#3b82f6" text-anchor="middle" font-family="system-ui, -apple-system, sans-serif" font-weight="600" opacity="0.9">v0.9.0</text>
<circle cx="547.0" cy="95.2" r="3" fill="#3b82f6" stroke="white" stroke-width="1"/>
<text x="547.0" y="87.2" font-size="9" fill="#3b82f6" text-anchor="middle" font-family="system-ui, -apple-system, sans-serif" font-weight="600" opacity="0.9">v0.9.0</text>
</svg>