<svg width="615" height="120" viewBox="0 0 615 120" xmlns="http://www.w3.org/2000/svg">
<rect width="615" height="120" fill="transparent"/>
<line x1="63" y1="67.5" x2="547" y2="67.5" stroke="currentColor" stroke-width="0.5" opacity="0.2" stroke-dasharray="2,2"/>
<polyline fill="none" stroke="#3b82f6" stroke-width="2" points="48.0,112.0 93.2,107.5 123.5,107.8 153.8,101.1 184.0,66.5 214.2,107.9 244.5,97.7 274.8,95.4 305.0,23.0 335.2,102.2 365.5,99.8 395.8,100.6 426.0,96.4 456.2,95.6 486.5,101.9 516.8,94.6 547.0,104.2" stroke-linecap="round" stroke-linejoin="round"/>
<circle cx="48.0" cy="112.0" r="3" fill="#3b82f6" stroke="white" stroke-width="1"/>
<text x="48.0" y="104.0" font-size="9" fill="#3b82f6" text-anchor="middle" font-family="system-ui, -apple-system, sans-serif" font-weight="600" opacity="0.9">v0.4.1 (47.96K ops/s)</text>
<circle cx="93.2" cy="107.5" r="3" fill="#3b82f6" stroke="white" stroke-width="1"/>
<text x="93.2" y="99.5" font-size="9" fill="#3b82f6" text-anchor="middle" font-family="system-ui, -apple-system, sans-serif" font-weight="600" opacity="0.9">v0.4.1</text>
<circle cx="123.5" cy="107.8" r="3" fill="#3b82f6" stroke="white" stroke-width="1"/>
<text x="123.5" y="99.8" font-size="9" fill="#3b82f6" text-anchor="middle" font-family="system-ui, -apple-system, sans-serif" font-weight="600" opacity="0.9">v0.5.0</text>
<circle cx="153.8" cy="101.1" r="3" fill="#3b82f6" stroke="white" stroke-width="1"/>
<text x="153.8" y="93.1" font-size="9" fill="#3b82f6" text-anchor="middle" font-family="system-ui, -apple-system, sans-serif" font-weight="600" opacity="0.9">v0.5.0</text>
<circle cx="184.0" cy="66.5" r="3" fill="#3b82f6" stroke="white" stroke-width="1"/>
<text x="184.0" y="58.5" font-size="9" fill="#3b82f6" text-anchor="middle" font-family="system-ui, -apple-system, sans-serif" font-weight="600" opacity="0.9">v0.6.0</text>
<circle cx="214.2" cy="107.9" r="3" fill="#3b82f6" stroke="white" stroke-width="1"/>
<text x="214.2" y="99.9" font-size="9" fill="#3b82f6" text-anchor="middle" font-family="system-ui, -apple-system, sans-serif" font-weight="600" opacity="0.9">v0.6.1</text>
<circle cx="244.5" cy="97.7" r="3" fill="#3b82f6" stroke="white" stroke-width="1"/>
<text x="244.5" y="89.7" font-size="9" fill="#3b82f6" text-anchor="middle" font-family="system-ui, -apple-system, sans-serif" font-weight="600" opacity="0.9">v0.7.0</text>
<circle cx="274.8" cy="95.4" r="3" fill="#3b82f6" stroke="white" stroke-width="1"/>
<text x="274.8" y="87.4" font-size="9" fill="#3b82f6" text-anchor="middle" font-family="system-ui, -apple-system, sans-serif" font-weight="600" opacity="0.9">v0.7.0</text>
<circle cx="305.0" cy="23.0" r="3" fill="#3b82f6" stroke="white" stroke-width="1"/>
<text x="305.0" y="17.0" font-size="9" fill="#3b82f6" text-anchor="middle" font-family="system-ui, -apple-system, sans-serif" font-weight="600" opacity="0.9">v0.7.0 (61.97K ops/s)</text>
<circle cx="335.2" cy="102.2" r="3" fill="#3b82f6" stroke="white" stroke-width="1"/>
<text x="335.2" y="94.2" font-size="9" fill="#3b82f6" text-anchor="middle" font-family="system-ui, -apple-system, sans-serif" font-weight="600" opacity="0.9">v0.8.0</text>
<circle cx="365.5" cy="99.8" r="3" fill="#3b82f6" stroke="white" stroke-width="1"/>
<text x="365.5" y="91.8" font-size="9" fill="#3b82f6" text-anchor="middle" font-family="system-ui, -apple-system, sans-serif" font-weight="600" opacity="0.9">v0.8.0</text>
<circle cx="395.8" cy="100.6" r="3" fill="#3b82f6" stroke="white" stroke-width="1"/>
<text x="395.8" y="92.6" font-size="9" fill="#3b82f6" text-anchor="middle" font-family="system-ui, -apple-system, sans-serif" font-weight="600" opacity="0.9">v0.8.0</text>
<circle cx="426.0" cy="96.4" r="3" fill="#3b82f6" stroke="white" stroke-width="1"/>
<text x="426.0" y="88.4" font-size="9" fill="#3b82f6" text-anchor="middle" font-family="system-ui, -apple-system, sans-serif" font-weight="600" opacity="0.9">v0.8.0</text>
<circle cx="456.2" cy="95.6" r="3" fill="#3b82f6" stroke="white" stroke-width="1"/>
<text x="456.2" y="87.6" font-size="9" fill="#3b82f6" text-anchor="middle" font-family="system-ui, -apple-system, sans-serif" font-weight="600" opacity="0.9">v0.8.0</text>
<circle cx="486.5" cy="101.9" r="3" fill="#3b82f6" stroke="white" stroke-width="1"/>
<text x="486.5" y="93.9" font-size="9" fill="#3b82f6" text-anchor="middle" font-family="system-ui, -apple-system, sans-serif" font-weight="600" opacity="0.9">v0.8.0</text>
<circle cx="516.8" cy="94.6" r="3" fill="#3b82f6" stroke="white" stroke-width="1"/>
<text x="516.8" y="86.6" font-size="9" fill="#3b82f6" text-anchor="middle" font-family="system-ui, -apple-system, sans-serif" font-weight="600" opacity="0.9">v0.9.0</text>
<circle cx="547.0" cy="104.2" r="3" fill="#3b82f6" stroke="white" stroke-width="1"/>
<text x="547.0" y="96.2" font-size="9" fill="#3b82f6" text-anchor="middle" font-family="system-ui, -apple-system, sans-serif" font-weight="600" opacity="0.9">v0.9.0</text>
</svg>