<svg width="615" height="120" viewBox="0 0 615 120" xmlns="http://www.w3.org/2000/svg">
<rect width="615" height="120" fill="transparent"/>
<line x1="63" y1="67.5" x2="547" y2="67.5" stroke="currentColor" stroke-width="0.5" opacity="0.2" stroke-dasharray="2,2"/>
<polyline fill="none" stroke="#3b82f6" stroke-width="2" points="48.0,85.4 100.2,92.1 137.5,87.3 174.7,82.6 211.9,62.0 249.2,112.0 286.4,98.9 323.6,75.6 360.8,23.0 398.1,77.3 435.3,73.9 472.5,99.9 509.8,70.2 547.0,71.7" stroke-linecap="round" stroke-linejoin="round"/>
<circle cx="48.0" cy="85.4" r="3" fill="#3b82f6" stroke="white" stroke-width="1"/>
<text x="48.0" y="77.4" font-size="9" fill="#3b82f6" text-anchor="middle" font-family="system-ui, -apple-system, sans-serif" font-weight="600" opacity="0.9">v0.4.1</text>
<circle cx="100.2" cy="92.1" r="3" fill="#3b82f6" stroke="white" stroke-width="1"/>
<text x="100.2" y="84.1" font-size="9" fill="#3b82f6" text-anchor="middle" font-family="system-ui, -apple-system, sans-serif" font-weight="600" opacity="0.9">v0.4.1</text>
<circle cx="137.5" cy="87.3" r="3" fill="#3b82f6" stroke="white" stroke-width="1"/>
<text x="137.5" y="79.3" font-size="9" fill="#3b82f6" text-anchor="middle" font-family="system-ui, -apple-system, sans-serif" font-weight="600" opacity="0.9">v0.5.0</text>
<circle cx="174.7" cy="82.6" r="3" fill="#3b82f6" stroke="white" stroke-width="1"/>
<text x="174.7" y="74.6" font-size="9" fill="#3b82f6" text-anchor="middle" font-family="system-ui, -apple-system, sans-serif" font-weight="600" opacity="0.9">v0.5.0</text>
<circle cx="211.9" cy="62.0" r="3" fill="#3b82f6" stroke="white" stroke-width="1"/>
<text x="211.9" y="54.0" font-size="9" fill="#3b82f6" text-anchor="middle" font-family="system-ui, -apple-system, sans-serif" font-weight="600" opacity="0.9">v0.6.0</text>
<circle cx="249.2" cy="112.0" r="3" fill="#3b82f6" stroke="white" stroke-width="1"/>
<text x="249.2" y="104.0" font-size="9" fill="#3b82f6" text-anchor="middle" font-family="system-ui, -apple-system, sans-serif" font-weight="600" opacity="0.9">v0.6.1 (3.16K ops/s)</text>
<circle cx="286.4" cy="98.9" r="3" fill="#3b82f6" stroke="white" stroke-width="1"/>
<text x="286.4" y="90.9" font-size="9" fill="#3b82f6" text-anchor="middle" font-family="system-ui, -apple-system, sans-serif" font-weight="600" opacity="0.9">v0.7.0</text>
<circle cx="323.6" cy="75.6" r="3" fill="#3b82f6" stroke="white" stroke-width="1"/>
<text x="323.6" y="67.6" font-size="9" fill="#3b82f6" text-anchor="middle" font-family="system-ui, -apple-system, sans-serif" font-weight="600" opacity="0.9">v0.7.0</text>
<circle cx="360.8" cy="23.0" r="3" fill="#3b82f6" stroke="white" stroke-width="1"/>
<text x="360.8" y="17.0" font-size="9" fill="#3b82f6" text-anchor="middle" font-family="system-ui, -apple-system, sans-serif" font-weight="600" opacity="0.9">v0.7.0 (3.95K ops/s)</text>
<circle cx="398.1" cy="77.3" r="3" fill="#3b82f6" stroke="white" stroke-width="1"/>
<text x="398.1" y="69.3" font-size="9" fill="#3b82f6" text-anchor="middle" font-family="system-ui, -apple-system, sans-serif" font-weight="600" opacity="0.9">v0.8.0</text>
<circle cx="435.3" cy="73.9" r="3" fill="#3b82f6" stroke="white" stroke-width="1"/>
<text x="435.3" y="65.9" font-size="9" fill="#3b82f6" text-anchor="middle" font-family="system-ui, -apple-system, sans-serif" font-weight="600" opacity="0.9">v0.8.0</text>
<circle cx="472.5" cy="99.9" r="3" fill="#3b82f6" stroke="white" stroke-width="1"/>
<text x="472.5" y="91.9" font-size="9" fill="#3b82f6" text-anchor="middle" font-family="system-ui, -apple-system, sans-serif" font-weight="600" opacity="0.9">v0.8.0</text>
<circle cx="509.8" cy="70.2" r="3" fill="#3b82f6" stroke="white" stroke-width="1"/>
<text x="509.8" y="62.2" font-size="9" fill="#3b82f6" text-anchor="middle" font-family="system-ui, -apple-system, sans-serif" font-weight="600" opacity="0.9">v0.8.0</text>
<circle cx="547.0" cy="71.7" r="3" fill="#3b82f6" stroke="white" stroke-width="1"/>
<text x="547.0" y="63.7" font-size="9" fill="#3b82f6" text-anchor="middle" font-family="system-ui, -apple-system, sans-serif" font-weight="600" opacity="0.9">v0.8.0</text>
</svg>