<svg width="615" height="120" viewBox="0 0 615 120" xmlns="http://www.w3.org/2000/svg">
<rect width="615" height="120" fill="transparent"/>
<line x1="63" y1="67.5" x2="547" y2="67.5" stroke="currentColor" stroke-width="0.5" opacity="0.2" stroke-dasharray="2,2"/>
<polyline fill="none" stroke="#3b82f6" stroke-width="2" points="48.0,107.8 93.2,108.7 123.5,112.0 153.8,106.8 184.0,87.9 214.2,94.3 244.5,85.2 274.8,81.4 305.0,23.0 335.2,82.0 365.5,84.0 395.8,81.2 426.0,86.0 456.2,82.3 486.5,86.1 516.8,79.3 547.0,77.9" stroke-linecap="round" stroke-linejoin="round"/>
<circle cx="48.0" cy="107.8" r="3" fill="#3b82f6" stroke="white" stroke-width="1"/>
<text x="48.0" y="99.8" font-size="9" fill="#3b82f6" text-anchor="middle" font-family="system-ui, -apple-system, sans-serif" font-weight="600" opacity="0.9">v0.4.1</text>
<circle cx="93.2" cy="108.7" r="3" fill="#3b82f6" stroke="white" stroke-width="1"/>
<text x="93.2" y="100.7" font-size="9" fill="#3b82f6" text-anchor="middle" font-family="system-ui, -apple-system, sans-serif" font-weight="600" opacity="0.9">v0.4.1</text>
<circle cx="123.5" cy="112.0" r="3" fill="#3b82f6" stroke="white" stroke-width="1"/>
<text x="123.5" y="104.0" font-size="9" fill="#3b82f6" text-anchor="middle" font-family="system-ui, -apple-system, sans-serif" font-weight="600" opacity="0.9">v0.5.0 (1.4 ops/s)</text>
<circle cx="153.8" cy="106.8" r="3" fill="#3b82f6" stroke="white" stroke-width="1"/>
<text x="153.8" y="98.8" font-size="9" fill="#3b82f6" text-anchor="middle" font-family="system-ui, -apple-system, sans-serif" font-weight="600" opacity="0.9">v0.5.0</text>
<circle cx="184.0" cy="87.9" r="3" fill="#3b82f6" stroke="white" stroke-width="1"/>
<text x="184.0" y="79.9" font-size="9" fill="#3b82f6" text-anchor="middle" font-family="system-ui, -apple-system, sans-serif" font-weight="600" opacity="0.9">v0.6.0</text>
<circle cx="214.2" cy="94.3" r="3" fill="#3b82f6" stroke="white" stroke-width="1"/>
<text x="214.2" y="86.3" font-size="9" fill="#3b82f6" text-anchor="middle" font-family="system-ui, -apple-system, sans-serif" font-weight="600" opacity="0.9">v0.6.1</text>
<circle cx="244.5" cy="85.2" r="3" fill="#3b82f6" stroke="white" stroke-width="1"/>
<text x="244.5" y="77.2" font-size="9" fill="#3b82f6" text-anchor="middle" font-family="system-ui, -apple-system, sans-serif" font-weight="600" opacity="0.9">v0.7.0</text>
<circle cx="274.8" cy="81.4" r="3" fill="#3b82f6" stroke="white" stroke-width="1"/>
<text x="274.8" y="73.4" font-size="9" fill="#3b82f6" text-anchor="middle" font-family="system-ui, -apple-system, sans-serif" font-weight="600" opacity="0.9">v0.7.0</text>
<circle cx="305.0" cy="23.0" r="3" fill="#3b82f6" stroke="white" stroke-width="1"/>
<text x="305.0" y="17.0" font-size="9" fill="#3b82f6" text-anchor="middle" font-family="system-ui, -apple-system, sans-serif" font-weight="600" opacity="0.9">v0.7.0 (2.1 ops/s)</text>
<circle cx="335.2" cy="82.0" r="3" fill="#3b82f6" stroke="white" stroke-width="1"/>
<text x="335.2" y="74.0" font-size="9" fill="#3b82f6" text-anchor="middle" font-family="system-ui, -apple-system, sans-serif" font-weight="600" opacity="0.9">v0.8.0</text>
<circle cx="365.5" cy="84.0" r="3" fill="#3b82f6" stroke="white" stroke-width="1"/>
<text x="365.5" y="76.0" font-size="9" fill="#3b82f6" text-anchor="middle" font-family="system-ui, -apple-system, sans-serif" font-weight="600" opacity="0.9">v0.8.0</text>
<circle cx="395.8" cy="81.2" r="3" fill="#3b82f6" stroke="white" stroke-width="1"/>
<text x="395.8" y="73.2" font-size="9" fill="#3b82f6" text-anchor="middle" font-family="system-ui, -apple-system, sans-serif" font-weight="600" opacity="0.9">v0.8.0</text>
<circle cx="426.0" cy="86.0" r="3" fill="#3b82f6" stroke="white" stroke-width="1"/>
<text x="426.0" y="78.0" font-size="9" fill="#3b82f6" text-anchor="middle" font-family="system-ui, -apple-system, sans-serif" font-weight="600" opacity="0.9">v0.8.0</text>
<circle cx="456.2" cy="82.3" r="3" fill="#3b82f6" stroke="white" stroke-width="1"/>
<text x="456.2" y="74.3" font-size="9" fill="#3b82f6" text-anchor="middle" font-family="system-ui, -apple-system, sans-serif" font-weight="600" opacity="0.9">v0.8.0</text>
<circle cx="486.5" cy="86.1" r="3" fill="#3b82f6" stroke="white" stroke-width="1"/>
<text x="486.5" y="78.1" font-size="9" fill="#3b82f6" text-anchor="middle" font-family="system-ui, -apple-system, sans-serif" font-weight="600" opacity="0.9">v0.8.0</text>
<circle cx="516.8" cy="79.3" r="3" fill="#3b82f6" stroke="white" stroke-width="1"/>
<text x="516.8" y="71.3" font-size="9" fill="#3b82f6" text-anchor="middle" font-family="system-ui, -apple-system, sans-serif" font-weight="600" opacity="0.9">v0.9.0</text>
<circle cx="547.0" cy="77.9" r="3" fill="#3b82f6" stroke="white" stroke-width="1"/>
<text x="547.0" y="69.9" font-size="9" fill="#3b82f6" text-anchor="middle" font-family="system-ui, -apple-system, sans-serif" font-weight="600" opacity="0.9">v0.9.0</text>
</svg>