<svg width="615" height="120" viewBox="0 0 615 120" xmlns="http://www.w3.org/2000/svg">
<rect width="615" height="120" fill="transparent"/>
<line x1="63" y1="67.5" x2="547" y2="67.5" stroke="currentColor" stroke-width="0.5" opacity="0.2" stroke-dasharray="2,2"/>
<polyline fill="none" stroke="#3b82f6" stroke-width="2" points="48.0,112.0 97.6,107.5 132.1,107.8 166.7,101.1 201.3,66.5 235.9,107.9 270.4,97.7 305.0,95.4 339.6,23.0 374.1,102.2 408.7,99.8 443.3,100.6 477.9,96.4 512.4,95.6 547.0,101.9" stroke-linecap="round" stroke-linejoin="round"/>
<circle cx="48.0" cy="112.0" r="3" fill="#3b82f6" stroke="white" stroke-width="1"/>
<text x="48.0" y="104.0" font-size="9" fill="#3b82f6" text-anchor="middle" font-family="system-ui, -apple-system, sans-serif" font-weight="600" opacity="0.9">v0.4.1 (47.96K ops/s)</text>
<circle cx="97.6" cy="107.5" r="3" fill="#3b82f6" stroke="white" stroke-width="1"/>
<text x="97.6" y="99.5" font-size="9" fill="#3b82f6" text-anchor="middle" font-family="system-ui, -apple-system, sans-serif" font-weight="600" opacity="0.9">v0.4.1</text>
<circle cx="132.1" cy="107.8" r="3" fill="#3b82f6" stroke="white" stroke-width="1"/>
<text x="132.1" y="99.8" font-size="9" fill="#3b82f6" text-anchor="middle" font-family="system-ui, -apple-system, sans-serif" font-weight="600" opacity="0.9">v0.5.0</text>
<circle cx="166.7" cy="101.1" r="3" fill="#3b82f6" stroke="white" stroke-width="1"/>
<text x="166.7" y="93.1" font-size="9" fill="#3b82f6" text-anchor="middle" font-family="system-ui, -apple-system, sans-serif" font-weight="600" opacity="0.9">v0.5.0</text>
<circle cx="201.3" cy="66.5" r="3" fill="#3b82f6" stroke="white" stroke-width="1"/>
<text x="201.3" y="58.5" font-size="9" fill="#3b82f6" text-anchor="middle" font-family="system-ui, -apple-system, sans-serif" font-weight="600" opacity="0.9">v0.6.0</text>
<circle cx="235.9" cy="107.9" r="3" fill="#3b82f6" stroke="white" stroke-width="1"/>
<text x="235.9" y="99.9" font-size="9" fill="#3b82f6" text-anchor="middle" font-family="system-ui, -apple-system, sans-serif" font-weight="600" opacity="0.9">v0.6.1</text>
<circle cx="270.4" cy="97.7" r="3" fill="#3b82f6" stroke="white" stroke-width="1"/>
<text x="270.4" y="89.7" font-size="9" fill="#3b82f6" text-anchor="middle" font-family="system-ui, -apple-system, sans-serif" font-weight="600" opacity="0.9">v0.7.0</text>
<circle cx="305.0" cy="95.4" r="3" fill="#3b82f6" stroke="white" stroke-width="1"/>
<text x="305.0" y="87.4" font-size="9" fill="#3b82f6" text-anchor="middle" font-family="system-ui, -apple-system, sans-serif" font-weight="600" opacity="0.9">v0.7.0</text>
<circle cx="339.6" cy="23.0" r="3" fill="#3b82f6" stroke="white" stroke-width="1"/>
<text x="339.6" y="17.0" font-size="9" fill="#3b82f6" text-anchor="middle" font-family="system-ui, -apple-system, sans-serif" font-weight="600" opacity="0.9">v0.7.0 (61.97K ops/s)</text>
<circle cx="374.1" cy="102.2" r="3" fill="#3b82f6" stroke="white" stroke-width="1"/>
<text x="374.1" y="94.2" font-size="9" fill="#3b82f6" text-anchor="middle" font-family="system-ui, -apple-system, sans-serif" font-weight="600" opacity="0.9">v0.8.0</text>
<circle cx="408.7" cy="99.8" r="3" fill="#3b82f6" stroke="white" stroke-width="1"/>
<text x="408.7" y="91.8" font-size="9" fill="#3b82f6" text-anchor="middle" font-family="system-ui, -apple-system, sans-serif" font-weight="600" opacity="0.9">v0.8.0</text>
<circle cx="443.3" cy="100.6" r="3" fill="#3b82f6" stroke="white" stroke-width="1"/>
<text x="443.3" y="92.6" font-size="9" fill="#3b82f6" text-anchor="middle" font-family="system-ui, -apple-system, sans-serif" font-weight="600" opacity="0.9">v0.8.0</text>
<circle cx="477.9" cy="96.4" r="3" fill="#3b82f6" stroke="white" stroke-width="1"/>
<text x="477.9" y="88.4" font-size="9" fill="#3b82f6" text-anchor="middle" font-family="system-ui, -apple-system, sans-serif" font-weight="600" opacity="0.9">v0.8.0</text>
<circle cx="512.4" cy="95.6" r="3" fill="#3b82f6" stroke="white" stroke-width="1"/>
<text x="512.4" y="87.6" font-size="9" fill="#3b82f6" text-anchor="middle" font-family="system-ui, -apple-system, sans-serif" font-weight="600" opacity="0.9">v0.8.0</text>
<circle cx="547.0" cy="101.9" r="3" fill="#3b82f6" stroke="white" stroke-width="1"/>
<text x="547.0" y="93.9" font-size="9" fill="#3b82f6" text-anchor="middle" font-family="system-ui, -apple-system, sans-serif" font-weight="600" opacity="0.9">v0.8.0</text>
</svg>