<svg width="615" height="120" viewBox="0 0 615 120" xmlns="http://www.w3.org/2000/svg">
<rect width="615" height="120" fill="transparent"/>
<line x1="63" y1="67.5" x2="547" y2="67.5" stroke="currentColor" stroke-width="0.5" opacity="0.2" stroke-dasharray="2,2"/>
<polyline fill="none" stroke="#3b82f6" stroke-width="2" points="48.0,107.8 91.5,108.7 119.9,112.0 148.4,106.8 176.9,87.9 205.4,94.3 233.8,85.2 262.3,81.4 290.8,23.0 319.2,82.0 347.7,84.0 376.2,81.2 404.6,86.0 433.1,82.3 461.6,86.1 490.1,79.3 518.5,77.9 547.0,80.6" stroke-linecap="round" stroke-linejoin="round"/>
<circle cx="48.0" cy="107.8" r="3" fill="#3b82f6" stroke="white" stroke-width="1"/>
<text x="48.0" y="99.8" font-size="9" fill="#3b82f6" text-anchor="middle" font-family="system-ui, -apple-system, sans-serif" font-weight="600" opacity="0.9">v0.4.1</text>
<circle cx="91.5" cy="108.7" r="3" fill="#3b82f6" stroke="white" stroke-width="1"/>
<text x="91.5" y="100.7" font-size="9" fill="#3b82f6" text-anchor="middle" font-family="system-ui, -apple-system, sans-serif" font-weight="600" opacity="0.9">v0.4.1</text>
<circle cx="119.9" cy="112.0" r="3" fill="#3b82f6" stroke="white" stroke-width="1"/>
<text x="119.9" y="104.0" font-size="9" fill="#3b82f6" text-anchor="middle" font-family="system-ui, -apple-system, sans-serif" font-weight="600" opacity="0.9">v0.5.0 (1.4 ops/s)</text>
<circle cx="148.4" cy="106.8" r="3" fill="#3b82f6" stroke="white" stroke-width="1"/>
<text x="148.4" y="98.8" font-size="9" fill="#3b82f6" text-anchor="middle" font-family="system-ui, -apple-system, sans-serif" font-weight="600" opacity="0.9">v0.5.0</text>
<circle cx="176.9" cy="87.9" r="3" fill="#3b82f6" stroke="white" stroke-width="1"/>
<text x="176.9" y="79.9" font-size="9" fill="#3b82f6" text-anchor="middle" font-family="system-ui, -apple-system, sans-serif" font-weight="600" opacity="0.9">v0.6.0</text>
<circle cx="205.4" cy="94.3" r="3" fill="#3b82f6" stroke="white" stroke-width="1"/>
<text x="205.4" y="86.3" font-size="9" fill="#3b82f6" text-anchor="middle" font-family="system-ui, -apple-system, sans-serif" font-weight="600" opacity="0.9">v0.6.1</text>
<circle cx="233.8" cy="85.2" r="3" fill="#3b82f6" stroke="white" stroke-width="1"/>
<text x="233.8" y="77.2" font-size="9" fill="#3b82f6" text-anchor="middle" font-family="system-ui, -apple-system, sans-serif" font-weight="600" opacity="0.9">v0.7.0</text>
<circle cx="262.3" cy="81.4" r="3" fill="#3b82f6" stroke="white" stroke-width="1"/>
<text x="262.3" y="73.4" font-size="9" fill="#3b82f6" text-anchor="middle" font-family="system-ui, -apple-system, sans-serif" font-weight="600" opacity="0.9">v0.7.0</text>
<circle cx="290.8" cy="23.0" r="3" fill="#3b82f6" stroke="white" stroke-width="1"/>
<text x="290.8" y="17.0" font-size="9" fill="#3b82f6" text-anchor="middle" font-family="system-ui, -apple-system, sans-serif" font-weight="600" opacity="0.9">v0.7.0 (2.1 ops/s)</text>
<circle cx="319.2" cy="82.0" r="3" fill="#3b82f6" stroke="white" stroke-width="1"/>
<text x="319.2" y="74.0" font-size="9" fill="#3b82f6" text-anchor="middle" font-family="system-ui, -apple-system, sans-serif" font-weight="600" opacity="0.9">v0.8.0</text>
<circle cx="347.7" cy="84.0" r="3" fill="#3b82f6" stroke="white" stroke-width="1"/>
<text x="347.7" y="76.0" font-size="9" fill="#3b82f6" text-anchor="middle" font-family="system-ui, -apple-system, sans-serif" font-weight="600" opacity="0.9">v0.8.0</text>
<circle cx="376.2" cy="81.2" r="3" fill="#3b82f6" stroke="white" stroke-width="1"/>
<text x="376.2" y="73.2" font-size="9" fill="#3b82f6" text-anchor="middle" font-family="system-ui, -apple-system, sans-serif" font-weight="600" opacity="0.9">v0.8.0</text>
<circle cx="404.6" cy="86.0" r="3" fill="#3b82f6" stroke="white" stroke-width="1"/>
<text x="404.6" y="78.0" font-size="9" fill="#3b82f6" text-anchor="middle" font-family="system-ui, -apple-system, sans-serif" font-weight="600" opacity="0.9">v0.8.0</text>
<circle cx="433.1" cy="82.3" r="3" fill="#3b82f6" stroke="white" stroke-width="1"/>
<text x="433.1" y="74.3" font-size="9" fill="#3b82f6" text-anchor="middle" font-family="system-ui, -apple-system, sans-serif" font-weight="600" opacity="0.9">v0.8.0</text>
<circle cx="461.6" cy="86.1" r="3" fill="#3b82f6" stroke="white" stroke-width="1"/>
<text x="461.6" y="78.1" font-size="9" fill="#3b82f6" text-anchor="middle" font-family="system-ui, -apple-system, sans-serif" font-weight="600" opacity="0.9">v0.8.0</text>
<circle cx="490.1" cy="79.3" r="3" fill="#3b82f6" stroke="white" stroke-width="1"/>
<text x="490.1" y="71.3" font-size="9" fill="#3b82f6" text-anchor="middle" font-family="system-ui, -apple-system, sans-serif" font-weight="600" opacity="0.9">v0.9.0</text>
<circle cx="518.5" cy="77.9" r="3" fill="#3b82f6" stroke="white" stroke-width="1"/>
<text x="518.5" y="69.9" font-size="9" fill="#3b82f6" text-anchor="middle" font-family="system-ui, -apple-system, sans-serif" font-weight="600" opacity="0.9">v0.9.0</text>
<circle cx="547.0" cy="80.6" r="3" fill="#3b82f6" stroke="white" stroke-width="1"/>
<text x="547.0" y="72.6" font-size="9" fill="#3b82f6" text-anchor="middle" font-family="system-ui, -apple-system, sans-serif" font-weight="600" opacity="0.9">v0.10.0</text>
</svg>