<svg width="615" height="120" viewBox="0 0 615 120" xmlns="http://www.w3.org/2000/svg">
<rect width="615" height="120" fill="transparent"/>
<line x1="63" y1="67.5" x2="547" y2="67.5" stroke="currentColor" stroke-width="0.5" opacity="0.2" stroke-dasharray="2,2"/>
<polyline fill="none" stroke="#3b82f6" stroke-width="2" points="48.0,107.8 103.3,108.7 143.7,112.0 184.0,106.8 224.3,87.9 264.7,94.3 305.0,85.2 345.3,81.4 385.7,23.0 426.0,82.0 466.3,84.0 506.7,81.2 547.0,86.0" stroke-linecap="round" stroke-linejoin="round"/>
<circle cx="48.0" cy="107.8" r="3" fill="#3b82f6" stroke="white" stroke-width="1"/>
<text x="48.0" y="99.8" font-size="9" fill="#3b82f6" text-anchor="middle" font-family="system-ui, -apple-system, sans-serif" font-weight="600" opacity="0.9">v0.4.1</text>
<circle cx="103.3" cy="108.7" r="3" fill="#3b82f6" stroke="white" stroke-width="1"/>
<text x="103.3" y="100.7" font-size="9" fill="#3b82f6" text-anchor="middle" font-family="system-ui, -apple-system, sans-serif" font-weight="600" opacity="0.9">v0.4.1</text>
<circle cx="143.7" cy="112.0" r="3" fill="#3b82f6" stroke="white" stroke-width="1"/>
<text x="143.7" y="104.0" font-size="9" fill="#3b82f6" text-anchor="middle" font-family="system-ui, -apple-system, sans-serif" font-weight="600" opacity="0.9">v0.5.0 (1.4 ops/s)</text>
<circle cx="184.0" cy="106.8" r="3" fill="#3b82f6" stroke="white" stroke-width="1"/>
<text x="184.0" y="98.8" font-size="9" fill="#3b82f6" text-anchor="middle" font-family="system-ui, -apple-system, sans-serif" font-weight="600" opacity="0.9">v0.5.0</text>
<circle cx="224.3" cy="87.9" r="3" fill="#3b82f6" stroke="white" stroke-width="1"/>
<text x="224.3" y="79.9" font-size="9" fill="#3b82f6" text-anchor="middle" font-family="system-ui, -apple-system, sans-serif" font-weight="600" opacity="0.9">v0.6.0</text>
<circle cx="264.7" cy="94.3" r="3" fill="#3b82f6" stroke="white" stroke-width="1"/>
<text x="264.7" y="86.3" font-size="9" fill="#3b82f6" text-anchor="middle" font-family="system-ui, -apple-system, sans-serif" font-weight="600" opacity="0.9">v0.6.1</text>
<circle cx="305.0" cy="85.2" r="3" fill="#3b82f6" stroke="white" stroke-width="1"/>
<text x="305.0" y="77.2" font-size="9" fill="#3b82f6" text-anchor="middle" font-family="system-ui, -apple-system, sans-serif" font-weight="600" opacity="0.9">v0.7.0</text>
<circle cx="345.3" cy="81.4" r="3" fill="#3b82f6" stroke="white" stroke-width="1"/>
<text x="345.3" y="73.4" font-size="9" fill="#3b82f6" text-anchor="middle" font-family="system-ui, -apple-system, sans-serif" font-weight="600" opacity="0.9">v0.7.0</text>
<circle cx="385.7" cy="23.0" r="3" fill="#3b82f6" stroke="white" stroke-width="1"/>
<text x="385.7" y="17.0" font-size="9" fill="#3b82f6" text-anchor="middle" font-family="system-ui, -apple-system, sans-serif" font-weight="600" opacity="0.9">v0.7.0 (2.1 ops/s)</text>
<circle cx="426.0" cy="82.0" r="3" fill="#3b82f6" stroke="white" stroke-width="1"/>
<text x="426.0" y="74.0" font-size="9" fill="#3b82f6" text-anchor="middle" font-family="system-ui, -apple-system, sans-serif" font-weight="600" opacity="0.9">v0.8.0</text>
<circle cx="466.3" cy="84.0" r="3" fill="#3b82f6" stroke="white" stroke-width="1"/>
<text x="466.3" y="76.0" font-size="9" fill="#3b82f6" text-anchor="middle" font-family="system-ui, -apple-system, sans-serif" font-weight="600" opacity="0.9">v0.8.0</text>
<circle cx="506.7" cy="81.2" r="3" fill="#3b82f6" stroke="white" stroke-width="1"/>
<text x="506.7" y="73.2" font-size="9" fill="#3b82f6" text-anchor="middle" font-family="system-ui, -apple-system, sans-serif" font-weight="600" opacity="0.9">v0.8.0</text>
<circle cx="547.0" cy="86.0" r="3" fill="#3b82f6" stroke="white" stroke-width="1"/>
<text x="547.0" y="78.0" font-size="9" fill="#3b82f6" text-anchor="middle" font-family="system-ui, -apple-system, sans-serif" font-weight="600" opacity="0.9">v0.8.0</text>
</svg>