<svg width="615" height="120" viewBox="0 0 615 120" xmlns="http://www.w3.org/2000/svg">
<rect width="615" height="120" fill="transparent"/>
<line x1="63" y1="67.5" x2="547" y2="67.5" stroke="currentColor" stroke-width="0.5" opacity="0.2" stroke-dasharray="2,2"/>
<polyline fill="none" stroke="#3b82f6" stroke-width="2" points="48.0,37.6 100.2,23.0 137.5,23.7 174.7,25.6 211.9,74.7 249.2,109.0 286.4,112.0 323.6,109.5 360.8,27.6 398.1,102.0 435.3,100.2 472.5,105.9 509.8,105.9 547.0,99.8" stroke-linecap="round" stroke-linejoin="round"/>
<circle cx="48.0" cy="37.6" r="3" fill="#3b82f6" stroke="white" stroke-width="1"/>
<text x="48.0" y="29.6" font-size="9" fill="#3b82f6" text-anchor="middle" font-family="system-ui, -apple-system, sans-serif" font-weight="600" opacity="0.9">v0.4.1</text>
<circle cx="100.2" cy="23.0" r="3" fill="#3b82f6" stroke="white" stroke-width="1"/>
<text x="100.2" y="17.0" font-size="9" fill="#3b82f6" text-anchor="middle" font-family="system-ui, -apple-system, sans-serif" font-weight="600" opacity="0.9">v0.4.1 (80.36K ops/s)</text>
<circle cx="137.5" cy="23.7" r="3" fill="#3b82f6" stroke="white" stroke-width="1"/>
<text x="137.5" y="17.0" font-size="9" fill="#3b82f6" text-anchor="middle" font-family="system-ui, -apple-system, sans-serif" font-weight="600" opacity="0.9">v0.5.0</text>
<circle cx="174.7" cy="25.6" r="3" fill="#3b82f6" stroke="white" stroke-width="1"/>
<text x="174.7" y="17.6" font-size="9" fill="#3b82f6" text-anchor="middle" font-family="system-ui, -apple-system, sans-serif" font-weight="600" opacity="0.9">v0.5.0</text>
<circle cx="211.9" cy="74.7" r="3" fill="#3b82f6" stroke="white" stroke-width="1"/>
<text x="211.9" y="66.7" font-size="9" fill="#3b82f6" text-anchor="middle" font-family="system-ui, -apple-system, sans-serif" font-weight="600" opacity="0.9">v0.6.0</text>
<circle cx="249.2" cy="109.0" r="3" fill="#3b82f6" stroke="white" stroke-width="1"/>
<text x="249.2" y="101.0" font-size="9" fill="#3b82f6" text-anchor="middle" font-family="system-ui, -apple-system, sans-serif" font-weight="600" opacity="0.9">v0.6.1</text>
<circle cx="286.4" cy="112.0" r="3" fill="#3b82f6" stroke="white" stroke-width="1"/>
<text x="286.4" y="104.0" font-size="9" fill="#3b82f6" text-anchor="middle" font-family="system-ui, -apple-system, sans-serif" font-weight="600" opacity="0.9">v0.7.0 (58.52K ops/s)</text>
<circle cx="323.6" cy="109.5" r="3" fill="#3b82f6" stroke="white" stroke-width="1"/>
<text x="323.6" y="101.5" font-size="9" fill="#3b82f6" text-anchor="middle" font-family="system-ui, -apple-system, sans-serif" font-weight="600" opacity="0.9">v0.7.0</text>
<circle cx="360.8" cy="27.6" r="3" fill="#3b82f6" stroke="white" stroke-width="1"/>
<text x="360.8" y="19.6" font-size="9" fill="#3b82f6" text-anchor="middle" font-family="system-ui, -apple-system, sans-serif" font-weight="600" opacity="0.9">v0.7.0</text>
<circle cx="398.1" cy="102.0" r="3" fill="#3b82f6" stroke="white" stroke-width="1"/>
<text x="398.1" y="94.0" font-size="9" fill="#3b82f6" text-anchor="middle" font-family="system-ui, -apple-system, sans-serif" font-weight="600" opacity="0.9">v0.8.0</text>
<circle cx="435.3" cy="100.2" r="3" fill="#3b82f6" stroke="white" stroke-width="1"/>
<text x="435.3" y="92.2" font-size="9" fill="#3b82f6" text-anchor="middle" font-family="system-ui, -apple-system, sans-serif" font-weight="600" opacity="0.9">v0.8.0</text>
<circle cx="472.5" cy="105.9" r="3" fill="#3b82f6" stroke="white" stroke-width="1"/>
<text x="472.5" y="97.9" font-size="9" fill="#3b82f6" text-anchor="middle" font-family="system-ui, -apple-system, sans-serif" font-weight="600" opacity="0.9">v0.8.0</text>
<circle cx="509.8" cy="105.9" r="3" fill="#3b82f6" stroke="white" stroke-width="1"/>
<text x="509.8" y="97.9" font-size="9" fill="#3b82f6" text-anchor="middle" font-family="system-ui, -apple-system, sans-serif" font-weight="600" opacity="0.9">v0.8.0</text>
<circle cx="547.0" cy="99.8" r="3" fill="#3b82f6" stroke="white" stroke-width="1"/>
<text x="547.0" y="91.8" font-size="9" fill="#3b82f6" text-anchor="middle" font-family="system-ui, -apple-system, sans-serif" font-weight="600" opacity="0.9">v0.8.0</text>
</svg>