<svg width="615" height="120" viewBox="0 0 615 120" xmlns="http://www.w3.org/2000/svg">
<rect width="615" height="120" fill="transparent"/>
<line x1="63" y1="67.5" x2="547" y2="67.5" stroke="currentColor" stroke-width="0.5" opacity="0.2" stroke-dasharray="2,2"/>
<polyline fill="none" stroke="#3b82f6" stroke-width="2" points="48.0,112.0 123.5,108.9 184.0,97.3 244.5,96.5 305.0,77.7 365.5,98.1 426.0,102.4 486.5,111.9 547.0,23.0" stroke-linecap="round" stroke-linejoin="round"/>
<circle cx="48.0" cy="112.0" r="3" fill="#3b82f6" stroke="white" stroke-width="1"/>
<text x="48.0" y="104.0" font-size="9" fill="#3b82f6" text-anchor="middle" font-family="system-ui, -apple-system, sans-serif" font-weight="600" opacity="0.9">v0.4.1 (45.52K ops/s)</text>
<circle cx="123.5" cy="108.9" r="3" fill="#3b82f6" stroke="white" stroke-width="1"/>
<text x="123.5" y="100.9" font-size="9" fill="#3b82f6" text-anchor="middle" font-family="system-ui, -apple-system, sans-serif" font-weight="600" opacity="0.9">v0.4.1</text>
<circle cx="184.0" cy="97.3" r="3" fill="#3b82f6" stroke="white" stroke-width="1"/>
<text x="184.0" y="89.3" font-size="9" fill="#3b82f6" text-anchor="middle" font-family="system-ui, -apple-system, sans-serif" font-weight="600" opacity="0.9">v0.5.0</text>
<circle cx="244.5" cy="96.5" r="3" fill="#3b82f6" stroke="white" stroke-width="1"/>
<text x="244.5" y="88.5" font-size="9" fill="#3b82f6" text-anchor="middle" font-family="system-ui, -apple-system, sans-serif" font-weight="600" opacity="0.9">v0.5.0</text>
<circle cx="305.0" cy="77.7" r="3" fill="#3b82f6" stroke="white" stroke-width="1"/>
<text x="305.0" y="69.7" font-size="9" fill="#3b82f6" text-anchor="middle" font-family="system-ui, -apple-system, sans-serif" font-weight="600" opacity="0.9">v0.6.0</text>
<circle cx="365.5" cy="98.1" r="3" fill="#3b82f6" stroke="white" stroke-width="1"/>
<text x="365.5" y="90.1" font-size="9" fill="#3b82f6" text-anchor="middle" font-family="system-ui, -apple-system, sans-serif" font-weight="600" opacity="0.9">v0.6.1</text>
<circle cx="426.0" cy="102.4" r="3" fill="#3b82f6" stroke="white" stroke-width="1"/>
<text x="426.0" y="94.4" font-size="9" fill="#3b82f6" text-anchor="middle" font-family="system-ui, -apple-system, sans-serif" font-weight="600" opacity="0.9">v0.7.0</text>
<circle cx="486.5" cy="111.9" r="3" fill="#3b82f6" stroke="white" stroke-width="1"/>
<text x="486.5" y="103.9" font-size="9" fill="#3b82f6" text-anchor="middle" font-family="system-ui, -apple-system, sans-serif" font-weight="600" opacity="0.9">v0.7.0</text>
<circle cx="547.0" cy="23.0" r="3" fill="#3b82f6" stroke="white" stroke-width="1"/>
<text x="547.0" y="17.0" font-size="9" fill="#3b82f6" text-anchor="middle" font-family="system-ui, -apple-system, sans-serif" font-weight="600" opacity="0.9">v0.7.0 (59.11K ops/s)</text>
</svg>