<svg width="615" height="120" viewBox="0 0 615 120" xmlns="http://www.w3.org/2000/svg">
<rect width="615" height="120" fill="transparent"/>
<line x1="63" y1="67.5" x2="547" y2="67.5" stroke="currentColor" stroke-width="0.5" opacity="0.2" stroke-dasharray="2,2"/>
<polyline fill="none" stroke="#3b82f6" stroke-width="2" points="48.0,111.5 91.5,110.6 119.9,110.7 148.4,110.6 176.9,107.6 205.4,110.0 233.8,110.1 262.3,111.9 290.8,99.7 319.2,111.3 347.7,111.8 376.2,109.7 404.6,112.0 433.1,40.9 461.6,24.0 490.1,41.8 518.5,23.0 547.0,41.0" stroke-linecap="round" stroke-linejoin="round"/>
<circle cx="48.0" cy="111.5" r="3" fill="#3b82f6" stroke="white" stroke-width="1"/>
<text x="48.0" y="103.5" font-size="9" fill="#3b82f6" text-anchor="middle" font-family="system-ui, -apple-system, sans-serif" font-weight="600" opacity="0.9">v0.4.1</text>
<circle cx="91.5" cy="110.6" r="3" fill="#3b82f6" stroke="white" stroke-width="1"/>
<text x="91.5" y="102.6" font-size="9" fill="#3b82f6" text-anchor="middle" font-family="system-ui, -apple-system, sans-serif" font-weight="600" opacity="0.9">v0.4.1</text>
<circle cx="119.9" cy="110.7" r="3" fill="#3b82f6" stroke="white" stroke-width="1"/>
<text x="119.9" y="102.7" font-size="9" fill="#3b82f6" text-anchor="middle" font-family="system-ui, -apple-system, sans-serif" font-weight="600" opacity="0.9">v0.5.0</text>
<circle cx="148.4" cy="110.6" r="3" fill="#3b82f6" stroke="white" stroke-width="1"/>
<text x="148.4" y="102.6" font-size="9" fill="#3b82f6" text-anchor="middle" font-family="system-ui, -apple-system, sans-serif" font-weight="600" opacity="0.9">v0.5.0</text>
<circle cx="176.9" cy="107.6" r="3" fill="#3b82f6" stroke="white" stroke-width="1"/>
<text x="176.9" y="99.6" font-size="9" fill="#3b82f6" text-anchor="middle" font-family="system-ui, -apple-system, sans-serif" font-weight="600" opacity="0.9">v0.6.0</text>
<circle cx="205.4" cy="110.0" r="3" fill="#3b82f6" stroke="white" stroke-width="1"/>
<text x="205.4" y="102.0" font-size="9" fill="#3b82f6" text-anchor="middle" font-family="system-ui, -apple-system, sans-serif" font-weight="600" opacity="0.9">v0.6.1</text>
<circle cx="233.8" cy="110.1" r="3" fill="#3b82f6" stroke="white" stroke-width="1"/>
<text x="233.8" y="102.1" font-size="9" fill="#3b82f6" text-anchor="middle" font-family="system-ui, -apple-system, sans-serif" font-weight="600" opacity="0.9">v0.7.0</text>
<circle cx="262.3" cy="111.9" r="3" fill="#3b82f6" stroke="white" stroke-width="1"/>
<text x="262.3" y="103.9" font-size="9" fill="#3b82f6" text-anchor="middle" font-family="system-ui, -apple-system, sans-serif" font-weight="600" opacity="0.9">v0.7.0</text>
<circle cx="290.8" cy="99.7" r="3" fill="#3b82f6" stroke="white" stroke-width="1"/>
<text x="290.8" y="91.7" font-size="9" fill="#3b82f6" text-anchor="middle" font-family="system-ui, -apple-system, sans-serif" font-weight="600" opacity="0.9">v0.7.0</text>
<circle cx="319.2" cy="111.3" r="3" fill="#3b82f6" stroke="white" stroke-width="1"/>
<text x="319.2" y="103.3" font-size="9" fill="#3b82f6" text-anchor="middle" font-family="system-ui, -apple-system, sans-serif" font-weight="600" opacity="0.9">v0.8.0</text>
<circle cx="347.7" cy="111.8" r="3" fill="#3b82f6" stroke="white" stroke-width="1"/>
<text x="347.7" y="103.8" font-size="9" fill="#3b82f6" text-anchor="middle" font-family="system-ui, -apple-system, sans-serif" font-weight="600" opacity="0.9">v0.8.0</text>
<circle cx="376.2" cy="109.7" r="3" fill="#3b82f6" stroke="white" stroke-width="1"/>
<text x="376.2" y="101.7" font-size="9" fill="#3b82f6" text-anchor="middle" font-family="system-ui, -apple-system, sans-serif" font-weight="600" opacity="0.9">v0.8.0</text>
<circle cx="404.6" cy="112.0" r="3" fill="#3b82f6" stroke="white" stroke-width="1"/>
<text x="404.6" y="104.0" font-size="9" fill="#3b82f6" text-anchor="middle" font-family="system-ui, -apple-system, sans-serif" font-weight="600" opacity="0.9">v0.8.0 (554.4 ops/s)</text>
<circle cx="433.1" cy="40.9" r="3" fill="#3b82f6" stroke="white" stroke-width="1"/>
<text x="433.1" y="32.9" font-size="9" fill="#3b82f6" text-anchor="middle" font-family="system-ui, -apple-system, sans-serif" font-weight="600" opacity="0.9">v0.8.0</text>
<circle cx="461.6" cy="24.0" r="3" fill="#3b82f6" stroke="white" stroke-width="1"/>
<text x="461.6" y="17.0" font-size="9" fill="#3b82f6" text-anchor="middle" font-family="system-ui, -apple-system, sans-serif" font-weight="600" opacity="0.9">v0.8.0</text>
<circle cx="490.1" cy="41.8" r="3" fill="#3b82f6" stroke="white" stroke-width="1"/>
<text x="490.1" y="33.8" font-size="9" fill="#3b82f6" text-anchor="middle" font-family="system-ui, -apple-system, sans-serif" font-weight="600" opacity="0.9">v0.9.0</text>
<circle cx="518.5" cy="23.0" r="3" fill="#3b82f6" stroke="white" stroke-width="1"/>
<text x="518.5" y="17.0" font-size="9" fill="#3b82f6" text-anchor="middle" font-family="system-ui, -apple-system, sans-serif" font-weight="600" opacity="0.9">v0.9.0 (1.93K ops/s)</text>
<circle cx="547.0" cy="41.0" r="3" fill="#3b82f6" stroke="white" stroke-width="1"/>
<text x="547.0" y="33.0" font-size="9" fill="#3b82f6" text-anchor="middle" font-family="system-ui, -apple-system, sans-serif" font-weight="600" opacity="0.9">v0.10.0</text>
</svg>