<svg width="615" height="120" viewBox="0 0 615 120" xmlns="http://www.w3.org/2000/svg">
<rect width="615" height="120" fill="transparent"/>
<line x1="63" y1="67.5" x2="547" y2="67.5" stroke="currentColor" stroke-width="0.5" opacity="0.2" stroke-dasharray="2,2"/>
<polyline fill="none" stroke="#3b82f6" stroke-width="2" points="48.0,41.2 107.0,27.8 151.0,25.8 195.0,29.0 239.0,72.7 283.0,90.5 327.0,88.2 371.0,112.0 415.0,23.0 459.0,86.8 503.0,86.9 547.0,83.5" stroke-linecap="round" stroke-linejoin="round"/>
<circle cx="48.0" cy="41.2" r="3" fill="#3b82f6" stroke="white" stroke-width="1"/>
<text x="48.0" y="33.2" font-size="9" fill="#3b82f6" text-anchor="middle" font-family="system-ui, -apple-system, sans-serif" font-weight="600" opacity="0.9">v0.4.1</text>
<circle cx="107.0" cy="27.8" r="3" fill="#3b82f6" stroke="white" stroke-width="1"/>
<text x="107.0" y="19.8" font-size="9" fill="#3b82f6" text-anchor="middle" font-family="system-ui, -apple-system, sans-serif" font-weight="600" opacity="0.9">v0.4.1</text>
<circle cx="151.0" cy="25.8" r="3" fill="#3b82f6" stroke="white" stroke-width="1"/>
<text x="151.0" y="17.8" font-size="9" fill="#3b82f6" text-anchor="middle" font-family="system-ui, -apple-system, sans-serif" font-weight="600" opacity="0.9">v0.5.0</text>
<circle cx="195.0" cy="29.0" r="3" fill="#3b82f6" stroke="white" stroke-width="1"/>
<text x="195.0" y="21.0" font-size="9" fill="#3b82f6" text-anchor="middle" font-family="system-ui, -apple-system, sans-serif" font-weight="600" opacity="0.9">v0.5.0</text>
<circle cx="239.0" cy="72.7" r="3" fill="#3b82f6" stroke="white" stroke-width="1"/>
<text x="239.0" y="64.7" font-size="9" fill="#3b82f6" text-anchor="middle" font-family="system-ui, -apple-system, sans-serif" font-weight="600" opacity="0.9">v0.6.0</text>
<circle cx="283.0" cy="90.5" r="3" fill="#3b82f6" stroke="white" stroke-width="1"/>
<text x="283.0" y="82.5" font-size="9" fill="#3b82f6" text-anchor="middle" font-family="system-ui, -apple-system, sans-serif" font-weight="600" opacity="0.9">v0.6.1</text>
<circle cx="327.0" cy="88.2" r="3" fill="#3b82f6" stroke="white" stroke-width="1"/>
<text x="327.0" y="80.2" font-size="9" fill="#3b82f6" text-anchor="middle" font-family="system-ui, -apple-system, sans-serif" font-weight="600" opacity="0.9">v0.7.0</text>
<circle cx="371.0" cy="112.0" r="3" fill="#3b82f6" stroke="white" stroke-width="1"/>
<text x="371.0" y="104.0" font-size="9" fill="#3b82f6" text-anchor="middle" font-family="system-ui, -apple-system, sans-serif" font-weight="600" opacity="0.9">v0.7.0 (648.5 ops/s)</text>
<circle cx="415.0" cy="23.0" r="3" fill="#3b82f6" stroke="white" stroke-width="1"/>
<text x="415.0" y="17.0" font-size="9" fill="#3b82f6" text-anchor="middle" font-family="system-ui, -apple-system, sans-serif" font-weight="600" opacity="0.9">v0.7.0 (878.6 ops/s)</text>
<circle cx="459.0" cy="86.8" r="3" fill="#3b82f6" stroke="white" stroke-width="1"/>
<text x="459.0" y="78.8" font-size="9" fill="#3b82f6" text-anchor="middle" font-family="system-ui, -apple-system, sans-serif" font-weight="600" opacity="0.9">v0.8.0</text>
<circle cx="503.0" cy="86.9" r="3" fill="#3b82f6" stroke="white" stroke-width="1"/>
<text x="503.0" y="78.9" font-size="9" fill="#3b82f6" text-anchor="middle" font-family="system-ui, -apple-system, sans-serif" font-weight="600" opacity="0.9">v0.8.0</text>
<circle cx="547.0" cy="83.5" r="3" fill="#3b82f6" stroke="white" stroke-width="1"/>
<text x="547.0" y="75.5" font-size="9" fill="#3b82f6" text-anchor="middle" font-family="system-ui, -apple-system, sans-serif" font-weight="600" opacity="0.9">v0.8.0</text>
</svg>