<svg width="615" height="120" viewBox="0 0 615 120" xmlns="http://www.w3.org/2000/svg">
<rect width="615" height="120" fill="transparent"/>
<line x1="63" y1="67.5" x2="547" y2="67.5" stroke="currentColor" stroke-width="0.5" opacity="0.2" stroke-dasharray="2,2"/>
<polyline fill="none" stroke="#3b82f6" stroke-width="2" points="48.0,24.7 100.2,25.3 137.5,23.6 174.7,23.0 211.9,84.3 249.2,111.6 286.4,112.0 323.6,108.1 360.8,58.2 398.1,107.6 435.3,107.0 472.5,110.8 509.8,107.1 547.0,106.3" stroke-linecap="round" stroke-linejoin="round"/>
<circle cx="48.0" cy="24.7" r="3" fill="#3b82f6" stroke="white" stroke-width="1"/>
<text x="48.0" y="17.0" font-size="9" fill="#3b82f6" text-anchor="middle" font-family="system-ui, -apple-system, sans-serif" font-weight="600" opacity="0.9">v0.4.1</text>
<circle cx="100.2" cy="25.3" r="3" fill="#3b82f6" stroke="white" stroke-width="1"/>
<text x="100.2" y="17.3" font-size="9" fill="#3b82f6" text-anchor="middle" font-family="system-ui, -apple-system, sans-serif" font-weight="600" opacity="0.9">v0.4.1</text>
<circle cx="137.5" cy="23.6" r="3" fill="#3b82f6" stroke="white" stroke-width="1"/>
<text x="137.5" y="17.0" font-size="9" fill="#3b82f6" text-anchor="middle" font-family="system-ui, -apple-system, sans-serif" font-weight="600" opacity="0.9">v0.5.0</text>
<circle cx="174.7" cy="23.0" r="3" fill="#3b82f6" stroke="white" stroke-width="1"/>
<text x="174.7" y="17.0" font-size="9" fill="#3b82f6" text-anchor="middle" font-family="system-ui, -apple-system, sans-serif" font-weight="600" opacity="0.9">v0.5.0 (8.54K ops/s)</text>
<circle cx="211.9" cy="84.3" r="3" fill="#3b82f6" stroke="white" stroke-width="1"/>
<text x="211.9" y="76.3" font-size="9" fill="#3b82f6" text-anchor="middle" font-family="system-ui, -apple-system, sans-serif" font-weight="600" opacity="0.9">v0.6.0</text>
<circle cx="249.2" cy="111.6" r="3" fill="#3b82f6" stroke="white" stroke-width="1"/>
<text x="249.2" y="103.6" font-size="9" fill="#3b82f6" text-anchor="middle" font-family="system-ui, -apple-system, sans-serif" font-weight="600" opacity="0.9">v0.6.1</text>
<circle cx="286.4" cy="112.0" r="3" fill="#3b82f6" stroke="white" stroke-width="1"/>
<text x="286.4" y="104.0" font-size="9" fill="#3b82f6" text-anchor="middle" font-family="system-ui, -apple-system, sans-serif" font-weight="600" opacity="0.9">v0.7.0 (5.65K ops/s)</text>
<circle cx="323.6" cy="108.1" r="3" fill="#3b82f6" stroke="white" stroke-width="1"/>
<text x="323.6" y="100.1" font-size="9" fill="#3b82f6" text-anchor="middle" font-family="system-ui, -apple-system, sans-serif" font-weight="600" opacity="0.9">v0.7.0</text>
<circle cx="360.8" cy="58.2" r="3" fill="#3b82f6" stroke="white" stroke-width="1"/>
<text x="360.8" y="50.2" font-size="9" fill="#3b82f6" text-anchor="middle" font-family="system-ui, -apple-system, sans-serif" font-weight="600" opacity="0.9">v0.7.0</text>
<circle cx="398.1" cy="107.6" r="3" fill="#3b82f6" stroke="white" stroke-width="1"/>
<text x="398.1" y="99.6" font-size="9" fill="#3b82f6" text-anchor="middle" font-family="system-ui, -apple-system, sans-serif" font-weight="600" opacity="0.9">v0.8.0</text>
<circle cx="435.3" cy="107.0" r="3" fill="#3b82f6" stroke="white" stroke-width="1"/>
<text x="435.3" y="99.0" font-size="9" fill="#3b82f6" text-anchor="middle" font-family="system-ui, -apple-system, sans-serif" font-weight="600" opacity="0.9">v0.8.0</text>
<circle cx="472.5" cy="110.8" r="3" fill="#3b82f6" stroke="white" stroke-width="1"/>
<text x="472.5" y="102.8" font-size="9" fill="#3b82f6" text-anchor="middle" font-family="system-ui, -apple-system, sans-serif" font-weight="600" opacity="0.9">v0.8.0</text>
<circle cx="509.8" cy="107.1" r="3" fill="#3b82f6" stroke="white" stroke-width="1"/>
<text x="509.8" y="99.1" font-size="9" fill="#3b82f6" text-anchor="middle" font-family="system-ui, -apple-system, sans-serif" font-weight="600" opacity="0.9">v0.8.0</text>
<circle cx="547.0" cy="106.3" r="3" fill="#3b82f6" stroke="white" stroke-width="1"/>
<text x="547.0" y="98.3" font-size="9" fill="#3b82f6" text-anchor="middle" font-family="system-ui, -apple-system, sans-serif" font-weight="600" opacity="0.9">v0.8.0</text>
</svg>