<svg width="615" height="120" viewBox="0 0 615 120" xmlns="http://www.w3.org/2000/svg">
<rect width="615" height="120" fill="transparent"/>
<line x1="63" y1="67.5" x2="547" y2="67.5" stroke="currentColor" stroke-width="0.5" opacity="0.2" stroke-dasharray="2,2"/>
<polyline fill="none" stroke="#3b82f6" stroke-width="2" points="48.0,106.3 100.2,77.3 137.5,72.1 174.7,73.2 211.9,90.3 249.2,112.0 286.4,96.3 323.6,104.4 360.8,23.0 398.1,105.3 435.3,105.3 472.5,101.7 509.8,102.2 547.0,107.0" stroke-linecap="round" stroke-linejoin="round"/>
<circle cx="48.0" cy="106.3" r="3" fill="#3b82f6" stroke="white" stroke-width="1"/>
<text x="48.0" y="98.3" font-size="9" fill="#3b82f6" text-anchor="middle" font-family="system-ui, -apple-system, sans-serif" font-weight="600" opacity="0.9">v0.4.1</text>
<circle cx="100.2" cy="77.3" r="3" fill="#3b82f6" stroke="white" stroke-width="1"/>
<text x="100.2" y="69.3" font-size="9" fill="#3b82f6" text-anchor="middle" font-family="system-ui, -apple-system, sans-serif" font-weight="600" opacity="0.9">v0.4.1</text>
<circle cx="137.5" cy="72.1" r="3" fill="#3b82f6" stroke="white" stroke-width="1"/>
<text x="137.5" y="64.1" font-size="9" fill="#3b82f6" text-anchor="middle" font-family="system-ui, -apple-system, sans-serif" font-weight="600" opacity="0.9">v0.5.0</text>
<circle cx="174.7" cy="73.2" r="3" fill="#3b82f6" stroke="white" stroke-width="1"/>
<text x="174.7" y="65.2" font-size="9" fill="#3b82f6" text-anchor="middle" font-family="system-ui, -apple-system, sans-serif" font-weight="600" opacity="0.9">v0.5.0</text>
<circle cx="211.9" cy="90.3" r="3" fill="#3b82f6" stroke="white" stroke-width="1"/>
<text x="211.9" y="82.3" font-size="9" fill="#3b82f6" text-anchor="middle" font-family="system-ui, -apple-system, sans-serif" font-weight="600" opacity="0.9">v0.6.0</text>
<circle cx="249.2" cy="112.0" r="3" fill="#3b82f6" stroke="white" stroke-width="1"/>
<text x="249.2" y="104.0" font-size="9" fill="#3b82f6" text-anchor="middle" font-family="system-ui, -apple-system, sans-serif" font-weight="600" opacity="0.9">v0.6.1 (234.2 ops/s)</text>
<circle cx="286.4" cy="96.3" r="3" fill="#3b82f6" stroke="white" stroke-width="1"/>
<text x="286.4" y="88.3" font-size="9" fill="#3b82f6" text-anchor="middle" font-family="system-ui, -apple-system, sans-serif" font-weight="600" opacity="0.9">v0.7.0</text>
<circle cx="323.6" cy="104.4" r="3" fill="#3b82f6" stroke="white" stroke-width="1"/>
<text x="323.6" y="96.4" font-size="9" fill="#3b82f6" text-anchor="middle" font-family="system-ui, -apple-system, sans-serif" font-weight="600" opacity="0.9">v0.7.0</text>
<circle cx="360.8" cy="23.0" r="3" fill="#3b82f6" stroke="white" stroke-width="1"/>
<text x="360.8" y="17.0" font-size="9" fill="#3b82f6" text-anchor="middle" font-family="system-ui, -apple-system, sans-serif" font-weight="600" opacity="0.9">v0.7.0 (313.2 ops/s)</text>
<circle cx="398.1" cy="105.3" r="3" fill="#3b82f6" stroke="white" stroke-width="1"/>
<text x="398.1" y="97.3" font-size="9" fill="#3b82f6" text-anchor="middle" font-family="system-ui, -apple-system, sans-serif" font-weight="600" opacity="0.9">v0.8.0</text>
<circle cx="435.3" cy="105.3" r="3" fill="#3b82f6" stroke="white" stroke-width="1"/>
<text x="435.3" y="97.3" font-size="9" fill="#3b82f6" text-anchor="middle" font-family="system-ui, -apple-system, sans-serif" font-weight="600" opacity="0.9">v0.8.0</text>
<circle cx="472.5" cy="101.7" r="3" fill="#3b82f6" stroke="white" stroke-width="1"/>
<text x="472.5" y="93.7" font-size="9" fill="#3b82f6" text-anchor="middle" font-family="system-ui, -apple-system, sans-serif" font-weight="600" opacity="0.9">v0.8.0</text>
<circle cx="509.8" cy="102.2" r="3" fill="#3b82f6" stroke="white" stroke-width="1"/>
<text x="509.8" y="94.2" font-size="9" fill="#3b82f6" text-anchor="middle" font-family="system-ui, -apple-system, sans-serif" font-weight="600" opacity="0.9">v0.8.0</text>
<circle cx="547.0" cy="107.0" r="3" fill="#3b82f6" stroke="white" stroke-width="1"/>
<text x="547.0" y="99.0" font-size="9" fill="#3b82f6" text-anchor="middle" font-family="system-ui, -apple-system, sans-serif" font-weight="600" opacity="0.9">v0.8.0</text>
</svg>