<svg width="615" height="120" viewBox="0 0 615 120" xmlns="http://www.w3.org/2000/svg">
<rect width="615" height="120" fill="transparent"/>
<line x1="63" y1="67.5" x2="547" y2="67.5" stroke="currentColor" stroke-width="0.5" opacity="0.2" stroke-dasharray="2,2"/>
<polyline fill="none" stroke="#3b82f6" stroke-width="2" points="48.0,110.3 103.3,67.1 143.7,65.1 184.0,63.7 224.3,88.6 264.7,110.6 305.0,102.8 345.3,110.9 385.7,23.0 426.0,112.0 466.3,110.4 506.7,105.7 547.0,109.5" stroke-linecap="round" stroke-linejoin="round"/>
<circle cx="48.0" cy="110.3" r="3" fill="#3b82f6" stroke="white" stroke-width="1"/>
<text x="48.0" y="102.3" font-size="9" fill="#3b82f6" text-anchor="middle" font-family="system-ui, -apple-system, sans-serif" font-weight="600" opacity="0.9">v0.4.1</text>
<circle cx="103.3" cy="67.1" r="3" fill="#3b82f6" stroke="white" stroke-width="1"/>
<text x="103.3" y="59.1" font-size="9" fill="#3b82f6" text-anchor="middle" font-family="system-ui, -apple-system, sans-serif" font-weight="600" opacity="0.9">v0.4.1</text>
<circle cx="143.7" cy="65.1" r="3" fill="#3b82f6" stroke="white" stroke-width="1"/>
<text x="143.7" y="57.1" font-size="9" fill="#3b82f6" text-anchor="middle" font-family="system-ui, -apple-system, sans-serif" font-weight="600" opacity="0.9">v0.5.0</text>
<circle cx="184.0" cy="63.7" r="3" fill="#3b82f6" stroke="white" stroke-width="1"/>
<text x="184.0" y="55.7" font-size="9" fill="#3b82f6" text-anchor="middle" font-family="system-ui, -apple-system, sans-serif" font-weight="600" opacity="0.9">v0.5.0</text>
<circle cx="224.3" cy="88.6" r="3" fill="#3b82f6" stroke="white" stroke-width="1"/>
<text x="224.3" y="80.6" font-size="9" fill="#3b82f6" text-anchor="middle" font-family="system-ui, -apple-system, sans-serif" font-weight="600" opacity="0.9">v0.6.0</text>
<circle cx="264.7" cy="110.6" r="3" fill="#3b82f6" stroke="white" stroke-width="1"/>
<text x="264.7" y="102.6" font-size="9" fill="#3b82f6" text-anchor="middle" font-family="system-ui, -apple-system, sans-serif" font-weight="600" opacity="0.9">v0.6.1</text>
<circle cx="305.0" cy="102.8" r="3" fill="#3b82f6" stroke="white" stroke-width="1"/>
<text x="305.0" y="94.8" font-size="9" fill="#3b82f6" text-anchor="middle" font-family="system-ui, -apple-system, sans-serif" font-weight="600" opacity="0.9">v0.7.0</text>
<circle cx="345.3" cy="110.9" r="3" fill="#3b82f6" stroke="white" stroke-width="1"/>
<text x="345.3" y="102.9" font-size="9" fill="#3b82f6" text-anchor="middle" font-family="system-ui, -apple-system, sans-serif" font-weight="600" opacity="0.9">v0.7.0</text>
<circle cx="385.7" cy="23.0" r="3" fill="#3b82f6" stroke="white" stroke-width="1"/>
<text x="385.7" y="17.0" font-size="9" fill="#3b82f6" text-anchor="middle" font-family="system-ui, -apple-system, sans-serif" font-weight="600" opacity="0.9">v0.7.0 (2.92K ops/s)</text>
<circle cx="426.0" cy="112.0" r="3" fill="#3b82f6" stroke="white" stroke-width="1"/>
<text x="426.0" y="104.0" font-size="9" fill="#3b82f6" text-anchor="middle" font-family="system-ui, -apple-system, sans-serif" font-weight="600" opacity="0.9">v0.8.0 (2.24K ops/s)</text>
<circle cx="466.3" cy="110.4" r="3" fill="#3b82f6" stroke="white" stroke-width="1"/>
<text x="466.3" y="102.4" font-size="9" fill="#3b82f6" text-anchor="middle" font-family="system-ui, -apple-system, sans-serif" font-weight="600" opacity="0.9">v0.8.0</text>
<circle cx="506.7" cy="105.7" r="3" fill="#3b82f6" stroke="white" stroke-width="1"/>
<text x="506.7" y="97.7" font-size="9" fill="#3b82f6" text-anchor="middle" font-family="system-ui, -apple-system, sans-serif" font-weight="600" opacity="0.9">v0.8.0</text>
<circle cx="547.0" cy="109.5" r="3" fill="#3b82f6" stroke="white" stroke-width="1"/>
<text x="547.0" y="101.5" font-size="9" fill="#3b82f6" text-anchor="middle" font-family="system-ui, -apple-system, sans-serif" font-weight="600" opacity="0.9">v0.8.0</text>
</svg>