<svg width="615" height="120" viewBox="0 0 615 120" xmlns="http://www.w3.org/2000/svg">
<rect width="615" height="120" fill="transparent"/>
<line x1="63" y1="67.5" x2="547" y2="67.5" stroke="currentColor" stroke-width="0.5" opacity="0.2" stroke-dasharray="2,2"/>
<polyline fill="none" stroke="#3b82f6" stroke-width="2" points="48.0,111.6 97.6,111.2 132.1,109.5 166.7,109.4 201.3,106.7 235.9,109.6 270.4,110.2 305.0,111.6 339.6,98.8 374.1,111.8 408.7,111.9 443.3,110.8 477.9,112.0 512.4,35.9 547.0,23.0" stroke-linecap="round" stroke-linejoin="round"/>
<circle cx="48.0" cy="111.6" r="3" fill="#3b82f6" stroke="white" stroke-width="1"/>
<text x="48.0" y="103.6" font-size="9" fill="#3b82f6" text-anchor="middle" font-family="system-ui, -apple-system, sans-serif" font-weight="600" opacity="0.9">v0.4.1</text>
<circle cx="97.6" cy="111.2" r="3" fill="#3b82f6" stroke="white" stroke-width="1"/>
<text x="97.6" y="103.2" font-size="9" fill="#3b82f6" text-anchor="middle" font-family="system-ui, -apple-system, sans-serif" font-weight="600" opacity="0.9">v0.4.1</text>
<circle cx="132.1" cy="109.5" r="3" fill="#3b82f6" stroke="white" stroke-width="1"/>
<text x="132.1" y="101.5" font-size="9" fill="#3b82f6" text-anchor="middle" font-family="system-ui, -apple-system, sans-serif" font-weight="600" opacity="0.9">v0.5.0</text>
<circle cx="166.7" cy="109.4" r="3" fill="#3b82f6" stroke="white" stroke-width="1"/>
<text x="166.7" y="101.4" font-size="9" fill="#3b82f6" text-anchor="middle" font-family="system-ui, -apple-system, sans-serif" font-weight="600" opacity="0.9">v0.5.0</text>
<circle cx="201.3" cy="106.7" r="3" fill="#3b82f6" stroke="white" stroke-width="1"/>
<text x="201.3" y="98.7" font-size="9" fill="#3b82f6" text-anchor="middle" font-family="system-ui, -apple-system, sans-serif" font-weight="600" opacity="0.9">v0.6.0</text>
<circle cx="235.9" cy="109.6" r="3" fill="#3b82f6" stroke="white" stroke-width="1"/>
<text x="235.9" y="101.6" font-size="9" fill="#3b82f6" text-anchor="middle" font-family="system-ui, -apple-system, sans-serif" font-weight="600" opacity="0.9">v0.6.1</text>
<circle cx="270.4" cy="110.2" r="3" fill="#3b82f6" stroke="white" stroke-width="1"/>
<text x="270.4" y="102.2" font-size="9" fill="#3b82f6" text-anchor="middle" font-family="system-ui, -apple-system, sans-serif" font-weight="600" opacity="0.9">v0.7.0</text>
<circle cx="305.0" cy="111.6" r="3" fill="#3b82f6" stroke="white" stroke-width="1"/>
<text x="305.0" y="103.6" font-size="9" fill="#3b82f6" text-anchor="middle" font-family="system-ui, -apple-system, sans-serif" font-weight="600" opacity="0.9">v0.7.0</text>
<circle cx="339.6" cy="98.8" r="3" fill="#3b82f6" stroke="white" stroke-width="1"/>
<text x="339.6" y="90.8" font-size="9" fill="#3b82f6" text-anchor="middle" font-family="system-ui, -apple-system, sans-serif" font-weight="600" opacity="0.9">v0.7.0</text>
<circle cx="374.1" cy="111.8" r="3" fill="#3b82f6" stroke="white" stroke-width="1"/>
<text x="374.1" y="103.8" font-size="9" fill="#3b82f6" text-anchor="middle" font-family="system-ui, -apple-system, sans-serif" font-weight="600" opacity="0.9">v0.8.0</text>
<circle cx="408.7" cy="111.9" r="3" fill="#3b82f6" stroke="white" stroke-width="1"/>
<text x="408.7" y="103.9" font-size="9" fill="#3b82f6" text-anchor="middle" font-family="system-ui, -apple-system, sans-serif" font-weight="600" opacity="0.9">v0.8.0</text>
<circle cx="443.3" cy="110.8" r="3" fill="#3b82f6" stroke="white" stroke-width="1"/>
<text x="443.3" y="102.8" font-size="9" fill="#3b82f6" text-anchor="middle" font-family="system-ui, -apple-system, sans-serif" font-weight="600" opacity="0.9">v0.8.0</text>
<circle cx="477.9" cy="112.0" r="3" fill="#3b82f6" stroke="white" stroke-width="1"/>
<text x="477.9" y="104.0" font-size="9" fill="#3b82f6" text-anchor="middle" font-family="system-ui, -apple-system, sans-serif" font-weight="600" opacity="0.9">v0.8.0 (45.09K ops/s)</text>
<circle cx="512.4" cy="35.9" r="3" fill="#3b82f6" stroke="white" stroke-width="1"/>
<text x="512.4" y="27.9" font-size="9" fill="#3b82f6" text-anchor="middle" font-family="system-ui, -apple-system, sans-serif" font-weight="600" opacity="0.9">v0.8.0</text>
<circle cx="547.0" cy="23.0" r="3" fill="#3b82f6" stroke="white" stroke-width="1"/>
<text x="547.0" y="17.0" font-size="9" fill="#3b82f6" text-anchor="middle" font-family="system-ui, -apple-system, sans-serif" font-weight="600" opacity="0.9">v0.8.0 (139.82K ops/s)</text>
</svg>