<svg width="615" height="120" viewBox="0 0 615 120" xmlns="http://www.w3.org/2000/svg">
<rect width="615" height="120" fill="transparent"/>
<line x1="63" y1="67.5" x2="547" y2="67.5" stroke="currentColor" stroke-width="0.5" opacity="0.2" stroke-dasharray="2,2"/>
<polyline fill="none" stroke="#3b82f6" stroke-width="2" points="48.0,24.5 100.2,23.0 137.5,24.4 174.7,24.4 211.9,76.1 249.2,110.7 286.4,110.2 323.6,112.0 360.8,48.2 398.1,109.8 435.3,111.1 472.5,108.0 509.8,109.3 547.0,111.5" stroke-linecap="round" stroke-linejoin="round"/>
<circle cx="48.0" cy="24.5" r="3" fill="#3b82f6" stroke="white" stroke-width="1"/>
<text x="48.0" y="17.0" font-size="9" fill="#3b82f6" text-anchor="middle" font-family="system-ui, -apple-system, sans-serif" font-weight="600" opacity="0.9">v0.4.1</text>
<circle cx="100.2" cy="23.0" r="3" fill="#3b82f6" stroke="white" stroke-width="1"/>
<text x="100.2" y="17.0" font-size="9" fill="#3b82f6" text-anchor="middle" font-family="system-ui, -apple-system, sans-serif" font-weight="600" opacity="0.9">v0.4.1 (13.24K ops/s)</text>
<circle cx="137.5" cy="24.4" r="3" fill="#3b82f6" stroke="white" stroke-width="1"/>
<text x="137.5" y="17.0" font-size="9" fill="#3b82f6" text-anchor="middle" font-family="system-ui, -apple-system, sans-serif" font-weight="600" opacity="0.9">v0.5.0</text>
<circle cx="174.7" cy="24.4" r="3" fill="#3b82f6" stroke="white" stroke-width="1"/>
<text x="174.7" y="17.0" font-size="9" fill="#3b82f6" text-anchor="middle" font-family="system-ui, -apple-system, sans-serif" font-weight="600" opacity="0.9">v0.5.0</text>
<circle cx="211.9" cy="76.1" r="3" fill="#3b82f6" stroke="white" stroke-width="1"/>
<text x="211.9" y="68.1" font-size="9" fill="#3b82f6" text-anchor="middle" font-family="system-ui, -apple-system, sans-serif" font-weight="600" opacity="0.9">v0.6.0</text>
<circle cx="249.2" cy="110.7" r="3" fill="#3b82f6" stroke="white" stroke-width="1"/>
<text x="249.2" y="102.7" font-size="9" fill="#3b82f6" text-anchor="middle" font-family="system-ui, -apple-system, sans-serif" font-weight="600" opacity="0.9">v0.6.1</text>
<circle cx="286.4" cy="110.2" r="3" fill="#3b82f6" stroke="white" stroke-width="1"/>
<text x="286.4" y="102.2" font-size="9" fill="#3b82f6" text-anchor="middle" font-family="system-ui, -apple-system, sans-serif" font-weight="600" opacity="0.9">v0.7.0</text>
<circle cx="323.6" cy="112.0" r="3" fill="#3b82f6" stroke="white" stroke-width="1"/>
<text x="323.6" y="104.0" font-size="9" fill="#3b82f6" text-anchor="middle" font-family="system-ui, -apple-system, sans-serif" font-weight="600" opacity="0.9">v0.7.0 (9.16K ops/s)</text>
<circle cx="360.8" cy="48.2" r="3" fill="#3b82f6" stroke="white" stroke-width="1"/>
<text x="360.8" y="40.2" font-size="9" fill="#3b82f6" text-anchor="middle" font-family="system-ui, -apple-system, sans-serif" font-weight="600" opacity="0.9">v0.7.0</text>
<circle cx="398.1" cy="109.8" r="3" fill="#3b82f6" stroke="white" stroke-width="1"/>
<text x="398.1" y="101.8" font-size="9" fill="#3b82f6" text-anchor="middle" font-family="system-ui, -apple-system, sans-serif" font-weight="600" opacity="0.9">v0.8.0</text>
<circle cx="435.3" cy="111.1" r="3" fill="#3b82f6" stroke="white" stroke-width="1"/>
<text x="435.3" y="103.1" font-size="9" fill="#3b82f6" text-anchor="middle" font-family="system-ui, -apple-system, sans-serif" font-weight="600" opacity="0.9">v0.8.0</text>
<circle cx="472.5" cy="108.0" r="3" fill="#3b82f6" stroke="white" stroke-width="1"/>
<text x="472.5" y="100.0" font-size="9" fill="#3b82f6" text-anchor="middle" font-family="system-ui, -apple-system, sans-serif" font-weight="600" opacity="0.9">v0.8.0</text>
<circle cx="509.8" cy="109.3" r="3" fill="#3b82f6" stroke="white" stroke-width="1"/>
<text x="509.8" y="101.3" font-size="9" fill="#3b82f6" text-anchor="middle" font-family="system-ui, -apple-system, sans-serif" font-weight="600" opacity="0.9">v0.8.0</text>
<circle cx="547.0" cy="111.5" r="3" fill="#3b82f6" stroke="white" stroke-width="1"/>
<text x="547.0" y="103.5" font-size="9" fill="#3b82f6" text-anchor="middle" font-family="system-ui, -apple-system, sans-serif" font-weight="600" opacity="0.9">v0.8.0</text>
</svg>