<svg width="615" height="120" viewBox="0 0 615 120" xmlns="http://www.w3.org/2000/svg">
<rect width="615" height="120" fill="transparent"/>
<line x1="63" y1="67.5" x2="547" y2="67.5" stroke="currentColor" stroke-width="0.5" opacity="0.2" stroke-dasharray="2,2"/>
<polyline fill="none" stroke="#3b82f6" stroke-width="2" points="48.0,112.0 132.1,27.7 201.3,50.3 270.4,23.0 339.6,94.9 408.7,79.6 477.9,69.5 547.0,108.6" stroke-linecap="round" stroke-linejoin="round"/>
<circle cx="48.0" cy="112.0" r="3" fill="#3b82f6" stroke="white" stroke-width="1"/>
<text x="48.0" y="104.0" font-size="9" fill="#3b82f6" text-anchor="middle" font-family="system-ui, -apple-system, sans-serif" font-weight="600" opacity="0.9">v0.4.1 (14.5 ops/s)</text>
<circle cx="132.1" cy="27.7" r="3" fill="#3b82f6" stroke="white" stroke-width="1"/>
<text x="132.1" y="19.7" font-size="9" fill="#3b82f6" text-anchor="middle" font-family="system-ui, -apple-system, sans-serif" font-weight="600" opacity="0.9">v0.4.1</text>
<circle cx="201.3" cy="50.3" r="3" fill="#3b82f6" stroke="white" stroke-width="1"/>
<text x="201.3" y="42.3" font-size="9" fill="#3b82f6" text-anchor="middle" font-family="system-ui, -apple-system, sans-serif" font-weight="600" opacity="0.9">v0.5.0</text>
<circle cx="270.4" cy="23.0" r="3" fill="#3b82f6" stroke="white" stroke-width="1"/>
<text x="270.4" y="17.0" font-size="9" fill="#3b82f6" text-anchor="middle" font-family="system-ui, -apple-system, sans-serif" font-weight="600" opacity="0.9">v0.5.0 (16.6 ops/s)</text>
<circle cx="339.6" cy="94.9" r="3" fill="#3b82f6" stroke="white" stroke-width="1"/>
<text x="339.6" y="86.9" font-size="9" fill="#3b82f6" text-anchor="middle" font-family="system-ui, -apple-system, sans-serif" font-weight="600" opacity="0.9">v0.6.0</text>
<circle cx="408.7" cy="79.6" r="3" fill="#3b82f6" stroke="white" stroke-width="1"/>
<text x="408.7" y="71.6" font-size="9" fill="#3b82f6" text-anchor="middle" font-family="system-ui, -apple-system, sans-serif" font-weight="600" opacity="0.9">v0.6.1</text>
<circle cx="477.9" cy="69.5" r="3" fill="#3b82f6" stroke="white" stroke-width="1"/>
<text x="477.9" y="61.5" font-size="9" fill="#3b82f6" text-anchor="middle" font-family="system-ui, -apple-system, sans-serif" font-weight="600" opacity="0.9">v0.7.0</text>
<circle cx="547.0" cy="108.6" r="3" fill="#3b82f6" stroke="white" stroke-width="1"/>
<text x="547.0" y="100.6" font-size="9" fill="#3b82f6" text-anchor="middle" font-family="system-ui, -apple-system, sans-serif" font-weight="600" opacity="0.9">v0.7.0</text>
</svg>