<svg width="615" height="120" viewBox="0 0 615 120" xmlns="http://www.w3.org/2000/svg">
<rect width="615" height="120" fill="transparent"/>
<line x1="63" y1="67.5" x2="547" y2="67.5" stroke="currentColor" stroke-width="0.5" opacity="0.2" stroke-dasharray="2,2"/>
<polyline fill="none" stroke="#3b82f6" stroke-width="2" points="48.0,41.2 103.3,27.8 143.7,25.8 184.0,29.0 224.3,72.7 264.7,90.5 305.0,88.2 345.3,112.0 385.7,23.0 426.0,86.8 466.3,86.9 506.7,83.5 547.0,85.0" stroke-linecap="round" stroke-linejoin="round"/>
<circle cx="48.0" cy="41.2" r="3" fill="#3b82f6" stroke="white" stroke-width="1"/>
<text x="48.0" y="33.2" font-size="9" fill="#3b82f6" text-anchor="middle" font-family="system-ui, -apple-system, sans-serif" font-weight="600" opacity="0.9">v0.4.1</text>
<circle cx="103.3" cy="27.8" r="3" fill="#3b82f6" stroke="white" stroke-width="1"/>
<text x="103.3" y="19.8" font-size="9" fill="#3b82f6" text-anchor="middle" font-family="system-ui, -apple-system, sans-serif" font-weight="600" opacity="0.9">v0.4.1</text>
<circle cx="143.7" cy="25.8" r="3" fill="#3b82f6" stroke="white" stroke-width="1"/>
<text x="143.7" y="17.8" font-size="9" fill="#3b82f6" text-anchor="middle" font-family="system-ui, -apple-system, sans-serif" font-weight="600" opacity="0.9">v0.5.0</text>
<circle cx="184.0" cy="29.0" r="3" fill="#3b82f6" stroke="white" stroke-width="1"/>
<text x="184.0" y="21.0" font-size="9" fill="#3b82f6" text-anchor="middle" font-family="system-ui, -apple-system, sans-serif" font-weight="600" opacity="0.9">v0.5.0</text>
<circle cx="224.3" cy="72.7" r="3" fill="#3b82f6" stroke="white" stroke-width="1"/>
<text x="224.3" y="64.7" font-size="9" fill="#3b82f6" text-anchor="middle" font-family="system-ui, -apple-system, sans-serif" font-weight="600" opacity="0.9">v0.6.0</text>
<circle cx="264.7" cy="90.5" r="3" fill="#3b82f6" stroke="white" stroke-width="1"/>
<text x="264.7" y="82.5" font-size="9" fill="#3b82f6" text-anchor="middle" font-family="system-ui, -apple-system, sans-serif" font-weight="600" opacity="0.9">v0.6.1</text>
<circle cx="305.0" cy="88.2" r="3" fill="#3b82f6" stroke="white" stroke-width="1"/>
<text x="305.0" y="80.2" font-size="9" fill="#3b82f6" text-anchor="middle" font-family="system-ui, -apple-system, sans-serif" font-weight="600" opacity="0.9">v0.7.0</text>
<circle cx="345.3" cy="112.0" r="3" fill="#3b82f6" stroke="white" stroke-width="1"/>
<text x="345.3" y="104.0" font-size="9" fill="#3b82f6" text-anchor="middle" font-family="system-ui, -apple-system, sans-serif" font-weight="600" opacity="0.9">v0.7.0 (648.5 ops/s)</text>
<circle cx="385.7" cy="23.0" r="3" fill="#3b82f6" stroke="white" stroke-width="1"/>
<text x="385.7" y="17.0" font-size="9" fill="#3b82f6" text-anchor="middle" font-family="system-ui, -apple-system, sans-serif" font-weight="600" opacity="0.9">v0.7.0 (878.6 ops/s)</text>
<circle cx="426.0" cy="86.8" r="3" fill="#3b82f6" stroke="white" stroke-width="1"/>
<text x="426.0" y="78.8" font-size="9" fill="#3b82f6" text-anchor="middle" font-family="system-ui, -apple-system, sans-serif" font-weight="600" opacity="0.9">v0.8.0</text>
<circle cx="466.3" cy="86.9" r="3" fill="#3b82f6" stroke="white" stroke-width="1"/>
<text x="466.3" y="78.9" font-size="9" fill="#3b82f6" text-anchor="middle" font-family="system-ui, -apple-system, sans-serif" font-weight="600" opacity="0.9">v0.8.0</text>
<circle cx="506.7" cy="83.5" r="3" fill="#3b82f6" stroke="white" stroke-width="1"/>
<text x="506.7" y="75.5" font-size="9" fill="#3b82f6" text-anchor="middle" font-family="system-ui, -apple-system, sans-serif" font-weight="600" opacity="0.9">v0.8.0</text>
<circle cx="547.0" cy="85.0" r="3" fill="#3b82f6" stroke="white" stroke-width="1"/>
<text x="547.0" y="77.0" font-size="9" fill="#3b82f6" text-anchor="middle" font-family="system-ui, -apple-system, sans-serif" font-weight="600" opacity="0.9">v0.8.0</text>
</svg>