<svg width="615" height="120" viewBox="0 0 615 120" xmlns="http://www.w3.org/2000/svg">
<rect width="615" height="120" fill="transparent"/>
<line x1="63" y1="67.5" x2="547" y2="67.5" stroke="currentColor" stroke-width="0.5" opacity="0.2" stroke-dasharray="2,2"/>
<polyline fill="none" stroke="#3b82f6" stroke-width="2" points="48.0,67.3 93.2,57.7 123.5,53.2 153.8,57.3 184.0,75.7 214.2,97.0 244.5,100.4 274.8,87.7 305.0,23.0 335.2,90.2 365.5,89.4 395.8,88.1 426.0,89.1 456.2,112.0 486.5,89.5 516.8,90.2 547.0,91.3" stroke-linecap="round" stroke-linejoin="round"/>
<circle cx="48.0" cy="67.3" r="3" fill="#3b82f6" stroke="white" stroke-width="1"/>
<text x="48.0" y="59.3" font-size="9" fill="#3b82f6" text-anchor="middle" font-family="system-ui, -apple-system, sans-serif" font-weight="600" opacity="0.9">v0.4.1</text>
<circle cx="93.2" cy="57.7" r="3" fill="#3b82f6" stroke="white" stroke-width="1"/>
<text x="93.2" y="49.7" font-size="9" fill="#3b82f6" text-anchor="middle" font-family="system-ui, -apple-system, sans-serif" font-weight="600" opacity="0.9">v0.4.1</text>
<circle cx="123.5" cy="53.2" r="3" fill="#3b82f6" stroke="white" stroke-width="1"/>
<text x="123.5" y="45.2" font-size="9" fill="#3b82f6" text-anchor="middle" font-family="system-ui, -apple-system, sans-serif" font-weight="600" opacity="0.9">v0.5.0</text>
<circle cx="153.8" cy="57.3" r="3" fill="#3b82f6" stroke="white" stroke-width="1"/>
<text x="153.8" y="49.3" font-size="9" fill="#3b82f6" text-anchor="middle" font-family="system-ui, -apple-system, sans-serif" font-weight="600" opacity="0.9">v0.5.0</text>
<circle cx="184.0" cy="75.7" r="3" fill="#3b82f6" stroke="white" stroke-width="1"/>
<text x="184.0" y="67.7" font-size="9" fill="#3b82f6" text-anchor="middle" font-family="system-ui, -apple-system, sans-serif" font-weight="600" opacity="0.9">v0.6.0</text>
<circle cx="214.2" cy="97.0" r="3" fill="#3b82f6" stroke="white" stroke-width="1"/>
<text x="214.2" y="89.0" font-size="9" fill="#3b82f6" text-anchor="middle" font-family="system-ui, -apple-system, sans-serif" font-weight="600" opacity="0.9">v0.6.1</text>
<circle cx="244.5" cy="100.4" r="3" fill="#3b82f6" stroke="white" stroke-width="1"/>
<text x="244.5" y="92.4" font-size="9" fill="#3b82f6" text-anchor="middle" font-family="system-ui, -apple-system, sans-serif" font-weight="600" opacity="0.9">v0.7.0</text>
<circle cx="274.8" cy="87.7" r="3" fill="#3b82f6" stroke="white" stroke-width="1"/>
<text x="274.8" y="79.7" font-size="9" fill="#3b82f6" text-anchor="middle" font-family="system-ui, -apple-system, sans-serif" font-weight="600" opacity="0.9">v0.7.0</text>
<circle cx="305.0" cy="23.0" r="3" fill="#3b82f6" stroke="white" stroke-width="1"/>
<text x="305.0" y="17.0" font-size="9" fill="#3b82f6" text-anchor="middle" font-family="system-ui, -apple-system, sans-serif" font-weight="600" opacity="0.9">v0.7.0 (91.71K ops/s)</text>
<circle cx="335.2" cy="90.2" r="3" fill="#3b82f6" stroke="white" stroke-width="1"/>
<text x="335.2" y="82.2" font-size="9" fill="#3b82f6" text-anchor="middle" font-family="system-ui, -apple-system, sans-serif" font-weight="600" opacity="0.9">v0.8.0</text>
<circle cx="365.5" cy="89.4" r="3" fill="#3b82f6" stroke="white" stroke-width="1"/>
<text x="365.5" y="81.4" font-size="9" fill="#3b82f6" text-anchor="middle" font-family="system-ui, -apple-system, sans-serif" font-weight="600" opacity="0.9">v0.8.0</text>
<circle cx="395.8" cy="88.1" r="3" fill="#3b82f6" stroke="white" stroke-width="1"/>
<text x="395.8" y="80.1" font-size="9" fill="#3b82f6" text-anchor="middle" font-family="system-ui, -apple-system, sans-serif" font-weight="600" opacity="0.9">v0.8.0</text>
<circle cx="426.0" cy="89.1" r="3" fill="#3b82f6" stroke="white" stroke-width="1"/>
<text x="426.0" y="81.1" font-size="9" fill="#3b82f6" text-anchor="middle" font-family="system-ui, -apple-system, sans-serif" font-weight="600" opacity="0.9">v0.8.0</text>
<circle cx="456.2" cy="112.0" r="3" fill="#3b82f6" stroke="white" stroke-width="1"/>
<text x="456.2" y="104.0" font-size="9" fill="#3b82f6" text-anchor="middle" font-family="system-ui, -apple-system, sans-serif" font-weight="600" opacity="0.9">v0.8.0 (67.65K ops/s)</text>
<circle cx="486.5" cy="89.5" r="3" fill="#3b82f6" stroke="white" stroke-width="1"/>
<text x="486.5" y="81.5" font-size="9" fill="#3b82f6" text-anchor="middle" font-family="system-ui, -apple-system, sans-serif" font-weight="600" opacity="0.9">v0.8.0</text>
<circle cx="516.8" cy="90.2" r="3" fill="#3b82f6" stroke="white" stroke-width="1"/>
<text x="516.8" y="82.2" font-size="9" fill="#3b82f6" text-anchor="middle" font-family="system-ui, -apple-system, sans-serif" font-weight="600" opacity="0.9">v0.9.0</text>
<circle cx="547.0" cy="91.3" r="3" fill="#3b82f6" stroke="white" stroke-width="1"/>
<text x="547.0" y="83.3" font-size="9" fill="#3b82f6" text-anchor="middle" font-family="system-ui, -apple-system, sans-serif" font-weight="600" opacity="0.9">v0.9.0</text>
</svg>