<svg width="615" height="120" viewBox="0 0 615 120" xmlns="http://www.w3.org/2000/svg">
<rect width="615" height="120" fill="transparent"/>
<line x1="63" y1="67.5" x2="547" y2="67.5" stroke="currentColor" stroke-width="0.5" opacity="0.2" stroke-dasharray="2,2"/>
<polyline fill="none" stroke="#3b82f6" stroke-width="2" points="48.0,112.0 103.3,82.1 143.7,90.1 184.0,80.4 224.3,105.9 264.7,100.5 305.0,96.9 345.3,110.8 385.7,23.0 426.0,88.0 466.3,89.5 506.7,92.7 547.0,89.5" stroke-linecap="round" stroke-linejoin="round"/>
<circle cx="48.0" cy="112.0" r="3" fill="#3b82f6" stroke="white" stroke-width="1"/>
<text x="48.0" y="104.0" font-size="9" fill="#3b82f6" text-anchor="middle" font-family="system-ui, -apple-system, sans-serif" font-weight="600" opacity="0.9">v0.4.1 (14.5 ops/s)</text>
<circle cx="103.3" cy="82.1" r="3" fill="#3b82f6" stroke="white" stroke-width="1"/>
<text x="103.3" y="74.1" font-size="9" fill="#3b82f6" text-anchor="middle" font-family="system-ui, -apple-system, sans-serif" font-weight="600" opacity="0.9">v0.4.1</text>
<circle cx="143.7" cy="90.1" r="3" fill="#3b82f6" stroke="white" stroke-width="1"/>
<text x="143.7" y="82.1" font-size="9" fill="#3b82f6" text-anchor="middle" font-family="system-ui, -apple-system, sans-serif" font-weight="600" opacity="0.9">v0.5.0</text>
<circle cx="184.0" cy="80.4" r="3" fill="#3b82f6" stroke="white" stroke-width="1"/>
<text x="184.0" y="72.4" font-size="9" fill="#3b82f6" text-anchor="middle" font-family="system-ui, -apple-system, sans-serif" font-weight="600" opacity="0.9">v0.5.0</text>
<circle cx="224.3" cy="105.9" r="3" fill="#3b82f6" stroke="white" stroke-width="1"/>
<text x="224.3" y="97.9" font-size="9" fill="#3b82f6" text-anchor="middle" font-family="system-ui, -apple-system, sans-serif" font-weight="600" opacity="0.9">v0.6.0</text>
<circle cx="264.7" cy="100.5" r="3" fill="#3b82f6" stroke="white" stroke-width="1"/>
<text x="264.7" y="92.5" font-size="9" fill="#3b82f6" text-anchor="middle" font-family="system-ui, -apple-system, sans-serif" font-weight="600" opacity="0.9">v0.6.1</text>
<circle cx="305.0" cy="96.9" r="3" fill="#3b82f6" stroke="white" stroke-width="1"/>
<text x="305.0" y="88.9" font-size="9" fill="#3b82f6" text-anchor="middle" font-family="system-ui, -apple-system, sans-serif" font-weight="600" opacity="0.9">v0.7.0</text>
<circle cx="345.3" cy="110.8" r="3" fill="#3b82f6" stroke="white" stroke-width="1"/>
<text x="345.3" y="102.8" font-size="9" fill="#3b82f6" text-anchor="middle" font-family="system-ui, -apple-system, sans-serif" font-weight="600" opacity="0.9">v0.7.0</text>
<circle cx="385.7" cy="23.0" r="3" fill="#3b82f6" stroke="white" stroke-width="1"/>
<text x="385.7" y="17.0" font-size="9" fill="#3b82f6" text-anchor="middle" font-family="system-ui, -apple-system, sans-serif" font-weight="600" opacity="0.9">v0.7.0 (20.6 ops/s)</text>
<circle cx="426.0" cy="88.0" r="3" fill="#3b82f6" stroke="white" stroke-width="1"/>
<text x="426.0" y="80.0" font-size="9" fill="#3b82f6" text-anchor="middle" font-family="system-ui, -apple-system, sans-serif" font-weight="600" opacity="0.9">v0.8.0</text>
<circle cx="466.3" cy="89.5" r="3" fill="#3b82f6" stroke="white" stroke-width="1"/>
<text x="466.3" y="81.5" font-size="9" fill="#3b82f6" text-anchor="middle" font-family="system-ui, -apple-system, sans-serif" font-weight="600" opacity="0.9">v0.8.0</text>
<circle cx="506.7" cy="92.7" r="3" fill="#3b82f6" stroke="white" stroke-width="1"/>
<text x="506.7" y="84.7" font-size="9" fill="#3b82f6" text-anchor="middle" font-family="system-ui, -apple-system, sans-serif" font-weight="600" opacity="0.9">v0.8.0</text>
<circle cx="547.0" cy="89.5" r="3" fill="#3b82f6" stroke="white" stroke-width="1"/>
<text x="547.0" y="81.5" font-size="9" fill="#3b82f6" text-anchor="middle" font-family="system-ui, -apple-system, sans-serif" font-weight="600" opacity="0.9">v0.8.0</text>
</svg>