<svg width="615" height="120" viewBox="0 0 615 120" xmlns="http://www.w3.org/2000/svg">
<rect width="615" height="120" fill="transparent"/>
<line x1="63" y1="67.5" x2="547" y2="67.5" stroke="currentColor" stroke-width="0.5" opacity="0.2" stroke-dasharray="2,2"/>
<polyline fill="none" stroke="#3b82f6" stroke-width="2" points="48.0,111.6 91.5,111.2 119.9,109.5 148.4,109.4 176.9,106.7 205.4,109.6 233.8,110.2 262.3,111.6 290.8,98.8 319.2,111.8 347.7,111.9 376.2,110.8 404.6,112.0 433.1,35.9 461.6,23.0 490.1,40.8 518.5,24.1 547.0,36.9" stroke-linecap="round" stroke-linejoin="round"/>
<circle cx="48.0" cy="111.6" r="3" fill="#3b82f6" stroke="white" stroke-width="1"/>
<text x="48.0" y="103.6" font-size="9" fill="#3b82f6" text-anchor="middle" font-family="system-ui, -apple-system, sans-serif" font-weight="600" opacity="0.9">v0.4.1</text>
<circle cx="91.5" cy="111.2" r="3" fill="#3b82f6" stroke="white" stroke-width="1"/>
<text x="91.5" y="103.2" font-size="9" fill="#3b82f6" text-anchor="middle" font-family="system-ui, -apple-system, sans-serif" font-weight="600" opacity="0.9">v0.4.1</text>
<circle cx="119.9" cy="109.5" r="3" fill="#3b82f6" stroke="white" stroke-width="1"/>
<text x="119.9" y="101.5" font-size="9" fill="#3b82f6" text-anchor="middle" font-family="system-ui, -apple-system, sans-serif" font-weight="600" opacity="0.9">v0.5.0</text>
<circle cx="148.4" cy="109.4" r="3" fill="#3b82f6" stroke="white" stroke-width="1"/>
<text x="148.4" y="101.4" font-size="9" fill="#3b82f6" text-anchor="middle" font-family="system-ui, -apple-system, sans-serif" font-weight="600" opacity="0.9">v0.5.0</text>
<circle cx="176.9" cy="106.7" r="3" fill="#3b82f6" stroke="white" stroke-width="1"/>
<text x="176.9" y="98.7" font-size="9" fill="#3b82f6" text-anchor="middle" font-family="system-ui, -apple-system, sans-serif" font-weight="600" opacity="0.9">v0.6.0</text>
<circle cx="205.4" cy="109.6" r="3" fill="#3b82f6" stroke="white" stroke-width="1"/>
<text x="205.4" y="101.6" font-size="9" fill="#3b82f6" text-anchor="middle" font-family="system-ui, -apple-system, sans-serif" font-weight="600" opacity="0.9">v0.6.1</text>
<circle cx="233.8" cy="110.2" r="3" fill="#3b82f6" stroke="white" stroke-width="1"/>
<text x="233.8" y="102.2" font-size="9" fill="#3b82f6" text-anchor="middle" font-family="system-ui, -apple-system, sans-serif" font-weight="600" opacity="0.9">v0.7.0</text>
<circle cx="262.3" cy="111.6" r="3" fill="#3b82f6" stroke="white" stroke-width="1"/>
<text x="262.3" y="103.6" font-size="9" fill="#3b82f6" text-anchor="middle" font-family="system-ui, -apple-system, sans-serif" font-weight="600" opacity="0.9">v0.7.0</text>
<circle cx="290.8" cy="98.8" r="3" fill="#3b82f6" stroke="white" stroke-width="1"/>
<text x="290.8" y="90.8" font-size="9" fill="#3b82f6" text-anchor="middle" font-family="system-ui, -apple-system, sans-serif" font-weight="600" opacity="0.9">v0.7.0</text>
<circle cx="319.2" cy="111.8" r="3" fill="#3b82f6" stroke="white" stroke-width="1"/>
<text x="319.2" y="103.8" font-size="9" fill="#3b82f6" text-anchor="middle" font-family="system-ui, -apple-system, sans-serif" font-weight="600" opacity="0.9">v0.8.0</text>
<circle cx="347.7" cy="111.9" r="3" fill="#3b82f6" stroke="white" stroke-width="1"/>
<text x="347.7" y="103.9" font-size="9" fill="#3b82f6" text-anchor="middle" font-family="system-ui, -apple-system, sans-serif" font-weight="600" opacity="0.9">v0.8.0</text>
<circle cx="376.2" cy="110.8" r="3" fill="#3b82f6" stroke="white" stroke-width="1"/>
<text x="376.2" y="102.8" font-size="9" fill="#3b82f6" text-anchor="middle" font-family="system-ui, -apple-system, sans-serif" font-weight="600" opacity="0.9">v0.8.0</text>
<circle cx="404.6" cy="112.0" r="3" fill="#3b82f6" stroke="white" stroke-width="1"/>
<text x="404.6" y="104.0" font-size="9" fill="#3b82f6" text-anchor="middle" font-family="system-ui, -apple-system, sans-serif" font-weight="600" opacity="0.9">v0.8.0 (45.09K ops/s)</text>
<circle cx="433.1" cy="35.9" r="3" fill="#3b82f6" stroke="white" stroke-width="1"/>
<text x="433.1" y="27.9" font-size="9" fill="#3b82f6" text-anchor="middle" font-family="system-ui, -apple-system, sans-serif" font-weight="600" opacity="0.9">v0.8.0</text>
<circle cx="461.6" cy="23.0" r="3" fill="#3b82f6" stroke="white" stroke-width="1"/>
<text x="461.6" y="17.0" font-size="9" fill="#3b82f6" text-anchor="middle" font-family="system-ui, -apple-system, sans-serif" font-weight="600" opacity="0.9">v0.8.0 (139.82K ops/s)</text>
<circle cx="490.1" cy="40.8" r="3" fill="#3b82f6" stroke="white" stroke-width="1"/>
<text x="490.1" y="32.8" font-size="9" fill="#3b82f6" text-anchor="middle" font-family="system-ui, -apple-system, sans-serif" font-weight="600" opacity="0.9">v0.9.0</text>
<circle cx="518.5" cy="24.1" r="3" fill="#3b82f6" stroke="white" stroke-width="1"/>
<text x="518.5" y="17.0" font-size="9" fill="#3b82f6" text-anchor="middle" font-family="system-ui, -apple-system, sans-serif" font-weight="600" opacity="0.9">v0.9.0</text>
<circle cx="547.0" cy="36.9" r="3" fill="#3b82f6" stroke="white" stroke-width="1"/>
<text x="547.0" y="28.9" font-size="9" fill="#3b82f6" text-anchor="middle" font-family="system-ui, -apple-system, sans-serif" font-weight="600" opacity="0.9">v0.10.0</text>
</svg>