<svg width="615" height="120" viewBox="0 0 615 120" xmlns="http://www.w3.org/2000/svg">
<rect width="615" height="120" fill="transparent"/>
<line x1="63" y1="67.5" x2="547" y2="67.5" stroke="currentColor" stroke-width="0.5" opacity="0.2" stroke-dasharray="2,2"/>
<polyline fill="none" stroke="#3b82f6" stroke-width="2" points="48.0,111.6 95.3,111.2 127.5,109.5 159.8,109.4 192.1,106.7 224.3,109.6 256.6,110.2 288.9,111.6 321.1,98.8 353.4,111.8 385.7,111.9 417.9,110.8 450.2,112.0 482.5,35.9 514.7,23.0 547.0,40.8" stroke-linecap="round" stroke-linejoin="round"/>
<circle cx="48.0" cy="111.6" r="3" fill="#3b82f6" stroke="white" stroke-width="1"/>
<text x="48.0" y="103.6" font-size="9" fill="#3b82f6" text-anchor="middle" font-family="system-ui, -apple-system, sans-serif" font-weight="600" opacity="0.9">v0.4.1</text>
<circle cx="95.3" cy="111.2" r="3" fill="#3b82f6" stroke="white" stroke-width="1"/>
<text x="95.3" y="103.2" font-size="9" fill="#3b82f6" text-anchor="middle" font-family="system-ui, -apple-system, sans-serif" font-weight="600" opacity="0.9">v0.4.1</text>
<circle cx="127.5" cy="109.5" r="3" fill="#3b82f6" stroke="white" stroke-width="1"/>
<text x="127.5" y="101.5" font-size="9" fill="#3b82f6" text-anchor="middle" font-family="system-ui, -apple-system, sans-serif" font-weight="600" opacity="0.9">v0.5.0</text>
<circle cx="159.8" cy="109.4" r="3" fill="#3b82f6" stroke="white" stroke-width="1"/>
<text x="159.8" y="101.4" font-size="9" fill="#3b82f6" text-anchor="middle" font-family="system-ui, -apple-system, sans-serif" font-weight="600" opacity="0.9">v0.5.0</text>
<circle cx="192.1" cy="106.7" r="3" fill="#3b82f6" stroke="white" stroke-width="1"/>
<text x="192.1" y="98.7" font-size="9" fill="#3b82f6" text-anchor="middle" font-family="system-ui, -apple-system, sans-serif" font-weight="600" opacity="0.9">v0.6.0</text>
<circle cx="224.3" cy="109.6" r="3" fill="#3b82f6" stroke="white" stroke-width="1"/>
<text x="224.3" y="101.6" font-size="9" fill="#3b82f6" text-anchor="middle" font-family="system-ui, -apple-system, sans-serif" font-weight="600" opacity="0.9">v0.6.1</text>
<circle cx="256.6" cy="110.2" r="3" fill="#3b82f6" stroke="white" stroke-width="1"/>
<text x="256.6" y="102.2" font-size="9" fill="#3b82f6" text-anchor="middle" font-family="system-ui, -apple-system, sans-serif" font-weight="600" opacity="0.9">v0.7.0</text>
<circle cx="288.9" cy="111.6" r="3" fill="#3b82f6" stroke="white" stroke-width="1"/>
<text x="288.9" y="103.6" font-size="9" fill="#3b82f6" text-anchor="middle" font-family="system-ui, -apple-system, sans-serif" font-weight="600" opacity="0.9">v0.7.0</text>
<circle cx="321.1" cy="98.8" r="3" fill="#3b82f6" stroke="white" stroke-width="1"/>
<text x="321.1" y="90.8" font-size="9" fill="#3b82f6" text-anchor="middle" font-family="system-ui, -apple-system, sans-serif" font-weight="600" opacity="0.9">v0.7.0</text>
<circle cx="353.4" cy="111.8" r="3" fill="#3b82f6" stroke="white" stroke-width="1"/>
<text x="353.4" y="103.8" font-size="9" fill="#3b82f6" text-anchor="middle" font-family="system-ui, -apple-system, sans-serif" font-weight="600" opacity="0.9">v0.8.0</text>
<circle cx="385.7" cy="111.9" r="3" fill="#3b82f6" stroke="white" stroke-width="1"/>
<text x="385.7" y="103.9" font-size="9" fill="#3b82f6" text-anchor="middle" font-family="system-ui, -apple-system, sans-serif" font-weight="600" opacity="0.9">v0.8.0</text>
<circle cx="417.9" cy="110.8" r="3" fill="#3b82f6" stroke="white" stroke-width="1"/>
<text x="417.9" y="102.8" font-size="9" fill="#3b82f6" text-anchor="middle" font-family="system-ui, -apple-system, sans-serif" font-weight="600" opacity="0.9">v0.8.0</text>
<circle cx="450.2" cy="112.0" r="3" fill="#3b82f6" stroke="white" stroke-width="1"/>
<text x="450.2" y="104.0" font-size="9" fill="#3b82f6" text-anchor="middle" font-family="system-ui, -apple-system, sans-serif" font-weight="600" opacity="0.9">v0.8.0 (45.09K ops/s)</text>
<circle cx="482.5" cy="35.9" r="3" fill="#3b82f6" stroke="white" stroke-width="1"/>
<text x="482.5" y="27.9" font-size="9" fill="#3b82f6" text-anchor="middle" font-family="system-ui, -apple-system, sans-serif" font-weight="600" opacity="0.9">v0.8.0</text>
<circle cx="514.7" cy="23.0" r="3" fill="#3b82f6" stroke="white" stroke-width="1"/>
<text x="514.7" y="17.0" font-size="9" fill="#3b82f6" text-anchor="middle" font-family="system-ui, -apple-system, sans-serif" font-weight="600" opacity="0.9">v0.8.0 (139.82K ops/s)</text>
<circle cx="547.0" cy="40.8" r="3" fill="#3b82f6" stroke="white" stroke-width="1"/>
<text x="547.0" y="32.8" font-size="9" fill="#3b82f6" text-anchor="middle" font-family="system-ui, -apple-system, sans-serif" font-weight="600" opacity="0.9">v0.9.0</text>
</svg>