<svg width="755" height="120" viewBox="0 0 755 120" xmlns="http://www.w3.org/2000/svg">
<rect width="755" height="120" fill="transparent"/>
<line x1="63" y1="67.5" x2="547" y2="67.5" stroke="currentColor" stroke-width="0.5" opacity="0.2" stroke-dasharray="2,2"/>
<polyline fill="none" stroke="#3b82f6" stroke-width="2" points="48.0,67.3 100.2,57.7 137.5,53.2 174.7,57.3 211.9,75.7 249.2,97.0 286.4,100.4 323.6,87.7 360.8,23.0 398.1,90.2 435.3,89.4 472.5,88.1 509.8,89.1 547.0,112.0" stroke-linecap="round" stroke-linejoin="round"/>
<circle cx="48.0" cy="67.3" r="3" fill="#3b82f6" stroke="white" stroke-width="1"/>
<text x="48.0" y="59.3" font-size="9" fill="#3b82f6" text-anchor="middle" font-family="system-ui, -apple-system, sans-serif" font-weight="600" opacity="0.9">v0.4.1</text>
<circle cx="100.2" cy="57.7" r="3" fill="#3b82f6" stroke="white" stroke-width="1"/>
<text x="100.2" y="49.7" font-size="9" fill="#3b82f6" text-anchor="middle" font-family="system-ui, -apple-system, sans-serif" font-weight="600" opacity="0.9">v0.4.1</text>
<circle cx="137.5" cy="53.2" r="3" fill="#3b82f6" stroke="white" stroke-width="1"/>
<text x="137.5" y="45.2" font-size="9" fill="#3b82f6" text-anchor="middle" font-family="system-ui, -apple-system, sans-serif" font-weight="600" opacity="0.9">v0.5.0</text>
<circle cx="174.7" cy="57.3" r="3" fill="#3b82f6" stroke="white" stroke-width="1"/>
<text x="174.7" y="49.3" font-size="9" fill="#3b82f6" text-anchor="middle" font-family="system-ui, -apple-system, sans-serif" font-weight="600" opacity="0.9">v0.5.0</text>
<circle cx="211.9" cy="75.7" r="3" fill="#3b82f6" stroke="white" stroke-width="1"/>
<text x="211.9" y="67.7" font-size="9" fill="#3b82f6" text-anchor="middle" font-family="system-ui, -apple-system, sans-serif" font-weight="600" opacity="0.9">v0.6.0</text>
<circle cx="249.2" cy="97.0" r="3" fill="#3b82f6" stroke="white" stroke-width="1"/>
<text x="249.2" y="89.0" font-size="9" fill="#3b82f6" text-anchor="middle" font-family="system-ui, -apple-system, sans-serif" font-weight="600" opacity="0.9">v0.6.1</text>
<circle cx="286.4" cy="100.4" r="3" fill="#3b82f6" stroke="white" stroke-width="1"/>
<text x="286.4" y="92.4" font-size="9" fill="#3b82f6" text-anchor="middle" font-family="system-ui, -apple-system, sans-serif" font-weight="600" opacity="0.9">v0.7.0</text>
<circle cx="323.6" cy="87.7" r="3" fill="#3b82f6" stroke="white" stroke-width="1"/>
<text x="323.6" y="79.7" font-size="9" fill="#3b82f6" text-anchor="middle" font-family="system-ui, -apple-system, sans-serif" font-weight="600" opacity="0.9">v0.7.0</text>
<circle cx="360.8" cy="23.0" r="3" fill="#3b82f6" stroke="white" stroke-width="1"/>
<text x="360.8" y="17.0" font-size="9" fill="#3b82f6" text-anchor="middle" font-family="system-ui, -apple-system, sans-serif" font-weight="600" opacity="0.9">v0.7.0 (91.71K ops/s)</text>
<circle cx="398.1" cy="90.2" r="3" fill="#3b82f6" stroke="white" stroke-width="1"/>
<text x="398.1" y="82.2" font-size="9" fill="#3b82f6" text-anchor="middle" font-family="system-ui, -apple-system, sans-serif" font-weight="600" opacity="0.9">v0.8.0</text>
<circle cx="435.3" cy="89.4" r="3" fill="#3b82f6" stroke="white" stroke-width="1"/>
<text x="435.3" y="81.4" font-size="9" fill="#3b82f6" text-anchor="middle" font-family="system-ui, -apple-system, sans-serif" font-weight="600" opacity="0.9">v0.8.0</text>
<circle cx="472.5" cy="88.1" r="3" fill="#3b82f6" stroke="white" stroke-width="1"/>
<text x="472.5" y="80.1" font-size="9" fill="#3b82f6" text-anchor="middle" font-family="system-ui, -apple-system, sans-serif" font-weight="600" opacity="0.9">v0.8.0</text>
<circle cx="509.8" cy="89.1" r="3" fill="#3b82f6" stroke="white" stroke-width="1"/>
<text x="509.8" y="81.1" font-size="9" fill="#3b82f6" text-anchor="middle" font-family="system-ui, -apple-system, sans-serif" font-weight="600" opacity="0.9">v0.8.0</text>
<circle cx="547.0" cy="112.0" r="3" fill="#3b82f6" stroke="white" stroke-width="1"/>
<text x="547.0" y="104.0" font-size="9" fill="#3b82f6" text-anchor="middle" font-family="system-ui, -apple-system, sans-serif" font-weight="600" opacity="0.9">v0.8.0 (67.65K ops/s)</text>
</svg>