<svg width="615" height="120" viewBox="0 0 615 120" xmlns="http://www.w3.org/2000/svg">
<rect width="615" height="120" fill="transparent"/>
<line x1="63" y1="67.5" x2="547" y2="67.5" stroke="currentColor" stroke-width="0.5" opacity="0.2" stroke-dasharray="2,2"/>
<polyline fill="none" stroke="#3b82f6" stroke-width="2" points="48.0,69.8 95.3,56.1 127.5,55.9 159.8,58.0 192.1,65.6 224.3,105.8 256.6,103.4 288.9,95.6 321.1,23.0 353.4,96.3 385.7,96.2 417.9,104.5 450.2,97.1 482.5,112.0 514.7,103.6 547.0,93.2" stroke-linecap="round" stroke-linejoin="round"/>
<circle cx="48.0" cy="69.8" r="3" fill="#3b82f6" stroke="white" stroke-width="1"/>
<text x="48.0" y="61.8" font-size="9" fill="#3b82f6" text-anchor="middle" font-family="system-ui, -apple-system, sans-serif" font-weight="600" opacity="0.9">v0.4.1</text>
<circle cx="95.3" cy="56.1" r="3" fill="#3b82f6" stroke="white" stroke-width="1"/>
<text x="95.3" y="48.1" font-size="9" fill="#3b82f6" text-anchor="middle" font-family="system-ui, -apple-system, sans-serif" font-weight="600" opacity="0.9">v0.4.1</text>
<circle cx="127.5" cy="55.9" r="3" fill="#3b82f6" stroke="white" stroke-width="1"/>
<text x="127.5" y="47.9" font-size="9" fill="#3b82f6" text-anchor="middle" font-family="system-ui, -apple-system, sans-serif" font-weight="600" opacity="0.9">v0.5.0</text>
<circle cx="159.8" cy="58.0" r="3" fill="#3b82f6" stroke="white" stroke-width="1"/>
<text x="159.8" y="50.0" font-size="9" fill="#3b82f6" text-anchor="middle" font-family="system-ui, -apple-system, sans-serif" font-weight="600" opacity="0.9">v0.5.0</text>
<circle cx="192.1" cy="65.6" r="3" fill="#3b82f6" stroke="white" stroke-width="1"/>
<text x="192.1" y="57.6" font-size="9" fill="#3b82f6" text-anchor="middle" font-family="system-ui, -apple-system, sans-serif" font-weight="600" opacity="0.9">v0.6.0</text>
<circle cx="224.3" cy="105.8" r="3" fill="#3b82f6" stroke="white" stroke-width="1"/>
<text x="224.3" y="97.8" font-size="9" fill="#3b82f6" text-anchor="middle" font-family="system-ui, -apple-system, sans-serif" font-weight="600" opacity="0.9">v0.6.1</text>
<circle cx="256.6" cy="103.4" r="3" fill="#3b82f6" stroke="white" stroke-width="1"/>
<text x="256.6" y="95.4" font-size="9" fill="#3b82f6" text-anchor="middle" font-family="system-ui, -apple-system, sans-serif" font-weight="600" opacity="0.9">v0.7.0</text>
<circle cx="288.9" cy="95.6" r="3" fill="#3b82f6" stroke="white" stroke-width="1"/>
<text x="288.9" y="87.6" font-size="9" fill="#3b82f6" text-anchor="middle" font-family="system-ui, -apple-system, sans-serif" font-weight="600" opacity="0.9">v0.7.0</text>
<circle cx="321.1" cy="23.0" r="3" fill="#3b82f6" stroke="white" stroke-width="1"/>
<text x="321.1" y="17.0" font-size="9" fill="#3b82f6" text-anchor="middle" font-family="system-ui, -apple-system, sans-serif" font-weight="600" opacity="0.9">v0.7.0 (984.3 ops/s)</text>
<circle cx="353.4" cy="96.3" r="3" fill="#3b82f6" stroke="white" stroke-width="1"/>
<text x="353.4" y="88.3" font-size="9" fill="#3b82f6" text-anchor="middle" font-family="system-ui, -apple-system, sans-serif" font-weight="600" opacity="0.9">v0.8.0</text>
<circle cx="385.7" cy="96.2" r="3" fill="#3b82f6" stroke="white" stroke-width="1"/>
<text x="385.7" y="88.2" font-size="9" fill="#3b82f6" text-anchor="middle" font-family="system-ui, -apple-system, sans-serif" font-weight="600" opacity="0.9">v0.8.0</text>
<circle cx="417.9" cy="104.5" r="3" fill="#3b82f6" stroke="white" stroke-width="1"/>
<text x="417.9" y="96.5" font-size="9" fill="#3b82f6" text-anchor="middle" font-family="system-ui, -apple-system, sans-serif" font-weight="600" opacity="0.9">v0.8.0</text>
<circle cx="450.2" cy="97.1" r="3" fill="#3b82f6" stroke="white" stroke-width="1"/>
<text x="450.2" y="89.1" font-size="9" fill="#3b82f6" text-anchor="middle" font-family="system-ui, -apple-system, sans-serif" font-weight="600" opacity="0.9">v0.8.0</text>
<circle cx="482.5" cy="112.0" r="3" fill="#3b82f6" stroke="white" stroke-width="1"/>
<text x="482.5" y="104.0" font-size="9" fill="#3b82f6" text-anchor="middle" font-family="system-ui, -apple-system, sans-serif" font-weight="600" opacity="0.9">v0.8.0 (747.3 ops/s)</text>
<circle cx="514.7" cy="103.6" r="3" fill="#3b82f6" stroke="white" stroke-width="1"/>
<text x="514.7" y="95.6" font-size="9" fill="#3b82f6" text-anchor="middle" font-family="system-ui, -apple-system, sans-serif" font-weight="600" opacity="0.9">v0.8.0</text>
<circle cx="547.0" cy="93.2" r="3" fill="#3b82f6" stroke="white" stroke-width="1"/>
<text x="547.0" y="85.2" font-size="9" fill="#3b82f6" text-anchor="middle" font-family="system-ui, -apple-system, sans-serif" font-weight="600" opacity="0.9">v0.9.0</text>
</svg>