<svg width="615" height="120" viewBox="0 0 615 120" xmlns="http://www.w3.org/2000/svg">
<rect width="615" height="120" fill="transparent"/>
<line x1="63" y1="67.5" x2="547" y2="67.5" stroke="currentColor" stroke-width="0.5" opacity="0.2" stroke-dasharray="2,2"/>
<polyline fill="none" stroke="#3b82f6" stroke-width="2" points="48.0,93.5 103.3,74.0 143.7,71.8 184.0,68.2 224.3,81.9 264.7,112.0 305.0,104.3 345.3,109.8 385.7,23.0 426.0,110.9 466.3,108.6 506.7,107.9 547.0,105.5" stroke-linecap="round" stroke-linejoin="round"/>
<circle cx="48.0" cy="93.5" r="3" fill="#3b82f6" stroke="white" stroke-width="1"/>
<text x="48.0" y="85.5" font-size="9" fill="#3b82f6" text-anchor="middle" font-family="system-ui, -apple-system, sans-serif" font-weight="600" opacity="0.9">v0.4.1</text>
<circle cx="103.3" cy="74.0" r="3" fill="#3b82f6" stroke="white" stroke-width="1"/>
<text x="103.3" y="66.0" font-size="9" fill="#3b82f6" text-anchor="middle" font-family="system-ui, -apple-system, sans-serif" font-weight="600" opacity="0.9">v0.4.1</text>
<circle cx="143.7" cy="71.8" r="3" fill="#3b82f6" stroke="white" stroke-width="1"/>
<text x="143.7" y="63.8" font-size="9" fill="#3b82f6" text-anchor="middle" font-family="system-ui, -apple-system, sans-serif" font-weight="600" opacity="0.9">v0.5.0</text>
<circle cx="184.0" cy="68.2" r="3" fill="#3b82f6" stroke="white" stroke-width="1"/>
<text x="184.0" y="60.2" font-size="9" fill="#3b82f6" text-anchor="middle" font-family="system-ui, -apple-system, sans-serif" font-weight="600" opacity="0.9">v0.5.0</text>
<circle cx="224.3" cy="81.9" r="3" fill="#3b82f6" stroke="white" stroke-width="1"/>
<text x="224.3" y="73.9" font-size="9" fill="#3b82f6" text-anchor="middle" font-family="system-ui, -apple-system, sans-serif" font-weight="600" opacity="0.9">v0.6.0</text>
<circle cx="264.7" cy="112.0" r="3" fill="#3b82f6" stroke="white" stroke-width="1"/>
<text x="264.7" y="104.0" font-size="9" fill="#3b82f6" text-anchor="middle" font-family="system-ui, -apple-system, sans-serif" font-weight="600" opacity="0.9">v0.6.1 (258.4 ops/s)</text>
<circle cx="305.0" cy="104.3" r="3" fill="#3b82f6" stroke="white" stroke-width="1"/>
<text x="305.0" y="96.3" font-size="9" fill="#3b82f6" text-anchor="middle" font-family="system-ui, -apple-system, sans-serif" font-weight="600" opacity="0.9">v0.7.0</text>
<circle cx="345.3" cy="109.8" r="3" fill="#3b82f6" stroke="white" stroke-width="1"/>
<text x="345.3" y="101.8" font-size="9" fill="#3b82f6" text-anchor="middle" font-family="system-ui, -apple-system, sans-serif" font-weight="600" opacity="0.9">v0.7.0</text>
<circle cx="385.7" cy="23.0" r="3" fill="#3b82f6" stroke="white" stroke-width="1"/>
<text x="385.7" y="17.0" font-size="9" fill="#3b82f6" text-anchor="middle" font-family="system-ui, -apple-system, sans-serif" font-weight="600" opacity="0.9">v0.7.0 (337.5 ops/s)</text>
<circle cx="426.0" cy="110.9" r="3" fill="#3b82f6" stroke="white" stroke-width="1"/>
<text x="426.0" y="102.9" font-size="9" fill="#3b82f6" text-anchor="middle" font-family="system-ui, -apple-system, sans-serif" font-weight="600" opacity="0.9">v0.8.0</text>
<circle cx="466.3" cy="108.6" r="3" fill="#3b82f6" stroke="white" stroke-width="1"/>
<text x="466.3" y="100.6" font-size="9" fill="#3b82f6" text-anchor="middle" font-family="system-ui, -apple-system, sans-serif" font-weight="600" opacity="0.9">v0.8.0</text>
<circle cx="506.7" cy="107.9" r="3" fill="#3b82f6" stroke="white" stroke-width="1"/>
<text x="506.7" y="99.9" font-size="9" fill="#3b82f6" text-anchor="middle" font-family="system-ui, -apple-system, sans-serif" font-weight="600" opacity="0.9">v0.8.0</text>
<circle cx="547.0" cy="105.5" r="3" fill="#3b82f6" stroke="white" stroke-width="1"/>
<text x="547.0" y="97.5" font-size="9" fill="#3b82f6" text-anchor="middle" font-family="system-ui, -apple-system, sans-serif" font-weight="600" opacity="0.9">v0.8.0</text>
</svg>