<svg width="615" height="120" viewBox="0 0 615 120" xmlns="http://www.w3.org/2000/svg">
<rect width="615" height="120" fill="transparent"/>
<line x1="63" y1="67.5" x2="547" y2="67.5" stroke="currentColor" stroke-width="0.5" opacity="0.2" stroke-dasharray="2,2"/>
<polyline fill="none" stroke="#3b82f6" stroke-width="2" points="48.0,24.5 93.2,23.0 123.5,24.4 153.8,24.4 184.0,76.1 214.2,110.7 244.5,110.2 274.8,112.0 305.0,48.2 335.2,109.8 365.5,111.1 395.8,108.0 426.0,109.3 456.2,111.5 486.5,107.4 516.8,109.8 547.0,109.4" stroke-linecap="round" stroke-linejoin="round"/>
<circle cx="48.0" cy="24.5" r="3" fill="#3b82f6" stroke="white" stroke-width="1"/>
<text x="48.0" y="17.0" font-size="9" fill="#3b82f6" text-anchor="middle" font-family="system-ui, -apple-system, sans-serif" font-weight="600" opacity="0.9">v0.4.1</text>
<circle cx="93.2" cy="23.0" r="3" fill="#3b82f6" stroke="white" stroke-width="1"/>
<text x="93.2" y="17.0" font-size="9" fill="#3b82f6" text-anchor="middle" font-family="system-ui, -apple-system, sans-serif" font-weight="600" opacity="0.9">v0.4.1 (13.24K ops/s)</text>
<circle cx="123.5" cy="24.4" r="3" fill="#3b82f6" stroke="white" stroke-width="1"/>
<text x="123.5" y="17.0" font-size="9" fill="#3b82f6" text-anchor="middle" font-family="system-ui, -apple-system, sans-serif" font-weight="600" opacity="0.9">v0.5.0</text>
<circle cx="153.8" cy="24.4" r="3" fill="#3b82f6" stroke="white" stroke-width="1"/>
<text x="153.8" y="17.0" font-size="9" fill="#3b82f6" text-anchor="middle" font-family="system-ui, -apple-system, sans-serif" font-weight="600" opacity="0.9">v0.5.0</text>
<circle cx="184.0" cy="76.1" r="3" fill="#3b82f6" stroke="white" stroke-width="1"/>
<text x="184.0" y="68.1" font-size="9" fill="#3b82f6" text-anchor="middle" font-family="system-ui, -apple-system, sans-serif" font-weight="600" opacity="0.9">v0.6.0</text>
<circle cx="214.2" cy="110.7" r="3" fill="#3b82f6" stroke="white" stroke-width="1"/>
<text x="214.2" y="102.7" font-size="9" fill="#3b82f6" text-anchor="middle" font-family="system-ui, -apple-system, sans-serif" font-weight="600" opacity="0.9">v0.6.1</text>
<circle cx="244.5" cy="110.2" r="3" fill="#3b82f6" stroke="white" stroke-width="1"/>
<text x="244.5" y="102.2" font-size="9" fill="#3b82f6" text-anchor="middle" font-family="system-ui, -apple-system, sans-serif" font-weight="600" opacity="0.9">v0.7.0</text>
<circle cx="274.8" cy="112.0" r="3" fill="#3b82f6" stroke="white" stroke-width="1"/>
<text x="274.8" y="104.0" font-size="9" fill="#3b82f6" text-anchor="middle" font-family="system-ui, -apple-system, sans-serif" font-weight="600" opacity="0.9">v0.7.0 (9.16K ops/s)</text>
<circle cx="305.0" cy="48.2" r="3" fill="#3b82f6" stroke="white" stroke-width="1"/>
<text x="305.0" y="40.2" font-size="9" fill="#3b82f6" text-anchor="middle" font-family="system-ui, -apple-system, sans-serif" font-weight="600" opacity="0.9">v0.7.0</text>
<circle cx="335.2" cy="109.8" r="3" fill="#3b82f6" stroke="white" stroke-width="1"/>
<text x="335.2" y="101.8" font-size="9" fill="#3b82f6" text-anchor="middle" font-family="system-ui, -apple-system, sans-serif" font-weight="600" opacity="0.9">v0.8.0</text>
<circle cx="365.5" cy="111.1" r="3" fill="#3b82f6" stroke="white" stroke-width="1"/>
<text x="365.5" y="103.1" font-size="9" fill="#3b82f6" text-anchor="middle" font-family="system-ui, -apple-system, sans-serif" font-weight="600" opacity="0.9">v0.8.0</text>
<circle cx="395.8" cy="108.0" r="3" fill="#3b82f6" stroke="white" stroke-width="1"/>
<text x="395.8" y="100.0" font-size="9" fill="#3b82f6" text-anchor="middle" font-family="system-ui, -apple-system, sans-serif" font-weight="600" opacity="0.9">v0.8.0</text>
<circle cx="426.0" cy="109.3" r="3" fill="#3b82f6" stroke="white" stroke-width="1"/>
<text x="426.0" y="101.3" font-size="9" fill="#3b82f6" text-anchor="middle" font-family="system-ui, -apple-system, sans-serif" font-weight="600" opacity="0.9">v0.8.0</text>
<circle cx="456.2" cy="111.5" r="3" fill="#3b82f6" stroke="white" stroke-width="1"/>
<text x="456.2" y="103.5" font-size="9" fill="#3b82f6" text-anchor="middle" font-family="system-ui, -apple-system, sans-serif" font-weight="600" opacity="0.9">v0.8.0</text>
<circle cx="486.5" cy="107.4" r="3" fill="#3b82f6" stroke="white" stroke-width="1"/>
<text x="486.5" y="99.4" font-size="9" fill="#3b82f6" text-anchor="middle" font-family="system-ui, -apple-system, sans-serif" font-weight="600" opacity="0.9">v0.8.0</text>
<circle cx="516.8" cy="109.8" r="3" fill="#3b82f6" stroke="white" stroke-width="1"/>
<text x="516.8" y="101.8" font-size="9" fill="#3b82f6" text-anchor="middle" font-family="system-ui, -apple-system, sans-serif" font-weight="600" opacity="0.9">v0.9.0</text>
<circle cx="547.0" cy="109.4" r="3" fill="#3b82f6" stroke="white" stroke-width="1"/>
<text x="547.0" y="101.4" font-size="9" fill="#3b82f6" text-anchor="middle" font-family="system-ui, -apple-system, sans-serif" font-weight="600" opacity="0.9">v0.9.0</text>
</svg>