<svg width="615" height="120" viewBox="0 0 615 120" xmlns="http://www.w3.org/2000/svg">
<rect width="615" height="120" fill="transparent"/>
<line x1="63" y1="67.5" x2="547" y2="67.5" stroke="currentColor" stroke-width="0.5" opacity="0.2" stroke-dasharray="2,2"/>
<polyline fill="none" stroke="#3b82f6" stroke-width="2" points="48.0,41.2 95.3,27.8 127.5,25.8 159.8,29.0 192.1,72.7 224.3,90.5 256.6,88.2 288.9,112.0 321.1,23.0 353.4,86.8 385.7,86.9 417.9,83.5 450.2,85.0 482.5,86.1 514.7,89.9 547.0,87.1" stroke-linecap="round" stroke-linejoin="round"/>
<circle cx="48.0" cy="41.2" r="3" fill="#3b82f6" stroke="white" stroke-width="1"/>
<text x="48.0" y="33.2" font-size="9" fill="#3b82f6" text-anchor="middle" font-family="system-ui, -apple-system, sans-serif" font-weight="600" opacity="0.9">v0.4.1</text>
<circle cx="95.3" cy="27.8" r="3" fill="#3b82f6" stroke="white" stroke-width="1"/>
<text x="95.3" y="19.8" font-size="9" fill="#3b82f6" text-anchor="middle" font-family="system-ui, -apple-system, sans-serif" font-weight="600" opacity="0.9">v0.4.1</text>
<circle cx="127.5" cy="25.8" r="3" fill="#3b82f6" stroke="white" stroke-width="1"/>
<text x="127.5" y="17.8" font-size="9" fill="#3b82f6" text-anchor="middle" font-family="system-ui, -apple-system, sans-serif" font-weight="600" opacity="0.9">v0.5.0</text>
<circle cx="159.8" cy="29.0" r="3" fill="#3b82f6" stroke="white" stroke-width="1"/>
<text x="159.8" y="21.0" font-size="9" fill="#3b82f6" text-anchor="middle" font-family="system-ui, -apple-system, sans-serif" font-weight="600" opacity="0.9">v0.5.0</text>
<circle cx="192.1" cy="72.7" r="3" fill="#3b82f6" stroke="white" stroke-width="1"/>
<text x="192.1" y="64.7" font-size="9" fill="#3b82f6" text-anchor="middle" font-family="system-ui, -apple-system, sans-serif" font-weight="600" opacity="0.9">v0.6.0</text>
<circle cx="224.3" cy="90.5" r="3" fill="#3b82f6" stroke="white" stroke-width="1"/>
<text x="224.3" y="82.5" font-size="9" fill="#3b82f6" text-anchor="middle" font-family="system-ui, -apple-system, sans-serif" font-weight="600" opacity="0.9">v0.6.1</text>
<circle cx="256.6" cy="88.2" r="3" fill="#3b82f6" stroke="white" stroke-width="1"/>
<text x="256.6" y="80.2" font-size="9" fill="#3b82f6" text-anchor="middle" font-family="system-ui, -apple-system, sans-serif" font-weight="600" opacity="0.9">v0.7.0</text>
<circle cx="288.9" cy="112.0" r="3" fill="#3b82f6" stroke="white" stroke-width="1"/>
<text x="288.9" y="104.0" font-size="9" fill="#3b82f6" text-anchor="middle" font-family="system-ui, -apple-system, sans-serif" font-weight="600" opacity="0.9">v0.7.0 (648.5 ops/s)</text>
<circle cx="321.1" cy="23.0" r="3" fill="#3b82f6" stroke="white" stroke-width="1"/>
<text x="321.1" y="17.0" font-size="9" fill="#3b82f6" text-anchor="middle" font-family="system-ui, -apple-system, sans-serif" font-weight="600" opacity="0.9">v0.7.0 (878.6 ops/s)</text>
<circle cx="353.4" cy="86.8" r="3" fill="#3b82f6" stroke="white" stroke-width="1"/>
<text x="353.4" y="78.8" font-size="9" fill="#3b82f6" text-anchor="middle" font-family="system-ui, -apple-system, sans-serif" font-weight="600" opacity="0.9">v0.8.0</text>
<circle cx="385.7" cy="86.9" r="3" fill="#3b82f6" stroke="white" stroke-width="1"/>
<text x="385.7" y="78.9" font-size="9" fill="#3b82f6" text-anchor="middle" font-family="system-ui, -apple-system, sans-serif" font-weight="600" opacity="0.9">v0.8.0</text>
<circle cx="417.9" cy="83.5" r="3" fill="#3b82f6" stroke="white" stroke-width="1"/>
<text x="417.9" y="75.5" font-size="9" fill="#3b82f6" text-anchor="middle" font-family="system-ui, -apple-system, sans-serif" font-weight="600" opacity="0.9">v0.8.0</text>
<circle cx="450.2" cy="85.0" r="3" fill="#3b82f6" stroke="white" stroke-width="1"/>
<text x="450.2" y="77.0" font-size="9" fill="#3b82f6" text-anchor="middle" font-family="system-ui, -apple-system, sans-serif" font-weight="600" opacity="0.9">v0.8.0</text>
<circle cx="482.5" cy="86.1" r="3" fill="#3b82f6" stroke="white" stroke-width="1"/>
<text x="482.5" y="78.1" font-size="9" fill="#3b82f6" text-anchor="middle" font-family="system-ui, -apple-system, sans-serif" font-weight="600" opacity="0.9">v0.8.0</text>
<circle cx="514.7" cy="89.9" r="3" fill="#3b82f6" stroke="white" stroke-width="1"/>
<text x="514.7" y="81.9" font-size="9" fill="#3b82f6" text-anchor="middle" font-family="system-ui, -apple-system, sans-serif" font-weight="600" opacity="0.9">v0.8.0</text>
<circle cx="547.0" cy="87.1" r="3" fill="#3b82f6" stroke="white" stroke-width="1"/>
<text x="547.0" y="79.1" font-size="9" fill="#3b82f6" text-anchor="middle" font-family="system-ui, -apple-system, sans-serif" font-weight="600" opacity="0.9">v0.9.0</text>
</svg>