<svg width="615" height="120" viewBox="0 0 615 120" xmlns="http://www.w3.org/2000/svg">
<rect width="615" height="120" fill="transparent"/>
<line x1="63" y1="67.5" x2="547" y2="67.5" stroke="currentColor" stroke-width="0.5" opacity="0.2" stroke-dasharray="2,2"/>
<polyline fill="none" stroke="#3b82f6" stroke-width="2" points="48.0,24.6 93.2,26.0 123.5,26.7 153.8,30.5 184.0,93.6 214.2,110.3 244.5,111.2 274.8,111.2 305.0,23.0 335.2,104.5 365.5,104.4 395.8,111.3 426.0,110.3 456.2,112.0 486.5,109.0 516.8,110.4 547.0,109.0" stroke-linecap="round" stroke-linejoin="round"/>
<circle cx="48.0" cy="24.6" r="3" fill="#3b82f6" stroke="white" stroke-width="1"/>
<text x="48.0" y="17.0" font-size="9" fill="#3b82f6" text-anchor="middle" font-family="system-ui, -apple-system, sans-serif" font-weight="600" opacity="0.9">v0.4.1</text>
<circle cx="93.2" cy="26.0" r="3" fill="#3b82f6" stroke="white" stroke-width="1"/>
<text x="93.2" y="18.0" font-size="9" fill="#3b82f6" text-anchor="middle" font-family="system-ui, -apple-system, sans-serif" font-weight="600" opacity="0.9">v0.4.1</text>
<circle cx="123.5" cy="26.7" r="3" fill="#3b82f6" stroke="white" stroke-width="1"/>
<text x="123.5" y="18.7" font-size="9" fill="#3b82f6" text-anchor="middle" font-family="system-ui, -apple-system, sans-serif" font-weight="600" opacity="0.9">v0.5.0</text>
<circle cx="153.8" cy="30.5" r="3" fill="#3b82f6" stroke="white" stroke-width="1"/>
<text x="153.8" y="22.5" font-size="9" fill="#3b82f6" text-anchor="middle" font-family="system-ui, -apple-system, sans-serif" font-weight="600" opacity="0.9">v0.5.0</text>
<circle cx="184.0" cy="93.6" r="3" fill="#3b82f6" stroke="white" stroke-width="1"/>
<text x="184.0" y="85.6" font-size="9" fill="#3b82f6" text-anchor="middle" font-family="system-ui, -apple-system, sans-serif" font-weight="600" opacity="0.9">v0.6.0</text>
<circle cx="214.2" cy="110.3" r="3" fill="#3b82f6" stroke="white" stroke-width="1"/>
<text x="214.2" y="102.3" font-size="9" fill="#3b82f6" text-anchor="middle" font-family="system-ui, -apple-system, sans-serif" font-weight="600" opacity="0.9">v0.6.1</text>
<circle cx="244.5" cy="111.2" r="3" fill="#3b82f6" stroke="white" stroke-width="1"/>
<text x="244.5" y="103.2" font-size="9" fill="#3b82f6" text-anchor="middle" font-family="system-ui, -apple-system, sans-serif" font-weight="600" opacity="0.9">v0.7.0</text>
<circle cx="274.8" cy="111.2" r="3" fill="#3b82f6" stroke="white" stroke-width="1"/>
<text x="274.8" y="103.2" font-size="9" fill="#3b82f6" text-anchor="middle" font-family="system-ui, -apple-system, sans-serif" font-weight="600" opacity="0.9">v0.7.0</text>
<circle cx="305.0" cy="23.0" r="3" fill="#3b82f6" stroke="white" stroke-width="1"/>
<text x="305.0" y="17.0" font-size="9" fill="#3b82f6" text-anchor="middle" font-family="system-ui, -apple-system, sans-serif" font-weight="600" opacity="0.9">v0.7.0 (1.36K ops/s)</text>
<circle cx="335.2" cy="104.5" r="3" fill="#3b82f6" stroke="white" stroke-width="1"/>
<text x="335.2" y="96.5" font-size="9" fill="#3b82f6" text-anchor="middle" font-family="system-ui, -apple-system, sans-serif" font-weight="600" opacity="0.9">v0.8.0</text>
<circle cx="365.5" cy="104.4" r="3" fill="#3b82f6" stroke="white" stroke-width="1"/>
<text x="365.5" y="96.4" font-size="9" fill="#3b82f6" text-anchor="middle" font-family="system-ui, -apple-system, sans-serif" font-weight="600" opacity="0.9">v0.8.0</text>
<circle cx="395.8" cy="111.3" r="3" fill="#3b82f6" stroke="white" stroke-width="1"/>
<text x="395.8" y="103.3" font-size="9" fill="#3b82f6" text-anchor="middle" font-family="system-ui, -apple-system, sans-serif" font-weight="600" opacity="0.9">v0.8.0</text>
<circle cx="426.0" cy="110.3" r="3" fill="#3b82f6" stroke="white" stroke-width="1"/>
<text x="426.0" y="102.3" font-size="9" fill="#3b82f6" text-anchor="middle" font-family="system-ui, -apple-system, sans-serif" font-weight="600" opacity="0.9">v0.8.0</text>
<circle cx="456.2" cy="112.0" r="3" fill="#3b82f6" stroke="white" stroke-width="1"/>
<text x="456.2" y="104.0" font-size="9" fill="#3b82f6" text-anchor="middle" font-family="system-ui, -apple-system, sans-serif" font-weight="600" opacity="0.9">v0.8.0 (1.05K ops/s)</text>
<circle cx="486.5" cy="109.0" r="3" fill="#3b82f6" stroke="white" stroke-width="1"/>
<text x="486.5" y="101.0" font-size="9" fill="#3b82f6" text-anchor="middle" font-family="system-ui, -apple-system, sans-serif" font-weight="600" opacity="0.9">v0.8.0</text>
<circle cx="516.8" cy="110.4" r="3" fill="#3b82f6" stroke="white" stroke-width="1"/>
<text x="516.8" y="102.4" font-size="9" fill="#3b82f6" text-anchor="middle" font-family="system-ui, -apple-system, sans-serif" font-weight="600" opacity="0.9">v0.9.0</text>
<circle cx="547.0" cy="109.0" r="3" fill="#3b82f6" stroke="white" stroke-width="1"/>
<text x="547.0" y="101.0" font-size="9" fill="#3b82f6" text-anchor="middle" font-family="system-ui, -apple-system, sans-serif" font-weight="600" opacity="0.9">v0.9.0</text>
</svg>