<svg width="615" height="120" viewBox="0 0 615 120" xmlns="http://www.w3.org/2000/svg">
<rect width="615" height="120" fill="transparent"/>
<line x1="63" y1="67.5" x2="547" y2="67.5" stroke="currentColor" stroke-width="0.5" opacity="0.2" stroke-dasharray="2,2"/>
<polyline fill="none" stroke="#3b82f6" stroke-width="2" points="48.0,112.0 100.2,78.6 137.5,71.3 174.7,72.8 211.9,83.2 249.2,102.0 286.4,91.0 323.6,98.3 360.8,23.0 398.1,94.9 435.3,97.7 472.5,91.2 509.8,98.2 547.0,98.8" stroke-linecap="round" stroke-linejoin="round"/>
<circle cx="48.0" cy="112.0" r="3" fill="#3b82f6" stroke="white" stroke-width="1"/>
<text x="48.0" y="104.0" font-size="9" fill="#3b82f6" text-anchor="middle" font-family="system-ui, -apple-system, sans-serif" font-weight="600" opacity="0.9">v0.4.1 (170.9 ops/s)</text>
<circle cx="100.2" cy="78.6" r="3" fill="#3b82f6" stroke="white" stroke-width="1"/>
<text x="100.2" y="70.6" font-size="9" fill="#3b82f6" text-anchor="middle" font-family="system-ui, -apple-system, sans-serif" font-weight="600" opacity="0.9">v0.4.1</text>
<circle cx="137.5" cy="71.3" r="3" fill="#3b82f6" stroke="white" stroke-width="1"/>
<text x="137.5" y="63.3" font-size="9" fill="#3b82f6" text-anchor="middle" font-family="system-ui, -apple-system, sans-serif" font-weight="600" opacity="0.9">v0.5.0</text>
<circle cx="174.7" cy="72.8" r="3" fill="#3b82f6" stroke="white" stroke-width="1"/>
<text x="174.7" y="64.8" font-size="9" fill="#3b82f6" text-anchor="middle" font-family="system-ui, -apple-system, sans-serif" font-weight="600" opacity="0.9">v0.5.0</text>
<circle cx="211.9" cy="83.2" r="3" fill="#3b82f6" stroke="white" stroke-width="1"/>
<text x="211.9" y="75.2" font-size="9" fill="#3b82f6" text-anchor="middle" font-family="system-ui, -apple-system, sans-serif" font-weight="600" opacity="0.9">v0.6.0</text>
<circle cx="249.2" cy="102.0" r="3" fill="#3b82f6" stroke="white" stroke-width="1"/>
<text x="249.2" y="94.0" font-size="9" fill="#3b82f6" text-anchor="middle" font-family="system-ui, -apple-system, sans-serif" font-weight="600" opacity="0.9">v0.6.1</text>
<circle cx="286.4" cy="91.0" r="3" fill="#3b82f6" stroke="white" stroke-width="1"/>
<text x="286.4" y="83.0" font-size="9" fill="#3b82f6" text-anchor="middle" font-family="system-ui, -apple-system, sans-serif" font-weight="600" opacity="0.9">v0.7.0</text>
<circle cx="323.6" cy="98.3" r="3" fill="#3b82f6" stroke="white" stroke-width="1"/>
<text x="323.6" y="90.3" font-size="9" fill="#3b82f6" text-anchor="middle" font-family="system-ui, -apple-system, sans-serif" font-weight="600" opacity="0.9">v0.7.0</text>
<circle cx="360.8" cy="23.0" r="3" fill="#3b82f6" stroke="white" stroke-width="1"/>
<text x="360.8" y="17.0" font-size="9" fill="#3b82f6" text-anchor="middle" font-family="system-ui, -apple-system, sans-serif" font-weight="600" opacity="0.9">v0.7.0 (238.2 ops/s)</text>
<circle cx="398.1" cy="94.9" r="3" fill="#3b82f6" stroke="white" stroke-width="1"/>
<text x="398.1" y="86.9" font-size="9" fill="#3b82f6" text-anchor="middle" font-family="system-ui, -apple-system, sans-serif" font-weight="600" opacity="0.9">v0.8.0</text>
<circle cx="435.3" cy="97.7" r="3" fill="#3b82f6" stroke="white" stroke-width="1"/>
<text x="435.3" y="89.7" font-size="9" fill="#3b82f6" text-anchor="middle" font-family="system-ui, -apple-system, sans-serif" font-weight="600" opacity="0.9">v0.8.0</text>
<circle cx="472.5" cy="91.2" r="3" fill="#3b82f6" stroke="white" stroke-width="1"/>
<text x="472.5" y="83.2" font-size="9" fill="#3b82f6" text-anchor="middle" font-family="system-ui, -apple-system, sans-serif" font-weight="600" opacity="0.9">v0.8.0</text>
<circle cx="509.8" cy="98.2" r="3" fill="#3b82f6" stroke="white" stroke-width="1"/>
<text x="509.8" y="90.2" font-size="9" fill="#3b82f6" text-anchor="middle" font-family="system-ui, -apple-system, sans-serif" font-weight="600" opacity="0.9">v0.8.0</text>
<circle cx="547.0" cy="98.8" r="3" fill="#3b82f6" stroke="white" stroke-width="1"/>
<text x="547.0" y="90.8" font-size="9" fill="#3b82f6" text-anchor="middle" font-family="system-ui, -apple-system, sans-serif" font-weight="600" opacity="0.9">v0.8.0</text>
</svg>