<svg width="685" height="120" viewBox="0 0 685 120" xmlns="http://www.w3.org/2000/svg">
<rect width="685" height="120" fill="transparent"/>
<line x1="133" y1="67.5" x2="617" y2="67.5" stroke="currentColor" stroke-width="0.5" opacity="0.2" stroke-dasharray="2,2"/>
<polyline fill="none" stroke="#3b82f6" stroke-width="2" points="118.0,23.0 202.1,24.4 271.3,25.1 340.4,29.0 409.6,93.9 478.7,111.0 547.9,112.0 617.0,112.0" stroke-linecap="round" stroke-linejoin="round"/>
<circle cx="118.0" cy="23.0" r="3" fill="#3b82f6" stroke="white" stroke-width="1"/>
<text x="118.0" y="17.0" font-size="9" fill="#3b82f6" text-anchor="middle" font-family="system-ui, -apple-system, sans-serif" font-weight="600" opacity="0.9">v0.4.1 (1.36K ops/s)</text>
<circle cx="202.1" cy="24.4" r="3" fill="#3b82f6" stroke="white" stroke-width="1"/>
<text x="202.1" y="17.0" font-size="9" fill="#3b82f6" text-anchor="middle" font-family="system-ui, -apple-system, sans-serif" font-weight="600" opacity="0.9">v0.4.1</text>
<circle cx="271.3" cy="25.1" r="3" fill="#3b82f6" stroke="white" stroke-width="1"/>
<text x="271.3" y="17.1" font-size="9" fill="#3b82f6" text-anchor="middle" font-family="system-ui, -apple-system, sans-serif" font-weight="600" opacity="0.9">v0.5.0</text>
<circle cx="340.4" cy="29.0" r="3" fill="#3b82f6" stroke="white" stroke-width="1"/>
<text x="340.4" y="21.0" font-size="9" fill="#3b82f6" text-anchor="middle" font-family="system-ui, -apple-system, sans-serif" font-weight="600" opacity="0.9">v0.5.0</text>
<circle cx="409.6" cy="93.9" r="3" fill="#3b82f6" stroke="white" stroke-width="1"/>
<text x="409.6" y="85.9" font-size="9" fill="#3b82f6" text-anchor="middle" font-family="system-ui, -apple-system, sans-serif" font-weight="600" opacity="0.9">v0.6.0</text>
<circle cx="478.7" cy="111.0" r="3" fill="#3b82f6" stroke="white" stroke-width="1"/>
<text x="478.7" y="103.0" font-size="9" fill="#3b82f6" text-anchor="middle" font-family="system-ui, -apple-system, sans-serif" font-weight="600" opacity="0.9">v0.6.1</text>
<circle cx="547.9" cy="112.0" r="3" fill="#3b82f6" stroke="white" stroke-width="1"/>
<text x="547.9" y="104.0" font-size="9" fill="#3b82f6" text-anchor="middle" font-family="system-ui, -apple-system, sans-serif" font-weight="600" opacity="0.9">v0.7.0 (1.06K ops/s)</text>
<circle cx="617.0" cy="112.0" r="3" fill="#3b82f6" stroke="white" stroke-width="1"/>
<text x="617.0" y="104.0" font-size="9" fill="#3b82f6" text-anchor="middle" font-family="system-ui, -apple-system, sans-serif" font-weight="600" opacity="0.9">v0.7.0</text>
</svg>