<svg width="615" height="120" viewBox="0 0 615 120" xmlns="http://www.w3.org/2000/svg">
<rect width="615" height="120" fill="transparent"/>
<line x1="63" y1="67.5" x2="547" y2="67.5" stroke="currentColor" stroke-width="0.5" opacity="0.2" stroke-dasharray="2,2"/>
<polyline fill="none" stroke="#3b82f6" stroke-width="2" points="48.0,81.7 91.5,81.2 119.9,85.9 148.4,81.6 176.9,98.9 205.4,105.7 233.8,112.0 262.3,100.1 290.8,23.0 319.2,68.7 347.7,69.6 376.2,67.7 404.6,62.5 433.1,67.3 461.6,67.1 490.1,68.2 518.5,66.7 547.0,103.0" stroke-linecap="round" stroke-linejoin="round"/>
<circle cx="48.0" cy="81.7" r="3" fill="#3b82f6" stroke="white" stroke-width="1"/>
<text x="48.0" y="73.7" font-size="9" fill="#3b82f6" text-anchor="middle" font-family="system-ui, -apple-system, sans-serif" font-weight="600" opacity="0.9">v0.4.1</text>
<circle cx="91.5" cy="81.2" r="3" fill="#3b82f6" stroke="white" stroke-width="1"/>
<text x="91.5" y="73.2" font-size="9" fill="#3b82f6" text-anchor="middle" font-family="system-ui, -apple-system, sans-serif" font-weight="600" opacity="0.9">v0.4.1</text>
<circle cx="119.9" cy="85.9" r="3" fill="#3b82f6" stroke="white" stroke-width="1"/>
<text x="119.9" y="77.9" font-size="9" fill="#3b82f6" text-anchor="middle" font-family="system-ui, -apple-system, sans-serif" font-weight="600" opacity="0.9">v0.5.0</text>
<circle cx="148.4" cy="81.6" r="3" fill="#3b82f6" stroke="white" stroke-width="1"/>
<text x="148.4" y="73.6" font-size="9" fill="#3b82f6" text-anchor="middle" font-family="system-ui, -apple-system, sans-serif" font-weight="600" opacity="0.9">v0.5.0</text>
<circle cx="176.9" cy="98.9" r="3" fill="#3b82f6" stroke="white" stroke-width="1"/>
<text x="176.9" y="90.9" font-size="9" fill="#3b82f6" text-anchor="middle" font-family="system-ui, -apple-system, sans-serif" font-weight="600" opacity="0.9">v0.6.0</text>
<circle cx="205.4" cy="105.7" r="3" fill="#3b82f6" stroke="white" stroke-width="1"/>
<text x="205.4" y="97.7" font-size="9" fill="#3b82f6" text-anchor="middle" font-family="system-ui, -apple-system, sans-serif" font-weight="600" opacity="0.9">v0.6.1</text>
<circle cx="233.8" cy="112.0" r="3" fill="#3b82f6" stroke="white" stroke-width="1"/>
<text x="233.8" y="104.0" font-size="9" fill="#3b82f6" text-anchor="middle" font-family="system-ui, -apple-system, sans-serif" font-weight="600" opacity="0.9">v0.7.0 (86.8 ops/s)</text>
<circle cx="262.3" cy="100.1" r="3" fill="#3b82f6" stroke="white" stroke-width="1"/>
<text x="262.3" y="92.1" font-size="9" fill="#3b82f6" text-anchor="middle" font-family="system-ui, -apple-system, sans-serif" font-weight="600" opacity="0.9">v0.7.0</text>
<circle cx="290.8" cy="23.0" r="3" fill="#3b82f6" stroke="white" stroke-width="1"/>
<text x="290.8" y="17.0" font-size="9" fill="#3b82f6" text-anchor="middle" font-family="system-ui, -apple-system, sans-serif" font-weight="600" opacity="0.9">v0.7.0 (157.8 ops/s)</text>
<circle cx="319.2" cy="68.7" r="3" fill="#3b82f6" stroke="white" stroke-width="1"/>
<text x="319.2" y="60.7" font-size="9" fill="#3b82f6" text-anchor="middle" font-family="system-ui, -apple-system, sans-serif" font-weight="600" opacity="0.9">v0.8.0</text>
<circle cx="347.7" cy="69.6" r="3" fill="#3b82f6" stroke="white" stroke-width="1"/>
<text x="347.7" y="61.6" font-size="9" fill="#3b82f6" text-anchor="middle" font-family="system-ui, -apple-system, sans-serif" font-weight="600" opacity="0.9">v0.8.0</text>
<circle cx="376.2" cy="67.7" r="3" fill="#3b82f6" stroke="white" stroke-width="1"/>
<text x="376.2" y="59.7" font-size="9" fill="#3b82f6" text-anchor="middle" font-family="system-ui, -apple-system, sans-serif" font-weight="600" opacity="0.9">v0.8.0</text>
<circle cx="404.6" cy="62.5" r="3" fill="#3b82f6" stroke="white" stroke-width="1"/>
<text x="404.6" y="54.5" font-size="9" fill="#3b82f6" text-anchor="middle" font-family="system-ui, -apple-system, sans-serif" font-weight="600" opacity="0.9">v0.8.0</text>
<circle cx="433.1" cy="67.3" r="3" fill="#3b82f6" stroke="white" stroke-width="1"/>
<text x="433.1" y="59.3" font-size="9" fill="#3b82f6" text-anchor="middle" font-family="system-ui, -apple-system, sans-serif" font-weight="600" opacity="0.9">v0.8.0</text>
<circle cx="461.6" cy="67.1" r="3" fill="#3b82f6" stroke="white" stroke-width="1"/>
<text x="461.6" y="59.1" font-size="9" fill="#3b82f6" text-anchor="middle" font-family="system-ui, -apple-system, sans-serif" font-weight="600" opacity="0.9">v0.8.0</text>
<circle cx="490.1" cy="68.2" r="3" fill="#3b82f6" stroke="white" stroke-width="1"/>
<text x="490.1" y="60.2" font-size="9" fill="#3b82f6" text-anchor="middle" font-family="system-ui, -apple-system, sans-serif" font-weight="600" opacity="0.9">v0.9.0</text>
<circle cx="518.5" cy="66.7" r="3" fill="#3b82f6" stroke="white" stroke-width="1"/>
<text x="518.5" y="58.7" font-size="9" fill="#3b82f6" text-anchor="middle" font-family="system-ui, -apple-system, sans-serif" font-weight="600" opacity="0.9">v0.9.0</text>
<circle cx="547.0" cy="103.0" r="3" fill="#3b82f6" stroke="white" stroke-width="1"/>
<text x="547.0" y="95.0" font-size="9" fill="#3b82f6" text-anchor="middle" font-family="system-ui, -apple-system, sans-serif" font-weight="600" opacity="0.9">v0.10.0</text>
</svg>