<svg width="615" height="120" viewBox="0 0 615 120" xmlns="http://www.w3.org/2000/svg">
<rect width="615" height="120" fill="transparent"/>
<line x1="63" y1="67.5" x2="547" y2="67.5" stroke="currentColor" stroke-width="0.5" opacity="0.2" stroke-dasharray="2,2"/>
<polyline fill="none" stroke="#3b82f6" stroke-width="2" points="48.0,48.8 97.6,35.4 132.1,28.6 166.7,29.1 201.3,58.9 235.9,104.9 270.4,108.0 305.0,107.2 339.6,23.0 374.1,92.1 408.7,92.2 443.3,104.2 477.9,90.3 512.4,112.0 547.0,101.6" stroke-linecap="round" stroke-linejoin="round"/>
<circle cx="48.0" cy="48.8" r="3" fill="#3b82f6" stroke="white" stroke-width="1"/>
<text x="48.0" y="40.8" font-size="9" fill="#3b82f6" text-anchor="middle" font-family="system-ui, -apple-system, sans-serif" font-weight="600" opacity="0.9">v0.4.1</text>
<circle cx="97.6" cy="35.4" r="3" fill="#3b82f6" stroke="white" stroke-width="1"/>
<text x="97.6" y="27.4" font-size="9" fill="#3b82f6" text-anchor="middle" font-family="system-ui, -apple-system, sans-serif" font-weight="600" opacity="0.9">v0.4.1</text>
<circle cx="132.1" cy="28.6" r="3" fill="#3b82f6" stroke="white" stroke-width="1"/>
<text x="132.1" y="20.6" font-size="9" fill="#3b82f6" text-anchor="middle" font-family="system-ui, -apple-system, sans-serif" font-weight="600" opacity="0.9">v0.5.0</text>
<circle cx="166.7" cy="29.1" r="3" fill="#3b82f6" stroke="white" stroke-width="1"/>
<text x="166.7" y="21.1" font-size="9" fill="#3b82f6" text-anchor="middle" font-family="system-ui, -apple-system, sans-serif" font-weight="600" opacity="0.9">v0.5.0</text>
<circle cx="201.3" cy="58.9" r="3" fill="#3b82f6" stroke="white" stroke-width="1"/>
<text x="201.3" y="50.9" font-size="9" fill="#3b82f6" text-anchor="middle" font-family="system-ui, -apple-system, sans-serif" font-weight="600" opacity="0.9">v0.6.0</text>
<circle cx="235.9" cy="104.9" r="3" fill="#3b82f6" stroke="white" stroke-width="1"/>
<text x="235.9" y="96.9" font-size="9" fill="#3b82f6" text-anchor="middle" font-family="system-ui, -apple-system, sans-serif" font-weight="600" opacity="0.9">v0.6.1</text>
<circle cx="270.4" cy="108.0" r="3" fill="#3b82f6" stroke="white" stroke-width="1"/>
<text x="270.4" y="100.0" font-size="9" fill="#3b82f6" text-anchor="middle" font-family="system-ui, -apple-system, sans-serif" font-weight="600" opacity="0.9">v0.7.0</text>
<circle cx="305.0" cy="107.2" r="3" fill="#3b82f6" stroke="white" stroke-width="1"/>
<text x="305.0" y="99.2" font-size="9" fill="#3b82f6" text-anchor="middle" font-family="system-ui, -apple-system, sans-serif" font-weight="600" opacity="0.9">v0.7.0</text>
<circle cx="339.6" cy="23.0" r="3" fill="#3b82f6" stroke="white" stroke-width="1"/>
<text x="339.6" y="17.0" font-size="9" fill="#3b82f6" text-anchor="middle" font-family="system-ui, -apple-system, sans-serif" font-weight="600" opacity="0.9">v0.7.0 (9.10K ops/s)</text>
<circle cx="374.1" cy="92.1" r="3" fill="#3b82f6" stroke="white" stroke-width="1"/>
<text x="374.1" y="84.1" font-size="9" fill="#3b82f6" text-anchor="middle" font-family="system-ui, -apple-system, sans-serif" font-weight="600" opacity="0.9">v0.8.0</text>
<circle cx="408.7" cy="92.2" r="3" fill="#3b82f6" stroke="white" stroke-width="1"/>
<text x="408.7" y="84.2" font-size="9" fill="#3b82f6" text-anchor="middle" font-family="system-ui, -apple-system, sans-serif" font-weight="600" opacity="0.9">v0.8.0</text>
<circle cx="443.3" cy="104.2" r="3" fill="#3b82f6" stroke="white" stroke-width="1"/>
<text x="443.3" y="96.2" font-size="9" fill="#3b82f6" text-anchor="middle" font-family="system-ui, -apple-system, sans-serif" font-weight="600" opacity="0.9">v0.8.0</text>
<circle cx="477.9" cy="90.3" r="3" fill="#3b82f6" stroke="white" stroke-width="1"/>
<text x="477.9" y="82.3" font-size="9" fill="#3b82f6" text-anchor="middle" font-family="system-ui, -apple-system, sans-serif" font-weight="600" opacity="0.9">v0.8.0</text>
<circle cx="512.4" cy="112.0" r="3" fill="#3b82f6" stroke="white" stroke-width="1"/>
<text x="512.4" y="104.0" font-size="9" fill="#3b82f6" text-anchor="middle" font-family="system-ui, -apple-system, sans-serif" font-weight="600" opacity="0.9">v0.8.0 (7.00K ops/s)</text>
<circle cx="547.0" cy="101.6" r="3" fill="#3b82f6" stroke="white" stroke-width="1"/>
<text x="547.0" y="93.6" font-size="9" fill="#3b82f6" text-anchor="middle" font-family="system-ui, -apple-system, sans-serif" font-weight="600" opacity="0.9">v0.8.0</text>
</svg>