<svg width="615" height="120" viewBox="0 0 615 120" xmlns="http://www.w3.org/2000/svg">
<rect width="615" height="120" fill="transparent"/>
<line x1="63" y1="67.5" x2="547" y2="67.5" stroke="currentColor" stroke-width="0.5" opacity="0.2" stroke-dasharray="2,2"/>
<polyline fill="none" stroke="#3b82f6" stroke-width="2" points="48.0,112.0 107.0,78.6 151.0,71.3 195.0,72.8 239.0,83.2 283.0,102.0 327.0,91.0 371.0,98.3 415.0,23.0 459.0,94.9 503.0,97.7 547.0,91.2" stroke-linecap="round" stroke-linejoin="round"/>
<circle cx="48.0" cy="112.0" r="3" fill="#3b82f6" stroke="white" stroke-width="1"/>
<text x="48.0" y="104.0" font-size="9" fill="#3b82f6" text-anchor="middle" font-family="system-ui, -apple-system, sans-serif" font-weight="600" opacity="0.9">v0.4.1 (170.9 ops/s)</text>
<circle cx="107.0" cy="78.6" r="3" fill="#3b82f6" stroke="white" stroke-width="1"/>
<text x="107.0" y="70.6" font-size="9" fill="#3b82f6" text-anchor="middle" font-family="system-ui, -apple-system, sans-serif" font-weight="600" opacity="0.9">v0.4.1</text>
<circle cx="151.0" cy="71.3" r="3" fill="#3b82f6" stroke="white" stroke-width="1"/>
<text x="151.0" y="63.3" font-size="9" fill="#3b82f6" text-anchor="middle" font-family="system-ui, -apple-system, sans-serif" font-weight="600" opacity="0.9">v0.5.0</text>
<circle cx="195.0" cy="72.8" r="3" fill="#3b82f6" stroke="white" stroke-width="1"/>
<text x="195.0" y="64.8" font-size="9" fill="#3b82f6" text-anchor="middle" font-family="system-ui, -apple-system, sans-serif" font-weight="600" opacity="0.9">v0.5.0</text>
<circle cx="239.0" cy="83.2" r="3" fill="#3b82f6" stroke="white" stroke-width="1"/>
<text x="239.0" y="75.2" font-size="9" fill="#3b82f6" text-anchor="middle" font-family="system-ui, -apple-system, sans-serif" font-weight="600" opacity="0.9">v0.6.0</text>
<circle cx="283.0" cy="102.0" r="3" fill="#3b82f6" stroke="white" stroke-width="1"/>
<text x="283.0" y="94.0" font-size="9" fill="#3b82f6" text-anchor="middle" font-family="system-ui, -apple-system, sans-serif" font-weight="600" opacity="0.9">v0.6.1</text>
<circle cx="327.0" cy="91.0" r="3" fill="#3b82f6" stroke="white" stroke-width="1"/>
<text x="327.0" y="83.0" font-size="9" fill="#3b82f6" text-anchor="middle" font-family="system-ui, -apple-system, sans-serif" font-weight="600" opacity="0.9">v0.7.0</text>
<circle cx="371.0" cy="98.3" r="3" fill="#3b82f6" stroke="white" stroke-width="1"/>
<text x="371.0" y="90.3" font-size="9" fill="#3b82f6" text-anchor="middle" font-family="system-ui, -apple-system, sans-serif" font-weight="600" opacity="0.9">v0.7.0</text>
<circle cx="415.0" cy="23.0" r="3" fill="#3b82f6" stroke="white" stroke-width="1"/>
<text x="415.0" y="17.0" font-size="9" fill="#3b82f6" text-anchor="middle" font-family="system-ui, -apple-system, sans-serif" font-weight="600" opacity="0.9">v0.7.0 (238.2 ops/s)</text>
<circle cx="459.0" cy="94.9" r="3" fill="#3b82f6" stroke="white" stroke-width="1"/>
<text x="459.0" y="86.9" font-size="9" fill="#3b82f6" text-anchor="middle" font-family="system-ui, -apple-system, sans-serif" font-weight="600" opacity="0.9">v0.8.0</text>
<circle cx="503.0" cy="97.7" r="3" fill="#3b82f6" stroke="white" stroke-width="1"/>
<text x="503.0" y="89.7" font-size="9" fill="#3b82f6" text-anchor="middle" font-family="system-ui, -apple-system, sans-serif" font-weight="600" opacity="0.9">v0.8.0</text>
<circle cx="547.0" cy="91.2" r="3" fill="#3b82f6" stroke="white" stroke-width="1"/>
<text x="547.0" y="83.2" font-size="9" fill="#3b82f6" text-anchor="middle" font-family="system-ui, -apple-system, sans-serif" font-weight="600" opacity="0.9">v0.8.0</text>
</svg>