<svg width="615" height="120" viewBox="0 0 615 120" xmlns="http://www.w3.org/2000/svg">
<rect width="615" height="120" fill="transparent"/>
<line x1="63" y1="67.5" x2="547" y2="67.5" stroke="currentColor" stroke-width="0.5" opacity="0.2" stroke-dasharray="2,2"/>
<polyline fill="none" stroke="#3b82f6" stroke-width="2" points="48.0,110.3 107.0,67.1 151.0,65.1 195.0,63.7 239.0,88.6 283.0,110.6 327.0,102.8 371.0,110.9 415.0,23.0 459.0,112.0 503.0,110.4 547.0,105.7" stroke-linecap="round" stroke-linejoin="round"/>
<circle cx="48.0" cy="110.3" r="3" fill="#3b82f6" stroke="white" stroke-width="1"/>
<text x="48.0" y="102.3" font-size="9" fill="#3b82f6" text-anchor="middle" font-family="system-ui, -apple-system, sans-serif" font-weight="600" opacity="0.9">v0.4.1</text>
<circle cx="107.0" cy="67.1" r="3" fill="#3b82f6" stroke="white" stroke-width="1"/>
<text x="107.0" y="59.1" font-size="9" fill="#3b82f6" text-anchor="middle" font-family="system-ui, -apple-system, sans-serif" font-weight="600" opacity="0.9">v0.4.1</text>
<circle cx="151.0" cy="65.1" r="3" fill="#3b82f6" stroke="white" stroke-width="1"/>
<text x="151.0" y="57.1" font-size="9" fill="#3b82f6" text-anchor="middle" font-family="system-ui, -apple-system, sans-serif" font-weight="600" opacity="0.9">v0.5.0</text>
<circle cx="195.0" cy="63.7" r="3" fill="#3b82f6" stroke="white" stroke-width="1"/>
<text x="195.0" y="55.7" font-size="9" fill="#3b82f6" text-anchor="middle" font-family="system-ui, -apple-system, sans-serif" font-weight="600" opacity="0.9">v0.5.0</text>
<circle cx="239.0" cy="88.6" r="3" fill="#3b82f6" stroke="white" stroke-width="1"/>
<text x="239.0" y="80.6" font-size="9" fill="#3b82f6" text-anchor="middle" font-family="system-ui, -apple-system, sans-serif" font-weight="600" opacity="0.9">v0.6.0</text>
<circle cx="283.0" cy="110.6" r="3" fill="#3b82f6" stroke="white" stroke-width="1"/>
<text x="283.0" y="102.6" font-size="9" fill="#3b82f6" text-anchor="middle" font-family="system-ui, -apple-system, sans-serif" font-weight="600" opacity="0.9">v0.6.1</text>
<circle cx="327.0" cy="102.8" r="3" fill="#3b82f6" stroke="white" stroke-width="1"/>
<text x="327.0" y="94.8" font-size="9" fill="#3b82f6" text-anchor="middle" font-family="system-ui, -apple-system, sans-serif" font-weight="600" opacity="0.9">v0.7.0</text>
<circle cx="371.0" cy="110.9" r="3" fill="#3b82f6" stroke="white" stroke-width="1"/>
<text x="371.0" y="102.9" font-size="9" fill="#3b82f6" text-anchor="middle" font-family="system-ui, -apple-system, sans-serif" font-weight="600" opacity="0.9">v0.7.0</text>
<circle cx="415.0" cy="23.0" r="3" fill="#3b82f6" stroke="white" stroke-width="1"/>
<text x="415.0" y="17.0" font-size="9" fill="#3b82f6" text-anchor="middle" font-family="system-ui, -apple-system, sans-serif" font-weight="600" opacity="0.9">v0.7.0 (2.92K ops/s)</text>
<circle cx="459.0" cy="112.0" r="3" fill="#3b82f6" stroke="white" stroke-width="1"/>
<text x="459.0" y="104.0" font-size="9" fill="#3b82f6" text-anchor="middle" font-family="system-ui, -apple-system, sans-serif" font-weight="600" opacity="0.9">v0.8.0 (2.24K ops/s)</text>
<circle cx="503.0" cy="110.4" r="3" fill="#3b82f6" stroke="white" stroke-width="1"/>
<text x="503.0" y="102.4" font-size="9" fill="#3b82f6" text-anchor="middle" font-family="system-ui, -apple-system, sans-serif" font-weight="600" opacity="0.9">v0.8.0</text>
<circle cx="547.0" cy="105.7" r="3" fill="#3b82f6" stroke="white" stroke-width="1"/>
<text x="547.0" y="97.7" font-size="9" fill="#3b82f6" text-anchor="middle" font-family="system-ui, -apple-system, sans-serif" font-weight="600" opacity="0.9">v0.8.0</text>
</svg>