<svg width="615" height="120" viewBox="0 0 615 120" xmlns="http://www.w3.org/2000/svg">
<rect width="615" height="120" fill="transparent"/>
<line x1="63" y1="67.5" x2="547" y2="67.5" stroke="currentColor" stroke-width="0.5" opacity="0.2" stroke-dasharray="2,2"/>
<polyline fill="none" stroke="#3b82f6" stroke-width="2" points="48.0,81.7 97.6,81.2 132.1,85.9 166.7,81.6 201.3,98.9 235.9,105.7 270.4,112.0 305.0,100.1 339.6,23.0 374.1,68.7 408.7,69.6 443.3,67.7 477.9,62.5 512.4,67.3 547.0,67.1" stroke-linecap="round" stroke-linejoin="round"/>
<circle cx="48.0" cy="81.7" r="3" fill="#3b82f6" stroke="white" stroke-width="1"/>
<text x="48.0" y="73.7" font-size="9" fill="#3b82f6" text-anchor="middle" font-family="system-ui, -apple-system, sans-serif" font-weight="600" opacity="0.9">v0.4.1</text>
<circle cx="97.6" cy="81.2" r="3" fill="#3b82f6" stroke="white" stroke-width="1"/>
<text x="97.6" y="73.2" font-size="9" fill="#3b82f6" text-anchor="middle" font-family="system-ui, -apple-system, sans-serif" font-weight="600" opacity="0.9">v0.4.1</text>
<circle cx="132.1" cy="85.9" r="3" fill="#3b82f6" stroke="white" stroke-width="1"/>
<text x="132.1" y="77.9" font-size="9" fill="#3b82f6" text-anchor="middle" font-family="system-ui, -apple-system, sans-serif" font-weight="600" opacity="0.9">v0.5.0</text>
<circle cx="166.7" cy="81.6" r="3" fill="#3b82f6" stroke="white" stroke-width="1"/>
<text x="166.7" y="73.6" font-size="9" fill="#3b82f6" text-anchor="middle" font-family="system-ui, -apple-system, sans-serif" font-weight="600" opacity="0.9">v0.5.0</text>
<circle cx="201.3" cy="98.9" r="3" fill="#3b82f6" stroke="white" stroke-width="1"/>
<text x="201.3" y="90.9" font-size="9" fill="#3b82f6" text-anchor="middle" font-family="system-ui, -apple-system, sans-serif" font-weight="600" opacity="0.9">v0.6.0</text>
<circle cx="235.9" cy="105.7" r="3" fill="#3b82f6" stroke="white" stroke-width="1"/>
<text x="235.9" y="97.7" font-size="9" fill="#3b82f6" text-anchor="middle" font-family="system-ui, -apple-system, sans-serif" font-weight="600" opacity="0.9">v0.6.1</text>
<circle cx="270.4" cy="112.0" r="3" fill="#3b82f6" stroke="white" stroke-width="1"/>
<text x="270.4" y="104.0" font-size="9" fill="#3b82f6" text-anchor="middle" font-family="system-ui, -apple-system, sans-serif" font-weight="600" opacity="0.9">v0.7.0 (86.8 ops/s)</text>
<circle cx="305.0" cy="100.1" r="3" fill="#3b82f6" stroke="white" stroke-width="1"/>
<text x="305.0" y="92.1" font-size="9" fill="#3b82f6" text-anchor="middle" font-family="system-ui, -apple-system, sans-serif" font-weight="600" opacity="0.9">v0.7.0</text>
<circle cx="339.6" cy="23.0" r="3" fill="#3b82f6" stroke="white" stroke-width="1"/>
<text x="339.6" y="17.0" font-size="9" fill="#3b82f6" text-anchor="middle" font-family="system-ui, -apple-system, sans-serif" font-weight="600" opacity="0.9">v0.7.0 (157.8 ops/s)</text>
<circle cx="374.1" cy="68.7" r="3" fill="#3b82f6" stroke="white" stroke-width="1"/>
<text x="374.1" y="60.7" font-size="9" fill="#3b82f6" text-anchor="middle" font-family="system-ui, -apple-system, sans-serif" font-weight="600" opacity="0.9">v0.8.0</text>
<circle cx="408.7" cy="69.6" r="3" fill="#3b82f6" stroke="white" stroke-width="1"/>
<text x="408.7" y="61.6" font-size="9" fill="#3b82f6" text-anchor="middle" font-family="system-ui, -apple-system, sans-serif" font-weight="600" opacity="0.9">v0.8.0</text>
<circle cx="443.3" cy="67.7" r="3" fill="#3b82f6" stroke="white" stroke-width="1"/>
<text x="443.3" y="59.7" font-size="9" fill="#3b82f6" text-anchor="middle" font-family="system-ui, -apple-system, sans-serif" font-weight="600" opacity="0.9">v0.8.0</text>
<circle cx="477.9" cy="62.5" r="3" fill="#3b82f6" stroke="white" stroke-width="1"/>
<text x="477.9" y="54.5" font-size="9" fill="#3b82f6" text-anchor="middle" font-family="system-ui, -apple-system, sans-serif" font-weight="600" opacity="0.9">v0.8.0</text>
<circle cx="512.4" cy="67.3" r="3" fill="#3b82f6" stroke="white" stroke-width="1"/>
<text x="512.4" y="59.3" font-size="9" fill="#3b82f6" text-anchor="middle" font-family="system-ui, -apple-system, sans-serif" font-weight="600" opacity="0.9">v0.8.0</text>
<circle cx="547.0" cy="67.1" r="3" fill="#3b82f6" stroke="white" stroke-width="1"/>
<text x="547.0" y="59.1" font-size="9" fill="#3b82f6" text-anchor="middle" font-family="system-ui, -apple-system, sans-serif" font-weight="600" opacity="0.9">v0.8.0</text>
</svg>