<svg width="755" height="120" viewBox="0 0 755 120" xmlns="http://www.w3.org/2000/svg">
<rect width="755" height="120" fill="transparent"/>
<line x1="63" y1="67.5" x2="547" y2="67.5" stroke="currentColor" stroke-width="0.5" opacity="0.2" stroke-dasharray="2,2"/>
<polyline fill="none" stroke="#3b82f6" stroke-width="2" points="48.0,82.9 95.3,56.7 127.5,54.1 159.8,53.6 192.1,84.6 224.3,108.0 256.6,103.8 288.9,110.7 321.1,23.0 353.4,110.7 385.7,111.0 417.9,106.8 450.2,109.7 482.5,109.3 514.7,103.0 547.0,112.0" stroke-linecap="round" stroke-linejoin="round"/>
<circle cx="48.0" cy="82.9" r="3" fill="#3b82f6" stroke="white" stroke-width="1"/>
<text x="48.0" y="74.9" font-size="9" fill="#3b82f6" text-anchor="middle" font-family="system-ui, -apple-system, sans-serif" font-weight="600" opacity="0.9">v0.4.1</text>
<circle cx="95.3" cy="56.7" r="3" fill="#3b82f6" stroke="white" stroke-width="1"/>
<text x="95.3" y="48.7" font-size="9" fill="#3b82f6" text-anchor="middle" font-family="system-ui, -apple-system, sans-serif" font-weight="600" opacity="0.9">v0.4.1</text>
<circle cx="127.5" cy="54.1" r="3" fill="#3b82f6" stroke="white" stroke-width="1"/>
<text x="127.5" y="46.1" font-size="9" fill="#3b82f6" text-anchor="middle" font-family="system-ui, -apple-system, sans-serif" font-weight="600" opacity="0.9">v0.5.0</text>
<circle cx="159.8" cy="53.6" r="3" fill="#3b82f6" stroke="white" stroke-width="1"/>
<text x="159.8" y="45.6" font-size="9" fill="#3b82f6" text-anchor="middle" font-family="system-ui, -apple-system, sans-serif" font-weight="600" opacity="0.9">v0.5.0</text>
<circle cx="192.1" cy="84.6" r="3" fill="#3b82f6" stroke="white" stroke-width="1"/>
<text x="192.1" y="76.6" font-size="9" fill="#3b82f6" text-anchor="middle" font-family="system-ui, -apple-system, sans-serif" font-weight="600" opacity="0.9">v0.6.0</text>
<circle cx="224.3" cy="108.0" r="3" fill="#3b82f6" stroke="white" stroke-width="1"/>
<text x="224.3" y="100.0" font-size="9" fill="#3b82f6" text-anchor="middle" font-family="system-ui, -apple-system, sans-serif" font-weight="600" opacity="0.9">v0.6.1</text>
<circle cx="256.6" cy="103.8" r="3" fill="#3b82f6" stroke="white" stroke-width="1"/>
<text x="256.6" y="95.8" font-size="9" fill="#3b82f6" text-anchor="middle" font-family="system-ui, -apple-system, sans-serif" font-weight="600" opacity="0.9">v0.7.0</text>
<circle cx="288.9" cy="110.7" r="3" fill="#3b82f6" stroke="white" stroke-width="1"/>
<text x="288.9" y="102.7" font-size="9" fill="#3b82f6" text-anchor="middle" font-family="system-ui, -apple-system, sans-serif" font-weight="600" opacity="0.9">v0.7.0</text>
<circle cx="321.1" cy="23.0" r="3" fill="#3b82f6" stroke="white" stroke-width="1"/>
<text x="321.1" y="17.0" font-size="9" fill="#3b82f6" text-anchor="middle" font-family="system-ui, -apple-system, sans-serif" font-weight="600" opacity="0.9">v0.7.0 (3.12K ops/s)</text>
<circle cx="353.4" cy="110.7" r="3" fill="#3b82f6" stroke="white" stroke-width="1"/>
<text x="353.4" y="102.7" font-size="9" fill="#3b82f6" text-anchor="middle" font-family="system-ui, -apple-system, sans-serif" font-weight="600" opacity="0.9">v0.8.0</text>
<circle cx="385.7" cy="111.0" r="3" fill="#3b82f6" stroke="white" stroke-width="1"/>
<text x="385.7" y="103.0" font-size="9" fill="#3b82f6" text-anchor="middle" font-family="system-ui, -apple-system, sans-serif" font-weight="600" opacity="0.9">v0.8.0</text>
<circle cx="417.9" cy="106.8" r="3" fill="#3b82f6" stroke="white" stroke-width="1"/>
<text x="417.9" y="98.8" font-size="9" fill="#3b82f6" text-anchor="middle" font-family="system-ui, -apple-system, sans-serif" font-weight="600" opacity="0.9">v0.8.0</text>
<circle cx="450.2" cy="109.7" r="3" fill="#3b82f6" stroke="white" stroke-width="1"/>
<text x="450.2" y="101.7" font-size="9" fill="#3b82f6" text-anchor="middle" font-family="system-ui, -apple-system, sans-serif" font-weight="600" opacity="0.9">v0.8.0</text>
<circle cx="482.5" cy="109.3" r="3" fill="#3b82f6" stroke="white" stroke-width="1"/>
<text x="482.5" y="101.3" font-size="9" fill="#3b82f6" text-anchor="middle" font-family="system-ui, -apple-system, sans-serif" font-weight="600" opacity="0.9">v0.8.0</text>
<circle cx="514.7" cy="103.0" r="3" fill="#3b82f6" stroke="white" stroke-width="1"/>
<text x="514.7" y="95.0" font-size="9" fill="#3b82f6" text-anchor="middle" font-family="system-ui, -apple-system, sans-serif" font-weight="600" opacity="0.9">v0.8.0</text>
<circle cx="547.0" cy="112.0" r="3" fill="#3b82f6" stroke="white" stroke-width="1"/>
<text x="547.0" y="104.0" font-size="9" fill="#3b82f6" text-anchor="middle" font-family="system-ui, -apple-system, sans-serif" font-weight="600" opacity="0.9">v0.9.0 (2.41K ops/s)</text>
</svg>