<svg width="615" height="120" viewBox="0 0 615 120" xmlns="http://www.w3.org/2000/svg">
<rect width="615" height="120" fill="transparent"/>
<line x1="63" y1="67.5" x2="547" y2="67.5" stroke="currentColor" stroke-width="0.5" opacity="0.2" stroke-dasharray="2,2"/>
<polyline fill="none" stroke="#3b82f6" stroke-width="2" points="48.0,104.4 91.5,71.6 119.9,58.4 148.4,68.0 176.9,84.1 205.4,107.9 233.8,88.5 262.3,112.0 290.8,23.0 319.2,105.2 347.7,109.4 376.2,99.6 404.6,106.2 433.1,107.9 461.6,87.0 490.1,108.4 518.5,87.0 547.0,103.9" stroke-linecap="round" stroke-linejoin="round"/>
<circle cx="48.0" cy="104.4" r="3" fill="#3b82f6" stroke="white" stroke-width="1"/>
<text x="48.0" y="96.4" font-size="9" fill="#3b82f6" text-anchor="middle" font-family="system-ui, -apple-system, sans-serif" font-weight="600" opacity="0.9">v0.4.1</text>
<circle cx="91.5" cy="71.6" r="3" fill="#3b82f6" stroke="white" stroke-width="1"/>
<text x="91.5" y="63.6" font-size="9" fill="#3b82f6" text-anchor="middle" font-family="system-ui, -apple-system, sans-serif" font-weight="600" opacity="0.9">v0.4.1</text>
<circle cx="119.9" cy="58.4" r="3" fill="#3b82f6" stroke="white" stroke-width="1"/>
<text x="119.9" y="50.4" font-size="9" fill="#3b82f6" text-anchor="middle" font-family="system-ui, -apple-system, sans-serif" font-weight="600" opacity="0.9">v0.5.0</text>
<circle cx="148.4" cy="68.0" r="3" fill="#3b82f6" stroke="white" stroke-width="1"/>
<text x="148.4" y="60.0" font-size="9" fill="#3b82f6" text-anchor="middle" font-family="system-ui, -apple-system, sans-serif" font-weight="600" opacity="0.9">v0.5.0</text>
<circle cx="176.9" cy="84.1" r="3" fill="#3b82f6" stroke="white" stroke-width="1"/>
<text x="176.9" y="76.1" font-size="9" fill="#3b82f6" text-anchor="middle" font-family="system-ui, -apple-system, sans-serif" font-weight="600" opacity="0.9">v0.6.0</text>
<circle cx="205.4" cy="107.9" r="3" fill="#3b82f6" stroke="white" stroke-width="1"/>
<text x="205.4" y="99.9" font-size="9" fill="#3b82f6" text-anchor="middle" font-family="system-ui, -apple-system, sans-serif" font-weight="600" opacity="0.9">v0.6.1</text>
<circle cx="233.8" cy="88.5" r="3" fill="#3b82f6" stroke="white" stroke-width="1"/>
<text x="233.8" y="80.5" font-size="9" fill="#3b82f6" text-anchor="middle" font-family="system-ui, -apple-system, sans-serif" font-weight="600" opacity="0.9">v0.7.0</text>
<circle cx="262.3" cy="112.0" r="3" fill="#3b82f6" stroke="white" stroke-width="1"/>
<text x="262.3" y="104.0" font-size="9" fill="#3b82f6" text-anchor="middle" font-family="system-ui, -apple-system, sans-serif" font-weight="600" opacity="0.9">v0.7.0 (26.18K ops/s)</text>
<circle cx="290.8" cy="23.0" r="3" fill="#3b82f6" stroke="white" stroke-width="1"/>
<text x="290.8" y="17.0" font-size="9" fill="#3b82f6" text-anchor="middle" font-family="system-ui, -apple-system, sans-serif" font-weight="600" opacity="0.9">v0.7.0 (32.22K ops/s)</text>
<circle cx="319.2" cy="105.2" r="3" fill="#3b82f6" stroke="white" stroke-width="1"/>
<text x="319.2" y="97.2" font-size="9" fill="#3b82f6" text-anchor="middle" font-family="system-ui, -apple-system, sans-serif" font-weight="600" opacity="0.9">v0.8.0</text>
<circle cx="347.7" cy="109.4" r="3" fill="#3b82f6" stroke="white" stroke-width="1"/>
<text x="347.7" y="101.4" font-size="9" fill="#3b82f6" text-anchor="middle" font-family="system-ui, -apple-system, sans-serif" font-weight="600" opacity="0.9">v0.8.0</text>
<circle cx="376.2" cy="99.6" r="3" fill="#3b82f6" stroke="white" stroke-width="1"/>
<text x="376.2" y="91.6" font-size="9" fill="#3b82f6" text-anchor="middle" font-family="system-ui, -apple-system, sans-serif" font-weight="600" opacity="0.9">v0.8.0</text>
<circle cx="404.6" cy="106.2" r="3" fill="#3b82f6" stroke="white" stroke-width="1"/>
<text x="404.6" y="98.2" font-size="9" fill="#3b82f6" text-anchor="middle" font-family="system-ui, -apple-system, sans-serif" font-weight="600" opacity="0.9">v0.8.0</text>
<circle cx="433.1" cy="107.9" r="3" fill="#3b82f6" stroke="white" stroke-width="1"/>
<text x="433.1" y="99.9" font-size="9" fill="#3b82f6" text-anchor="middle" font-family="system-ui, -apple-system, sans-serif" font-weight="600" opacity="0.9">v0.8.0</text>
<circle cx="461.6" cy="87.0" r="3" fill="#3b82f6" stroke="white" stroke-width="1"/>
<text x="461.6" y="79.0" font-size="9" fill="#3b82f6" text-anchor="middle" font-family="system-ui, -apple-system, sans-serif" font-weight="600" opacity="0.9">v0.8.0</text>
<circle cx="490.1" cy="108.4" r="3" fill="#3b82f6" stroke="white" stroke-width="1"/>
<text x="490.1" y="100.4" font-size="9" fill="#3b82f6" text-anchor="middle" font-family="system-ui, -apple-system, sans-serif" font-weight="600" opacity="0.9">v0.9.0</text>
<circle cx="518.5" cy="87.0" r="3" fill="#3b82f6" stroke="white" stroke-width="1"/>
<text x="518.5" y="79.0" font-size="9" fill="#3b82f6" text-anchor="middle" font-family="system-ui, -apple-system, sans-serif" font-weight="600" opacity="0.9">v0.9.0</text>
<circle cx="547.0" cy="103.9" r="3" fill="#3b82f6" stroke="white" stroke-width="1"/>
<text x="547.0" y="95.9" font-size="9" fill="#3b82f6" text-anchor="middle" font-family="system-ui, -apple-system, sans-serif" font-weight="600" opacity="0.9">v0.10.0</text>
</svg>