<svg width="615" height="120" viewBox="0 0 615 120" xmlns="http://www.w3.org/2000/svg">
<rect width="615" height="120" fill="transparent"/>
<line x1="63" y1="67.5" x2="547" y2="67.5" stroke="currentColor" stroke-width="0.5" opacity="0.2" stroke-dasharray="2,2"/>
<polyline fill="none" stroke="#3b82f6" stroke-width="2" points="48.0,48.8 91.5,35.4 119.9,28.6 148.4,29.1 176.9,58.9 205.4,104.9 233.8,108.0 262.3,107.2 290.8,23.0 319.2,92.1 347.7,92.2 376.2,104.2 404.6,90.3 433.1,112.0 461.6,101.6 490.1,92.4 518.5,103.4 547.0,95.7" stroke-linecap="round" stroke-linejoin="round"/>
<circle cx="48.0" cy="48.8" r="3" fill="#3b82f6" stroke="white" stroke-width="1"/>
<text x="48.0" y="40.8" font-size="9" fill="#3b82f6" text-anchor="middle" font-family="system-ui, -apple-system, sans-serif" font-weight="600" opacity="0.9">v0.4.1</text>
<circle cx="91.5" cy="35.4" r="3" fill="#3b82f6" stroke="white" stroke-width="1"/>
<text x="91.5" y="27.4" font-size="9" fill="#3b82f6" text-anchor="middle" font-family="system-ui, -apple-system, sans-serif" font-weight="600" opacity="0.9">v0.4.1</text>
<circle cx="119.9" cy="28.6" r="3" fill="#3b82f6" stroke="white" stroke-width="1"/>
<text x="119.9" y="20.6" font-size="9" fill="#3b82f6" text-anchor="middle" font-family="system-ui, -apple-system, sans-serif" font-weight="600" opacity="0.9">v0.5.0</text>
<circle cx="148.4" cy="29.1" r="3" fill="#3b82f6" stroke="white" stroke-width="1"/>
<text x="148.4" y="21.1" font-size="9" fill="#3b82f6" text-anchor="middle" font-family="system-ui, -apple-system, sans-serif" font-weight="600" opacity="0.9">v0.5.0</text>
<circle cx="176.9" cy="58.9" r="3" fill="#3b82f6" stroke="white" stroke-width="1"/>
<text x="176.9" y="50.9" font-size="9" fill="#3b82f6" text-anchor="middle" font-family="system-ui, -apple-system, sans-serif" font-weight="600" opacity="0.9">v0.6.0</text>
<circle cx="205.4" cy="104.9" r="3" fill="#3b82f6" stroke="white" stroke-width="1"/>
<text x="205.4" y="96.9" font-size="9" fill="#3b82f6" text-anchor="middle" font-family="system-ui, -apple-system, sans-serif" font-weight="600" opacity="0.9">v0.6.1</text>
<circle cx="233.8" cy="108.0" r="3" fill="#3b82f6" stroke="white" stroke-width="1"/>
<text x="233.8" y="100.0" font-size="9" fill="#3b82f6" text-anchor="middle" font-family="system-ui, -apple-system, sans-serif" font-weight="600" opacity="0.9">v0.7.0</text>
<circle cx="262.3" cy="107.2" r="3" fill="#3b82f6" stroke="white" stroke-width="1"/>
<text x="262.3" y="99.2" font-size="9" fill="#3b82f6" text-anchor="middle" font-family="system-ui, -apple-system, sans-serif" font-weight="600" opacity="0.9">v0.7.0</text>
<circle cx="290.8" cy="23.0" r="3" fill="#3b82f6" stroke="white" stroke-width="1"/>
<text x="290.8" y="17.0" font-size="9" fill="#3b82f6" text-anchor="middle" font-family="system-ui, -apple-system, sans-serif" font-weight="600" opacity="0.9">v0.7.0 (9.10K ops/s)</text>
<circle cx="319.2" cy="92.1" r="3" fill="#3b82f6" stroke="white" stroke-width="1"/>
<text x="319.2" y="84.1" font-size="9" fill="#3b82f6" text-anchor="middle" font-family="system-ui, -apple-system, sans-serif" font-weight="600" opacity="0.9">v0.8.0</text>
<circle cx="347.7" cy="92.2" r="3" fill="#3b82f6" stroke="white" stroke-width="1"/>
<text x="347.7" y="84.2" font-size="9" fill="#3b82f6" text-anchor="middle" font-family="system-ui, -apple-system, sans-serif" font-weight="600" opacity="0.9">v0.8.0</text>
<circle cx="376.2" cy="104.2" r="3" fill="#3b82f6" stroke="white" stroke-width="1"/>
<text x="376.2" y="96.2" font-size="9" fill="#3b82f6" text-anchor="middle" font-family="system-ui, -apple-system, sans-serif" font-weight="600" opacity="0.9">v0.8.0</text>
<circle cx="404.6" cy="90.3" r="3" fill="#3b82f6" stroke="white" stroke-width="1"/>
<text x="404.6" y="82.3" font-size="9" fill="#3b82f6" text-anchor="middle" font-family="system-ui, -apple-system, sans-serif" font-weight="600" opacity="0.9">v0.8.0</text>
<circle cx="433.1" cy="112.0" r="3" fill="#3b82f6" stroke="white" stroke-width="1"/>
<text x="433.1" y="104.0" font-size="9" fill="#3b82f6" text-anchor="middle" font-family="system-ui, -apple-system, sans-serif" font-weight="600" opacity="0.9">v0.8.0 (7.00K ops/s)</text>
<circle cx="461.6" cy="101.6" r="3" fill="#3b82f6" stroke="white" stroke-width="1"/>
<text x="461.6" y="93.6" font-size="9" fill="#3b82f6" text-anchor="middle" font-family="system-ui, -apple-system, sans-serif" font-weight="600" opacity="0.9">v0.8.0</text>
<circle cx="490.1" cy="92.4" r="3" fill="#3b82f6" stroke="white" stroke-width="1"/>
<text x="490.1" y="84.4" font-size="9" fill="#3b82f6" text-anchor="middle" font-family="system-ui, -apple-system, sans-serif" font-weight="600" opacity="0.9">v0.9.0</text>
<circle cx="518.5" cy="103.4" r="3" fill="#3b82f6" stroke="white" stroke-width="1"/>
<text x="518.5" y="95.4" font-size="9" fill="#3b82f6" text-anchor="middle" font-family="system-ui, -apple-system, sans-serif" font-weight="600" opacity="0.9">v0.9.0</text>
<circle cx="547.0" cy="95.7" r="3" fill="#3b82f6" stroke="white" stroke-width="1"/>
<text x="547.0" y="87.7" font-size="9" fill="#3b82f6" text-anchor="middle" font-family="system-ui, -apple-system, sans-serif" font-weight="600" opacity="0.9">v0.10.0</text>
</svg>