<svg width="755" height="120" viewBox="0 0 755 120" xmlns="http://www.w3.org/2000/svg">
<rect width="755" height="120" fill="transparent"/>
<line x1="63" y1="67.5" x2="547" y2="67.5" stroke="currentColor" stroke-width="0.5" opacity="0.2" stroke-dasharray="2,2"/>
<polyline fill="none" stroke="#3b82f6" stroke-width="2" points="48.0,30.0 93.2,29.9 123.5,23.0 153.8,25.3 184.0,48.7 214.2,106.0 244.5,110.9 274.8,107.3 305.0,28.7 335.2,106.7 365.5,109.3 395.8,106.2 426.0,107.2 456.2,107.1 486.5,101.0 516.8,109.3 547.0,112.0" stroke-linecap="round" stroke-linejoin="round"/>
<circle cx="48.0" cy="30.0" r="3" fill="#3b82f6" stroke="white" stroke-width="1"/>
<text x="48.0" y="22.0" font-size="9" fill="#3b82f6" text-anchor="middle" font-family="system-ui, -apple-system, sans-serif" font-weight="600" opacity="0.9">v0.4.1</text>
<circle cx="93.2" cy="29.9" r="3" fill="#3b82f6" stroke="white" stroke-width="1"/>
<text x="93.2" y="21.9" font-size="9" fill="#3b82f6" text-anchor="middle" font-family="system-ui, -apple-system, sans-serif" font-weight="600" opacity="0.9">v0.4.1</text>
<circle cx="123.5" cy="23.0" r="3" fill="#3b82f6" stroke="white" stroke-width="1"/>
<text x="123.5" y="17.0" font-size="9" fill="#3b82f6" text-anchor="middle" font-family="system-ui, -apple-system, sans-serif" font-weight="600" opacity="0.9">v0.5.0 (126.64K ops/s)</text>
<circle cx="153.8" cy="25.3" r="3" fill="#3b82f6" stroke="white" stroke-width="1"/>
<text x="153.8" y="17.3" font-size="9" fill="#3b82f6" text-anchor="middle" font-family="system-ui, -apple-system, sans-serif" font-weight="600" opacity="0.9">v0.5.0</text>
<circle cx="184.0" cy="48.7" r="3" fill="#3b82f6" stroke="white" stroke-width="1"/>
<text x="184.0" y="40.7" font-size="9" fill="#3b82f6" text-anchor="middle" font-family="system-ui, -apple-system, sans-serif" font-weight="600" opacity="0.9">v0.6.0</text>
<circle cx="214.2" cy="106.0" r="3" fill="#3b82f6" stroke="white" stroke-width="1"/>
<text x="214.2" y="98.0" font-size="9" fill="#3b82f6" text-anchor="middle" font-family="system-ui, -apple-system, sans-serif" font-weight="600" opacity="0.9">v0.6.1</text>
<circle cx="244.5" cy="110.9" r="3" fill="#3b82f6" stroke="white" stroke-width="1"/>
<text x="244.5" y="102.9" font-size="9" fill="#3b82f6" text-anchor="middle" font-family="system-ui, -apple-system, sans-serif" font-weight="600" opacity="0.9">v0.7.0</text>
<circle cx="274.8" cy="107.3" r="3" fill="#3b82f6" stroke="white" stroke-width="1"/>
<text x="274.8" y="99.3" font-size="9" fill="#3b82f6" text-anchor="middle" font-family="system-ui, -apple-system, sans-serif" font-weight="600" opacity="0.9">v0.7.0</text>
<circle cx="305.0" cy="28.7" r="3" fill="#3b82f6" stroke="white" stroke-width="1"/>
<text x="305.0" y="20.7" font-size="9" fill="#3b82f6" text-anchor="middle" font-family="system-ui, -apple-system, sans-serif" font-weight="600" opacity="0.9">v0.7.0</text>
<circle cx="335.2" cy="106.7" r="3" fill="#3b82f6" stroke="white" stroke-width="1"/>
<text x="335.2" y="98.7" font-size="9" fill="#3b82f6" text-anchor="middle" font-family="system-ui, -apple-system, sans-serif" font-weight="600" opacity="0.9">v0.8.0</text>
<circle cx="365.5" cy="109.3" r="3" fill="#3b82f6" stroke="white" stroke-width="1"/>
<text x="365.5" y="101.3" font-size="9" fill="#3b82f6" text-anchor="middle" font-family="system-ui, -apple-system, sans-serif" font-weight="600" opacity="0.9">v0.8.0</text>
<circle cx="395.8" cy="106.2" r="3" fill="#3b82f6" stroke="white" stroke-width="1"/>
<text x="395.8" y="98.2" font-size="9" fill="#3b82f6" text-anchor="middle" font-family="system-ui, -apple-system, sans-serif" font-weight="600" opacity="0.9">v0.8.0</text>
<circle cx="426.0" cy="107.2" r="3" fill="#3b82f6" stroke="white" stroke-width="1"/>
<text x="426.0" y="99.2" font-size="9" fill="#3b82f6" text-anchor="middle" font-family="system-ui, -apple-system, sans-serif" font-weight="600" opacity="0.9">v0.8.0</text>
<circle cx="456.2" cy="107.1" r="3" fill="#3b82f6" stroke="white" stroke-width="1"/>
<text x="456.2" y="99.1" font-size="9" fill="#3b82f6" text-anchor="middle" font-family="system-ui, -apple-system, sans-serif" font-weight="600" opacity="0.9">v0.8.0</text>
<circle cx="486.5" cy="101.0" r="3" fill="#3b82f6" stroke="white" stroke-width="1"/>
<text x="486.5" y="93.0" font-size="9" fill="#3b82f6" text-anchor="middle" font-family="system-ui, -apple-system, sans-serif" font-weight="600" opacity="0.9">v0.8.0</text>
<circle cx="516.8" cy="109.3" r="3" fill="#3b82f6" stroke="white" stroke-width="1"/>
<text x="516.8" y="101.3" font-size="9" fill="#3b82f6" text-anchor="middle" font-family="system-ui, -apple-system, sans-serif" font-weight="600" opacity="0.9">v0.9.0</text>
<circle cx="547.0" cy="112.0" r="3" fill="#3b82f6" stroke="white" stroke-width="1"/>
<text x="547.0" y="104.0" font-size="9" fill="#3b82f6" text-anchor="middle" font-family="system-ui, -apple-system, sans-serif" font-weight="600" opacity="0.9">v0.9.0 (94.35K ops/s)</text>
</svg>