<svg width="615" height="120" viewBox="0 0 615 120" xmlns="http://www.w3.org/2000/svg">
<rect width="615" height="120" fill="transparent"/>
<line x1="63" y1="67.5" x2="547" y2="67.5" stroke="currentColor" stroke-width="0.5" opacity="0.2" stroke-dasharray="2,2"/>
<polyline fill="none" stroke="#3b82f6" stroke-width="2" points="48.0,41.2 93.2,27.8 123.5,25.8 153.8,29.0 184.0,72.7 214.2,90.5 244.5,88.2 274.8,112.0 305.0,23.0 335.2,86.8 365.5,86.9 395.8,83.5 426.0,85.0 456.2,86.1 486.5,89.9 516.8,87.1 547.0,91.2" stroke-linecap="round" stroke-linejoin="round"/>
<circle cx="48.0" cy="41.2" r="3" fill="#3b82f6" stroke="white" stroke-width="1"/>
<text x="48.0" y="33.2" font-size="9" fill="#3b82f6" text-anchor="middle" font-family="system-ui, -apple-system, sans-serif" font-weight="600" opacity="0.9">v0.4.1</text>
<circle cx="93.2" cy="27.8" r="3" fill="#3b82f6" stroke="white" stroke-width="1"/>
<text x="93.2" y="19.8" font-size="9" fill="#3b82f6" text-anchor="middle" font-family="system-ui, -apple-system, sans-serif" font-weight="600" opacity="0.9">v0.4.1</text>
<circle cx="123.5" cy="25.8" r="3" fill="#3b82f6" stroke="white" stroke-width="1"/>
<text x="123.5" y="17.8" font-size="9" fill="#3b82f6" text-anchor="middle" font-family="system-ui, -apple-system, sans-serif" font-weight="600" opacity="0.9">v0.5.0</text>
<circle cx="153.8" cy="29.0" r="3" fill="#3b82f6" stroke="white" stroke-width="1"/>
<text x="153.8" y="21.0" font-size="9" fill="#3b82f6" text-anchor="middle" font-family="system-ui, -apple-system, sans-serif" font-weight="600" opacity="0.9">v0.5.0</text>
<circle cx="184.0" cy="72.7" r="3" fill="#3b82f6" stroke="white" stroke-width="1"/>
<text x="184.0" y="64.7" font-size="9" fill="#3b82f6" text-anchor="middle" font-family="system-ui, -apple-system, sans-serif" font-weight="600" opacity="0.9">v0.6.0</text>
<circle cx="214.2" cy="90.5" r="3" fill="#3b82f6" stroke="white" stroke-width="1"/>
<text x="214.2" y="82.5" font-size="9" fill="#3b82f6" text-anchor="middle" font-family="system-ui, -apple-system, sans-serif" font-weight="600" opacity="0.9">v0.6.1</text>
<circle cx="244.5" cy="88.2" r="3" fill="#3b82f6" stroke="white" stroke-width="1"/>
<text x="244.5" y="80.2" font-size="9" fill="#3b82f6" text-anchor="middle" font-family="system-ui, -apple-system, sans-serif" font-weight="600" opacity="0.9">v0.7.0</text>
<circle cx="274.8" cy="112.0" r="3" fill="#3b82f6" stroke="white" stroke-width="1"/>
<text x="274.8" y="104.0" font-size="9" fill="#3b82f6" text-anchor="middle" font-family="system-ui, -apple-system, sans-serif" font-weight="600" opacity="0.9">v0.7.0 (648.5 ops/s)</text>
<circle cx="305.0" cy="23.0" r="3" fill="#3b82f6" stroke="white" stroke-width="1"/>
<text x="305.0" y="17.0" font-size="9" fill="#3b82f6" text-anchor="middle" font-family="system-ui, -apple-system, sans-serif" font-weight="600" opacity="0.9">v0.7.0 (878.6 ops/s)</text>
<circle cx="335.2" cy="86.8" r="3" fill="#3b82f6" stroke="white" stroke-width="1"/>
<text x="335.2" y="78.8" font-size="9" fill="#3b82f6" text-anchor="middle" font-family="system-ui, -apple-system, sans-serif" font-weight="600" opacity="0.9">v0.8.0</text>
<circle cx="365.5" cy="86.9" r="3" fill="#3b82f6" stroke="white" stroke-width="1"/>
<text x="365.5" y="78.9" font-size="9" fill="#3b82f6" text-anchor="middle" font-family="system-ui, -apple-system, sans-serif" font-weight="600" opacity="0.9">v0.8.0</text>
<circle cx="395.8" cy="83.5" r="3" fill="#3b82f6" stroke="white" stroke-width="1"/>
<text x="395.8" y="75.5" font-size="9" fill="#3b82f6" text-anchor="middle" font-family="system-ui, -apple-system, sans-serif" font-weight="600" opacity="0.9">v0.8.0</text>
<circle cx="426.0" cy="85.0" r="3" fill="#3b82f6" stroke="white" stroke-width="1"/>
<text x="426.0" y="77.0" font-size="9" fill="#3b82f6" text-anchor="middle" font-family="system-ui, -apple-system, sans-serif" font-weight="600" opacity="0.9">v0.8.0</text>
<circle cx="456.2" cy="86.1" r="3" fill="#3b82f6" stroke="white" stroke-width="1"/>
<text x="456.2" y="78.1" font-size="9" fill="#3b82f6" text-anchor="middle" font-family="system-ui, -apple-system, sans-serif" font-weight="600" opacity="0.9">v0.8.0</text>
<circle cx="486.5" cy="89.9" r="3" fill="#3b82f6" stroke="white" stroke-width="1"/>
<text x="486.5" y="81.9" font-size="9" fill="#3b82f6" text-anchor="middle" font-family="system-ui, -apple-system, sans-serif" font-weight="600" opacity="0.9">v0.8.0</text>
<circle cx="516.8" cy="87.1" r="3" fill="#3b82f6" stroke="white" stroke-width="1"/>
<text x="516.8" y="79.1" font-size="9" fill="#3b82f6" text-anchor="middle" font-family="system-ui, -apple-system, sans-serif" font-weight="600" opacity="0.9">v0.9.0</text>
<circle cx="547.0" cy="91.2" r="3" fill="#3b82f6" stroke="white" stroke-width="1"/>
<text x="547.0" y="83.2" font-size="9" fill="#3b82f6" text-anchor="middle" font-family="system-ui, -apple-system, sans-serif" font-weight="600" opacity="0.9">v0.9.0</text>
</svg>