<svg width="615" height="120" viewBox="0 0 615 120" xmlns="http://www.w3.org/2000/svg">
<rect width="615" height="120" fill="transparent"/>
<line x1="63" y1="67.5" x2="547" y2="67.5" stroke="currentColor" stroke-width="0.5" opacity="0.2" stroke-dasharray="2,2"/>
<polyline fill="none" stroke="#3b82f6" stroke-width="2" points="48.0,112.0 91.5,73.0 119.9,70.8 148.4,70.9 176.9,83.9 205.4,107.5 233.8,98.5 262.3,107.0 290.8,23.0 319.2,109.6 347.7,108.2 376.2,98.3 404.6,107.2 433.1,108.7 461.6,96.3 490.1,109.4 518.5,98.7 547.0,110.9" stroke-linecap="round" stroke-linejoin="round"/>
<circle cx="48.0" cy="112.0" r="3" fill="#3b82f6" stroke="white" stroke-width="1"/>
<text x="48.0" y="104.0" font-size="9" fill="#3b82f6" text-anchor="middle" font-family="system-ui, -apple-system, sans-serif" font-weight="600" opacity="0.9">v0.4.1 (1.68K ops/s)</text>
<circle cx="91.5" cy="73.0" r="3" fill="#3b82f6" stroke="white" stroke-width="1"/>
<text x="91.5" y="65.0" font-size="9" fill="#3b82f6" text-anchor="middle" font-family="system-ui, -apple-system, sans-serif" font-weight="600" opacity="0.9">v0.4.1</text>
<circle cx="119.9" cy="70.8" r="3" fill="#3b82f6" stroke="white" stroke-width="1"/>
<text x="119.9" y="62.8" font-size="9" fill="#3b82f6" text-anchor="middle" font-family="system-ui, -apple-system, sans-serif" font-weight="600" opacity="0.9">v0.5.0</text>
<circle cx="148.4" cy="70.9" r="3" fill="#3b82f6" stroke="white" stroke-width="1"/>
<text x="148.4" y="62.9" font-size="9" fill="#3b82f6" text-anchor="middle" font-family="system-ui, -apple-system, sans-serif" font-weight="600" opacity="0.9">v0.5.0</text>
<circle cx="176.9" cy="83.9" r="3" fill="#3b82f6" stroke="white" stroke-width="1"/>
<text x="176.9" y="75.9" font-size="9" fill="#3b82f6" text-anchor="middle" font-family="system-ui, -apple-system, sans-serif" font-weight="600" opacity="0.9">v0.6.0</text>
<circle cx="205.4" cy="107.5" r="3" fill="#3b82f6" stroke="white" stroke-width="1"/>
<text x="205.4" y="99.5" font-size="9" fill="#3b82f6" text-anchor="middle" font-family="system-ui, -apple-system, sans-serif" font-weight="600" opacity="0.9">v0.6.1</text>
<circle cx="233.8" cy="98.5" r="3" fill="#3b82f6" stroke="white" stroke-width="1"/>
<text x="233.8" y="90.5" font-size="9" fill="#3b82f6" text-anchor="middle" font-family="system-ui, -apple-system, sans-serif" font-weight="600" opacity="0.9">v0.7.0</text>
<circle cx="262.3" cy="107.0" r="3" fill="#3b82f6" stroke="white" stroke-width="1"/>
<text x="262.3" y="99.0" font-size="9" fill="#3b82f6" text-anchor="middle" font-family="system-ui, -apple-system, sans-serif" font-weight="600" opacity="0.9">v0.7.0</text>
<circle cx="290.8" cy="23.0" r="3" fill="#3b82f6" stroke="white" stroke-width="1"/>
<text x="290.8" y="17.0" font-size="9" fill="#3b82f6" text-anchor="middle" font-family="system-ui, -apple-system, sans-serif" font-weight="600" opacity="0.9">v0.7.0 (2.28K ops/s)</text>
<circle cx="319.2" cy="109.6" r="3" fill="#3b82f6" stroke="white" stroke-width="1"/>
<text x="319.2" y="101.6" font-size="9" fill="#3b82f6" text-anchor="middle" font-family="system-ui, -apple-system, sans-serif" font-weight="600" opacity="0.9">v0.8.0</text>
<circle cx="347.7" cy="108.2" r="3" fill="#3b82f6" stroke="white" stroke-width="1"/>
<text x="347.7" y="100.2" font-size="9" fill="#3b82f6" text-anchor="middle" font-family="system-ui, -apple-system, sans-serif" font-weight="600" opacity="0.9">v0.8.0</text>
<circle cx="376.2" cy="98.3" r="3" fill="#3b82f6" stroke="white" stroke-width="1"/>
<text x="376.2" y="90.3" font-size="9" fill="#3b82f6" text-anchor="middle" font-family="system-ui, -apple-system, sans-serif" font-weight="600" opacity="0.9">v0.8.0</text>
<circle cx="404.6" cy="107.2" r="3" fill="#3b82f6" stroke="white" stroke-width="1"/>
<text x="404.6" y="99.2" font-size="9" fill="#3b82f6" text-anchor="middle" font-family="system-ui, -apple-system, sans-serif" font-weight="600" opacity="0.9">v0.8.0</text>
<circle cx="433.1" cy="108.7" r="3" fill="#3b82f6" stroke="white" stroke-width="1"/>
<text x="433.1" y="100.7" font-size="9" fill="#3b82f6" text-anchor="middle" font-family="system-ui, -apple-system, sans-serif" font-weight="600" opacity="0.9">v0.8.0</text>
<circle cx="461.6" cy="96.3" r="3" fill="#3b82f6" stroke="white" stroke-width="1"/>
<text x="461.6" y="88.3" font-size="9" fill="#3b82f6" text-anchor="middle" font-family="system-ui, -apple-system, sans-serif" font-weight="600" opacity="0.9">v0.8.0</text>
<circle cx="490.1" cy="109.4" r="3" fill="#3b82f6" stroke="white" stroke-width="1"/>
<text x="490.1" y="101.4" font-size="9" fill="#3b82f6" text-anchor="middle" font-family="system-ui, -apple-system, sans-serif" font-weight="600" opacity="0.9">v0.9.0</text>
<circle cx="518.5" cy="98.7" r="3" fill="#3b82f6" stroke="white" stroke-width="1"/>
<text x="518.5" y="90.7" font-size="9" fill="#3b82f6" text-anchor="middle" font-family="system-ui, -apple-system, sans-serif" font-weight="600" opacity="0.9">v0.9.0</text>
<circle cx="547.0" cy="110.9" r="3" fill="#3b82f6" stroke="white" stroke-width="1"/>
<text x="547.0" y="102.9" font-size="9" fill="#3b82f6" text-anchor="middle" font-family="system-ui, -apple-system, sans-serif" font-weight="600" opacity="0.9">v0.10.0</text>
</svg>