<svg width="615" height="120" viewBox="0 0 615 120" xmlns="http://www.w3.org/2000/svg">
<rect width="615" height="120" fill="transparent"/>
<line x1="63" y1="67.5" x2="547" y2="67.5" stroke="currentColor" stroke-width="0.5" opacity="0.2" stroke-dasharray="2,2"/>
<polyline fill="none" stroke="#3b82f6" stroke-width="2" points="48.0,24.7 97.6,25.3 132.1,23.6 166.7,23.0 201.3,84.3 235.9,111.6 270.4,112.0 305.0,108.1 339.6,58.2 374.1,107.6 408.7,107.0 443.3,110.8 477.9,107.1 512.4,106.3 547.0,110.1" stroke-linecap="round" stroke-linejoin="round"/>
<circle cx="48.0" cy="24.7" r="3" fill="#3b82f6" stroke="white" stroke-width="1"/>
<text x="48.0" y="17.0" font-size="9" fill="#3b82f6" text-anchor="middle" font-family="system-ui, -apple-system, sans-serif" font-weight="600" opacity="0.9">v0.4.1</text>
<circle cx="97.6" cy="25.3" r="3" fill="#3b82f6" stroke="white" stroke-width="1"/>
<text x="97.6" y="17.3" font-size="9" fill="#3b82f6" text-anchor="middle" font-family="system-ui, -apple-system, sans-serif" font-weight="600" opacity="0.9">v0.4.1</text>
<circle cx="132.1" cy="23.6" r="3" fill="#3b82f6" stroke="white" stroke-width="1"/>
<text x="132.1" y="17.0" font-size="9" fill="#3b82f6" text-anchor="middle" font-family="system-ui, -apple-system, sans-serif" font-weight="600" opacity="0.9">v0.5.0</text>
<circle cx="166.7" cy="23.0" r="3" fill="#3b82f6" stroke="white" stroke-width="1"/>
<text x="166.7" y="17.0" font-size="9" fill="#3b82f6" text-anchor="middle" font-family="system-ui, -apple-system, sans-serif" font-weight="600" opacity="0.9">v0.5.0 (8.54K ops/s)</text>
<circle cx="201.3" cy="84.3" r="3" fill="#3b82f6" stroke="white" stroke-width="1"/>
<text x="201.3" y="76.3" font-size="9" fill="#3b82f6" text-anchor="middle" font-family="system-ui, -apple-system, sans-serif" font-weight="600" opacity="0.9">v0.6.0</text>
<circle cx="235.9" cy="111.6" r="3" fill="#3b82f6" stroke="white" stroke-width="1"/>
<text x="235.9" y="103.6" font-size="9" fill="#3b82f6" text-anchor="middle" font-family="system-ui, -apple-system, sans-serif" font-weight="600" opacity="0.9">v0.6.1</text>
<circle cx="270.4" cy="112.0" r="3" fill="#3b82f6" stroke="white" stroke-width="1"/>
<text x="270.4" y="104.0" font-size="9" fill="#3b82f6" text-anchor="middle" font-family="system-ui, -apple-system, sans-serif" font-weight="600" opacity="0.9">v0.7.0 (5.65K ops/s)</text>
<circle cx="305.0" cy="108.1" r="3" fill="#3b82f6" stroke="white" stroke-width="1"/>
<text x="305.0" y="100.1" font-size="9" fill="#3b82f6" text-anchor="middle" font-family="system-ui, -apple-system, sans-serif" font-weight="600" opacity="0.9">v0.7.0</text>
<circle cx="339.6" cy="58.2" r="3" fill="#3b82f6" stroke="white" stroke-width="1"/>
<text x="339.6" y="50.2" font-size="9" fill="#3b82f6" text-anchor="middle" font-family="system-ui, -apple-system, sans-serif" font-weight="600" opacity="0.9">v0.7.0</text>
<circle cx="374.1" cy="107.6" r="3" fill="#3b82f6" stroke="white" stroke-width="1"/>
<text x="374.1" y="99.6" font-size="9" fill="#3b82f6" text-anchor="middle" font-family="system-ui, -apple-system, sans-serif" font-weight="600" opacity="0.9">v0.8.0</text>
<circle cx="408.7" cy="107.0" r="3" fill="#3b82f6" stroke="white" stroke-width="1"/>
<text x="408.7" y="99.0" font-size="9" fill="#3b82f6" text-anchor="middle" font-family="system-ui, -apple-system, sans-serif" font-weight="600" opacity="0.9">v0.8.0</text>
<circle cx="443.3" cy="110.8" r="3" fill="#3b82f6" stroke="white" stroke-width="1"/>
<text x="443.3" y="102.8" font-size="9" fill="#3b82f6" text-anchor="middle" font-family="system-ui, -apple-system, sans-serif" font-weight="600" opacity="0.9">v0.8.0</text>
<circle cx="477.9" cy="107.1" r="3" fill="#3b82f6" stroke="white" stroke-width="1"/>
<text x="477.9" y="99.1" font-size="9" fill="#3b82f6" text-anchor="middle" font-family="system-ui, -apple-system, sans-serif" font-weight="600" opacity="0.9">v0.8.0</text>
<circle cx="512.4" cy="106.3" r="3" fill="#3b82f6" stroke="white" stroke-width="1"/>
<text x="512.4" y="98.3" font-size="9" fill="#3b82f6" text-anchor="middle" font-family="system-ui, -apple-system, sans-serif" font-weight="600" opacity="0.9">v0.8.0</text>
<circle cx="547.0" cy="110.1" r="3" fill="#3b82f6" stroke="white" stroke-width="1"/>
<text x="547.0" y="102.1" font-size="9" fill="#3b82f6" text-anchor="middle" font-family="system-ui, -apple-system, sans-serif" font-weight="600" opacity="0.9">v0.8.0</text>
</svg>