<svg width="615" height="120" viewBox="0 0 615 120" xmlns="http://www.w3.org/2000/svg">
<rect width="615" height="120" fill="transparent"/>
<line x1="63" y1="67.5" x2="547" y2="67.5" stroke="currentColor" stroke-width="0.5" opacity="0.2" stroke-dasharray="2,2"/>
<polyline fill="none" stroke="#3b82f6" stroke-width="2" points="48.0,81.7 100.2,81.2 137.5,85.9 174.7,81.6 211.9,98.9 249.2,105.7 286.4,112.0 323.6,100.1 360.8,23.0 398.1,68.7 435.3,69.6 472.5,67.7 509.8,62.5 547.0,67.3" stroke-linecap="round" stroke-linejoin="round"/>
<circle cx="48.0" cy="81.7" r="3" fill="#3b82f6" stroke="white" stroke-width="1"/>
<text x="48.0" y="73.7" font-size="9" fill="#3b82f6" text-anchor="middle" font-family="system-ui, -apple-system, sans-serif" font-weight="600" opacity="0.9">v0.4.1</text>
<circle cx="100.2" cy="81.2" r="3" fill="#3b82f6" stroke="white" stroke-width="1"/>
<text x="100.2" y="73.2" font-size="9" fill="#3b82f6" text-anchor="middle" font-family="system-ui, -apple-system, sans-serif" font-weight="600" opacity="0.9">v0.4.1</text>
<circle cx="137.5" cy="85.9" r="3" fill="#3b82f6" stroke="white" stroke-width="1"/>
<text x="137.5" y="77.9" font-size="9" fill="#3b82f6" text-anchor="middle" font-family="system-ui, -apple-system, sans-serif" font-weight="600" opacity="0.9">v0.5.0</text>
<circle cx="174.7" cy="81.6" r="3" fill="#3b82f6" stroke="white" stroke-width="1"/>
<text x="174.7" y="73.6" font-size="9" fill="#3b82f6" text-anchor="middle" font-family="system-ui, -apple-system, sans-serif" font-weight="600" opacity="0.9">v0.5.0</text>
<circle cx="211.9" cy="98.9" r="3" fill="#3b82f6" stroke="white" stroke-width="1"/>
<text x="211.9" y="90.9" font-size="9" fill="#3b82f6" text-anchor="middle" font-family="system-ui, -apple-system, sans-serif" font-weight="600" opacity="0.9">v0.6.0</text>
<circle cx="249.2" cy="105.7" r="3" fill="#3b82f6" stroke="white" stroke-width="1"/>
<text x="249.2" y="97.7" font-size="9" fill="#3b82f6" text-anchor="middle" font-family="system-ui, -apple-system, sans-serif" font-weight="600" opacity="0.9">v0.6.1</text>
<circle cx="286.4" cy="112.0" r="3" fill="#3b82f6" stroke="white" stroke-width="1"/>
<text x="286.4" y="104.0" font-size="9" fill="#3b82f6" text-anchor="middle" font-family="system-ui, -apple-system, sans-serif" font-weight="600" opacity="0.9">v0.7.0 (86.8 ops/s)</text>
<circle cx="323.6" cy="100.1" r="3" fill="#3b82f6" stroke="white" stroke-width="1"/>
<text x="323.6" y="92.1" font-size="9" fill="#3b82f6" text-anchor="middle" font-family="system-ui, -apple-system, sans-serif" font-weight="600" opacity="0.9">v0.7.0</text>
<circle cx="360.8" cy="23.0" r="3" fill="#3b82f6" stroke="white" stroke-width="1"/>
<text x="360.8" y="17.0" font-size="9" fill="#3b82f6" text-anchor="middle" font-family="system-ui, -apple-system, sans-serif" font-weight="600" opacity="0.9">v0.7.0 (157.8 ops/s)</text>
<circle cx="398.1" cy="68.7" r="3" fill="#3b82f6" stroke="white" stroke-width="1"/>
<text x="398.1" y="60.7" font-size="9" fill="#3b82f6" text-anchor="middle" font-family="system-ui, -apple-system, sans-serif" font-weight="600" opacity="0.9">v0.8.0</text>
<circle cx="435.3" cy="69.6" r="3" fill="#3b82f6" stroke="white" stroke-width="1"/>
<text x="435.3" y="61.6" font-size="9" fill="#3b82f6" text-anchor="middle" font-family="system-ui, -apple-system, sans-serif" font-weight="600" opacity="0.9">v0.8.0</text>
<circle cx="472.5" cy="67.7" r="3" fill="#3b82f6" stroke="white" stroke-width="1"/>
<text x="472.5" y="59.7" font-size="9" fill="#3b82f6" text-anchor="middle" font-family="system-ui, -apple-system, sans-serif" font-weight="600" opacity="0.9">v0.8.0</text>
<circle cx="509.8" cy="62.5" r="3" fill="#3b82f6" stroke="white" stroke-width="1"/>
<text x="509.8" y="54.5" font-size="9" fill="#3b82f6" text-anchor="middle" font-family="system-ui, -apple-system, sans-serif" font-weight="600" opacity="0.9">v0.8.0</text>
<circle cx="547.0" cy="67.3" r="3" fill="#3b82f6" stroke="white" stroke-width="1"/>
<text x="547.0" y="59.3" font-size="9" fill="#3b82f6" text-anchor="middle" font-family="system-ui, -apple-system, sans-serif" font-weight="600" opacity="0.9">v0.8.0</text>
</svg>