<svg width="615" height="120" viewBox="0 0 615 120" xmlns="http://www.w3.org/2000/svg">
<rect width="615" height="120" fill="transparent"/>
<line x1="63" y1="67.5" x2="547" y2="67.5" stroke="currentColor" stroke-width="0.5" opacity="0.2" stroke-dasharray="2,2"/>
<polyline fill="none" stroke="#3b82f6" stroke-width="2" points="48.0,69.8 91.5,56.1 119.9,55.9 148.4,58.0 176.9,65.6 205.4,105.8 233.8,103.4 262.3,95.6 290.8,23.0 319.2,96.3 347.7,96.2 376.2,104.5 404.6,97.1 433.1,112.0 461.6,103.6 490.1,93.2 518.5,104.2 547.0,98.5" stroke-linecap="round" stroke-linejoin="round"/>
<circle cx="48.0" cy="69.8" r="3" fill="#3b82f6" stroke="white" stroke-width="1"/>
<text x="48.0" y="61.8" font-size="9" fill="#3b82f6" text-anchor="middle" font-family="system-ui, -apple-system, sans-serif" font-weight="600" opacity="0.9">v0.4.1</text>
<circle cx="91.5" cy="56.1" r="3" fill="#3b82f6" stroke="white" stroke-width="1"/>
<text x="91.5" y="48.1" font-size="9" fill="#3b82f6" text-anchor="middle" font-family="system-ui, -apple-system, sans-serif" font-weight="600" opacity="0.9">v0.4.1</text>
<circle cx="119.9" cy="55.9" r="3" fill="#3b82f6" stroke="white" stroke-width="1"/>
<text x="119.9" y="47.9" font-size="9" fill="#3b82f6" text-anchor="middle" font-family="system-ui, -apple-system, sans-serif" font-weight="600" opacity="0.9">v0.5.0</text>
<circle cx="148.4" cy="58.0" r="3" fill="#3b82f6" stroke="white" stroke-width="1"/>
<text x="148.4" y="50.0" font-size="9" fill="#3b82f6" text-anchor="middle" font-family="system-ui, -apple-system, sans-serif" font-weight="600" opacity="0.9">v0.5.0</text>
<circle cx="176.9" cy="65.6" r="3" fill="#3b82f6" stroke="white" stroke-width="1"/>
<text x="176.9" y="57.6" font-size="9" fill="#3b82f6" text-anchor="middle" font-family="system-ui, -apple-system, sans-serif" font-weight="600" opacity="0.9">v0.6.0</text>
<circle cx="205.4" cy="105.8" r="3" fill="#3b82f6" stroke="white" stroke-width="1"/>
<text x="205.4" y="97.8" font-size="9" fill="#3b82f6" text-anchor="middle" font-family="system-ui, -apple-system, sans-serif" font-weight="600" opacity="0.9">v0.6.1</text>
<circle cx="233.8" cy="103.4" r="3" fill="#3b82f6" stroke="white" stroke-width="1"/>
<text x="233.8" y="95.4" font-size="9" fill="#3b82f6" text-anchor="middle" font-family="system-ui, -apple-system, sans-serif" font-weight="600" opacity="0.9">v0.7.0</text>
<circle cx="262.3" cy="95.6" r="3" fill="#3b82f6" stroke="white" stroke-width="1"/>
<text x="262.3" y="87.6" font-size="9" fill="#3b82f6" text-anchor="middle" font-family="system-ui, -apple-system, sans-serif" font-weight="600" opacity="0.9">v0.7.0</text>
<circle cx="290.8" cy="23.0" r="3" fill="#3b82f6" stroke="white" stroke-width="1"/>
<text x="290.8" y="17.0" font-size="9" fill="#3b82f6" text-anchor="middle" font-family="system-ui, -apple-system, sans-serif" font-weight="600" opacity="0.9">v0.7.0 (984.3 ops/s)</text>
<circle cx="319.2" cy="96.3" r="3" fill="#3b82f6" stroke="white" stroke-width="1"/>
<text x="319.2" y="88.3" font-size="9" fill="#3b82f6" text-anchor="middle" font-family="system-ui, -apple-system, sans-serif" font-weight="600" opacity="0.9">v0.8.0</text>
<circle cx="347.7" cy="96.2" r="3" fill="#3b82f6" stroke="white" stroke-width="1"/>
<text x="347.7" y="88.2" font-size="9" fill="#3b82f6" text-anchor="middle" font-family="system-ui, -apple-system, sans-serif" font-weight="600" opacity="0.9">v0.8.0</text>
<circle cx="376.2" cy="104.5" r="3" fill="#3b82f6" stroke="white" stroke-width="1"/>
<text x="376.2" y="96.5" font-size="9" fill="#3b82f6" text-anchor="middle" font-family="system-ui, -apple-system, sans-serif" font-weight="600" opacity="0.9">v0.8.0</text>
<circle cx="404.6" cy="97.1" r="3" fill="#3b82f6" stroke="white" stroke-width="1"/>
<text x="404.6" y="89.1" font-size="9" fill="#3b82f6" text-anchor="middle" font-family="system-ui, -apple-system, sans-serif" font-weight="600" opacity="0.9">v0.8.0</text>
<circle cx="433.1" cy="112.0" r="3" fill="#3b82f6" stroke="white" stroke-width="1"/>
<text x="433.1" y="104.0" font-size="9" fill="#3b82f6" text-anchor="middle" font-family="system-ui, -apple-system, sans-serif" font-weight="600" opacity="0.9">v0.8.0 (747.3 ops/s)</text>
<circle cx="461.6" cy="103.6" r="3" fill="#3b82f6" stroke="white" stroke-width="1"/>
<text x="461.6" y="95.6" font-size="9" fill="#3b82f6" text-anchor="middle" font-family="system-ui, -apple-system, sans-serif" font-weight="600" opacity="0.9">v0.8.0</text>
<circle cx="490.1" cy="93.2" r="3" fill="#3b82f6" stroke="white" stroke-width="1"/>
<text x="490.1" y="85.2" font-size="9" fill="#3b82f6" text-anchor="middle" font-family="system-ui, -apple-system, sans-serif" font-weight="600" opacity="0.9">v0.9.0</text>
<circle cx="518.5" cy="104.2" r="3" fill="#3b82f6" stroke="white" stroke-width="1"/>
<text x="518.5" y="96.2" font-size="9" fill="#3b82f6" text-anchor="middle" font-family="system-ui, -apple-system, sans-serif" font-weight="600" opacity="0.9">v0.9.0</text>
<circle cx="547.0" cy="98.5" r="3" fill="#3b82f6" stroke="white" stroke-width="1"/>
<text x="547.0" y="90.5" font-size="9" fill="#3b82f6" text-anchor="middle" font-family="system-ui, -apple-system, sans-serif" font-weight="600" opacity="0.9">v0.10.0</text>
</svg>