<svg width="615" height="120" viewBox="0 0 615 120" xmlns="http://www.w3.org/2000/svg">
<rect width="615" height="120" fill="transparent"/>
<line x1="63" y1="67.5" x2="547" y2="67.5" stroke="currentColor" stroke-width="0.5" opacity="0.2" stroke-dasharray="2,2"/>
<polyline fill="none" stroke="#3b82f6" stroke-width="2" points="48.0,82.9 91.5,56.7 119.9,54.1 148.4,53.6 176.9,84.6 205.4,108.0 233.8,103.8 262.3,110.7 290.8,23.0 319.2,110.7 347.7,111.0 376.2,106.8 404.6,109.7 433.1,109.3 461.6,103.0 490.1,112.0 518.5,101.0 547.0,110.0" stroke-linecap="round" stroke-linejoin="round"/>
<circle cx="48.0" cy="82.9" r="3" fill="#3b82f6" stroke="white" stroke-width="1"/>
<text x="48.0" y="74.9" font-size="9" fill="#3b82f6" text-anchor="middle" font-family="system-ui, -apple-system, sans-serif" font-weight="600" opacity="0.9">v0.4.1</text>
<circle cx="91.5" cy="56.7" r="3" fill="#3b82f6" stroke="white" stroke-width="1"/>
<text x="91.5" y="48.7" font-size="9" fill="#3b82f6" text-anchor="middle" font-family="system-ui, -apple-system, sans-serif" font-weight="600" opacity="0.9">v0.4.1</text>
<circle cx="119.9" cy="54.1" r="3" fill="#3b82f6" stroke="white" stroke-width="1"/>
<text x="119.9" y="46.1" font-size="9" fill="#3b82f6" text-anchor="middle" font-family="system-ui, -apple-system, sans-serif" font-weight="600" opacity="0.9">v0.5.0</text>
<circle cx="148.4" cy="53.6" r="3" fill="#3b82f6" stroke="white" stroke-width="1"/>
<text x="148.4" y="45.6" font-size="9" fill="#3b82f6" text-anchor="middle" font-family="system-ui, -apple-system, sans-serif" font-weight="600" opacity="0.9">v0.5.0</text>
<circle cx="176.9" cy="84.6" r="3" fill="#3b82f6" stroke="white" stroke-width="1"/>
<text x="176.9" y="76.6" font-size="9" fill="#3b82f6" text-anchor="middle" font-family="system-ui, -apple-system, sans-serif" font-weight="600" opacity="0.9">v0.6.0</text>
<circle cx="205.4" cy="108.0" r="3" fill="#3b82f6" stroke="white" stroke-width="1"/>
<text x="205.4" y="100.0" font-size="9" fill="#3b82f6" text-anchor="middle" font-family="system-ui, -apple-system, sans-serif" font-weight="600" opacity="0.9">v0.6.1</text>
<circle cx="233.8" cy="103.8" r="3" fill="#3b82f6" stroke="white" stroke-width="1"/>
<text x="233.8" y="95.8" font-size="9" fill="#3b82f6" text-anchor="middle" font-family="system-ui, -apple-system, sans-serif" font-weight="600" opacity="0.9">v0.7.0</text>
<circle cx="262.3" cy="110.7" r="3" fill="#3b82f6" stroke="white" stroke-width="1"/>
<text x="262.3" y="102.7" font-size="9" fill="#3b82f6" text-anchor="middle" font-family="system-ui, -apple-system, sans-serif" font-weight="600" opacity="0.9">v0.7.0</text>
<circle cx="290.8" cy="23.0" r="3" fill="#3b82f6" stroke="white" stroke-width="1"/>
<text x="290.8" y="17.0" font-size="9" fill="#3b82f6" text-anchor="middle" font-family="system-ui, -apple-system, sans-serif" font-weight="600" opacity="0.9">v0.7.0 (3.12K ops/s)</text>
<circle cx="319.2" cy="110.7" r="3" fill="#3b82f6" stroke="white" stroke-width="1"/>
<text x="319.2" y="102.7" font-size="9" fill="#3b82f6" text-anchor="middle" font-family="system-ui, -apple-system, sans-serif" font-weight="600" opacity="0.9">v0.8.0</text>
<circle cx="347.7" cy="111.0" r="3" fill="#3b82f6" stroke="white" stroke-width="1"/>
<text x="347.7" y="103.0" font-size="9" fill="#3b82f6" text-anchor="middle" font-family="system-ui, -apple-system, sans-serif" font-weight="600" opacity="0.9">v0.8.0</text>
<circle cx="376.2" cy="106.8" r="3" fill="#3b82f6" stroke="white" stroke-width="1"/>
<text x="376.2" y="98.8" font-size="9" fill="#3b82f6" text-anchor="middle" font-family="system-ui, -apple-system, sans-serif" font-weight="600" opacity="0.9">v0.8.0</text>
<circle cx="404.6" cy="109.7" r="3" fill="#3b82f6" stroke="white" stroke-width="1"/>
<text x="404.6" y="101.7" font-size="9" fill="#3b82f6" text-anchor="middle" font-family="system-ui, -apple-system, sans-serif" font-weight="600" opacity="0.9">v0.8.0</text>
<circle cx="433.1" cy="109.3" r="3" fill="#3b82f6" stroke="white" stroke-width="1"/>
<text x="433.1" y="101.3" font-size="9" fill="#3b82f6" text-anchor="middle" font-family="system-ui, -apple-system, sans-serif" font-weight="600" opacity="0.9">v0.8.0</text>
<circle cx="461.6" cy="103.0" r="3" fill="#3b82f6" stroke="white" stroke-width="1"/>
<text x="461.6" y="95.0" font-size="9" fill="#3b82f6" text-anchor="middle" font-family="system-ui, -apple-system, sans-serif" font-weight="600" opacity="0.9">v0.8.0</text>
<circle cx="490.1" cy="112.0" r="3" fill="#3b82f6" stroke="white" stroke-width="1"/>
<text x="490.1" y="104.0" font-size="9" fill="#3b82f6" text-anchor="middle" font-family="system-ui, -apple-system, sans-serif" font-weight="600" opacity="0.9">v0.9.0 (2.41K ops/s)</text>
<circle cx="518.5" cy="101.0" r="3" fill="#3b82f6" stroke="white" stroke-width="1"/>
<text x="518.5" y="93.0" font-size="9" fill="#3b82f6" text-anchor="middle" font-family="system-ui, -apple-system, sans-serif" font-weight="600" opacity="0.9">v0.9.0</text>
<circle cx="547.0" cy="110.0" r="3" fill="#3b82f6" stroke="white" stroke-width="1"/>
<text x="547.0" y="102.0" font-size="9" fill="#3b82f6" text-anchor="middle" font-family="system-ui, -apple-system, sans-serif" font-weight="600" opacity="0.9">v0.10.0</text>
</svg>