<svg width="615" height="120" viewBox="0 0 615 120" xmlns="http://www.w3.org/2000/svg">
<rect width="615" height="120" fill="transparent"/>
<line x1="63" y1="67.5" x2="547" y2="67.5" stroke="currentColor" stroke-width="0.5" opacity="0.2" stroke-dasharray="2,2"/>
<polyline fill="none" stroke="#3b82f6" stroke-width="2" points="48.0,41.2 97.6,27.8 132.1,25.8 166.7,29.0 201.3,72.7 235.9,90.5 270.4,88.2 305.0,112.0 339.6,23.0 374.1,86.8 408.7,86.9 443.3,83.5 477.9,85.0 512.4,86.1 547.0,89.9" stroke-linecap="round" stroke-linejoin="round"/>
<circle cx="48.0" cy="41.2" r="3" fill="#3b82f6" stroke="white" stroke-width="1"/>
<text x="48.0" y="33.2" font-size="9" fill="#3b82f6" text-anchor="middle" font-family="system-ui, -apple-system, sans-serif" font-weight="600" opacity="0.9">v0.4.1</text>
<circle cx="97.6" cy="27.8" r="3" fill="#3b82f6" stroke="white" stroke-width="1"/>
<text x="97.6" y="19.8" font-size="9" fill="#3b82f6" text-anchor="middle" font-family="system-ui, -apple-system, sans-serif" font-weight="600" opacity="0.9">v0.4.1</text>
<circle cx="132.1" cy="25.8" r="3" fill="#3b82f6" stroke="white" stroke-width="1"/>
<text x="132.1" y="17.8" font-size="9" fill="#3b82f6" text-anchor="middle" font-family="system-ui, -apple-system, sans-serif" font-weight="600" opacity="0.9">v0.5.0</text>
<circle cx="166.7" cy="29.0" r="3" fill="#3b82f6" stroke="white" stroke-width="1"/>
<text x="166.7" y="21.0" font-size="9" fill="#3b82f6" text-anchor="middle" font-family="system-ui, -apple-system, sans-serif" font-weight="600" opacity="0.9">v0.5.0</text>
<circle cx="201.3" cy="72.7" r="3" fill="#3b82f6" stroke="white" stroke-width="1"/>
<text x="201.3" y="64.7" font-size="9" fill="#3b82f6" text-anchor="middle" font-family="system-ui, -apple-system, sans-serif" font-weight="600" opacity="0.9">v0.6.0</text>
<circle cx="235.9" cy="90.5" r="3" fill="#3b82f6" stroke="white" stroke-width="1"/>
<text x="235.9" y="82.5" font-size="9" fill="#3b82f6" text-anchor="middle" font-family="system-ui, -apple-system, sans-serif" font-weight="600" opacity="0.9">v0.6.1</text>
<circle cx="270.4" cy="88.2" r="3" fill="#3b82f6" stroke="white" stroke-width="1"/>
<text x="270.4" y="80.2" font-size="9" fill="#3b82f6" text-anchor="middle" font-family="system-ui, -apple-system, sans-serif" font-weight="600" opacity="0.9">v0.7.0</text>
<circle cx="305.0" cy="112.0" r="3" fill="#3b82f6" stroke="white" stroke-width="1"/>
<text x="305.0" y="104.0" font-size="9" fill="#3b82f6" text-anchor="middle" font-family="system-ui, -apple-system, sans-serif" font-weight="600" opacity="0.9">v0.7.0 (648.5 ops/s)</text>
<circle cx="339.6" cy="23.0" r="3" fill="#3b82f6" stroke="white" stroke-width="1"/>
<text x="339.6" y="17.0" font-size="9" fill="#3b82f6" text-anchor="middle" font-family="system-ui, -apple-system, sans-serif" font-weight="600" opacity="0.9">v0.7.0 (878.6 ops/s)</text>
<circle cx="374.1" cy="86.8" r="3" fill="#3b82f6" stroke="white" stroke-width="1"/>
<text x="374.1" y="78.8" font-size="9" fill="#3b82f6" text-anchor="middle" font-family="system-ui, -apple-system, sans-serif" font-weight="600" opacity="0.9">v0.8.0</text>
<circle cx="408.7" cy="86.9" r="3" fill="#3b82f6" stroke="white" stroke-width="1"/>
<text x="408.7" y="78.9" font-size="9" fill="#3b82f6" text-anchor="middle" font-family="system-ui, -apple-system, sans-serif" font-weight="600" opacity="0.9">v0.8.0</text>
<circle cx="443.3" cy="83.5" r="3" fill="#3b82f6" stroke="white" stroke-width="1"/>
<text x="443.3" y="75.5" font-size="9" fill="#3b82f6" text-anchor="middle" font-family="system-ui, -apple-system, sans-serif" font-weight="600" opacity="0.9">v0.8.0</text>
<circle cx="477.9" cy="85.0" r="3" fill="#3b82f6" stroke="white" stroke-width="1"/>
<text x="477.9" y="77.0" font-size="9" fill="#3b82f6" text-anchor="middle" font-family="system-ui, -apple-system, sans-serif" font-weight="600" opacity="0.9">v0.8.0</text>
<circle cx="512.4" cy="86.1" r="3" fill="#3b82f6" stroke="white" stroke-width="1"/>
<text x="512.4" y="78.1" font-size="9" fill="#3b82f6" text-anchor="middle" font-family="system-ui, -apple-system, sans-serif" font-weight="600" opacity="0.9">v0.8.0</text>
<circle cx="547.0" cy="89.9" r="3" fill="#3b82f6" stroke="white" stroke-width="1"/>
<text x="547.0" y="81.9" font-size="9" fill="#3b82f6" text-anchor="middle" font-family="system-ui, -apple-system, sans-serif" font-weight="600" opacity="0.9">v0.8.0</text>
</svg>