<svg width="615" height="120" viewBox="0 0 615 120" xmlns="http://www.w3.org/2000/svg">
<rect width="615" height="120" fill="transparent"/>
<line x1="63" y1="67.5" x2="547" y2="67.5" stroke="currentColor" stroke-width="0.5" opacity="0.2" stroke-dasharray="2,2"/>
<polyline fill="none" stroke="#3b82f6" stroke-width="2" points="48.0,112.0 93.2,82.1 123.5,90.1 153.8,80.4 184.0,105.9 214.2,100.5 244.5,96.9 274.8,110.8 305.0,23.0 335.2,88.0 365.5,89.5 395.8,92.7 426.0,89.5 456.2,82.2 486.5,87.1 516.8,84.5 547.0,82.2" stroke-linecap="round" stroke-linejoin="round"/>
<circle cx="48.0" cy="112.0" r="3" fill="#3b82f6" stroke="white" stroke-width="1"/>
<text x="48.0" y="104.0" font-size="9" fill="#3b82f6" text-anchor="middle" font-family="system-ui, -apple-system, sans-serif" font-weight="600" opacity="0.9">v0.4.1 (14.5 ops/s)</text>
<circle cx="93.2" cy="82.1" r="3" fill="#3b82f6" stroke="white" stroke-width="1"/>
<text x="93.2" y="74.1" font-size="9" fill="#3b82f6" text-anchor="middle" font-family="system-ui, -apple-system, sans-serif" font-weight="600" opacity="0.9">v0.4.1</text>
<circle cx="123.5" cy="90.1" r="3" fill="#3b82f6" stroke="white" stroke-width="1"/>
<text x="123.5" y="82.1" font-size="9" fill="#3b82f6" text-anchor="middle" font-family="system-ui, -apple-system, sans-serif" font-weight="600" opacity="0.9">v0.5.0</text>
<circle cx="153.8" cy="80.4" r="3" fill="#3b82f6" stroke="white" stroke-width="1"/>
<text x="153.8" y="72.4" font-size="9" fill="#3b82f6" text-anchor="middle" font-family="system-ui, -apple-system, sans-serif" font-weight="600" opacity="0.9">v0.5.0</text>
<circle cx="184.0" cy="105.9" r="3" fill="#3b82f6" stroke="white" stroke-width="1"/>
<text x="184.0" y="97.9" font-size="9" fill="#3b82f6" text-anchor="middle" font-family="system-ui, -apple-system, sans-serif" font-weight="600" opacity="0.9">v0.6.0</text>
<circle cx="214.2" cy="100.5" r="3" fill="#3b82f6" stroke="white" stroke-width="1"/>
<text x="214.2" y="92.5" font-size="9" fill="#3b82f6" text-anchor="middle" font-family="system-ui, -apple-system, sans-serif" font-weight="600" opacity="0.9">v0.6.1</text>
<circle cx="244.5" cy="96.9" r="3" fill="#3b82f6" stroke="white" stroke-width="1"/>
<text x="244.5" y="88.9" font-size="9" fill="#3b82f6" text-anchor="middle" font-family="system-ui, -apple-system, sans-serif" font-weight="600" opacity="0.9">v0.7.0</text>
<circle cx="274.8" cy="110.8" r="3" fill="#3b82f6" stroke="white" stroke-width="1"/>
<text x="274.8" y="102.8" font-size="9" fill="#3b82f6" text-anchor="middle" font-family="system-ui, -apple-system, sans-serif" font-weight="600" opacity="0.9">v0.7.0</text>
<circle cx="305.0" cy="23.0" r="3" fill="#3b82f6" stroke="white" stroke-width="1"/>
<text x="305.0" y="17.0" font-size="9" fill="#3b82f6" text-anchor="middle" font-family="system-ui, -apple-system, sans-serif" font-weight="600" opacity="0.9">v0.7.0 (20.6 ops/s)</text>
<circle cx="335.2" cy="88.0" r="3" fill="#3b82f6" stroke="white" stroke-width="1"/>
<text x="335.2" y="80.0" font-size="9" fill="#3b82f6" text-anchor="middle" font-family="system-ui, -apple-system, sans-serif" font-weight="600" opacity="0.9">v0.8.0</text>
<circle cx="365.5" cy="89.5" r="3" fill="#3b82f6" stroke="white" stroke-width="1"/>
<text x="365.5" y="81.5" font-size="9" fill="#3b82f6" text-anchor="middle" font-family="system-ui, -apple-system, sans-serif" font-weight="600" opacity="0.9">v0.8.0</text>
<circle cx="395.8" cy="92.7" r="3" fill="#3b82f6" stroke="white" stroke-width="1"/>
<text x="395.8" y="84.7" font-size="9" fill="#3b82f6" text-anchor="middle" font-family="system-ui, -apple-system, sans-serif" font-weight="600" opacity="0.9">v0.8.0</text>
<circle cx="426.0" cy="89.5" r="3" fill="#3b82f6" stroke="white" stroke-width="1"/>
<text x="426.0" y="81.5" font-size="9" fill="#3b82f6" text-anchor="middle" font-family="system-ui, -apple-system, sans-serif" font-weight="600" opacity="0.9">v0.8.0</text>
<circle cx="456.2" cy="82.2" r="3" fill="#3b82f6" stroke="white" stroke-width="1"/>
<text x="456.2" y="74.2" font-size="9" fill="#3b82f6" text-anchor="middle" font-family="system-ui, -apple-system, sans-serif" font-weight="600" opacity="0.9">v0.8.0</text>
<circle cx="486.5" cy="87.1" r="3" fill="#3b82f6" stroke="white" stroke-width="1"/>
<text x="486.5" y="79.1" font-size="9" fill="#3b82f6" text-anchor="middle" font-family="system-ui, -apple-system, sans-serif" font-weight="600" opacity="0.9">v0.8.0</text>
<circle cx="516.8" cy="84.5" r="3" fill="#3b82f6" stroke="white" stroke-width="1"/>
<text x="516.8" y="76.5" font-size="9" fill="#3b82f6" text-anchor="middle" font-family="system-ui, -apple-system, sans-serif" font-weight="600" opacity="0.9">v0.9.0</text>
<circle cx="547.0" cy="82.2" r="3" fill="#3b82f6" stroke="white" stroke-width="1"/>
<text x="547.0" y="74.2" font-size="9" fill="#3b82f6" text-anchor="middle" font-family="system-ui, -apple-system, sans-serif" font-weight="600" opacity="0.9">v0.9.0</text>
</svg>