<svg width="615" height="120" viewBox="0 0 615 120" xmlns="http://www.w3.org/2000/svg">
<rect width="615" height="120" fill="transparent"/>
<line x1="63" y1="67.5" x2="547" y2="67.5" stroke="currentColor" stroke-width="0.5" opacity="0.2" stroke-dasharray="2,2"/>
<polyline fill="none" stroke="#3b82f6" stroke-width="2" points="48.0,112.0 93.2,80.1 123.5,89.8 153.8,81.5 184.0,100.3 214.2,103.2 244.5,90.4 274.8,106.9 305.0,23.0 335.2,93.1 365.5,93.5 395.8,94.2 426.0,94.4 456.2,84.6 486.5,80.6 516.8,89.3 547.0,72.6" stroke-linecap="round" stroke-linejoin="round"/>
<circle cx="48.0" cy="112.0" r="3" fill="#3b82f6" stroke="white" stroke-width="1"/>
<text x="48.0" y="104.0" font-size="9" fill="#3b82f6" text-anchor="middle" font-family="system-ui, -apple-system, sans-serif" font-weight="600" opacity="0.9">v0.4.1 (21.3 ops/s)</text>
<circle cx="93.2" cy="80.1" r="3" fill="#3b82f6" stroke="white" stroke-width="1"/>
<text x="93.2" y="72.1" font-size="9" fill="#3b82f6" text-anchor="middle" font-family="system-ui, -apple-system, sans-serif" font-weight="600" opacity="0.9">v0.4.1</text>
<circle cx="123.5" cy="89.8" r="3" fill="#3b82f6" stroke="white" stroke-width="1"/>
<text x="123.5" y="81.8" font-size="9" fill="#3b82f6" text-anchor="middle" font-family="system-ui, -apple-system, sans-serif" font-weight="600" opacity="0.9">v0.5.0</text>
<circle cx="153.8" cy="81.5" r="3" fill="#3b82f6" stroke="white" stroke-width="1"/>
<text x="153.8" y="73.5" font-size="9" fill="#3b82f6" text-anchor="middle" font-family="system-ui, -apple-system, sans-serif" font-weight="600" opacity="0.9">v0.5.0</text>
<circle cx="184.0" cy="100.3" r="3" fill="#3b82f6" stroke="white" stroke-width="1"/>
<text x="184.0" y="92.3" font-size="9" fill="#3b82f6" text-anchor="middle" font-family="system-ui, -apple-system, sans-serif" font-weight="600" opacity="0.9">v0.6.0</text>
<circle cx="214.2" cy="103.2" r="3" fill="#3b82f6" stroke="white" stroke-width="1"/>
<text x="214.2" y="95.2" font-size="9" fill="#3b82f6" text-anchor="middle" font-family="system-ui, -apple-system, sans-serif" font-weight="600" opacity="0.9">v0.6.1</text>
<circle cx="244.5" cy="90.4" r="3" fill="#3b82f6" stroke="white" stroke-width="1"/>
<text x="244.5" y="82.4" font-size="9" fill="#3b82f6" text-anchor="middle" font-family="system-ui, -apple-system, sans-serif" font-weight="600" opacity="0.9">v0.7.0</text>
<circle cx="274.8" cy="106.9" r="3" fill="#3b82f6" stroke="white" stroke-width="1"/>
<text x="274.8" y="98.9" font-size="9" fill="#3b82f6" text-anchor="middle" font-family="system-ui, -apple-system, sans-serif" font-weight="600" opacity="0.9">v0.7.0</text>
<circle cx="305.0" cy="23.0" r="3" fill="#3b82f6" stroke="white" stroke-width="1"/>
<text x="305.0" y="17.0" font-size="9" fill="#3b82f6" text-anchor="middle" font-family="system-ui, -apple-system, sans-serif" font-weight="600" opacity="0.9">v0.7.0 (29.5 ops/s)</text>
<circle cx="335.2" cy="93.1" r="3" fill="#3b82f6" stroke="white" stroke-width="1"/>
<text x="335.2" y="85.1" font-size="9" fill="#3b82f6" text-anchor="middle" font-family="system-ui, -apple-system, sans-serif" font-weight="600" opacity="0.9">v0.8.0</text>
<circle cx="365.5" cy="93.5" r="3" fill="#3b82f6" stroke="white" stroke-width="1"/>
<text x="365.5" y="85.5" font-size="9" fill="#3b82f6" text-anchor="middle" font-family="system-ui, -apple-system, sans-serif" font-weight="600" opacity="0.9">v0.8.0</text>
<circle cx="395.8" cy="94.2" r="3" fill="#3b82f6" stroke="white" stroke-width="1"/>
<text x="395.8" y="86.2" font-size="9" fill="#3b82f6" text-anchor="middle" font-family="system-ui, -apple-system, sans-serif" font-weight="600" opacity="0.9">v0.8.0</text>
<circle cx="426.0" cy="94.4" r="3" fill="#3b82f6" stroke="white" stroke-width="1"/>
<text x="426.0" y="86.4" font-size="9" fill="#3b82f6" text-anchor="middle" font-family="system-ui, -apple-system, sans-serif" font-weight="600" opacity="0.9">v0.8.0</text>
<circle cx="456.2" cy="84.6" r="3" fill="#3b82f6" stroke="white" stroke-width="1"/>
<text x="456.2" y="76.6" font-size="9" fill="#3b82f6" text-anchor="middle" font-family="system-ui, -apple-system, sans-serif" font-weight="600" opacity="0.9">v0.8.0</text>
<circle cx="486.5" cy="80.6" r="3" fill="#3b82f6" stroke="white" stroke-width="1"/>
<text x="486.5" y="72.6" font-size="9" fill="#3b82f6" text-anchor="middle" font-family="system-ui, -apple-system, sans-serif" font-weight="600" opacity="0.9">v0.8.0</text>
<circle cx="516.8" cy="89.3" r="3" fill="#3b82f6" stroke="white" stroke-width="1"/>
<text x="516.8" y="81.3" font-size="9" fill="#3b82f6" text-anchor="middle" font-family="system-ui, -apple-system, sans-serif" font-weight="600" opacity="0.9">v0.9.0</text>
<circle cx="547.0" cy="72.6" r="3" fill="#3b82f6" stroke="white" stroke-width="1"/>
<text x="547.0" y="64.6" font-size="9" fill="#3b82f6" text-anchor="middle" font-family="system-ui, -apple-system, sans-serif" font-weight="600" opacity="0.9">v0.9.0</text>
</svg>