<svg width="615" height="120" viewBox="0 0 615 120" xmlns="http://www.w3.org/2000/svg">
<rect width="615" height="120" fill="transparent"/>
<line x1="63" y1="67.5" x2="547" y2="67.5" stroke="currentColor" stroke-width="0.5" opacity="0.2" stroke-dasharray="2,2"/>
<polyline fill="none" stroke="#3b82f6" stroke-width="2" points="48.0,24.5 97.6,23.0 132.1,24.4 166.7,24.4 201.3,76.1 235.9,110.7 270.4,110.2 305.0,112.0 339.6,48.2 374.1,109.8 408.7,111.1 443.3,108.0 477.9,109.3 512.4,111.5 547.0,107.4" stroke-linecap="round" stroke-linejoin="round"/>
<circle cx="48.0" cy="24.5" r="3" fill="#3b82f6" stroke="white" stroke-width="1"/>
<text x="48.0" y="17.0" font-size="9" fill="#3b82f6" text-anchor="middle" font-family="system-ui, -apple-system, sans-serif" font-weight="600" opacity="0.9">v0.4.1</text>
<circle cx="97.6" cy="23.0" r="3" fill="#3b82f6" stroke="white" stroke-width="1"/>
<text x="97.6" y="17.0" font-size="9" fill="#3b82f6" text-anchor="middle" font-family="system-ui, -apple-system, sans-serif" font-weight="600" opacity="0.9">v0.4.1 (13.24K ops/s)</text>
<circle cx="132.1" cy="24.4" r="3" fill="#3b82f6" stroke="white" stroke-width="1"/>
<text x="132.1" y="17.0" font-size="9" fill="#3b82f6" text-anchor="middle" font-family="system-ui, -apple-system, sans-serif" font-weight="600" opacity="0.9">v0.5.0</text>
<circle cx="166.7" cy="24.4" r="3" fill="#3b82f6" stroke="white" stroke-width="1"/>
<text x="166.7" y="17.0" font-size="9" fill="#3b82f6" text-anchor="middle" font-family="system-ui, -apple-system, sans-serif" font-weight="600" opacity="0.9">v0.5.0</text>
<circle cx="201.3" cy="76.1" r="3" fill="#3b82f6" stroke="white" stroke-width="1"/>
<text x="201.3" y="68.1" font-size="9" fill="#3b82f6" text-anchor="middle" font-family="system-ui, -apple-system, sans-serif" font-weight="600" opacity="0.9">v0.6.0</text>
<circle cx="235.9" cy="110.7" r="3" fill="#3b82f6" stroke="white" stroke-width="1"/>
<text x="235.9" y="102.7" font-size="9" fill="#3b82f6" text-anchor="middle" font-family="system-ui, -apple-system, sans-serif" font-weight="600" opacity="0.9">v0.6.1</text>
<circle cx="270.4" cy="110.2" r="3" fill="#3b82f6" stroke="white" stroke-width="1"/>
<text x="270.4" y="102.2" font-size="9" fill="#3b82f6" text-anchor="middle" font-family="system-ui, -apple-system, sans-serif" font-weight="600" opacity="0.9">v0.7.0</text>
<circle cx="305.0" cy="112.0" r="3" fill="#3b82f6" stroke="white" stroke-width="1"/>
<text x="305.0" y="104.0" font-size="9" fill="#3b82f6" text-anchor="middle" font-family="system-ui, -apple-system, sans-serif" font-weight="600" opacity="0.9">v0.7.0 (9.16K ops/s)</text>
<circle cx="339.6" cy="48.2" r="3" fill="#3b82f6" stroke="white" stroke-width="1"/>
<text x="339.6" y="40.2" font-size="9" fill="#3b82f6" text-anchor="middle" font-family="system-ui, -apple-system, sans-serif" font-weight="600" opacity="0.9">v0.7.0</text>
<circle cx="374.1" cy="109.8" r="3" fill="#3b82f6" stroke="white" stroke-width="1"/>
<text x="374.1" y="101.8" font-size="9" fill="#3b82f6" text-anchor="middle" font-family="system-ui, -apple-system, sans-serif" font-weight="600" opacity="0.9">v0.8.0</text>
<circle cx="408.7" cy="111.1" r="3" fill="#3b82f6" stroke="white" stroke-width="1"/>
<text x="408.7" y="103.1" font-size="9" fill="#3b82f6" text-anchor="middle" font-family="system-ui, -apple-system, sans-serif" font-weight="600" opacity="0.9">v0.8.0</text>
<circle cx="443.3" cy="108.0" r="3" fill="#3b82f6" stroke="white" stroke-width="1"/>
<text x="443.3" y="100.0" font-size="9" fill="#3b82f6" text-anchor="middle" font-family="system-ui, -apple-system, sans-serif" font-weight="600" opacity="0.9">v0.8.0</text>
<circle cx="477.9" cy="109.3" r="3" fill="#3b82f6" stroke="white" stroke-width="1"/>
<text x="477.9" y="101.3" font-size="9" fill="#3b82f6" text-anchor="middle" font-family="system-ui, -apple-system, sans-serif" font-weight="600" opacity="0.9">v0.8.0</text>
<circle cx="512.4" cy="111.5" r="3" fill="#3b82f6" stroke="white" stroke-width="1"/>
<text x="512.4" y="103.5" font-size="9" fill="#3b82f6" text-anchor="middle" font-family="system-ui, -apple-system, sans-serif" font-weight="600" opacity="0.9">v0.8.0</text>
<circle cx="547.0" cy="107.4" r="3" fill="#3b82f6" stroke="white" stroke-width="1"/>
<text x="547.0" y="99.4" font-size="9" fill="#3b82f6" text-anchor="middle" font-family="system-ui, -apple-system, sans-serif" font-weight="600" opacity="0.9">v0.8.0</text>
</svg>