<svg width="615" height="120" viewBox="0 0 615 120" xmlns="http://www.w3.org/2000/svg">
<rect width="615" height="120" fill="transparent"/>
<line x1="63" y1="67.5" x2="547" y2="67.5" stroke="currentColor" stroke-width="0.5" opacity="0.2" stroke-dasharray="2,2"/>
<polyline fill="none" stroke="#3b82f6" stroke-width="2" points="48.0,106.3 91.5,77.3 119.9,72.1 148.4,73.2 176.9,90.3 205.4,112.0 233.8,96.3 262.3,104.4 290.8,23.0 319.2,105.3 347.7,105.3 376.2,101.7 404.6,102.2 433.1,107.0 461.6,97.8 490.1,107.2 518.5,95.0 547.0,105.7" stroke-linecap="round" stroke-linejoin="round"/>
<circle cx="48.0" cy="106.3" r="3" fill="#3b82f6" stroke="white" stroke-width="1"/>
<text x="48.0" y="98.3" font-size="9" fill="#3b82f6" text-anchor="middle" font-family="system-ui, -apple-system, sans-serif" font-weight="600" opacity="0.9">v0.4.1</text>
<circle cx="91.5" cy="77.3" r="3" fill="#3b82f6" stroke="white" stroke-width="1"/>
<text x="91.5" y="69.3" font-size="9" fill="#3b82f6" text-anchor="middle" font-family="system-ui, -apple-system, sans-serif" font-weight="600" opacity="0.9">v0.4.1</text>
<circle cx="119.9" cy="72.1" r="3" fill="#3b82f6" stroke="white" stroke-width="1"/>
<text x="119.9" y="64.1" font-size="9" fill="#3b82f6" text-anchor="middle" font-family="system-ui, -apple-system, sans-serif" font-weight="600" opacity="0.9">v0.5.0</text>
<circle cx="148.4" cy="73.2" r="3" fill="#3b82f6" stroke="white" stroke-width="1"/>
<text x="148.4" y="65.2" font-size="9" fill="#3b82f6" text-anchor="middle" font-family="system-ui, -apple-system, sans-serif" font-weight="600" opacity="0.9">v0.5.0</text>
<circle cx="176.9" cy="90.3" r="3" fill="#3b82f6" stroke="white" stroke-width="1"/>
<text x="176.9" y="82.3" font-size="9" fill="#3b82f6" text-anchor="middle" font-family="system-ui, -apple-system, sans-serif" font-weight="600" opacity="0.9">v0.6.0</text>
<circle cx="205.4" cy="112.0" r="3" fill="#3b82f6" stroke="white" stroke-width="1"/>
<text x="205.4" y="104.0" font-size="9" fill="#3b82f6" text-anchor="middle" font-family="system-ui, -apple-system, sans-serif" font-weight="600" opacity="0.9">v0.6.1 (234.2 ops/s)</text>
<circle cx="233.8" cy="96.3" r="3" fill="#3b82f6" stroke="white" stroke-width="1"/>
<text x="233.8" y="88.3" font-size="9" fill="#3b82f6" text-anchor="middle" font-family="system-ui, -apple-system, sans-serif" font-weight="600" opacity="0.9">v0.7.0</text>
<circle cx="262.3" cy="104.4" r="3" fill="#3b82f6" stroke="white" stroke-width="1"/>
<text x="262.3" y="96.4" font-size="9" fill="#3b82f6" text-anchor="middle" font-family="system-ui, -apple-system, sans-serif" font-weight="600" opacity="0.9">v0.7.0</text>
<circle cx="290.8" cy="23.0" r="3" fill="#3b82f6" stroke="white" stroke-width="1"/>
<text x="290.8" y="17.0" font-size="9" fill="#3b82f6" text-anchor="middle" font-family="system-ui, -apple-system, sans-serif" font-weight="600" opacity="0.9">v0.7.0 (313.2 ops/s)</text>
<circle cx="319.2" cy="105.3" r="3" fill="#3b82f6" stroke="white" stroke-width="1"/>
<text x="319.2" y="97.3" font-size="9" fill="#3b82f6" text-anchor="middle" font-family="system-ui, -apple-system, sans-serif" font-weight="600" opacity="0.9">v0.8.0</text>
<circle cx="347.7" cy="105.3" r="3" fill="#3b82f6" stroke="white" stroke-width="1"/>
<text x="347.7" y="97.3" font-size="9" fill="#3b82f6" text-anchor="middle" font-family="system-ui, -apple-system, sans-serif" font-weight="600" opacity="0.9">v0.8.0</text>
<circle cx="376.2" cy="101.7" r="3" fill="#3b82f6" stroke="white" stroke-width="1"/>
<text x="376.2" y="93.7" font-size="9" fill="#3b82f6" text-anchor="middle" font-family="system-ui, -apple-system, sans-serif" font-weight="600" opacity="0.9">v0.8.0</text>
<circle cx="404.6" cy="102.2" r="3" fill="#3b82f6" stroke="white" stroke-width="1"/>
<text x="404.6" y="94.2" font-size="9" fill="#3b82f6" text-anchor="middle" font-family="system-ui, -apple-system, sans-serif" font-weight="600" opacity="0.9">v0.8.0</text>
<circle cx="433.1" cy="107.0" r="3" fill="#3b82f6" stroke="white" stroke-width="1"/>
<text x="433.1" y="99.0" font-size="9" fill="#3b82f6" text-anchor="middle" font-family="system-ui, -apple-system, sans-serif" font-weight="600" opacity="0.9">v0.8.0</text>
<circle cx="461.6" cy="97.8" r="3" fill="#3b82f6" stroke="white" stroke-width="1"/>
<text x="461.6" y="89.8" font-size="9" fill="#3b82f6" text-anchor="middle" font-family="system-ui, -apple-system, sans-serif" font-weight="600" opacity="0.9">v0.8.0</text>
<circle cx="490.1" cy="107.2" r="3" fill="#3b82f6" stroke="white" stroke-width="1"/>
<text x="490.1" y="99.2" font-size="9" fill="#3b82f6" text-anchor="middle" font-family="system-ui, -apple-system, sans-serif" font-weight="600" opacity="0.9">v0.9.0</text>
<circle cx="518.5" cy="95.0" r="3" fill="#3b82f6" stroke="white" stroke-width="1"/>
<text x="518.5" y="87.0" font-size="9" fill="#3b82f6" text-anchor="middle" font-family="system-ui, -apple-system, sans-serif" font-weight="600" opacity="0.9">v0.9.0</text>
<circle cx="547.0" cy="105.7" r="3" fill="#3b82f6" stroke="white" stroke-width="1"/>
<text x="547.0" y="97.7" font-size="9" fill="#3b82f6" text-anchor="middle" font-family="system-ui, -apple-system, sans-serif" font-weight="600" opacity="0.9">v0.10.0</text>
</svg>