<svg width="615" height="120" viewBox="0 0 615 120" xmlns="http://www.w3.org/2000/svg">
<rect width="615" height="120" fill="transparent"/>
<line x1="63" y1="67.5" x2="547" y2="67.5" stroke="currentColor" stroke-width="0.5" opacity="0.2" stroke-dasharray="2,2"/>
<polyline fill="none" stroke="#3b82f6" stroke-width="2" points="48.0,48.8 95.3,35.4 127.5,28.6 159.8,29.1 192.1,58.9 224.3,104.9 256.6,108.0 288.9,107.2 321.1,23.0 353.4,92.1 385.7,92.2 417.9,104.2 450.2,90.3 482.5,112.0 514.7,101.6 547.0,92.4" stroke-linecap="round" stroke-linejoin="round"/>
<circle cx="48.0" cy="48.8" r="3" fill="#3b82f6" stroke="white" stroke-width="1"/>
<text x="48.0" y="40.8" font-size="9" fill="#3b82f6" text-anchor="middle" font-family="system-ui, -apple-system, sans-serif" font-weight="600" opacity="0.9">v0.4.1</text>
<circle cx="95.3" cy="35.4" r="3" fill="#3b82f6" stroke="white" stroke-width="1"/>
<text x="95.3" y="27.4" font-size="9" fill="#3b82f6" text-anchor="middle" font-family="system-ui, -apple-system, sans-serif" font-weight="600" opacity="0.9">v0.4.1</text>
<circle cx="127.5" cy="28.6" r="3" fill="#3b82f6" stroke="white" stroke-width="1"/>
<text x="127.5" y="20.6" font-size="9" fill="#3b82f6" text-anchor="middle" font-family="system-ui, -apple-system, sans-serif" font-weight="600" opacity="0.9">v0.5.0</text>
<circle cx="159.8" cy="29.1" r="3" fill="#3b82f6" stroke="white" stroke-width="1"/>
<text x="159.8" y="21.1" font-size="9" fill="#3b82f6" text-anchor="middle" font-family="system-ui, -apple-system, sans-serif" font-weight="600" opacity="0.9">v0.5.0</text>
<circle cx="192.1" cy="58.9" r="3" fill="#3b82f6" stroke="white" stroke-width="1"/>
<text x="192.1" y="50.9" font-size="9" fill="#3b82f6" text-anchor="middle" font-family="system-ui, -apple-system, sans-serif" font-weight="600" opacity="0.9">v0.6.0</text>
<circle cx="224.3" cy="104.9" r="3" fill="#3b82f6" stroke="white" stroke-width="1"/>
<text x="224.3" y="96.9" font-size="9" fill="#3b82f6" text-anchor="middle" font-family="system-ui, -apple-system, sans-serif" font-weight="600" opacity="0.9">v0.6.1</text>
<circle cx="256.6" cy="108.0" r="3" fill="#3b82f6" stroke="white" stroke-width="1"/>
<text x="256.6" y="100.0" font-size="9" fill="#3b82f6" text-anchor="middle" font-family="system-ui, -apple-system, sans-serif" font-weight="600" opacity="0.9">v0.7.0</text>
<circle cx="288.9" cy="107.2" r="3" fill="#3b82f6" stroke="white" stroke-width="1"/>
<text x="288.9" y="99.2" font-size="9" fill="#3b82f6" text-anchor="middle" font-family="system-ui, -apple-system, sans-serif" font-weight="600" opacity="0.9">v0.7.0</text>
<circle cx="321.1" cy="23.0" r="3" fill="#3b82f6" stroke="white" stroke-width="1"/>
<text x="321.1" y="17.0" font-size="9" fill="#3b82f6" text-anchor="middle" font-family="system-ui, -apple-system, sans-serif" font-weight="600" opacity="0.9">v0.7.0 (9.10K ops/s)</text>
<circle cx="353.4" cy="92.1" r="3" fill="#3b82f6" stroke="white" stroke-width="1"/>
<text x="353.4" y="84.1" font-size="9" fill="#3b82f6" text-anchor="middle" font-family="system-ui, -apple-system, sans-serif" font-weight="600" opacity="0.9">v0.8.0</text>
<circle cx="385.7" cy="92.2" r="3" fill="#3b82f6" stroke="white" stroke-width="1"/>
<text x="385.7" y="84.2" font-size="9" fill="#3b82f6" text-anchor="middle" font-family="system-ui, -apple-system, sans-serif" font-weight="600" opacity="0.9">v0.8.0</text>
<circle cx="417.9" cy="104.2" r="3" fill="#3b82f6" stroke="white" stroke-width="1"/>
<text x="417.9" y="96.2" font-size="9" fill="#3b82f6" text-anchor="middle" font-family="system-ui, -apple-system, sans-serif" font-weight="600" opacity="0.9">v0.8.0</text>
<circle cx="450.2" cy="90.3" r="3" fill="#3b82f6" stroke="white" stroke-width="1"/>
<text x="450.2" y="82.3" font-size="9" fill="#3b82f6" text-anchor="middle" font-family="system-ui, -apple-system, sans-serif" font-weight="600" opacity="0.9">v0.8.0</text>
<circle cx="482.5" cy="112.0" r="3" fill="#3b82f6" stroke="white" stroke-width="1"/>
<text x="482.5" y="104.0" font-size="9" fill="#3b82f6" text-anchor="middle" font-family="system-ui, -apple-system, sans-serif" font-weight="600" opacity="0.9">v0.8.0 (7.00K ops/s)</text>
<circle cx="514.7" cy="101.6" r="3" fill="#3b82f6" stroke="white" stroke-width="1"/>
<text x="514.7" y="93.6" font-size="9" fill="#3b82f6" text-anchor="middle" font-family="system-ui, -apple-system, sans-serif" font-weight="600" opacity="0.9">v0.8.0</text>
<circle cx="547.0" cy="92.4" r="3" fill="#3b82f6" stroke="white" stroke-width="1"/>
<text x="547.0" y="84.4" font-size="9" fill="#3b82f6" text-anchor="middle" font-family="system-ui, -apple-system, sans-serif" font-weight="600" opacity="0.9">v0.9.0</text>
</svg>