<svg width="615" height="120" viewBox="0 0 615 120" xmlns="http://www.w3.org/2000/svg">
<rect width="615" height="120" fill="transparent"/>
<line x1="63" y1="67.5" x2="547" y2="67.5" stroke="currentColor" stroke-width="0.5" opacity="0.2" stroke-dasharray="2,2"/>
<polyline fill="none" stroke="#3b82f6" stroke-width="2" points="48.0,82.9 93.2,56.7 123.5,54.1 153.8,53.6 184.0,84.6 214.2,108.0 244.5,103.8 274.8,110.7 305.0,23.0 335.2,110.7 365.5,111.0 395.8,106.8 426.0,109.7 456.2,109.3 486.5,103.0 516.8,112.0 547.0,101.0" stroke-linecap="round" stroke-linejoin="round"/>
<circle cx="48.0" cy="82.9" r="3" fill="#3b82f6" stroke="white" stroke-width="1"/>
<text x="48.0" y="74.9" font-size="9" fill="#3b82f6" text-anchor="middle" font-family="system-ui, -apple-system, sans-serif" font-weight="600" opacity="0.9">v0.4.1</text>
<circle cx="93.2" cy="56.7" r="3" fill="#3b82f6" stroke="white" stroke-width="1"/>
<text x="93.2" y="48.7" font-size="9" fill="#3b82f6" text-anchor="middle" font-family="system-ui, -apple-system, sans-serif" font-weight="600" opacity="0.9">v0.4.1</text>
<circle cx="123.5" cy="54.1" r="3" fill="#3b82f6" stroke="white" stroke-width="1"/>
<text x="123.5" y="46.1" font-size="9" fill="#3b82f6" text-anchor="middle" font-family="system-ui, -apple-system, sans-serif" font-weight="600" opacity="0.9">v0.5.0</text>
<circle cx="153.8" cy="53.6" r="3" fill="#3b82f6" stroke="white" stroke-width="1"/>
<text x="153.8" y="45.6" font-size="9" fill="#3b82f6" text-anchor="middle" font-family="system-ui, -apple-system, sans-serif" font-weight="600" opacity="0.9">v0.5.0</text>
<circle cx="184.0" cy="84.6" r="3" fill="#3b82f6" stroke="white" stroke-width="1"/>
<text x="184.0" y="76.6" font-size="9" fill="#3b82f6" text-anchor="middle" font-family="system-ui, -apple-system, sans-serif" font-weight="600" opacity="0.9">v0.6.0</text>
<circle cx="214.2" cy="108.0" r="3" fill="#3b82f6" stroke="white" stroke-width="1"/>
<text x="214.2" y="100.0" font-size="9" fill="#3b82f6" text-anchor="middle" font-family="system-ui, -apple-system, sans-serif" font-weight="600" opacity="0.9">v0.6.1</text>
<circle cx="244.5" cy="103.8" r="3" fill="#3b82f6" stroke="white" stroke-width="1"/>
<text x="244.5" y="95.8" font-size="9" fill="#3b82f6" text-anchor="middle" font-family="system-ui, -apple-system, sans-serif" font-weight="600" opacity="0.9">v0.7.0</text>
<circle cx="274.8" cy="110.7" r="3" fill="#3b82f6" stroke="white" stroke-width="1"/>
<text x="274.8" y="102.7" font-size="9" fill="#3b82f6" text-anchor="middle" font-family="system-ui, -apple-system, sans-serif" font-weight="600" opacity="0.9">v0.7.0</text>
<circle cx="305.0" cy="23.0" r="3" fill="#3b82f6" stroke="white" stroke-width="1"/>
<text x="305.0" y="17.0" font-size="9" fill="#3b82f6" text-anchor="middle" font-family="system-ui, -apple-system, sans-serif" font-weight="600" opacity="0.9">v0.7.0 (3.12K ops/s)</text>
<circle cx="335.2" cy="110.7" r="3" fill="#3b82f6" stroke="white" stroke-width="1"/>
<text x="335.2" y="102.7" font-size="9" fill="#3b82f6" text-anchor="middle" font-family="system-ui, -apple-system, sans-serif" font-weight="600" opacity="0.9">v0.8.0</text>
<circle cx="365.5" cy="111.0" r="3" fill="#3b82f6" stroke="white" stroke-width="1"/>
<text x="365.5" y="103.0" font-size="9" fill="#3b82f6" text-anchor="middle" font-family="system-ui, -apple-system, sans-serif" font-weight="600" opacity="0.9">v0.8.0</text>
<circle cx="395.8" cy="106.8" r="3" fill="#3b82f6" stroke="white" stroke-width="1"/>
<text x="395.8" y="98.8" font-size="9" fill="#3b82f6" text-anchor="middle" font-family="system-ui, -apple-system, sans-serif" font-weight="600" opacity="0.9">v0.8.0</text>
<circle cx="426.0" cy="109.7" r="3" fill="#3b82f6" stroke="white" stroke-width="1"/>
<text x="426.0" y="101.7" font-size="9" fill="#3b82f6" text-anchor="middle" font-family="system-ui, -apple-system, sans-serif" font-weight="600" opacity="0.9">v0.8.0</text>
<circle cx="456.2" cy="109.3" r="3" fill="#3b82f6" stroke="white" stroke-width="1"/>
<text x="456.2" y="101.3" font-size="9" fill="#3b82f6" text-anchor="middle" font-family="system-ui, -apple-system, sans-serif" font-weight="600" opacity="0.9">v0.8.0</text>
<circle cx="486.5" cy="103.0" r="3" fill="#3b82f6" stroke="white" stroke-width="1"/>
<text x="486.5" y="95.0" font-size="9" fill="#3b82f6" text-anchor="middle" font-family="system-ui, -apple-system, sans-serif" font-weight="600" opacity="0.9">v0.8.0</text>
<circle cx="516.8" cy="112.0" r="3" fill="#3b82f6" stroke="white" stroke-width="1"/>
<text x="516.8" y="104.0" font-size="9" fill="#3b82f6" text-anchor="middle" font-family="system-ui, -apple-system, sans-serif" font-weight="600" opacity="0.9">v0.9.0 (2.41K ops/s)</text>
<circle cx="547.0" cy="101.0" r="3" fill="#3b82f6" stroke="white" stroke-width="1"/>
<text x="547.0" y="93.0" font-size="9" fill="#3b82f6" text-anchor="middle" font-family="system-ui, -apple-system, sans-serif" font-weight="600" opacity="0.9">v0.9.0</text>
</svg>