<svg width="755" height="120" viewBox="0 0 755 120" xmlns="http://www.w3.org/2000/svg">
<rect width="755" height="120" fill="transparent"/>
<line x1="63" y1="67.5" x2="547" y2="67.5" stroke="currentColor" stroke-width="0.5" opacity="0.2" stroke-dasharray="2,2"/>
<polyline fill="none" stroke="#3b82f6" stroke-width="2" points="48.0,83.6 111.4,57.1 159.8,54.5 208.2,53.9 256.6,85.3 305.0,108.9 353.4,104.7 401.8,111.7 450.2,23.0 498.6,111.7 547.0,112.0" stroke-linecap="round" stroke-linejoin="round"/>
<circle cx="48.0" cy="83.6" r="3" fill="#3b82f6" stroke="white" stroke-width="1"/>
<text x="48.0" y="75.6" font-size="9" fill="#3b82f6" text-anchor="middle" font-family="system-ui, -apple-system, sans-serif" font-weight="600" opacity="0.9">v0.4.1</text>
<circle cx="111.4" cy="57.1" r="3" fill="#3b82f6" stroke="white" stroke-width="1"/>
<text x="111.4" y="49.1" font-size="9" fill="#3b82f6" text-anchor="middle" font-family="system-ui, -apple-system, sans-serif" font-weight="600" opacity="0.9">v0.4.1</text>
<circle cx="159.8" cy="54.5" r="3" fill="#3b82f6" stroke="white" stroke-width="1"/>
<text x="159.8" y="46.5" font-size="9" fill="#3b82f6" text-anchor="middle" font-family="system-ui, -apple-system, sans-serif" font-weight="600" opacity="0.9">v0.5.0</text>
<circle cx="208.2" cy="53.9" r="3" fill="#3b82f6" stroke="white" stroke-width="1"/>
<text x="208.2" y="45.9" font-size="9" fill="#3b82f6" text-anchor="middle" font-family="system-ui, -apple-system, sans-serif" font-weight="600" opacity="0.9">v0.5.0</text>
<circle cx="256.6" cy="85.3" r="3" fill="#3b82f6" stroke="white" stroke-width="1"/>
<text x="256.6" y="77.3" font-size="9" fill="#3b82f6" text-anchor="middle" font-family="system-ui, -apple-system, sans-serif" font-weight="600" opacity="0.9">v0.6.0</text>
<circle cx="305.0" cy="108.9" r="3" fill="#3b82f6" stroke="white" stroke-width="1"/>
<text x="305.0" y="100.9" font-size="9" fill="#3b82f6" text-anchor="middle" font-family="system-ui, -apple-system, sans-serif" font-weight="600" opacity="0.9">v0.6.1</text>
<circle cx="353.4" cy="104.7" r="3" fill="#3b82f6" stroke="white" stroke-width="1"/>
<text x="353.4" y="96.7" font-size="9" fill="#3b82f6" text-anchor="middle" font-family="system-ui, -apple-system, sans-serif" font-weight="600" opacity="0.9">v0.7.0</text>
<circle cx="401.8" cy="111.7" r="3" fill="#3b82f6" stroke="white" stroke-width="1"/>
<text x="401.8" y="103.7" font-size="9" fill="#3b82f6" text-anchor="middle" font-family="system-ui, -apple-system, sans-serif" font-weight="600" opacity="0.9">v0.7.0</text>
<circle cx="450.2" cy="23.0" r="3" fill="#3b82f6" stroke="white" stroke-width="1"/>
<text x="450.2" y="17.0" font-size="9" fill="#3b82f6" text-anchor="middle" font-family="system-ui, -apple-system, sans-serif" font-weight="600" opacity="0.9">v0.7.0 (3.12K ops/s)</text>
<circle cx="498.6" cy="111.7" r="3" fill="#3b82f6" stroke="white" stroke-width="1"/>
<text x="498.6" y="103.7" font-size="9" fill="#3b82f6" text-anchor="middle" font-family="system-ui, -apple-system, sans-serif" font-weight="600" opacity="0.9">v0.8.0</text>
<circle cx="547.0" cy="112.0" r="3" fill="#3b82f6" stroke="white" stroke-width="1"/>
<text x="547.0" y="104.0" font-size="9" fill="#3b82f6" text-anchor="middle" font-family="system-ui, -apple-system, sans-serif" font-weight="600" opacity="0.9">v0.8.0 (2.42K ops/s)</text>
</svg>