<svg width="615" height="120" viewBox="0 0 615 120" xmlns="http://www.w3.org/2000/svg">
<rect width="615" height="120" fill="transparent"/>
<line x1="63" y1="67.5" x2="547" y2="67.5" stroke="currentColor" stroke-width="0.5" opacity="0.2" stroke-dasharray="2,2"/>
<polyline fill="none" stroke="#3b82f6" stroke-width="2" points="48.0,106.3 97.6,77.3 132.1,72.1 166.7,73.2 201.3,90.3 235.9,112.0 270.4,96.3 305.0,104.4 339.6,23.0 374.1,105.3 408.7,105.3 443.3,101.7 477.9,102.2 512.4,107.0 547.0,97.8" stroke-linecap="round" stroke-linejoin="round"/>
<circle cx="48.0" cy="106.3" r="3" fill="#3b82f6" stroke="white" stroke-width="1"/>
<text x="48.0" y="98.3" font-size="9" fill="#3b82f6" text-anchor="middle" font-family="system-ui, -apple-system, sans-serif" font-weight="600" opacity="0.9">v0.4.1</text>
<circle cx="97.6" cy="77.3" r="3" fill="#3b82f6" stroke="white" stroke-width="1"/>
<text x="97.6" y="69.3" font-size="9" fill="#3b82f6" text-anchor="middle" font-family="system-ui, -apple-system, sans-serif" font-weight="600" opacity="0.9">v0.4.1</text>
<circle cx="132.1" cy="72.1" r="3" fill="#3b82f6" stroke="white" stroke-width="1"/>
<text x="132.1" y="64.1" font-size="9" fill="#3b82f6" text-anchor="middle" font-family="system-ui, -apple-system, sans-serif" font-weight="600" opacity="0.9">v0.5.0</text>
<circle cx="166.7" cy="73.2" r="3" fill="#3b82f6" stroke="white" stroke-width="1"/>
<text x="166.7" y="65.2" font-size="9" fill="#3b82f6" text-anchor="middle" font-family="system-ui, -apple-system, sans-serif" font-weight="600" opacity="0.9">v0.5.0</text>
<circle cx="201.3" cy="90.3" r="3" fill="#3b82f6" stroke="white" stroke-width="1"/>
<text x="201.3" y="82.3" font-size="9" fill="#3b82f6" text-anchor="middle" font-family="system-ui, -apple-system, sans-serif" font-weight="600" opacity="0.9">v0.6.0</text>
<circle cx="235.9" cy="112.0" r="3" fill="#3b82f6" stroke="white" stroke-width="1"/>
<text x="235.9" y="104.0" font-size="9" fill="#3b82f6" text-anchor="middle" font-family="system-ui, -apple-system, sans-serif" font-weight="600" opacity="0.9">v0.6.1 (234.2 ops/s)</text>
<circle cx="270.4" cy="96.3" r="3" fill="#3b82f6" stroke="white" stroke-width="1"/>
<text x="270.4" y="88.3" font-size="9" fill="#3b82f6" text-anchor="middle" font-family="system-ui, -apple-system, sans-serif" font-weight="600" opacity="0.9">v0.7.0</text>
<circle cx="305.0" cy="104.4" r="3" fill="#3b82f6" stroke="white" stroke-width="1"/>
<text x="305.0" y="96.4" font-size="9" fill="#3b82f6" text-anchor="middle" font-family="system-ui, -apple-system, sans-serif" font-weight="600" opacity="0.9">v0.7.0</text>
<circle cx="339.6" cy="23.0" r="3" fill="#3b82f6" stroke="white" stroke-width="1"/>
<text x="339.6" y="17.0" font-size="9" fill="#3b82f6" text-anchor="middle" font-family="system-ui, -apple-system, sans-serif" font-weight="600" opacity="0.9">v0.7.0 (313.2 ops/s)</text>
<circle cx="374.1" cy="105.3" r="3" fill="#3b82f6" stroke="white" stroke-width="1"/>
<text x="374.1" y="97.3" font-size="9" fill="#3b82f6" text-anchor="middle" font-family="system-ui, -apple-system, sans-serif" font-weight="600" opacity="0.9">v0.8.0</text>
<circle cx="408.7" cy="105.3" r="3" fill="#3b82f6" stroke="white" stroke-width="1"/>
<text x="408.7" y="97.3" font-size="9" fill="#3b82f6" text-anchor="middle" font-family="system-ui, -apple-system, sans-serif" font-weight="600" opacity="0.9">v0.8.0</text>
<circle cx="443.3" cy="101.7" r="3" fill="#3b82f6" stroke="white" stroke-width="1"/>
<text x="443.3" y="93.7" font-size="9" fill="#3b82f6" text-anchor="middle" font-family="system-ui, -apple-system, sans-serif" font-weight="600" opacity="0.9">v0.8.0</text>
<circle cx="477.9" cy="102.2" r="3" fill="#3b82f6" stroke="white" stroke-width="1"/>
<text x="477.9" y="94.2" font-size="9" fill="#3b82f6" text-anchor="middle" font-family="system-ui, -apple-system, sans-serif" font-weight="600" opacity="0.9">v0.8.0</text>
<circle cx="512.4" cy="107.0" r="3" fill="#3b82f6" stroke="white" stroke-width="1"/>
<text x="512.4" y="99.0" font-size="9" fill="#3b82f6" text-anchor="middle" font-family="system-ui, -apple-system, sans-serif" font-weight="600" opacity="0.9">v0.8.0</text>
<circle cx="547.0" cy="97.8" r="3" fill="#3b82f6" stroke="white" stroke-width="1"/>
<text x="547.0" y="89.8" font-size="9" fill="#3b82f6" text-anchor="middle" font-family="system-ui, -apple-system, sans-serif" font-weight="600" opacity="0.9">v0.8.0</text>
</svg>