<svg width="615" height="120" viewBox="0 0 615 120" xmlns="http://www.w3.org/2000/svg">
<rect width="615" height="120" fill="transparent"/>
<line x1="63" y1="67.5" x2="547" y2="67.5" stroke="currentColor" stroke-width="0.5" opacity="0.2" stroke-dasharray="2,2"/>
<polyline fill="none" stroke="#3b82f6" stroke-width="2" points="48.0,112.0 93.2,102.7 123.5,101.1 153.8,101.5 184.0,100.5 214.2,92.1 244.5,95.0 274.8,89.0 305.0,23.0 335.2,91.4 365.5,92.3 395.8,91.3 426.0,87.5 456.2,88.8 486.5,91.3 516.8,89.6 547.0,90.6" stroke-linecap="round" stroke-linejoin="round"/>
<circle cx="48.0" cy="112.0" r="3" fill="#3b82f6" stroke="white" stroke-width="1"/>
<text x="48.0" y="104.0" font-size="9" fill="#3b82f6" text-anchor="middle" font-family="system-ui, -apple-system, sans-serif" font-weight="600" opacity="0.9">v0.4.1 (70.5 ops/s)</text>
<circle cx="93.2" cy="102.7" r="3" fill="#3b82f6" stroke="white" stroke-width="1"/>
<text x="93.2" y="94.7" font-size="9" fill="#3b82f6" text-anchor="middle" font-family="system-ui, -apple-system, sans-serif" font-weight="600" opacity="0.9">v0.4.1</text>
<circle cx="123.5" cy="101.1" r="3" fill="#3b82f6" stroke="white" stroke-width="1"/>
<text x="123.5" y="93.1" font-size="9" fill="#3b82f6" text-anchor="middle" font-family="system-ui, -apple-system, sans-serif" font-weight="600" opacity="0.9">v0.5.0</text>
<circle cx="153.8" cy="101.5" r="3" fill="#3b82f6" stroke="white" stroke-width="1"/>
<text x="153.8" y="93.5" font-size="9" fill="#3b82f6" text-anchor="middle" font-family="system-ui, -apple-system, sans-serif" font-weight="600" opacity="0.9">v0.5.0</text>
<circle cx="184.0" cy="100.5" r="3" fill="#3b82f6" stroke="white" stroke-width="1"/>
<text x="184.0" y="92.5" font-size="9" fill="#3b82f6" text-anchor="middle" font-family="system-ui, -apple-system, sans-serif" font-weight="600" opacity="0.9">v0.6.0</text>
<circle cx="214.2" cy="92.1" r="3" fill="#3b82f6" stroke="white" stroke-width="1"/>
<text x="214.2" y="84.1" font-size="9" fill="#3b82f6" text-anchor="middle" font-family="system-ui, -apple-system, sans-serif" font-weight="600" opacity="0.9">v0.6.1</text>
<circle cx="244.5" cy="95.0" r="3" fill="#3b82f6" stroke="white" stroke-width="1"/>
<text x="244.5" y="87.0" font-size="9" fill="#3b82f6" text-anchor="middle" font-family="system-ui, -apple-system, sans-serif" font-weight="600" opacity="0.9">v0.7.0</text>
<circle cx="274.8" cy="89.0" r="3" fill="#3b82f6" stroke="white" stroke-width="1"/>
<text x="274.8" y="81.0" font-size="9" fill="#3b82f6" text-anchor="middle" font-family="system-ui, -apple-system, sans-serif" font-weight="600" opacity="0.9">v0.7.0</text>
<circle cx="305.0" cy="23.0" r="3" fill="#3b82f6" stroke="white" stroke-width="1"/>
<text x="305.0" y="17.0" font-size="9" fill="#3b82f6" text-anchor="middle" font-family="system-ui, -apple-system, sans-serif" font-weight="600" opacity="0.9">v0.7.0 (99.8 ops/s)</text>
<circle cx="335.2" cy="91.4" r="3" fill="#3b82f6" stroke="white" stroke-width="1"/>
<text x="335.2" y="83.4" font-size="9" fill="#3b82f6" text-anchor="middle" font-family="system-ui, -apple-system, sans-serif" font-weight="600" opacity="0.9">v0.8.0</text>
<circle cx="365.5" cy="92.3" r="3" fill="#3b82f6" stroke="white" stroke-width="1"/>
<text x="365.5" y="84.3" font-size="9" fill="#3b82f6" text-anchor="middle" font-family="system-ui, -apple-system, sans-serif" font-weight="600" opacity="0.9">v0.8.0</text>
<circle cx="395.8" cy="91.3" r="3" fill="#3b82f6" stroke="white" stroke-width="1"/>
<text x="395.8" y="83.3" font-size="9" fill="#3b82f6" text-anchor="middle" font-family="system-ui, -apple-system, sans-serif" font-weight="600" opacity="0.9">v0.8.0</text>
<circle cx="426.0" cy="87.5" r="3" fill="#3b82f6" stroke="white" stroke-width="1"/>
<text x="426.0" y="79.5" font-size="9" fill="#3b82f6" text-anchor="middle" font-family="system-ui, -apple-system, sans-serif" font-weight="600" opacity="0.9">v0.8.0</text>
<circle cx="456.2" cy="88.8" r="3" fill="#3b82f6" stroke="white" stroke-width="1"/>
<text x="456.2" y="80.8" font-size="9" fill="#3b82f6" text-anchor="middle" font-family="system-ui, -apple-system, sans-serif" font-weight="600" opacity="0.9">v0.8.0</text>
<circle cx="486.5" cy="91.3" r="3" fill="#3b82f6" stroke="white" stroke-width="1"/>
<text x="486.5" y="83.3" font-size="9" fill="#3b82f6" text-anchor="middle" font-family="system-ui, -apple-system, sans-serif" font-weight="600" opacity="0.9">v0.8.0</text>
<circle cx="516.8" cy="89.6" r="3" fill="#3b82f6" stroke="white" stroke-width="1"/>
<text x="516.8" y="81.6" font-size="9" fill="#3b82f6" text-anchor="middle" font-family="system-ui, -apple-system, sans-serif" font-weight="600" opacity="0.9">v0.9.0</text>
<circle cx="547.0" cy="90.6" r="3" fill="#3b82f6" stroke="white" stroke-width="1"/>
<text x="547.0" y="82.6" font-size="9" fill="#3b82f6" text-anchor="middle" font-family="system-ui, -apple-system, sans-serif" font-weight="600" opacity="0.9">v0.9.0</text>
</svg>