<svg width="615" height="120" viewBox="0 0 615 120" xmlns="http://www.w3.org/2000/svg">
<rect width="615" height="120" fill="transparent"/>
<line x1="63" y1="67.5" x2="547" y2="67.5" stroke="currentColor" stroke-width="0.5" opacity="0.2" stroke-dasharray="2,2"/>
<polyline fill="none" stroke="#3b82f6" stroke-width="2" points="48.0,30.1 111.4,30.0 159.8,23.0 208.2,25.3 256.6,49.0 305.0,107.0 353.4,112.0 401.8,108.4 450.2,28.8 498.6,107.7 547.0,110.4" stroke-linecap="round" stroke-linejoin="round"/>
<circle cx="48.0" cy="30.1" r="3" fill="#3b82f6" stroke="white" stroke-width="1"/>
<text x="48.0" y="22.1" font-size="9" fill="#3b82f6" text-anchor="middle" font-family="system-ui, -apple-system, sans-serif" font-weight="600" opacity="0.9">v0.4.1</text>
<circle cx="111.4" cy="30.0" r="3" fill="#3b82f6" stroke="white" stroke-width="1"/>
<text x="111.4" y="22.0" font-size="9" fill="#3b82f6" text-anchor="middle" font-family="system-ui, -apple-system, sans-serif" font-weight="600" opacity="0.9">v0.4.1</text>
<circle cx="159.8" cy="23.0" r="3" fill="#3b82f6" stroke="white" stroke-width="1"/>
<text x="159.8" y="17.0" font-size="9" fill="#3b82f6" text-anchor="middle" font-family="system-ui, -apple-system, sans-serif" font-weight="600" opacity="0.9">v0.5.0 (126.64K ops/s)</text>
<circle cx="208.2" cy="25.3" r="3" fill="#3b82f6" stroke="white" stroke-width="1"/>
<text x="208.2" y="17.3" font-size="9" fill="#3b82f6" text-anchor="middle" font-family="system-ui, -apple-system, sans-serif" font-weight="600" opacity="0.9">v0.5.0</text>
<circle cx="256.6" cy="49.0" r="3" fill="#3b82f6" stroke="white" stroke-width="1"/>
<text x="256.6" y="41.0" font-size="9" fill="#3b82f6" text-anchor="middle" font-family="system-ui, -apple-system, sans-serif" font-weight="600" opacity="0.9">v0.6.0</text>
<circle cx="305.0" cy="107.0" r="3" fill="#3b82f6" stroke="white" stroke-width="1"/>
<text x="305.0" y="99.0" font-size="9" fill="#3b82f6" text-anchor="middle" font-family="system-ui, -apple-system, sans-serif" font-weight="600" opacity="0.9">v0.6.1</text>
<circle cx="353.4" cy="112.0" r="3" fill="#3b82f6" stroke="white" stroke-width="1"/>
<text x="353.4" y="104.0" font-size="9" fill="#3b82f6" text-anchor="middle" font-family="system-ui, -apple-system, sans-serif" font-weight="600" opacity="0.9">v0.7.0 (94.75K ops/s)</text>
<circle cx="401.8" cy="108.4" r="3" fill="#3b82f6" stroke="white" stroke-width="1"/>
<text x="401.8" y="100.4" font-size="9" fill="#3b82f6" text-anchor="middle" font-family="system-ui, -apple-system, sans-serif" font-weight="600" opacity="0.9">v0.7.0</text>
<circle cx="450.2" cy="28.8" r="3" fill="#3b82f6" stroke="white" stroke-width="1"/>
<text x="450.2" y="20.8" font-size="9" fill="#3b82f6" text-anchor="middle" font-family="system-ui, -apple-system, sans-serif" font-weight="600" opacity="0.9">v0.7.0</text>
<circle cx="498.6" cy="107.7" r="3" fill="#3b82f6" stroke="white" stroke-width="1"/>
<text x="498.6" y="99.7" font-size="9" fill="#3b82f6" text-anchor="middle" font-family="system-ui, -apple-system, sans-serif" font-weight="600" opacity="0.9">v0.8.0</text>
<circle cx="547.0" cy="110.4" r="3" fill="#3b82f6" stroke="white" stroke-width="1"/>
<text x="547.0" y="102.4" font-size="9" fill="#3b82f6" text-anchor="middle" font-family="system-ui, -apple-system, sans-serif" font-weight="600" opacity="0.9">v0.8.0</text>
</svg>