<svg width="615" height="120" viewBox="0 0 615 120" xmlns="http://www.w3.org/2000/svg">
<rect width="615" height="120" fill="transparent"/>
<line x1="63" y1="67.5" x2="547" y2="67.5" stroke="currentColor" stroke-width="0.5" opacity="0.2" stroke-dasharray="2,2"/>
<polyline fill="none" stroke="#3b82f6" stroke-width="2" points="48.0,73.3 103.3,58.6 143.7,58.3 184.0,60.6 224.3,68.8 264.7,112.0 305.0,109.4 345.3,101.1 385.7,23.0 426.0,101.9 466.3,101.8 506.7,110.7 547.0,102.7" stroke-linecap="round" stroke-linejoin="round"/>
<circle cx="48.0" cy="73.3" r="3" fill="#3b82f6" stroke="white" stroke-width="1"/>
<text x="48.0" y="65.3" font-size="9" fill="#3b82f6" text-anchor="middle" font-family="system-ui, -apple-system, sans-serif" font-weight="600" opacity="0.9">v0.4.1</text>
<circle cx="103.3" cy="58.6" r="3" fill="#3b82f6" stroke="white" stroke-width="1"/>
<text x="103.3" y="50.6" font-size="9" fill="#3b82f6" text-anchor="middle" font-family="system-ui, -apple-system, sans-serif" font-weight="600" opacity="0.9">v0.4.1</text>
<circle cx="143.7" cy="58.3" r="3" fill="#3b82f6" stroke="white" stroke-width="1"/>
<text x="143.7" y="50.3" font-size="9" fill="#3b82f6" text-anchor="middle" font-family="system-ui, -apple-system, sans-serif" font-weight="600" opacity="0.9">v0.5.0</text>
<circle cx="184.0" cy="60.6" r="3" fill="#3b82f6" stroke="white" stroke-width="1"/>
<text x="184.0" y="52.6" font-size="9" fill="#3b82f6" text-anchor="middle" font-family="system-ui, -apple-system, sans-serif" font-weight="600" opacity="0.9">v0.5.0</text>
<circle cx="224.3" cy="68.8" r="3" fill="#3b82f6" stroke="white" stroke-width="1"/>
<text x="224.3" y="60.8" font-size="9" fill="#3b82f6" text-anchor="middle" font-family="system-ui, -apple-system, sans-serif" font-weight="600" opacity="0.9">v0.6.0</text>
<circle cx="264.7" cy="112.0" r="3" fill="#3b82f6" stroke="white" stroke-width="1"/>
<text x="264.7" y="104.0" font-size="9" fill="#3b82f6" text-anchor="middle" font-family="system-ui, -apple-system, sans-serif" font-weight="600" opacity="0.9">v0.6.1 (763.9 ops/s)</text>
<circle cx="305.0" cy="109.4" r="3" fill="#3b82f6" stroke="white" stroke-width="1"/>
<text x="305.0" y="101.4" font-size="9" fill="#3b82f6" text-anchor="middle" font-family="system-ui, -apple-system, sans-serif" font-weight="600" opacity="0.9">v0.7.0</text>
<circle cx="345.3" cy="101.1" r="3" fill="#3b82f6" stroke="white" stroke-width="1"/>
<text x="345.3" y="93.1" font-size="9" fill="#3b82f6" text-anchor="middle" font-family="system-ui, -apple-system, sans-serif" font-weight="600" opacity="0.9">v0.7.0</text>
<circle cx="385.7" cy="23.0" r="3" fill="#3b82f6" stroke="white" stroke-width="1"/>
<text x="385.7" y="17.0" font-size="9" fill="#3b82f6" text-anchor="middle" font-family="system-ui, -apple-system, sans-serif" font-weight="600" opacity="0.9">v0.7.0 (984.3 ops/s)</text>
<circle cx="426.0" cy="101.9" r="3" fill="#3b82f6" stroke="white" stroke-width="1"/>
<text x="426.0" y="93.9" font-size="9" fill="#3b82f6" text-anchor="middle" font-family="system-ui, -apple-system, sans-serif" font-weight="600" opacity="0.9">v0.8.0</text>
<circle cx="466.3" cy="101.8" r="3" fill="#3b82f6" stroke="white" stroke-width="1"/>
<text x="466.3" y="93.8" font-size="9" fill="#3b82f6" text-anchor="middle" font-family="system-ui, -apple-system, sans-serif" font-weight="600" opacity="0.9">v0.8.0</text>
<circle cx="506.7" cy="110.7" r="3" fill="#3b82f6" stroke="white" stroke-width="1"/>
<text x="506.7" y="102.7" font-size="9" fill="#3b82f6" text-anchor="middle" font-family="system-ui, -apple-system, sans-serif" font-weight="600" opacity="0.9">v0.8.0</text>
<circle cx="547.0" cy="102.7" r="3" fill="#3b82f6" stroke="white" stroke-width="1"/>
<text x="547.0" y="94.7" font-size="9" fill="#3b82f6" text-anchor="middle" font-family="system-ui, -apple-system, sans-serif" font-weight="600" opacity="0.9">v0.8.0</text>
</svg>