<svg width="615" height="120" viewBox="0 0 615 120" xmlns="http://www.w3.org/2000/svg">
<rect width="615" height="120" fill="transparent"/>
<line x1="63" y1="67.5" x2="547" y2="67.5" stroke="currentColor" stroke-width="0.5" opacity="0.2" stroke-dasharray="2,2"/>
<polyline fill="none" stroke="#3b82f6" stroke-width="2" points="48.0,99.3 132.1,34.7 201.3,23.0 270.4,25.6 339.6,63.6 408.7,112.0 477.9,77.0 547.0,95.0" stroke-linecap="round" stroke-linejoin="round"/>
<circle cx="48.0" cy="99.3" r="3" fill="#3b82f6" stroke="white" stroke-width="1"/>
<text x="48.0" y="91.3" font-size="9" fill="#3b82f6" text-anchor="middle" font-family="system-ui, -apple-system, sans-serif" font-weight="600" opacity="0.9">v0.4.1</text>
<circle cx="132.1" cy="34.7" r="3" fill="#3b82f6" stroke="white" stroke-width="1"/>
<text x="132.1" y="26.7" font-size="9" fill="#3b82f6" text-anchor="middle" font-family="system-ui, -apple-system, sans-serif" font-weight="600" opacity="0.9">v0.4.1</text>
<circle cx="201.3" cy="23.0" r="3" fill="#3b82f6" stroke="white" stroke-width="1"/>
<text x="201.3" y="17.0" font-size="9" fill="#3b82f6" text-anchor="middle" font-family="system-ui, -apple-system, sans-serif" font-weight="600" opacity="0.9">v0.5.0 (269.7 ops/s)</text>
<circle cx="270.4" cy="25.6" r="3" fill="#3b82f6" stroke="white" stroke-width="1"/>
<text x="270.4" y="17.6" font-size="9" fill="#3b82f6" text-anchor="middle" font-family="system-ui, -apple-system, sans-serif" font-weight="600" opacity="0.9">v0.5.0</text>
<circle cx="339.6" cy="63.6" r="3" fill="#3b82f6" stroke="white" stroke-width="1"/>
<text x="339.6" y="55.6" font-size="9" fill="#3b82f6" text-anchor="middle" font-family="system-ui, -apple-system, sans-serif" font-weight="600" opacity="0.9">v0.6.0</text>
<circle cx="408.7" cy="112.0" r="3" fill="#3b82f6" stroke="white" stroke-width="1"/>
<text x="408.7" y="104.0" font-size="9" fill="#3b82f6" text-anchor="middle" font-family="system-ui, -apple-system, sans-serif" font-weight="600" opacity="0.9">v0.6.1 (234.2 ops/s)</text>
<circle cx="477.9" cy="77.0" r="3" fill="#3b82f6" stroke="white" stroke-width="1"/>
<text x="477.9" y="69.0" font-size="9" fill="#3b82f6" text-anchor="middle" font-family="system-ui, -apple-system, sans-serif" font-weight="600" opacity="0.9">v0.7.0</text>
<circle cx="547.0" cy="95.0" r="3" fill="#3b82f6" stroke="white" stroke-width="1"/>
<text x="547.0" y="87.0" font-size="9" fill="#3b82f6" text-anchor="middle" font-family="system-ui, -apple-system, sans-serif" font-weight="600" opacity="0.9">v0.7.0</text>
</svg>