<svg width="615" height="120" viewBox="0 0 615 120" xmlns="http://www.w3.org/2000/svg">
<rect width="615" height="120" fill="transparent"/>
<line x1="63" y1="67.5" x2="547" y2="67.5" stroke="currentColor" stroke-width="0.5" opacity="0.2" stroke-dasharray="2,2"/>
<polyline fill="none" stroke="#3b82f6" stroke-width="2" points="48.0,24.5 95.3,23.0 127.5,24.4 159.8,24.4 192.1,76.1 224.3,110.7 256.6,110.2 288.9,112.0 321.1,48.2 353.4,109.8 385.7,111.1 417.9,108.0 450.2,109.3 482.5,111.5 514.7,107.4 547.0,109.8" stroke-linecap="round" stroke-linejoin="round"/>
<circle cx="48.0" cy="24.5" r="3" fill="#3b82f6" stroke="white" stroke-width="1"/>
<text x="48.0" y="17.0" font-size="9" fill="#3b82f6" text-anchor="middle" font-family="system-ui, -apple-system, sans-serif" font-weight="600" opacity="0.9">v0.4.1</text>
<circle cx="95.3" cy="23.0" r="3" fill="#3b82f6" stroke="white" stroke-width="1"/>
<text x="95.3" y="17.0" font-size="9" fill="#3b82f6" text-anchor="middle" font-family="system-ui, -apple-system, sans-serif" font-weight="600" opacity="0.9">v0.4.1 (13.24K ops/s)</text>
<circle cx="127.5" cy="24.4" r="3" fill="#3b82f6" stroke="white" stroke-width="1"/>
<text x="127.5" y="17.0" font-size="9" fill="#3b82f6" text-anchor="middle" font-family="system-ui, -apple-system, sans-serif" font-weight="600" opacity="0.9">v0.5.0</text>
<circle cx="159.8" cy="24.4" r="3" fill="#3b82f6" stroke="white" stroke-width="1"/>
<text x="159.8" y="17.0" font-size="9" fill="#3b82f6" text-anchor="middle" font-family="system-ui, -apple-system, sans-serif" font-weight="600" opacity="0.9">v0.5.0</text>
<circle cx="192.1" cy="76.1" r="3" fill="#3b82f6" stroke="white" stroke-width="1"/>
<text x="192.1" y="68.1" font-size="9" fill="#3b82f6" text-anchor="middle" font-family="system-ui, -apple-system, sans-serif" font-weight="600" opacity="0.9">v0.6.0</text>
<circle cx="224.3" cy="110.7" r="3" fill="#3b82f6" stroke="white" stroke-width="1"/>
<text x="224.3" y="102.7" font-size="9" fill="#3b82f6" text-anchor="middle" font-family="system-ui, -apple-system, sans-serif" font-weight="600" opacity="0.9">v0.6.1</text>
<circle cx="256.6" cy="110.2" r="3" fill="#3b82f6" stroke="white" stroke-width="1"/>
<text x="256.6" y="102.2" font-size="9" fill="#3b82f6" text-anchor="middle" font-family="system-ui, -apple-system, sans-serif" font-weight="600" opacity="0.9">v0.7.0</text>
<circle cx="288.9" cy="112.0" r="3" fill="#3b82f6" stroke="white" stroke-width="1"/>
<text x="288.9" y="104.0" font-size="9" fill="#3b82f6" text-anchor="middle" font-family="system-ui, -apple-system, sans-serif" font-weight="600" opacity="0.9">v0.7.0 (9.16K ops/s)</text>
<circle cx="321.1" cy="48.2" r="3" fill="#3b82f6" stroke="white" stroke-width="1"/>
<text x="321.1" y="40.2" font-size="9" fill="#3b82f6" text-anchor="middle" font-family="system-ui, -apple-system, sans-serif" font-weight="600" opacity="0.9">v0.7.0</text>
<circle cx="353.4" cy="109.8" r="3" fill="#3b82f6" stroke="white" stroke-width="1"/>
<text x="353.4" y="101.8" font-size="9" fill="#3b82f6" text-anchor="middle" font-family="system-ui, -apple-system, sans-serif" font-weight="600" opacity="0.9">v0.8.0</text>
<circle cx="385.7" cy="111.1" r="3" fill="#3b82f6" stroke="white" stroke-width="1"/>
<text x="385.7" y="103.1" font-size="9" fill="#3b82f6" text-anchor="middle" font-family="system-ui, -apple-system, sans-serif" font-weight="600" opacity="0.9">v0.8.0</text>
<circle cx="417.9" cy="108.0" r="3" fill="#3b82f6" stroke="white" stroke-width="1"/>
<text x="417.9" y="100.0" font-size="9" fill="#3b82f6" text-anchor="middle" font-family="system-ui, -apple-system, sans-serif" font-weight="600" opacity="0.9">v0.8.0</text>
<circle cx="450.2" cy="109.3" r="3" fill="#3b82f6" stroke="white" stroke-width="1"/>
<text x="450.2" y="101.3" font-size="9" fill="#3b82f6" text-anchor="middle" font-family="system-ui, -apple-system, sans-serif" font-weight="600" opacity="0.9">v0.8.0</text>
<circle cx="482.5" cy="111.5" r="3" fill="#3b82f6" stroke="white" stroke-width="1"/>
<text x="482.5" y="103.5" font-size="9" fill="#3b82f6" text-anchor="middle" font-family="system-ui, -apple-system, sans-serif" font-weight="600" opacity="0.9">v0.8.0</text>
<circle cx="514.7" cy="107.4" r="3" fill="#3b82f6" stroke="white" stroke-width="1"/>
<text x="514.7" y="99.4" font-size="9" fill="#3b82f6" text-anchor="middle" font-family="system-ui, -apple-system, sans-serif" font-weight="600" opacity="0.9">v0.8.0</text>
<circle cx="547.0" cy="109.8" r="3" fill="#3b82f6" stroke="white" stroke-width="1"/>
<text x="547.0" y="101.8" font-size="9" fill="#3b82f6" text-anchor="middle" font-family="system-ui, -apple-system, sans-serif" font-weight="600" opacity="0.9">v0.9.0</text>
</svg>