<svg width="615" height="120" viewBox="0 0 615 120" xmlns="http://www.w3.org/2000/svg">
<rect width="615" height="120" fill="transparent"/>
<line x1="63" y1="67.5" x2="547" y2="67.5" stroke="currentColor" stroke-width="0.5" opacity="0.2" stroke-dasharray="2,2"/>
<polyline fill="none" stroke="#3b82f6" stroke-width="2" points="48.0,106.0 93.2,64.9 123.5,63.0 153.8,61.7 184.0,85.4 214.2,106.3 244.5,98.9 274.8,106.6 305.0,23.0 335.2,107.6 365.5,106.1 395.8,101.7 426.0,105.2 456.2,107.8 486.5,96.7 516.8,112.0 547.0,96.8" stroke-linecap="round" stroke-linejoin="round"/>
<circle cx="48.0" cy="106.0" r="3" fill="#3b82f6" stroke="white" stroke-width="1"/>
<text x="48.0" y="98.0" font-size="9" fill="#3b82f6" text-anchor="middle" font-family="system-ui, -apple-system, sans-serif" font-weight="600" opacity="0.9">v0.4.1</text>
<circle cx="93.2" cy="64.9" r="3" fill="#3b82f6" stroke="white" stroke-width="1"/>
<text x="93.2" y="56.9" font-size="9" fill="#3b82f6" text-anchor="middle" font-family="system-ui, -apple-system, sans-serif" font-weight="600" opacity="0.9">v0.4.1</text>
<circle cx="123.5" cy="63.0" r="3" fill="#3b82f6" stroke="white" stroke-width="1"/>
<text x="123.5" y="55.0" font-size="9" fill="#3b82f6" text-anchor="middle" font-family="system-ui, -apple-system, sans-serif" font-weight="600" opacity="0.9">v0.5.0</text>
<circle cx="153.8" cy="61.7" r="3" fill="#3b82f6" stroke="white" stroke-width="1"/>
<text x="153.8" y="53.7" font-size="9" fill="#3b82f6" text-anchor="middle" font-family="system-ui, -apple-system, sans-serif" font-weight="600" opacity="0.9">v0.5.0</text>
<circle cx="184.0" cy="85.4" r="3" fill="#3b82f6" stroke="white" stroke-width="1"/>
<text x="184.0" y="77.4" font-size="9" fill="#3b82f6" text-anchor="middle" font-family="system-ui, -apple-system, sans-serif" font-weight="600" opacity="0.9">v0.6.0</text>
<circle cx="214.2" cy="106.3" r="3" fill="#3b82f6" stroke="white" stroke-width="1"/>
<text x="214.2" y="98.3" font-size="9" fill="#3b82f6" text-anchor="middle" font-family="system-ui, -apple-system, sans-serif" font-weight="600" opacity="0.9">v0.6.1</text>
<circle cx="244.5" cy="98.9" r="3" fill="#3b82f6" stroke="white" stroke-width="1"/>
<text x="244.5" y="90.9" font-size="9" fill="#3b82f6" text-anchor="middle" font-family="system-ui, -apple-system, sans-serif" font-weight="600" opacity="0.9">v0.7.0</text>
<circle cx="274.8" cy="106.6" r="3" fill="#3b82f6" stroke="white" stroke-width="1"/>
<text x="274.8" y="98.6" font-size="9" fill="#3b82f6" text-anchor="middle" font-family="system-ui, -apple-system, sans-serif" font-weight="600" opacity="0.9">v0.7.0</text>
<circle cx="305.0" cy="23.0" r="3" fill="#3b82f6" stroke="white" stroke-width="1"/>
<text x="305.0" y="17.0" font-size="9" fill="#3b82f6" text-anchor="middle" font-family="system-ui, -apple-system, sans-serif" font-weight="600" opacity="0.9">v0.7.0 (2.92K ops/s)</text>
<circle cx="335.2" cy="107.6" r="3" fill="#3b82f6" stroke="white" stroke-width="1"/>
<text x="335.2" y="99.6" font-size="9" fill="#3b82f6" text-anchor="middle" font-family="system-ui, -apple-system, sans-serif" font-weight="600" opacity="0.9">v0.8.0</text>
<circle cx="365.5" cy="106.1" r="3" fill="#3b82f6" stroke="white" stroke-width="1"/>
<text x="365.5" y="98.1" font-size="9" fill="#3b82f6" text-anchor="middle" font-family="system-ui, -apple-system, sans-serif" font-weight="600" opacity="0.9">v0.8.0</text>
<circle cx="395.8" cy="101.7" r="3" fill="#3b82f6" stroke="white" stroke-width="1"/>
<text x="395.8" y="93.7" font-size="9" fill="#3b82f6" text-anchor="middle" font-family="system-ui, -apple-system, sans-serif" font-weight="600" opacity="0.9">v0.8.0</text>
<circle cx="426.0" cy="105.2" r="3" fill="#3b82f6" stroke="white" stroke-width="1"/>
<text x="426.0" y="97.2" font-size="9" fill="#3b82f6" text-anchor="middle" font-family="system-ui, -apple-system, sans-serif" font-weight="600" opacity="0.9">v0.8.0</text>
<circle cx="456.2" cy="107.8" r="3" fill="#3b82f6" stroke="white" stroke-width="1"/>
<text x="456.2" y="99.8" font-size="9" fill="#3b82f6" text-anchor="middle" font-family="system-ui, -apple-system, sans-serif" font-weight="600" opacity="0.9">v0.8.0</text>
<circle cx="486.5" cy="96.7" r="3" fill="#3b82f6" stroke="white" stroke-width="1"/>
<text x="486.5" y="88.7" font-size="9" fill="#3b82f6" text-anchor="middle" font-family="system-ui, -apple-system, sans-serif" font-weight="600" opacity="0.9">v0.8.0</text>
<circle cx="516.8" cy="112.0" r="3" fill="#3b82f6" stroke="white" stroke-width="1"/>
<text x="516.8" y="104.0" font-size="9" fill="#3b82f6" text-anchor="middle" font-family="system-ui, -apple-system, sans-serif" font-weight="600" opacity="0.9">v0.9.0 (2.21K ops/s)</text>
<circle cx="547.0" cy="96.8" r="3" fill="#3b82f6" stroke="white" stroke-width="1"/>
<text x="547.0" y="88.8" font-size="9" fill="#3b82f6" text-anchor="middle" font-family="system-ui, -apple-system, sans-serif" font-weight="600" opacity="0.9">v0.9.0</text>
</svg>