<svg width="615" height="120" viewBox="0 0 615 120" xmlns="http://www.w3.org/2000/svg">
<rect width="615" height="120" fill="transparent"/>
<line x1="63" y1="67.5" x2="547" y2="67.5" stroke="currentColor" stroke-width="0.5" opacity="0.2" stroke-dasharray="2,2"/>
<polyline fill="none" stroke="#3b82f6" stroke-width="2" points="48.0,106.0 91.5,64.9 119.9,63.0 148.4,61.7 176.9,85.4 205.4,106.3 233.8,98.9 262.3,106.6 290.8,23.0 319.2,107.6 347.7,106.1 376.2,101.7 404.6,105.2 433.1,107.8 461.6,96.7 490.1,112.0 518.5,96.8 547.0,109.1" stroke-linecap="round" stroke-linejoin="round"/>
<circle cx="48.0" cy="106.0" r="3" fill="#3b82f6" stroke="white" stroke-width="1"/>
<text x="48.0" y="98.0" font-size="9" fill="#3b82f6" text-anchor="middle" font-family="system-ui, -apple-system, sans-serif" font-weight="600" opacity="0.9">v0.4.1</text>
<circle cx="91.5" cy="64.9" r="3" fill="#3b82f6" stroke="white" stroke-width="1"/>
<text x="91.5" y="56.9" font-size="9" fill="#3b82f6" text-anchor="middle" font-family="system-ui, -apple-system, sans-serif" font-weight="600" opacity="0.9">v0.4.1</text>
<circle cx="119.9" cy="63.0" r="3" fill="#3b82f6" stroke="white" stroke-width="1"/>
<text x="119.9" y="55.0" font-size="9" fill="#3b82f6" text-anchor="middle" font-family="system-ui, -apple-system, sans-serif" font-weight="600" opacity="0.9">v0.5.0</text>
<circle cx="148.4" cy="61.7" r="3" fill="#3b82f6" stroke="white" stroke-width="1"/>
<text x="148.4" y="53.7" font-size="9" fill="#3b82f6" text-anchor="middle" font-family="system-ui, -apple-system, sans-serif" font-weight="600" opacity="0.9">v0.5.0</text>
<circle cx="176.9" cy="85.4" r="3" fill="#3b82f6" stroke="white" stroke-width="1"/>
<text x="176.9" y="77.4" font-size="9" fill="#3b82f6" text-anchor="middle" font-family="system-ui, -apple-system, sans-serif" font-weight="600" opacity="0.9">v0.6.0</text>
<circle cx="205.4" cy="106.3" r="3" fill="#3b82f6" stroke="white" stroke-width="1"/>
<text x="205.4" y="98.3" font-size="9" fill="#3b82f6" text-anchor="middle" font-family="system-ui, -apple-system, sans-serif" font-weight="600" opacity="0.9">v0.6.1</text>
<circle cx="233.8" cy="98.9" r="3" fill="#3b82f6" stroke="white" stroke-width="1"/>
<text x="233.8" y="90.9" font-size="9" fill="#3b82f6" text-anchor="middle" font-family="system-ui, -apple-system, sans-serif" font-weight="600" opacity="0.9">v0.7.0</text>
<circle cx="262.3" cy="106.6" r="3" fill="#3b82f6" stroke="white" stroke-width="1"/>
<text x="262.3" y="98.6" font-size="9" fill="#3b82f6" text-anchor="middle" font-family="system-ui, -apple-system, sans-serif" font-weight="600" opacity="0.9">v0.7.0</text>
<circle cx="290.8" cy="23.0" r="3" fill="#3b82f6" stroke="white" stroke-width="1"/>
<text x="290.8" y="17.0" font-size="9" fill="#3b82f6" text-anchor="middle" font-family="system-ui, -apple-system, sans-serif" font-weight="600" opacity="0.9">v0.7.0 (2.92K ops/s)</text>
<circle cx="319.2" cy="107.6" r="3" fill="#3b82f6" stroke="white" stroke-width="1"/>
<text x="319.2" y="99.6" font-size="9" fill="#3b82f6" text-anchor="middle" font-family="system-ui, -apple-system, sans-serif" font-weight="600" opacity="0.9">v0.8.0</text>
<circle cx="347.7" cy="106.1" r="3" fill="#3b82f6" stroke="white" stroke-width="1"/>
<text x="347.7" y="98.1" font-size="9" fill="#3b82f6" text-anchor="middle" font-family="system-ui, -apple-system, sans-serif" font-weight="600" opacity="0.9">v0.8.0</text>
<circle cx="376.2" cy="101.7" r="3" fill="#3b82f6" stroke="white" stroke-width="1"/>
<text x="376.2" y="93.7" font-size="9" fill="#3b82f6" text-anchor="middle" font-family="system-ui, -apple-system, sans-serif" font-weight="600" opacity="0.9">v0.8.0</text>
<circle cx="404.6" cy="105.2" r="3" fill="#3b82f6" stroke="white" stroke-width="1"/>
<text x="404.6" y="97.2" font-size="9" fill="#3b82f6" text-anchor="middle" font-family="system-ui, -apple-system, sans-serif" font-weight="600" opacity="0.9">v0.8.0</text>
<circle cx="433.1" cy="107.8" r="3" fill="#3b82f6" stroke="white" stroke-width="1"/>
<text x="433.1" y="99.8" font-size="9" fill="#3b82f6" text-anchor="middle" font-family="system-ui, -apple-system, sans-serif" font-weight="600" opacity="0.9">v0.8.0</text>
<circle cx="461.6" cy="96.7" r="3" fill="#3b82f6" stroke="white" stroke-width="1"/>
<text x="461.6" y="88.7" font-size="9" fill="#3b82f6" text-anchor="middle" font-family="system-ui, -apple-system, sans-serif" font-weight="600" opacity="0.9">v0.8.0</text>
<circle cx="490.1" cy="112.0" r="3" fill="#3b82f6" stroke="white" stroke-width="1"/>
<text x="490.1" y="104.0" font-size="9" fill="#3b82f6" text-anchor="middle" font-family="system-ui, -apple-system, sans-serif" font-weight="600" opacity="0.9">v0.9.0 (2.21K ops/s)</text>
<circle cx="518.5" cy="96.8" r="3" fill="#3b82f6" stroke="white" stroke-width="1"/>
<text x="518.5" y="88.8" font-size="9" fill="#3b82f6" text-anchor="middle" font-family="system-ui, -apple-system, sans-serif" font-weight="600" opacity="0.9">v0.9.0</text>
<circle cx="547.0" cy="109.1" r="3" fill="#3b82f6" stroke="white" stroke-width="1"/>
<text x="547.0" y="101.1" font-size="9" fill="#3b82f6" text-anchor="middle" font-family="system-ui, -apple-system, sans-serif" font-weight="600" opacity="0.9">v0.10.0</text>
</svg>