<svg width="615" height="120" viewBox="0 0 615 120" xmlns="http://www.w3.org/2000/svg">
<rect width="615" height="120" fill="transparent"/>
<line x1="63" y1="67.5" x2="547" y2="67.5" stroke="currentColor" stroke-width="0.5" opacity="0.2" stroke-dasharray="2,2"/>
<polyline fill="none" stroke="#3b82f6" stroke-width="2" points="48.0,112.0 95.3,82.1 127.5,90.1 159.8,80.4 192.1,105.9 224.3,100.5 256.6,96.9 288.9,110.8 321.1,23.0 353.4,88.0 385.7,89.5 417.9,92.7 450.2,89.5 482.5,82.2 514.7,87.1 547.0,84.5" stroke-linecap="round" stroke-linejoin="round"/>
<circle cx="48.0" cy="112.0" r="3" fill="#3b82f6" stroke="white" stroke-width="1"/>
<text x="48.0" y="104.0" font-size="9" fill="#3b82f6" text-anchor="middle" font-family="system-ui, -apple-system, sans-serif" font-weight="600" opacity="0.9">v0.4.1 (14.5 ops/s)</text>
<circle cx="95.3" cy="82.1" r="3" fill="#3b82f6" stroke="white" stroke-width="1"/>
<text x="95.3" y="74.1" font-size="9" fill="#3b82f6" text-anchor="middle" font-family="system-ui, -apple-system, sans-serif" font-weight="600" opacity="0.9">v0.4.1</text>
<circle cx="127.5" cy="90.1" r="3" fill="#3b82f6" stroke="white" stroke-width="1"/>
<text x="127.5" y="82.1" font-size="9" fill="#3b82f6" text-anchor="middle" font-family="system-ui, -apple-system, sans-serif" font-weight="600" opacity="0.9">v0.5.0</text>
<circle cx="159.8" cy="80.4" r="3" fill="#3b82f6" stroke="white" stroke-width="1"/>
<text x="159.8" y="72.4" font-size="9" fill="#3b82f6" text-anchor="middle" font-family="system-ui, -apple-system, sans-serif" font-weight="600" opacity="0.9">v0.5.0</text>
<circle cx="192.1" cy="105.9" r="3" fill="#3b82f6" stroke="white" stroke-width="1"/>
<text x="192.1" y="97.9" font-size="9" fill="#3b82f6" text-anchor="middle" font-family="system-ui, -apple-system, sans-serif" font-weight="600" opacity="0.9">v0.6.0</text>
<circle cx="224.3" cy="100.5" r="3" fill="#3b82f6" stroke="white" stroke-width="1"/>
<text x="224.3" y="92.5" font-size="9" fill="#3b82f6" text-anchor="middle" font-family="system-ui, -apple-system, sans-serif" font-weight="600" opacity="0.9">v0.6.1</text>
<circle cx="256.6" cy="96.9" r="3" fill="#3b82f6" stroke="white" stroke-width="1"/>
<text x="256.6" y="88.9" font-size="9" fill="#3b82f6" text-anchor="middle" font-family="system-ui, -apple-system, sans-serif" font-weight="600" opacity="0.9">v0.7.0</text>
<circle cx="288.9" cy="110.8" r="3" fill="#3b82f6" stroke="white" stroke-width="1"/>
<text x="288.9" y="102.8" font-size="9" fill="#3b82f6" text-anchor="middle" font-family="system-ui, -apple-system, sans-serif" font-weight="600" opacity="0.9">v0.7.0</text>
<circle cx="321.1" cy="23.0" r="3" fill="#3b82f6" stroke="white" stroke-width="1"/>
<text x="321.1" y="17.0" font-size="9" fill="#3b82f6" text-anchor="middle" font-family="system-ui, -apple-system, sans-serif" font-weight="600" opacity="0.9">v0.7.0 (20.6 ops/s)</text>
<circle cx="353.4" cy="88.0" r="3" fill="#3b82f6" stroke="white" stroke-width="1"/>
<text x="353.4" y="80.0" font-size="9" fill="#3b82f6" text-anchor="middle" font-family="system-ui, -apple-system, sans-serif" font-weight="600" opacity="0.9">v0.8.0</text>
<circle cx="385.7" cy="89.5" r="3" fill="#3b82f6" stroke="white" stroke-width="1"/>
<text x="385.7" y="81.5" font-size="9" fill="#3b82f6" text-anchor="middle" font-family="system-ui, -apple-system, sans-serif" font-weight="600" opacity="0.9">v0.8.0</text>
<circle cx="417.9" cy="92.7" r="3" fill="#3b82f6" stroke="white" stroke-width="1"/>
<text x="417.9" y="84.7" font-size="9" fill="#3b82f6" text-anchor="middle" font-family="system-ui, -apple-system, sans-serif" font-weight="600" opacity="0.9">v0.8.0</text>
<circle cx="450.2" cy="89.5" r="3" fill="#3b82f6" stroke="white" stroke-width="1"/>
<text x="450.2" y="81.5" font-size="9" fill="#3b82f6" text-anchor="middle" font-family="system-ui, -apple-system, sans-serif" font-weight="600" opacity="0.9">v0.8.0</text>
<circle cx="482.5" cy="82.2" r="3" fill="#3b82f6" stroke="white" stroke-width="1"/>
<text x="482.5" y="74.2" font-size="9" fill="#3b82f6" text-anchor="middle" font-family="system-ui, -apple-system, sans-serif" font-weight="600" opacity="0.9">v0.8.0</text>
<circle cx="514.7" cy="87.1" r="3" fill="#3b82f6" stroke="white" stroke-width="1"/>
<text x="514.7" y="79.1" font-size="9" fill="#3b82f6" text-anchor="middle" font-family="system-ui, -apple-system, sans-serif" font-weight="600" opacity="0.9">v0.8.0</text>
<circle cx="547.0" cy="84.5" r="3" fill="#3b82f6" stroke="white" stroke-width="1"/>
<text x="547.0" y="76.5" font-size="9" fill="#3b82f6" text-anchor="middle" font-family="system-ui, -apple-system, sans-serif" font-weight="600" opacity="0.9">v0.9.0</text>
</svg>