<svg width="615" height="120" viewBox="0 0 615 120" xmlns="http://www.w3.org/2000/svg">
<rect width="615" height="120" fill="transparent"/>
<line x1="63" y1="67.5" x2="547" y2="67.5" stroke="currentColor" stroke-width="0.5" opacity="0.2" stroke-dasharray="2,2"/>
<polyline fill="none" stroke="#3b82f6" stroke-width="2" points="48.0,112.0 91.5,78.6 119.9,71.3 148.4,72.8 176.9,83.2 205.4,102.0 233.8,91.0 262.3,98.3 290.8,23.0 319.2,94.9 347.7,97.7 376.2,91.2 404.6,98.2 433.1,98.8 461.6,90.5 490.1,98.0 518.5,92.1 547.0,100.0" stroke-linecap="round" stroke-linejoin="round"/>
<circle cx="48.0" cy="112.0" r="3" fill="#3b82f6" stroke="white" stroke-width="1"/>
<text x="48.0" y="104.0" font-size="9" fill="#3b82f6" text-anchor="middle" font-family="system-ui, -apple-system, sans-serif" font-weight="600" opacity="0.9">v0.4.1 (170.9 ops/s)</text>
<circle cx="91.5" cy="78.6" r="3" fill="#3b82f6" stroke="white" stroke-width="1"/>
<text x="91.5" y="70.6" font-size="9" fill="#3b82f6" text-anchor="middle" font-family="system-ui, -apple-system, sans-serif" font-weight="600" opacity="0.9">v0.4.1</text>
<circle cx="119.9" cy="71.3" r="3" fill="#3b82f6" stroke="white" stroke-width="1"/>
<text x="119.9" y="63.3" font-size="9" fill="#3b82f6" text-anchor="middle" font-family="system-ui, -apple-system, sans-serif" font-weight="600" opacity="0.9">v0.5.0</text>
<circle cx="148.4" cy="72.8" r="3" fill="#3b82f6" stroke="white" stroke-width="1"/>
<text x="148.4" y="64.8" font-size="9" fill="#3b82f6" text-anchor="middle" font-family="system-ui, -apple-system, sans-serif" font-weight="600" opacity="0.9">v0.5.0</text>
<circle cx="176.9" cy="83.2" r="3" fill="#3b82f6" stroke="white" stroke-width="1"/>
<text x="176.9" y="75.2" font-size="9" fill="#3b82f6" text-anchor="middle" font-family="system-ui, -apple-system, sans-serif" font-weight="600" opacity="0.9">v0.6.0</text>
<circle cx="205.4" cy="102.0" r="3" fill="#3b82f6" stroke="white" stroke-width="1"/>
<text x="205.4" y="94.0" font-size="9" fill="#3b82f6" text-anchor="middle" font-family="system-ui, -apple-system, sans-serif" font-weight="600" opacity="0.9">v0.6.1</text>
<circle cx="233.8" cy="91.0" r="3" fill="#3b82f6" stroke="white" stroke-width="1"/>
<text x="233.8" y="83.0" font-size="9" fill="#3b82f6" text-anchor="middle" font-family="system-ui, -apple-system, sans-serif" font-weight="600" opacity="0.9">v0.7.0</text>
<circle cx="262.3" cy="98.3" r="3" fill="#3b82f6" stroke="white" stroke-width="1"/>
<text x="262.3" y="90.3" font-size="9" fill="#3b82f6" text-anchor="middle" font-family="system-ui, -apple-system, sans-serif" font-weight="600" opacity="0.9">v0.7.0</text>
<circle cx="290.8" cy="23.0" r="3" fill="#3b82f6" stroke="white" stroke-width="1"/>
<text x="290.8" y="17.0" font-size="9" fill="#3b82f6" text-anchor="middle" font-family="system-ui, -apple-system, sans-serif" font-weight="600" opacity="0.9">v0.7.0 (238.2 ops/s)</text>
<circle cx="319.2" cy="94.9" r="3" fill="#3b82f6" stroke="white" stroke-width="1"/>
<text x="319.2" y="86.9" font-size="9" fill="#3b82f6" text-anchor="middle" font-family="system-ui, -apple-system, sans-serif" font-weight="600" opacity="0.9">v0.8.0</text>
<circle cx="347.7" cy="97.7" r="3" fill="#3b82f6" stroke="white" stroke-width="1"/>
<text x="347.7" y="89.7" font-size="9" fill="#3b82f6" text-anchor="middle" font-family="system-ui, -apple-system, sans-serif" font-weight="600" opacity="0.9">v0.8.0</text>
<circle cx="376.2" cy="91.2" r="3" fill="#3b82f6" stroke="white" stroke-width="1"/>
<text x="376.2" y="83.2" font-size="9" fill="#3b82f6" text-anchor="middle" font-family="system-ui, -apple-system, sans-serif" font-weight="600" opacity="0.9">v0.8.0</text>
<circle cx="404.6" cy="98.2" r="3" fill="#3b82f6" stroke="white" stroke-width="1"/>
<text x="404.6" y="90.2" font-size="9" fill="#3b82f6" text-anchor="middle" font-family="system-ui, -apple-system, sans-serif" font-weight="600" opacity="0.9">v0.8.0</text>
<circle cx="433.1" cy="98.8" r="3" fill="#3b82f6" stroke="white" stroke-width="1"/>
<text x="433.1" y="90.8" font-size="9" fill="#3b82f6" text-anchor="middle" font-family="system-ui, -apple-system, sans-serif" font-weight="600" opacity="0.9">v0.8.0</text>
<circle cx="461.6" cy="90.5" r="3" fill="#3b82f6" stroke="white" stroke-width="1"/>
<text x="461.6" y="82.5" font-size="9" fill="#3b82f6" text-anchor="middle" font-family="system-ui, -apple-system, sans-serif" font-weight="600" opacity="0.9">v0.8.0</text>
<circle cx="490.1" cy="98.0" r="3" fill="#3b82f6" stroke="white" stroke-width="1"/>
<text x="490.1" y="90.0" font-size="9" fill="#3b82f6" text-anchor="middle" font-family="system-ui, -apple-system, sans-serif" font-weight="600" opacity="0.9">v0.9.0</text>
<circle cx="518.5" cy="92.1" r="3" fill="#3b82f6" stroke="white" stroke-width="1"/>
<text x="518.5" y="84.1" font-size="9" fill="#3b82f6" text-anchor="middle" font-family="system-ui, -apple-system, sans-serif" font-weight="600" opacity="0.9">v0.9.0</text>
<circle cx="547.0" cy="100.0" r="3" fill="#3b82f6" stroke="white" stroke-width="1"/>
<text x="547.0" y="92.0" font-size="9" fill="#3b82f6" text-anchor="middle" font-family="system-ui, -apple-system, sans-serif" font-weight="600" opacity="0.9">v0.10.0</text>
</svg>