<svg width="615" height="120" viewBox="0 0 615 120" xmlns="http://www.w3.org/2000/svg">
<rect width="615" height="120" fill="transparent"/>
<line x1="63" y1="67.5" x2="547" y2="67.5" stroke="currentColor" stroke-width="0.5" opacity="0.2" stroke-dasharray="2,2"/>
<polyline fill="none" stroke="#3b82f6" stroke-width="2" points="48.0,50.0 103.3,36.0 143.7,28.8 184.0,29.4 224.3,60.6 264.7,108.7 305.0,112.0 345.3,111.1 385.7,23.0 426.0,95.3 466.3,95.4 506.7,108.0 547.0,93.4" stroke-linecap="round" stroke-linejoin="round"/>
<circle cx="48.0" cy="50.0" r="3" fill="#3b82f6" stroke="white" stroke-width="1"/>
<text x="48.0" y="42.0" font-size="9" fill="#3b82f6" text-anchor="middle" font-family="system-ui, -apple-system, sans-serif" font-weight="600" opacity="0.9">v0.4.1</text>
<circle cx="103.3" cy="36.0" r="3" fill="#3b82f6" stroke="white" stroke-width="1"/>
<text x="103.3" y="28.0" font-size="9" fill="#3b82f6" text-anchor="middle" font-family="system-ui, -apple-system, sans-serif" font-weight="600" opacity="0.9">v0.4.1</text>
<circle cx="143.7" cy="28.8" r="3" fill="#3b82f6" stroke="white" stroke-width="1"/>
<text x="143.7" y="20.8" font-size="9" fill="#3b82f6" text-anchor="middle" font-family="system-ui, -apple-system, sans-serif" font-weight="600" opacity="0.9">v0.5.0</text>
<circle cx="184.0" cy="29.4" r="3" fill="#3b82f6" stroke="white" stroke-width="1"/>
<text x="184.0" y="21.4" font-size="9" fill="#3b82f6" text-anchor="middle" font-family="system-ui, -apple-system, sans-serif" font-weight="600" opacity="0.9">v0.5.0</text>
<circle cx="224.3" cy="60.6" r="3" fill="#3b82f6" stroke="white" stroke-width="1"/>
<text x="224.3" y="52.6" font-size="9" fill="#3b82f6" text-anchor="middle" font-family="system-ui, -apple-system, sans-serif" font-weight="600" opacity="0.9">v0.6.0</text>
<circle cx="264.7" cy="108.7" r="3" fill="#3b82f6" stroke="white" stroke-width="1"/>
<text x="264.7" y="100.7" font-size="9" fill="#3b82f6" text-anchor="middle" font-family="system-ui, -apple-system, sans-serif" font-weight="600" opacity="0.9">v0.6.1</text>
<circle cx="305.0" cy="112.0" r="3" fill="#3b82f6" stroke="white" stroke-width="1"/>
<text x="305.0" y="104.0" font-size="9" fill="#3b82f6" text-anchor="middle" font-family="system-ui, -apple-system, sans-serif" font-weight="600" opacity="0.9">v0.7.0 (7.09K ops/s)</text>
<circle cx="345.3" cy="111.1" r="3" fill="#3b82f6" stroke="white" stroke-width="1"/>
<text x="345.3" y="103.1" font-size="9" fill="#3b82f6" text-anchor="middle" font-family="system-ui, -apple-system, sans-serif" font-weight="600" opacity="0.9">v0.7.0</text>
<circle cx="385.7" cy="23.0" r="3" fill="#3b82f6" stroke="white" stroke-width="1"/>
<text x="385.7" y="17.0" font-size="9" fill="#3b82f6" text-anchor="middle" font-family="system-ui, -apple-system, sans-serif" font-weight="600" opacity="0.9">v0.7.0 (9.10K ops/s)</text>
<circle cx="426.0" cy="95.3" r="3" fill="#3b82f6" stroke="white" stroke-width="1"/>
<text x="426.0" y="87.3" font-size="9" fill="#3b82f6" text-anchor="middle" font-family="system-ui, -apple-system, sans-serif" font-weight="600" opacity="0.9">v0.8.0</text>
<circle cx="466.3" cy="95.4" r="3" fill="#3b82f6" stroke="white" stroke-width="1"/>
<text x="466.3" y="87.4" font-size="9" fill="#3b82f6" text-anchor="middle" font-family="system-ui, -apple-system, sans-serif" font-weight="600" opacity="0.9">v0.8.0</text>
<circle cx="506.7" cy="108.0" r="3" fill="#3b82f6" stroke="white" stroke-width="1"/>
<text x="506.7" y="100.0" font-size="9" fill="#3b82f6" text-anchor="middle" font-family="system-ui, -apple-system, sans-serif" font-weight="600" opacity="0.9">v0.8.0</text>
<circle cx="547.0" cy="93.4" r="3" fill="#3b82f6" stroke="white" stroke-width="1"/>
<text x="547.0" y="85.4" font-size="9" fill="#3b82f6" text-anchor="middle" font-family="system-ui, -apple-system, sans-serif" font-weight="600" opacity="0.9">v0.8.0</text>
</svg>