<svg width="615" height="120" viewBox="0 0 615 120" xmlns="http://www.w3.org/2000/svg">
<rect width="615" height="120" fill="transparent"/>
<line x1="63" y1="67.5" x2="547" y2="67.5" stroke="currentColor" stroke-width="0.5" opacity="0.2" stroke-dasharray="2,2"/>
<polyline fill="none" stroke="#3b82f6" stroke-width="2" points="48.0,37.6 97.6,23.0 132.1,23.7 166.7,25.6 201.3,74.7 235.9,109.0 270.4,112.0 305.0,109.5 339.6,27.6 374.1,102.0 408.7,100.2 443.3,105.9 477.9,105.9 512.4,99.8 547.0,106.7" stroke-linecap="round" stroke-linejoin="round"/>
<circle cx="48.0" cy="37.6" r="3" fill="#3b82f6" stroke="white" stroke-width="1"/>
<text x="48.0" y="29.6" font-size="9" fill="#3b82f6" text-anchor="middle" font-family="system-ui, -apple-system, sans-serif" font-weight="600" opacity="0.9">v0.4.1</text>
<circle cx="97.6" cy="23.0" r="3" fill="#3b82f6" stroke="white" stroke-width="1"/>
<text x="97.6" y="17.0" font-size="9" fill="#3b82f6" text-anchor="middle" font-family="system-ui, -apple-system, sans-serif" font-weight="600" opacity="0.9">v0.4.1 (80.36K ops/s)</text>
<circle cx="132.1" cy="23.7" r="3" fill="#3b82f6" stroke="white" stroke-width="1"/>
<text x="132.1" y="17.0" font-size="9" fill="#3b82f6" text-anchor="middle" font-family="system-ui, -apple-system, sans-serif" font-weight="600" opacity="0.9">v0.5.0</text>
<circle cx="166.7" cy="25.6" r="3" fill="#3b82f6" stroke="white" stroke-width="1"/>
<text x="166.7" y="17.6" font-size="9" fill="#3b82f6" text-anchor="middle" font-family="system-ui, -apple-system, sans-serif" font-weight="600" opacity="0.9">v0.5.0</text>
<circle cx="201.3" cy="74.7" r="3" fill="#3b82f6" stroke="white" stroke-width="1"/>
<text x="201.3" y="66.7" font-size="9" fill="#3b82f6" text-anchor="middle" font-family="system-ui, -apple-system, sans-serif" font-weight="600" opacity="0.9">v0.6.0</text>
<circle cx="235.9" cy="109.0" r="3" fill="#3b82f6" stroke="white" stroke-width="1"/>
<text x="235.9" y="101.0" font-size="9" fill="#3b82f6" text-anchor="middle" font-family="system-ui, -apple-system, sans-serif" font-weight="600" opacity="0.9">v0.6.1</text>
<circle cx="270.4" cy="112.0" r="3" fill="#3b82f6" stroke="white" stroke-width="1"/>
<text x="270.4" y="104.0" font-size="9" fill="#3b82f6" text-anchor="middle" font-family="system-ui, -apple-system, sans-serif" font-weight="600" opacity="0.9">v0.7.0 (58.52K ops/s)</text>
<circle cx="305.0" cy="109.5" r="3" fill="#3b82f6" stroke="white" stroke-width="1"/>
<text x="305.0" y="101.5" font-size="9" fill="#3b82f6" text-anchor="middle" font-family="system-ui, -apple-system, sans-serif" font-weight="600" opacity="0.9">v0.7.0</text>
<circle cx="339.6" cy="27.6" r="3" fill="#3b82f6" stroke="white" stroke-width="1"/>
<text x="339.6" y="19.6" font-size="9" fill="#3b82f6" text-anchor="middle" font-family="system-ui, -apple-system, sans-serif" font-weight="600" opacity="0.9">v0.7.0</text>
<circle cx="374.1" cy="102.0" r="3" fill="#3b82f6" stroke="white" stroke-width="1"/>
<text x="374.1" y="94.0" font-size="9" fill="#3b82f6" text-anchor="middle" font-family="system-ui, -apple-system, sans-serif" font-weight="600" opacity="0.9">v0.8.0</text>
<circle cx="408.7" cy="100.2" r="3" fill="#3b82f6" stroke="white" stroke-width="1"/>
<text x="408.7" y="92.2" font-size="9" fill="#3b82f6" text-anchor="middle" font-family="system-ui, -apple-system, sans-serif" font-weight="600" opacity="0.9">v0.8.0</text>
<circle cx="443.3" cy="105.9" r="3" fill="#3b82f6" stroke="white" stroke-width="1"/>
<text x="443.3" y="97.9" font-size="9" fill="#3b82f6" text-anchor="middle" font-family="system-ui, -apple-system, sans-serif" font-weight="600" opacity="0.9">v0.8.0</text>
<circle cx="477.9" cy="105.9" r="3" fill="#3b82f6" stroke="white" stroke-width="1"/>
<text x="477.9" y="97.9" font-size="9" fill="#3b82f6" text-anchor="middle" font-family="system-ui, -apple-system, sans-serif" font-weight="600" opacity="0.9">v0.8.0</text>
<circle cx="512.4" cy="99.8" r="3" fill="#3b82f6" stroke="white" stroke-width="1"/>
<text x="512.4" y="91.8" font-size="9" fill="#3b82f6" text-anchor="middle" font-family="system-ui, -apple-system, sans-serif" font-weight="600" opacity="0.9">v0.8.0</text>
<circle cx="547.0" cy="106.7" r="3" fill="#3b82f6" stroke="white" stroke-width="1"/>
<text x="547.0" y="98.7" font-size="9" fill="#3b82f6" text-anchor="middle" font-family="system-ui, -apple-system, sans-serif" font-weight="600" opacity="0.9">v0.8.0</text>
</svg>