<svg width="615" height="120" viewBox="0 0 615 120" xmlns="http://www.w3.org/2000/svg">
<rect width="615" height="120" fill="transparent"/>
<line x1="63" y1="67.5" x2="547" y2="67.5" stroke="currentColor" stroke-width="0.5" opacity="0.2" stroke-dasharray="2,2"/>
<polyline fill="none" stroke="#3b82f6" stroke-width="2" points="48.0,104.4 116.8,71.6 170.6,58.4 224.3,68.0 278.1,84.1 331.9,107.9 385.7,88.5 439.4,112.0 493.2,23.0 547.0,105.2" stroke-linecap="round" stroke-linejoin="round"/>
<circle cx="48.0" cy="104.4" r="3" fill="#3b82f6" stroke="white" stroke-width="1"/>
<text x="48.0" y="96.4" font-size="9" fill="#3b82f6" text-anchor="middle" font-family="system-ui, -apple-system, sans-serif" font-weight="600" opacity="0.9">v0.4.1</text>
<circle cx="116.8" cy="71.6" r="3" fill="#3b82f6" stroke="white" stroke-width="1"/>
<text x="116.8" y="63.6" font-size="9" fill="#3b82f6" text-anchor="middle" font-family="system-ui, -apple-system, sans-serif" font-weight="600" opacity="0.9">v0.4.1</text>
<circle cx="170.6" cy="58.4" r="3" fill="#3b82f6" stroke="white" stroke-width="1"/>
<text x="170.6" y="50.4" font-size="9" fill="#3b82f6" text-anchor="middle" font-family="system-ui, -apple-system, sans-serif" font-weight="600" opacity="0.9">v0.5.0</text>
<circle cx="224.3" cy="68.0" r="3" fill="#3b82f6" stroke="white" stroke-width="1"/>
<text x="224.3" y="60.0" font-size="9" fill="#3b82f6" text-anchor="middle" font-family="system-ui, -apple-system, sans-serif" font-weight="600" opacity="0.9">v0.5.0</text>
<circle cx="278.1" cy="84.1" r="3" fill="#3b82f6" stroke="white" stroke-width="1"/>
<text x="278.1" y="76.1" font-size="9" fill="#3b82f6" text-anchor="middle" font-family="system-ui, -apple-system, sans-serif" font-weight="600" opacity="0.9">v0.6.0</text>
<circle cx="331.9" cy="107.9" r="3" fill="#3b82f6" stroke="white" stroke-width="1"/>
<text x="331.9" y="99.9" font-size="9" fill="#3b82f6" text-anchor="middle" font-family="system-ui, -apple-system, sans-serif" font-weight="600" opacity="0.9">v0.6.1</text>
<circle cx="385.7" cy="88.5" r="3" fill="#3b82f6" stroke="white" stroke-width="1"/>
<text x="385.7" y="80.5" font-size="9" fill="#3b82f6" text-anchor="middle" font-family="system-ui, -apple-system, sans-serif" font-weight="600" opacity="0.9">v0.7.0</text>
<circle cx="439.4" cy="112.0" r="3" fill="#3b82f6" stroke="white" stroke-width="1"/>
<text x="439.4" y="104.0" font-size="9" fill="#3b82f6" text-anchor="middle" font-family="system-ui, -apple-system, sans-serif" font-weight="600" opacity="0.9">v0.7.0 (26.18K ops/s)</text>
<circle cx="493.2" cy="23.0" r="3" fill="#3b82f6" stroke="white" stroke-width="1"/>
<text x="493.2" y="17.0" font-size="9" fill="#3b82f6" text-anchor="middle" font-family="system-ui, -apple-system, sans-serif" font-weight="600" opacity="0.9">v0.7.0 (32.22K ops/s)</text>
<circle cx="547.0" cy="105.2" r="3" fill="#3b82f6" stroke="white" stroke-width="1"/>
<text x="547.0" y="97.2" font-size="9" fill="#3b82f6" text-anchor="middle" font-family="system-ui, -apple-system, sans-serif" font-weight="600" opacity="0.9">v0.8.0</text>
</svg>