<svg width="615" height="120" viewBox="0 0 615 120" xmlns="http://www.w3.org/2000/svg">
<rect width="615" height="120" fill="transparent"/>
<line x1="63" y1="67.5" x2="547" y2="67.5" stroke="currentColor" stroke-width="0.5" opacity="0.2" stroke-dasharray="2,2"/>
<polyline fill="none" stroke="#3b82f6" stroke-width="2" points="48.0,112.0 95.3,80.1 127.5,89.8 159.8,81.5 192.1,100.3 224.3,103.2 256.6,90.4 288.9,106.9 321.1,23.0 353.4,93.1 385.7,93.5 417.9,94.2 450.2,94.4 482.5,84.6 514.7,80.6 547.0,89.3" stroke-linecap="round" stroke-linejoin="round"/>
<circle cx="48.0" cy="112.0" r="3" fill="#3b82f6" stroke="white" stroke-width="1"/>
<text x="48.0" y="104.0" font-size="9" fill="#3b82f6" text-anchor="middle" font-family="system-ui, -apple-system, sans-serif" font-weight="600" opacity="0.9">v0.4.1 (21.3 ops/s)</text>
<circle cx="95.3" cy="80.1" r="3" fill="#3b82f6" stroke="white" stroke-width="1"/>
<text x="95.3" y="72.1" font-size="9" fill="#3b82f6" text-anchor="middle" font-family="system-ui, -apple-system, sans-serif" font-weight="600" opacity="0.9">v0.4.1</text>
<circle cx="127.5" cy="89.8" r="3" fill="#3b82f6" stroke="white" stroke-width="1"/>
<text x="127.5" y="81.8" font-size="9" fill="#3b82f6" text-anchor="middle" font-family="system-ui, -apple-system, sans-serif" font-weight="600" opacity="0.9">v0.5.0</text>
<circle cx="159.8" cy="81.5" r="3" fill="#3b82f6" stroke="white" stroke-width="1"/>
<text x="159.8" y="73.5" font-size="9" fill="#3b82f6" text-anchor="middle" font-family="system-ui, -apple-system, sans-serif" font-weight="600" opacity="0.9">v0.5.0</text>
<circle cx="192.1" cy="100.3" r="3" fill="#3b82f6" stroke="white" stroke-width="1"/>
<text x="192.1" y="92.3" font-size="9" fill="#3b82f6" text-anchor="middle" font-family="system-ui, -apple-system, sans-serif" font-weight="600" opacity="0.9">v0.6.0</text>
<circle cx="224.3" cy="103.2" r="3" fill="#3b82f6" stroke="white" stroke-width="1"/>
<text x="224.3" y="95.2" font-size="9" fill="#3b82f6" text-anchor="middle" font-family="system-ui, -apple-system, sans-serif" font-weight="600" opacity="0.9">v0.6.1</text>
<circle cx="256.6" cy="90.4" r="3" fill="#3b82f6" stroke="white" stroke-width="1"/>
<text x="256.6" y="82.4" font-size="9" fill="#3b82f6" text-anchor="middle" font-family="system-ui, -apple-system, sans-serif" font-weight="600" opacity="0.9">v0.7.0</text>
<circle cx="288.9" cy="106.9" r="3" fill="#3b82f6" stroke="white" stroke-width="1"/>
<text x="288.9" y="98.9" font-size="9" fill="#3b82f6" text-anchor="middle" font-family="system-ui, -apple-system, sans-serif" font-weight="600" opacity="0.9">v0.7.0</text>
<circle cx="321.1" cy="23.0" r="3" fill="#3b82f6" stroke="white" stroke-width="1"/>
<text x="321.1" y="17.0" font-size="9" fill="#3b82f6" text-anchor="middle" font-family="system-ui, -apple-system, sans-serif" font-weight="600" opacity="0.9">v0.7.0 (29.5 ops/s)</text>
<circle cx="353.4" cy="93.1" r="3" fill="#3b82f6" stroke="white" stroke-width="1"/>
<text x="353.4" y="85.1" font-size="9" fill="#3b82f6" text-anchor="middle" font-family="system-ui, -apple-system, sans-serif" font-weight="600" opacity="0.9">v0.8.0</text>
<circle cx="385.7" cy="93.5" r="3" fill="#3b82f6" stroke="white" stroke-width="1"/>
<text x="385.7" y="85.5" font-size="9" fill="#3b82f6" text-anchor="middle" font-family="system-ui, -apple-system, sans-serif" font-weight="600" opacity="0.9">v0.8.0</text>
<circle cx="417.9" cy="94.2" r="3" fill="#3b82f6" stroke="white" stroke-width="1"/>
<text x="417.9" y="86.2" font-size="9" fill="#3b82f6" text-anchor="middle" font-family="system-ui, -apple-system, sans-serif" font-weight="600" opacity="0.9">v0.8.0</text>
<circle cx="450.2" cy="94.4" r="3" fill="#3b82f6" stroke="white" stroke-width="1"/>
<text x="450.2" y="86.4" font-size="9" fill="#3b82f6" text-anchor="middle" font-family="system-ui, -apple-system, sans-serif" font-weight="600" opacity="0.9">v0.8.0</text>
<circle cx="482.5" cy="84.6" r="3" fill="#3b82f6" stroke="white" stroke-width="1"/>
<text x="482.5" y="76.6" font-size="9" fill="#3b82f6" text-anchor="middle" font-family="system-ui, -apple-system, sans-serif" font-weight="600" opacity="0.9">v0.8.0</text>
<circle cx="514.7" cy="80.6" r="3" fill="#3b82f6" stroke="white" stroke-width="1"/>
<text x="514.7" y="72.6" font-size="9" fill="#3b82f6" text-anchor="middle" font-family="system-ui, -apple-system, sans-serif" font-weight="600" opacity="0.9">v0.8.0</text>
<circle cx="547.0" cy="89.3" r="3" fill="#3b82f6" stroke="white" stroke-width="1"/>
<text x="547.0" y="81.3" font-size="9" fill="#3b82f6" text-anchor="middle" font-family="system-ui, -apple-system, sans-serif" font-weight="600" opacity="0.9">v0.9.0</text>
</svg>