<svg width="615" height="120" viewBox="0 0 615 120" xmlns="http://www.w3.org/2000/svg">
<rect width="615" height="120" fill="transparent"/>
<line x1="63" y1="67.5" x2="547" y2="67.5" stroke="currentColor" stroke-width="0.5" opacity="0.2" stroke-dasharray="2,2"/>
<polyline fill="none" stroke="#3b82f6" stroke-width="2" points="48.0,69.8 93.2,56.1 123.5,55.9 153.8,58.0 184.0,65.6 214.2,105.8 244.5,103.4 274.8,95.6 305.0,23.0 335.2,96.3 365.5,96.2 395.8,104.5 426.0,97.1 456.2,112.0 486.5,103.6 516.8,93.2 547.0,104.2" stroke-linecap="round" stroke-linejoin="round"/>
<circle cx="48.0" cy="69.8" r="3" fill="#3b82f6" stroke="white" stroke-width="1"/>
<text x="48.0" y="61.8" font-size="9" fill="#3b82f6" text-anchor="middle" font-family="system-ui, -apple-system, sans-serif" font-weight="600" opacity="0.9">v0.4.1</text>
<circle cx="93.2" cy="56.1" r="3" fill="#3b82f6" stroke="white" stroke-width="1"/>
<text x="93.2" y="48.1" font-size="9" fill="#3b82f6" text-anchor="middle" font-family="system-ui, -apple-system, sans-serif" font-weight="600" opacity="0.9">v0.4.1</text>
<circle cx="123.5" cy="55.9" r="3" fill="#3b82f6" stroke="white" stroke-width="1"/>
<text x="123.5" y="47.9" font-size="9" fill="#3b82f6" text-anchor="middle" font-family="system-ui, -apple-system, sans-serif" font-weight="600" opacity="0.9">v0.5.0</text>
<circle cx="153.8" cy="58.0" r="3" fill="#3b82f6" stroke="white" stroke-width="1"/>
<text x="153.8" y="50.0" font-size="9" fill="#3b82f6" text-anchor="middle" font-family="system-ui, -apple-system, sans-serif" font-weight="600" opacity="0.9">v0.5.0</text>
<circle cx="184.0" cy="65.6" r="3" fill="#3b82f6" stroke="white" stroke-width="1"/>
<text x="184.0" y="57.6" font-size="9" fill="#3b82f6" text-anchor="middle" font-family="system-ui, -apple-system, sans-serif" font-weight="600" opacity="0.9">v0.6.0</text>
<circle cx="214.2" cy="105.8" r="3" fill="#3b82f6" stroke="white" stroke-width="1"/>
<text x="214.2" y="97.8" font-size="9" fill="#3b82f6" text-anchor="middle" font-family="system-ui, -apple-system, sans-serif" font-weight="600" opacity="0.9">v0.6.1</text>
<circle cx="244.5" cy="103.4" r="3" fill="#3b82f6" stroke="white" stroke-width="1"/>
<text x="244.5" y="95.4" font-size="9" fill="#3b82f6" text-anchor="middle" font-family="system-ui, -apple-system, sans-serif" font-weight="600" opacity="0.9">v0.7.0</text>
<circle cx="274.8" cy="95.6" r="3" fill="#3b82f6" stroke="white" stroke-width="1"/>
<text x="274.8" y="87.6" font-size="9" fill="#3b82f6" text-anchor="middle" font-family="system-ui, -apple-system, sans-serif" font-weight="600" opacity="0.9">v0.7.0</text>
<circle cx="305.0" cy="23.0" r="3" fill="#3b82f6" stroke="white" stroke-width="1"/>
<text x="305.0" y="17.0" font-size="9" fill="#3b82f6" text-anchor="middle" font-family="system-ui, -apple-system, sans-serif" font-weight="600" opacity="0.9">v0.7.0 (984.3 ops/s)</text>
<circle cx="335.2" cy="96.3" r="3" fill="#3b82f6" stroke="white" stroke-width="1"/>
<text x="335.2" y="88.3" font-size="9" fill="#3b82f6" text-anchor="middle" font-family="system-ui, -apple-system, sans-serif" font-weight="600" opacity="0.9">v0.8.0</text>
<circle cx="365.5" cy="96.2" r="3" fill="#3b82f6" stroke="white" stroke-width="1"/>
<text x="365.5" y="88.2" font-size="9" fill="#3b82f6" text-anchor="middle" font-family="system-ui, -apple-system, sans-serif" font-weight="600" opacity="0.9">v0.8.0</text>
<circle cx="395.8" cy="104.5" r="3" fill="#3b82f6" stroke="white" stroke-width="1"/>
<text x="395.8" y="96.5" font-size="9" fill="#3b82f6" text-anchor="middle" font-family="system-ui, -apple-system, sans-serif" font-weight="600" opacity="0.9">v0.8.0</text>
<circle cx="426.0" cy="97.1" r="3" fill="#3b82f6" stroke="white" stroke-width="1"/>
<text x="426.0" y="89.1" font-size="9" fill="#3b82f6" text-anchor="middle" font-family="system-ui, -apple-system, sans-serif" font-weight="600" opacity="0.9">v0.8.0</text>
<circle cx="456.2" cy="112.0" r="3" fill="#3b82f6" stroke="white" stroke-width="1"/>
<text x="456.2" y="104.0" font-size="9" fill="#3b82f6" text-anchor="middle" font-family="system-ui, -apple-system, sans-serif" font-weight="600" opacity="0.9">v0.8.0 (747.3 ops/s)</text>
<circle cx="486.5" cy="103.6" r="3" fill="#3b82f6" stroke="white" stroke-width="1"/>
<text x="486.5" y="95.6" font-size="9" fill="#3b82f6" text-anchor="middle" font-family="system-ui, -apple-system, sans-serif" font-weight="600" opacity="0.9">v0.8.0</text>
<circle cx="516.8" cy="93.2" r="3" fill="#3b82f6" stroke="white" stroke-width="1"/>
<text x="516.8" y="85.2" font-size="9" fill="#3b82f6" text-anchor="middle" font-family="system-ui, -apple-system, sans-serif" font-weight="600" opacity="0.9">v0.9.0</text>
<circle cx="547.0" cy="104.2" r="3" fill="#3b82f6" stroke="white" stroke-width="1"/>
<text x="547.0" y="96.2" font-size="9" fill="#3b82f6" text-anchor="middle" font-family="system-ui, -apple-system, sans-serif" font-weight="600" opacity="0.9">v0.9.0</text>
</svg>