<svg width="755" height="120" viewBox="0 0 755 120" xmlns="http://www.w3.org/2000/svg">
<rect width="755" height="120" fill="transparent"/>
<line x1="63" y1="67.5" x2="547" y2="67.5" stroke="currentColor" stroke-width="0.5" opacity="0.2" stroke-dasharray="2,2"/>
<polyline fill="none" stroke="#3b82f6" stroke-width="2" points="48.0,110.4 116.8,107.4 170.6,96.0 224.3,95.2 278.1,76.7 331.9,96.8 385.7,101.0 439.4,110.3 493.2,23.0 547.0,112.0" stroke-linecap="round" stroke-linejoin="round"/>
<circle cx="48.0" cy="110.4" r="3" fill="#3b82f6" stroke="white" stroke-width="1"/>
<text x="48.0" y="102.4" font-size="9" fill="#3b82f6" text-anchor="middle" font-family="system-ui, -apple-system, sans-serif" font-weight="600" opacity="0.9">v0.4.1</text>
<circle cx="116.8" cy="107.4" r="3" fill="#3b82f6" stroke="white" stroke-width="1"/>
<text x="116.8" y="99.4" font-size="9" fill="#3b82f6" text-anchor="middle" font-family="system-ui, -apple-system, sans-serif" font-weight="600" opacity="0.9">v0.4.1</text>
<circle cx="170.6" cy="96.0" r="3" fill="#3b82f6" stroke="white" stroke-width="1"/>
<text x="170.6" y="88.0" font-size="9" fill="#3b82f6" text-anchor="middle" font-family="system-ui, -apple-system, sans-serif" font-weight="600" opacity="0.9">v0.5.0</text>
<circle cx="224.3" cy="95.2" r="3" fill="#3b82f6" stroke="white" stroke-width="1"/>
<text x="224.3" y="87.2" font-size="9" fill="#3b82f6" text-anchor="middle" font-family="system-ui, -apple-system, sans-serif" font-weight="600" opacity="0.9">v0.5.0</text>
<circle cx="278.1" cy="76.7" r="3" fill="#3b82f6" stroke="white" stroke-width="1"/>
<text x="278.1" y="68.7" font-size="9" fill="#3b82f6" text-anchor="middle" font-family="system-ui, -apple-system, sans-serif" font-weight="600" opacity="0.9">v0.6.0</text>
<circle cx="331.9" cy="96.8" r="3" fill="#3b82f6" stroke="white" stroke-width="1"/>
<text x="331.9" y="88.8" font-size="9" fill="#3b82f6" text-anchor="middle" font-family="system-ui, -apple-system, sans-serif" font-weight="600" opacity="0.9">v0.6.1</text>
<circle cx="385.7" cy="101.0" r="3" fill="#3b82f6" stroke="white" stroke-width="1"/>
<text x="385.7" y="93.0" font-size="9" fill="#3b82f6" text-anchor="middle" font-family="system-ui, -apple-system, sans-serif" font-weight="600" opacity="0.9">v0.7.0</text>
<circle cx="439.4" cy="110.3" r="3" fill="#3b82f6" stroke="white" stroke-width="1"/>
<text x="439.4" y="102.3" font-size="9" fill="#3b82f6" text-anchor="middle" font-family="system-ui, -apple-system, sans-serif" font-weight="600" opacity="0.9">v0.7.0</text>
<circle cx="493.2" cy="23.0" r="3" fill="#3b82f6" stroke="white" stroke-width="1"/>
<text x="493.2" y="17.0" font-size="9" fill="#3b82f6" text-anchor="middle" font-family="system-ui, -apple-system, sans-serif" font-weight="600" opacity="0.9">v0.7.0 (59.11K ops/s)</text>
<circle cx="547.0" cy="112.0" r="3" fill="#3b82f6" stroke="white" stroke-width="1"/>
<text x="547.0" y="104.0" font-size="9" fill="#3b82f6" text-anchor="middle" font-family="system-ui, -apple-system, sans-serif" font-weight="600" opacity="0.9">v0.8.0 (45.28K ops/s)</text>
</svg>