<svg width="615" height="120" viewBox="0 0 615 120" xmlns="http://www.w3.org/2000/svg">
<rect width="615" height="120" fill="transparent"/>
<line x1="63" y1="67.5" x2="547" y2="67.5" stroke="currentColor" stroke-width="0.5" opacity="0.2" stroke-dasharray="2,2"/>
<polyline fill="none" stroke="#3b82f6" stroke-width="2" points="48.0,30.0 91.5,29.9 119.9,23.0 148.4,25.3 176.9,48.7 205.4,106.0 233.8,110.9 262.3,107.3 290.8,28.7 319.2,106.7 347.7,109.3 376.2,106.2 404.6,107.2 433.1,107.1 461.6,101.0 490.1,109.3 518.5,112.0 547.0,108.5" stroke-linecap="round" stroke-linejoin="round"/>
<circle cx="48.0" cy="30.0" r="3" fill="#3b82f6" stroke="white" stroke-width="1"/>
<text x="48.0" y="22.0" font-size="9" fill="#3b82f6" text-anchor="middle" font-family="system-ui, -apple-system, sans-serif" font-weight="600" opacity="0.9">v0.4.1</text>
<circle cx="91.5" cy="29.9" r="3" fill="#3b82f6" stroke="white" stroke-width="1"/>
<text x="91.5" y="21.9" font-size="9" fill="#3b82f6" text-anchor="middle" font-family="system-ui, -apple-system, sans-serif" font-weight="600" opacity="0.9">v0.4.1</text>
<circle cx="119.9" cy="23.0" r="3" fill="#3b82f6" stroke="white" stroke-width="1"/>
<text x="119.9" y="17.0" font-size="9" fill="#3b82f6" text-anchor="middle" font-family="system-ui, -apple-system, sans-serif" font-weight="600" opacity="0.9">v0.5.0 (126.64K ops/s)</text>
<circle cx="148.4" cy="25.3" r="3" fill="#3b82f6" stroke="white" stroke-width="1"/>
<text x="148.4" y="17.3" font-size="9" fill="#3b82f6" text-anchor="middle" font-family="system-ui, -apple-system, sans-serif" font-weight="600" opacity="0.9">v0.5.0</text>
<circle cx="176.9" cy="48.7" r="3" fill="#3b82f6" stroke="white" stroke-width="1"/>
<text x="176.9" y="40.7" font-size="9" fill="#3b82f6" text-anchor="middle" font-family="system-ui, -apple-system, sans-serif" font-weight="600" opacity="0.9">v0.6.0</text>
<circle cx="205.4" cy="106.0" r="3" fill="#3b82f6" stroke="white" stroke-width="1"/>
<text x="205.4" y="98.0" font-size="9" fill="#3b82f6" text-anchor="middle" font-family="system-ui, -apple-system, sans-serif" font-weight="600" opacity="0.9">v0.6.1</text>
<circle cx="233.8" cy="110.9" r="3" fill="#3b82f6" stroke="white" stroke-width="1"/>
<text x="233.8" y="102.9" font-size="9" fill="#3b82f6" text-anchor="middle" font-family="system-ui, -apple-system, sans-serif" font-weight="600" opacity="0.9">v0.7.0</text>
<circle cx="262.3" cy="107.3" r="3" fill="#3b82f6" stroke="white" stroke-width="1"/>
<text x="262.3" y="99.3" font-size="9" fill="#3b82f6" text-anchor="middle" font-family="system-ui, -apple-system, sans-serif" font-weight="600" opacity="0.9">v0.7.0</text>
<circle cx="290.8" cy="28.7" r="3" fill="#3b82f6" stroke="white" stroke-width="1"/>
<text x="290.8" y="20.7" font-size="9" fill="#3b82f6" text-anchor="middle" font-family="system-ui, -apple-system, sans-serif" font-weight="600" opacity="0.9">v0.7.0</text>
<circle cx="319.2" cy="106.7" r="3" fill="#3b82f6" stroke="white" stroke-width="1"/>
<text x="319.2" y="98.7" font-size="9" fill="#3b82f6" text-anchor="middle" font-family="system-ui, -apple-system, sans-serif" font-weight="600" opacity="0.9">v0.8.0</text>
<circle cx="347.7" cy="109.3" r="3" fill="#3b82f6" stroke="white" stroke-width="1"/>
<text x="347.7" y="101.3" font-size="9" fill="#3b82f6" text-anchor="middle" font-family="system-ui, -apple-system, sans-serif" font-weight="600" opacity="0.9">v0.8.0</text>
<circle cx="376.2" cy="106.2" r="3" fill="#3b82f6" stroke="white" stroke-width="1"/>
<text x="376.2" y="98.2" font-size="9" fill="#3b82f6" text-anchor="middle" font-family="system-ui, -apple-system, sans-serif" font-weight="600" opacity="0.9">v0.8.0</text>
<circle cx="404.6" cy="107.2" r="3" fill="#3b82f6" stroke="white" stroke-width="1"/>
<text x="404.6" y="99.2" font-size="9" fill="#3b82f6" text-anchor="middle" font-family="system-ui, -apple-system, sans-serif" font-weight="600" opacity="0.9">v0.8.0</text>
<circle cx="433.1" cy="107.1" r="3" fill="#3b82f6" stroke="white" stroke-width="1"/>
<text x="433.1" y="99.1" font-size="9" fill="#3b82f6" text-anchor="middle" font-family="system-ui, -apple-system, sans-serif" font-weight="600" opacity="0.9">v0.8.0</text>
<circle cx="461.6" cy="101.0" r="3" fill="#3b82f6" stroke="white" stroke-width="1"/>
<text x="461.6" y="93.0" font-size="9" fill="#3b82f6" text-anchor="middle" font-family="system-ui, -apple-system, sans-serif" font-weight="600" opacity="0.9">v0.8.0</text>
<circle cx="490.1" cy="109.3" r="3" fill="#3b82f6" stroke="white" stroke-width="1"/>
<text x="490.1" y="101.3" font-size="9" fill="#3b82f6" text-anchor="middle" font-family="system-ui, -apple-system, sans-serif" font-weight="600" opacity="0.9">v0.9.0</text>
<circle cx="518.5" cy="112.0" r="3" fill="#3b82f6" stroke="white" stroke-width="1"/>
<text x="518.5" y="104.0" font-size="9" fill="#3b82f6" text-anchor="middle" font-family="system-ui, -apple-system, sans-serif" font-weight="600" opacity="0.9">v0.9.0 (94.35K ops/s)</text>
<circle cx="547.0" cy="108.5" r="3" fill="#3b82f6" stroke="white" stroke-width="1"/>
<text x="547.0" y="100.5" font-size="9" fill="#3b82f6" text-anchor="middle" font-family="system-ui, -apple-system, sans-serif" font-weight="600" opacity="0.9">v0.10.0</text>
</svg>