<svg width="755" height="120" viewBox="0 0 755 120" xmlns="http://www.w3.org/2000/svg">
<rect width="755" height="120" fill="transparent"/>
<line x1="63" y1="67.5" x2="547" y2="67.5" stroke="currentColor" stroke-width="0.5" opacity="0.2" stroke-dasharray="2,2"/>
<polyline fill="none" stroke="#3b82f6" stroke-width="2" points="48.0,38.9 132.1,25.1 201.3,23.0 270.4,26.3 339.6,71.4 408.7,89.8 477.9,87.4 547.0,112.0" stroke-linecap="round" stroke-linejoin="round"/>
<circle cx="48.0" cy="38.9" r="3" fill="#3b82f6" stroke="white" stroke-width="1"/>
<text x="48.0" y="30.9" font-size="9" fill="#3b82f6" text-anchor="middle" font-family="system-ui, -apple-system, sans-serif" font-weight="600" opacity="0.9">v0.4.1</text>
<circle cx="132.1" cy="25.1" r="3" fill="#3b82f6" stroke="white" stroke-width="1"/>
<text x="132.1" y="17.1" font-size="9" fill="#3b82f6" text-anchor="middle" font-family="system-ui, -apple-system, sans-serif" font-weight="600" opacity="0.9">v0.4.1</text>
<circle cx="201.3" cy="23.0" r="3" fill="#3b82f6" stroke="white" stroke-width="1"/>
<text x="201.3" y="17.0" font-size="9" fill="#3b82f6" text-anchor="middle" font-family="system-ui, -apple-system, sans-serif" font-weight="600" opacity="0.9">v0.5.0 (871.5 ops/s)</text>
<circle cx="270.4" cy="26.3" r="3" fill="#3b82f6" stroke="white" stroke-width="1"/>
<text x="270.4" y="18.3" font-size="9" fill="#3b82f6" text-anchor="middle" font-family="system-ui, -apple-system, sans-serif" font-weight="600" opacity="0.9">v0.5.0</text>
<circle cx="339.6" cy="71.4" r="3" fill="#3b82f6" stroke="white" stroke-width="1"/>
<text x="339.6" y="63.4" font-size="9" fill="#3b82f6" text-anchor="middle" font-family="system-ui, -apple-system, sans-serif" font-weight="600" opacity="0.9">v0.6.0</text>
<circle cx="408.7" cy="89.8" r="3" fill="#3b82f6" stroke="white" stroke-width="1"/>
<text x="408.7" y="81.8" font-size="9" fill="#3b82f6" text-anchor="middle" font-family="system-ui, -apple-system, sans-serif" font-weight="600" opacity="0.9">v0.6.1</text>
<circle cx="477.9" cy="87.4" r="3" fill="#3b82f6" stroke="white" stroke-width="1"/>
<text x="477.9" y="79.4" font-size="9" fill="#3b82f6" text-anchor="middle" font-family="system-ui, -apple-system, sans-serif" font-weight="600" opacity="0.9">v0.7.0</text>
<circle cx="547.0" cy="112.0" r="3" fill="#3b82f6" stroke="white" stroke-width="1"/>
<text x="547.0" y="104.0" font-size="9" fill="#3b82f6" text-anchor="middle" font-family="system-ui, -apple-system, sans-serif" font-weight="600" opacity="0.9">v0.7.0 (648.5 ops/s)</text>
</svg>