<svg width="615" height="120" viewBox="0 0 615 120" xmlns="http://www.w3.org/2000/svg">
<rect width="615" height="120" fill="transparent"/>
<line x1="63" y1="67.5" x2="547" y2="67.5" stroke="currentColor" stroke-width="0.5" opacity="0.2" stroke-dasharray="2,2"/>
<polyline fill="none" stroke="#3b82f6" stroke-width="2" points="48.0,112.0 103.3,78.6 143.7,71.3 184.0,72.8 224.3,83.2 264.7,102.0 305.0,91.0 345.3,98.3 385.7,23.0 426.0,94.9 466.3,97.7 506.7,91.2 547.0,98.2" stroke-linecap="round" stroke-linejoin="round"/>
<circle cx="48.0" cy="112.0" r="3" fill="#3b82f6" stroke="white" stroke-width="1"/>
<text x="48.0" y="104.0" font-size="9" fill="#3b82f6" text-anchor="middle" font-family="system-ui, -apple-system, sans-serif" font-weight="600" opacity="0.9">v0.4.1 (170.9 ops/s)</text>
<circle cx="103.3" cy="78.6" r="3" fill="#3b82f6" stroke="white" stroke-width="1"/>
<text x="103.3" y="70.6" font-size="9" fill="#3b82f6" text-anchor="middle" font-family="system-ui, -apple-system, sans-serif" font-weight="600" opacity="0.9">v0.4.1</text>
<circle cx="143.7" cy="71.3" r="3" fill="#3b82f6" stroke="white" stroke-width="1"/>
<text x="143.7" y="63.3" font-size="9" fill="#3b82f6" text-anchor="middle" font-family="system-ui, -apple-system, sans-serif" font-weight="600" opacity="0.9">v0.5.0</text>
<circle cx="184.0" cy="72.8" r="3" fill="#3b82f6" stroke="white" stroke-width="1"/>
<text x="184.0" y="64.8" font-size="9" fill="#3b82f6" text-anchor="middle" font-family="system-ui, -apple-system, sans-serif" font-weight="600" opacity="0.9">v0.5.0</text>
<circle cx="224.3" cy="83.2" r="3" fill="#3b82f6" stroke="white" stroke-width="1"/>
<text x="224.3" y="75.2" font-size="9" fill="#3b82f6" text-anchor="middle" font-family="system-ui, -apple-system, sans-serif" font-weight="600" opacity="0.9">v0.6.0</text>
<circle cx="264.7" cy="102.0" r="3" fill="#3b82f6" stroke="white" stroke-width="1"/>
<text x="264.7" y="94.0" font-size="9" fill="#3b82f6" text-anchor="middle" font-family="system-ui, -apple-system, sans-serif" font-weight="600" opacity="0.9">v0.6.1</text>
<circle cx="305.0" cy="91.0" r="3" fill="#3b82f6" stroke="white" stroke-width="1"/>
<text x="305.0" y="83.0" font-size="9" fill="#3b82f6" text-anchor="middle" font-family="system-ui, -apple-system, sans-serif" font-weight="600" opacity="0.9">v0.7.0</text>
<circle cx="345.3" cy="98.3" r="3" fill="#3b82f6" stroke="white" stroke-width="1"/>
<text x="345.3" y="90.3" font-size="9" fill="#3b82f6" text-anchor="middle" font-family="system-ui, -apple-system, sans-serif" font-weight="600" opacity="0.9">v0.7.0</text>
<circle cx="385.7" cy="23.0" r="3" fill="#3b82f6" stroke="white" stroke-width="1"/>
<text x="385.7" y="17.0" font-size="9" fill="#3b82f6" text-anchor="middle" font-family="system-ui, -apple-system, sans-serif" font-weight="600" opacity="0.9">v0.7.0 (238.2 ops/s)</text>
<circle cx="426.0" cy="94.9" r="3" fill="#3b82f6" stroke="white" stroke-width="1"/>
<text x="426.0" y="86.9" font-size="9" fill="#3b82f6" text-anchor="middle" font-family="system-ui, -apple-system, sans-serif" font-weight="600" opacity="0.9">v0.8.0</text>
<circle cx="466.3" cy="97.7" r="3" fill="#3b82f6" stroke="white" stroke-width="1"/>
<text x="466.3" y="89.7" font-size="9" fill="#3b82f6" text-anchor="middle" font-family="system-ui, -apple-system, sans-serif" font-weight="600" opacity="0.9">v0.8.0</text>
<circle cx="506.7" cy="91.2" r="3" fill="#3b82f6" stroke="white" stroke-width="1"/>
<text x="506.7" y="83.2" font-size="9" fill="#3b82f6" text-anchor="middle" font-family="system-ui, -apple-system, sans-serif" font-weight="600" opacity="0.9">v0.8.0</text>
<circle cx="547.0" cy="98.2" r="3" fill="#3b82f6" stroke="white" stroke-width="1"/>
<text x="547.0" y="90.2" font-size="9" fill="#3b82f6" text-anchor="middle" font-family="system-ui, -apple-system, sans-serif" font-weight="600" opacity="0.9">v0.8.0</text>
</svg>