<svg width="615" height="120" viewBox="0 0 615 120" xmlns="http://www.w3.org/2000/svg">
<rect width="615" height="120" fill="transparent"/>
<line x1="63" y1="67.5" x2="547" y2="67.5" stroke="currentColor" stroke-width="0.5" opacity="0.2" stroke-dasharray="2,2"/>
<polyline fill="none" stroke="#3b82f6" stroke-width="2" points="48.0,83.6 97.6,57.1 132.1,54.5 166.7,53.9 201.3,85.3 235.9,108.9 270.4,104.7 305.0,111.7 339.6,23.0 374.1,111.7 408.7,112.0 443.3,107.7 477.9,110.7 512.4,110.3 547.0,103.8" stroke-linecap="round" stroke-linejoin="round"/>
<circle cx="48.0" cy="83.6" r="3" fill="#3b82f6" stroke="white" stroke-width="1"/>
<text x="48.0" y="75.6" font-size="9" fill="#3b82f6" text-anchor="middle" font-family="system-ui, -apple-system, sans-serif" font-weight="600" opacity="0.9">v0.4.1</text>
<circle cx="97.6" cy="57.1" r="3" fill="#3b82f6" stroke="white" stroke-width="1"/>
<text x="97.6" y="49.1" font-size="9" fill="#3b82f6" text-anchor="middle" font-family="system-ui, -apple-system, sans-serif" font-weight="600" opacity="0.9">v0.4.1</text>
<circle cx="132.1" cy="54.5" r="3" fill="#3b82f6" stroke="white" stroke-width="1"/>
<text x="132.1" y="46.5" font-size="9" fill="#3b82f6" text-anchor="middle" font-family="system-ui, -apple-system, sans-serif" font-weight="600" opacity="0.9">v0.5.0</text>
<circle cx="166.7" cy="53.9" r="3" fill="#3b82f6" stroke="white" stroke-width="1"/>
<text x="166.7" y="45.9" font-size="9" fill="#3b82f6" text-anchor="middle" font-family="system-ui, -apple-system, sans-serif" font-weight="600" opacity="0.9">v0.5.0</text>
<circle cx="201.3" cy="85.3" r="3" fill="#3b82f6" stroke="white" stroke-width="1"/>
<text x="201.3" y="77.3" font-size="9" fill="#3b82f6" text-anchor="middle" font-family="system-ui, -apple-system, sans-serif" font-weight="600" opacity="0.9">v0.6.0</text>
<circle cx="235.9" cy="108.9" r="3" fill="#3b82f6" stroke="white" stroke-width="1"/>
<text x="235.9" y="100.9" font-size="9" fill="#3b82f6" text-anchor="middle" font-family="system-ui, -apple-system, sans-serif" font-weight="600" opacity="0.9">v0.6.1</text>
<circle cx="270.4" cy="104.7" r="3" fill="#3b82f6" stroke="white" stroke-width="1"/>
<text x="270.4" y="96.7" font-size="9" fill="#3b82f6" text-anchor="middle" font-family="system-ui, -apple-system, sans-serif" font-weight="600" opacity="0.9">v0.7.0</text>
<circle cx="305.0" cy="111.7" r="3" fill="#3b82f6" stroke="white" stroke-width="1"/>
<text x="305.0" y="103.7" font-size="9" fill="#3b82f6" text-anchor="middle" font-family="system-ui, -apple-system, sans-serif" font-weight="600" opacity="0.9">v0.7.0</text>
<circle cx="339.6" cy="23.0" r="3" fill="#3b82f6" stroke="white" stroke-width="1"/>
<text x="339.6" y="17.0" font-size="9" fill="#3b82f6" text-anchor="middle" font-family="system-ui, -apple-system, sans-serif" font-weight="600" opacity="0.9">v0.7.0 (3.12K ops/s)</text>
<circle cx="374.1" cy="111.7" r="3" fill="#3b82f6" stroke="white" stroke-width="1"/>
<text x="374.1" y="103.7" font-size="9" fill="#3b82f6" text-anchor="middle" font-family="system-ui, -apple-system, sans-serif" font-weight="600" opacity="0.9">v0.8.0</text>
<circle cx="408.7" cy="112.0" r="3" fill="#3b82f6" stroke="white" stroke-width="1"/>
<text x="408.7" y="104.0" font-size="9" fill="#3b82f6" text-anchor="middle" font-family="system-ui, -apple-system, sans-serif" font-weight="600" opacity="0.9">v0.8.0 (2.42K ops/s)</text>
<circle cx="443.3" cy="107.7" r="3" fill="#3b82f6" stroke="white" stroke-width="1"/>
<text x="443.3" y="99.7" font-size="9" fill="#3b82f6" text-anchor="middle" font-family="system-ui, -apple-system, sans-serif" font-weight="600" opacity="0.9">v0.8.0</text>
<circle cx="477.9" cy="110.7" r="3" fill="#3b82f6" stroke="white" stroke-width="1"/>
<text x="477.9" y="102.7" font-size="9" fill="#3b82f6" text-anchor="middle" font-family="system-ui, -apple-system, sans-serif" font-weight="600" opacity="0.9">v0.8.0</text>
<circle cx="512.4" cy="110.3" r="3" fill="#3b82f6" stroke="white" stroke-width="1"/>
<text x="512.4" y="102.3" font-size="9" fill="#3b82f6" text-anchor="middle" font-family="system-ui, -apple-system, sans-serif" font-weight="600" opacity="0.9">v0.8.0</text>
<circle cx="547.0" cy="103.8" r="3" fill="#3b82f6" stroke="white" stroke-width="1"/>
<text x="547.0" y="95.8" font-size="9" fill="#3b82f6" text-anchor="middle" font-family="system-ui, -apple-system, sans-serif" font-weight="600" opacity="0.9">v0.8.0</text>
</svg>