<svg width="615" height="120" viewBox="0 0 615 120" xmlns="http://www.w3.org/2000/svg">
<rect width="615" height="120" fill="transparent"/>
<line x1="63" y1="67.5" x2="547" y2="67.5" stroke="currentColor" stroke-width="0.5" opacity="0.2" stroke-dasharray="2,2"/>
<polyline fill="none" stroke="#3b82f6" stroke-width="2" points="48.0,81.7 95.3,81.2 127.5,85.9 159.8,81.6 192.1,98.9 224.3,105.7 256.6,112.0 288.9,100.1 321.1,23.0 353.4,68.7 385.7,69.6 417.9,67.7 450.2,62.5 482.5,67.3 514.7,67.1 547.0,68.2" stroke-linecap="round" stroke-linejoin="round"/>
<circle cx="48.0" cy="81.7" r="3" fill="#3b82f6" stroke="white" stroke-width="1"/>
<text x="48.0" y="73.7" font-size="9" fill="#3b82f6" text-anchor="middle" font-family="system-ui, -apple-system, sans-serif" font-weight="600" opacity="0.9">v0.4.1</text>
<circle cx="95.3" cy="81.2" r="3" fill="#3b82f6" stroke="white" stroke-width="1"/>
<text x="95.3" y="73.2" font-size="9" fill="#3b82f6" text-anchor="middle" font-family="system-ui, -apple-system, sans-serif" font-weight="600" opacity="0.9">v0.4.1</text>
<circle cx="127.5" cy="85.9" r="3" fill="#3b82f6" stroke="white" stroke-width="1"/>
<text x="127.5" y="77.9" font-size="9" fill="#3b82f6" text-anchor="middle" font-family="system-ui, -apple-system, sans-serif" font-weight="600" opacity="0.9">v0.5.0</text>
<circle cx="159.8" cy="81.6" r="3" fill="#3b82f6" stroke="white" stroke-width="1"/>
<text x="159.8" y="73.6" font-size="9" fill="#3b82f6" text-anchor="middle" font-family="system-ui, -apple-system, sans-serif" font-weight="600" opacity="0.9">v0.5.0</text>
<circle cx="192.1" cy="98.9" r="3" fill="#3b82f6" stroke="white" stroke-width="1"/>
<text x="192.1" y="90.9" font-size="9" fill="#3b82f6" text-anchor="middle" font-family="system-ui, -apple-system, sans-serif" font-weight="600" opacity="0.9">v0.6.0</text>
<circle cx="224.3" cy="105.7" r="3" fill="#3b82f6" stroke="white" stroke-width="1"/>
<text x="224.3" y="97.7" font-size="9" fill="#3b82f6" text-anchor="middle" font-family="system-ui, -apple-system, sans-serif" font-weight="600" opacity="0.9">v0.6.1</text>
<circle cx="256.6" cy="112.0" r="3" fill="#3b82f6" stroke="white" stroke-width="1"/>
<text x="256.6" y="104.0" font-size="9" fill="#3b82f6" text-anchor="middle" font-family="system-ui, -apple-system, sans-serif" font-weight="600" opacity="0.9">v0.7.0 (86.8 ops/s)</text>
<circle cx="288.9" cy="100.1" r="3" fill="#3b82f6" stroke="white" stroke-width="1"/>
<text x="288.9" y="92.1" font-size="9" fill="#3b82f6" text-anchor="middle" font-family="system-ui, -apple-system, sans-serif" font-weight="600" opacity="0.9">v0.7.0</text>
<circle cx="321.1" cy="23.0" r="3" fill="#3b82f6" stroke="white" stroke-width="1"/>
<text x="321.1" y="17.0" font-size="9" fill="#3b82f6" text-anchor="middle" font-family="system-ui, -apple-system, sans-serif" font-weight="600" opacity="0.9">v0.7.0 (157.8 ops/s)</text>
<circle cx="353.4" cy="68.7" r="3" fill="#3b82f6" stroke="white" stroke-width="1"/>
<text x="353.4" y="60.7" font-size="9" fill="#3b82f6" text-anchor="middle" font-family="system-ui, -apple-system, sans-serif" font-weight="600" opacity="0.9">v0.8.0</text>
<circle cx="385.7" cy="69.6" r="3" fill="#3b82f6" stroke="white" stroke-width="1"/>
<text x="385.7" y="61.6" font-size="9" fill="#3b82f6" text-anchor="middle" font-family="system-ui, -apple-system, sans-serif" font-weight="600" opacity="0.9">v0.8.0</text>
<circle cx="417.9" cy="67.7" r="3" fill="#3b82f6" stroke="white" stroke-width="1"/>
<text x="417.9" y="59.7" font-size="9" fill="#3b82f6" text-anchor="middle" font-family="system-ui, -apple-system, sans-serif" font-weight="600" opacity="0.9">v0.8.0</text>
<circle cx="450.2" cy="62.5" r="3" fill="#3b82f6" stroke="white" stroke-width="1"/>
<text x="450.2" y="54.5" font-size="9" fill="#3b82f6" text-anchor="middle" font-family="system-ui, -apple-system, sans-serif" font-weight="600" opacity="0.9">v0.8.0</text>
<circle cx="482.5" cy="67.3" r="3" fill="#3b82f6" stroke="white" stroke-width="1"/>
<text x="482.5" y="59.3" font-size="9" fill="#3b82f6" text-anchor="middle" font-family="system-ui, -apple-system, sans-serif" font-weight="600" opacity="0.9">v0.8.0</text>
<circle cx="514.7" cy="67.1" r="3" fill="#3b82f6" stroke="white" stroke-width="1"/>
<text x="514.7" y="59.1" font-size="9" fill="#3b82f6" text-anchor="middle" font-family="system-ui, -apple-system, sans-serif" font-weight="600" opacity="0.9">v0.8.0</text>
<circle cx="547.0" cy="68.2" r="3" fill="#3b82f6" stroke="white" stroke-width="1"/>
<text x="547.0" y="60.2" font-size="9" fill="#3b82f6" text-anchor="middle" font-family="system-ui, -apple-system, sans-serif" font-weight="600" opacity="0.9">v0.9.0</text>
</svg>