<svg width="755" height="120" viewBox="0 0 755 120" xmlns="http://www.w3.org/2000/svg">
<rect width="755" height="120" fill="transparent"/>
<line x1="63" y1="67.5" x2="547" y2="67.5" stroke="currentColor" stroke-width="0.5" opacity="0.2" stroke-dasharray="2,2"/>
<polyline fill="none" stroke="#3b82f6" stroke-width="2" points="48.0,92.9 91.5,73.6 119.9,71.5 148.4,67.8 176.9,81.4 205.4,111.3 233.8,103.7 262.3,109.1 290.8,23.0 319.2,110.2 347.7,107.9 376.2,107.2 404.6,104.8 433.1,109.2 461.6,102.0 490.1,111.3 518.5,101.4 547.0,112.0" stroke-linecap="round" stroke-linejoin="round"/>
<circle cx="48.0" cy="92.9" r="3" fill="#3b82f6" stroke="white" stroke-width="1"/>
<text x="48.0" y="84.9" font-size="9" fill="#3b82f6" text-anchor="middle" font-family="system-ui, -apple-system, sans-serif" font-weight="600" opacity="0.9">v0.4.1</text>
<circle cx="91.5" cy="73.6" r="3" fill="#3b82f6" stroke="white" stroke-width="1"/>
<text x="91.5" y="65.6" font-size="9" fill="#3b82f6" text-anchor="middle" font-family="system-ui, -apple-system, sans-serif" font-weight="600" opacity="0.9">v0.4.1</text>
<circle cx="119.9" cy="71.5" r="3" fill="#3b82f6" stroke="white" stroke-width="1"/>
<text x="119.9" y="63.5" font-size="9" fill="#3b82f6" text-anchor="middle" font-family="system-ui, -apple-system, sans-serif" font-weight="600" opacity="0.9">v0.5.0</text>
<circle cx="148.4" cy="67.8" r="3" fill="#3b82f6" stroke="white" stroke-width="1"/>
<text x="148.4" y="59.8" font-size="9" fill="#3b82f6" text-anchor="middle" font-family="system-ui, -apple-system, sans-serif" font-weight="600" opacity="0.9">v0.5.0</text>
<circle cx="176.9" cy="81.4" r="3" fill="#3b82f6" stroke="white" stroke-width="1"/>
<text x="176.9" y="73.4" font-size="9" fill="#3b82f6" text-anchor="middle" font-family="system-ui, -apple-system, sans-serif" font-weight="600" opacity="0.9">v0.6.0</text>
<circle cx="205.4" cy="111.3" r="3" fill="#3b82f6" stroke="white" stroke-width="1"/>
<text x="205.4" y="103.3" font-size="9" fill="#3b82f6" text-anchor="middle" font-family="system-ui, -apple-system, sans-serif" font-weight="600" opacity="0.9">v0.6.1</text>
<circle cx="233.8" cy="103.7" r="3" fill="#3b82f6" stroke="white" stroke-width="1"/>
<text x="233.8" y="95.7" font-size="9" fill="#3b82f6" text-anchor="middle" font-family="system-ui, -apple-system, sans-serif" font-weight="600" opacity="0.9">v0.7.0</text>
<circle cx="262.3" cy="109.1" r="3" fill="#3b82f6" stroke="white" stroke-width="1"/>
<text x="262.3" y="101.1" font-size="9" fill="#3b82f6" text-anchor="middle" font-family="system-ui, -apple-system, sans-serif" font-weight="600" opacity="0.9">v0.7.0</text>
<circle cx="290.8" cy="23.0" r="3" fill="#3b82f6" stroke="white" stroke-width="1"/>
<text x="290.8" y="17.0" font-size="9" fill="#3b82f6" text-anchor="middle" font-family="system-ui, -apple-system, sans-serif" font-weight="600" opacity="0.9">v0.7.0 (337.5 ops/s)</text>
<circle cx="319.2" cy="110.2" r="3" fill="#3b82f6" stroke="white" stroke-width="1"/>
<text x="319.2" y="102.2" font-size="9" fill="#3b82f6" text-anchor="middle" font-family="system-ui, -apple-system, sans-serif" font-weight="600" opacity="0.9">v0.8.0</text>
<circle cx="347.7" cy="107.9" r="3" fill="#3b82f6" stroke="white" stroke-width="1"/>
<text x="347.7" y="99.9" font-size="9" fill="#3b82f6" text-anchor="middle" font-family="system-ui, -apple-system, sans-serif" font-weight="600" opacity="0.9">v0.8.0</text>
<circle cx="376.2" cy="107.2" r="3" fill="#3b82f6" stroke="white" stroke-width="1"/>
<text x="376.2" y="99.2" font-size="9" fill="#3b82f6" text-anchor="middle" font-family="system-ui, -apple-system, sans-serif" font-weight="600" opacity="0.9">v0.8.0</text>
<circle cx="404.6" cy="104.8" r="3" fill="#3b82f6" stroke="white" stroke-width="1"/>
<text x="404.6" y="96.8" font-size="9" fill="#3b82f6" text-anchor="middle" font-family="system-ui, -apple-system, sans-serif" font-weight="600" opacity="0.9">v0.8.0</text>
<circle cx="433.1" cy="109.2" r="3" fill="#3b82f6" stroke="white" stroke-width="1"/>
<text x="433.1" y="101.2" font-size="9" fill="#3b82f6" text-anchor="middle" font-family="system-ui, -apple-system, sans-serif" font-weight="600" opacity="0.9">v0.8.0</text>
<circle cx="461.6" cy="102.0" r="3" fill="#3b82f6" stroke="white" stroke-width="1"/>
<text x="461.6" y="94.0" font-size="9" fill="#3b82f6" text-anchor="middle" font-family="system-ui, -apple-system, sans-serif" font-weight="600" opacity="0.9">v0.8.0</text>
<circle cx="490.1" cy="111.3" r="3" fill="#3b82f6" stroke="white" stroke-width="1"/>
<text x="490.1" y="103.3" font-size="9" fill="#3b82f6" text-anchor="middle" font-family="system-ui, -apple-system, sans-serif" font-weight="600" opacity="0.9">v0.9.0</text>
<circle cx="518.5" cy="101.4" r="3" fill="#3b82f6" stroke="white" stroke-width="1"/>
<text x="518.5" y="93.4" font-size="9" fill="#3b82f6" text-anchor="middle" font-family="system-ui, -apple-system, sans-serif" font-weight="600" opacity="0.9">v0.9.0</text>
<circle cx="547.0" cy="112.0" r="3" fill="#3b82f6" stroke="white" stroke-width="1"/>
<text x="547.0" y="104.0" font-size="9" fill="#3b82f6" text-anchor="middle" font-family="system-ui, -apple-system, sans-serif" font-weight="600" opacity="0.9">v0.10.0 (257.7 ops/s)</text>
</svg>