<svg width="615" height="120" viewBox="0 0 615 120" xmlns="http://www.w3.org/2000/svg">
<rect width="615" height="120" fill="transparent"/>
<line x1="63" y1="67.5" x2="547" y2="67.5" stroke="currentColor" stroke-width="0.5" opacity="0.2" stroke-dasharray="2,2"/>
<polyline fill="none" stroke="#3b82f6" stroke-width="2" points="48.0,37.6 95.3,23.0 127.5,23.7 159.8,25.6 192.1,74.7 224.3,109.0 256.6,112.0 288.9,109.5 321.1,27.6 353.4,102.0 385.7,100.2 417.9,105.9 450.2,105.9 482.5,99.8 514.7,106.7 547.0,100.2" stroke-linecap="round" stroke-linejoin="round"/>
<circle cx="48.0" cy="37.6" r="3" fill="#3b82f6" stroke="white" stroke-width="1"/>
<text x="48.0" y="29.6" font-size="9" fill="#3b82f6" text-anchor="middle" font-family="system-ui, -apple-system, sans-serif" font-weight="600" opacity="0.9">v0.4.1</text>
<circle cx="95.3" cy="23.0" r="3" fill="#3b82f6" stroke="white" stroke-width="1"/>
<text x="95.3" y="17.0" font-size="9" fill="#3b82f6" text-anchor="middle" font-family="system-ui, -apple-system, sans-serif" font-weight="600" opacity="0.9">v0.4.1 (80.36K ops/s)</text>
<circle cx="127.5" cy="23.7" r="3" fill="#3b82f6" stroke="white" stroke-width="1"/>
<text x="127.5" y="17.0" font-size="9" fill="#3b82f6" text-anchor="middle" font-family="system-ui, -apple-system, sans-serif" font-weight="600" opacity="0.9">v0.5.0</text>
<circle cx="159.8" cy="25.6" r="3" fill="#3b82f6" stroke="white" stroke-width="1"/>
<text x="159.8" y="17.6" font-size="9" fill="#3b82f6" text-anchor="middle" font-family="system-ui, -apple-system, sans-serif" font-weight="600" opacity="0.9">v0.5.0</text>
<circle cx="192.1" cy="74.7" r="3" fill="#3b82f6" stroke="white" stroke-width="1"/>
<text x="192.1" y="66.7" font-size="9" fill="#3b82f6" text-anchor="middle" font-family="system-ui, -apple-system, sans-serif" font-weight="600" opacity="0.9">v0.6.0</text>
<circle cx="224.3" cy="109.0" r="3" fill="#3b82f6" stroke="white" stroke-width="1"/>
<text x="224.3" y="101.0" font-size="9" fill="#3b82f6" text-anchor="middle" font-family="system-ui, -apple-system, sans-serif" font-weight="600" opacity="0.9">v0.6.1</text>
<circle cx="256.6" cy="112.0" r="3" fill="#3b82f6" stroke="white" stroke-width="1"/>
<text x="256.6" y="104.0" font-size="9" fill="#3b82f6" text-anchor="middle" font-family="system-ui, -apple-system, sans-serif" font-weight="600" opacity="0.9">v0.7.0 (58.52K ops/s)</text>
<circle cx="288.9" cy="109.5" r="3" fill="#3b82f6" stroke="white" stroke-width="1"/>
<text x="288.9" y="101.5" font-size="9" fill="#3b82f6" text-anchor="middle" font-family="system-ui, -apple-system, sans-serif" font-weight="600" opacity="0.9">v0.7.0</text>
<circle cx="321.1" cy="27.6" r="3" fill="#3b82f6" stroke="white" stroke-width="1"/>
<text x="321.1" y="19.6" font-size="9" fill="#3b82f6" text-anchor="middle" font-family="system-ui, -apple-system, sans-serif" font-weight="600" opacity="0.9">v0.7.0</text>
<circle cx="353.4" cy="102.0" r="3" fill="#3b82f6" stroke="white" stroke-width="1"/>
<text x="353.4" y="94.0" font-size="9" fill="#3b82f6" text-anchor="middle" font-family="system-ui, -apple-system, sans-serif" font-weight="600" opacity="0.9">v0.8.0</text>
<circle cx="385.7" cy="100.2" r="3" fill="#3b82f6" stroke="white" stroke-width="1"/>
<text x="385.7" y="92.2" font-size="9" fill="#3b82f6" text-anchor="middle" font-family="system-ui, -apple-system, sans-serif" font-weight="600" opacity="0.9">v0.8.0</text>
<circle cx="417.9" cy="105.9" r="3" fill="#3b82f6" stroke="white" stroke-width="1"/>
<text x="417.9" y="97.9" font-size="9" fill="#3b82f6" text-anchor="middle" font-family="system-ui, -apple-system, sans-serif" font-weight="600" opacity="0.9">v0.8.0</text>
<circle cx="450.2" cy="105.9" r="3" fill="#3b82f6" stroke="white" stroke-width="1"/>
<text x="450.2" y="97.9" font-size="9" fill="#3b82f6" text-anchor="middle" font-family="system-ui, -apple-system, sans-serif" font-weight="600" opacity="0.9">v0.8.0</text>
<circle cx="482.5" cy="99.8" r="3" fill="#3b82f6" stroke="white" stroke-width="1"/>
<text x="482.5" y="91.8" font-size="9" fill="#3b82f6" text-anchor="middle" font-family="system-ui, -apple-system, sans-serif" font-weight="600" opacity="0.9">v0.8.0</text>
<circle cx="514.7" cy="106.7" r="3" fill="#3b82f6" stroke="white" stroke-width="1"/>
<text x="514.7" y="98.7" font-size="9" fill="#3b82f6" text-anchor="middle" font-family="system-ui, -apple-system, sans-serif" font-weight="600" opacity="0.9">v0.8.0</text>
<circle cx="547.0" cy="100.2" r="3" fill="#3b82f6" stroke="white" stroke-width="1"/>
<text x="547.0" y="92.2" font-size="9" fill="#3b82f6" text-anchor="middle" font-family="system-ui, -apple-system, sans-serif" font-weight="600" opacity="0.9">v0.9.0</text>
</svg>