<svg width="615" height="120" viewBox="0 0 615 120" xmlns="http://www.w3.org/2000/svg">
<rect width="615" height="120" fill="transparent"/>
<line x1="63" y1="67.5" x2="547" y2="67.5" stroke="currentColor" stroke-width="0.5" opacity="0.2" stroke-dasharray="2,2"/>
<polyline fill="none" stroke="#3b82f6" stroke-width="2" points="48.0,30.1 95.3,30.0 127.5,23.0 159.8,25.3 192.1,49.0 224.3,107.0 256.6,112.0 288.9,108.4 321.1,28.8 353.4,107.7 385.7,110.4 417.9,107.2 450.2,108.3 482.5,108.2 514.7,102.0 547.0,110.4" stroke-linecap="round" stroke-linejoin="round"/>
<circle cx="48.0" cy="30.1" r="3" fill="#3b82f6" stroke="white" stroke-width="1"/>
<text x="48.0" y="22.1" font-size="9" fill="#3b82f6" text-anchor="middle" font-family="system-ui, -apple-system, sans-serif" font-weight="600" opacity="0.9">v0.4.1</text>
<circle cx="95.3" cy="30.0" r="3" fill="#3b82f6" stroke="white" stroke-width="1"/>
<text x="95.3" y="22.0" font-size="9" fill="#3b82f6" text-anchor="middle" font-family="system-ui, -apple-system, sans-serif" font-weight="600" opacity="0.9">v0.4.1</text>
<circle cx="127.5" cy="23.0" r="3" fill="#3b82f6" stroke="white" stroke-width="1"/>
<text x="127.5" y="17.0" font-size="9" fill="#3b82f6" text-anchor="middle" font-family="system-ui, -apple-system, sans-serif" font-weight="600" opacity="0.9">v0.5.0 (126.64K ops/s)</text>
<circle cx="159.8" cy="25.3" r="3" fill="#3b82f6" stroke="white" stroke-width="1"/>
<text x="159.8" y="17.3" font-size="9" fill="#3b82f6" text-anchor="middle" font-family="system-ui, -apple-system, sans-serif" font-weight="600" opacity="0.9">v0.5.0</text>
<circle cx="192.1" cy="49.0" r="3" fill="#3b82f6" stroke="white" stroke-width="1"/>
<text x="192.1" y="41.0" font-size="9" fill="#3b82f6" text-anchor="middle" font-family="system-ui, -apple-system, sans-serif" font-weight="600" opacity="0.9">v0.6.0</text>
<circle cx="224.3" cy="107.0" r="3" fill="#3b82f6" stroke="white" stroke-width="1"/>
<text x="224.3" y="99.0" font-size="9" fill="#3b82f6" text-anchor="middle" font-family="system-ui, -apple-system, sans-serif" font-weight="600" opacity="0.9">v0.6.1</text>
<circle cx="256.6" cy="112.0" r="3" fill="#3b82f6" stroke="white" stroke-width="1"/>
<text x="256.6" y="104.0" font-size="9" fill="#3b82f6" text-anchor="middle" font-family="system-ui, -apple-system, sans-serif" font-weight="600" opacity="0.9">v0.7.0 (94.75K ops/s)</text>
<circle cx="288.9" cy="108.4" r="3" fill="#3b82f6" stroke="white" stroke-width="1"/>
<text x="288.9" y="100.4" font-size="9" fill="#3b82f6" text-anchor="middle" font-family="system-ui, -apple-system, sans-serif" font-weight="600" opacity="0.9">v0.7.0</text>
<circle cx="321.1" cy="28.8" r="3" fill="#3b82f6" stroke="white" stroke-width="1"/>
<text x="321.1" y="20.8" font-size="9" fill="#3b82f6" text-anchor="middle" font-family="system-ui, -apple-system, sans-serif" font-weight="600" opacity="0.9">v0.7.0</text>
<circle cx="353.4" cy="107.7" r="3" fill="#3b82f6" stroke="white" stroke-width="1"/>
<text x="353.4" y="99.7" font-size="9" fill="#3b82f6" text-anchor="middle" font-family="system-ui, -apple-system, sans-serif" font-weight="600" opacity="0.9">v0.8.0</text>
<circle cx="385.7" cy="110.4" r="3" fill="#3b82f6" stroke="white" stroke-width="1"/>
<text x="385.7" y="102.4" font-size="9" fill="#3b82f6" text-anchor="middle" font-family="system-ui, -apple-system, sans-serif" font-weight="600" opacity="0.9">v0.8.0</text>
<circle cx="417.9" cy="107.2" r="3" fill="#3b82f6" stroke="white" stroke-width="1"/>
<text x="417.9" y="99.2" font-size="9" fill="#3b82f6" text-anchor="middle" font-family="system-ui, -apple-system, sans-serif" font-weight="600" opacity="0.9">v0.8.0</text>
<circle cx="450.2" cy="108.3" r="3" fill="#3b82f6" stroke="white" stroke-width="1"/>
<text x="450.2" y="100.3" font-size="9" fill="#3b82f6" text-anchor="middle" font-family="system-ui, -apple-system, sans-serif" font-weight="600" opacity="0.9">v0.8.0</text>
<circle cx="482.5" cy="108.2" r="3" fill="#3b82f6" stroke="white" stroke-width="1"/>
<text x="482.5" y="100.2" font-size="9" fill="#3b82f6" text-anchor="middle" font-family="system-ui, -apple-system, sans-serif" font-weight="600" opacity="0.9">v0.8.0</text>
<circle cx="514.7" cy="102.0" r="3" fill="#3b82f6" stroke="white" stroke-width="1"/>
<text x="514.7" y="94.0" font-size="9" fill="#3b82f6" text-anchor="middle" font-family="system-ui, -apple-system, sans-serif" font-weight="600" opacity="0.9">v0.8.0</text>
<circle cx="547.0" cy="110.4" r="3" fill="#3b82f6" stroke="white" stroke-width="1"/>
<text x="547.0" y="102.4" font-size="9" fill="#3b82f6" text-anchor="middle" font-family="system-ui, -apple-system, sans-serif" font-weight="600" opacity="0.9">v0.9.0</text>
</svg>