<svg width="615" height="120" viewBox="0 0 615 120" xmlns="http://www.w3.org/2000/svg">
<rect width="615" height="120" fill="transparent"/>
<line x1="63" y1="67.5" x2="547" y2="67.5" stroke="currentColor" stroke-width="0.5" opacity="0.2" stroke-dasharray="2,2"/>
<polyline fill="none" stroke="#3b82f6" stroke-width="2" points="48.0,30.1 103.3,30.0 143.7,23.0 184.0,25.3 224.3,49.0 264.7,107.0 305.0,112.0 345.3,108.4 385.7,28.8 426.0,107.7 466.3,110.4 506.7,107.2 547.0,108.3" stroke-linecap="round" stroke-linejoin="round"/>
<circle cx="48.0" cy="30.1" r="3" fill="#3b82f6" stroke="white" stroke-width="1"/>
<text x="48.0" y="22.1" font-size="9" fill="#3b82f6" text-anchor="middle" font-family="system-ui, -apple-system, sans-serif" font-weight="600" opacity="0.9">v0.4.1</text>
<circle cx="103.3" cy="30.0" r="3" fill="#3b82f6" stroke="white" stroke-width="1"/>
<text x="103.3" y="22.0" font-size="9" fill="#3b82f6" text-anchor="middle" font-family="system-ui, -apple-system, sans-serif" font-weight="600" opacity="0.9">v0.4.1</text>
<circle cx="143.7" cy="23.0" r="3" fill="#3b82f6" stroke="white" stroke-width="1"/>
<text x="143.7" y="17.0" font-size="9" fill="#3b82f6" text-anchor="middle" font-family="system-ui, -apple-system, sans-serif" font-weight="600" opacity="0.9">v0.5.0 (126.64K ops/s)</text>
<circle cx="184.0" cy="25.3" r="3" fill="#3b82f6" stroke="white" stroke-width="1"/>
<text x="184.0" y="17.3" font-size="9" fill="#3b82f6" text-anchor="middle" font-family="system-ui, -apple-system, sans-serif" font-weight="600" opacity="0.9">v0.5.0</text>
<circle cx="224.3" cy="49.0" r="3" fill="#3b82f6" stroke="white" stroke-width="1"/>
<text x="224.3" y="41.0" font-size="9" fill="#3b82f6" text-anchor="middle" font-family="system-ui, -apple-system, sans-serif" font-weight="600" opacity="0.9">v0.6.0</text>
<circle cx="264.7" cy="107.0" r="3" fill="#3b82f6" stroke="white" stroke-width="1"/>
<text x="264.7" y="99.0" font-size="9" fill="#3b82f6" text-anchor="middle" font-family="system-ui, -apple-system, sans-serif" font-weight="600" opacity="0.9">v0.6.1</text>
<circle cx="305.0" cy="112.0" r="3" fill="#3b82f6" stroke="white" stroke-width="1"/>
<text x="305.0" y="104.0" font-size="9" fill="#3b82f6" text-anchor="middle" font-family="system-ui, -apple-system, sans-serif" font-weight="600" opacity="0.9">v0.7.0 (94.75K ops/s)</text>
<circle cx="345.3" cy="108.4" r="3" fill="#3b82f6" stroke="white" stroke-width="1"/>
<text x="345.3" y="100.4" font-size="9" fill="#3b82f6" text-anchor="middle" font-family="system-ui, -apple-system, sans-serif" font-weight="600" opacity="0.9">v0.7.0</text>
<circle cx="385.7" cy="28.8" r="3" fill="#3b82f6" stroke="white" stroke-width="1"/>
<text x="385.7" y="20.8" font-size="9" fill="#3b82f6" text-anchor="middle" font-family="system-ui, -apple-system, sans-serif" font-weight="600" opacity="0.9">v0.7.0</text>
<circle cx="426.0" cy="107.7" r="3" fill="#3b82f6" stroke="white" stroke-width="1"/>
<text x="426.0" y="99.7" font-size="9" fill="#3b82f6" text-anchor="middle" font-family="system-ui, -apple-system, sans-serif" font-weight="600" opacity="0.9">v0.8.0</text>
<circle cx="466.3" cy="110.4" r="3" fill="#3b82f6" stroke="white" stroke-width="1"/>
<text x="466.3" y="102.4" font-size="9" fill="#3b82f6" text-anchor="middle" font-family="system-ui, -apple-system, sans-serif" font-weight="600" opacity="0.9">v0.8.0</text>
<circle cx="506.7" cy="107.2" r="3" fill="#3b82f6" stroke="white" stroke-width="1"/>
<text x="506.7" y="99.2" font-size="9" fill="#3b82f6" text-anchor="middle" font-family="system-ui, -apple-system, sans-serif" font-weight="600" opacity="0.9">v0.8.0</text>
<circle cx="547.0" cy="108.3" r="3" fill="#3b82f6" stroke="white" stroke-width="1"/>
<text x="547.0" y="100.3" font-size="9" fill="#3b82f6" text-anchor="middle" font-family="system-ui, -apple-system, sans-serif" font-weight="600" opacity="0.9">v0.8.0</text>
</svg>