<svg width="615" height="120" viewBox="0 0 615 120" xmlns="http://www.w3.org/2000/svg">
<rect width="615" height="120" fill="transparent"/>
<line x1="63" y1="67.5" x2="547" y2="67.5" stroke="currentColor" stroke-width="0.5" opacity="0.2" stroke-dasharray="2,2"/>
<polyline fill="none" stroke="#3b82f6" stroke-width="2" points="48.0,60.2 97.6,62.9 132.1,62.9 166.7,61.5 201.3,29.8 235.9,66.7 270.4,66.3 305.0,73.4 339.6,23.0 374.1,67.0 408.7,70.6 443.3,67.4 477.9,66.7 512.4,112.0 547.0,109.7" stroke-linecap="round" stroke-linejoin="round"/>
<circle cx="48.0" cy="60.2" r="3" fill="#3b82f6" stroke="white" stroke-width="1"/>
<text x="48.0" y="52.2" font-size="9" fill="#3b82f6" text-anchor="middle" font-family="system-ui, -apple-system, sans-serif" font-weight="600" opacity="0.9">v0.4.1</text>
<circle cx="97.6" cy="62.9" r="3" fill="#3b82f6" stroke="white" stroke-width="1"/>
<text x="97.6" y="54.9" font-size="9" fill="#3b82f6" text-anchor="middle" font-family="system-ui, -apple-system, sans-serif" font-weight="600" opacity="0.9">v0.4.1</text>
<circle cx="132.1" cy="62.9" r="3" fill="#3b82f6" stroke="white" stroke-width="1"/>
<text x="132.1" y="54.9" font-size="9" fill="#3b82f6" text-anchor="middle" font-family="system-ui, -apple-system, sans-serif" font-weight="600" opacity="0.9">v0.5.0</text>
<circle cx="166.7" cy="61.5" r="3" fill="#3b82f6" stroke="white" stroke-width="1"/>
<text x="166.7" y="53.5" font-size="9" fill="#3b82f6" text-anchor="middle" font-family="system-ui, -apple-system, sans-serif" font-weight="600" opacity="0.9">v0.5.0</text>
<circle cx="201.3" cy="29.8" r="3" fill="#3b82f6" stroke="white" stroke-width="1"/>
<text x="201.3" y="21.8" font-size="9" fill="#3b82f6" text-anchor="middle" font-family="system-ui, -apple-system, sans-serif" font-weight="600" opacity="0.9">v0.6.0</text>
<circle cx="235.9" cy="66.7" r="3" fill="#3b82f6" stroke="white" stroke-width="1"/>
<text x="235.9" y="58.7" font-size="9" fill="#3b82f6" text-anchor="middle" font-family="system-ui, -apple-system, sans-serif" font-weight="600" opacity="0.9">v0.6.1</text>
<circle cx="270.4" cy="66.3" r="3" fill="#3b82f6" stroke="white" stroke-width="1"/>
<text x="270.4" y="58.3" font-size="9" fill="#3b82f6" text-anchor="middle" font-family="system-ui, -apple-system, sans-serif" font-weight="600" opacity="0.9">v0.7.0</text>
<circle cx="305.0" cy="73.4" r="3" fill="#3b82f6" stroke="white" stroke-width="1"/>
<text x="305.0" y="65.4" font-size="9" fill="#3b82f6" text-anchor="middle" font-family="system-ui, -apple-system, sans-serif" font-weight="600" opacity="0.9">v0.7.0</text>
<circle cx="339.6" cy="23.0" r="3" fill="#3b82f6" stroke="white" stroke-width="1"/>
<text x="339.6" y="17.0" font-size="9" fill="#3b82f6" text-anchor="middle" font-family="system-ui, -apple-system, sans-serif" font-weight="600" opacity="0.9">v0.7.0 (73.77M ops/s)</text>
<circle cx="374.1" cy="67.0" r="3" fill="#3b82f6" stroke="white" stroke-width="1"/>
<text x="374.1" y="59.0" font-size="9" fill="#3b82f6" text-anchor="middle" font-family="system-ui, -apple-system, sans-serif" font-weight="600" opacity="0.9">v0.8.0</text>
<circle cx="408.7" cy="70.6" r="3" fill="#3b82f6" stroke="white" stroke-width="1"/>
<text x="408.7" y="62.6" font-size="9" fill="#3b82f6" text-anchor="middle" font-family="system-ui, -apple-system, sans-serif" font-weight="600" opacity="0.9">v0.8.0</text>
<circle cx="443.3" cy="67.4" r="3" fill="#3b82f6" stroke="white" stroke-width="1"/>
<text x="443.3" y="59.4" font-size="9" fill="#3b82f6" text-anchor="middle" font-family="system-ui, -apple-system, sans-serif" font-weight="600" opacity="0.9">v0.8.0</text>
<circle cx="477.9" cy="66.7" r="3" fill="#3b82f6" stroke="white" stroke-width="1"/>
<text x="477.9" y="58.7" font-size="9" fill="#3b82f6" text-anchor="middle" font-family="system-ui, -apple-system, sans-serif" font-weight="600" opacity="0.9">v0.8.0</text>
<circle cx="512.4" cy="112.0" r="3" fill="#3b82f6" stroke="white" stroke-width="1"/>
<text x="512.4" y="104.0" font-size="9" fill="#3b82f6" text-anchor="middle" font-family="system-ui, -apple-system, sans-serif" font-weight="600" opacity="0.9">v0.8.0 (41.31M ops/s)</text>
<circle cx="547.0" cy="109.7" r="3" fill="#3b82f6" stroke="white" stroke-width="1"/>
<text x="547.0" y="101.7" font-size="9" fill="#3b82f6" text-anchor="middle" font-family="system-ui, -apple-system, sans-serif" font-weight="600" opacity="0.9">v0.8.0</text>
</svg>