<svg width="615" height="120" viewBox="0 0 615 120" xmlns="http://www.w3.org/2000/svg">
<rect width="615" height="120" fill="transparent"/>
<line x1="63" y1="67.5" x2="547" y2="67.5" stroke="currentColor" stroke-width="0.5" opacity="0.2" stroke-dasharray="2,2"/>
<polyline fill="none" stroke="#3b82f6" stroke-width="2" points="48.0,73.6 93.2,74.2 123.5,73.8 153.8,74.2 184.0,39.5 214.2,43.9 244.5,43.6 274.8,36.1 305.0,23.0 335.2,36.2 365.5,36.1 395.8,43.3 426.0,36.1 456.2,112.0 486.5,111.6 516.8,111.7 547.0,111.7" stroke-linecap="round" stroke-linejoin="round"/>
<circle cx="48.0" cy="73.6" r="3" fill="#3b82f6" stroke="white" stroke-width="1"/>
<text x="48.0" y="65.6" font-size="9" fill="#3b82f6" text-anchor="middle" font-family="system-ui, -apple-system, sans-serif" font-weight="600" opacity="0.9">v0.4.1</text>
<circle cx="93.2" cy="74.2" r="3" fill="#3b82f6" stroke="white" stroke-width="1"/>
<text x="93.2" y="66.2" font-size="9" fill="#3b82f6" text-anchor="middle" font-family="system-ui, -apple-system, sans-serif" font-weight="600" opacity="0.9">v0.4.1</text>
<circle cx="123.5" cy="73.8" r="3" fill="#3b82f6" stroke="white" stroke-width="1"/>
<text x="123.5" y="65.8" font-size="9" fill="#3b82f6" text-anchor="middle" font-family="system-ui, -apple-system, sans-serif" font-weight="600" opacity="0.9">v0.5.0</text>
<circle cx="153.8" cy="74.2" r="3" fill="#3b82f6" stroke="white" stroke-width="1"/>
<text x="153.8" y="66.2" font-size="9" fill="#3b82f6" text-anchor="middle" font-family="system-ui, -apple-system, sans-serif" font-weight="600" opacity="0.9">v0.5.0</text>
<circle cx="184.0" cy="39.5" r="3" fill="#3b82f6" stroke="white" stroke-width="1"/>
<text x="184.0" y="31.5" font-size="9" fill="#3b82f6" text-anchor="middle" font-family="system-ui, -apple-system, sans-serif" font-weight="600" opacity="0.9">v0.6.0</text>
<circle cx="214.2" cy="43.9" r="3" fill="#3b82f6" stroke="white" stroke-width="1"/>
<text x="214.2" y="35.9" font-size="9" fill="#3b82f6" text-anchor="middle" font-family="system-ui, -apple-system, sans-serif" font-weight="600" opacity="0.9">v0.6.1</text>
<circle cx="244.5" cy="43.6" r="3" fill="#3b82f6" stroke="white" stroke-width="1"/>
<text x="244.5" y="35.6" font-size="9" fill="#3b82f6" text-anchor="middle" font-family="system-ui, -apple-system, sans-serif" font-weight="600" opacity="0.9">v0.7.0</text>
<circle cx="274.8" cy="36.1" r="3" fill="#3b82f6" stroke="white" stroke-width="1"/>
<text x="274.8" y="28.1" font-size="9" fill="#3b82f6" text-anchor="middle" font-family="system-ui, -apple-system, sans-serif" font-weight="600" opacity="0.9">v0.7.0</text>
<circle cx="305.0" cy="23.0" r="3" fill="#3b82f6" stroke="white" stroke-width="1"/>
<text x="305.0" y="17.0" font-size="9" fill="#3b82f6" text-anchor="middle" font-family="system-ui, -apple-system, sans-serif" font-weight="600" opacity="0.9">v0.7.0 (116.35M ops/s)</text>
<circle cx="335.2" cy="36.2" r="3" fill="#3b82f6" stroke="white" stroke-width="1"/>
<text x="335.2" y="28.2" font-size="9" fill="#3b82f6" text-anchor="middle" font-family="system-ui, -apple-system, sans-serif" font-weight="600" opacity="0.9">v0.8.0</text>
<circle cx="365.5" cy="36.1" r="3" fill="#3b82f6" stroke="white" stroke-width="1"/>
<text x="365.5" y="28.1" font-size="9" fill="#3b82f6" text-anchor="middle" font-family="system-ui, -apple-system, sans-serif" font-weight="600" opacity="0.9">v0.8.0</text>
<circle cx="395.8" cy="43.3" r="3" fill="#3b82f6" stroke="white" stroke-width="1"/>
<text x="395.8" y="35.3" font-size="9" fill="#3b82f6" text-anchor="middle" font-family="system-ui, -apple-system, sans-serif" font-weight="600" opacity="0.9">v0.8.0</text>
<circle cx="426.0" cy="36.1" r="3" fill="#3b82f6" stroke="white" stroke-width="1"/>
<text x="426.0" y="28.1" font-size="9" fill="#3b82f6" text-anchor="middle" font-family="system-ui, -apple-system, sans-serif" font-weight="600" opacity="0.9">v0.8.0</text>
<circle cx="456.2" cy="112.0" r="3" fill="#3b82f6" stroke="white" stroke-width="1"/>
<text x="456.2" y="104.0" font-size="9" fill="#3b82f6" text-anchor="middle" font-family="system-ui, -apple-system, sans-serif" font-weight="600" opacity="0.9">v0.8.0 (2.75M ops/s)</text>
<circle cx="486.5" cy="111.6" r="3" fill="#3b82f6" stroke="white" stroke-width="1"/>
<text x="486.5" y="103.6" font-size="9" fill="#3b82f6" text-anchor="middle" font-family="system-ui, -apple-system, sans-serif" font-weight="600" opacity="0.9">v0.8.0</text>
<circle cx="516.8" cy="111.7" r="3" fill="#3b82f6" stroke="white" stroke-width="1"/>
<text x="516.8" y="103.7" font-size="9" fill="#3b82f6" text-anchor="middle" font-family="system-ui, -apple-system, sans-serif" font-weight="600" opacity="0.9">v0.9.0</text>
<circle cx="547.0" cy="111.7" r="3" fill="#3b82f6" stroke="white" stroke-width="1"/>
<text x="547.0" y="103.7" font-size="9" fill="#3b82f6" text-anchor="middle" font-family="system-ui, -apple-system, sans-serif" font-weight="600" opacity="0.9">v0.9.0</text>
</svg>