<svg width="615" height="120" viewBox="0 0 615 120" xmlns="http://www.w3.org/2000/svg">
<rect width="615" height="120" fill="transparent"/>
<line x1="63" y1="67.5" x2="547" y2="67.5" stroke="currentColor" stroke-width="0.5" opacity="0.2" stroke-dasharray="2,2"/>
<polyline fill="none" stroke="#3b82f6" stroke-width="2" points="48.0,73.3 91.5,76.4 119.9,79.0 148.4,65.9 176.9,36.0 205.4,44.6 233.8,44.5 262.3,39.8 290.8,23.0 319.2,39.7 347.7,39.8 376.2,44.6 404.6,37.7 433.1,109.9 461.6,112.0 490.1,109.9 518.5,112.0 547.0,109.9" stroke-linecap="round" stroke-linejoin="round"/>
<circle cx="48.0" cy="73.3" r="3" fill="#3b82f6" stroke="white" stroke-width="1"/>
<text x="48.0" y="65.3" font-size="9" fill="#3b82f6" text-anchor="middle" font-family="system-ui, -apple-system, sans-serif" font-weight="600" opacity="0.9">v0.4.1</text>
<circle cx="91.5" cy="76.4" r="3" fill="#3b82f6" stroke="white" stroke-width="1"/>
<text x="91.5" y="68.4" font-size="9" fill="#3b82f6" text-anchor="middle" font-family="system-ui, -apple-system, sans-serif" font-weight="600" opacity="0.9">v0.4.1</text>
<circle cx="119.9" cy="79.0" r="3" fill="#3b82f6" stroke="white" stroke-width="1"/>
<text x="119.9" y="71.0" font-size="9" fill="#3b82f6" text-anchor="middle" font-family="system-ui, -apple-system, sans-serif" font-weight="600" opacity="0.9">v0.5.0</text>
<circle cx="148.4" cy="65.9" r="3" fill="#3b82f6" stroke="white" stroke-width="1"/>
<text x="148.4" y="57.9" font-size="9" fill="#3b82f6" text-anchor="middle" font-family="system-ui, -apple-system, sans-serif" font-weight="600" opacity="0.9">v0.5.0</text>
<circle cx="176.9" cy="36.0" r="3" fill="#3b82f6" stroke="white" stroke-width="1"/>
<text x="176.9" y="28.0" font-size="9" fill="#3b82f6" text-anchor="middle" font-family="system-ui, -apple-system, sans-serif" font-weight="600" opacity="0.9">v0.6.0</text>
<circle cx="205.4" cy="44.6" r="3" fill="#3b82f6" stroke="white" stroke-width="1"/>
<text x="205.4" y="36.6" font-size="9" fill="#3b82f6" text-anchor="middle" font-family="system-ui, -apple-system, sans-serif" font-weight="600" opacity="0.9">v0.6.1</text>
<circle cx="233.8" cy="44.5" r="3" fill="#3b82f6" stroke="white" stroke-width="1"/>
<text x="233.8" y="36.5" font-size="9" fill="#3b82f6" text-anchor="middle" font-family="system-ui, -apple-system, sans-serif" font-weight="600" opacity="0.9">v0.7.0</text>
<circle cx="262.3" cy="39.8" r="3" fill="#3b82f6" stroke="white" stroke-width="1"/>
<text x="262.3" y="31.8" font-size="9" fill="#3b82f6" text-anchor="middle" font-family="system-ui, -apple-system, sans-serif" font-weight="600" opacity="0.9">v0.7.0</text>
<circle cx="290.8" cy="23.0" r="3" fill="#3b82f6" stroke="white" stroke-width="1"/>
<text x="290.8" y="17.0" font-size="9" fill="#3b82f6" text-anchor="middle" font-family="system-ui, -apple-system, sans-serif" font-weight="600" opacity="0.9">v0.7.0 (804.10M ops/s)</text>
<circle cx="319.2" cy="39.7" r="3" fill="#3b82f6" stroke="white" stroke-width="1"/>
<text x="319.2" y="31.7" font-size="9" fill="#3b82f6" text-anchor="middle" font-family="system-ui, -apple-system, sans-serif" font-weight="600" opacity="0.9">v0.8.0</text>
<circle cx="347.7" cy="39.8" r="3" fill="#3b82f6" stroke="white" stroke-width="1"/>
<text x="347.7" y="31.8" font-size="9" fill="#3b82f6" text-anchor="middle" font-family="system-ui, -apple-system, sans-serif" font-weight="600" opacity="0.9">v0.8.0</text>
<circle cx="376.2" cy="44.6" r="3" fill="#3b82f6" stroke="white" stroke-width="1"/>
<text x="376.2" y="36.6" font-size="9" fill="#3b82f6" text-anchor="middle" font-family="system-ui, -apple-system, sans-serif" font-weight="600" opacity="0.9">v0.8.0</text>
<circle cx="404.6" cy="37.7" r="3" fill="#3b82f6" stroke="white" stroke-width="1"/>
<text x="404.6" y="29.7" font-size="9" fill="#3b82f6" text-anchor="middle" font-family="system-ui, -apple-system, sans-serif" font-weight="600" opacity="0.9">v0.8.0</text>
<circle cx="433.1" cy="109.9" r="3" fill="#3b82f6" stroke="white" stroke-width="1"/>
<text x="433.1" y="101.9" font-size="9" fill="#3b82f6" text-anchor="middle" font-family="system-ui, -apple-system, sans-serif" font-weight="600" opacity="0.9">v0.8.0</text>
<circle cx="461.6" cy="112.0" r="3" fill="#3b82f6" stroke="white" stroke-width="1"/>
<text x="461.6" y="104.0" font-size="9" fill="#3b82f6" text-anchor="middle" font-family="system-ui, -apple-system, sans-serif" font-weight="600" opacity="0.9">v0.8.0 (85.94M ops/s)</text>
<circle cx="490.1" cy="109.9" r="3" fill="#3b82f6" stroke="white" stroke-width="1"/>
<text x="490.1" y="101.9" font-size="9" fill="#3b82f6" text-anchor="middle" font-family="system-ui, -apple-system, sans-serif" font-weight="600" opacity="0.9">v0.9.0</text>
<circle cx="518.5" cy="112.0" r="3" fill="#3b82f6" stroke="white" stroke-width="1"/>
<text x="518.5" y="104.0" font-size="9" fill="#3b82f6" text-anchor="middle" font-family="system-ui, -apple-system, sans-serif" font-weight="600" opacity="0.9">v0.9.0</text>
<circle cx="547.0" cy="109.9" r="3" fill="#3b82f6" stroke="white" stroke-width="1"/>
<text x="547.0" y="101.9" font-size="9" fill="#3b82f6" text-anchor="middle" font-family="system-ui, -apple-system, sans-serif" font-weight="600" opacity="0.9">v0.10.0</text>
</svg>