<svg width="615" height="120" viewBox="0 0 615 120" xmlns="http://www.w3.org/2000/svg">
<rect width="615" height="120" fill="transparent"/>
<line x1="63" y1="67.5" x2="547" y2="67.5" stroke="currentColor" stroke-width="0.5" opacity="0.2" stroke-dasharray="2,2"/>
<polyline fill="none" stroke="#3b82f6" stroke-width="2" points="48.0,68.1 91.5,66.1 119.9,69.2 148.4,66.1 176.9,36.5 205.4,44.9 233.8,45.2 262.3,40.1 290.8,23.0 319.2,41.0 347.7,40.6 376.2,45.5 404.6,37.8 433.1,109.9 461.6,112.0 490.1,109.9 518.5,112.0 547.0,109.9" stroke-linecap="round" stroke-linejoin="round"/>
<circle cx="48.0" cy="68.1" r="3" fill="#3b82f6" stroke="white" stroke-width="1"/>
<text x="48.0" y="60.1" font-size="9" fill="#3b82f6" text-anchor="middle" font-family="system-ui, -apple-system, sans-serif" font-weight="600" opacity="0.9">v0.4.1</text>
<circle cx="91.5" cy="66.1" r="3" fill="#3b82f6" stroke="white" stroke-width="1"/>
<text x="91.5" y="58.1" font-size="9" fill="#3b82f6" text-anchor="middle" font-family="system-ui, -apple-system, sans-serif" font-weight="600" opacity="0.9">v0.4.1</text>
<circle cx="119.9" cy="69.2" r="3" fill="#3b82f6" stroke="white" stroke-width="1"/>
<text x="119.9" y="61.2" font-size="9" fill="#3b82f6" text-anchor="middle" font-family="system-ui, -apple-system, sans-serif" font-weight="600" opacity="0.9">v0.5.0</text>
<circle cx="148.4" cy="66.1" r="3" fill="#3b82f6" stroke="white" stroke-width="1"/>
<text x="148.4" y="58.1" font-size="9" fill="#3b82f6" text-anchor="middle" font-family="system-ui, -apple-system, sans-serif" font-weight="600" opacity="0.9">v0.5.0</text>
<circle cx="176.9" cy="36.5" r="3" fill="#3b82f6" stroke="white" stroke-width="1"/>
<text x="176.9" y="28.5" font-size="9" fill="#3b82f6" text-anchor="middle" font-family="system-ui, -apple-system, sans-serif" font-weight="600" opacity="0.9">v0.6.0</text>
<circle cx="205.4" cy="44.9" r="3" fill="#3b82f6" stroke="white" stroke-width="1"/>
<text x="205.4" y="36.9" font-size="9" fill="#3b82f6" text-anchor="middle" font-family="system-ui, -apple-system, sans-serif" font-weight="600" opacity="0.9">v0.6.1</text>
<circle cx="233.8" cy="45.2" r="3" fill="#3b82f6" stroke="white" stroke-width="1"/>
<text x="233.8" y="37.2" font-size="9" fill="#3b82f6" text-anchor="middle" font-family="system-ui, -apple-system, sans-serif" font-weight="600" opacity="0.9">v0.7.0</text>
<circle cx="262.3" cy="40.1" r="3" fill="#3b82f6" stroke="white" stroke-width="1"/>
<text x="262.3" y="32.1" font-size="9" fill="#3b82f6" text-anchor="middle" font-family="system-ui, -apple-system, sans-serif" font-weight="600" opacity="0.9">v0.7.0</text>
<circle cx="290.8" cy="23.0" r="3" fill="#3b82f6" stroke="white" stroke-width="1"/>
<text x="290.8" y="17.0" font-size="9" fill="#3b82f6" text-anchor="middle" font-family="system-ui, -apple-system, sans-serif" font-weight="600" opacity="0.9">v0.7.0 (808.49M ops/s)</text>
<circle cx="319.2" cy="41.0" r="3" fill="#3b82f6" stroke="white" stroke-width="1"/>
<text x="319.2" y="33.0" font-size="9" fill="#3b82f6" text-anchor="middle" font-family="system-ui, -apple-system, sans-serif" font-weight="600" opacity="0.9">v0.8.0</text>
<circle cx="347.7" cy="40.6" r="3" fill="#3b82f6" stroke="white" stroke-width="1"/>
<text x="347.7" y="32.6" font-size="9" fill="#3b82f6" text-anchor="middle" font-family="system-ui, -apple-system, sans-serif" font-weight="600" opacity="0.9">v0.8.0</text>
<circle cx="376.2" cy="45.5" r="3" fill="#3b82f6" stroke="white" stroke-width="1"/>
<text x="376.2" y="37.5" font-size="9" fill="#3b82f6" text-anchor="middle" font-family="system-ui, -apple-system, sans-serif" font-weight="600" opacity="0.9">v0.8.0</text>
<circle cx="404.6" cy="37.8" r="3" fill="#3b82f6" stroke="white" stroke-width="1"/>
<text x="404.6" y="29.8" font-size="9" fill="#3b82f6" text-anchor="middle" font-family="system-ui, -apple-system, sans-serif" font-weight="600" opacity="0.9">v0.8.0</text>
<circle cx="433.1" cy="109.9" r="3" fill="#3b82f6" stroke="white" stroke-width="1"/>
<text x="433.1" y="101.9" font-size="9" fill="#3b82f6" text-anchor="middle" font-family="system-ui, -apple-system, sans-serif" font-weight="600" opacity="0.9">v0.8.0</text>
<circle cx="461.6" cy="112.0" r="3" fill="#3b82f6" stroke="white" stroke-width="1"/>
<text x="461.6" y="104.0" font-size="9" fill="#3b82f6" text-anchor="middle" font-family="system-ui, -apple-system, sans-serif" font-weight="600" opacity="0.9">v0.8.0 (85.91M ops/s)</text>
<circle cx="490.1" cy="109.9" r="3" fill="#3b82f6" stroke="white" stroke-width="1"/>
<text x="490.1" y="101.9" font-size="9" fill="#3b82f6" text-anchor="middle" font-family="system-ui, -apple-system, sans-serif" font-weight="600" opacity="0.9">v0.9.0</text>
<circle cx="518.5" cy="112.0" r="3" fill="#3b82f6" stroke="white" stroke-width="1"/>
<text x="518.5" y="104.0" font-size="9" fill="#3b82f6" text-anchor="middle" font-family="system-ui, -apple-system, sans-serif" font-weight="600" opacity="0.9">v0.9.0</text>
<circle cx="547.0" cy="109.9" r="3" fill="#3b82f6" stroke="white" stroke-width="1"/>
<text x="547.0" y="101.9" font-size="9" fill="#3b82f6" text-anchor="middle" font-family="system-ui, -apple-system, sans-serif" font-weight="600" opacity="0.9">v0.10.0</text>
</svg>