<svg width="615" height="120" viewBox="0 0 615 120" xmlns="http://www.w3.org/2000/svg">
<rect width="615" height="120" fill="transparent"/>
<line x1="63" y1="67.5" x2="547" y2="67.5" stroke="currentColor" stroke-width="0.5" opacity="0.2" stroke-dasharray="2,2"/>
<polyline fill="none" stroke="#3b82f6" stroke-width="2" points="48.0,93.5 103.3,112.0 143.7,111.9 184.0,93.4 224.3,44.6 264.7,59.5 305.0,59.6 345.3,50.8 385.7,23.0 426.0,51.6 466.3,51.0 506.7,58.9 547.0,47.0" stroke-linecap="round" stroke-linejoin="round"/>
<circle cx="48.0" cy="93.5" r="3" fill="#3b82f6" stroke="white" stroke-width="1"/>
<text x="48.0" y="85.5" font-size="9" fill="#3b82f6" text-anchor="middle" font-family="system-ui, -apple-system, sans-serif" font-weight="600" opacity="0.9">v0.4.1</text>
<circle cx="103.3" cy="112.0" r="3" fill="#3b82f6" stroke="white" stroke-width="1"/>
<text x="103.3" y="104.0" font-size="9" fill="#3b82f6" text-anchor="middle" font-family="system-ui, -apple-system, sans-serif" font-weight="600" opacity="0.9">v0.4.1 (367.26M ops/s)</text>
<circle cx="143.7" cy="111.9" r="3" fill="#3b82f6" stroke="white" stroke-width="1"/>
<text x="143.7" y="103.9" font-size="9" fill="#3b82f6" text-anchor="middle" font-family="system-ui, -apple-system, sans-serif" font-weight="600" opacity="0.9">v0.5.0</text>
<circle cx="184.0" cy="93.4" r="3" fill="#3b82f6" stroke="white" stroke-width="1"/>
<text x="184.0" y="85.4" font-size="9" fill="#3b82f6" text-anchor="middle" font-family="system-ui, -apple-system, sans-serif" font-weight="600" opacity="0.9">v0.5.0</text>
<circle cx="224.3" cy="44.6" r="3" fill="#3b82f6" stroke="white" stroke-width="1"/>
<text x="224.3" y="36.6" font-size="9" fill="#3b82f6" text-anchor="middle" font-family="system-ui, -apple-system, sans-serif" font-weight="600" opacity="0.9">v0.6.0</text>
<circle cx="264.7" cy="59.5" r="3" fill="#3b82f6" stroke="white" stroke-width="1"/>
<text x="264.7" y="51.5" font-size="9" fill="#3b82f6" text-anchor="middle" font-family="system-ui, -apple-system, sans-serif" font-weight="600" opacity="0.9">v0.6.1</text>
<circle cx="305.0" cy="59.6" r="3" fill="#3b82f6" stroke="white" stroke-width="1"/>
<text x="305.0" y="51.6" font-size="9" fill="#3b82f6" text-anchor="middle" font-family="system-ui, -apple-system, sans-serif" font-weight="600" opacity="0.9">v0.7.0</text>
<circle cx="345.3" cy="50.8" r="3" fill="#3b82f6" stroke="white" stroke-width="1"/>
<text x="345.3" y="42.8" font-size="9" fill="#3b82f6" text-anchor="middle" font-family="system-ui, -apple-system, sans-serif" font-weight="600" opacity="0.9">v0.7.0</text>
<circle cx="385.7" cy="23.0" r="3" fill="#3b82f6" stroke="white" stroke-width="1"/>
<text x="385.7" y="17.0" font-size="9" fill="#3b82f6" text-anchor="middle" font-family="system-ui, -apple-system, sans-serif" font-weight="600" opacity="0.9">v0.7.0 (807.50M ops/s)</text>
<circle cx="426.0" cy="51.6" r="3" fill="#3b82f6" stroke="white" stroke-width="1"/>
<text x="426.0" y="43.6" font-size="9" fill="#3b82f6" text-anchor="middle" font-family="system-ui, -apple-system, sans-serif" font-weight="600" opacity="0.9">v0.8.0</text>
<circle cx="466.3" cy="51.0" r="3" fill="#3b82f6" stroke="white" stroke-width="1"/>
<text x="466.3" y="43.0" font-size="9" fill="#3b82f6" text-anchor="middle" font-family="system-ui, -apple-system, sans-serif" font-weight="600" opacity="0.9">v0.8.0</text>
<circle cx="506.7" cy="58.9" r="3" fill="#3b82f6" stroke="white" stroke-width="1"/>
<text x="506.7" y="50.9" font-size="9" fill="#3b82f6" text-anchor="middle" font-family="system-ui, -apple-system, sans-serif" font-weight="600" opacity="0.9">v0.8.0</text>
<circle cx="547.0" cy="47.0" r="3" fill="#3b82f6" stroke="white" stroke-width="1"/>
<text x="547.0" y="39.0" font-size="9" fill="#3b82f6" text-anchor="middle" font-family="system-ui, -apple-system, sans-serif" font-weight="600" opacity="0.9">v0.8.0</text>
</svg>