<svg width="615" height="120" viewBox="0 0 615 120" xmlns="http://www.w3.org/2000/svg">
<rect width="615" height="120" fill="transparent"/>
<line x1="63" y1="67.5" x2="547" y2="67.5" stroke="currentColor" stroke-width="0.5" opacity="0.2" stroke-dasharray="2,2"/>
<polyline fill="none" stroke="#3b82f6" stroke-width="2" points="48.0,86.5 103.3,87.4 143.7,89.6 184.0,80.4 224.3,80.8 264.7,75.8 305.0,74.4 345.3,112.0 385.7,23.0 426.0,82.9 466.3,81.9 506.7,74.1 547.0,82.8" stroke-linecap="round" stroke-linejoin="round"/>
<circle cx="48.0" cy="86.5" r="3" fill="#3b82f6" stroke="white" stroke-width="1"/>
<text x="48.0" y="78.5" font-size="9" fill="#3b82f6" text-anchor="middle" font-family="system-ui, -apple-system, sans-serif" font-weight="600" opacity="0.9">v0.4.1</text>
<circle cx="103.3" cy="87.4" r="3" fill="#3b82f6" stroke="white" stroke-width="1"/>
<text x="103.3" y="79.4" font-size="9" fill="#3b82f6" text-anchor="middle" font-family="system-ui, -apple-system, sans-serif" font-weight="600" opacity="0.9">v0.4.1</text>
<circle cx="143.7" cy="89.6" r="3" fill="#3b82f6" stroke="white" stroke-width="1"/>
<text x="143.7" y="81.6" font-size="9" fill="#3b82f6" text-anchor="middle" font-family="system-ui, -apple-system, sans-serif" font-weight="600" opacity="0.9">v0.5.0</text>
<circle cx="184.0" cy="80.4" r="3" fill="#3b82f6" stroke="white" stroke-width="1"/>
<text x="184.0" y="72.4" font-size="9" fill="#3b82f6" text-anchor="middle" font-family="system-ui, -apple-system, sans-serif" font-weight="600" opacity="0.9">v0.5.0</text>
<circle cx="224.3" cy="80.8" r="3" fill="#3b82f6" stroke="white" stroke-width="1"/>
<text x="224.3" y="72.8" font-size="9" fill="#3b82f6" text-anchor="middle" font-family="system-ui, -apple-system, sans-serif" font-weight="600" opacity="0.9">v0.6.0</text>
<circle cx="264.7" cy="75.8" r="3" fill="#3b82f6" stroke="white" stroke-width="1"/>
<text x="264.7" y="67.8" font-size="9" fill="#3b82f6" text-anchor="middle" font-family="system-ui, -apple-system, sans-serif" font-weight="600" opacity="0.9">v0.6.1</text>
<circle cx="305.0" cy="74.4" r="3" fill="#3b82f6" stroke="white" stroke-width="1"/>
<text x="305.0" y="66.4" font-size="9" fill="#3b82f6" text-anchor="middle" font-family="system-ui, -apple-system, sans-serif" font-weight="600" opacity="0.9">v0.7.0</text>
<circle cx="345.3" cy="112.0" r="3" fill="#3b82f6" stroke="white" stroke-width="1"/>
<text x="345.3" y="104.0" font-size="9" fill="#3b82f6" text-anchor="middle" font-family="system-ui, -apple-system, sans-serif" font-weight="600" opacity="0.9">v0.7.0 (69.54M ops/s)</text>
<circle cx="385.7" cy="23.0" r="3" fill="#3b82f6" stroke="white" stroke-width="1"/>
<text x="385.7" y="17.0" font-size="9" fill="#3b82f6" text-anchor="middle" font-family="system-ui, -apple-system, sans-serif" font-weight="600" opacity="0.9">v0.7.0 (115.92M ops/s)</text>
<circle cx="426.0" cy="82.9" r="3" fill="#3b82f6" stroke="white" stroke-width="1"/>
<text x="426.0" y="74.9" font-size="9" fill="#3b82f6" text-anchor="middle" font-family="system-ui, -apple-system, sans-serif" font-weight="600" opacity="0.9">v0.8.0</text>
<circle cx="466.3" cy="81.9" r="3" fill="#3b82f6" stroke="white" stroke-width="1"/>
<text x="466.3" y="73.9" font-size="9" fill="#3b82f6" text-anchor="middle" font-family="system-ui, -apple-system, sans-serif" font-weight="600" opacity="0.9">v0.8.0</text>
<circle cx="506.7" cy="74.1" r="3" fill="#3b82f6" stroke="white" stroke-width="1"/>
<text x="506.7" y="66.1" font-size="9" fill="#3b82f6" text-anchor="middle" font-family="system-ui, -apple-system, sans-serif" font-weight="600" opacity="0.9">v0.8.0</text>
<circle cx="547.0" cy="82.8" r="3" fill="#3b82f6" stroke="white" stroke-width="1"/>
<text x="547.0" y="74.8" font-size="9" fill="#3b82f6" text-anchor="middle" font-family="system-ui, -apple-system, sans-serif" font-weight="600" opacity="0.9">v0.8.0</text>
</svg>