<svg width="615" height="120" viewBox="0 0 615 120" xmlns="http://www.w3.org/2000/svg">
<rect width="615" height="120" fill="transparent"/>
<line x1="63" y1="67.5" x2="547" y2="67.5" stroke="currentColor" stroke-width="0.5" opacity="0.2" stroke-dasharray="2,2"/>
<polyline fill="none" stroke="#3b82f6" stroke-width="2" points="48.0,95.5 103.3,99.2 143.7,95.1 184.0,94.8 224.3,38.3 264.7,102.6 305.0,106.4 345.3,112.0 385.7,23.0 426.0,102.3 466.3,104.2 506.7,105.2 547.0,101.7" stroke-linecap="round" stroke-linejoin="round"/>
<circle cx="48.0" cy="95.5" r="3" fill="#3b82f6" stroke="white" stroke-width="1"/>
<text x="48.0" y="87.5" font-size="9" fill="#3b82f6" text-anchor="middle" font-family="system-ui, -apple-system, sans-serif" font-weight="600" opacity="0.9">v0.4.1</text>
<circle cx="103.3" cy="99.2" r="3" fill="#3b82f6" stroke="white" stroke-width="1"/>
<text x="103.3" y="91.2" font-size="9" fill="#3b82f6" text-anchor="middle" font-family="system-ui, -apple-system, sans-serif" font-weight="600" opacity="0.9">v0.4.1</text>
<circle cx="143.7" cy="95.1" r="3" fill="#3b82f6" stroke="white" stroke-width="1"/>
<text x="143.7" y="87.1" font-size="9" fill="#3b82f6" text-anchor="middle" font-family="system-ui, -apple-system, sans-serif" font-weight="600" opacity="0.9">v0.5.0</text>
<circle cx="184.0" cy="94.8" r="3" fill="#3b82f6" stroke="white" stroke-width="1"/>
<text x="184.0" y="86.8" font-size="9" fill="#3b82f6" text-anchor="middle" font-family="system-ui, -apple-system, sans-serif" font-weight="600" opacity="0.9">v0.5.0</text>
<circle cx="224.3" cy="38.3" r="3" fill="#3b82f6" stroke="white" stroke-width="1"/>
<text x="224.3" y="30.3" font-size="9" fill="#3b82f6" text-anchor="middle" font-family="system-ui, -apple-system, sans-serif" font-weight="600" opacity="0.9">v0.6.0</text>
<circle cx="264.7" cy="102.6" r="3" fill="#3b82f6" stroke="white" stroke-width="1"/>
<text x="264.7" y="94.6" font-size="9" fill="#3b82f6" text-anchor="middle" font-family="system-ui, -apple-system, sans-serif" font-weight="600" opacity="0.9">v0.6.1</text>
<circle cx="305.0" cy="106.4" r="3" fill="#3b82f6" stroke="white" stroke-width="1"/>
<text x="305.0" y="98.4" font-size="9" fill="#3b82f6" text-anchor="middle" font-family="system-ui, -apple-system, sans-serif" font-weight="600" opacity="0.9">v0.7.0</text>
<circle cx="345.3" cy="112.0" r="3" fill="#3b82f6" stroke="white" stroke-width="1"/>
<text x="345.3" y="104.0" font-size="9" fill="#3b82f6" text-anchor="middle" font-family="system-ui, -apple-system, sans-serif" font-weight="600" opacity="0.9">v0.7.0 (56.47M ops/s)</text>
<circle cx="385.7" cy="23.0" r="3" fill="#3b82f6" stroke="white" stroke-width="1"/>
<text x="385.7" y="17.0" font-size="9" fill="#3b82f6" text-anchor="middle" font-family="system-ui, -apple-system, sans-serif" font-weight="600" opacity="0.9">v0.7.0 (74.84M ops/s)</text>
<circle cx="426.0" cy="102.3" r="3" fill="#3b82f6" stroke="white" stroke-width="1"/>
<text x="426.0" y="94.3" font-size="9" fill="#3b82f6" text-anchor="middle" font-family="system-ui, -apple-system, sans-serif" font-weight="600" opacity="0.9">v0.8.0</text>
<circle cx="466.3" cy="104.2" r="3" fill="#3b82f6" stroke="white" stroke-width="1"/>
<text x="466.3" y="96.2" font-size="9" fill="#3b82f6" text-anchor="middle" font-family="system-ui, -apple-system, sans-serif" font-weight="600" opacity="0.9">v0.8.0</text>
<circle cx="506.7" cy="105.2" r="3" fill="#3b82f6" stroke="white" stroke-width="1"/>
<text x="506.7" y="97.2" font-size="9" fill="#3b82f6" text-anchor="middle" font-family="system-ui, -apple-system, sans-serif" font-weight="600" opacity="0.9">v0.8.0</text>
<circle cx="547.0" cy="101.7" r="3" fill="#3b82f6" stroke="white" stroke-width="1"/>
<text x="547.0" y="93.7" font-size="9" fill="#3b82f6" text-anchor="middle" font-family="system-ui, -apple-system, sans-serif" font-weight="600" opacity="0.9">v0.8.0</text>
</svg>