<svg width="615" height="120" viewBox="0 0 615 120" xmlns="http://www.w3.org/2000/svg">
<rect width="615" height="120" fill="transparent"/>
<line x1="63" y1="67.5" x2="547" y2="67.5" stroke="currentColor" stroke-width="0.5" opacity="0.2" stroke-dasharray="2,2"/>
<polyline fill="none" stroke="#3b82f6" stroke-width="2" points="48.0,86.5 97.6,87.4 132.1,89.6 166.7,80.4 201.3,80.8 235.9,75.8 270.4,74.4 305.0,112.0 339.6,23.0 374.1,82.9 408.7,81.9 443.3,74.1 477.9,82.8 512.4,82.3 547.0,83.7" stroke-linecap="round" stroke-linejoin="round"/>
<circle cx="48.0" cy="86.5" r="3" fill="#3b82f6" stroke="white" stroke-width="1"/>
<text x="48.0" y="78.5" font-size="9" fill="#3b82f6" text-anchor="middle" font-family="system-ui, -apple-system, sans-serif" font-weight="600" opacity="0.9">v0.4.1</text>
<circle cx="97.6" cy="87.4" r="3" fill="#3b82f6" stroke="white" stroke-width="1"/>
<text x="97.6" y="79.4" font-size="9" fill="#3b82f6" text-anchor="middle" font-family="system-ui, -apple-system, sans-serif" font-weight="600" opacity="0.9">v0.4.1</text>
<circle cx="132.1" cy="89.6" r="3" fill="#3b82f6" stroke="white" stroke-width="1"/>
<text x="132.1" y="81.6" font-size="9" fill="#3b82f6" text-anchor="middle" font-family="system-ui, -apple-system, sans-serif" font-weight="600" opacity="0.9">v0.5.0</text>
<circle cx="166.7" cy="80.4" r="3" fill="#3b82f6" stroke="white" stroke-width="1"/>
<text x="166.7" y="72.4" font-size="9" fill="#3b82f6" text-anchor="middle" font-family="system-ui, -apple-system, sans-serif" font-weight="600" opacity="0.9">v0.5.0</text>
<circle cx="201.3" cy="80.8" r="3" fill="#3b82f6" stroke="white" stroke-width="1"/>
<text x="201.3" y="72.8" font-size="9" fill="#3b82f6" text-anchor="middle" font-family="system-ui, -apple-system, sans-serif" font-weight="600" opacity="0.9">v0.6.0</text>
<circle cx="235.9" cy="75.8" r="3" fill="#3b82f6" stroke="white" stroke-width="1"/>
<text x="235.9" y="67.8" font-size="9" fill="#3b82f6" text-anchor="middle" font-family="system-ui, -apple-system, sans-serif" font-weight="600" opacity="0.9">v0.6.1</text>
<circle cx="270.4" cy="74.4" r="3" fill="#3b82f6" stroke="white" stroke-width="1"/>
<text x="270.4" y="66.4" font-size="9" fill="#3b82f6" text-anchor="middle" font-family="system-ui, -apple-system, sans-serif" font-weight="600" opacity="0.9">v0.7.0</text>
<circle cx="305.0" cy="112.0" r="3" fill="#3b82f6" stroke="white" stroke-width="1"/>
<text x="305.0" y="104.0" font-size="9" fill="#3b82f6" text-anchor="middle" font-family="system-ui, -apple-system, sans-serif" font-weight="600" opacity="0.9">v0.7.0 (69.54M ops/s)</text>
<circle cx="339.6" cy="23.0" r="3" fill="#3b82f6" stroke="white" stroke-width="1"/>
<text x="339.6" y="17.0" font-size="9" fill="#3b82f6" text-anchor="middle" font-family="system-ui, -apple-system, sans-serif" font-weight="600" opacity="0.9">v0.7.0 (115.92M ops/s)</text>
<circle cx="374.1" cy="82.9" r="3" fill="#3b82f6" stroke="white" stroke-width="1"/>
<text x="374.1" y="74.9" font-size="9" fill="#3b82f6" text-anchor="middle" font-family="system-ui, -apple-system, sans-serif" font-weight="600" opacity="0.9">v0.8.0</text>
<circle cx="408.7" cy="81.9" r="3" fill="#3b82f6" stroke="white" stroke-width="1"/>
<text x="408.7" y="73.9" font-size="9" fill="#3b82f6" text-anchor="middle" font-family="system-ui, -apple-system, sans-serif" font-weight="600" opacity="0.9">v0.8.0</text>
<circle cx="443.3" cy="74.1" r="3" fill="#3b82f6" stroke="white" stroke-width="1"/>
<text x="443.3" y="66.1" font-size="9" fill="#3b82f6" text-anchor="middle" font-family="system-ui, -apple-system, sans-serif" font-weight="600" opacity="0.9">v0.8.0</text>
<circle cx="477.9" cy="82.8" r="3" fill="#3b82f6" stroke="white" stroke-width="1"/>
<text x="477.9" y="74.8" font-size="9" fill="#3b82f6" text-anchor="middle" font-family="system-ui, -apple-system, sans-serif" font-weight="600" opacity="0.9">v0.8.0</text>
<circle cx="512.4" cy="82.3" r="3" fill="#3b82f6" stroke="white" stroke-width="1"/>
<text x="512.4" y="74.3" font-size="9" fill="#3b82f6" text-anchor="middle" font-family="system-ui, -apple-system, sans-serif" font-weight="600" opacity="0.9">v0.8.0</text>
<circle cx="547.0" cy="83.7" r="3" fill="#3b82f6" stroke="white" stroke-width="1"/>
<text x="547.0" y="75.7" font-size="9" fill="#3b82f6" text-anchor="middle" font-family="system-ui, -apple-system, sans-serif" font-weight="600" opacity="0.9">v0.8.0</text>
</svg>