<svg width="615" height="120" viewBox="0 0 615 120" xmlns="http://www.w3.org/2000/svg">
<rect width="615" height="120" fill="transparent"/>
<line x1="63" y1="67.5" x2="547" y2="67.5" stroke="currentColor" stroke-width="0.5" opacity="0.2" stroke-dasharray="2,2"/>
<polyline fill="none" stroke="#3b82f6" stroke-width="2" points="48.0,89.3 91.5,74.7 119.9,76.8 148.4,74.7 176.9,46.6 205.4,44.5 233.8,44.2 262.3,47.2 290.8,23.0 319.2,42.1 347.7,42.3 376.2,44.2 404.6,47.3 433.1,112.0 461.6,111.0 490.1,111.2 518.5,111.0 547.0,111.2" stroke-linecap="round" stroke-linejoin="round"/>
<circle cx="48.0" cy="89.3" r="3" fill="#3b82f6" stroke="white" stroke-width="1"/>
<text x="48.0" y="81.3" font-size="9" fill="#3b82f6" text-anchor="middle" font-family="system-ui, -apple-system, sans-serif" font-weight="600" opacity="0.9">v0.4.1</text>
<circle cx="91.5" cy="74.7" r="3" fill="#3b82f6" stroke="white" stroke-width="1"/>
<text x="91.5" y="66.7" font-size="9" fill="#3b82f6" text-anchor="middle" font-family="system-ui, -apple-system, sans-serif" font-weight="600" opacity="0.9">v0.4.1</text>
<circle cx="119.9" cy="76.8" r="3" fill="#3b82f6" stroke="white" stroke-width="1"/>
<text x="119.9" y="68.8" font-size="9" fill="#3b82f6" text-anchor="middle" font-family="system-ui, -apple-system, sans-serif" font-weight="600" opacity="0.9">v0.5.0</text>
<circle cx="148.4" cy="74.7" r="3" fill="#3b82f6" stroke="white" stroke-width="1"/>
<text x="148.4" y="66.7" font-size="9" fill="#3b82f6" text-anchor="middle" font-family="system-ui, -apple-system, sans-serif" font-weight="600" opacity="0.9">v0.5.0</text>
<circle cx="176.9" cy="46.6" r="3" fill="#3b82f6" stroke="white" stroke-width="1"/>
<text x="176.9" y="38.6" font-size="9" fill="#3b82f6" text-anchor="middle" font-family="system-ui, -apple-system, sans-serif" font-weight="600" opacity="0.9">v0.6.0</text>
<circle cx="205.4" cy="44.5" r="3" fill="#3b82f6" stroke="white" stroke-width="1"/>
<text x="205.4" y="36.5" font-size="9" fill="#3b82f6" text-anchor="middle" font-family="system-ui, -apple-system, sans-serif" font-weight="600" opacity="0.9">v0.6.1</text>
<circle cx="233.8" cy="44.2" r="3" fill="#3b82f6" stroke="white" stroke-width="1"/>
<text x="233.8" y="36.2" font-size="9" fill="#3b82f6" text-anchor="middle" font-family="system-ui, -apple-system, sans-serif" font-weight="600" opacity="0.9">v0.7.0</text>
<circle cx="262.3" cy="47.2" r="3" fill="#3b82f6" stroke="white" stroke-width="1"/>
<text x="262.3" y="39.2" font-size="9" fill="#3b82f6" text-anchor="middle" font-family="system-ui, -apple-system, sans-serif" font-weight="600" opacity="0.9">v0.7.0</text>
<circle cx="290.8" cy="23.0" r="3" fill="#3b82f6" stroke="white" stroke-width="1"/>
<text x="290.8" y="17.0" font-size="9" fill="#3b82f6" text-anchor="middle" font-family="system-ui, -apple-system, sans-serif" font-weight="600" opacity="0.9">v0.7.0 (1.16B ops/s)</text>
<circle cx="319.2" cy="42.1" r="3" fill="#3b82f6" stroke="white" stroke-width="1"/>
<text x="319.2" y="34.1" font-size="9" fill="#3b82f6" text-anchor="middle" font-family="system-ui, -apple-system, sans-serif" font-weight="600" opacity="0.9">v0.8.0</text>
<circle cx="347.7" cy="42.3" r="3" fill="#3b82f6" stroke="white" stroke-width="1"/>
<text x="347.7" y="34.3" font-size="9" fill="#3b82f6" text-anchor="middle" font-family="system-ui, -apple-system, sans-serif" font-weight="600" opacity="0.9">v0.8.0</text>
<circle cx="376.2" cy="44.2" r="3" fill="#3b82f6" stroke="white" stroke-width="1"/>
<text x="376.2" y="36.2" font-size="9" fill="#3b82f6" text-anchor="middle" font-family="system-ui, -apple-system, sans-serif" font-weight="600" opacity="0.9">v0.8.0</text>
<circle cx="404.6" cy="47.3" r="3" fill="#3b82f6" stroke="white" stroke-width="1"/>
<text x="404.6" y="39.3" font-size="9" fill="#3b82f6" text-anchor="middle" font-family="system-ui, -apple-system, sans-serif" font-weight="600" opacity="0.9">v0.8.0</text>
<circle cx="433.1" cy="112.0" r="3" fill="#3b82f6" stroke="white" stroke-width="1"/>
<text x="433.1" y="104.0" font-size="9" fill="#3b82f6" text-anchor="middle" font-family="system-ui, -apple-system, sans-serif" font-weight="600" opacity="0.9">v0.8.0 (82.01M ops/s)</text>
<circle cx="461.6" cy="111.0" r="3" fill="#3b82f6" stroke="white" stroke-width="1"/>
<text x="461.6" y="103.0" font-size="9" fill="#3b82f6" text-anchor="middle" font-family="system-ui, -apple-system, sans-serif" font-weight="600" opacity="0.9">v0.8.0</text>
<circle cx="490.1" cy="111.2" r="3" fill="#3b82f6" stroke="white" stroke-width="1"/>
<text x="490.1" y="103.2" font-size="9" fill="#3b82f6" text-anchor="middle" font-family="system-ui, -apple-system, sans-serif" font-weight="600" opacity="0.9">v0.9.0</text>
<circle cx="518.5" cy="111.0" r="3" fill="#3b82f6" stroke="white" stroke-width="1"/>
<text x="518.5" y="103.0" font-size="9" fill="#3b82f6" text-anchor="middle" font-family="system-ui, -apple-system, sans-serif" font-weight="600" opacity="0.9">v0.9.0</text>
<circle cx="547.0" cy="111.2" r="3" fill="#3b82f6" stroke="white" stroke-width="1"/>
<text x="547.0" y="103.2" font-size="9" fill="#3b82f6" text-anchor="middle" font-family="system-ui, -apple-system, sans-serif" font-weight="600" opacity="0.9">v0.10.0</text>
</svg>