<svg width="615" height="120" viewBox="0 0 615 120" xmlns="http://www.w3.org/2000/svg">
<rect width="615" height="120" fill="transparent"/>
<line x1="63" y1="67.5" x2="547" y2="67.5" stroke="currentColor" stroke-width="0.5" opacity="0.2" stroke-dasharray="2,2"/>
<polyline fill="none" stroke="#3b82f6" stroke-width="2" points="48.0,74.8 93.2,74.7 123.5,74.8 153.8,74.8 184.0,46.5 214.2,44.3 244.5,44.3 274.8,47.3 305.0,23.0 335.2,42.4 365.5,42.3 395.8,44.2 426.0,47.3 456.2,112.0 486.5,111.1 516.8,111.2 547.0,111.0" stroke-linecap="round" stroke-linejoin="round"/>
<circle cx="48.0" cy="74.8" r="3" fill="#3b82f6" stroke="white" stroke-width="1"/>
<text x="48.0" y="66.8" font-size="9" fill="#3b82f6" text-anchor="middle" font-family="system-ui, -apple-system, sans-serif" font-weight="600" opacity="0.9">v0.4.1</text>
<circle cx="93.2" cy="74.7" r="3" fill="#3b82f6" stroke="white" stroke-width="1"/>
<text x="93.2" y="66.7" font-size="9" fill="#3b82f6" text-anchor="middle" font-family="system-ui, -apple-system, sans-serif" font-weight="600" opacity="0.9">v0.4.1</text>
<circle cx="123.5" cy="74.8" r="3" fill="#3b82f6" stroke="white" stroke-width="1"/>
<text x="123.5" y="66.8" font-size="9" fill="#3b82f6" text-anchor="middle" font-family="system-ui, -apple-system, sans-serif" font-weight="600" opacity="0.9">v0.5.0</text>
<circle cx="153.8" cy="74.8" r="3" fill="#3b82f6" stroke="white" stroke-width="1"/>
<text x="153.8" y="66.8" font-size="9" fill="#3b82f6" text-anchor="middle" font-family="system-ui, -apple-system, sans-serif" font-weight="600" opacity="0.9">v0.5.0</text>
<circle cx="184.0" cy="46.5" r="3" fill="#3b82f6" stroke="white" stroke-width="1"/>
<text x="184.0" y="38.5" font-size="9" fill="#3b82f6" text-anchor="middle" font-family="system-ui, -apple-system, sans-serif" font-weight="600" opacity="0.9">v0.6.0</text>
<circle cx="214.2" cy="44.3" r="3" fill="#3b82f6" stroke="white" stroke-width="1"/>
<text x="214.2" y="36.3" font-size="9" fill="#3b82f6" text-anchor="middle" font-family="system-ui, -apple-system, sans-serif" font-weight="600" opacity="0.9">v0.6.1</text>
<circle cx="244.5" cy="44.3" r="3" fill="#3b82f6" stroke="white" stroke-width="1"/>
<text x="244.5" y="36.3" font-size="9" fill="#3b82f6" text-anchor="middle" font-family="system-ui, -apple-system, sans-serif" font-weight="600" opacity="0.9">v0.7.0</text>
<circle cx="274.8" cy="47.3" r="3" fill="#3b82f6" stroke="white" stroke-width="1"/>
<text x="274.8" y="39.3" font-size="9" fill="#3b82f6" text-anchor="middle" font-family="system-ui, -apple-system, sans-serif" font-weight="600" opacity="0.9">v0.7.0</text>
<circle cx="305.0" cy="23.0" r="3" fill="#3b82f6" stroke="white" stroke-width="1"/>
<text x="305.0" y="17.0" font-size="9" fill="#3b82f6" text-anchor="middle" font-family="system-ui, -apple-system, sans-serif" font-weight="600" opacity="0.9">v0.7.0 (1.17B ops/s)</text>
<circle cx="335.2" cy="42.4" r="3" fill="#3b82f6" stroke="white" stroke-width="1"/>
<text x="335.2" y="34.4" font-size="9" fill="#3b82f6" text-anchor="middle" font-family="system-ui, -apple-system, sans-serif" font-weight="600" opacity="0.9">v0.8.0</text>
<circle cx="365.5" cy="42.3" r="3" fill="#3b82f6" stroke="white" stroke-width="1"/>
<text x="365.5" y="34.3" font-size="9" fill="#3b82f6" text-anchor="middle" font-family="system-ui, -apple-system, sans-serif" font-weight="600" opacity="0.9">v0.8.0</text>
<circle cx="395.8" cy="44.2" r="3" fill="#3b82f6" stroke="white" stroke-width="1"/>
<text x="395.8" y="36.2" font-size="9" fill="#3b82f6" text-anchor="middle" font-family="system-ui, -apple-system, sans-serif" font-weight="600" opacity="0.9">v0.8.0</text>
<circle cx="426.0" cy="47.3" r="3" fill="#3b82f6" stroke="white" stroke-width="1"/>
<text x="426.0" y="39.3" font-size="9" fill="#3b82f6" text-anchor="middle" font-family="system-ui, -apple-system, sans-serif" font-weight="600" opacity="0.9">v0.8.0</text>
<circle cx="456.2" cy="112.0" r="3" fill="#3b82f6" stroke="white" stroke-width="1"/>
<text x="456.2" y="104.0" font-size="9" fill="#3b82f6" text-anchor="middle" font-family="system-ui, -apple-system, sans-serif" font-weight="600" opacity="0.9">v0.8.0 (82.20M ops/s)</text>
<circle cx="486.5" cy="111.1" r="3" fill="#3b82f6" stroke="white" stroke-width="1"/>
<text x="486.5" y="103.1" font-size="9" fill="#3b82f6" text-anchor="middle" font-family="system-ui, -apple-system, sans-serif" font-weight="600" opacity="0.9">v0.8.0</text>
<circle cx="516.8" cy="111.2" r="3" fill="#3b82f6" stroke="white" stroke-width="1"/>
<text x="516.8" y="103.2" font-size="9" fill="#3b82f6" text-anchor="middle" font-family="system-ui, -apple-system, sans-serif" font-weight="600" opacity="0.9">v0.9.0</text>
<circle cx="547.0" cy="111.0" r="3" fill="#3b82f6" stroke="white" stroke-width="1"/>
<text x="547.0" y="103.0" font-size="9" fill="#3b82f6" text-anchor="middle" font-family="system-ui, -apple-system, sans-serif" font-weight="600" opacity="0.9">v0.9.0</text>
</svg>