<svg width="615" height="120" viewBox="0 0 615 120" xmlns="http://www.w3.org/2000/svg">
<rect width="615" height="120" fill="transparent"/>
<line x1="63" y1="67.5" x2="547" y2="67.5" stroke="currentColor" stroke-width="0.5" opacity="0.2" stroke-dasharray="2,2"/>
<polyline fill="none" stroke="#3b82f6" stroke-width="2" points="48.0,66.0 95.3,77.3 127.5,77.2 159.8,65.9 192.1,36.2 224.3,45.3 256.6,45.3 288.9,39.9 321.1,23.0 353.4,40.4 385.7,40.1 417.9,44.9 450.2,37.7 482.5,109.9 514.7,112.0 547.0,109.9" stroke-linecap="round" stroke-linejoin="round"/>
<circle cx="48.0" cy="66.0" r="3" fill="#3b82f6" stroke="white" stroke-width="1"/>
<text x="48.0" y="58.0" font-size="9" fill="#3b82f6" text-anchor="middle" font-family="system-ui, -apple-system, sans-serif" font-weight="600" opacity="0.9">v0.4.1</text>
<circle cx="95.3" cy="77.3" r="3" fill="#3b82f6" stroke="white" stroke-width="1"/>
<text x="95.3" y="69.3" font-size="9" fill="#3b82f6" text-anchor="middle" font-family="system-ui, -apple-system, sans-serif" font-weight="600" opacity="0.9">v0.4.1</text>
<circle cx="127.5" cy="77.2" r="3" fill="#3b82f6" stroke="white" stroke-width="1"/>
<text x="127.5" y="69.2" font-size="9" fill="#3b82f6" text-anchor="middle" font-family="system-ui, -apple-system, sans-serif" font-weight="600" opacity="0.9">v0.5.0</text>
<circle cx="159.8" cy="65.9" r="3" fill="#3b82f6" stroke="white" stroke-width="1"/>
<text x="159.8" y="57.9" font-size="9" fill="#3b82f6" text-anchor="middle" font-family="system-ui, -apple-system, sans-serif" font-weight="600" opacity="0.9">v0.5.0</text>
<circle cx="192.1" cy="36.2" r="3" fill="#3b82f6" stroke="white" stroke-width="1"/>
<text x="192.1" y="28.2" font-size="9" fill="#3b82f6" text-anchor="middle" font-family="system-ui, -apple-system, sans-serif" font-weight="600" opacity="0.9">v0.6.0</text>
<circle cx="224.3" cy="45.3" r="3" fill="#3b82f6" stroke="white" stroke-width="1"/>
<text x="224.3" y="37.3" font-size="9" fill="#3b82f6" text-anchor="middle" font-family="system-ui, -apple-system, sans-serif" font-weight="600" opacity="0.9">v0.6.1</text>
<circle cx="256.6" cy="45.3" r="3" fill="#3b82f6" stroke="white" stroke-width="1"/>
<text x="256.6" y="37.3" font-size="9" fill="#3b82f6" text-anchor="middle" font-family="system-ui, -apple-system, sans-serif" font-weight="600" opacity="0.9">v0.7.0</text>
<circle cx="288.9" cy="39.9" r="3" fill="#3b82f6" stroke="white" stroke-width="1"/>
<text x="288.9" y="31.9" font-size="9" fill="#3b82f6" text-anchor="middle" font-family="system-ui, -apple-system, sans-serif" font-weight="600" opacity="0.9">v0.7.0</text>
<circle cx="321.1" cy="23.0" r="3" fill="#3b82f6" stroke="white" stroke-width="1"/>
<text x="321.1" y="17.0" font-size="9" fill="#3b82f6" text-anchor="middle" font-family="system-ui, -apple-system, sans-serif" font-weight="600" opacity="0.9">v0.7.0 (807.50M ops/s)</text>
<circle cx="353.4" cy="40.4" r="3" fill="#3b82f6" stroke="white" stroke-width="1"/>
<text x="353.4" y="32.4" font-size="9" fill="#3b82f6" text-anchor="middle" font-family="system-ui, -apple-system, sans-serif" font-weight="600" opacity="0.9">v0.8.0</text>
<circle cx="385.7" cy="40.1" r="3" fill="#3b82f6" stroke="white" stroke-width="1"/>
<text x="385.7" y="32.1" font-size="9" fill="#3b82f6" text-anchor="middle" font-family="system-ui, -apple-system, sans-serif" font-weight="600" opacity="0.9">v0.8.0</text>
<circle cx="417.9" cy="44.9" r="3" fill="#3b82f6" stroke="white" stroke-width="1"/>
<text x="417.9" y="36.9" font-size="9" fill="#3b82f6" text-anchor="middle" font-family="system-ui, -apple-system, sans-serif" font-weight="600" opacity="0.9">v0.8.0</text>
<circle cx="450.2" cy="37.7" r="3" fill="#3b82f6" stroke="white" stroke-width="1"/>
<text x="450.2" y="29.7" font-size="9" fill="#3b82f6" text-anchor="middle" font-family="system-ui, -apple-system, sans-serif" font-weight="600" opacity="0.9">v0.8.0</text>
<circle cx="482.5" cy="109.9" r="3" fill="#3b82f6" stroke="white" stroke-width="1"/>
<text x="482.5" y="101.9" font-size="9" fill="#3b82f6" text-anchor="middle" font-family="system-ui, -apple-system, sans-serif" font-weight="600" opacity="0.9">v0.8.0</text>
<circle cx="514.7" cy="112.0" r="3" fill="#3b82f6" stroke="white" stroke-width="1"/>
<text x="514.7" y="104.0" font-size="9" fill="#3b82f6" text-anchor="middle" font-family="system-ui, -apple-system, sans-serif" font-weight="600" opacity="0.9">v0.8.0 (85.90M ops/s)</text>
<circle cx="547.0" cy="109.9" r="3" fill="#3b82f6" stroke="white" stroke-width="1"/>
<text x="547.0" y="101.9" font-size="9" fill="#3b82f6" text-anchor="middle" font-family="system-ui, -apple-system, sans-serif" font-weight="600" opacity="0.9">v0.9.0</text>
</svg>