<svg width="615" height="120" viewBox="0 0 615 120" xmlns="http://www.w3.org/2000/svg">
<rect width="615" height="120" fill="transparent"/>
<line x1="63" y1="67.5" x2="547" y2="67.5" stroke="currentColor" stroke-width="0.5" opacity="0.2" stroke-dasharray="2,2"/>
<polyline fill="none" stroke="#3b82f6" stroke-width="2" points="48.0,63.1 97.6,63.2 132.1,60.9 166.7,61.6 201.3,23.0 235.9,67.2 270.4,66.5 305.0,73.2 339.6,29.6 374.1,63.1 408.7,68.6 443.3,67.2 477.9,62.9 512.4,112.0 547.0,110.0" stroke-linecap="round" stroke-linejoin="round"/>
<circle cx="48.0" cy="63.1" r="3" fill="#3b82f6" stroke="white" stroke-width="1"/>
<text x="48.0" y="55.1" font-size="9" fill="#3b82f6" text-anchor="middle" font-family="system-ui, -apple-system, sans-serif" font-weight="600" opacity="0.9">v0.4.1</text>
<circle cx="97.6" cy="63.2" r="3" fill="#3b82f6" stroke="white" stroke-width="1"/>
<text x="97.6" y="55.2" font-size="9" fill="#3b82f6" text-anchor="middle" font-family="system-ui, -apple-system, sans-serif" font-weight="600" opacity="0.9">v0.4.1</text>
<circle cx="132.1" cy="60.9" r="3" fill="#3b82f6" stroke="white" stroke-width="1"/>
<text x="132.1" y="52.9" font-size="9" fill="#3b82f6" text-anchor="middle" font-family="system-ui, -apple-system, sans-serif" font-weight="600" opacity="0.9">v0.5.0</text>
<circle cx="166.7" cy="61.6" r="3" fill="#3b82f6" stroke="white" stroke-width="1"/>
<text x="166.7" y="53.6" font-size="9" fill="#3b82f6" text-anchor="middle" font-family="system-ui, -apple-system, sans-serif" font-weight="600" opacity="0.9">v0.5.0</text>
<circle cx="201.3" cy="23.0" r="3" fill="#3b82f6" stroke="white" stroke-width="1"/>
<text x="201.3" y="17.0" font-size="9" fill="#3b82f6" text-anchor="middle" font-family="system-ui, -apple-system, sans-serif" font-weight="600" opacity="0.9">v0.6.0 (74.18M ops/s)</text>
<circle cx="235.9" cy="67.2" r="3" fill="#3b82f6" stroke="white" stroke-width="1"/>
<text x="235.9" y="59.2" font-size="9" fill="#3b82f6" text-anchor="middle" font-family="system-ui, -apple-system, sans-serif" font-weight="600" opacity="0.9">v0.6.1</text>
<circle cx="270.4" cy="66.5" r="3" fill="#3b82f6" stroke="white" stroke-width="1"/>
<text x="270.4" y="58.5" font-size="9" fill="#3b82f6" text-anchor="middle" font-family="system-ui, -apple-system, sans-serif" font-weight="600" opacity="0.9">v0.7.0</text>
<circle cx="305.0" cy="73.2" r="3" fill="#3b82f6" stroke="white" stroke-width="1"/>
<text x="305.0" y="65.2" font-size="9" fill="#3b82f6" text-anchor="middle" font-family="system-ui, -apple-system, sans-serif" font-weight="600" opacity="0.9">v0.7.0</text>
<circle cx="339.6" cy="29.6" r="3" fill="#3b82f6" stroke="white" stroke-width="1"/>
<text x="339.6" y="21.6" font-size="9" fill="#3b82f6" text-anchor="middle" font-family="system-ui, -apple-system, sans-serif" font-weight="600" opacity="0.9">v0.7.0</text>
<circle cx="374.1" cy="63.1" r="3" fill="#3b82f6" stroke="white" stroke-width="1"/>
<text x="374.1" y="55.1" font-size="9" fill="#3b82f6" text-anchor="middle" font-family="system-ui, -apple-system, sans-serif" font-weight="600" opacity="0.9">v0.8.0</text>
<circle cx="408.7" cy="68.6" r="3" fill="#3b82f6" stroke="white" stroke-width="1"/>
<text x="408.7" y="60.6" font-size="9" fill="#3b82f6" text-anchor="middle" font-family="system-ui, -apple-system, sans-serif" font-weight="600" opacity="0.9">v0.8.0</text>
<circle cx="443.3" cy="67.2" r="3" fill="#3b82f6" stroke="white" stroke-width="1"/>
<text x="443.3" y="59.2" font-size="9" fill="#3b82f6" text-anchor="middle" font-family="system-ui, -apple-system, sans-serif" font-weight="600" opacity="0.9">v0.8.0</text>
<circle cx="477.9" cy="62.9" r="3" fill="#3b82f6" stroke="white" stroke-width="1"/>
<text x="477.9" y="54.9" font-size="9" fill="#3b82f6" text-anchor="middle" font-family="system-ui, -apple-system, sans-serif" font-weight="600" opacity="0.9">v0.8.0</text>
<circle cx="512.4" cy="112.0" r="3" fill="#3b82f6" stroke="white" stroke-width="1"/>
<text x="512.4" y="104.0" font-size="9" fill="#3b82f6" text-anchor="middle" font-family="system-ui, -apple-system, sans-serif" font-weight="600" opacity="0.9">v0.8.0 (41.00M ops/s)</text>
<circle cx="547.0" cy="110.0" r="3" fill="#3b82f6" stroke="white" stroke-width="1"/>
<text x="547.0" y="102.0" font-size="9" fill="#3b82f6" text-anchor="middle" font-family="system-ui, -apple-system, sans-serif" font-weight="600" opacity="0.9">v0.8.0</text>
</svg>