<svg width="615" height="120" viewBox="0 0 615 120" xmlns="http://www.w3.org/2000/svg">
<rect width="615" height="120" fill="transparent"/>
<line x1="63" y1="67.5" x2="547" y2="67.5" stroke="currentColor" stroke-width="0.5" opacity="0.2" stroke-dasharray="2,2"/>
<polyline fill="none" stroke="#3b82f6" stroke-width="2" points="48.0,82.3 93.2,90.3 123.5,99.8 153.8,82.6 184.0,76.1 214.2,76.4 244.5,75.1 274.8,112.0 305.0,23.0 335.2,93.2 365.5,82.6 395.8,78.6 426.0,83.2 456.2,85.7 486.5,75.5 516.8,83.0 547.0,75.9" stroke-linecap="round" stroke-linejoin="round"/>
<circle cx="48.0" cy="82.3" r="3" fill="#3b82f6" stroke="white" stroke-width="1"/>
<text x="48.0" y="74.3" font-size="9" fill="#3b82f6" text-anchor="middle" font-family="system-ui, -apple-system, sans-serif" font-weight="600" opacity="0.9">v0.4.1</text>
<circle cx="93.2" cy="90.3" r="3" fill="#3b82f6" stroke="white" stroke-width="1"/>
<text x="93.2" y="82.3" font-size="9" fill="#3b82f6" text-anchor="middle" font-family="system-ui, -apple-system, sans-serif" font-weight="600" opacity="0.9">v0.4.1</text>
<circle cx="123.5" cy="99.8" r="3" fill="#3b82f6" stroke="white" stroke-width="1"/>
<text x="123.5" y="91.8" font-size="9" fill="#3b82f6" text-anchor="middle" font-family="system-ui, -apple-system, sans-serif" font-weight="600" opacity="0.9">v0.5.0</text>
<circle cx="153.8" cy="82.6" r="3" fill="#3b82f6" stroke="white" stroke-width="1"/>
<text x="153.8" y="74.6" font-size="9" fill="#3b82f6" text-anchor="middle" font-family="system-ui, -apple-system, sans-serif" font-weight="600" opacity="0.9">v0.5.0</text>
<circle cx="184.0" cy="76.1" r="3" fill="#3b82f6" stroke="white" stroke-width="1"/>
<text x="184.0" y="68.1" font-size="9" fill="#3b82f6" text-anchor="middle" font-family="system-ui, -apple-system, sans-serif" font-weight="600" opacity="0.9">v0.6.0</text>
<circle cx="214.2" cy="76.4" r="3" fill="#3b82f6" stroke="white" stroke-width="1"/>
<text x="214.2" y="68.4" font-size="9" fill="#3b82f6" text-anchor="middle" font-family="system-ui, -apple-system, sans-serif" font-weight="600" opacity="0.9">v0.6.1</text>
<circle cx="244.5" cy="75.1" r="3" fill="#3b82f6" stroke="white" stroke-width="1"/>
<text x="244.5" y="67.1" font-size="9" fill="#3b82f6" text-anchor="middle" font-family="system-ui, -apple-system, sans-serif" font-weight="600" opacity="0.9">v0.7.0</text>
<circle cx="274.8" cy="112.0" r="3" fill="#3b82f6" stroke="white" stroke-width="1"/>
<text x="274.8" y="104.0" font-size="9" fill="#3b82f6" text-anchor="middle" font-family="system-ui, -apple-system, sans-serif" font-weight="600" opacity="0.9">v0.7.0 (68.71M ops/s)</text>
<circle cx="305.0" cy="23.0" r="3" fill="#3b82f6" stroke="white" stroke-width="1"/>
<text x="305.0" y="17.0" font-size="9" fill="#3b82f6" text-anchor="middle" font-family="system-ui, -apple-system, sans-serif" font-weight="600" opacity="0.9">v0.7.0 (118.74M ops/s)</text>
<circle cx="335.2" cy="93.2" r="3" fill="#3b82f6" stroke="white" stroke-width="1"/>
<text x="335.2" y="85.2" font-size="9" fill="#3b82f6" text-anchor="middle" font-family="system-ui, -apple-system, sans-serif" font-weight="600" opacity="0.9">v0.8.0</text>
<circle cx="365.5" cy="82.6" r="3" fill="#3b82f6" stroke="white" stroke-width="1"/>
<text x="365.5" y="74.6" font-size="9" fill="#3b82f6" text-anchor="middle" font-family="system-ui, -apple-system, sans-serif" font-weight="600" opacity="0.9">v0.8.0</text>
<circle cx="395.8" cy="78.6" r="3" fill="#3b82f6" stroke="white" stroke-width="1"/>
<text x="395.8" y="70.6" font-size="9" fill="#3b82f6" text-anchor="middle" font-family="system-ui, -apple-system, sans-serif" font-weight="600" opacity="0.9">v0.8.0</text>
<circle cx="426.0" cy="83.2" r="3" fill="#3b82f6" stroke="white" stroke-width="1"/>
<text x="426.0" y="75.2" font-size="9" fill="#3b82f6" text-anchor="middle" font-family="system-ui, -apple-system, sans-serif" font-weight="600" opacity="0.9">v0.8.0</text>
<circle cx="456.2" cy="85.7" r="3" fill="#3b82f6" stroke="white" stroke-width="1"/>
<text x="456.2" y="77.7" font-size="9" fill="#3b82f6" text-anchor="middle" font-family="system-ui, -apple-system, sans-serif" font-weight="600" opacity="0.9">v0.8.0</text>
<circle cx="486.5" cy="75.5" r="3" fill="#3b82f6" stroke="white" stroke-width="1"/>
<text x="486.5" y="67.5" font-size="9" fill="#3b82f6" text-anchor="middle" font-family="system-ui, -apple-system, sans-serif" font-weight="600" opacity="0.9">v0.8.0</text>
<circle cx="516.8" cy="83.0" r="3" fill="#3b82f6" stroke="white" stroke-width="1"/>
<text x="516.8" y="75.0" font-size="9" fill="#3b82f6" text-anchor="middle" font-family="system-ui, -apple-system, sans-serif" font-weight="600" opacity="0.9">v0.9.0</text>
<circle cx="547.0" cy="75.9" r="3" fill="#3b82f6" stroke="white" stroke-width="1"/>
<text x="547.0" y="67.9" font-size="9" fill="#3b82f6" text-anchor="middle" font-family="system-ui, -apple-system, sans-serif" font-weight="600" opacity="0.9">v0.9.0</text>
</svg>