<svg width="615" height="120" viewBox="0 0 615 120" xmlns="http://www.w3.org/2000/svg">
<rect width="615" height="120" fill="transparent"/>
<line x1="63" y1="67.5" x2="547" y2="67.5" stroke="currentColor" stroke-width="0.5" opacity="0.2" stroke-dasharray="2,2"/>
<polyline fill="none" stroke="#3b82f6" stroke-width="2" points="48.0,77.3 93.2,78.7 123.5,82.7 153.8,82.9 184.0,37.0 214.2,112.0 244.5,100.5 274.8,74.9 305.0,23.0 335.2,76.1 365.5,80.0 395.8,100.1 426.0,87.3 456.2,72.8 486.5,97.4 516.8,80.1 547.0,106.6" stroke-linecap="round" stroke-linejoin="round"/>
<circle cx="48.0" cy="77.3" r="3" fill="#3b82f6" stroke="white" stroke-width="1"/>
<text x="48.0" y="69.3" font-size="9" fill="#3b82f6" text-anchor="middle" font-family="system-ui, -apple-system, sans-serif" font-weight="600" opacity="0.9">v0.4.1</text>
<circle cx="93.2" cy="78.7" r="3" fill="#3b82f6" stroke="white" stroke-width="1"/>
<text x="93.2" y="70.7" font-size="9" fill="#3b82f6" text-anchor="middle" font-family="system-ui, -apple-system, sans-serif" font-weight="600" opacity="0.9">v0.4.1</text>
<circle cx="123.5" cy="82.7" r="3" fill="#3b82f6" stroke="white" stroke-width="1"/>
<text x="123.5" y="74.7" font-size="9" fill="#3b82f6" text-anchor="middle" font-family="system-ui, -apple-system, sans-serif" font-weight="600" opacity="0.9">v0.5.0</text>
<circle cx="153.8" cy="82.9" r="3" fill="#3b82f6" stroke="white" stroke-width="1"/>
<text x="153.8" y="74.9" font-size="9" fill="#3b82f6" text-anchor="middle" font-family="system-ui, -apple-system, sans-serif" font-weight="600" opacity="0.9">v0.5.0</text>
<circle cx="184.0" cy="37.0" r="3" fill="#3b82f6" stroke="white" stroke-width="1"/>
<text x="184.0" y="29.0" font-size="9" fill="#3b82f6" text-anchor="middle" font-family="system-ui, -apple-system, sans-serif" font-weight="600" opacity="0.9">v0.6.0</text>
<circle cx="214.2" cy="112.0" r="3" fill="#3b82f6" stroke="white" stroke-width="1"/>
<text x="214.2" y="104.0" font-size="9" fill="#3b82f6" text-anchor="middle" font-family="system-ui, -apple-system, sans-serif" font-weight="600" opacity="0.9">v0.6.1 (11.21M ops/s)</text>
<circle cx="244.5" cy="100.5" r="3" fill="#3b82f6" stroke="white" stroke-width="1"/>
<text x="244.5" y="92.5" font-size="9" fill="#3b82f6" text-anchor="middle" font-family="system-ui, -apple-system, sans-serif" font-weight="600" opacity="0.9">v0.7.0</text>
<circle cx="274.8" cy="74.9" r="3" fill="#3b82f6" stroke="white" stroke-width="1"/>
<text x="274.8" y="66.9" font-size="9" fill="#3b82f6" text-anchor="middle" font-family="system-ui, -apple-system, sans-serif" font-weight="600" opacity="0.9">v0.7.0</text>
<circle cx="305.0" cy="23.0" r="3" fill="#3b82f6" stroke="white" stroke-width="1"/>
<text x="305.0" y="17.0" font-size="9" fill="#3b82f6" text-anchor="middle" font-family="system-ui, -apple-system, sans-serif" font-weight="600" opacity="0.9">v0.7.0 (14.85M ops/s)</text>
<circle cx="335.2" cy="76.1" r="3" fill="#3b82f6" stroke="white" stroke-width="1"/>
<text x="335.2" y="68.1" font-size="9" fill="#3b82f6" text-anchor="middle" font-family="system-ui, -apple-system, sans-serif" font-weight="600" opacity="0.9">v0.8.0</text>
<circle cx="365.5" cy="80.0" r="3" fill="#3b82f6" stroke="white" stroke-width="1"/>
<text x="365.5" y="72.0" font-size="9" fill="#3b82f6" text-anchor="middle" font-family="system-ui, -apple-system, sans-serif" font-weight="600" opacity="0.9">v0.8.0</text>
<circle cx="395.8" cy="100.1" r="3" fill="#3b82f6" stroke="white" stroke-width="1"/>
<text x="395.8" y="92.1" font-size="9" fill="#3b82f6" text-anchor="middle" font-family="system-ui, -apple-system, sans-serif" font-weight="600" opacity="0.9">v0.8.0</text>
<circle cx="426.0" cy="87.3" r="3" fill="#3b82f6" stroke="white" stroke-width="1"/>
<text x="426.0" y="79.3" font-size="9" fill="#3b82f6" text-anchor="middle" font-family="system-ui, -apple-system, sans-serif" font-weight="600" opacity="0.9">v0.8.0</text>
<circle cx="456.2" cy="72.8" r="3" fill="#3b82f6" stroke="white" stroke-width="1"/>
<text x="456.2" y="64.8" font-size="9" fill="#3b82f6" text-anchor="middle" font-family="system-ui, -apple-system, sans-serif" font-weight="600" opacity="0.9">v0.8.0</text>
<circle cx="486.5" cy="97.4" r="3" fill="#3b82f6" stroke="white" stroke-width="1"/>
<text x="486.5" y="89.4" font-size="9" fill="#3b82f6" text-anchor="middle" font-family="system-ui, -apple-system, sans-serif" font-weight="600" opacity="0.9">v0.8.0</text>
<circle cx="516.8" cy="80.1" r="3" fill="#3b82f6" stroke="white" stroke-width="1"/>
<text x="516.8" y="72.1" font-size="9" fill="#3b82f6" text-anchor="middle" font-family="system-ui, -apple-system, sans-serif" font-weight="600" opacity="0.9">v0.9.0</text>
<circle cx="547.0" cy="106.6" r="3" fill="#3b82f6" stroke="white" stroke-width="1"/>
<text x="547.0" y="98.6" font-size="9" fill="#3b82f6" text-anchor="middle" font-family="system-ui, -apple-system, sans-serif" font-weight="600" opacity="0.9">v0.9.0</text>
</svg>