<svg width="615" height="120" viewBox="0 0 615 120" xmlns="http://www.w3.org/2000/svg">
<rect width="615" height="120" fill="transparent"/>
<line x1="63" y1="67.5" x2="547" y2="67.5" stroke="currentColor" stroke-width="0.5" opacity="0.2" stroke-dasharray="2,2"/>
<polyline fill="none" stroke="#3b82f6" stroke-width="2" points="48.0,94.1 116.8,94.2 170.6,90.2 224.3,91.4 278.1,23.0 331.9,101.3 385.7,100.1 439.4,112.0 493.2,34.7 547.0,94.1" stroke-linecap="round" stroke-linejoin="round"/>
<circle cx="48.0" cy="94.1" r="3" fill="#3b82f6" stroke="white" stroke-width="1"/>
<text x="48.0" y="86.1" font-size="9" fill="#3b82f6" text-anchor="middle" font-family="system-ui, -apple-system, sans-serif" font-weight="600" opacity="0.9">v0.4.1</text>
<circle cx="116.8" cy="94.2" r="3" fill="#3b82f6" stroke="white" stroke-width="1"/>
<text x="116.8" y="86.2" font-size="9" fill="#3b82f6" text-anchor="middle" font-family="system-ui, -apple-system, sans-serif" font-weight="600" opacity="0.9">v0.4.1</text>
<circle cx="170.6" cy="90.2" r="3" fill="#3b82f6" stroke="white" stroke-width="1"/>
<text x="170.6" y="82.2" font-size="9" fill="#3b82f6" text-anchor="middle" font-family="system-ui, -apple-system, sans-serif" font-weight="600" opacity="0.9">v0.5.0</text>
<circle cx="224.3" cy="91.4" r="3" fill="#3b82f6" stroke="white" stroke-width="1"/>
<text x="224.3" y="83.4" font-size="9" fill="#3b82f6" text-anchor="middle" font-family="system-ui, -apple-system, sans-serif" font-weight="600" opacity="0.9">v0.5.0</text>
<circle cx="278.1" cy="23.0" r="3" fill="#3b82f6" stroke="white" stroke-width="1"/>
<text x="278.1" y="17.0" font-size="9" fill="#3b82f6" text-anchor="middle" font-family="system-ui, -apple-system, sans-serif" font-weight="600" opacity="0.9">v0.6.0 (74.18M ops/s)</text>
<circle cx="331.9" cy="101.3" r="3" fill="#3b82f6" stroke="white" stroke-width="1"/>
<text x="331.9" y="93.3" font-size="9" fill="#3b82f6" text-anchor="middle" font-family="system-ui, -apple-system, sans-serif" font-weight="600" opacity="0.9">v0.6.1</text>
<circle cx="385.7" cy="100.1" r="3" fill="#3b82f6" stroke="white" stroke-width="1"/>
<text x="385.7" y="92.1" font-size="9" fill="#3b82f6" text-anchor="middle" font-family="system-ui, -apple-system, sans-serif" font-weight="600" opacity="0.9">v0.7.0</text>
<circle cx="439.4" cy="112.0" r="3" fill="#3b82f6" stroke="white" stroke-width="1"/>
<text x="439.4" y="104.0" font-size="9" fill="#3b82f6" text-anchor="middle" font-family="system-ui, -apple-system, sans-serif" font-weight="600" opacity="0.9">v0.7.0 (55.46M ops/s)</text>
<circle cx="493.2" cy="34.7" r="3" fill="#3b82f6" stroke="white" stroke-width="1"/>
<text x="493.2" y="26.7" font-size="9" fill="#3b82f6" text-anchor="middle" font-family="system-ui, -apple-system, sans-serif" font-weight="600" opacity="0.9">v0.7.0</text>
<circle cx="547.0" cy="94.1" r="3" fill="#3b82f6" stroke="white" stroke-width="1"/>
<text x="547.0" y="86.1" font-size="9" fill="#3b82f6" text-anchor="middle" font-family="system-ui, -apple-system, sans-serif" font-weight="600" opacity="0.9">v0.8.0</text>
</svg>