<svg width="755" height="120" viewBox="0 0 755 120" xmlns="http://www.w3.org/2000/svg">
<rect width="755" height="120" fill="transparent"/>
<line x1="63" y1="67.5" x2="547" y2="67.5" stroke="currentColor" stroke-width="0.5" opacity="0.2" stroke-dasharray="2,2"/>
<polyline fill="none" stroke="#3b82f6" stroke-width="2" points="48.0,60.8 100.2,62.2 137.5,61.7 174.7,59.8 211.9,26.3 249.2,65.8 286.4,74.4 323.6,70.5 360.8,23.0 398.1,65.8 435.3,66.7 472.5,66.1 509.8,63.5 547.0,112.0" stroke-linecap="round" stroke-linejoin="round"/>
<circle cx="48.0" cy="60.8" r="3" fill="#3b82f6" stroke="white" stroke-width="1"/>
<text x="48.0" y="52.8" font-size="9" fill="#3b82f6" text-anchor="middle" font-family="system-ui, -apple-system, sans-serif" font-weight="600" opacity="0.9">v0.4.1</text>
<circle cx="100.2" cy="62.2" r="3" fill="#3b82f6" stroke="white" stroke-width="1"/>
<text x="100.2" y="54.2" font-size="9" fill="#3b82f6" text-anchor="middle" font-family="system-ui, -apple-system, sans-serif" font-weight="600" opacity="0.9">v0.4.1</text>
<circle cx="137.5" cy="61.7" r="3" fill="#3b82f6" stroke="white" stroke-width="1"/>
<text x="137.5" y="53.7" font-size="9" fill="#3b82f6" text-anchor="middle" font-family="system-ui, -apple-system, sans-serif" font-weight="600" opacity="0.9">v0.5.0</text>
<circle cx="174.7" cy="59.8" r="3" fill="#3b82f6" stroke="white" stroke-width="1"/>
<text x="174.7" y="51.8" font-size="9" fill="#3b82f6" text-anchor="middle" font-family="system-ui, -apple-system, sans-serif" font-weight="600" opacity="0.9">v0.5.0</text>
<circle cx="211.9" cy="26.3" r="3" fill="#3b82f6" stroke="white" stroke-width="1"/>
<text x="211.9" y="18.3" font-size="9" fill="#3b82f6" text-anchor="middle" font-family="system-ui, -apple-system, sans-serif" font-weight="600" opacity="0.9">v0.6.0</text>
<circle cx="249.2" cy="65.8" r="3" fill="#3b82f6" stroke="white" stroke-width="1"/>
<text x="249.2" y="57.8" font-size="9" fill="#3b82f6" text-anchor="middle" font-family="system-ui, -apple-system, sans-serif" font-weight="600" opacity="0.9">v0.6.1</text>
<circle cx="286.4" cy="74.4" r="3" fill="#3b82f6" stroke="white" stroke-width="1"/>
<text x="286.4" y="66.4" font-size="9" fill="#3b82f6" text-anchor="middle" font-family="system-ui, -apple-system, sans-serif" font-weight="600" opacity="0.9">v0.7.0</text>
<circle cx="323.6" cy="70.5" r="3" fill="#3b82f6" stroke="white" stroke-width="1"/>
<text x="323.6" y="62.5" font-size="9" fill="#3b82f6" text-anchor="middle" font-family="system-ui, -apple-system, sans-serif" font-weight="600" opacity="0.9">v0.7.0</text>
<circle cx="360.8" cy="23.0" r="3" fill="#3b82f6" stroke="white" stroke-width="1"/>
<text x="360.8" y="17.0" font-size="9" fill="#3b82f6" text-anchor="middle" font-family="system-ui, -apple-system, sans-serif" font-weight="600" opacity="0.9">v0.7.0 (73.32M ops/s)</text>
<circle cx="398.1" cy="65.8" r="3" fill="#3b82f6" stroke="white" stroke-width="1"/>
<text x="398.1" y="57.8" font-size="9" fill="#3b82f6" text-anchor="middle" font-family="system-ui, -apple-system, sans-serif" font-weight="600" opacity="0.9">v0.8.0</text>
<circle cx="435.3" cy="66.7" r="3" fill="#3b82f6" stroke="white" stroke-width="1"/>
<text x="435.3" y="58.7" font-size="9" fill="#3b82f6" text-anchor="middle" font-family="system-ui, -apple-system, sans-serif" font-weight="600" opacity="0.9">v0.8.0</text>
<circle cx="472.5" cy="66.1" r="3" fill="#3b82f6" stroke="white" stroke-width="1"/>
<text x="472.5" y="58.1" font-size="9" fill="#3b82f6" text-anchor="middle" font-family="system-ui, -apple-system, sans-serif" font-weight="600" opacity="0.9">v0.8.0</text>
<circle cx="509.8" cy="63.5" r="3" fill="#3b82f6" stroke="white" stroke-width="1"/>
<text x="509.8" y="55.5" font-size="9" fill="#3b82f6" text-anchor="middle" font-family="system-ui, -apple-system, sans-serif" font-weight="600" opacity="0.9">v0.8.0</text>
<circle cx="547.0" cy="112.0" r="3" fill="#3b82f6" stroke="white" stroke-width="1"/>
<text x="547.0" y="104.0" font-size="9" fill="#3b82f6" text-anchor="middle" font-family="system-ui, -apple-system, sans-serif" font-weight="600" opacity="0.9">v0.8.0 (41.08M ops/s)</text>
</svg>