<svg width="615" height="120" viewBox="0 0 615 120" xmlns="http://www.w3.org/2000/svg">
<rect width="615" height="120" fill="transparent"/>
<line x1="63" y1="67.5" x2="547" y2="67.5" stroke="currentColor" stroke-width="0.5" opacity="0.2" stroke-dasharray="2,2"/>
<polyline fill="none" stroke="#3b82f6" stroke-width="2" points="48.0,88.7 103.3,93.5 143.7,93.4 184.0,91.0 224.3,35.0 264.7,100.1 305.0,99.5 345.3,112.0 385.7,23.0 426.0,100.6 466.3,107.0 506.7,101.4 547.0,100.1" stroke-linecap="round" stroke-linejoin="round"/>
<circle cx="48.0" cy="88.7" r="3" fill="#3b82f6" stroke="white" stroke-width="1"/>
<text x="48.0" y="80.7" font-size="9" fill="#3b82f6" text-anchor="middle" font-family="system-ui, -apple-system, sans-serif" font-weight="600" opacity="0.9">v0.4.1</text>
<circle cx="103.3" cy="93.5" r="3" fill="#3b82f6" stroke="white" stroke-width="1"/>
<text x="103.3" y="85.5" font-size="9" fill="#3b82f6" text-anchor="middle" font-family="system-ui, -apple-system, sans-serif" font-weight="600" opacity="0.9">v0.4.1</text>
<circle cx="143.7" cy="93.4" r="3" fill="#3b82f6" stroke="white" stroke-width="1"/>
<text x="143.7" y="85.4" font-size="9" fill="#3b82f6" text-anchor="middle" font-family="system-ui, -apple-system, sans-serif" font-weight="600" opacity="0.9">v0.5.0</text>
<circle cx="184.0" cy="91.0" r="3" fill="#3b82f6" stroke="white" stroke-width="1"/>
<text x="184.0" y="83.0" font-size="9" fill="#3b82f6" text-anchor="middle" font-family="system-ui, -apple-system, sans-serif" font-weight="600" opacity="0.9">v0.5.0</text>
<circle cx="224.3" cy="35.0" r="3" fill="#3b82f6" stroke="white" stroke-width="1"/>
<text x="224.3" y="27.0" font-size="9" fill="#3b82f6" text-anchor="middle" font-family="system-ui, -apple-system, sans-serif" font-weight="600" opacity="0.9">v0.6.0</text>
<circle cx="264.7" cy="100.1" r="3" fill="#3b82f6" stroke="white" stroke-width="1"/>
<text x="264.7" y="92.1" font-size="9" fill="#3b82f6" text-anchor="middle" font-family="system-ui, -apple-system, sans-serif" font-weight="600" opacity="0.9">v0.6.1</text>
<circle cx="305.0" cy="99.5" r="3" fill="#3b82f6" stroke="white" stroke-width="1"/>
<text x="305.0" y="91.5" font-size="9" fill="#3b82f6" text-anchor="middle" font-family="system-ui, -apple-system, sans-serif" font-weight="600" opacity="0.9">v0.7.0</text>
<circle cx="345.3" cy="112.0" r="3" fill="#3b82f6" stroke="white" stroke-width="1"/>
<text x="345.3" y="104.0" font-size="9" fill="#3b82f6" text-anchor="middle" font-family="system-ui, -apple-system, sans-serif" font-weight="600" opacity="0.9">v0.7.0 (55.38M ops/s)</text>
<circle cx="385.7" cy="23.0" r="3" fill="#3b82f6" stroke="white" stroke-width="1"/>
<text x="385.7" y="17.0" font-size="9" fill="#3b82f6" text-anchor="middle" font-family="system-ui, -apple-system, sans-serif" font-weight="600" opacity="0.9">v0.7.0 (73.77M ops/s)</text>
<circle cx="426.0" cy="100.6" r="3" fill="#3b82f6" stroke="white" stroke-width="1"/>
<text x="426.0" y="92.6" font-size="9" fill="#3b82f6" text-anchor="middle" font-family="system-ui, -apple-system, sans-serif" font-weight="600" opacity="0.9">v0.8.0</text>
<circle cx="466.3" cy="107.0" r="3" fill="#3b82f6" stroke="white" stroke-width="1"/>
<text x="466.3" y="99.0" font-size="9" fill="#3b82f6" text-anchor="middle" font-family="system-ui, -apple-system, sans-serif" font-weight="600" opacity="0.9">v0.8.0</text>
<circle cx="506.7" cy="101.4" r="3" fill="#3b82f6" stroke="white" stroke-width="1"/>
<text x="506.7" y="93.4" font-size="9" fill="#3b82f6" text-anchor="middle" font-family="system-ui, -apple-system, sans-serif" font-weight="600" opacity="0.9">v0.8.0</text>
<circle cx="547.0" cy="100.1" r="3" fill="#3b82f6" stroke="white" stroke-width="1"/>
<text x="547.0" y="92.1" font-size="9" fill="#3b82f6" text-anchor="middle" font-family="system-ui, -apple-system, sans-serif" font-weight="600" opacity="0.9">v0.8.0</text>
</svg>