<svg width="615" height="120" viewBox="0 0 615 120" xmlns="http://www.w3.org/2000/svg">
<rect width="615" height="120" fill="transparent"/>
<line x1="63" y1="67.5" x2="547" y2="67.5" stroke="currentColor" stroke-width="0.5" opacity="0.2" stroke-dasharray="2,2"/>
<polyline fill="none" stroke="#3b82f6" stroke-width="2" points="48.0,64.2 93.2,67.2 123.5,67.0 153.8,46.0 184.0,67.7 214.2,67.4 244.5,64.5 274.8,23.0 305.0,63.4 335.2,64.0 365.5,68.1 395.8,74.0 426.0,107.4 456.2,102.7 486.5,112.0 516.8,103.4 547.0,106.8" stroke-linecap="round" stroke-linejoin="round"/>
<circle cx="48.0" cy="64.2" r="3" fill="#3b82f6" stroke="white" stroke-width="1"/>
<text x="48.0" y="56.2" font-size="9" fill="#3b82f6" text-anchor="middle" font-family="system-ui, -apple-system, sans-serif" font-weight="600" opacity="0.9">v0.4.1</text>
<circle cx="93.2" cy="67.2" r="3" fill="#3b82f6" stroke="white" stroke-width="1"/>
<text x="93.2" y="59.2" font-size="9" fill="#3b82f6" text-anchor="middle" font-family="system-ui, -apple-system, sans-serif" font-weight="600" opacity="0.9">v0.5.0</text>
<circle cx="123.5" cy="67.0" r="3" fill="#3b82f6" stroke="white" stroke-width="1"/>
<text x="123.5" y="59.0" font-size="9" fill="#3b82f6" text-anchor="middle" font-family="system-ui, -apple-system, sans-serif" font-weight="600" opacity="0.9">v0.5.0</text>
<circle cx="153.8" cy="46.0" r="3" fill="#3b82f6" stroke="white" stroke-width="1"/>
<text x="153.8" y="38.0" font-size="9" fill="#3b82f6" text-anchor="middle" font-family="system-ui, -apple-system, sans-serif" font-weight="600" opacity="0.9">v0.6.0</text>
<circle cx="184.0" cy="67.7" r="3" fill="#3b82f6" stroke="white" stroke-width="1"/>
<text x="184.0" y="59.7" font-size="9" fill="#3b82f6" text-anchor="middle" font-family="system-ui, -apple-system, sans-serif" font-weight="600" opacity="0.9">v0.6.1</text>
<circle cx="214.2" cy="67.4" r="3" fill="#3b82f6" stroke="white" stroke-width="1"/>
<text x="214.2" y="59.4" font-size="9" fill="#3b82f6" text-anchor="middle" font-family="system-ui, -apple-system, sans-serif" font-weight="600" opacity="0.9">v0.7.0</text>
<circle cx="244.5" cy="64.5" r="3" fill="#3b82f6" stroke="white" stroke-width="1"/>
<text x="244.5" y="56.5" font-size="9" fill="#3b82f6" text-anchor="middle" font-family="system-ui, -apple-system, sans-serif" font-weight="600" opacity="0.9">v0.7.0</text>
<circle cx="274.8" cy="23.0" r="3" fill="#3b82f6" stroke="white" stroke-width="1"/>
<text x="274.8" y="17.0" font-size="9" fill="#3b82f6" text-anchor="middle" font-family="system-ui, -apple-system, sans-serif" font-weight="600" opacity="0.9">v0.7.0 (220.88K ops/s)</text>
<circle cx="305.0" cy="63.4" r="3" fill="#3b82f6" stroke="white" stroke-width="1"/>
<text x="305.0" y="55.4" font-size="9" fill="#3b82f6" text-anchor="middle" font-family="system-ui, -apple-system, sans-serif" font-weight="600" opacity="0.9">v0.8.0</text>
<circle cx="335.2" cy="64.0" r="3" fill="#3b82f6" stroke="white" stroke-width="1"/>
<text x="335.2" y="56.0" font-size="9" fill="#3b82f6" text-anchor="middle" font-family="system-ui, -apple-system, sans-serif" font-weight="600" opacity="0.9">v0.8.0</text>
<circle cx="365.5" cy="68.1" r="3" fill="#3b82f6" stroke="white" stroke-width="1"/>
<text x="365.5" y="60.1" font-size="9" fill="#3b82f6" text-anchor="middle" font-family="system-ui, -apple-system, sans-serif" font-weight="600" opacity="0.9">v0.8.0</text>
<circle cx="395.8" cy="74.0" r="3" fill="#3b82f6" stroke="white" stroke-width="1"/>
<text x="395.8" y="66.0" font-size="9" fill="#3b82f6" text-anchor="middle" font-family="system-ui, -apple-system, sans-serif" font-weight="600" opacity="0.9">v0.8.0</text>
<circle cx="426.0" cy="107.4" r="3" fill="#3b82f6" stroke="white" stroke-width="1"/>
<text x="426.0" y="99.4" font-size="9" fill="#3b82f6" text-anchor="middle" font-family="system-ui, -apple-system, sans-serif" font-weight="600" opacity="0.9">v0.8.0</text>
<circle cx="456.2" cy="102.7" r="3" fill="#3b82f6" stroke="white" stroke-width="1"/>
<text x="456.2" y="94.7" font-size="9" fill="#3b82f6" text-anchor="middle" font-family="system-ui, -apple-system, sans-serif" font-weight="600" opacity="0.9">v0.8.0</text>
<circle cx="486.5" cy="112.0" r="3" fill="#3b82f6" stroke="white" stroke-width="1"/>
<text x="486.5" y="104.0" font-size="9" fill="#3b82f6" text-anchor="middle" font-family="system-ui, -apple-system, sans-serif" font-weight="600" opacity="0.9">v0.9.0 (116.28K ops/s)</text>
<circle cx="516.8" cy="103.4" r="3" fill="#3b82f6" stroke="white" stroke-width="1"/>
<text x="516.8" y="95.4" font-size="9" fill="#3b82f6" text-anchor="middle" font-family="system-ui, -apple-system, sans-serif" font-weight="600" opacity="0.9">v0.9.0</text>
<circle cx="547.0" cy="106.8" r="3" fill="#3b82f6" stroke="white" stroke-width="1"/>
<text x="547.0" y="98.8" font-size="9" fill="#3b82f6" text-anchor="middle" font-family="system-ui, -apple-system, sans-serif" font-weight="600" opacity="0.9">v0.10.0</text>
</svg>