<svg width="755" height="120" viewBox="0 0 755 120" xmlns="http://www.w3.org/2000/svg">
<rect width="755" height="120" fill="transparent"/>
<line x1="63" y1="67.5" x2="547" y2="67.5" stroke="currentColor" stroke-width="0.5" opacity="0.2" stroke-dasharray="2,2"/>
<polyline fill="none" stroke="#3b82f6" stroke-width="2" points="48.0,66.4 103.3,69.7 143.7,69.4 184.0,47.3 224.3,70.2 264.7,69.8 305.0,66.8 345.3,23.0 385.7,65.6 426.0,66.2 466.3,70.6 506.7,76.8 547.0,112.0" stroke-linecap="round" stroke-linejoin="round"/>
<circle cx="48.0" cy="66.4" r="3" fill="#3b82f6" stroke="white" stroke-width="1"/>
<text x="48.0" y="58.4" font-size="9" fill="#3b82f6" text-anchor="middle" font-family="system-ui, -apple-system, sans-serif" font-weight="600" opacity="0.9">v0.4.1</text>
<circle cx="103.3" cy="69.7" r="3" fill="#3b82f6" stroke="white" stroke-width="1"/>
<text x="103.3" y="61.7" font-size="9" fill="#3b82f6" text-anchor="middle" font-family="system-ui, -apple-system, sans-serif" font-weight="600" opacity="0.9">v0.5.0</text>
<circle cx="143.7" cy="69.4" r="3" fill="#3b82f6" stroke="white" stroke-width="1"/>
<text x="143.7" y="61.4" font-size="9" fill="#3b82f6" text-anchor="middle" font-family="system-ui, -apple-system, sans-serif" font-weight="600" opacity="0.9">v0.5.0</text>
<circle cx="184.0" cy="47.3" r="3" fill="#3b82f6" stroke="white" stroke-width="1"/>
<text x="184.0" y="39.3" font-size="9" fill="#3b82f6" text-anchor="middle" font-family="system-ui, -apple-system, sans-serif" font-weight="600" opacity="0.9">v0.6.0</text>
<circle cx="224.3" cy="70.2" r="3" fill="#3b82f6" stroke="white" stroke-width="1"/>
<text x="224.3" y="62.2" font-size="9" fill="#3b82f6" text-anchor="middle" font-family="system-ui, -apple-system, sans-serif" font-weight="600" opacity="0.9">v0.6.1</text>
<circle cx="264.7" cy="69.8" r="3" fill="#3b82f6" stroke="white" stroke-width="1"/>
<text x="264.7" y="61.8" font-size="9" fill="#3b82f6" text-anchor="middle" font-family="system-ui, -apple-system, sans-serif" font-weight="600" opacity="0.9">v0.7.0</text>
<circle cx="305.0" cy="66.8" r="3" fill="#3b82f6" stroke="white" stroke-width="1"/>
<text x="305.0" y="58.8" font-size="9" fill="#3b82f6" text-anchor="middle" font-family="system-ui, -apple-system, sans-serif" font-weight="600" opacity="0.9">v0.7.0</text>
<circle cx="345.3" cy="23.0" r="3" fill="#3b82f6" stroke="white" stroke-width="1"/>
<text x="345.3" y="17.0" font-size="9" fill="#3b82f6" text-anchor="middle" font-family="system-ui, -apple-system, sans-serif" font-weight="600" opacity="0.9">v0.7.0 (220.88K ops/s)</text>
<circle cx="385.7" cy="65.6" r="3" fill="#3b82f6" stroke="white" stroke-width="1"/>
<text x="385.7" y="57.6" font-size="9" fill="#3b82f6" text-anchor="middle" font-family="system-ui, -apple-system, sans-serif" font-weight="600" opacity="0.9">v0.8.0</text>
<circle cx="426.0" cy="66.2" r="3" fill="#3b82f6" stroke="white" stroke-width="1"/>
<text x="426.0" y="58.2" font-size="9" fill="#3b82f6" text-anchor="middle" font-family="system-ui, -apple-system, sans-serif" font-weight="600" opacity="0.9">v0.8.0</text>
<circle cx="466.3" cy="70.6" r="3" fill="#3b82f6" stroke="white" stroke-width="1"/>
<text x="466.3" y="62.6" font-size="9" fill="#3b82f6" text-anchor="middle" font-family="system-ui, -apple-system, sans-serif" font-weight="600" opacity="0.9">v0.8.0</text>
<circle cx="506.7" cy="76.8" r="3" fill="#3b82f6" stroke="white" stroke-width="1"/>
<text x="506.7" y="68.8" font-size="9" fill="#3b82f6" text-anchor="middle" font-family="system-ui, -apple-system, sans-serif" font-weight="600" opacity="0.9">v0.8.0</text>
<circle cx="547.0" cy="112.0" r="3" fill="#3b82f6" stroke="white" stroke-width="1"/>
<text x="547.0" y="104.0" font-size="9" fill="#3b82f6" text-anchor="middle" font-family="system-ui, -apple-system, sans-serif" font-weight="600" opacity="0.9">v0.8.0 (121.69K ops/s)</text>
</svg>