<svg width="615" height="120" viewBox="0 0 615 120" xmlns="http://www.w3.org/2000/svg">
<rect width="615" height="120" fill="transparent"/>
<line x1="63" y1="67.5" x2="547" y2="67.5" stroke="currentColor" stroke-width="0.5" opacity="0.2" stroke-dasharray="2,2"/>
<polyline fill="none" stroke="#3b82f6" stroke-width="2" points="48.0,73.6 95.3,74.2 127.5,73.8 159.8,74.2 192.1,39.5 224.3,43.9 256.6,43.6 288.9,36.1 321.1,23.0 353.4,36.2 385.7,36.1 417.9,43.3 450.2,36.1 482.5,112.0 514.7,111.6 547.0,111.7" stroke-linecap="round" stroke-linejoin="round"/>
<circle cx="48.0" cy="73.6" r="3" fill="#3b82f6" stroke="white" stroke-width="1"/>
<text x="48.0" y="65.6" font-size="9" fill="#3b82f6" text-anchor="middle" font-family="system-ui, -apple-system, sans-serif" font-weight="600" opacity="0.9">v0.4.1</text>
<circle cx="95.3" cy="74.2" r="3" fill="#3b82f6" stroke="white" stroke-width="1"/>
<text x="95.3" y="66.2" font-size="9" fill="#3b82f6" text-anchor="middle" font-family="system-ui, -apple-system, sans-serif" font-weight="600" opacity="0.9">v0.4.1</text>
<circle cx="127.5" cy="73.8" r="3" fill="#3b82f6" stroke="white" stroke-width="1"/>
<text x="127.5" y="65.8" font-size="9" fill="#3b82f6" text-anchor="middle" font-family="system-ui, -apple-system, sans-serif" font-weight="600" opacity="0.9">v0.5.0</text>
<circle cx="159.8" cy="74.2" r="3" fill="#3b82f6" stroke="white" stroke-width="1"/>
<text x="159.8" y="66.2" font-size="9" fill="#3b82f6" text-anchor="middle" font-family="system-ui, -apple-system, sans-serif" font-weight="600" opacity="0.9">v0.5.0</text>
<circle cx="192.1" cy="39.5" r="3" fill="#3b82f6" stroke="white" stroke-width="1"/>
<text x="192.1" y="31.5" font-size="9" fill="#3b82f6" text-anchor="middle" font-family="system-ui, -apple-system, sans-serif" font-weight="600" opacity="0.9">v0.6.0</text>
<circle cx="224.3" cy="43.9" r="3" fill="#3b82f6" stroke="white" stroke-width="1"/>
<text x="224.3" y="35.9" font-size="9" fill="#3b82f6" text-anchor="middle" font-family="system-ui, -apple-system, sans-serif" font-weight="600" opacity="0.9">v0.6.1</text>
<circle cx="256.6" cy="43.6" r="3" fill="#3b82f6" stroke="white" stroke-width="1"/>
<text x="256.6" y="35.6" font-size="9" fill="#3b82f6" text-anchor="middle" font-family="system-ui, -apple-system, sans-serif" font-weight="600" opacity="0.9">v0.7.0</text>
<circle cx="288.9" cy="36.1" r="3" fill="#3b82f6" stroke="white" stroke-width="1"/>
<text x="288.9" y="28.1" font-size="9" fill="#3b82f6" text-anchor="middle" font-family="system-ui, -apple-system, sans-serif" font-weight="600" opacity="0.9">v0.7.0</text>
<circle cx="321.1" cy="23.0" r="3" fill="#3b82f6" stroke="white" stroke-width="1"/>
<text x="321.1" y="17.0" font-size="9" fill="#3b82f6" text-anchor="middle" font-family="system-ui, -apple-system, sans-serif" font-weight="600" opacity="0.9">v0.7.0 (116.35M ops/s)</text>
<circle cx="353.4" cy="36.2" r="3" fill="#3b82f6" stroke="white" stroke-width="1"/>
<text x="353.4" y="28.2" font-size="9" fill="#3b82f6" text-anchor="middle" font-family="system-ui, -apple-system, sans-serif" font-weight="600" opacity="0.9">v0.8.0</text>
<circle cx="385.7" cy="36.1" r="3" fill="#3b82f6" stroke="white" stroke-width="1"/>
<text x="385.7" y="28.1" font-size="9" fill="#3b82f6" text-anchor="middle" font-family="system-ui, -apple-system, sans-serif" font-weight="600" opacity="0.9">v0.8.0</text>
<circle cx="417.9" cy="43.3" r="3" fill="#3b82f6" stroke="white" stroke-width="1"/>
<text x="417.9" y="35.3" font-size="9" fill="#3b82f6" text-anchor="middle" font-family="system-ui, -apple-system, sans-serif" font-weight="600" opacity="0.9">v0.8.0</text>
<circle cx="450.2" cy="36.1" r="3" fill="#3b82f6" stroke="white" stroke-width="1"/>
<text x="450.2" y="28.1" font-size="9" fill="#3b82f6" text-anchor="middle" font-family="system-ui, -apple-system, sans-serif" font-weight="600" opacity="0.9">v0.8.0</text>
<circle cx="482.5" cy="112.0" r="3" fill="#3b82f6" stroke="white" stroke-width="1"/>
<text x="482.5" y="104.0" font-size="9" fill="#3b82f6" text-anchor="middle" font-family="system-ui, -apple-system, sans-serif" font-weight="600" opacity="0.9">v0.8.0 (2.75M ops/s)</text>
<circle cx="514.7" cy="111.6" r="3" fill="#3b82f6" stroke="white" stroke-width="1"/>
<text x="514.7" y="103.6" font-size="9" fill="#3b82f6" text-anchor="middle" font-family="system-ui, -apple-system, sans-serif" font-weight="600" opacity="0.9">v0.8.0</text>
<circle cx="547.0" cy="111.7" r="3" fill="#3b82f6" stroke="white" stroke-width="1"/>
<text x="547.0" y="103.7" font-size="9" fill="#3b82f6" text-anchor="middle" font-family="system-ui, -apple-system, sans-serif" font-weight="600" opacity="0.9">v0.9.0</text>
</svg>