<svg width="615" height="120" viewBox="0 0 615 120" xmlns="http://www.w3.org/2000/svg">
<rect width="615" height="120" fill="transparent"/>
<line x1="63" y1="67.5" x2="547" y2="67.5" stroke="currentColor" stroke-width="0.5" opacity="0.2" stroke-dasharray="2,2"/>
<polyline fill="none" stroke="#3b82f6" stroke-width="2" points="48.0,88.5 111.4,90.9 159.8,90.0 208.2,86.7 256.6,28.6 305.0,97.1 353.4,112.0 401.8,105.3 450.2,23.0 498.6,97.1 547.0,98.6" stroke-linecap="round" stroke-linejoin="round"/>
<circle cx="48.0" cy="88.5" r="3" fill="#3b82f6" stroke="white" stroke-width="1"/>
<text x="48.0" y="80.5" font-size="9" fill="#3b82f6" text-anchor="middle" font-family="system-ui, -apple-system, sans-serif" font-weight="600" opacity="0.9">v0.4.1</text>
<circle cx="111.4" cy="90.9" r="3" fill="#3b82f6" stroke="white" stroke-width="1"/>
<text x="111.4" y="82.9" font-size="9" fill="#3b82f6" text-anchor="middle" font-family="system-ui, -apple-system, sans-serif" font-weight="600" opacity="0.9">v0.4.1</text>
<circle cx="159.8" cy="90.0" r="3" fill="#3b82f6" stroke="white" stroke-width="1"/>
<text x="159.8" y="82.0" font-size="9" fill="#3b82f6" text-anchor="middle" font-family="system-ui, -apple-system, sans-serif" font-weight="600" opacity="0.9">v0.5.0</text>
<circle cx="208.2" cy="86.7" r="3" fill="#3b82f6" stroke="white" stroke-width="1"/>
<text x="208.2" y="78.7" font-size="9" fill="#3b82f6" text-anchor="middle" font-family="system-ui, -apple-system, sans-serif" font-weight="600" opacity="0.9">v0.5.0</text>
<circle cx="256.6" cy="28.6" r="3" fill="#3b82f6" stroke="white" stroke-width="1"/>
<text x="256.6" y="20.6" font-size="9" fill="#3b82f6" text-anchor="middle" font-family="system-ui, -apple-system, sans-serif" font-weight="600" opacity="0.9">v0.6.0</text>
<circle cx="305.0" cy="97.1" r="3" fill="#3b82f6" stroke="white" stroke-width="1"/>
<text x="305.0" y="89.1" font-size="9" fill="#3b82f6" text-anchor="middle" font-family="system-ui, -apple-system, sans-serif" font-weight="600" opacity="0.9">v0.6.1</text>
<circle cx="353.4" cy="112.0" r="3" fill="#3b82f6" stroke="white" stroke-width="1"/>
<text x="353.4" y="104.0" font-size="9" fill="#3b82f6" text-anchor="middle" font-family="system-ui, -apple-system, sans-serif" font-weight="600" opacity="0.9">v0.7.0 (54.71M ops/s)</text>
<circle cx="401.8" cy="105.3" r="3" fill="#3b82f6" stroke="white" stroke-width="1"/>
<text x="401.8" y="97.3" font-size="9" fill="#3b82f6" text-anchor="middle" font-family="system-ui, -apple-system, sans-serif" font-weight="600" opacity="0.9">v0.7.0</text>
<circle cx="450.2" cy="23.0" r="3" fill="#3b82f6" stroke="white" stroke-width="1"/>
<text x="450.2" y="17.0" font-size="9" fill="#3b82f6" text-anchor="middle" font-family="system-ui, -apple-system, sans-serif" font-weight="600" opacity="0.9">v0.7.0 (73.32M ops/s)</text>
<circle cx="498.6" cy="97.1" r="3" fill="#3b82f6" stroke="white" stroke-width="1"/>
<text x="498.6" y="89.1" font-size="9" fill="#3b82f6" text-anchor="middle" font-family="system-ui, -apple-system, sans-serif" font-weight="600" opacity="0.9">v0.8.0</text>
<circle cx="547.0" cy="98.6" r="3" fill="#3b82f6" stroke="white" stroke-width="1"/>
<text x="547.0" y="90.6" font-size="9" fill="#3b82f6" text-anchor="middle" font-family="system-ui, -apple-system, sans-serif" font-weight="600" opacity="0.9">v0.8.0</text>
</svg>