<svg width="615" height="120" viewBox="0 0 615 120" xmlns="http://www.w3.org/2000/svg">
<rect width="615" height="120" fill="transparent"/>
<line x1="63" y1="67.5" x2="547" y2="67.5" stroke="currentColor" stroke-width="0.5" opacity="0.2" stroke-dasharray="2,2"/>
<polyline fill="none" stroke="#3b82f6" stroke-width="2" points="48.0,110.9 107.0,112.0 151.0,111.2 195.0,112.0 239.0,51.6 283.0,59.3 327.0,58.8 371.0,45.7 415.0,23.0 459.0,45.9 503.0,45.8 547.0,58.3" stroke-linecap="round" stroke-linejoin="round"/>
<circle cx="48.0" cy="110.9" r="3" fill="#3b82f6" stroke="white" stroke-width="1"/>
<text x="48.0" y="102.9" font-size="9" fill="#3b82f6" text-anchor="middle" font-family="system-ui, -apple-system, sans-serif" font-weight="600" opacity="0.9">v0.4.1</text>
<circle cx="107.0" cy="112.0" r="3" fill="#3b82f6" stroke="white" stroke-width="1"/>
<text x="107.0" y="104.0" font-size="9" fill="#3b82f6" text-anchor="middle" font-family="system-ui, -apple-system, sans-serif" font-weight="600" opacity="0.9">v0.4.1</text>
<circle cx="151.0" cy="111.2" r="3" fill="#3b82f6" stroke="white" stroke-width="1"/>
<text x="151.0" y="103.2" font-size="9" fill="#3b82f6" text-anchor="middle" font-family="system-ui, -apple-system, sans-serif" font-weight="600" opacity="0.9">v0.5.0</text>
<circle cx="195.0" cy="112.0" r="3" fill="#3b82f6" stroke="white" stroke-width="1"/>
<text x="195.0" y="104.0" font-size="9" fill="#3b82f6" text-anchor="middle" font-family="system-ui, -apple-system, sans-serif" font-weight="600" opacity="0.9">v0.5.0 (50.97M ops/s)</text>
<circle cx="239.0" cy="51.6" r="3" fill="#3b82f6" stroke="white" stroke-width="1"/>
<text x="239.0" y="43.6" font-size="9" fill="#3b82f6" text-anchor="middle" font-family="system-ui, -apple-system, sans-serif" font-weight="600" opacity="0.9">v0.6.0</text>
<circle cx="283.0" cy="59.3" r="3" fill="#3b82f6" stroke="white" stroke-width="1"/>
<text x="283.0" y="51.3" font-size="9" fill="#3b82f6" text-anchor="middle" font-family="system-ui, -apple-system, sans-serif" font-weight="600" opacity="0.9">v0.6.1</text>
<circle cx="327.0" cy="58.8" r="3" fill="#3b82f6" stroke="white" stroke-width="1"/>
<text x="327.0" y="50.8" font-size="9" fill="#3b82f6" text-anchor="middle" font-family="system-ui, -apple-system, sans-serif" font-weight="600" opacity="0.9">v0.7.0</text>
<circle cx="371.0" cy="45.7" r="3" fill="#3b82f6" stroke="white" stroke-width="1"/>
<text x="371.0" y="37.7" font-size="9" fill="#3b82f6" text-anchor="middle" font-family="system-ui, -apple-system, sans-serif" font-weight="600" opacity="0.9">v0.7.0</text>
<circle cx="415.0" cy="23.0" r="3" fill="#3b82f6" stroke="white" stroke-width="1"/>
<text x="415.0" y="17.0" font-size="9" fill="#3b82f6" text-anchor="middle" font-family="system-ui, -apple-system, sans-serif" font-weight="600" opacity="0.9">v0.7.0 (116.35M ops/s)</text>
<circle cx="459.0" cy="45.9" r="3" fill="#3b82f6" stroke="white" stroke-width="1"/>
<text x="459.0" y="37.9" font-size="9" fill="#3b82f6" text-anchor="middle" font-family="system-ui, -apple-system, sans-serif" font-weight="600" opacity="0.9">v0.8.0</text>
<circle cx="503.0" cy="45.8" r="3" fill="#3b82f6" stroke="white" stroke-width="1"/>
<text x="503.0" y="37.8" font-size="9" fill="#3b82f6" text-anchor="middle" font-family="system-ui, -apple-system, sans-serif" font-weight="600" opacity="0.9">v0.8.0</text>
<circle cx="547.0" cy="58.3" r="3" fill="#3b82f6" stroke="white" stroke-width="1"/>
<text x="547.0" y="50.3" font-size="9" fill="#3b82f6" text-anchor="middle" font-family="system-ui, -apple-system, sans-serif" font-weight="600" opacity="0.9">v0.8.0</text>
</svg>