<svg width="755" height="120" viewBox="0 0 755 120" xmlns="http://www.w3.org/2000/svg">
<rect width="755" height="120" fill="transparent"/>
<line x1="63" y1="67.5" x2="547" y2="67.5" stroke="currentColor" stroke-width="0.5" opacity="0.2" stroke-dasharray="2,2"/>
<polyline fill="none" stroke="#3b82f6" stroke-width="2" points="48.0,62.5 91.5,62.6 119.9,60.3 148.4,61.0 176.9,23.0 205.4,66.5 233.8,65.8 262.3,72.4 290.8,29.5 319.2,62.5 347.7,67.9 376.2,66.6 404.6,62.3 433.1,110.6 461.6,108.7 490.1,110.4 518.5,108.5 547.0,112.0" stroke-linecap="round" stroke-linejoin="round"/>
<circle cx="48.0" cy="62.5" r="3" fill="#3b82f6" stroke="white" stroke-width="1"/>
<text x="48.0" y="54.5" font-size="9" fill="#3b82f6" text-anchor="middle" font-family="system-ui, -apple-system, sans-serif" font-weight="600" opacity="0.9">v0.4.1</text>
<circle cx="91.5" cy="62.6" r="3" fill="#3b82f6" stroke="white" stroke-width="1"/>
<text x="91.5" y="54.6" font-size="9" fill="#3b82f6" text-anchor="middle" font-family="system-ui, -apple-system, sans-serif" font-weight="600" opacity="0.9">v0.4.1</text>
<circle cx="119.9" cy="60.3" r="3" fill="#3b82f6" stroke="white" stroke-width="1"/>
<text x="119.9" y="52.3" font-size="9" fill="#3b82f6" text-anchor="middle" font-family="system-ui, -apple-system, sans-serif" font-weight="600" opacity="0.9">v0.5.0</text>
<circle cx="148.4" cy="61.0" r="3" fill="#3b82f6" stroke="white" stroke-width="1"/>
<text x="148.4" y="53.0" font-size="9" fill="#3b82f6" text-anchor="middle" font-family="system-ui, -apple-system, sans-serif" font-weight="600" opacity="0.9">v0.5.0</text>
<circle cx="176.9" cy="23.0" r="3" fill="#3b82f6" stroke="white" stroke-width="1"/>
<text x="176.9" y="17.0" font-size="9" fill="#3b82f6" text-anchor="middle" font-family="system-ui, -apple-system, sans-serif" font-weight="600" opacity="0.9">v0.6.0 (74.18M ops/s)</text>
<circle cx="205.4" cy="66.5" r="3" fill="#3b82f6" stroke="white" stroke-width="1"/>
<text x="205.4" y="58.5" font-size="9" fill="#3b82f6" text-anchor="middle" font-family="system-ui, -apple-system, sans-serif" font-weight="600" opacity="0.9">v0.6.1</text>
<circle cx="233.8" cy="65.8" r="3" fill="#3b82f6" stroke="white" stroke-width="1"/>
<text x="233.8" y="57.8" font-size="9" fill="#3b82f6" text-anchor="middle" font-family="system-ui, -apple-system, sans-serif" font-weight="600" opacity="0.9">v0.7.0</text>
<circle cx="262.3" cy="72.4" r="3" fill="#3b82f6" stroke="white" stroke-width="1"/>
<text x="262.3" y="64.4" font-size="9" fill="#3b82f6" text-anchor="middle" font-family="system-ui, -apple-system, sans-serif" font-weight="600" opacity="0.9">v0.7.0</text>
<circle cx="290.8" cy="29.5" r="3" fill="#3b82f6" stroke="white" stroke-width="1"/>
<text x="290.8" y="21.5" font-size="9" fill="#3b82f6" text-anchor="middle" font-family="system-ui, -apple-system, sans-serif" font-weight="600" opacity="0.9">v0.7.0</text>
<circle cx="319.2" cy="62.5" r="3" fill="#3b82f6" stroke="white" stroke-width="1"/>
<text x="319.2" y="54.5" font-size="9" fill="#3b82f6" text-anchor="middle" font-family="system-ui, -apple-system, sans-serif" font-weight="600" opacity="0.9">v0.8.0</text>
<circle cx="347.7" cy="67.9" r="3" fill="#3b82f6" stroke="white" stroke-width="1"/>
<text x="347.7" y="59.9" font-size="9" fill="#3b82f6" text-anchor="middle" font-family="system-ui, -apple-system, sans-serif" font-weight="600" opacity="0.9">v0.8.0</text>
<circle cx="376.2" cy="66.6" r="3" fill="#3b82f6" stroke="white" stroke-width="1"/>
<text x="376.2" y="58.6" font-size="9" fill="#3b82f6" text-anchor="middle" font-family="system-ui, -apple-system, sans-serif" font-weight="600" opacity="0.9">v0.8.0</text>
<circle cx="404.6" cy="62.3" r="3" fill="#3b82f6" stroke="white" stroke-width="1"/>
<text x="404.6" y="54.3" font-size="9" fill="#3b82f6" text-anchor="middle" font-family="system-ui, -apple-system, sans-serif" font-weight="600" opacity="0.9">v0.8.0</text>
<circle cx="433.1" cy="110.6" r="3" fill="#3b82f6" stroke="white" stroke-width="1"/>
<text x="433.1" y="102.6" font-size="9" fill="#3b82f6" text-anchor="middle" font-family="system-ui, -apple-system, sans-serif" font-weight="600" opacity="0.9">v0.8.0</text>
<circle cx="461.6" cy="108.7" r="3" fill="#3b82f6" stroke="white" stroke-width="1"/>
<text x="461.6" y="100.7" font-size="9" fill="#3b82f6" text-anchor="middle" font-family="system-ui, -apple-system, sans-serif" font-weight="600" opacity="0.9">v0.8.0</text>
<circle cx="490.1" cy="110.4" r="3" fill="#3b82f6" stroke="white" stroke-width="1"/>
<text x="490.1" y="102.4" font-size="9" fill="#3b82f6" text-anchor="middle" font-family="system-ui, -apple-system, sans-serif" font-weight="600" opacity="0.9">v0.9.0</text>
<circle cx="518.5" cy="108.5" r="3" fill="#3b82f6" stroke="white" stroke-width="1"/>
<text x="518.5" y="100.5" font-size="9" fill="#3b82f6" text-anchor="middle" font-family="system-ui, -apple-system, sans-serif" font-weight="600" opacity="0.9">v0.9.0</text>
<circle cx="547.0" cy="112.0" r="3" fill="#3b82f6" stroke="white" stroke-width="1"/>
<text x="547.0" y="104.0" font-size="9" fill="#3b82f6" text-anchor="middle" font-family="system-ui, -apple-system, sans-serif" font-weight="600" opacity="0.9">v0.10.0 (40.48M ops/s)</text>
</svg>