<svg width="615" height="120" viewBox="0 0 615 120" xmlns="http://www.w3.org/2000/svg">
<rect width="615" height="120" fill="transparent"/>
<line x1="63" y1="67.5" x2="547" y2="67.5" stroke="currentColor" stroke-width="0.5" opacity="0.2" stroke-dasharray="2,2"/>
<polyline fill="none" stroke="#3b82f6" stroke-width="2" points="48.0,103.0 107.0,107.8 151.0,112.0 195.0,91.1 239.0,43.7 283.0,57.3 327.0,57.2 371.0,49.7 415.0,23.0 459.0,49.5 503.0,49.7 547.0,57.3" stroke-linecap="round" stroke-linejoin="round"/>
<circle cx="48.0" cy="103.0" r="3" fill="#3b82f6" stroke="white" stroke-width="1"/>
<text x="48.0" y="95.0" font-size="9" fill="#3b82f6" text-anchor="middle" font-family="system-ui, -apple-system, sans-serif" font-weight="600" opacity="0.9">v0.4.1</text>
<circle cx="107.0" cy="107.8" r="3" fill="#3b82f6" stroke="white" stroke-width="1"/>
<text x="107.0" y="99.8" font-size="9" fill="#3b82f6" text-anchor="middle" font-family="system-ui, -apple-system, sans-serif" font-weight="600" opacity="0.9">v0.4.1</text>
<circle cx="151.0" cy="112.0" r="3" fill="#3b82f6" stroke="white" stroke-width="1"/>
<text x="151.0" y="104.0" font-size="9" fill="#3b82f6" text-anchor="middle" font-family="system-ui, -apple-system, sans-serif" font-weight="600" opacity="0.9">v0.5.0 (352.30M ops/s)</text>
<circle cx="195.0" cy="91.1" r="3" fill="#3b82f6" stroke="white" stroke-width="1"/>
<text x="195.0" y="83.1" font-size="9" fill="#3b82f6" text-anchor="middle" font-family="system-ui, -apple-system, sans-serif" font-weight="600" opacity="0.9">v0.5.0</text>
<circle cx="239.0" cy="43.7" r="3" fill="#3b82f6" stroke="white" stroke-width="1"/>
<text x="239.0" y="35.7" font-size="9" fill="#3b82f6" text-anchor="middle" font-family="system-ui, -apple-system, sans-serif" font-weight="600" opacity="0.9">v0.6.0</text>
<circle cx="283.0" cy="57.3" r="3" fill="#3b82f6" stroke="white" stroke-width="1"/>
<text x="283.0" y="49.3" font-size="9" fill="#3b82f6" text-anchor="middle" font-family="system-ui, -apple-system, sans-serif" font-weight="600" opacity="0.9">v0.6.1</text>
<circle cx="327.0" cy="57.2" r="3" fill="#3b82f6" stroke="white" stroke-width="1"/>
<text x="327.0" y="49.2" font-size="9" fill="#3b82f6" text-anchor="middle" font-family="system-ui, -apple-system, sans-serif" font-weight="600" opacity="0.9">v0.7.0</text>
<circle cx="371.0" cy="49.7" r="3" fill="#3b82f6" stroke="white" stroke-width="1"/>
<text x="371.0" y="41.7" font-size="9" fill="#3b82f6" text-anchor="middle" font-family="system-ui, -apple-system, sans-serif" font-weight="600" opacity="0.9">v0.7.0</text>
<circle cx="415.0" cy="23.0" r="3" fill="#3b82f6" stroke="white" stroke-width="1"/>
<text x="415.0" y="17.0" font-size="9" fill="#3b82f6" text-anchor="middle" font-family="system-ui, -apple-system, sans-serif" font-weight="600" opacity="0.9">v0.7.0 (804.10M ops/s)</text>
<circle cx="459.0" cy="49.5" r="3" fill="#3b82f6" stroke="white" stroke-width="1"/>
<text x="459.0" y="41.5" font-size="9" fill="#3b82f6" text-anchor="middle" font-family="system-ui, -apple-system, sans-serif" font-weight="600" opacity="0.9">v0.8.0</text>
<circle cx="503.0" cy="49.7" r="3" fill="#3b82f6" stroke="white" stroke-width="1"/>
<text x="503.0" y="41.7" font-size="9" fill="#3b82f6" text-anchor="middle" font-family="system-ui, -apple-system, sans-serif" font-weight="600" opacity="0.9">v0.8.0</text>
<circle cx="547.0" cy="57.3" r="3" fill="#3b82f6" stroke="white" stroke-width="1"/>
<text x="547.0" y="49.3" font-size="9" fill="#3b82f6" text-anchor="middle" font-family="system-ui, -apple-system, sans-serif" font-weight="600" opacity="0.9">v0.8.0</text>
</svg>