<svg width="615" height="120" viewBox="0 0 615 120" xmlns="http://www.w3.org/2000/svg">
<rect width="615" height="120" fill="transparent"/>
<line x1="63" y1="67.5" x2="547" y2="67.5" stroke="currentColor" stroke-width="0.5" opacity="0.2" stroke-dasharray="2,2"/>
<polyline fill="none" stroke="#3b82f6" stroke-width="2" points="48.0,103.0 116.8,107.8 170.6,112.0 224.3,91.1 278.1,43.7 331.9,57.3 385.7,57.2 439.4,49.7 493.2,23.0 547.0,49.5" stroke-linecap="round" stroke-linejoin="round"/>
<circle cx="48.0" cy="103.0" r="3" fill="#3b82f6" stroke="white" stroke-width="1"/>
<text x="48.0" y="95.0" font-size="9" fill="#3b82f6" text-anchor="middle" font-family="system-ui, -apple-system, sans-serif" font-weight="600" opacity="0.9">v0.4.1</text>
<circle cx="116.8" cy="107.8" r="3" fill="#3b82f6" stroke="white" stroke-width="1"/>
<text x="116.8" y="99.8" font-size="9" fill="#3b82f6" text-anchor="middle" font-family="system-ui, -apple-system, sans-serif" font-weight="600" opacity="0.9">v0.4.1</text>
<circle cx="170.6" cy="112.0" r="3" fill="#3b82f6" stroke="white" stroke-width="1"/>
<text x="170.6" y="104.0" font-size="9" fill="#3b82f6" text-anchor="middle" font-family="system-ui, -apple-system, sans-serif" font-weight="600" opacity="0.9">v0.5.0 (352.30M ops/s)</text>
<circle cx="224.3" cy="91.1" r="3" fill="#3b82f6" stroke="white" stroke-width="1"/>
<text x="224.3" y="83.1" font-size="9" fill="#3b82f6" text-anchor="middle" font-family="system-ui, -apple-system, sans-serif" font-weight="600" opacity="0.9">v0.5.0</text>
<circle cx="278.1" cy="43.7" r="3" fill="#3b82f6" stroke="white" stroke-width="1"/>
<text x="278.1" y="35.7" font-size="9" fill="#3b82f6" text-anchor="middle" font-family="system-ui, -apple-system, sans-serif" font-weight="600" opacity="0.9">v0.6.0</text>
<circle cx="331.9" cy="57.3" r="3" fill="#3b82f6" stroke="white" stroke-width="1"/>
<text x="331.9" y="49.3" font-size="9" fill="#3b82f6" text-anchor="middle" font-family="system-ui, -apple-system, sans-serif" font-weight="600" opacity="0.9">v0.6.1</text>
<circle cx="385.7" cy="57.2" r="3" fill="#3b82f6" stroke="white" stroke-width="1"/>
<text x="385.7" y="49.2" font-size="9" fill="#3b82f6" text-anchor="middle" font-family="system-ui, -apple-system, sans-serif" font-weight="600" opacity="0.9">v0.7.0</text>
<circle cx="439.4" cy="49.7" r="3" fill="#3b82f6" stroke="white" stroke-width="1"/>
<text x="439.4" y="41.7" font-size="9" fill="#3b82f6" text-anchor="middle" font-family="system-ui, -apple-system, sans-serif" font-weight="600" opacity="0.9">v0.7.0</text>
<circle cx="493.2" cy="23.0" r="3" fill="#3b82f6" stroke="white" stroke-width="1"/>
<text x="493.2" y="17.0" font-size="9" fill="#3b82f6" text-anchor="middle" font-family="system-ui, -apple-system, sans-serif" font-weight="600" opacity="0.9">v0.7.0 (804.10M ops/s)</text>
<circle cx="547.0" cy="49.5" r="3" fill="#3b82f6" stroke="white" stroke-width="1"/>
<text x="547.0" y="41.5" font-size="9" fill="#3b82f6" text-anchor="middle" font-family="system-ui, -apple-system, sans-serif" font-weight="600" opacity="0.9">v0.8.0</text>
</svg>