<svg width="755" height="120" viewBox="0 0 755 120" xmlns="http://www.w3.org/2000/svg">
<rect width="755" height="120" fill="transparent"/>
<line x1="63" y1="67.5" x2="547" y2="67.5" stroke="currentColor" stroke-width="0.5" opacity="0.2" stroke-dasharray="2,2"/>
<polyline fill="none" stroke="#3b82f6" stroke-width="2" points="48.0,66.1 103.3,83.5 143.7,66.2 184.0,69.6 224.3,45.3 264.7,45.7 305.0,41.0 345.3,23.0 385.7,40.9 426.0,41.1 466.3,45.5 506.7,41.0 547.0,112.0" stroke-linecap="round" stroke-linejoin="round"/>
<circle cx="48.0" cy="66.1" r="3" fill="#3b82f6" stroke="white" stroke-width="1"/>
<text x="48.0" y="58.1" font-size="9" fill="#3b82f6" text-anchor="middle" font-family="system-ui, -apple-system, sans-serif" font-weight="600" opacity="0.9">v0.4.1</text>
<circle cx="103.3" cy="83.5" r="3" fill="#3b82f6" stroke="white" stroke-width="1"/>
<text x="103.3" y="75.5" font-size="9" fill="#3b82f6" text-anchor="middle" font-family="system-ui, -apple-system, sans-serif" font-weight="600" opacity="0.9">v0.5.0</text>
<circle cx="143.7" cy="66.2" r="3" fill="#3b82f6" stroke="white" stroke-width="1"/>
<text x="143.7" y="58.2" font-size="9" fill="#3b82f6" text-anchor="middle" font-family="system-ui, -apple-system, sans-serif" font-weight="600" opacity="0.9">v0.5.0</text>
<circle cx="184.0" cy="69.6" r="3" fill="#3b82f6" stroke="white" stroke-width="1"/>
<text x="184.0" y="61.6" font-size="9" fill="#3b82f6" text-anchor="middle" font-family="system-ui, -apple-system, sans-serif" font-weight="600" opacity="0.9">v0.6.0</text>
<circle cx="224.3" cy="45.3" r="3" fill="#3b82f6" stroke="white" stroke-width="1"/>
<text x="224.3" y="37.3" font-size="9" fill="#3b82f6" text-anchor="middle" font-family="system-ui, -apple-system, sans-serif" font-weight="600" opacity="0.9">v0.6.1</text>
<circle cx="264.7" cy="45.7" r="3" fill="#3b82f6" stroke="white" stroke-width="1"/>
<text x="264.7" y="37.7" font-size="9" fill="#3b82f6" text-anchor="middle" font-family="system-ui, -apple-system, sans-serif" font-weight="600" opacity="0.9">v0.7.0</text>
<circle cx="305.0" cy="41.0" r="3" fill="#3b82f6" stroke="white" stroke-width="1"/>
<text x="305.0" y="33.0" font-size="9" fill="#3b82f6" text-anchor="middle" font-family="system-ui, -apple-system, sans-serif" font-weight="600" opacity="0.9">v0.7.0</text>
<circle cx="345.3" cy="23.0" r="3" fill="#3b82f6" stroke="white" stroke-width="1"/>
<text x="345.3" y="17.0" font-size="9" fill="#3b82f6" text-anchor="middle" font-family="system-ui, -apple-system, sans-serif" font-weight="600" opacity="0.9">v0.7.0 (794.30M ops/s)</text>
<circle cx="385.7" cy="40.9" r="3" fill="#3b82f6" stroke="white" stroke-width="1"/>
<text x="385.7" y="32.9" font-size="9" fill="#3b82f6" text-anchor="middle" font-family="system-ui, -apple-system, sans-serif" font-weight="600" opacity="0.9">v0.8.0</text>
<circle cx="426.0" cy="41.1" r="3" fill="#3b82f6" stroke="white" stroke-width="1"/>
<text x="426.0" y="33.1" font-size="9" fill="#3b82f6" text-anchor="middle" font-family="system-ui, -apple-system, sans-serif" font-weight="600" opacity="0.9">v0.8.0</text>
<circle cx="466.3" cy="45.5" r="3" fill="#3b82f6" stroke="white" stroke-width="1"/>
<text x="466.3" y="37.5" font-size="9" fill="#3b82f6" text-anchor="middle" font-family="system-ui, -apple-system, sans-serif" font-weight="600" opacity="0.9">v0.8.0</text>
<circle cx="506.7" cy="41.0" r="3" fill="#3b82f6" stroke="white" stroke-width="1"/>
<text x="506.7" y="33.0" font-size="9" fill="#3b82f6" text-anchor="middle" font-family="system-ui, -apple-system, sans-serif" font-weight="600" opacity="0.9">v0.8.0</text>
<circle cx="547.0" cy="112.0" r="3" fill="#3b82f6" stroke="white" stroke-width="1"/>
<text x="547.0" y="104.0" font-size="9" fill="#3b82f6" text-anchor="middle" font-family="system-ui, -apple-system, sans-serif" font-weight="600" opacity="0.9">v0.8.0 (102.71M ops/s)</text>
</svg>