<svg width="615" height="120" viewBox="0 0 615 120" xmlns="http://www.w3.org/2000/svg">
<rect width="615" height="120" fill="transparent"/>
<line x1="63" y1="67.5" x2="547" y2="67.5" stroke="currentColor" stroke-width="0.5" opacity="0.2" stroke-dasharray="2,2"/>
<polyline fill="none" stroke="#3b82f6" stroke-width="2" points="48.0,92.6 97.6,80.3 132.1,106.8 166.7,85.5 201.3,40.2 235.9,112.0 270.4,104.4 305.0,75.0 339.6,23.0 374.1,82.3 408.7,81.5 443.3,102.6 477.9,84.5 512.4,77.9 547.0,104.1" stroke-linecap="round" stroke-linejoin="round"/>
<circle cx="48.0" cy="92.6" r="3" fill="#3b82f6" stroke="white" stroke-width="1"/>
<text x="48.0" y="84.6" font-size="9" fill="#3b82f6" text-anchor="middle" font-family="system-ui, -apple-system, sans-serif" font-weight="600" opacity="0.9">v0.4.1</text>
<circle cx="97.6" cy="80.3" r="3" fill="#3b82f6" stroke="white" stroke-width="1"/>
<text x="97.6" y="72.3" font-size="9" fill="#3b82f6" text-anchor="middle" font-family="system-ui, -apple-system, sans-serif" font-weight="600" opacity="0.9">v0.4.1</text>
<circle cx="132.1" cy="106.8" r="3" fill="#3b82f6" stroke="white" stroke-width="1"/>
<text x="132.1" y="98.8" font-size="9" fill="#3b82f6" text-anchor="middle" font-family="system-ui, -apple-system, sans-serif" font-weight="600" opacity="0.9">v0.5.0</text>
<circle cx="166.7" cy="85.5" r="3" fill="#3b82f6" stroke="white" stroke-width="1"/>
<text x="166.7" y="77.5" font-size="9" fill="#3b82f6" text-anchor="middle" font-family="system-ui, -apple-system, sans-serif" font-weight="600" opacity="0.9">v0.5.0</text>
<circle cx="201.3" cy="40.2" r="3" fill="#3b82f6" stroke="white" stroke-width="1"/>
<text x="201.3" y="32.2" font-size="9" fill="#3b82f6" text-anchor="middle" font-family="system-ui, -apple-system, sans-serif" font-weight="600" opacity="0.9">v0.6.0</text>
<circle cx="235.9" cy="112.0" r="3" fill="#3b82f6" stroke="white" stroke-width="1"/>
<text x="235.9" y="104.0" font-size="9" fill="#3b82f6" text-anchor="middle" font-family="system-ui, -apple-system, sans-serif" font-weight="600" opacity="0.9">v0.6.1 (11.30M ops/s)</text>
<circle cx="270.4" cy="104.4" r="3" fill="#3b82f6" stroke="white" stroke-width="1"/>
<text x="270.4" y="96.4" font-size="9" fill="#3b82f6" text-anchor="middle" font-family="system-ui, -apple-system, sans-serif" font-weight="600" opacity="0.9">v0.7.0</text>
<circle cx="305.0" cy="75.0" r="3" fill="#3b82f6" stroke="white" stroke-width="1"/>
<text x="305.0" y="67.0" font-size="9" fill="#3b82f6" text-anchor="middle" font-family="system-ui, -apple-system, sans-serif" font-weight="600" opacity="0.9">v0.7.0</text>
<circle cx="339.6" cy="23.0" r="3" fill="#3b82f6" stroke="white" stroke-width="1"/>
<text x="339.6" y="17.0" font-size="9" fill="#3b82f6" text-anchor="middle" font-family="system-ui, -apple-system, sans-serif" font-weight="600" opacity="0.9">v0.7.0 (14.86M ops/s)</text>
<circle cx="374.1" cy="82.3" r="3" fill="#3b82f6" stroke="white" stroke-width="1"/>
<text x="374.1" y="74.3" font-size="9" fill="#3b82f6" text-anchor="middle" font-family="system-ui, -apple-system, sans-serif" font-weight="600" opacity="0.9">v0.8.0</text>
<circle cx="408.7" cy="81.5" r="3" fill="#3b82f6" stroke="white" stroke-width="1"/>
<text x="408.7" y="73.5" font-size="9" fill="#3b82f6" text-anchor="middle" font-family="system-ui, -apple-system, sans-serif" font-weight="600" opacity="0.9">v0.8.0</text>
<circle cx="443.3" cy="102.6" r="3" fill="#3b82f6" stroke="white" stroke-width="1"/>
<text x="443.3" y="94.6" font-size="9" fill="#3b82f6" text-anchor="middle" font-family="system-ui, -apple-system, sans-serif" font-weight="600" opacity="0.9">v0.8.0</text>
<circle cx="477.9" cy="84.5" r="3" fill="#3b82f6" stroke="white" stroke-width="1"/>
<text x="477.9" y="76.5" font-size="9" fill="#3b82f6" text-anchor="middle" font-family="system-ui, -apple-system, sans-serif" font-weight="600" opacity="0.9">v0.8.0</text>
<circle cx="512.4" cy="77.9" r="3" fill="#3b82f6" stroke="white" stroke-width="1"/>
<text x="512.4" y="69.9" font-size="9" fill="#3b82f6" text-anchor="middle" font-family="system-ui, -apple-system, sans-serif" font-weight="600" opacity="0.9">v0.8.0</text>
<circle cx="547.0" cy="104.1" r="3" fill="#3b82f6" stroke="white" stroke-width="1"/>
<text x="547.0" y="96.1" font-size="9" fill="#3b82f6" text-anchor="middle" font-family="system-ui, -apple-system, sans-serif" font-weight="600" opacity="0.9">v0.8.0</text>
</svg>