<svg width="615" height="120" viewBox="0 0 615 120" xmlns="http://www.w3.org/2000/svg">
<rect width="615" height="120" fill="transparent"/>
<line x1="63" y1="67.5" x2="547" y2="67.5" stroke="currentColor" stroke-width="0.5" opacity="0.2" stroke-dasharray="2,2"/>
<polyline fill="none" stroke="#3b82f6" stroke-width="2" points="48.0,73.6 91.5,74.2 119.9,73.8 148.4,74.2 176.9,39.5 205.4,43.9 233.8,43.6 262.3,36.1 290.8,23.0 319.2,36.2 347.7,36.1 376.2,43.3 404.6,36.1 433.1,112.0 461.6,111.6 490.1,111.7 518.5,111.7 547.0,111.8" stroke-linecap="round" stroke-linejoin="round"/>
<circle cx="48.0" cy="73.6" r="3" fill="#3b82f6" stroke="white" stroke-width="1"/>
<text x="48.0" y="65.6" font-size="9" fill="#3b82f6" text-anchor="middle" font-family="system-ui, -apple-system, sans-serif" font-weight="600" opacity="0.9">v0.4.1</text>
<circle cx="91.5" cy="74.2" r="3" fill="#3b82f6" stroke="white" stroke-width="1"/>
<text x="91.5" y="66.2" font-size="9" fill="#3b82f6" text-anchor="middle" font-family="system-ui, -apple-system, sans-serif" font-weight="600" opacity="0.9">v0.4.1</text>
<circle cx="119.9" cy="73.8" r="3" fill="#3b82f6" stroke="white" stroke-width="1"/>
<text x="119.9" y="65.8" font-size="9" fill="#3b82f6" text-anchor="middle" font-family="system-ui, -apple-system, sans-serif" font-weight="600" opacity="0.9">v0.5.0</text>
<circle cx="148.4" cy="74.2" r="3" fill="#3b82f6" stroke="white" stroke-width="1"/>
<text x="148.4" y="66.2" font-size="9" fill="#3b82f6" text-anchor="middle" font-family="system-ui, -apple-system, sans-serif" font-weight="600" opacity="0.9">v0.5.0</text>
<circle cx="176.9" cy="39.5" r="3" fill="#3b82f6" stroke="white" stroke-width="1"/>
<text x="176.9" y="31.5" font-size="9" fill="#3b82f6" text-anchor="middle" font-family="system-ui, -apple-system, sans-serif" font-weight="600" opacity="0.9">v0.6.0</text>
<circle cx="205.4" cy="43.9" r="3" fill="#3b82f6" stroke="white" stroke-width="1"/>
<text x="205.4" y="35.9" font-size="9" fill="#3b82f6" text-anchor="middle" font-family="system-ui, -apple-system, sans-serif" font-weight="600" opacity="0.9">v0.6.1</text>
<circle cx="233.8" cy="43.6" r="3" fill="#3b82f6" stroke="white" stroke-width="1"/>
<text x="233.8" y="35.6" font-size="9" fill="#3b82f6" text-anchor="middle" font-family="system-ui, -apple-system, sans-serif" font-weight="600" opacity="0.9">v0.7.0</text>
<circle cx="262.3" cy="36.1" r="3" fill="#3b82f6" stroke="white" stroke-width="1"/>
<text x="262.3" y="28.1" font-size="9" fill="#3b82f6" text-anchor="middle" font-family="system-ui, -apple-system, sans-serif" font-weight="600" opacity="0.9">v0.7.0</text>
<circle cx="290.8" cy="23.0" r="3" fill="#3b82f6" stroke="white" stroke-width="1"/>
<text x="290.8" y="17.0" font-size="9" fill="#3b82f6" text-anchor="middle" font-family="system-ui, -apple-system, sans-serif" font-weight="600" opacity="0.9">v0.7.0 (116.35M ops/s)</text>
<circle cx="319.2" cy="36.2" r="3" fill="#3b82f6" stroke="white" stroke-width="1"/>
<text x="319.2" y="28.2" font-size="9" fill="#3b82f6" text-anchor="middle" font-family="system-ui, -apple-system, sans-serif" font-weight="600" opacity="0.9">v0.8.0</text>
<circle cx="347.7" cy="36.1" r="3" fill="#3b82f6" stroke="white" stroke-width="1"/>
<text x="347.7" y="28.1" font-size="9" fill="#3b82f6" text-anchor="middle" font-family="system-ui, -apple-system, sans-serif" font-weight="600" opacity="0.9">v0.8.0</text>
<circle cx="376.2" cy="43.3" r="3" fill="#3b82f6" stroke="white" stroke-width="1"/>
<text x="376.2" y="35.3" font-size="9" fill="#3b82f6" text-anchor="middle" font-family="system-ui, -apple-system, sans-serif" font-weight="600" opacity="0.9">v0.8.0</text>
<circle cx="404.6" cy="36.1" r="3" fill="#3b82f6" stroke="white" stroke-width="1"/>
<text x="404.6" y="28.1" font-size="9" fill="#3b82f6" text-anchor="middle" font-family="system-ui, -apple-system, sans-serif" font-weight="600" opacity="0.9">v0.8.0</text>
<circle cx="433.1" cy="112.0" r="3" fill="#3b82f6" stroke="white" stroke-width="1"/>
<text x="433.1" y="104.0" font-size="9" fill="#3b82f6" text-anchor="middle" font-family="system-ui, -apple-system, sans-serif" font-weight="600" opacity="0.9">v0.8.0 (2.75M ops/s)</text>
<circle cx="461.6" cy="111.6" r="3" fill="#3b82f6" stroke="white" stroke-width="1"/>
<text x="461.6" y="103.6" font-size="9" fill="#3b82f6" text-anchor="middle" font-family="system-ui, -apple-system, sans-serif" font-weight="600" opacity="0.9">v0.8.0</text>
<circle cx="490.1" cy="111.7" r="3" fill="#3b82f6" stroke="white" stroke-width="1"/>
<text x="490.1" y="103.7" font-size="9" fill="#3b82f6" text-anchor="middle" font-family="system-ui, -apple-system, sans-serif" font-weight="600" opacity="0.9">v0.9.0</text>
<circle cx="518.5" cy="111.7" r="3" fill="#3b82f6" stroke="white" stroke-width="1"/>
<text x="518.5" y="103.7" font-size="9" fill="#3b82f6" text-anchor="middle" font-family="system-ui, -apple-system, sans-serif" font-weight="600" opacity="0.9">v0.9.0</text>
<circle cx="547.0" cy="111.8" r="3" fill="#3b82f6" stroke="white" stroke-width="1"/>
<text x="547.0" y="103.8" font-size="9" fill="#3b82f6" text-anchor="middle" font-family="system-ui, -apple-system, sans-serif" font-weight="600" opacity="0.9">v0.10.0</text>
</svg>