<svg width="615" height="120" viewBox="0 0 615 120" xmlns="http://www.w3.org/2000/svg">
<rect width="615" height="120" fill="transparent"/>
<line x1="63" y1="67.5" x2="547" y2="67.5" stroke="currentColor" stroke-width="0.5" opacity="0.2" stroke-dasharray="2,2"/>
<polyline fill="none" stroke="#3b82f6" stroke-width="2" points="48.0,89.3 95.3,74.7 127.5,76.8 159.8,74.7 192.1,46.6 224.3,44.5 256.6,44.2 288.9,47.2 321.1,23.0 353.4,42.1 385.7,42.3 417.9,44.2 450.2,47.3 482.5,112.0 514.7,111.0 547.0,111.2" stroke-linecap="round" stroke-linejoin="round"/>
<circle cx="48.0" cy="89.3" r="3" fill="#3b82f6" stroke="white" stroke-width="1"/>
<text x="48.0" y="81.3" font-size="9" fill="#3b82f6" text-anchor="middle" font-family="system-ui, -apple-system, sans-serif" font-weight="600" opacity="0.9">v0.4.1</text>
<circle cx="95.3" cy="74.7" r="3" fill="#3b82f6" stroke="white" stroke-width="1"/>
<text x="95.3" y="66.7" font-size="9" fill="#3b82f6" text-anchor="middle" font-family="system-ui, -apple-system, sans-serif" font-weight="600" opacity="0.9">v0.4.1</text>
<circle cx="127.5" cy="76.8" r="3" fill="#3b82f6" stroke="white" stroke-width="1"/>
<text x="127.5" y="68.8" font-size="9" fill="#3b82f6" text-anchor="middle" font-family="system-ui, -apple-system, sans-serif" font-weight="600" opacity="0.9">v0.5.0</text>
<circle cx="159.8" cy="74.7" r="3" fill="#3b82f6" stroke="white" stroke-width="1"/>
<text x="159.8" y="66.7" font-size="9" fill="#3b82f6" text-anchor="middle" font-family="system-ui, -apple-system, sans-serif" font-weight="600" opacity="0.9">v0.5.0</text>
<circle cx="192.1" cy="46.6" r="3" fill="#3b82f6" stroke="white" stroke-width="1"/>
<text x="192.1" y="38.6" font-size="9" fill="#3b82f6" text-anchor="middle" font-family="system-ui, -apple-system, sans-serif" font-weight="600" opacity="0.9">v0.6.0</text>
<circle cx="224.3" cy="44.5" r="3" fill="#3b82f6" stroke="white" stroke-width="1"/>
<text x="224.3" y="36.5" font-size="9" fill="#3b82f6" text-anchor="middle" font-family="system-ui, -apple-system, sans-serif" font-weight="600" opacity="0.9">v0.6.1</text>
<circle cx="256.6" cy="44.2" r="3" fill="#3b82f6" stroke="white" stroke-width="1"/>
<text x="256.6" y="36.2" font-size="9" fill="#3b82f6" text-anchor="middle" font-family="system-ui, -apple-system, sans-serif" font-weight="600" opacity="0.9">v0.7.0</text>
<circle cx="288.9" cy="47.2" r="3" fill="#3b82f6" stroke="white" stroke-width="1"/>
<text x="288.9" y="39.2" font-size="9" fill="#3b82f6" text-anchor="middle" font-family="system-ui, -apple-system, sans-serif" font-weight="600" opacity="0.9">v0.7.0</text>
<circle cx="321.1" cy="23.0" r="3" fill="#3b82f6" stroke="white" stroke-width="1"/>
<text x="321.1" y="17.0" font-size="9" fill="#3b82f6" text-anchor="middle" font-family="system-ui, -apple-system, sans-serif" font-weight="600" opacity="0.9">v0.7.0 (1.16B ops/s)</text>
<circle cx="353.4" cy="42.1" r="3" fill="#3b82f6" stroke="white" stroke-width="1"/>
<text x="353.4" y="34.1" font-size="9" fill="#3b82f6" text-anchor="middle" font-family="system-ui, -apple-system, sans-serif" font-weight="600" opacity="0.9">v0.8.0</text>
<circle cx="385.7" cy="42.3" r="3" fill="#3b82f6" stroke="white" stroke-width="1"/>
<text x="385.7" y="34.3" font-size="9" fill="#3b82f6" text-anchor="middle" font-family="system-ui, -apple-system, sans-serif" font-weight="600" opacity="0.9">v0.8.0</text>
<circle cx="417.9" cy="44.2" r="3" fill="#3b82f6" stroke="white" stroke-width="1"/>
<text x="417.9" y="36.2" font-size="9" fill="#3b82f6" text-anchor="middle" font-family="system-ui, -apple-system, sans-serif" font-weight="600" opacity="0.9">v0.8.0</text>
<circle cx="450.2" cy="47.3" r="3" fill="#3b82f6" stroke="white" stroke-width="1"/>
<text x="450.2" y="39.3" font-size="9" fill="#3b82f6" text-anchor="middle" font-family="system-ui, -apple-system, sans-serif" font-weight="600" opacity="0.9">v0.8.0</text>
<circle cx="482.5" cy="112.0" r="3" fill="#3b82f6" stroke="white" stroke-width="1"/>
<text x="482.5" y="104.0" font-size="9" fill="#3b82f6" text-anchor="middle" font-family="system-ui, -apple-system, sans-serif" font-weight="600" opacity="0.9">v0.8.0 (82.01M ops/s)</text>
<circle cx="514.7" cy="111.0" r="3" fill="#3b82f6" stroke="white" stroke-width="1"/>
<text x="514.7" y="103.0" font-size="9" fill="#3b82f6" text-anchor="middle" font-family="system-ui, -apple-system, sans-serif" font-weight="600" opacity="0.9">v0.8.0</text>
<circle cx="547.0" cy="111.2" r="3" fill="#3b82f6" stroke="white" stroke-width="1"/>
<text x="547.0" y="103.2" font-size="9" fill="#3b82f6" text-anchor="middle" font-family="system-ui, -apple-system, sans-serif" font-weight="600" opacity="0.9">v0.9.0</text>
</svg>