<svg width="615" height="120" viewBox="0 0 615 120" xmlns="http://www.w3.org/2000/svg">
<rect width="615" height="120" fill="transparent"/>
<line x1="63" y1="67.5" x2="547" y2="67.5" stroke="currentColor" stroke-width="0.5" opacity="0.2" stroke-dasharray="2,2"/>
<polyline fill="none" stroke="#3b82f6" stroke-width="2" points="48.0,59.8 93.2,62.5 123.5,62.4 153.8,61.1 184.0,29.7 214.2,66.2 244.5,65.9 274.8,72.8 305.0,23.0 335.2,66.5 365.5,70.0 395.8,66.9 426.0,66.2 456.2,111.0 486.5,108.7 516.8,112.0 547.0,108.5" stroke-linecap="round" stroke-linejoin="round"/>
<circle cx="48.0" cy="59.8" r="3" fill="#3b82f6" stroke="white" stroke-width="1"/>
<text x="48.0" y="51.8" font-size="9" fill="#3b82f6" text-anchor="middle" font-family="system-ui, -apple-system, sans-serif" font-weight="600" opacity="0.9">v0.4.1</text>
<circle cx="93.2" cy="62.5" r="3" fill="#3b82f6" stroke="white" stroke-width="1"/>
<text x="93.2" y="54.5" font-size="9" fill="#3b82f6" text-anchor="middle" font-family="system-ui, -apple-system, sans-serif" font-weight="600" opacity="0.9">v0.4.1</text>
<circle cx="123.5" cy="62.4" r="3" fill="#3b82f6" stroke="white" stroke-width="1"/>
<text x="123.5" y="54.4" font-size="9" fill="#3b82f6" text-anchor="middle" font-family="system-ui, -apple-system, sans-serif" font-weight="600" opacity="0.9">v0.5.0</text>
<circle cx="153.8" cy="61.1" r="3" fill="#3b82f6" stroke="white" stroke-width="1"/>
<text x="153.8" y="53.1" font-size="9" fill="#3b82f6" text-anchor="middle" font-family="system-ui, -apple-system, sans-serif" font-weight="600" opacity="0.9">v0.5.0</text>
<circle cx="184.0" cy="29.7" r="3" fill="#3b82f6" stroke="white" stroke-width="1"/>
<text x="184.0" y="21.7" font-size="9" fill="#3b82f6" text-anchor="middle" font-family="system-ui, -apple-system, sans-serif" font-weight="600" opacity="0.9">v0.6.0</text>
<circle cx="214.2" cy="66.2" r="3" fill="#3b82f6" stroke="white" stroke-width="1"/>
<text x="214.2" y="58.2" font-size="9" fill="#3b82f6" text-anchor="middle" font-family="system-ui, -apple-system, sans-serif" font-weight="600" opacity="0.9">v0.6.1</text>
<circle cx="244.5" cy="65.9" r="3" fill="#3b82f6" stroke="white" stroke-width="1"/>
<text x="244.5" y="57.9" font-size="9" fill="#3b82f6" text-anchor="middle" font-family="system-ui, -apple-system, sans-serif" font-weight="600" opacity="0.9">v0.7.0</text>
<circle cx="274.8" cy="72.8" r="3" fill="#3b82f6" stroke="white" stroke-width="1"/>
<text x="274.8" y="64.8" font-size="9" fill="#3b82f6" text-anchor="middle" font-family="system-ui, -apple-system, sans-serif" font-weight="600" opacity="0.9">v0.7.0</text>
<circle cx="305.0" cy="23.0" r="3" fill="#3b82f6" stroke="white" stroke-width="1"/>
<text x="305.0" y="17.0" font-size="9" fill="#3b82f6" text-anchor="middle" font-family="system-ui, -apple-system, sans-serif" font-weight="600" opacity="0.9">v0.7.0 (73.77M ops/s)</text>
<circle cx="335.2" cy="66.5" r="3" fill="#3b82f6" stroke="white" stroke-width="1"/>
<text x="335.2" y="58.5" font-size="9" fill="#3b82f6" text-anchor="middle" font-family="system-ui, -apple-system, sans-serif" font-weight="600" opacity="0.9">v0.8.0</text>
<circle cx="365.5" cy="70.0" r="3" fill="#3b82f6" stroke="white" stroke-width="1"/>
<text x="365.5" y="62.0" font-size="9" fill="#3b82f6" text-anchor="middle" font-family="system-ui, -apple-system, sans-serif" font-weight="600" opacity="0.9">v0.8.0</text>
<circle cx="395.8" cy="66.9" r="3" fill="#3b82f6" stroke="white" stroke-width="1"/>
<text x="395.8" y="58.9" font-size="9" fill="#3b82f6" text-anchor="middle" font-family="system-ui, -apple-system, sans-serif" font-weight="600" opacity="0.9">v0.8.0</text>
<circle cx="426.0" cy="66.2" r="3" fill="#3b82f6" stroke="white" stroke-width="1"/>
<text x="426.0" y="58.2" font-size="9" fill="#3b82f6" text-anchor="middle" font-family="system-ui, -apple-system, sans-serif" font-weight="600" opacity="0.9">v0.8.0</text>
<circle cx="456.2" cy="111.0" r="3" fill="#3b82f6" stroke="white" stroke-width="1"/>
<text x="456.2" y="103.0" font-size="9" fill="#3b82f6" text-anchor="middle" font-family="system-ui, -apple-system, sans-serif" font-weight="600" opacity="0.9">v0.8.0</text>
<circle cx="486.5" cy="108.7" r="3" fill="#3b82f6" stroke="white" stroke-width="1"/>
<text x="486.5" y="100.7" font-size="9" fill="#3b82f6" text-anchor="middle" font-family="system-ui, -apple-system, sans-serif" font-weight="600" opacity="0.9">v0.8.0</text>
<circle cx="516.8" cy="112.0" r="3" fill="#3b82f6" stroke="white" stroke-width="1"/>
<text x="516.8" y="104.0" font-size="9" fill="#3b82f6" text-anchor="middle" font-family="system-ui, -apple-system, sans-serif" font-weight="600" opacity="0.9">v0.9.0 (40.94M ops/s)</text>
<circle cx="547.0" cy="108.5" r="3" fill="#3b82f6" stroke="white" stroke-width="1"/>
<text x="547.0" y="100.5" font-size="9" fill="#3b82f6" text-anchor="middle" font-family="system-ui, -apple-system, sans-serif" font-weight="600" opacity="0.9">v0.9.0</text>
</svg>