<svg width="755" height="120" viewBox="0 0 755 120" xmlns="http://www.w3.org/2000/svg">
<rect width="755" height="120" fill="transparent"/>
<line x1="63" y1="67.5" x2="547" y2="67.5" stroke="currentColor" stroke-width="0.5" opacity="0.2" stroke-dasharray="2,2"/>
<polyline fill="none" stroke="#3b82f6" stroke-width="2" points="48.0,58.7 91.5,61.3 119.9,61.2 148.4,59.9 176.9,29.5 205.4,64.9 233.8,64.5 262.3,71.3 290.8,23.0 319.2,65.1 347.7,68.6 376.2,65.6 404.6,64.8 433.1,108.3 461.6,106.1 490.1,109.3 518.5,105.9 547.0,112.0" stroke-linecap="round" stroke-linejoin="round"/>
<circle cx="48.0" cy="58.7" r="3" fill="#3b82f6" stroke="white" stroke-width="1"/>
<text x="48.0" y="50.7" font-size="9" fill="#3b82f6" text-anchor="middle" font-family="system-ui, -apple-system, sans-serif" font-weight="600" opacity="0.9">v0.4.1</text>
<circle cx="91.5" cy="61.3" r="3" fill="#3b82f6" stroke="white" stroke-width="1"/>
<text x="91.5" y="53.3" font-size="9" fill="#3b82f6" text-anchor="middle" font-family="system-ui, -apple-system, sans-serif" font-weight="600" opacity="0.9">v0.4.1</text>
<circle cx="119.9" cy="61.2" r="3" fill="#3b82f6" stroke="white" stroke-width="1"/>
<text x="119.9" y="53.2" font-size="9" fill="#3b82f6" text-anchor="middle" font-family="system-ui, -apple-system, sans-serif" font-weight="600" opacity="0.9">v0.5.0</text>
<circle cx="148.4" cy="59.9" r="3" fill="#3b82f6" stroke="white" stroke-width="1"/>
<text x="148.4" y="51.9" font-size="9" fill="#3b82f6" text-anchor="middle" font-family="system-ui, -apple-system, sans-serif" font-weight="600" opacity="0.9">v0.5.0</text>
<circle cx="176.9" cy="29.5" r="3" fill="#3b82f6" stroke="white" stroke-width="1"/>
<text x="176.9" y="21.5" font-size="9" fill="#3b82f6" text-anchor="middle" font-family="system-ui, -apple-system, sans-serif" font-weight="600" opacity="0.9">v0.6.0</text>
<circle cx="205.4" cy="64.9" r="3" fill="#3b82f6" stroke="white" stroke-width="1"/>
<text x="205.4" y="56.9" font-size="9" fill="#3b82f6" text-anchor="middle" font-family="system-ui, -apple-system, sans-serif" font-weight="600" opacity="0.9">v0.6.1</text>
<circle cx="233.8" cy="64.5" r="3" fill="#3b82f6" stroke="white" stroke-width="1"/>
<text x="233.8" y="56.5" font-size="9" fill="#3b82f6" text-anchor="middle" font-family="system-ui, -apple-system, sans-serif" font-weight="600" opacity="0.9">v0.7.0</text>
<circle cx="262.3" cy="71.3" r="3" fill="#3b82f6" stroke="white" stroke-width="1"/>
<text x="262.3" y="63.3" font-size="9" fill="#3b82f6" text-anchor="middle" font-family="system-ui, -apple-system, sans-serif" font-weight="600" opacity="0.9">v0.7.0</text>
<circle cx="290.8" cy="23.0" r="3" fill="#3b82f6" stroke="white" stroke-width="1"/>
<text x="290.8" y="17.0" font-size="9" fill="#3b82f6" text-anchor="middle" font-family="system-ui, -apple-system, sans-serif" font-weight="600" opacity="0.9">v0.7.0 (73.77M ops/s)</text>
<circle cx="319.2" cy="65.1" r="3" fill="#3b82f6" stroke="white" stroke-width="1"/>
<text x="319.2" y="57.1" font-size="9" fill="#3b82f6" text-anchor="middle" font-family="system-ui, -apple-system, sans-serif" font-weight="600" opacity="0.9">v0.8.0</text>
<circle cx="347.7" cy="68.6" r="3" fill="#3b82f6" stroke="white" stroke-width="1"/>
<text x="347.7" y="60.6" font-size="9" fill="#3b82f6" text-anchor="middle" font-family="system-ui, -apple-system, sans-serif" font-weight="600" opacity="0.9">v0.8.0</text>
<circle cx="376.2" cy="65.6" r="3" fill="#3b82f6" stroke="white" stroke-width="1"/>
<text x="376.2" y="57.6" font-size="9" fill="#3b82f6" text-anchor="middle" font-family="system-ui, -apple-system, sans-serif" font-weight="600" opacity="0.9">v0.8.0</text>
<circle cx="404.6" cy="64.8" r="3" fill="#3b82f6" stroke="white" stroke-width="1"/>
<text x="404.6" y="56.8" font-size="9" fill="#3b82f6" text-anchor="middle" font-family="system-ui, -apple-system, sans-serif" font-weight="600" opacity="0.9">v0.8.0</text>
<circle cx="433.1" cy="108.3" r="3" fill="#3b82f6" stroke="white" stroke-width="1"/>
<text x="433.1" y="100.3" font-size="9" fill="#3b82f6" text-anchor="middle" font-family="system-ui, -apple-system, sans-serif" font-weight="600" opacity="0.9">v0.8.0</text>
<circle cx="461.6" cy="106.1" r="3" fill="#3b82f6" stroke="white" stroke-width="1"/>
<text x="461.6" y="98.1" font-size="9" fill="#3b82f6" text-anchor="middle" font-family="system-ui, -apple-system, sans-serif" font-weight="600" opacity="0.9">v0.8.0</text>
<circle cx="490.1" cy="109.3" r="3" fill="#3b82f6" stroke="white" stroke-width="1"/>
<text x="490.1" y="101.3" font-size="9" fill="#3b82f6" text-anchor="middle" font-family="system-ui, -apple-system, sans-serif" font-weight="600" opacity="0.9">v0.9.0</text>
<circle cx="518.5" cy="105.9" r="3" fill="#3b82f6" stroke="white" stroke-width="1"/>
<text x="518.5" y="97.9" font-size="9" fill="#3b82f6" text-anchor="middle" font-family="system-ui, -apple-system, sans-serif" font-weight="600" opacity="0.9">v0.9.0</text>
<circle cx="547.0" cy="112.0" r="3" fill="#3b82f6" stroke="white" stroke-width="1"/>
<text x="547.0" y="104.0" font-size="9" fill="#3b82f6" text-anchor="middle" font-family="system-ui, -apple-system, sans-serif" font-weight="600" opacity="0.9">v0.10.0 (39.90M ops/s)</text>
</svg>