<svg width="755" height="120" viewBox="0 0 755 120" xmlns="http://www.w3.org/2000/svg">
<rect width="755" height="120" fill="transparent"/>
<line x1="63" y1="67.5" x2="547" y2="67.5" stroke="currentColor" stroke-width="0.5" opacity="0.2" stroke-dasharray="2,2"/>
<polyline fill="none" stroke="#3b82f6" stroke-width="2" points="48.0,76.8 100.2,76.8 137.5,76.8 174.7,76.8 211.9,46.1 249.2,45.5 286.4,44.9 323.6,42.9 360.8,23.0 398.1,39.1 435.3,39.3 472.5,44.4 509.8,42.3 547.0,112.0" stroke-linecap="round" stroke-linejoin="round"/>
<circle cx="48.0" cy="76.8" r="3" fill="#3b82f6" stroke="white" stroke-width="1"/>
<text x="48.0" y="68.8" font-size="9" fill="#3b82f6" text-anchor="middle" font-family="system-ui, -apple-system, sans-serif" font-weight="600" opacity="0.9">v0.4.1</text>
<circle cx="100.2" cy="76.8" r="3" fill="#3b82f6" stroke="white" stroke-width="1"/>
<text x="100.2" y="68.8" font-size="9" fill="#3b82f6" text-anchor="middle" font-family="system-ui, -apple-system, sans-serif" font-weight="600" opacity="0.9">v0.4.1</text>
<circle cx="137.5" cy="76.8" r="3" fill="#3b82f6" stroke="white" stroke-width="1"/>
<text x="137.5" y="68.8" font-size="9" fill="#3b82f6" text-anchor="middle" font-family="system-ui, -apple-system, sans-serif" font-weight="600" opacity="0.9">v0.5.0</text>
<circle cx="174.7" cy="76.8" r="3" fill="#3b82f6" stroke="white" stroke-width="1"/>
<text x="174.7" y="68.8" font-size="9" fill="#3b82f6" text-anchor="middle" font-family="system-ui, -apple-system, sans-serif" font-weight="600" opacity="0.9">v0.5.0</text>
<circle cx="211.9" cy="46.1" r="3" fill="#3b82f6" stroke="white" stroke-width="1"/>
<text x="211.9" y="38.1" font-size="9" fill="#3b82f6" text-anchor="middle" font-family="system-ui, -apple-system, sans-serif" font-weight="600" opacity="0.9">v0.6.0</text>
<circle cx="249.2" cy="45.5" r="3" fill="#3b82f6" stroke="white" stroke-width="1"/>
<text x="249.2" y="37.5" font-size="9" fill="#3b82f6" text-anchor="middle" font-family="system-ui, -apple-system, sans-serif" font-weight="600" opacity="0.9">v0.6.1</text>
<circle cx="286.4" cy="44.9" r="3" fill="#3b82f6" stroke="white" stroke-width="1"/>
<text x="286.4" y="36.9" font-size="9" fill="#3b82f6" text-anchor="middle" font-family="system-ui, -apple-system, sans-serif" font-weight="600" opacity="0.9">v0.7.0</text>
<circle cx="323.6" cy="42.9" r="3" fill="#3b82f6" stroke="white" stroke-width="1"/>
<text x="323.6" y="34.9" font-size="9" fill="#3b82f6" text-anchor="middle" font-family="system-ui, -apple-system, sans-serif" font-weight="600" opacity="0.9">v0.7.0</text>
<circle cx="360.8" cy="23.0" r="3" fill="#3b82f6" stroke="white" stroke-width="1"/>
<text x="360.8" y="17.0" font-size="9" fill="#3b82f6" text-anchor="middle" font-family="system-ui, -apple-system, sans-serif" font-weight="600" opacity="0.9">v0.7.0 (363.88M ops/s)</text>
<circle cx="398.1" cy="39.1" r="3" fill="#3b82f6" stroke="white" stroke-width="1"/>
<text x="398.1" y="31.1" font-size="9" fill="#3b82f6" text-anchor="middle" font-family="system-ui, -apple-system, sans-serif" font-weight="600" opacity="0.9">v0.8.0</text>
<circle cx="435.3" cy="39.3" r="3" fill="#3b82f6" stroke="white" stroke-width="1"/>
<text x="435.3" y="31.3" font-size="9" fill="#3b82f6" text-anchor="middle" font-family="system-ui, -apple-system, sans-serif" font-weight="600" opacity="0.9">v0.8.0</text>
<circle cx="472.5" cy="44.4" r="3" fill="#3b82f6" stroke="white" stroke-width="1"/>
<text x="472.5" y="36.4" font-size="9" fill="#3b82f6" text-anchor="middle" font-family="system-ui, -apple-system, sans-serif" font-weight="600" opacity="0.9">v0.8.0</text>
<circle cx="509.8" cy="42.3" r="3" fill="#3b82f6" stroke="white" stroke-width="1"/>
<text x="509.8" y="34.3" font-size="9" fill="#3b82f6" text-anchor="middle" font-family="system-ui, -apple-system, sans-serif" font-weight="600" opacity="0.9">v0.8.0</text>
<circle cx="547.0" cy="112.0" r="3" fill="#3b82f6" stroke="white" stroke-width="1"/>
<text x="547.0" y="104.0" font-size="9" fill="#3b82f6" text-anchor="middle" font-family="system-ui, -apple-system, sans-serif" font-weight="600" opacity="0.9">v0.8.0 (27.60M ops/s)</text>
</svg>