<svg width="755" height="120" viewBox="0 0 755 120" xmlns="http://www.w3.org/2000/svg">
<rect width="755" height="120" fill="transparent"/>
<line x1="63" y1="67.5" x2="547" y2="67.5" stroke="currentColor" stroke-width="0.5" opacity="0.2" stroke-dasharray="2,2"/>
<polyline fill="none" stroke="#3b82f6" stroke-width="2" points="48.0,73.1 97.6,66.1 132.1,68.9 166.7,66.1 201.3,36.5 235.9,45.2 270.4,45.2 305.0,40.1 339.6,23.0 374.1,40.1 408.7,40.3 443.3,45.2 477.9,38.1 512.4,110.0 547.0,112.0" stroke-linecap="round" stroke-linejoin="round"/>
<circle cx="48.0" cy="73.1" r="3" fill="#3b82f6" stroke="white" stroke-width="1"/>
<text x="48.0" y="65.1" font-size="9" fill="#3b82f6" text-anchor="middle" font-family="system-ui, -apple-system, sans-serif" font-weight="600" opacity="0.9">v0.4.1</text>
<circle cx="97.6" cy="66.1" r="3" fill="#3b82f6" stroke="white" stroke-width="1"/>
<text x="97.6" y="58.1" font-size="9" fill="#3b82f6" text-anchor="middle" font-family="system-ui, -apple-system, sans-serif" font-weight="600" opacity="0.9">v0.4.1</text>
<circle cx="132.1" cy="68.9" r="3" fill="#3b82f6" stroke="white" stroke-width="1"/>
<text x="132.1" y="60.9" font-size="9" fill="#3b82f6" text-anchor="middle" font-family="system-ui, -apple-system, sans-serif" font-weight="600" opacity="0.9">v0.5.0</text>
<circle cx="166.7" cy="66.1" r="3" fill="#3b82f6" stroke="white" stroke-width="1"/>
<text x="166.7" y="58.1" font-size="9" fill="#3b82f6" text-anchor="middle" font-family="system-ui, -apple-system, sans-serif" font-weight="600" opacity="0.9">v0.5.0</text>
<circle cx="201.3" cy="36.5" r="3" fill="#3b82f6" stroke="white" stroke-width="1"/>
<text x="201.3" y="28.5" font-size="9" fill="#3b82f6" text-anchor="middle" font-family="system-ui, -apple-system, sans-serif" font-weight="600" opacity="0.9">v0.6.0</text>
<circle cx="235.9" cy="45.2" r="3" fill="#3b82f6" stroke="white" stroke-width="1"/>
<text x="235.9" y="37.2" font-size="9" fill="#3b82f6" text-anchor="middle" font-family="system-ui, -apple-system, sans-serif" font-weight="600" opacity="0.9">v0.6.1</text>
<circle cx="270.4" cy="45.2" r="3" fill="#3b82f6" stroke="white" stroke-width="1"/>
<text x="270.4" y="37.2" font-size="9" fill="#3b82f6" text-anchor="middle" font-family="system-ui, -apple-system, sans-serif" font-weight="600" opacity="0.9">v0.7.0</text>
<circle cx="305.0" cy="40.1" r="3" fill="#3b82f6" stroke="white" stroke-width="1"/>
<text x="305.0" y="32.1" font-size="9" fill="#3b82f6" text-anchor="middle" font-family="system-ui, -apple-system, sans-serif" font-weight="600" opacity="0.9">v0.7.0</text>
<circle cx="339.6" cy="23.0" r="3" fill="#3b82f6" stroke="white" stroke-width="1"/>
<text x="339.6" y="17.0" font-size="9" fill="#3b82f6" text-anchor="middle" font-family="system-ui, -apple-system, sans-serif" font-weight="600" opacity="0.9">v0.7.0 (809.24M ops/s)</text>
<circle cx="374.1" cy="40.1" r="3" fill="#3b82f6" stroke="white" stroke-width="1"/>
<text x="374.1" y="32.1" font-size="9" fill="#3b82f6" text-anchor="middle" font-family="system-ui, -apple-system, sans-serif" font-weight="600" opacity="0.9">v0.8.0</text>
<circle cx="408.7" cy="40.3" r="3" fill="#3b82f6" stroke="white" stroke-width="1"/>
<text x="408.7" y="32.3" font-size="9" fill="#3b82f6" text-anchor="middle" font-family="system-ui, -apple-system, sans-serif" font-weight="600" opacity="0.9">v0.8.0</text>
<circle cx="443.3" cy="45.2" r="3" fill="#3b82f6" stroke="white" stroke-width="1"/>
<text x="443.3" y="37.2" font-size="9" fill="#3b82f6" text-anchor="middle" font-family="system-ui, -apple-system, sans-serif" font-weight="600" opacity="0.9">v0.8.0</text>
<circle cx="477.9" cy="38.1" r="3" fill="#3b82f6" stroke="white" stroke-width="1"/>
<text x="477.9" y="30.1" font-size="9" fill="#3b82f6" text-anchor="middle" font-family="system-ui, -apple-system, sans-serif" font-weight="600" opacity="0.9">v0.8.0</text>
<circle cx="512.4" cy="110.0" r="3" fill="#3b82f6" stroke="white" stroke-width="1"/>
<text x="512.4" y="102.0" font-size="9" fill="#3b82f6" text-anchor="middle" font-family="system-ui, -apple-system, sans-serif" font-weight="600" opacity="0.9">v0.8.0</text>
<circle cx="547.0" cy="112.0" r="3" fill="#3b82f6" stroke="white" stroke-width="1"/>
<text x="547.0" y="104.0" font-size="9" fill="#3b82f6" text-anchor="middle" font-family="system-ui, -apple-system, sans-serif" font-weight="600" opacity="0.9">v0.8.0 (85.95M ops/s)</text>
</svg>