<svg width="615" height="120" viewBox="0 0 615 120" xmlns="http://www.w3.org/2000/svg">
<rect width="615" height="120" fill="transparent"/>
<line x1="63" y1="67.5" x2="547" y2="67.5" stroke="currentColor" stroke-width="0.5" opacity="0.2" stroke-dasharray="2,2"/>
<polyline fill="none" stroke="#3b82f6" stroke-width="2" points="48.0,109.8 103.3,105.9 143.7,112.0 184.0,105.9 224.3,48.9 264.7,65.2 305.0,65.7 345.3,55.9 385.7,23.0 426.0,57.7 466.3,56.9 506.7,66.3 547.0,51.4" stroke-linecap="round" stroke-linejoin="round"/>
<circle cx="48.0" cy="109.8" r="3" fill="#3b82f6" stroke="white" stroke-width="1"/>
<text x="48.0" y="101.8" font-size="9" fill="#3b82f6" text-anchor="middle" font-family="system-ui, -apple-system, sans-serif" font-weight="600" opacity="0.9">v0.4.1</text>
<circle cx="103.3" cy="105.9" r="3" fill="#3b82f6" stroke="white" stroke-width="1"/>
<text x="103.3" y="97.9" font-size="9" fill="#3b82f6" text-anchor="middle" font-family="system-ui, -apple-system, sans-serif" font-weight="600" opacity="0.9">v0.4.1</text>
<circle cx="143.7" cy="112.0" r="3" fill="#3b82f6" stroke="white" stroke-width="1"/>
<text x="143.7" y="104.0" font-size="9" fill="#3b82f6" text-anchor="middle" font-family="system-ui, -apple-system, sans-serif" font-weight="600" opacity="0.9">v0.5.0 (433.25M ops/s)</text>
<circle cx="184.0" cy="105.9" r="3" fill="#3b82f6" stroke="white" stroke-width="1"/>
<text x="184.0" y="97.9" font-size="9" fill="#3b82f6" text-anchor="middle" font-family="system-ui, -apple-system, sans-serif" font-weight="600" opacity="0.9">v0.5.0</text>
<circle cx="224.3" cy="48.9" r="3" fill="#3b82f6" stroke="white" stroke-width="1"/>
<text x="224.3" y="40.9" font-size="9" fill="#3b82f6" text-anchor="middle" font-family="system-ui, -apple-system, sans-serif" font-weight="600" opacity="0.9">v0.6.0</text>
<circle cx="264.7" cy="65.2" r="3" fill="#3b82f6" stroke="white" stroke-width="1"/>
<text x="264.7" y="57.2" font-size="9" fill="#3b82f6" text-anchor="middle" font-family="system-ui, -apple-system, sans-serif" font-weight="600" opacity="0.9">v0.6.1</text>
<circle cx="305.0" cy="65.7" r="3" fill="#3b82f6" stroke="white" stroke-width="1"/>
<text x="305.0" y="57.7" font-size="9" fill="#3b82f6" text-anchor="middle" font-family="system-ui, -apple-system, sans-serif" font-weight="600" opacity="0.9">v0.7.0</text>
<circle cx="345.3" cy="55.9" r="3" fill="#3b82f6" stroke="white" stroke-width="1"/>
<text x="345.3" y="47.9" font-size="9" fill="#3b82f6" text-anchor="middle" font-family="system-ui, -apple-system, sans-serif" font-weight="600" opacity="0.9">v0.7.0</text>
<circle cx="385.7" cy="23.0" r="3" fill="#3b82f6" stroke="white" stroke-width="1"/>
<text x="385.7" y="17.0" font-size="9" fill="#3b82f6" text-anchor="middle" font-family="system-ui, -apple-system, sans-serif" font-weight="600" opacity="0.9">v0.7.0 (808.49M ops/s)</text>
<circle cx="426.0" cy="57.7" r="3" fill="#3b82f6" stroke="white" stroke-width="1"/>
<text x="426.0" y="49.7" font-size="9" fill="#3b82f6" text-anchor="middle" font-family="system-ui, -apple-system, sans-serif" font-weight="600" opacity="0.9">v0.8.0</text>
<circle cx="466.3" cy="56.9" r="3" fill="#3b82f6" stroke="white" stroke-width="1"/>
<text x="466.3" y="48.9" font-size="9" fill="#3b82f6" text-anchor="middle" font-family="system-ui, -apple-system, sans-serif" font-weight="600" opacity="0.9">v0.8.0</text>
<circle cx="506.7" cy="66.3" r="3" fill="#3b82f6" stroke="white" stroke-width="1"/>
<text x="506.7" y="58.3" font-size="9" fill="#3b82f6" text-anchor="middle" font-family="system-ui, -apple-system, sans-serif" font-weight="600" opacity="0.9">v0.8.0</text>
<circle cx="547.0" cy="51.4" r="3" fill="#3b82f6" stroke="white" stroke-width="1"/>
<text x="547.0" y="43.4" font-size="9" fill="#3b82f6" text-anchor="middle" font-family="system-ui, -apple-system, sans-serif" font-weight="600" opacity="0.9">v0.8.0</text>
</svg>