<svg width="615" height="120" viewBox="0 0 615 120" xmlns="http://www.w3.org/2000/svg">
<rect width="615" height="120" fill="transparent"/>
<line x1="63" y1="67.5" x2="547" y2="67.5" stroke="currentColor" stroke-width="0.5" opacity="0.2" stroke-dasharray="2,2"/>
<polyline fill="none" stroke="#3b82f6" stroke-width="2" points="48.0,82.3 91.5,90.3 119.9,99.8 148.4,82.6 176.9,76.1 205.4,76.4 233.8,75.1 262.3,112.0 290.8,23.0 319.2,93.2 347.7,82.6 376.2,78.6 404.6,83.2 433.1,85.7 461.6,75.5 490.1,83.0 518.5,75.9 547.0,86.7" stroke-linecap="round" stroke-linejoin="round"/>
<circle cx="48.0" cy="82.3" r="3" fill="#3b82f6" stroke="white" stroke-width="1"/>
<text x="48.0" y="74.3" font-size="9" fill="#3b82f6" text-anchor="middle" font-family="system-ui, -apple-system, sans-serif" font-weight="600" opacity="0.9">v0.4.1</text>
<circle cx="91.5" cy="90.3" r="3" fill="#3b82f6" stroke="white" stroke-width="1"/>
<text x="91.5" y="82.3" font-size="9" fill="#3b82f6" text-anchor="middle" font-family="system-ui, -apple-system, sans-serif" font-weight="600" opacity="0.9">v0.4.1</text>
<circle cx="119.9" cy="99.8" r="3" fill="#3b82f6" stroke="white" stroke-width="1"/>
<text x="119.9" y="91.8" font-size="9" fill="#3b82f6" text-anchor="middle" font-family="system-ui, -apple-system, sans-serif" font-weight="600" opacity="0.9">v0.5.0</text>
<circle cx="148.4" cy="82.6" r="3" fill="#3b82f6" stroke="white" stroke-width="1"/>
<text x="148.4" y="74.6" font-size="9" fill="#3b82f6" text-anchor="middle" font-family="system-ui, -apple-system, sans-serif" font-weight="600" opacity="0.9">v0.5.0</text>
<circle cx="176.9" cy="76.1" r="3" fill="#3b82f6" stroke="white" stroke-width="1"/>
<text x="176.9" y="68.1" font-size="9" fill="#3b82f6" text-anchor="middle" font-family="system-ui, -apple-system, sans-serif" font-weight="600" opacity="0.9">v0.6.0</text>
<circle cx="205.4" cy="76.4" r="3" fill="#3b82f6" stroke="white" stroke-width="1"/>
<text x="205.4" y="68.4" font-size="9" fill="#3b82f6" text-anchor="middle" font-family="system-ui, -apple-system, sans-serif" font-weight="600" opacity="0.9">v0.6.1</text>
<circle cx="233.8" cy="75.1" r="3" fill="#3b82f6" stroke="white" stroke-width="1"/>
<text x="233.8" y="67.1" font-size="9" fill="#3b82f6" text-anchor="middle" font-family="system-ui, -apple-system, sans-serif" font-weight="600" opacity="0.9">v0.7.0</text>
<circle cx="262.3" cy="112.0" r="3" fill="#3b82f6" stroke="white" stroke-width="1"/>
<text x="262.3" y="104.0" font-size="9" fill="#3b82f6" text-anchor="middle" font-family="system-ui, -apple-system, sans-serif" font-weight="600" opacity="0.9">v0.7.0 (68.71M ops/s)</text>
<circle cx="290.8" cy="23.0" r="3" fill="#3b82f6" stroke="white" stroke-width="1"/>
<text x="290.8" y="17.0" font-size="9" fill="#3b82f6" text-anchor="middle" font-family="system-ui, -apple-system, sans-serif" font-weight="600" opacity="0.9">v0.7.0 (118.74M ops/s)</text>
<circle cx="319.2" cy="93.2" r="3" fill="#3b82f6" stroke="white" stroke-width="1"/>
<text x="319.2" y="85.2" font-size="9" fill="#3b82f6" text-anchor="middle" font-family="system-ui, -apple-system, sans-serif" font-weight="600" opacity="0.9">v0.8.0</text>
<circle cx="347.7" cy="82.6" r="3" fill="#3b82f6" stroke="white" stroke-width="1"/>
<text x="347.7" y="74.6" font-size="9" fill="#3b82f6" text-anchor="middle" font-family="system-ui, -apple-system, sans-serif" font-weight="600" opacity="0.9">v0.8.0</text>
<circle cx="376.2" cy="78.6" r="3" fill="#3b82f6" stroke="white" stroke-width="1"/>
<text x="376.2" y="70.6" font-size="9" fill="#3b82f6" text-anchor="middle" font-family="system-ui, -apple-system, sans-serif" font-weight="600" opacity="0.9">v0.8.0</text>
<circle cx="404.6" cy="83.2" r="3" fill="#3b82f6" stroke="white" stroke-width="1"/>
<text x="404.6" y="75.2" font-size="9" fill="#3b82f6" text-anchor="middle" font-family="system-ui, -apple-system, sans-serif" font-weight="600" opacity="0.9">v0.8.0</text>
<circle cx="433.1" cy="85.7" r="3" fill="#3b82f6" stroke="white" stroke-width="1"/>
<text x="433.1" y="77.7" font-size="9" fill="#3b82f6" text-anchor="middle" font-family="system-ui, -apple-system, sans-serif" font-weight="600" opacity="0.9">v0.8.0</text>
<circle cx="461.6" cy="75.5" r="3" fill="#3b82f6" stroke="white" stroke-width="1"/>
<text x="461.6" y="67.5" font-size="9" fill="#3b82f6" text-anchor="middle" font-family="system-ui, -apple-system, sans-serif" font-weight="600" opacity="0.9">v0.8.0</text>
<circle cx="490.1" cy="83.0" r="3" fill="#3b82f6" stroke="white" stroke-width="1"/>
<text x="490.1" y="75.0" font-size="9" fill="#3b82f6" text-anchor="middle" font-family="system-ui, -apple-system, sans-serif" font-weight="600" opacity="0.9">v0.9.0</text>
<circle cx="518.5" cy="75.9" r="3" fill="#3b82f6" stroke="white" stroke-width="1"/>
<text x="518.5" y="67.9" font-size="9" fill="#3b82f6" text-anchor="middle" font-family="system-ui, -apple-system, sans-serif" font-weight="600" opacity="0.9">v0.9.0</text>
<circle cx="547.0" cy="86.7" r="3" fill="#3b82f6" stroke="white" stroke-width="1"/>
<text x="547.0" y="78.7" font-size="9" fill="#3b82f6" text-anchor="middle" font-family="system-ui, -apple-system, sans-serif" font-weight="600" opacity="0.9">v0.10.0</text>
</svg>