<svg width="755" height="120" viewBox="0 0 755 120" xmlns="http://www.w3.org/2000/svg">
<rect width="755" height="120" fill="transparent"/>
<line x1="63" y1="67.5" x2="547" y2="67.5" stroke="currentColor" stroke-width="0.5" opacity="0.2" stroke-dasharray="2,2"/>
<polyline fill="none" stroke="#3b82f6" stroke-width="2" points="48.0,76.8 93.2,76.8 123.5,76.7 153.8,76.8 184.0,46.0 214.2,45.5 244.5,44.9 274.8,42.8 305.0,23.0 335.2,39.1 365.5,39.2 395.8,44.3 426.0,42.3 456.2,111.9 486.5,112.0 516.8,110.9 547.0,112.0" stroke-linecap="round" stroke-linejoin="round"/>
<circle cx="48.0" cy="76.8" r="3" fill="#3b82f6" stroke="white" stroke-width="1"/>
<text x="48.0" y="68.8" font-size="9" fill="#3b82f6" text-anchor="middle" font-family="system-ui, -apple-system, sans-serif" font-weight="600" opacity="0.9">v0.4.1</text>
<circle cx="93.2" cy="76.8" r="3" fill="#3b82f6" stroke="white" stroke-width="1"/>
<text x="93.2" y="68.8" font-size="9" fill="#3b82f6" text-anchor="middle" font-family="system-ui, -apple-system, sans-serif" font-weight="600" opacity="0.9">v0.4.1</text>
<circle cx="123.5" cy="76.7" r="3" fill="#3b82f6" stroke="white" stroke-width="1"/>
<text x="123.5" y="68.7" font-size="9" fill="#3b82f6" text-anchor="middle" font-family="system-ui, -apple-system, sans-serif" font-weight="600" opacity="0.9">v0.5.0</text>
<circle cx="153.8" cy="76.8" r="3" fill="#3b82f6" stroke="white" stroke-width="1"/>
<text x="153.8" y="68.8" font-size="9" fill="#3b82f6" text-anchor="middle" font-family="system-ui, -apple-system, sans-serif" font-weight="600" opacity="0.9">v0.5.0</text>
<circle cx="184.0" cy="46.0" r="3" fill="#3b82f6" stroke="white" stroke-width="1"/>
<text x="184.0" y="38.0" font-size="9" fill="#3b82f6" text-anchor="middle" font-family="system-ui, -apple-system, sans-serif" font-weight="600" opacity="0.9">v0.6.0</text>
<circle cx="214.2" cy="45.5" r="3" fill="#3b82f6" stroke="white" stroke-width="1"/>
<text x="214.2" y="37.5" font-size="9" fill="#3b82f6" text-anchor="middle" font-family="system-ui, -apple-system, sans-serif" font-weight="600" opacity="0.9">v0.6.1</text>
<circle cx="244.5" cy="44.9" r="3" fill="#3b82f6" stroke="white" stroke-width="1"/>
<text x="244.5" y="36.9" font-size="9" fill="#3b82f6" text-anchor="middle" font-family="system-ui, -apple-system, sans-serif" font-weight="600" opacity="0.9">v0.7.0</text>
<circle cx="274.8" cy="42.8" r="3" fill="#3b82f6" stroke="white" stroke-width="1"/>
<text x="274.8" y="34.8" font-size="9" fill="#3b82f6" text-anchor="middle" font-family="system-ui, -apple-system, sans-serif" font-weight="600" opacity="0.9">v0.7.0</text>
<circle cx="305.0" cy="23.0" r="3" fill="#3b82f6" stroke="white" stroke-width="1"/>
<text x="305.0" y="17.0" font-size="9" fill="#3b82f6" text-anchor="middle" font-family="system-ui, -apple-system, sans-serif" font-weight="600" opacity="0.9">v0.7.0 (363.88M ops/s)</text>
<circle cx="335.2" cy="39.1" r="3" fill="#3b82f6" stroke="white" stroke-width="1"/>
<text x="335.2" y="31.1" font-size="9" fill="#3b82f6" text-anchor="middle" font-family="system-ui, -apple-system, sans-serif" font-weight="600" opacity="0.9">v0.8.0</text>
<circle cx="365.5" cy="39.2" r="3" fill="#3b82f6" stroke="white" stroke-width="1"/>
<text x="365.5" y="31.2" font-size="9" fill="#3b82f6" text-anchor="middle" font-family="system-ui, -apple-system, sans-serif" font-weight="600" opacity="0.9">v0.8.0</text>
<circle cx="395.8" cy="44.3" r="3" fill="#3b82f6" stroke="white" stroke-width="1"/>
<text x="395.8" y="36.3" font-size="9" fill="#3b82f6" text-anchor="middle" font-family="system-ui, -apple-system, sans-serif" font-weight="600" opacity="0.9">v0.8.0</text>
<circle cx="426.0" cy="42.3" r="3" fill="#3b82f6" stroke="white" stroke-width="1"/>
<text x="426.0" y="34.3" font-size="9" fill="#3b82f6" text-anchor="middle" font-family="system-ui, -apple-system, sans-serif" font-weight="600" opacity="0.9">v0.8.0</text>
<circle cx="456.2" cy="111.9" r="3" fill="#3b82f6" stroke="white" stroke-width="1"/>
<text x="456.2" y="103.9" font-size="9" fill="#3b82f6" text-anchor="middle" font-family="system-ui, -apple-system, sans-serif" font-weight="600" opacity="0.9">v0.8.0</text>
<circle cx="486.5" cy="112.0" r="3" fill="#3b82f6" stroke="white" stroke-width="1"/>
<text x="486.5" y="104.0" font-size="9" fill="#3b82f6" text-anchor="middle" font-family="system-ui, -apple-system, sans-serif" font-weight="600" opacity="0.9">v0.8.0</text>
<circle cx="516.8" cy="110.9" r="3" fill="#3b82f6" stroke="white" stroke-width="1"/>
<text x="516.8" y="102.9" font-size="9" fill="#3b82f6" text-anchor="middle" font-family="system-ui, -apple-system, sans-serif" font-weight="600" opacity="0.9">v0.9.0</text>
<circle cx="547.0" cy="112.0" r="3" fill="#3b82f6" stroke="white" stroke-width="1"/>
<text x="547.0" y="104.0" font-size="9" fill="#3b82f6" text-anchor="middle" font-family="system-ui, -apple-system, sans-serif" font-weight="600" opacity="0.9">v0.9.0 (27.26M ops/s)</text>
</svg>