<svg width="755" height="120" viewBox="0 0 755 120" xmlns="http://www.w3.org/2000/svg">
<rect width="755" height="120" fill="transparent"/>
<line x1="63" y1="67.5" x2="547" y2="67.5" stroke="currentColor" stroke-width="0.5" opacity="0.2" stroke-dasharray="2,2"/>
<polyline fill="none" stroke="#3b82f6" stroke-width="2" points="48.0,60.7 93.2,62.1 123.5,61.6 153.8,59.7 184.0,26.3 214.2,65.7 244.5,74.3 274.8,70.4 305.0,23.0 335.2,65.7 365.5,66.6 395.8,66.1 426.0,63.4 456.2,111.9 486.5,109.5 516.8,111.4 547.0,112.0" stroke-linecap="round" stroke-linejoin="round"/>
<circle cx="48.0" cy="60.7" r="3" fill="#3b82f6" stroke="white" stroke-width="1"/>
<text x="48.0" y="52.7" font-size="9" fill="#3b82f6" text-anchor="middle" font-family="system-ui, -apple-system, sans-serif" font-weight="600" opacity="0.9">v0.4.1</text>
<circle cx="93.2" cy="62.1" r="3" fill="#3b82f6" stroke="white" stroke-width="1"/>
<text x="93.2" y="54.1" font-size="9" fill="#3b82f6" text-anchor="middle" font-family="system-ui, -apple-system, sans-serif" font-weight="600" opacity="0.9">v0.4.1</text>
<circle cx="123.5" cy="61.6" r="3" fill="#3b82f6" stroke="white" stroke-width="1"/>
<text x="123.5" y="53.6" font-size="9" fill="#3b82f6" text-anchor="middle" font-family="system-ui, -apple-system, sans-serif" font-weight="600" opacity="0.9">v0.5.0</text>
<circle cx="153.8" cy="59.7" r="3" fill="#3b82f6" stroke="white" stroke-width="1"/>
<text x="153.8" y="51.7" font-size="9" fill="#3b82f6" text-anchor="middle" font-family="system-ui, -apple-system, sans-serif" font-weight="600" opacity="0.9">v0.5.0</text>
<circle cx="184.0" cy="26.3" r="3" fill="#3b82f6" stroke="white" stroke-width="1"/>
<text x="184.0" y="18.3" font-size="9" fill="#3b82f6" text-anchor="middle" font-family="system-ui, -apple-system, sans-serif" font-weight="600" opacity="0.9">v0.6.0</text>
<circle cx="214.2" cy="65.7" r="3" fill="#3b82f6" stroke="white" stroke-width="1"/>
<text x="214.2" y="57.7" font-size="9" fill="#3b82f6" text-anchor="middle" font-family="system-ui, -apple-system, sans-serif" font-weight="600" opacity="0.9">v0.6.1</text>
<circle cx="244.5" cy="74.3" r="3" fill="#3b82f6" stroke="white" stroke-width="1"/>
<text x="244.5" y="66.3" font-size="9" fill="#3b82f6" text-anchor="middle" font-family="system-ui, -apple-system, sans-serif" font-weight="600" opacity="0.9">v0.7.0</text>
<circle cx="274.8" cy="70.4" r="3" fill="#3b82f6" stroke="white" stroke-width="1"/>
<text x="274.8" y="62.4" font-size="9" fill="#3b82f6" text-anchor="middle" font-family="system-ui, -apple-system, sans-serif" font-weight="600" opacity="0.9">v0.7.0</text>
<circle cx="305.0" cy="23.0" r="3" fill="#3b82f6" stroke="white" stroke-width="1"/>
<text x="305.0" y="17.0" font-size="9" fill="#3b82f6" text-anchor="middle" font-family="system-ui, -apple-system, sans-serif" font-weight="600" opacity="0.9">v0.7.0 (73.32M ops/s)</text>
<circle cx="335.2" cy="65.7" r="3" fill="#3b82f6" stroke="white" stroke-width="1"/>
<text x="335.2" y="57.7" font-size="9" fill="#3b82f6" text-anchor="middle" font-family="system-ui, -apple-system, sans-serif" font-weight="600" opacity="0.9">v0.8.0</text>
<circle cx="365.5" cy="66.6" r="3" fill="#3b82f6" stroke="white" stroke-width="1"/>
<text x="365.5" y="58.6" font-size="9" fill="#3b82f6" text-anchor="middle" font-family="system-ui, -apple-system, sans-serif" font-weight="600" opacity="0.9">v0.8.0</text>
<circle cx="395.8" cy="66.1" r="3" fill="#3b82f6" stroke="white" stroke-width="1"/>
<text x="395.8" y="58.1" font-size="9" fill="#3b82f6" text-anchor="middle" font-family="system-ui, -apple-system, sans-serif" font-weight="600" opacity="0.9">v0.8.0</text>
<circle cx="426.0" cy="63.4" r="3" fill="#3b82f6" stroke="white" stroke-width="1"/>
<text x="426.0" y="55.4" font-size="9" fill="#3b82f6" text-anchor="middle" font-family="system-ui, -apple-system, sans-serif" font-weight="600" opacity="0.9">v0.8.0</text>
<circle cx="456.2" cy="111.9" r="3" fill="#3b82f6" stroke="white" stroke-width="1"/>
<text x="456.2" y="103.9" font-size="9" fill="#3b82f6" text-anchor="middle" font-family="system-ui, -apple-system, sans-serif" font-weight="600" opacity="0.9">v0.8.0</text>
<circle cx="486.5" cy="109.5" r="3" fill="#3b82f6" stroke="white" stroke-width="1"/>
<text x="486.5" y="101.5" font-size="9" fill="#3b82f6" text-anchor="middle" font-family="system-ui, -apple-system, sans-serif" font-weight="600" opacity="0.9">v0.8.0</text>
<circle cx="516.8" cy="111.4" r="3" fill="#3b82f6" stroke="white" stroke-width="1"/>
<text x="516.8" y="103.4" font-size="9" fill="#3b82f6" text-anchor="middle" font-family="system-ui, -apple-system, sans-serif" font-weight="600" opacity="0.9">v0.9.0</text>
<circle cx="547.0" cy="112.0" r="3" fill="#3b82f6" stroke="white" stroke-width="1"/>
<text x="547.0" y="104.0" font-size="9" fill="#3b82f6" text-anchor="middle" font-family="system-ui, -apple-system, sans-serif" font-weight="600" opacity="0.9">v0.9.0 (41.03M ops/s)</text>
</svg>