<svg width="615" height="120" viewBox="0 0 615 120" xmlns="http://www.w3.org/2000/svg">
<rect width="615" height="120" fill="transparent"/>
<line x1="63" y1="67.5" x2="547" y2="67.5" stroke="currentColor" stroke-width="0.5" opacity="0.2" stroke-dasharray="2,2"/>
<polyline fill="none" stroke="#3b82f6" stroke-width="2" points="48.0,79.5 100.2,83.5 137.5,82.2 174.7,82.1 211.9,47.8 249.2,112.0 286.4,102.7 323.6,75.9 360.8,23.0 398.1,79.8 435.3,80.8 472.5,105.0 509.8,95.7 547.0,76.6" stroke-linecap="round" stroke-linejoin="round"/>
<circle cx="48.0" cy="79.5" r="3" fill="#3b82f6" stroke="white" stroke-width="1"/>
<text x="48.0" y="71.5" font-size="9" fill="#3b82f6" text-anchor="middle" font-family="system-ui, -apple-system, sans-serif" font-weight="600" opacity="0.9">v0.4.1</text>
<circle cx="100.2" cy="83.5" r="3" fill="#3b82f6" stroke="white" stroke-width="1"/>
<text x="100.2" y="75.5" font-size="9" fill="#3b82f6" text-anchor="middle" font-family="system-ui, -apple-system, sans-serif" font-weight="600" opacity="0.9">v0.4.1</text>
<circle cx="137.5" cy="82.2" r="3" fill="#3b82f6" stroke="white" stroke-width="1"/>
<text x="137.5" y="74.2" font-size="9" fill="#3b82f6" text-anchor="middle" font-family="system-ui, -apple-system, sans-serif" font-weight="600" opacity="0.9">v0.5.0</text>
<circle cx="174.7" cy="82.1" r="3" fill="#3b82f6" stroke="white" stroke-width="1"/>
<text x="174.7" y="74.1" font-size="9" fill="#3b82f6" text-anchor="middle" font-family="system-ui, -apple-system, sans-serif" font-weight="600" opacity="0.9">v0.5.0</text>
<circle cx="211.9" cy="47.8" r="3" fill="#3b82f6" stroke="white" stroke-width="1"/>
<text x="211.9" y="39.8" font-size="9" fill="#3b82f6" text-anchor="middle" font-family="system-ui, -apple-system, sans-serif" font-weight="600" opacity="0.9">v0.6.0</text>
<circle cx="249.2" cy="112.0" r="3" fill="#3b82f6" stroke="white" stroke-width="1"/>
<text x="249.2" y="104.0" font-size="9" fill="#3b82f6" text-anchor="middle" font-family="system-ui, -apple-system, sans-serif" font-weight="600" opacity="0.9">v0.6.1 (11.34M ops/s)</text>
<circle cx="286.4" cy="102.7" r="3" fill="#3b82f6" stroke="white" stroke-width="1"/>
<text x="286.4" y="94.7" font-size="9" fill="#3b82f6" text-anchor="middle" font-family="system-ui, -apple-system, sans-serif" font-weight="600" opacity="0.9">v0.7.0</text>
<circle cx="323.6" cy="75.9" r="3" fill="#3b82f6" stroke="white" stroke-width="1"/>
<text x="323.6" y="67.9" font-size="9" fill="#3b82f6" text-anchor="middle" font-family="system-ui, -apple-system, sans-serif" font-weight="600" opacity="0.9">v0.7.0</text>
<circle cx="360.8" cy="23.0" r="3" fill="#3b82f6" stroke="white" stroke-width="1"/>
<text x="360.8" y="17.0" font-size="9" fill="#3b82f6" text-anchor="middle" font-family="system-ui, -apple-system, sans-serif" font-weight="600" opacity="0.9">v0.7.0 (14.81M ops/s)</text>
<circle cx="398.1" cy="79.8" r="3" fill="#3b82f6" stroke="white" stroke-width="1"/>
<text x="398.1" y="71.8" font-size="9" fill="#3b82f6" text-anchor="middle" font-family="system-ui, -apple-system, sans-serif" font-weight="600" opacity="0.9">v0.8.0</text>
<circle cx="435.3" cy="80.8" r="3" fill="#3b82f6" stroke="white" stroke-width="1"/>
<text x="435.3" y="72.8" font-size="9" fill="#3b82f6" text-anchor="middle" font-family="system-ui, -apple-system, sans-serif" font-weight="600" opacity="0.9">v0.8.0</text>
<circle cx="472.5" cy="105.0" r="3" fill="#3b82f6" stroke="white" stroke-width="1"/>
<text x="472.5" y="97.0" font-size="9" fill="#3b82f6" text-anchor="middle" font-family="system-ui, -apple-system, sans-serif" font-weight="600" opacity="0.9">v0.8.0</text>
<circle cx="509.8" cy="95.7" r="3" fill="#3b82f6" stroke="white" stroke-width="1"/>
<text x="509.8" y="87.7" font-size="9" fill="#3b82f6" text-anchor="middle" font-family="system-ui, -apple-system, sans-serif" font-weight="600" opacity="0.9">v0.8.0</text>
<circle cx="547.0" cy="76.6" r="3" fill="#3b82f6" stroke="white" stroke-width="1"/>
<text x="547.0" y="68.6" font-size="9" fill="#3b82f6" text-anchor="middle" font-family="system-ui, -apple-system, sans-serif" font-weight="600" opacity="0.9">v0.8.0</text>
</svg>