<svg width="615" height="120" viewBox="0 0 615 120" xmlns="http://www.w3.org/2000/svg">
<rect width="615" height="120" fill="transparent"/>
<line x1="63" y1="67.5" x2="547" y2="67.5" stroke="currentColor" stroke-width="0.5" opacity="0.2" stroke-dasharray="2,2"/>
<polyline fill="none" stroke="#3b82f6" stroke-width="2" points="48.0,62.4 93.2,64.5 123.5,62.2 153.8,62.0 184.0,31.3 214.2,66.3 244.5,68.4 274.8,71.4 305.0,23.0 335.2,66.1 365.5,67.2 395.8,67.7 426.0,65.8 456.2,111.9 486.5,109.4 516.8,112.0 547.0,109.5" stroke-linecap="round" stroke-linejoin="round"/>
<circle cx="48.0" cy="62.4" r="3" fill="#3b82f6" stroke="white" stroke-width="1"/>
<text x="48.0" y="54.4" font-size="9" fill="#3b82f6" text-anchor="middle" font-family="system-ui, -apple-system, sans-serif" font-weight="600" opacity="0.9">v0.4.1</text>
<circle cx="93.2" cy="64.5" r="3" fill="#3b82f6" stroke="white" stroke-width="1"/>
<text x="93.2" y="56.5" font-size="9" fill="#3b82f6" text-anchor="middle" font-family="system-ui, -apple-system, sans-serif" font-weight="600" opacity="0.9">v0.4.1</text>
<circle cx="123.5" cy="62.2" r="3" fill="#3b82f6" stroke="white" stroke-width="1"/>
<text x="123.5" y="54.2" font-size="9" fill="#3b82f6" text-anchor="middle" font-family="system-ui, -apple-system, sans-serif" font-weight="600" opacity="0.9">v0.5.0</text>
<circle cx="153.8" cy="62.0" r="3" fill="#3b82f6" stroke="white" stroke-width="1"/>
<text x="153.8" y="54.0" font-size="9" fill="#3b82f6" text-anchor="middle" font-family="system-ui, -apple-system, sans-serif" font-weight="600" opacity="0.9">v0.5.0</text>
<circle cx="184.0" cy="31.3" r="3" fill="#3b82f6" stroke="white" stroke-width="1"/>
<text x="184.0" y="23.3" font-size="9" fill="#3b82f6" text-anchor="middle" font-family="system-ui, -apple-system, sans-serif" font-weight="600" opacity="0.9">v0.6.0</text>
<circle cx="214.2" cy="66.3" r="3" fill="#3b82f6" stroke="white" stroke-width="1"/>
<text x="214.2" y="58.3" font-size="9" fill="#3b82f6" text-anchor="middle" font-family="system-ui, -apple-system, sans-serif" font-weight="600" opacity="0.9">v0.6.1</text>
<circle cx="244.5" cy="68.4" r="3" fill="#3b82f6" stroke="white" stroke-width="1"/>
<text x="244.5" y="60.4" font-size="9" fill="#3b82f6" text-anchor="middle" font-family="system-ui, -apple-system, sans-serif" font-weight="600" opacity="0.9">v0.7.0</text>
<circle cx="274.8" cy="71.4" r="3" fill="#3b82f6" stroke="white" stroke-width="1"/>
<text x="274.8" y="63.4" font-size="9" fill="#3b82f6" text-anchor="middle" font-family="system-ui, -apple-system, sans-serif" font-weight="600" opacity="0.9">v0.7.0</text>
<circle cx="305.0" cy="23.0" r="3" fill="#3b82f6" stroke="white" stroke-width="1"/>
<text x="305.0" y="17.0" font-size="9" fill="#3b82f6" text-anchor="middle" font-family="system-ui, -apple-system, sans-serif" font-weight="600" opacity="0.9">v0.7.0 (74.84M ops/s)</text>
<circle cx="335.2" cy="66.1" r="3" fill="#3b82f6" stroke="white" stroke-width="1"/>
<text x="335.2" y="58.1" font-size="9" fill="#3b82f6" text-anchor="middle" font-family="system-ui, -apple-system, sans-serif" font-weight="600" opacity="0.9">v0.8.0</text>
<circle cx="365.5" cy="67.2" r="3" fill="#3b82f6" stroke="white" stroke-width="1"/>
<text x="365.5" y="59.2" font-size="9" fill="#3b82f6" text-anchor="middle" font-family="system-ui, -apple-system, sans-serif" font-weight="600" opacity="0.9">v0.8.0</text>
<circle cx="395.8" cy="67.7" r="3" fill="#3b82f6" stroke="white" stroke-width="1"/>
<text x="395.8" y="59.7" font-size="9" fill="#3b82f6" text-anchor="middle" font-family="system-ui, -apple-system, sans-serif" font-weight="600" opacity="0.9">v0.8.0</text>
<circle cx="426.0" cy="65.8" r="3" fill="#3b82f6" stroke="white" stroke-width="1"/>
<text x="426.0" y="57.8" font-size="9" fill="#3b82f6" text-anchor="middle" font-family="system-ui, -apple-system, sans-serif" font-weight="600" opacity="0.9">v0.8.0</text>
<circle cx="456.2" cy="111.9" r="3" fill="#3b82f6" stroke="white" stroke-width="1"/>
<text x="456.2" y="103.9" font-size="9" fill="#3b82f6" text-anchor="middle" font-family="system-ui, -apple-system, sans-serif" font-weight="600" opacity="0.9">v0.8.0</text>
<circle cx="486.5" cy="109.4" r="3" fill="#3b82f6" stroke="white" stroke-width="1"/>
<text x="486.5" y="101.4" font-size="9" fill="#3b82f6" text-anchor="middle" font-family="system-ui, -apple-system, sans-serif" font-weight="600" opacity="0.9">v0.8.0</text>
<circle cx="516.8" cy="112.0" r="3" fill="#3b82f6" stroke="white" stroke-width="1"/>
<text x="516.8" y="104.0" font-size="9" fill="#3b82f6" text-anchor="middle" font-family="system-ui, -apple-system, sans-serif" font-weight="600" opacity="0.9">v0.9.0 (41.07M ops/s)</text>
<circle cx="547.0" cy="109.5" r="3" fill="#3b82f6" stroke="white" stroke-width="1"/>
<text x="547.0" y="101.5" font-size="9" fill="#3b82f6" text-anchor="middle" font-family="system-ui, -apple-system, sans-serif" font-weight="600" opacity="0.9">v0.9.0</text>
</svg>