<svg width="615" height="120" viewBox="0 0 615 120" xmlns="http://www.w3.org/2000/svg">
<rect width="615" height="120" fill="transparent"/>
<line x1="63" y1="67.5" x2="547" y2="67.5" stroke="currentColor" stroke-width="0.5" opacity="0.2" stroke-dasharray="2,2"/>
<polyline fill="none" stroke="#3b82f6" stroke-width="2" points="48.0,92.6 123.5,80.3 184.0,106.8 244.5,85.5 305.0,40.2 365.5,112.0 426.0,104.4 486.5,75.0 547.0,23.0" stroke-linecap="round" stroke-linejoin="round"/>
<circle cx="48.0" cy="92.6" r="3" fill="#3b82f6" stroke="white" stroke-width="1"/>
<text x="48.0" y="84.6" font-size="9" fill="#3b82f6" text-anchor="middle" font-family="system-ui, -apple-system, sans-serif" font-weight="600" opacity="0.9">v0.4.1</text>
<circle cx="123.5" cy="80.3" r="3" fill="#3b82f6" stroke="white" stroke-width="1"/>
<text x="123.5" y="72.3" font-size="9" fill="#3b82f6" text-anchor="middle" font-family="system-ui, -apple-system, sans-serif" font-weight="600" opacity="0.9">v0.4.1</text>
<circle cx="184.0" cy="106.8" r="3" fill="#3b82f6" stroke="white" stroke-width="1"/>
<text x="184.0" y="98.8" font-size="9" fill="#3b82f6" text-anchor="middle" font-family="system-ui, -apple-system, sans-serif" font-weight="600" opacity="0.9">v0.5.0</text>
<circle cx="244.5" cy="85.5" r="3" fill="#3b82f6" stroke="white" stroke-width="1"/>
<text x="244.5" y="77.5" font-size="9" fill="#3b82f6" text-anchor="middle" font-family="system-ui, -apple-system, sans-serif" font-weight="600" opacity="0.9">v0.5.0</text>
<circle cx="305.0" cy="40.2" r="3" fill="#3b82f6" stroke="white" stroke-width="1"/>
<text x="305.0" y="32.2" font-size="9" fill="#3b82f6" text-anchor="middle" font-family="system-ui, -apple-system, sans-serif" font-weight="600" opacity="0.9">v0.6.0</text>
<circle cx="365.5" cy="112.0" r="3" fill="#3b82f6" stroke="white" stroke-width="1"/>
<text x="365.5" y="104.0" font-size="9" fill="#3b82f6" text-anchor="middle" font-family="system-ui, -apple-system, sans-serif" font-weight="600" opacity="0.9">v0.6.1 (11.30M ops/s)</text>
<circle cx="426.0" cy="104.4" r="3" fill="#3b82f6" stroke="white" stroke-width="1"/>
<text x="426.0" y="96.4" font-size="9" fill="#3b82f6" text-anchor="middle" font-family="system-ui, -apple-system, sans-serif" font-weight="600" opacity="0.9">v0.7.0</text>
<circle cx="486.5" cy="75.0" r="3" fill="#3b82f6" stroke="white" stroke-width="1"/>
<text x="486.5" y="67.0" font-size="9" fill="#3b82f6" text-anchor="middle" font-family="system-ui, -apple-system, sans-serif" font-weight="600" opacity="0.9">v0.7.0</text>
<circle cx="547.0" cy="23.0" r="3" fill="#3b82f6" stroke="white" stroke-width="1"/>
<text x="547.0" y="17.0" font-size="9" fill="#3b82f6" text-anchor="middle" font-family="system-ui, -apple-system, sans-serif" font-weight="600" opacity="0.9">v0.7.0 (14.86M ops/s)</text>
</svg>