<svg width="615" height="120" viewBox="0 0 615 120" xmlns="http://www.w3.org/2000/svg">
<rect width="615" height="120" fill="transparent"/>
<line x1="63" y1="67.5" x2="547" y2="67.5" stroke="currentColor" stroke-width="0.5" opacity="0.2" stroke-dasharray="2,2"/>
<polyline fill="none" stroke="#3b82f6" stroke-width="2" points="48.0,81.0 91.5,85.9 119.9,90.4 148.4,80.4 176.9,72.9 205.4,77.7 233.8,71.9 262.3,112.0 290.8,23.0 319.2,90.8 347.7,80.1 376.2,72.6 404.6,81.5 433.1,79.9 461.6,72.1 490.1,91.9 518.5,71.2 547.0,85.8" stroke-linecap="round" stroke-linejoin="round"/>
<circle cx="48.0" cy="81.0" r="3" fill="#3b82f6" stroke="white" stroke-width="1"/>
<text x="48.0" y="73.0" font-size="9" fill="#3b82f6" text-anchor="middle" font-family="system-ui, -apple-system, sans-serif" font-weight="600" opacity="0.9">v0.4.1</text>
<circle cx="91.5" cy="85.9" r="3" fill="#3b82f6" stroke="white" stroke-width="1"/>
<text x="91.5" y="77.9" font-size="9" fill="#3b82f6" text-anchor="middle" font-family="system-ui, -apple-system, sans-serif" font-weight="600" opacity="0.9">v0.4.1</text>
<circle cx="119.9" cy="90.4" r="3" fill="#3b82f6" stroke="white" stroke-width="1"/>
<text x="119.9" y="82.4" font-size="9" fill="#3b82f6" text-anchor="middle" font-family="system-ui, -apple-system, sans-serif" font-weight="600" opacity="0.9">v0.5.0</text>
<circle cx="148.4" cy="80.4" r="3" fill="#3b82f6" stroke="white" stroke-width="1"/>
<text x="148.4" y="72.4" font-size="9" fill="#3b82f6" text-anchor="middle" font-family="system-ui, -apple-system, sans-serif" font-weight="600" opacity="0.9">v0.5.0</text>
<circle cx="176.9" cy="72.9" r="3" fill="#3b82f6" stroke="white" stroke-width="1"/>
<text x="176.9" y="64.9" font-size="9" fill="#3b82f6" text-anchor="middle" font-family="system-ui, -apple-system, sans-serif" font-weight="600" opacity="0.9">v0.6.0</text>
<circle cx="205.4" cy="77.7" r="3" fill="#3b82f6" stroke="white" stroke-width="1"/>
<text x="205.4" y="69.7" font-size="9" fill="#3b82f6" text-anchor="middle" font-family="system-ui, -apple-system, sans-serif" font-weight="600" opacity="0.9">v0.6.1</text>
<circle cx="233.8" cy="71.9" r="3" fill="#3b82f6" stroke="white" stroke-width="1"/>
<text x="233.8" y="63.9" font-size="9" fill="#3b82f6" text-anchor="middle" font-family="system-ui, -apple-system, sans-serif" font-weight="600" opacity="0.9">v0.7.0</text>
<circle cx="262.3" cy="112.0" r="3" fill="#3b82f6" stroke="white" stroke-width="1"/>
<text x="262.3" y="104.0" font-size="9" fill="#3b82f6" text-anchor="middle" font-family="system-ui, -apple-system, sans-serif" font-weight="600" opacity="0.9">v0.7.0 (69.84M ops/s)</text>
<circle cx="290.8" cy="23.0" r="3" fill="#3b82f6" stroke="white" stroke-width="1"/>
<text x="290.8" y="17.0" font-size="9" fill="#3b82f6" text-anchor="middle" font-family="system-ui, -apple-system, sans-serif" font-weight="600" opacity="0.9">v0.7.0 (113.09M ops/s)</text>
<circle cx="319.2" cy="90.8" r="3" fill="#3b82f6" stroke="white" stroke-width="1"/>
<text x="319.2" y="82.8" font-size="9" fill="#3b82f6" text-anchor="middle" font-family="system-ui, -apple-system, sans-serif" font-weight="600" opacity="0.9">v0.8.0</text>
<circle cx="347.7" cy="80.1" r="3" fill="#3b82f6" stroke="white" stroke-width="1"/>
<text x="347.7" y="72.1" font-size="9" fill="#3b82f6" text-anchor="middle" font-family="system-ui, -apple-system, sans-serif" font-weight="600" opacity="0.9">v0.8.0</text>
<circle cx="376.2" cy="72.6" r="3" fill="#3b82f6" stroke="white" stroke-width="1"/>
<text x="376.2" y="64.6" font-size="9" fill="#3b82f6" text-anchor="middle" font-family="system-ui, -apple-system, sans-serif" font-weight="600" opacity="0.9">v0.8.0</text>
<circle cx="404.6" cy="81.5" r="3" fill="#3b82f6" stroke="white" stroke-width="1"/>
<text x="404.6" y="73.5" font-size="9" fill="#3b82f6" text-anchor="middle" font-family="system-ui, -apple-system, sans-serif" font-weight="600" opacity="0.9">v0.8.0</text>
<circle cx="433.1" cy="79.9" r="3" fill="#3b82f6" stroke="white" stroke-width="1"/>
<text x="433.1" y="71.9" font-size="9" fill="#3b82f6" text-anchor="middle" font-family="system-ui, -apple-system, sans-serif" font-weight="600" opacity="0.9">v0.8.0</text>
<circle cx="461.6" cy="72.1" r="3" fill="#3b82f6" stroke="white" stroke-width="1"/>
<text x="461.6" y="64.1" font-size="9" fill="#3b82f6" text-anchor="middle" font-family="system-ui, -apple-system, sans-serif" font-weight="600" opacity="0.9">v0.8.0</text>
<circle cx="490.1" cy="91.9" r="3" fill="#3b82f6" stroke="white" stroke-width="1"/>
<text x="490.1" y="83.9" font-size="9" fill="#3b82f6" text-anchor="middle" font-family="system-ui, -apple-system, sans-serif" font-weight="600" opacity="0.9">v0.9.0</text>
<circle cx="518.5" cy="71.2" r="3" fill="#3b82f6" stroke="white" stroke-width="1"/>
<text x="518.5" y="63.2" font-size="9" fill="#3b82f6" text-anchor="middle" font-family="system-ui, -apple-system, sans-serif" font-weight="600" opacity="0.9">v0.9.0</text>
<circle cx="547.0" cy="85.8" r="3" fill="#3b82f6" stroke="white" stroke-width="1"/>
<text x="547.0" y="77.8" font-size="9" fill="#3b82f6" text-anchor="middle" font-family="system-ui, -apple-system, sans-serif" font-weight="600" opacity="0.9">v0.10.0</text>
</svg>