<svg width="615" height="120" viewBox="0 0 615 120" xmlns="http://www.w3.org/2000/svg">
<rect width="615" height="120" fill="transparent"/>
<line x1="63" y1="67.5" x2="547" y2="67.5" stroke="currentColor" stroke-width="0.5" opacity="0.2" stroke-dasharray="2,2"/>
<polyline fill="none" stroke="#3b82f6" stroke-width="2" points="48.0,82.3 95.3,90.3 127.5,99.8 159.8,82.6 192.1,76.1 224.3,76.4 256.6,75.1 288.9,112.0 321.1,23.0 353.4,93.2 385.7,82.6 417.9,78.6 450.2,83.2 482.5,85.7 514.7,75.5 547.0,83.0" stroke-linecap="round" stroke-linejoin="round"/>
<circle cx="48.0" cy="82.3" r="3" fill="#3b82f6" stroke="white" stroke-width="1"/>
<text x="48.0" y="74.3" font-size="9" fill="#3b82f6" text-anchor="middle" font-family="system-ui, -apple-system, sans-serif" font-weight="600" opacity="0.9">v0.4.1</text>
<circle cx="95.3" cy="90.3" r="3" fill="#3b82f6" stroke="white" stroke-width="1"/>
<text x="95.3" y="82.3" font-size="9" fill="#3b82f6" text-anchor="middle" font-family="system-ui, -apple-system, sans-serif" font-weight="600" opacity="0.9">v0.4.1</text>
<circle cx="127.5" cy="99.8" r="3" fill="#3b82f6" stroke="white" stroke-width="1"/>
<text x="127.5" y="91.8" font-size="9" fill="#3b82f6" text-anchor="middle" font-family="system-ui, -apple-system, sans-serif" font-weight="600" opacity="0.9">v0.5.0</text>
<circle cx="159.8" cy="82.6" r="3" fill="#3b82f6" stroke="white" stroke-width="1"/>
<text x="159.8" y="74.6" font-size="9" fill="#3b82f6" text-anchor="middle" font-family="system-ui, -apple-system, sans-serif" font-weight="600" opacity="0.9">v0.5.0</text>
<circle cx="192.1" cy="76.1" r="3" fill="#3b82f6" stroke="white" stroke-width="1"/>
<text x="192.1" y="68.1" font-size="9" fill="#3b82f6" text-anchor="middle" font-family="system-ui, -apple-system, sans-serif" font-weight="600" opacity="0.9">v0.6.0</text>
<circle cx="224.3" cy="76.4" r="3" fill="#3b82f6" stroke="white" stroke-width="1"/>
<text x="224.3" y="68.4" font-size="9" fill="#3b82f6" text-anchor="middle" font-family="system-ui, -apple-system, sans-serif" font-weight="600" opacity="0.9">v0.6.1</text>
<circle cx="256.6" cy="75.1" r="3" fill="#3b82f6" stroke="white" stroke-width="1"/>
<text x="256.6" y="67.1" font-size="9" fill="#3b82f6" text-anchor="middle" font-family="system-ui, -apple-system, sans-serif" font-weight="600" opacity="0.9">v0.7.0</text>
<circle cx="288.9" cy="112.0" r="3" fill="#3b82f6" stroke="white" stroke-width="1"/>
<text x="288.9" y="104.0" font-size="9" fill="#3b82f6" text-anchor="middle" font-family="system-ui, -apple-system, sans-serif" font-weight="600" opacity="0.9">v0.7.0 (68.71M ops/s)</text>
<circle cx="321.1" cy="23.0" r="3" fill="#3b82f6" stroke="white" stroke-width="1"/>
<text x="321.1" y="17.0" font-size="9" fill="#3b82f6" text-anchor="middle" font-family="system-ui, -apple-system, sans-serif" font-weight="600" opacity="0.9">v0.7.0 (118.74M ops/s)</text>
<circle cx="353.4" cy="93.2" r="3" fill="#3b82f6" stroke="white" stroke-width="1"/>
<text x="353.4" y="85.2" font-size="9" fill="#3b82f6" text-anchor="middle" font-family="system-ui, -apple-system, sans-serif" font-weight="600" opacity="0.9">v0.8.0</text>
<circle cx="385.7" cy="82.6" r="3" fill="#3b82f6" stroke="white" stroke-width="1"/>
<text x="385.7" y="74.6" font-size="9" fill="#3b82f6" text-anchor="middle" font-family="system-ui, -apple-system, sans-serif" font-weight="600" opacity="0.9">v0.8.0</text>
<circle cx="417.9" cy="78.6" r="3" fill="#3b82f6" stroke="white" stroke-width="1"/>
<text x="417.9" y="70.6" font-size="9" fill="#3b82f6" text-anchor="middle" font-family="system-ui, -apple-system, sans-serif" font-weight="600" opacity="0.9">v0.8.0</text>
<circle cx="450.2" cy="83.2" r="3" fill="#3b82f6" stroke="white" stroke-width="1"/>
<text x="450.2" y="75.2" font-size="9" fill="#3b82f6" text-anchor="middle" font-family="system-ui, -apple-system, sans-serif" font-weight="600" opacity="0.9">v0.8.0</text>
<circle cx="482.5" cy="85.7" r="3" fill="#3b82f6" stroke="white" stroke-width="1"/>
<text x="482.5" y="77.7" font-size="9" fill="#3b82f6" text-anchor="middle" font-family="system-ui, -apple-system, sans-serif" font-weight="600" opacity="0.9">v0.8.0</text>
<circle cx="514.7" cy="75.5" r="3" fill="#3b82f6" stroke="white" stroke-width="1"/>
<text x="514.7" y="67.5" font-size="9" fill="#3b82f6" text-anchor="middle" font-family="system-ui, -apple-system, sans-serif" font-weight="600" opacity="0.9">v0.8.0</text>
<circle cx="547.0" cy="83.0" r="3" fill="#3b82f6" stroke="white" stroke-width="1"/>
<text x="547.0" y="75.0" font-size="9" fill="#3b82f6" text-anchor="middle" font-family="system-ui, -apple-system, sans-serif" font-weight="600" opacity="0.9">v0.9.0</text>
</svg>