<svg width="615" height="120" viewBox="0 0 615 120" xmlns="http://www.w3.org/2000/svg">
<rect width="615" height="120" fill="transparent"/>
<line x1="63" y1="67.5" x2="547" y2="67.5" stroke="currentColor" stroke-width="0.5" opacity="0.2" stroke-dasharray="2,2"/>
<polyline fill="none" stroke="#3b82f6" stroke-width="2" points="48.0,65.1 95.3,82.1 127.5,65.2 159.8,68.5 192.1,44.7 224.3,45.2 256.6,40.5 288.9,23.0 321.1,40.5 353.4,40.7 385.7,45.0 417.9,40.6 450.2,109.9 482.5,112.0 514.7,109.9 547.0,112.0" stroke-linecap="round" stroke-linejoin="round"/>
<circle cx="48.0" cy="65.1" r="3" fill="#3b82f6" stroke="white" stroke-width="1"/>
<text x="48.0" y="57.1" font-size="9" fill="#3b82f6" text-anchor="middle" font-family="system-ui, -apple-system, sans-serif" font-weight="600" opacity="0.9">v0.4.1</text>
<circle cx="95.3" cy="82.1" r="3" fill="#3b82f6" stroke="white" stroke-width="1"/>
<text x="95.3" y="74.1" font-size="9" fill="#3b82f6" text-anchor="middle" font-family="system-ui, -apple-system, sans-serif" font-weight="600" opacity="0.9">v0.5.0</text>
<circle cx="127.5" cy="65.2" r="3" fill="#3b82f6" stroke="white" stroke-width="1"/>
<text x="127.5" y="57.2" font-size="9" fill="#3b82f6" text-anchor="middle" font-family="system-ui, -apple-system, sans-serif" font-weight="600" opacity="0.9">v0.5.0</text>
<circle cx="159.8" cy="68.5" r="3" fill="#3b82f6" stroke="white" stroke-width="1"/>
<text x="159.8" y="60.5" font-size="9" fill="#3b82f6" text-anchor="middle" font-family="system-ui, -apple-system, sans-serif" font-weight="600" opacity="0.9">v0.6.0</text>
<circle cx="192.1" cy="44.7" r="3" fill="#3b82f6" stroke="white" stroke-width="1"/>
<text x="192.1" y="36.7" font-size="9" fill="#3b82f6" text-anchor="middle" font-family="system-ui, -apple-system, sans-serif" font-weight="600" opacity="0.9">v0.6.1</text>
<circle cx="224.3" cy="45.2" r="3" fill="#3b82f6" stroke="white" stroke-width="1"/>
<text x="224.3" y="37.2" font-size="9" fill="#3b82f6" text-anchor="middle" font-family="system-ui, -apple-system, sans-serif" font-weight="600" opacity="0.9">v0.7.0</text>
<circle cx="256.6" cy="40.5" r="3" fill="#3b82f6" stroke="white" stroke-width="1"/>
<text x="256.6" y="32.5" font-size="9" fill="#3b82f6" text-anchor="middle" font-family="system-ui, -apple-system, sans-serif" font-weight="600" opacity="0.9">v0.7.0</text>
<circle cx="288.9" cy="23.0" r="3" fill="#3b82f6" stroke="white" stroke-width="1"/>
<text x="288.9" y="17.0" font-size="9" fill="#3b82f6" text-anchor="middle" font-family="system-ui, -apple-system, sans-serif" font-weight="600" opacity="0.9">v0.7.0 (794.30M ops/s)</text>
<circle cx="321.1" cy="40.5" r="3" fill="#3b82f6" stroke="white" stroke-width="1"/>
<text x="321.1" y="32.5" font-size="9" fill="#3b82f6" text-anchor="middle" font-family="system-ui, -apple-system, sans-serif" font-weight="600" opacity="0.9">v0.8.0</text>
<circle cx="353.4" cy="40.7" r="3" fill="#3b82f6" stroke="white" stroke-width="1"/>
<text x="353.4" y="32.7" font-size="9" fill="#3b82f6" text-anchor="middle" font-family="system-ui, -apple-system, sans-serif" font-weight="600" opacity="0.9">v0.8.0</text>
<circle cx="385.7" cy="45.0" r="3" fill="#3b82f6" stroke="white" stroke-width="1"/>
<text x="385.7" y="37.0" font-size="9" fill="#3b82f6" text-anchor="middle" font-family="system-ui, -apple-system, sans-serif" font-weight="600" opacity="0.9">v0.8.0</text>
<circle cx="417.9" cy="40.6" r="3" fill="#3b82f6" stroke="white" stroke-width="1"/>
<text x="417.9" y="32.6" font-size="9" fill="#3b82f6" text-anchor="middle" font-family="system-ui, -apple-system, sans-serif" font-weight="600" opacity="0.9">v0.8.0</text>
<circle cx="450.2" cy="109.9" r="3" fill="#3b82f6" stroke="white" stroke-width="1"/>
<text x="450.2" y="101.9" font-size="9" fill="#3b82f6" text-anchor="middle" font-family="system-ui, -apple-system, sans-serif" font-weight="600" opacity="0.9">v0.8.0</text>
<circle cx="482.5" cy="112.0" r="3" fill="#3b82f6" stroke="white" stroke-width="1"/>
<text x="482.5" y="104.0" font-size="9" fill="#3b82f6" text-anchor="middle" font-family="system-ui, -apple-system, sans-serif" font-weight="600" opacity="0.9">v0.8.0 (86.04M ops/s)</text>
<circle cx="514.7" cy="109.9" r="3" fill="#3b82f6" stroke="white" stroke-width="1"/>
<text x="514.7" y="101.9" font-size="9" fill="#3b82f6" text-anchor="middle" font-family="system-ui, -apple-system, sans-serif" font-weight="600" opacity="0.9">v0.9.0</text>
<circle cx="547.0" cy="112.0" r="3" fill="#3b82f6" stroke="white" stroke-width="1"/>
<text x="547.0" y="104.0" font-size="9" fill="#3b82f6" text-anchor="middle" font-family="system-ui, -apple-system, sans-serif" font-weight="600" opacity="0.9">v0.9.0</text>
</svg>