<svg width="615" height="120" viewBox="0 0 615 120" xmlns="http://www.w3.org/2000/svg">
<rect width="615" height="120" fill="transparent"/>
<line x1="63" y1="67.5" x2="547" y2="67.5" stroke="currentColor" stroke-width="0.5" opacity="0.2" stroke-dasharray="2,2"/>
<polyline fill="none" stroke="#3b82f6" stroke-width="2" points="48.0,60.8 97.6,62.2 132.1,61.7 166.7,59.8 201.3,26.3 235.9,65.8 270.4,74.4 305.0,70.5 339.6,23.0 374.1,65.8 408.7,66.7 443.3,66.1 477.9,63.5 512.4,112.0 547.0,109.6" stroke-linecap="round" stroke-linejoin="round"/>
<circle cx="48.0" cy="60.8" r="3" fill="#3b82f6" stroke="white" stroke-width="1"/>
<text x="48.0" y="52.8" font-size="9" fill="#3b82f6" text-anchor="middle" font-family="system-ui, -apple-system, sans-serif" font-weight="600" opacity="0.9">v0.4.1</text>
<circle cx="97.6" cy="62.2" r="3" fill="#3b82f6" stroke="white" stroke-width="1"/>
<text x="97.6" y="54.2" font-size="9" fill="#3b82f6" text-anchor="middle" font-family="system-ui, -apple-system, sans-serif" font-weight="600" opacity="0.9">v0.4.1</text>
<circle cx="132.1" cy="61.7" r="3" fill="#3b82f6" stroke="white" stroke-width="1"/>
<text x="132.1" y="53.7" font-size="9" fill="#3b82f6" text-anchor="middle" font-family="system-ui, -apple-system, sans-serif" font-weight="600" opacity="0.9">v0.5.0</text>
<circle cx="166.7" cy="59.8" r="3" fill="#3b82f6" stroke="white" stroke-width="1"/>
<text x="166.7" y="51.8" font-size="9" fill="#3b82f6" text-anchor="middle" font-family="system-ui, -apple-system, sans-serif" font-weight="600" opacity="0.9">v0.5.0</text>
<circle cx="201.3" cy="26.3" r="3" fill="#3b82f6" stroke="white" stroke-width="1"/>
<text x="201.3" y="18.3" font-size="9" fill="#3b82f6" text-anchor="middle" font-family="system-ui, -apple-system, sans-serif" font-weight="600" opacity="0.9">v0.6.0</text>
<circle cx="235.9" cy="65.8" r="3" fill="#3b82f6" stroke="white" stroke-width="1"/>
<text x="235.9" y="57.8" font-size="9" fill="#3b82f6" text-anchor="middle" font-family="system-ui, -apple-system, sans-serif" font-weight="600" opacity="0.9">v0.6.1</text>
<circle cx="270.4" cy="74.4" r="3" fill="#3b82f6" stroke="white" stroke-width="1"/>
<text x="270.4" y="66.4" font-size="9" fill="#3b82f6" text-anchor="middle" font-family="system-ui, -apple-system, sans-serif" font-weight="600" opacity="0.9">v0.7.0</text>
<circle cx="305.0" cy="70.5" r="3" fill="#3b82f6" stroke="white" stroke-width="1"/>
<text x="305.0" y="62.5" font-size="9" fill="#3b82f6" text-anchor="middle" font-family="system-ui, -apple-system, sans-serif" font-weight="600" opacity="0.9">v0.7.0</text>
<circle cx="339.6" cy="23.0" r="3" fill="#3b82f6" stroke="white" stroke-width="1"/>
<text x="339.6" y="17.0" font-size="9" fill="#3b82f6" text-anchor="middle" font-family="system-ui, -apple-system, sans-serif" font-weight="600" opacity="0.9">v0.7.0 (73.32M ops/s)</text>
<circle cx="374.1" cy="65.8" r="3" fill="#3b82f6" stroke="white" stroke-width="1"/>
<text x="374.1" y="57.8" font-size="9" fill="#3b82f6" text-anchor="middle" font-family="system-ui, -apple-system, sans-serif" font-weight="600" opacity="0.9">v0.8.0</text>
<circle cx="408.7" cy="66.7" r="3" fill="#3b82f6" stroke="white" stroke-width="1"/>
<text x="408.7" y="58.7" font-size="9" fill="#3b82f6" text-anchor="middle" font-family="system-ui, -apple-system, sans-serif" font-weight="600" opacity="0.9">v0.8.0</text>
<circle cx="443.3" cy="66.1" r="3" fill="#3b82f6" stroke="white" stroke-width="1"/>
<text x="443.3" y="58.1" font-size="9" fill="#3b82f6" text-anchor="middle" font-family="system-ui, -apple-system, sans-serif" font-weight="600" opacity="0.9">v0.8.0</text>
<circle cx="477.9" cy="63.5" r="3" fill="#3b82f6" stroke="white" stroke-width="1"/>
<text x="477.9" y="55.5" font-size="9" fill="#3b82f6" text-anchor="middle" font-family="system-ui, -apple-system, sans-serif" font-weight="600" opacity="0.9">v0.8.0</text>
<circle cx="512.4" cy="112.0" r="3" fill="#3b82f6" stroke="white" stroke-width="1"/>
<text x="512.4" y="104.0" font-size="9" fill="#3b82f6" text-anchor="middle" font-family="system-ui, -apple-system, sans-serif" font-weight="600" opacity="0.9">v0.8.0 (41.08M ops/s)</text>
<circle cx="547.0" cy="109.6" r="3" fill="#3b82f6" stroke="white" stroke-width="1"/>
<text x="547.0" y="101.6" font-size="9" fill="#3b82f6" text-anchor="middle" font-family="system-ui, -apple-system, sans-serif" font-weight="600" opacity="0.9">v0.8.0</text>
</svg>