<svg width="615" height="120" viewBox="0 0 615 120" xmlns="http://www.w3.org/2000/svg">
<rect width="615" height="120" fill="transparent"/>
<line x1="63" y1="67.5" x2="547" y2="67.5" stroke="currentColor" stroke-width="0.5" opacity="0.2" stroke-dasharray="2,2"/>
<polyline fill="none" stroke="#3b82f6" stroke-width="2" points="48.0,79.5 93.2,83.5 123.5,82.2 153.8,82.1 184.0,47.8 214.2,112.0 244.5,102.7 274.8,75.9 305.0,23.0 335.2,79.8 365.5,80.8 395.8,105.0 426.0,95.7 456.2,76.6 486.5,100.7 516.8,81.0 547.0,108.3" stroke-linecap="round" stroke-linejoin="round"/>
<circle cx="48.0" cy="79.5" r="3" fill="#3b82f6" stroke="white" stroke-width="1"/>
<text x="48.0" y="71.5" font-size="9" fill="#3b82f6" text-anchor="middle" font-family="system-ui, -apple-system, sans-serif" font-weight="600" opacity="0.9">v0.4.1</text>
<circle cx="93.2" cy="83.5" r="3" fill="#3b82f6" stroke="white" stroke-width="1"/>
<text x="93.2" y="75.5" font-size="9" fill="#3b82f6" text-anchor="middle" font-family="system-ui, -apple-system, sans-serif" font-weight="600" opacity="0.9">v0.4.1</text>
<circle cx="123.5" cy="82.2" r="3" fill="#3b82f6" stroke="white" stroke-width="1"/>
<text x="123.5" y="74.2" font-size="9" fill="#3b82f6" text-anchor="middle" font-family="system-ui, -apple-system, sans-serif" font-weight="600" opacity="0.9">v0.5.0</text>
<circle cx="153.8" cy="82.1" r="3" fill="#3b82f6" stroke="white" stroke-width="1"/>
<text x="153.8" y="74.1" font-size="9" fill="#3b82f6" text-anchor="middle" font-family="system-ui, -apple-system, sans-serif" font-weight="600" opacity="0.9">v0.5.0</text>
<circle cx="184.0" cy="47.8" r="3" fill="#3b82f6" stroke="white" stroke-width="1"/>
<text x="184.0" y="39.8" font-size="9" fill="#3b82f6" text-anchor="middle" font-family="system-ui, -apple-system, sans-serif" font-weight="600" opacity="0.9">v0.6.0</text>
<circle cx="214.2" cy="112.0" r="3" fill="#3b82f6" stroke="white" stroke-width="1"/>
<text x="214.2" y="104.0" font-size="9" fill="#3b82f6" text-anchor="middle" font-family="system-ui, -apple-system, sans-serif" font-weight="600" opacity="0.9">v0.6.1 (11.34M ops/s)</text>
<circle cx="244.5" cy="102.7" r="3" fill="#3b82f6" stroke="white" stroke-width="1"/>
<text x="244.5" y="94.7" font-size="9" fill="#3b82f6" text-anchor="middle" font-family="system-ui, -apple-system, sans-serif" font-weight="600" opacity="0.9">v0.7.0</text>
<circle cx="274.8" cy="75.9" r="3" fill="#3b82f6" stroke="white" stroke-width="1"/>
<text x="274.8" y="67.9" font-size="9" fill="#3b82f6" text-anchor="middle" font-family="system-ui, -apple-system, sans-serif" font-weight="600" opacity="0.9">v0.7.0</text>
<circle cx="305.0" cy="23.0" r="3" fill="#3b82f6" stroke="white" stroke-width="1"/>
<text x="305.0" y="17.0" font-size="9" fill="#3b82f6" text-anchor="middle" font-family="system-ui, -apple-system, sans-serif" font-weight="600" opacity="0.9">v0.7.0 (14.81M ops/s)</text>
<circle cx="335.2" cy="79.8" r="3" fill="#3b82f6" stroke="white" stroke-width="1"/>
<text x="335.2" y="71.8" font-size="9" fill="#3b82f6" text-anchor="middle" font-family="system-ui, -apple-system, sans-serif" font-weight="600" opacity="0.9">v0.8.0</text>
<circle cx="365.5" cy="80.8" r="3" fill="#3b82f6" stroke="white" stroke-width="1"/>
<text x="365.5" y="72.8" font-size="9" fill="#3b82f6" text-anchor="middle" font-family="system-ui, -apple-system, sans-serif" font-weight="600" opacity="0.9">v0.8.0</text>
<circle cx="395.8" cy="105.0" r="3" fill="#3b82f6" stroke="white" stroke-width="1"/>
<text x="395.8" y="97.0" font-size="9" fill="#3b82f6" text-anchor="middle" font-family="system-ui, -apple-system, sans-serif" font-weight="600" opacity="0.9">v0.8.0</text>
<circle cx="426.0" cy="95.7" r="3" fill="#3b82f6" stroke="white" stroke-width="1"/>
<text x="426.0" y="87.7" font-size="9" fill="#3b82f6" text-anchor="middle" font-family="system-ui, -apple-system, sans-serif" font-weight="600" opacity="0.9">v0.8.0</text>
<circle cx="456.2" cy="76.6" r="3" fill="#3b82f6" stroke="white" stroke-width="1"/>
<text x="456.2" y="68.6" font-size="9" fill="#3b82f6" text-anchor="middle" font-family="system-ui, -apple-system, sans-serif" font-weight="600" opacity="0.9">v0.8.0</text>
<circle cx="486.5" cy="100.7" r="3" fill="#3b82f6" stroke="white" stroke-width="1"/>
<text x="486.5" y="92.7" font-size="9" fill="#3b82f6" text-anchor="middle" font-family="system-ui, -apple-system, sans-serif" font-weight="600" opacity="0.9">v0.8.0</text>
<circle cx="516.8" cy="81.0" r="3" fill="#3b82f6" stroke="white" stroke-width="1"/>
<text x="516.8" y="73.0" font-size="9" fill="#3b82f6" text-anchor="middle" font-family="system-ui, -apple-system, sans-serif" font-weight="600" opacity="0.9">v0.9.0</text>
<circle cx="547.0" cy="108.3" r="3" fill="#3b82f6" stroke="white" stroke-width="1"/>
<text x="547.0" y="100.3" font-size="9" fill="#3b82f6" text-anchor="middle" font-family="system-ui, -apple-system, sans-serif" font-weight="600" opacity="0.9">v0.9.0</text>
</svg>