<svg width="755" height="120" viewBox="0 0 755 120" xmlns="http://www.w3.org/2000/svg">
<rect width="755" height="120" fill="transparent"/>
<line x1="63" y1="67.5" x2="547" y2="67.5" stroke="currentColor" stroke-width="0.5" opacity="0.2" stroke-dasharray="2,2"/>
<polyline fill="none" stroke="#3b82f6" stroke-width="2" points="48.0,69.1 100.2,67.1 137.5,70.3 174.7,67.1 211.9,36.8 249.2,45.4 286.4,45.7 323.6,40.5 360.8,23.0 398.1,41.4 435.3,41.0 472.5,46.0 509.8,38.1 547.0,112.0" stroke-linecap="round" stroke-linejoin="round"/>
<circle cx="48.0" cy="69.1" r="3" fill="#3b82f6" stroke="white" stroke-width="1"/>
<text x="48.0" y="61.1" font-size="9" fill="#3b82f6" text-anchor="middle" font-family="system-ui, -apple-system, sans-serif" font-weight="600" opacity="0.9">v0.4.1</text>
<circle cx="100.2" cy="67.1" r="3" fill="#3b82f6" stroke="white" stroke-width="1"/>
<text x="100.2" y="59.1" font-size="9" fill="#3b82f6" text-anchor="middle" font-family="system-ui, -apple-system, sans-serif" font-weight="600" opacity="0.9">v0.4.1</text>
<circle cx="137.5" cy="70.3" r="3" fill="#3b82f6" stroke="white" stroke-width="1"/>
<text x="137.5" y="62.3" font-size="9" fill="#3b82f6" text-anchor="middle" font-family="system-ui, -apple-system, sans-serif" font-weight="600" opacity="0.9">v0.5.0</text>
<circle cx="174.7" cy="67.1" r="3" fill="#3b82f6" stroke="white" stroke-width="1"/>
<text x="174.7" y="59.1" font-size="9" fill="#3b82f6" text-anchor="middle" font-family="system-ui, -apple-system, sans-serif" font-weight="600" opacity="0.9">v0.5.0</text>
<circle cx="211.9" cy="36.8" r="3" fill="#3b82f6" stroke="white" stroke-width="1"/>
<text x="211.9" y="28.8" font-size="9" fill="#3b82f6" text-anchor="middle" font-family="system-ui, -apple-system, sans-serif" font-weight="600" opacity="0.9">v0.6.0</text>
<circle cx="249.2" cy="45.4" r="3" fill="#3b82f6" stroke="white" stroke-width="1"/>
<text x="249.2" y="37.4" font-size="9" fill="#3b82f6" text-anchor="middle" font-family="system-ui, -apple-system, sans-serif" font-weight="600" opacity="0.9">v0.6.1</text>
<circle cx="286.4" cy="45.7" r="3" fill="#3b82f6" stroke="white" stroke-width="1"/>
<text x="286.4" y="37.7" font-size="9" fill="#3b82f6" text-anchor="middle" font-family="system-ui, -apple-system, sans-serif" font-weight="600" opacity="0.9">v0.7.0</text>
<circle cx="323.6" cy="40.5" r="3" fill="#3b82f6" stroke="white" stroke-width="1"/>
<text x="323.6" y="32.5" font-size="9" fill="#3b82f6" text-anchor="middle" font-family="system-ui, -apple-system, sans-serif" font-weight="600" opacity="0.9">v0.7.0</text>
<circle cx="360.8" cy="23.0" r="3" fill="#3b82f6" stroke="white" stroke-width="1"/>
<text x="360.8" y="17.0" font-size="9" fill="#3b82f6" text-anchor="middle" font-family="system-ui, -apple-system, sans-serif" font-weight="600" opacity="0.9">v0.7.0 (808.49M ops/s)</text>
<circle cx="398.1" cy="41.4" r="3" fill="#3b82f6" stroke="white" stroke-width="1"/>
<text x="398.1" y="33.4" font-size="9" fill="#3b82f6" text-anchor="middle" font-family="system-ui, -apple-system, sans-serif" font-weight="600" opacity="0.9">v0.8.0</text>
<circle cx="435.3" cy="41.0" r="3" fill="#3b82f6" stroke="white" stroke-width="1"/>
<text x="435.3" y="33.0" font-size="9" fill="#3b82f6" text-anchor="middle" font-family="system-ui, -apple-system, sans-serif" font-weight="600" opacity="0.9">v0.8.0</text>
<circle cx="472.5" cy="46.0" r="3" fill="#3b82f6" stroke="white" stroke-width="1"/>
<text x="472.5" y="38.0" font-size="9" fill="#3b82f6" text-anchor="middle" font-family="system-ui, -apple-system, sans-serif" font-weight="600" opacity="0.9">v0.8.0</text>
<circle cx="509.8" cy="38.1" r="3" fill="#3b82f6" stroke="white" stroke-width="1"/>
<text x="509.8" y="30.1" font-size="9" fill="#3b82f6" text-anchor="middle" font-family="system-ui, -apple-system, sans-serif" font-weight="600" opacity="0.9">v0.8.0</text>
<circle cx="547.0" cy="112.0" r="3" fill="#3b82f6" stroke="white" stroke-width="1"/>
<text x="547.0" y="104.0" font-size="9" fill="#3b82f6" text-anchor="middle" font-family="system-ui, -apple-system, sans-serif" font-weight="600" opacity="0.9">v0.8.0 (102.61M ops/s)</text>
</svg>