<svg width="615" height="120" viewBox="0 0 615 120" xmlns="http://www.w3.org/2000/svg">
<rect width="615" height="120" fill="transparent"/>
<line x1="63" y1="67.5" x2="547" y2="67.5" stroke="currentColor" stroke-width="0.5" opacity="0.2" stroke-dasharray="2,2"/>
<polyline fill="none" stroke="#3b82f6" stroke-width="2" points="48.0,81.0 93.2,85.9 123.5,90.4 153.8,80.4 184.0,72.9 214.2,77.7 244.5,71.9 274.8,112.0 305.0,23.0 335.2,90.8 365.5,80.1 395.8,72.6 426.0,81.5 456.2,79.9 486.5,72.1 516.8,91.9 547.0,71.2" stroke-linecap="round" stroke-linejoin="round"/>
<circle cx="48.0" cy="81.0" r="3" fill="#3b82f6" stroke="white" stroke-width="1"/>
<text x="48.0" y="73.0" font-size="9" fill="#3b82f6" text-anchor="middle" font-family="system-ui, -apple-system, sans-serif" font-weight="600" opacity="0.9">v0.4.1</text>
<circle cx="93.2" cy="85.9" r="3" fill="#3b82f6" stroke="white" stroke-width="1"/>
<text x="93.2" y="77.9" font-size="9" fill="#3b82f6" text-anchor="middle" font-family="system-ui, -apple-system, sans-serif" font-weight="600" opacity="0.9">v0.4.1</text>
<circle cx="123.5" cy="90.4" r="3" fill="#3b82f6" stroke="white" stroke-width="1"/>
<text x="123.5" y="82.4" font-size="9" fill="#3b82f6" text-anchor="middle" font-family="system-ui, -apple-system, sans-serif" font-weight="600" opacity="0.9">v0.5.0</text>
<circle cx="153.8" cy="80.4" r="3" fill="#3b82f6" stroke="white" stroke-width="1"/>
<text x="153.8" y="72.4" font-size="9" fill="#3b82f6" text-anchor="middle" font-family="system-ui, -apple-system, sans-serif" font-weight="600" opacity="0.9">v0.5.0</text>
<circle cx="184.0" cy="72.9" r="3" fill="#3b82f6" stroke="white" stroke-width="1"/>
<text x="184.0" y="64.9" font-size="9" fill="#3b82f6" text-anchor="middle" font-family="system-ui, -apple-system, sans-serif" font-weight="600" opacity="0.9">v0.6.0</text>
<circle cx="214.2" cy="77.7" r="3" fill="#3b82f6" stroke="white" stroke-width="1"/>
<text x="214.2" y="69.7" font-size="9" fill="#3b82f6" text-anchor="middle" font-family="system-ui, -apple-system, sans-serif" font-weight="600" opacity="0.9">v0.6.1</text>
<circle cx="244.5" cy="71.9" r="3" fill="#3b82f6" stroke="white" stroke-width="1"/>
<text x="244.5" y="63.9" font-size="9" fill="#3b82f6" text-anchor="middle" font-family="system-ui, -apple-system, sans-serif" font-weight="600" opacity="0.9">v0.7.0</text>
<circle cx="274.8" cy="112.0" r="3" fill="#3b82f6" stroke="white" stroke-width="1"/>
<text x="274.8" y="104.0" font-size="9" fill="#3b82f6" text-anchor="middle" font-family="system-ui, -apple-system, sans-serif" font-weight="600" opacity="0.9">v0.7.0 (69.84M ops/s)</text>
<circle cx="305.0" cy="23.0" r="3" fill="#3b82f6" stroke="white" stroke-width="1"/>
<text x="305.0" y="17.0" font-size="9" fill="#3b82f6" text-anchor="middle" font-family="system-ui, -apple-system, sans-serif" font-weight="600" opacity="0.9">v0.7.0 (113.09M ops/s)</text>
<circle cx="335.2" cy="90.8" r="3" fill="#3b82f6" stroke="white" stroke-width="1"/>
<text x="335.2" y="82.8" font-size="9" fill="#3b82f6" text-anchor="middle" font-family="system-ui, -apple-system, sans-serif" font-weight="600" opacity="0.9">v0.8.0</text>
<circle cx="365.5" cy="80.1" r="3" fill="#3b82f6" stroke="white" stroke-width="1"/>
<text x="365.5" y="72.1" font-size="9" fill="#3b82f6" text-anchor="middle" font-family="system-ui, -apple-system, sans-serif" font-weight="600" opacity="0.9">v0.8.0</text>
<circle cx="395.8" cy="72.6" r="3" fill="#3b82f6" stroke="white" stroke-width="1"/>
<text x="395.8" y="64.6" font-size="9" fill="#3b82f6" text-anchor="middle" font-family="system-ui, -apple-system, sans-serif" font-weight="600" opacity="0.9">v0.8.0</text>
<circle cx="426.0" cy="81.5" r="3" fill="#3b82f6" stroke="white" stroke-width="1"/>
<text x="426.0" y="73.5" font-size="9" fill="#3b82f6" text-anchor="middle" font-family="system-ui, -apple-system, sans-serif" font-weight="600" opacity="0.9">v0.8.0</text>
<circle cx="456.2" cy="79.9" r="3" fill="#3b82f6" stroke="white" stroke-width="1"/>
<text x="456.2" y="71.9" font-size="9" fill="#3b82f6" text-anchor="middle" font-family="system-ui, -apple-system, sans-serif" font-weight="600" opacity="0.9">v0.8.0</text>
<circle cx="486.5" cy="72.1" r="3" fill="#3b82f6" stroke="white" stroke-width="1"/>
<text x="486.5" y="64.1" font-size="9" fill="#3b82f6" text-anchor="middle" font-family="system-ui, -apple-system, sans-serif" font-weight="600" opacity="0.9">v0.8.0</text>
<circle cx="516.8" cy="91.9" r="3" fill="#3b82f6" stroke="white" stroke-width="1"/>
<text x="516.8" y="83.9" font-size="9" fill="#3b82f6" text-anchor="middle" font-family="system-ui, -apple-system, sans-serif" font-weight="600" opacity="0.9">v0.9.0</text>
<circle cx="547.0" cy="71.2" r="3" fill="#3b82f6" stroke="white" stroke-width="1"/>
<text x="547.0" y="63.2" font-size="9" fill="#3b82f6" text-anchor="middle" font-family="system-ui, -apple-system, sans-serif" font-weight="600" opacity="0.9">v0.9.0</text>
</svg>