<svg width="615" height="120" viewBox="0 0 615 120" xmlns="http://www.w3.org/2000/svg">
<rect width="615" height="120" fill="transparent"/>
<line x1="63" y1="67.5" x2="547" y2="67.5" stroke="currentColor" stroke-width="0.5" opacity="0.2" stroke-dasharray="2,2"/>
<polyline fill="none" stroke="#3b82f6" stroke-width="2" points="48.0,63.1 95.3,63.2 127.5,60.9 159.8,61.6 192.1,23.0 224.3,67.2 256.6,66.5 288.9,73.2 321.1,29.6 353.4,63.1 385.7,68.6 417.9,67.2 450.2,62.9 482.5,112.0 514.7,110.0 547.0,111.7" stroke-linecap="round" stroke-linejoin="round"/>
<circle cx="48.0" cy="63.1" r="3" fill="#3b82f6" stroke="white" stroke-width="1"/>
<text x="48.0" y="55.1" font-size="9" fill="#3b82f6" text-anchor="middle" font-family="system-ui, -apple-system, sans-serif" font-weight="600" opacity="0.9">v0.4.1</text>
<circle cx="95.3" cy="63.2" r="3" fill="#3b82f6" stroke="white" stroke-width="1"/>
<text x="95.3" y="55.2" font-size="9" fill="#3b82f6" text-anchor="middle" font-family="system-ui, -apple-system, sans-serif" font-weight="600" opacity="0.9">v0.4.1</text>
<circle cx="127.5" cy="60.9" r="3" fill="#3b82f6" stroke="white" stroke-width="1"/>
<text x="127.5" y="52.9" font-size="9" fill="#3b82f6" text-anchor="middle" font-family="system-ui, -apple-system, sans-serif" font-weight="600" opacity="0.9">v0.5.0</text>
<circle cx="159.8" cy="61.6" r="3" fill="#3b82f6" stroke="white" stroke-width="1"/>
<text x="159.8" y="53.6" font-size="9" fill="#3b82f6" text-anchor="middle" font-family="system-ui, -apple-system, sans-serif" font-weight="600" opacity="0.9">v0.5.0</text>
<circle cx="192.1" cy="23.0" r="3" fill="#3b82f6" stroke="white" stroke-width="1"/>
<text x="192.1" y="17.0" font-size="9" fill="#3b82f6" text-anchor="middle" font-family="system-ui, -apple-system, sans-serif" font-weight="600" opacity="0.9">v0.6.0 (74.18M ops/s)</text>
<circle cx="224.3" cy="67.2" r="3" fill="#3b82f6" stroke="white" stroke-width="1"/>
<text x="224.3" y="59.2" font-size="9" fill="#3b82f6" text-anchor="middle" font-family="system-ui, -apple-system, sans-serif" font-weight="600" opacity="0.9">v0.6.1</text>
<circle cx="256.6" cy="66.5" r="3" fill="#3b82f6" stroke="white" stroke-width="1"/>
<text x="256.6" y="58.5" font-size="9" fill="#3b82f6" text-anchor="middle" font-family="system-ui, -apple-system, sans-serif" font-weight="600" opacity="0.9">v0.7.0</text>
<circle cx="288.9" cy="73.2" r="3" fill="#3b82f6" stroke="white" stroke-width="1"/>
<text x="288.9" y="65.2" font-size="9" fill="#3b82f6" text-anchor="middle" font-family="system-ui, -apple-system, sans-serif" font-weight="600" opacity="0.9">v0.7.0</text>
<circle cx="321.1" cy="29.6" r="3" fill="#3b82f6" stroke="white" stroke-width="1"/>
<text x="321.1" y="21.6" font-size="9" fill="#3b82f6" text-anchor="middle" font-family="system-ui, -apple-system, sans-serif" font-weight="600" opacity="0.9">v0.7.0</text>
<circle cx="353.4" cy="63.1" r="3" fill="#3b82f6" stroke="white" stroke-width="1"/>
<text x="353.4" y="55.1" font-size="9" fill="#3b82f6" text-anchor="middle" font-family="system-ui, -apple-system, sans-serif" font-weight="600" opacity="0.9">v0.8.0</text>
<circle cx="385.7" cy="68.6" r="3" fill="#3b82f6" stroke="white" stroke-width="1"/>
<text x="385.7" y="60.6" font-size="9" fill="#3b82f6" text-anchor="middle" font-family="system-ui, -apple-system, sans-serif" font-weight="600" opacity="0.9">v0.8.0</text>
<circle cx="417.9" cy="67.2" r="3" fill="#3b82f6" stroke="white" stroke-width="1"/>
<text x="417.9" y="59.2" font-size="9" fill="#3b82f6" text-anchor="middle" font-family="system-ui, -apple-system, sans-serif" font-weight="600" opacity="0.9">v0.8.0</text>
<circle cx="450.2" cy="62.9" r="3" fill="#3b82f6" stroke="white" stroke-width="1"/>
<text x="450.2" y="54.9" font-size="9" fill="#3b82f6" text-anchor="middle" font-family="system-ui, -apple-system, sans-serif" font-weight="600" opacity="0.9">v0.8.0</text>
<circle cx="482.5" cy="112.0" r="3" fill="#3b82f6" stroke="white" stroke-width="1"/>
<text x="482.5" y="104.0" font-size="9" fill="#3b82f6" text-anchor="middle" font-family="system-ui, -apple-system, sans-serif" font-weight="600" opacity="0.9">v0.8.0 (41.00M ops/s)</text>
<circle cx="514.7" cy="110.0" r="3" fill="#3b82f6" stroke="white" stroke-width="1"/>
<text x="514.7" y="102.0" font-size="9" fill="#3b82f6" text-anchor="middle" font-family="system-ui, -apple-system, sans-serif" font-weight="600" opacity="0.9">v0.8.0</text>
<circle cx="547.0" cy="111.7" r="3" fill="#3b82f6" stroke="white" stroke-width="1"/>
<text x="547.0" y="103.7" font-size="9" fill="#3b82f6" text-anchor="middle" font-family="system-ui, -apple-system, sans-serif" font-weight="600" opacity="0.9">v0.9.0</text>
</svg>