<svg width="615" height="120" viewBox="0 0 615 120" xmlns="http://www.w3.org/2000/svg">
<rect width="615" height="120" fill="transparent"/>
<line x1="63" y1="67.5" x2="547" y2="67.5" stroke="currentColor" stroke-width="0.5" opacity="0.2" stroke-dasharray="2,2"/>
<polyline fill="none" stroke="#3b82f6" stroke-width="2" points="48.0,111.8 107.0,111.8 151.0,112.0 195.0,111.8 239.0,61.1 283.0,59.7 327.0,58.8 371.0,55.8 415.0,23.0 459.0,49.5 503.0,50.4 547.0,58.8" stroke-linecap="round" stroke-linejoin="round"/>
<circle cx="48.0" cy="111.8" r="3" fill="#3b82f6" stroke="white" stroke-width="1"/>
<text x="48.0" y="103.8" font-size="9" fill="#3b82f6" text-anchor="middle" font-family="system-ui, -apple-system, sans-serif" font-weight="600" opacity="0.9">v0.4.1</text>
<circle cx="107.0" cy="111.8" r="3" fill="#3b82f6" stroke="white" stroke-width="1"/>
<text x="107.0" y="103.8" font-size="9" fill="#3b82f6" text-anchor="middle" font-family="system-ui, -apple-system, sans-serif" font-weight="600" opacity="0.9">v0.4.1</text>
<circle cx="151.0" cy="112.0" r="3" fill="#3b82f6" stroke="white" stroke-width="1"/>
<text x="151.0" y="104.0" font-size="9" fill="#3b82f6" text-anchor="middle" font-family="system-ui, -apple-system, sans-serif" font-weight="600" opacity="0.9">v0.5.0 (160.26M ops/s)</text>
<circle cx="195.0" cy="111.8" r="3" fill="#3b82f6" stroke="white" stroke-width="1"/>
<text x="195.0" y="103.8" font-size="9" fill="#3b82f6" text-anchor="middle" font-family="system-ui, -apple-system, sans-serif" font-weight="600" opacity="0.9">v0.5.0</text>
<circle cx="239.0" cy="61.1" r="3" fill="#3b82f6" stroke="white" stroke-width="1"/>
<text x="239.0" y="53.1" font-size="9" fill="#3b82f6" text-anchor="middle" font-family="system-ui, -apple-system, sans-serif" font-weight="600" opacity="0.9">v0.6.0</text>
<circle cx="283.0" cy="59.7" r="3" fill="#3b82f6" stroke="white" stroke-width="1"/>
<text x="283.0" y="51.7" font-size="9" fill="#3b82f6" text-anchor="middle" font-family="system-ui, -apple-system, sans-serif" font-weight="600" opacity="0.9">v0.6.1</text>
<circle cx="327.0" cy="58.8" r="3" fill="#3b82f6" stroke="white" stroke-width="1"/>
<text x="327.0" y="50.8" font-size="9" fill="#3b82f6" text-anchor="middle" font-family="system-ui, -apple-system, sans-serif" font-weight="600" opacity="0.9">v0.7.0</text>
<circle cx="371.0" cy="55.8" r="3" fill="#3b82f6" stroke="white" stroke-width="1"/>
<text x="371.0" y="47.8" font-size="9" fill="#3b82f6" text-anchor="middle" font-family="system-ui, -apple-system, sans-serif" font-weight="600" opacity="0.9">v0.7.0</text>
<circle cx="415.0" cy="23.0" r="3" fill="#3b82f6" stroke="white" stroke-width="1"/>
<text x="415.0" y="17.0" font-size="9" fill="#3b82f6" text-anchor="middle" font-family="system-ui, -apple-system, sans-serif" font-weight="600" opacity="0.9">v0.7.0 (363.39M ops/s)</text>
<circle cx="459.0" cy="49.5" r="3" fill="#3b82f6" stroke="white" stroke-width="1"/>
<text x="459.0" y="41.5" font-size="9" fill="#3b82f6" text-anchor="middle" font-family="system-ui, -apple-system, sans-serif" font-weight="600" opacity="0.9">v0.8.0</text>
<circle cx="503.0" cy="50.4" r="3" fill="#3b82f6" stroke="white" stroke-width="1"/>
<text x="503.0" y="42.4" font-size="9" fill="#3b82f6" text-anchor="middle" font-family="system-ui, -apple-system, sans-serif" font-weight="600" opacity="0.9">v0.8.0</text>
<circle cx="547.0" cy="58.8" r="3" fill="#3b82f6" stroke="white" stroke-width="1"/>
<text x="547.0" y="50.8" font-size="9" fill="#3b82f6" text-anchor="middle" font-family="system-ui, -apple-system, sans-serif" font-weight="600" opacity="0.9">v0.8.0</text>
</svg>