<svg width="615" height="120" viewBox="0 0 615 120" xmlns="http://www.w3.org/2000/svg">
<rect width="615" height="120" fill="transparent"/>
<line x1="63" y1="67.5" x2="547" y2="67.5" stroke="currentColor" stroke-width="0.5" opacity="0.2" stroke-dasharray="2,2"/>
<polyline fill="none" stroke="#3b82f6" stroke-width="2" points="48.0,109.8 107.0,105.9 151.0,112.0 195.0,105.9 239.0,48.9 283.0,65.2 327.0,65.7 371.0,55.9 415.0,23.0 459.0,57.7 503.0,56.9 547.0,66.3" stroke-linecap="round" stroke-linejoin="round"/>
<circle cx="48.0" cy="109.8" r="3" fill="#3b82f6" stroke="white" stroke-width="1"/>
<text x="48.0" y="101.8" font-size="9" fill="#3b82f6" text-anchor="middle" font-family="system-ui, -apple-system, sans-serif" font-weight="600" opacity="0.9">v0.4.1</text>
<circle cx="107.0" cy="105.9" r="3" fill="#3b82f6" stroke="white" stroke-width="1"/>
<text x="107.0" y="97.9" font-size="9" fill="#3b82f6" text-anchor="middle" font-family="system-ui, -apple-system, sans-serif" font-weight="600" opacity="0.9">v0.4.1</text>
<circle cx="151.0" cy="112.0" r="3" fill="#3b82f6" stroke="white" stroke-width="1"/>
<text x="151.0" y="104.0" font-size="9" fill="#3b82f6" text-anchor="middle" font-family="system-ui, -apple-system, sans-serif" font-weight="600" opacity="0.9">v0.5.0 (433.25M ops/s)</text>
<circle cx="195.0" cy="105.9" r="3" fill="#3b82f6" stroke="white" stroke-width="1"/>
<text x="195.0" y="97.9" font-size="9" fill="#3b82f6" text-anchor="middle" font-family="system-ui, -apple-system, sans-serif" font-weight="600" opacity="0.9">v0.5.0</text>
<circle cx="239.0" cy="48.9" r="3" fill="#3b82f6" stroke="white" stroke-width="1"/>
<text x="239.0" y="40.9" font-size="9" fill="#3b82f6" text-anchor="middle" font-family="system-ui, -apple-system, sans-serif" font-weight="600" opacity="0.9">v0.6.0</text>
<circle cx="283.0" cy="65.2" r="3" fill="#3b82f6" stroke="white" stroke-width="1"/>
<text x="283.0" y="57.2" font-size="9" fill="#3b82f6" text-anchor="middle" font-family="system-ui, -apple-system, sans-serif" font-weight="600" opacity="0.9">v0.6.1</text>
<circle cx="327.0" cy="65.7" r="3" fill="#3b82f6" stroke="white" stroke-width="1"/>
<text x="327.0" y="57.7" font-size="9" fill="#3b82f6" text-anchor="middle" font-family="system-ui, -apple-system, sans-serif" font-weight="600" opacity="0.9">v0.7.0</text>
<circle cx="371.0" cy="55.9" r="3" fill="#3b82f6" stroke="white" stroke-width="1"/>
<text x="371.0" y="47.9" font-size="9" fill="#3b82f6" text-anchor="middle" font-family="system-ui, -apple-system, sans-serif" font-weight="600" opacity="0.9">v0.7.0</text>
<circle cx="415.0" cy="23.0" r="3" fill="#3b82f6" stroke="white" stroke-width="1"/>
<text x="415.0" y="17.0" font-size="9" fill="#3b82f6" text-anchor="middle" font-family="system-ui, -apple-system, sans-serif" font-weight="600" opacity="0.9">v0.7.0 (808.49M ops/s)</text>
<circle cx="459.0" cy="57.7" r="3" fill="#3b82f6" stroke="white" stroke-width="1"/>
<text x="459.0" y="49.7" font-size="9" fill="#3b82f6" text-anchor="middle" font-family="system-ui, -apple-system, sans-serif" font-weight="600" opacity="0.9">v0.8.0</text>
<circle cx="503.0" cy="56.9" r="3" fill="#3b82f6" stroke="white" stroke-width="1"/>
<text x="503.0" y="48.9" font-size="9" fill="#3b82f6" text-anchor="middle" font-family="system-ui, -apple-system, sans-serif" font-weight="600" opacity="0.9">v0.8.0</text>
<circle cx="547.0" cy="66.3" r="3" fill="#3b82f6" stroke="white" stroke-width="1"/>
<text x="547.0" y="58.3" font-size="9" fill="#3b82f6" text-anchor="middle" font-family="system-ui, -apple-system, sans-serif" font-weight="600" opacity="0.9">v0.8.0</text>
</svg>