<svg width="615" height="120" viewBox="0 0 615 120" xmlns="http://www.w3.org/2000/svg">
<rect width="615" height="120" fill="transparent"/>
<line x1="63" y1="67.5" x2="547" y2="67.5" stroke="currentColor" stroke-width="0.5" opacity="0.2" stroke-dasharray="2,2"/>
<polyline fill="none" stroke="#3b82f6" stroke-width="2" points="48.0,86.5 100.2,87.4 137.5,89.6 174.7,80.4 211.9,80.8 249.2,75.8 286.4,74.4 323.6,112.0 360.8,23.0 398.1,82.9 435.3,81.9 472.5,74.1 509.8,82.8 547.0,82.3" stroke-linecap="round" stroke-linejoin="round"/>
<circle cx="48.0" cy="86.5" r="3" fill="#3b82f6" stroke="white" stroke-width="1"/>
<text x="48.0" y="78.5" font-size="9" fill="#3b82f6" text-anchor="middle" font-family="system-ui, -apple-system, sans-serif" font-weight="600" opacity="0.9">v0.4.1</text>
<circle cx="100.2" cy="87.4" r="3" fill="#3b82f6" stroke="white" stroke-width="1"/>
<text x="100.2" y="79.4" font-size="9" fill="#3b82f6" text-anchor="middle" font-family="system-ui, -apple-system, sans-serif" font-weight="600" opacity="0.9">v0.4.1</text>
<circle cx="137.5" cy="89.6" r="3" fill="#3b82f6" stroke="white" stroke-width="1"/>
<text x="137.5" y="81.6" font-size="9" fill="#3b82f6" text-anchor="middle" font-family="system-ui, -apple-system, sans-serif" font-weight="600" opacity="0.9">v0.5.0</text>
<circle cx="174.7" cy="80.4" r="3" fill="#3b82f6" stroke="white" stroke-width="1"/>
<text x="174.7" y="72.4" font-size="9" fill="#3b82f6" text-anchor="middle" font-family="system-ui, -apple-system, sans-serif" font-weight="600" opacity="0.9">v0.5.0</text>
<circle cx="211.9" cy="80.8" r="3" fill="#3b82f6" stroke="white" stroke-width="1"/>
<text x="211.9" y="72.8" font-size="9" fill="#3b82f6" text-anchor="middle" font-family="system-ui, -apple-system, sans-serif" font-weight="600" opacity="0.9">v0.6.0</text>
<circle cx="249.2" cy="75.8" r="3" fill="#3b82f6" stroke="white" stroke-width="1"/>
<text x="249.2" y="67.8" font-size="9" fill="#3b82f6" text-anchor="middle" font-family="system-ui, -apple-system, sans-serif" font-weight="600" opacity="0.9">v0.6.1</text>
<circle cx="286.4" cy="74.4" r="3" fill="#3b82f6" stroke="white" stroke-width="1"/>
<text x="286.4" y="66.4" font-size="9" fill="#3b82f6" text-anchor="middle" font-family="system-ui, -apple-system, sans-serif" font-weight="600" opacity="0.9">v0.7.0</text>
<circle cx="323.6" cy="112.0" r="3" fill="#3b82f6" stroke="white" stroke-width="1"/>
<text x="323.6" y="104.0" font-size="9" fill="#3b82f6" text-anchor="middle" font-family="system-ui, -apple-system, sans-serif" font-weight="600" opacity="0.9">v0.7.0 (69.54M ops/s)</text>
<circle cx="360.8" cy="23.0" r="3" fill="#3b82f6" stroke="white" stroke-width="1"/>
<text x="360.8" y="17.0" font-size="9" fill="#3b82f6" text-anchor="middle" font-family="system-ui, -apple-system, sans-serif" font-weight="600" opacity="0.9">v0.7.0 (115.92M ops/s)</text>
<circle cx="398.1" cy="82.9" r="3" fill="#3b82f6" stroke="white" stroke-width="1"/>
<text x="398.1" y="74.9" font-size="9" fill="#3b82f6" text-anchor="middle" font-family="system-ui, -apple-system, sans-serif" font-weight="600" opacity="0.9">v0.8.0</text>
<circle cx="435.3" cy="81.9" r="3" fill="#3b82f6" stroke="white" stroke-width="1"/>
<text x="435.3" y="73.9" font-size="9" fill="#3b82f6" text-anchor="middle" font-family="system-ui, -apple-system, sans-serif" font-weight="600" opacity="0.9">v0.8.0</text>
<circle cx="472.5" cy="74.1" r="3" fill="#3b82f6" stroke="white" stroke-width="1"/>
<text x="472.5" y="66.1" font-size="9" fill="#3b82f6" text-anchor="middle" font-family="system-ui, -apple-system, sans-serif" font-weight="600" opacity="0.9">v0.8.0</text>
<circle cx="509.8" cy="82.8" r="3" fill="#3b82f6" stroke="white" stroke-width="1"/>
<text x="509.8" y="74.8" font-size="9" fill="#3b82f6" text-anchor="middle" font-family="system-ui, -apple-system, sans-serif" font-weight="600" opacity="0.9">v0.8.0</text>
<circle cx="547.0" cy="82.3" r="3" fill="#3b82f6" stroke="white" stroke-width="1"/>
<text x="547.0" y="74.3" font-size="9" fill="#3b82f6" text-anchor="middle" font-family="system-ui, -apple-system, sans-serif" font-weight="600" opacity="0.9">v0.8.0</text>
</svg>