<svg width="615" height="120" viewBox="0 0 615 120" xmlns="http://www.w3.org/2000/svg">
<rect width="615" height="120" fill="transparent"/>
<line x1="63" y1="67.5" x2="547" y2="67.5" stroke="currentColor" stroke-width="0.5" opacity="0.2" stroke-dasharray="2,2"/>
<polyline fill="none" stroke="#3b82f6" stroke-width="2" points="48.0,79.5 95.3,83.5 127.5,82.2 159.8,82.1 192.1,47.8 224.3,112.0 256.6,102.7 288.9,75.9 321.1,23.0 353.4,79.8 385.7,80.8 417.9,105.0 450.2,95.7 482.5,76.6 514.7,100.7 547.0,81.0" stroke-linecap="round" stroke-linejoin="round"/>
<circle cx="48.0" cy="79.5" r="3" fill="#3b82f6" stroke="white" stroke-width="1"/>
<text x="48.0" y="71.5" font-size="9" fill="#3b82f6" text-anchor="middle" font-family="system-ui, -apple-system, sans-serif" font-weight="600" opacity="0.9">v0.4.1</text>
<circle cx="95.3" cy="83.5" r="3" fill="#3b82f6" stroke="white" stroke-width="1"/>
<text x="95.3" y="75.5" font-size="9" fill="#3b82f6" text-anchor="middle" font-family="system-ui, -apple-system, sans-serif" font-weight="600" opacity="0.9">v0.4.1</text>
<circle cx="127.5" cy="82.2" r="3" fill="#3b82f6" stroke="white" stroke-width="1"/>
<text x="127.5" y="74.2" font-size="9" fill="#3b82f6" text-anchor="middle" font-family="system-ui, -apple-system, sans-serif" font-weight="600" opacity="0.9">v0.5.0</text>
<circle cx="159.8" cy="82.1" r="3" fill="#3b82f6" stroke="white" stroke-width="1"/>
<text x="159.8" y="74.1" font-size="9" fill="#3b82f6" text-anchor="middle" font-family="system-ui, -apple-system, sans-serif" font-weight="600" opacity="0.9">v0.5.0</text>
<circle cx="192.1" cy="47.8" r="3" fill="#3b82f6" stroke="white" stroke-width="1"/>
<text x="192.1" y="39.8" font-size="9" fill="#3b82f6" text-anchor="middle" font-family="system-ui, -apple-system, sans-serif" font-weight="600" opacity="0.9">v0.6.0</text>
<circle cx="224.3" cy="112.0" r="3" fill="#3b82f6" stroke="white" stroke-width="1"/>
<text x="224.3" y="104.0" font-size="9" fill="#3b82f6" text-anchor="middle" font-family="system-ui, -apple-system, sans-serif" font-weight="600" opacity="0.9">v0.6.1 (11.34M ops/s)</text>
<circle cx="256.6" cy="102.7" r="3" fill="#3b82f6" stroke="white" stroke-width="1"/>
<text x="256.6" y="94.7" font-size="9" fill="#3b82f6" text-anchor="middle" font-family="system-ui, -apple-system, sans-serif" font-weight="600" opacity="0.9">v0.7.0</text>
<circle cx="288.9" cy="75.9" r="3" fill="#3b82f6" stroke="white" stroke-width="1"/>
<text x="288.9" y="67.9" font-size="9" fill="#3b82f6" text-anchor="middle" font-family="system-ui, -apple-system, sans-serif" font-weight="600" opacity="0.9">v0.7.0</text>
<circle cx="321.1" cy="23.0" r="3" fill="#3b82f6" stroke="white" stroke-width="1"/>
<text x="321.1" y="17.0" font-size="9" fill="#3b82f6" text-anchor="middle" font-family="system-ui, -apple-system, sans-serif" font-weight="600" opacity="0.9">v0.7.0 (14.81M ops/s)</text>
<circle cx="353.4" cy="79.8" r="3" fill="#3b82f6" stroke="white" stroke-width="1"/>
<text x="353.4" y="71.8" font-size="9" fill="#3b82f6" text-anchor="middle" font-family="system-ui, -apple-system, sans-serif" font-weight="600" opacity="0.9">v0.8.0</text>
<circle cx="385.7" cy="80.8" r="3" fill="#3b82f6" stroke="white" stroke-width="1"/>
<text x="385.7" y="72.8" font-size="9" fill="#3b82f6" text-anchor="middle" font-family="system-ui, -apple-system, sans-serif" font-weight="600" opacity="0.9">v0.8.0</text>
<circle cx="417.9" cy="105.0" r="3" fill="#3b82f6" stroke="white" stroke-width="1"/>
<text x="417.9" y="97.0" font-size="9" fill="#3b82f6" text-anchor="middle" font-family="system-ui, -apple-system, sans-serif" font-weight="600" opacity="0.9">v0.8.0</text>
<circle cx="450.2" cy="95.7" r="3" fill="#3b82f6" stroke="white" stroke-width="1"/>
<text x="450.2" y="87.7" font-size="9" fill="#3b82f6" text-anchor="middle" font-family="system-ui, -apple-system, sans-serif" font-weight="600" opacity="0.9">v0.8.0</text>
<circle cx="482.5" cy="76.6" r="3" fill="#3b82f6" stroke="white" stroke-width="1"/>
<text x="482.5" y="68.6" font-size="9" fill="#3b82f6" text-anchor="middle" font-family="system-ui, -apple-system, sans-serif" font-weight="600" opacity="0.9">v0.8.0</text>
<circle cx="514.7" cy="100.7" r="3" fill="#3b82f6" stroke="white" stroke-width="1"/>
<text x="514.7" y="92.7" font-size="9" fill="#3b82f6" text-anchor="middle" font-family="system-ui, -apple-system, sans-serif" font-weight="600" opacity="0.9">v0.8.0</text>
<circle cx="547.0" cy="81.0" r="3" fill="#3b82f6" stroke="white" stroke-width="1"/>
<text x="547.0" y="73.0" font-size="9" fill="#3b82f6" text-anchor="middle" font-family="system-ui, -apple-system, sans-serif" font-weight="600" opacity="0.9">v0.9.0</text>
</svg>