<svg width="615" height="120" viewBox="0 0 615 120" xmlns="http://www.w3.org/2000/svg">
<rect width="615" height="120" fill="transparent"/>
<line x1="63" y1="67.5" x2="547" y2="67.5" stroke="currentColor" stroke-width="0.5" opacity="0.2" stroke-dasharray="2,2"/>
<polyline fill="none" stroke="#3b82f6" stroke-width="2" points="48.0,86.4 107.0,112.0 151.0,86.5 195.0,91.5 239.0,55.7 283.0,56.4 327.0,49.4 371.0,23.0 415.0,49.4 459.0,49.6 503.0,56.1 547.0,49.5" stroke-linecap="round" stroke-linejoin="round"/>
<circle cx="48.0" cy="86.4" r="3" fill="#3b82f6" stroke="white" stroke-width="1"/>
<text x="48.0" y="78.4" font-size="9" fill="#3b82f6" text-anchor="middle" font-family="system-ui, -apple-system, sans-serif" font-weight="600" opacity="0.9">v0.4.1</text>
<circle cx="107.0" cy="112.0" r="3" fill="#3b82f6" stroke="white" stroke-width="1"/>
<text x="107.0" y="104.0" font-size="9" fill="#3b82f6" text-anchor="middle" font-family="system-ui, -apple-system, sans-serif" font-weight="600" opacity="0.9">v0.5.0 (323.99M ops/s)</text>
<circle cx="151.0" cy="86.5" r="3" fill="#3b82f6" stroke="white" stroke-width="1"/>
<text x="151.0" y="78.5" font-size="9" fill="#3b82f6" text-anchor="middle" font-family="system-ui, -apple-system, sans-serif" font-weight="600" opacity="0.9">v0.5.0</text>
<circle cx="195.0" cy="91.5" r="3" fill="#3b82f6" stroke="white" stroke-width="1"/>
<text x="195.0" y="83.5" font-size="9" fill="#3b82f6" text-anchor="middle" font-family="system-ui, -apple-system, sans-serif" font-weight="600" opacity="0.9">v0.6.0</text>
<circle cx="239.0" cy="55.7" r="3" fill="#3b82f6" stroke="white" stroke-width="1"/>
<text x="239.0" y="47.7" font-size="9" fill="#3b82f6" text-anchor="middle" font-family="system-ui, -apple-system, sans-serif" font-weight="600" opacity="0.9">v0.6.1</text>
<circle cx="283.0" cy="56.4" r="3" fill="#3b82f6" stroke="white" stroke-width="1"/>
<text x="283.0" y="48.4" font-size="9" fill="#3b82f6" text-anchor="middle" font-family="system-ui, -apple-system, sans-serif" font-weight="600" opacity="0.9">v0.7.0</text>
<circle cx="327.0" cy="49.4" r="3" fill="#3b82f6" stroke="white" stroke-width="1"/>
<text x="327.0" y="41.4" font-size="9" fill="#3b82f6" text-anchor="middle" font-family="system-ui, -apple-system, sans-serif" font-weight="600" opacity="0.9">v0.7.0</text>
<circle cx="371.0" cy="23.0" r="3" fill="#3b82f6" stroke="white" stroke-width="1"/>
<text x="371.0" y="17.0" font-size="9" fill="#3b82f6" text-anchor="middle" font-family="system-ui, -apple-system, sans-serif" font-weight="600" opacity="0.9">v0.7.0 (794.30M ops/s)</text>
<circle cx="415.0" cy="49.4" r="3" fill="#3b82f6" stroke="white" stroke-width="1"/>
<text x="415.0" y="41.4" font-size="9" fill="#3b82f6" text-anchor="middle" font-family="system-ui, -apple-system, sans-serif" font-weight="600" opacity="0.9">v0.8.0</text>
<circle cx="459.0" cy="49.6" r="3" fill="#3b82f6" stroke="white" stroke-width="1"/>
<text x="459.0" y="41.6" font-size="9" fill="#3b82f6" text-anchor="middle" font-family="system-ui, -apple-system, sans-serif" font-weight="600" opacity="0.9">v0.8.0</text>
<circle cx="503.0" cy="56.1" r="3" fill="#3b82f6" stroke="white" stroke-width="1"/>
<text x="503.0" y="48.1" font-size="9" fill="#3b82f6" text-anchor="middle" font-family="system-ui, -apple-system, sans-serif" font-weight="600" opacity="0.9">v0.8.0</text>
<circle cx="547.0" cy="49.5" r="3" fill="#3b82f6" stroke="white" stroke-width="1"/>
<text x="547.0" y="41.5" font-size="9" fill="#3b82f6" text-anchor="middle" font-family="system-ui, -apple-system, sans-serif" font-weight="600" opacity="0.9">v0.8.0</text>
</svg>