<svg width="615" height="120" viewBox="0 0 615 120" xmlns="http://www.w3.org/2000/svg">
<rect width="615" height="120" fill="transparent"/>
<line x1="63" y1="67.5" x2="547" y2="67.5" stroke="currentColor" stroke-width="0.5" opacity="0.2" stroke-dasharray="2,2"/>
<polyline fill="none" stroke="#3b82f6" stroke-width="2" points="48.0,111.9 111.4,111.9 159.8,111.9 208.2,112.0 256.6,64.2 305.0,58.5 353.4,59.7 401.8,64.0 450.2,23.0 498.6,57.1 547.0,55.2" stroke-linecap="round" stroke-linejoin="round"/>
<circle cx="48.0" cy="111.9" r="3" fill="#3b82f6" stroke="white" stroke-width="1"/>
<text x="48.0" y="103.9" font-size="9" fill="#3b82f6" text-anchor="middle" font-family="system-ui, -apple-system, sans-serif" font-weight="600" opacity="0.9">v0.4.1</text>
<circle cx="111.4" cy="111.9" r="3" fill="#3b82f6" stroke="white" stroke-width="1"/>
<text x="111.4" y="103.9" font-size="9" fill="#3b82f6" text-anchor="middle" font-family="system-ui, -apple-system, sans-serif" font-weight="600" opacity="0.9">v0.4.1</text>
<circle cx="159.8" cy="111.9" r="3" fill="#3b82f6" stroke="white" stroke-width="1"/>
<text x="159.8" y="103.9" font-size="9" fill="#3b82f6" text-anchor="middle" font-family="system-ui, -apple-system, sans-serif" font-weight="600" opacity="0.9">v0.5.0</text>
<circle cx="208.2" cy="112.0" r="3" fill="#3b82f6" stroke="white" stroke-width="1"/>
<text x="208.2" y="104.0" font-size="9" fill="#3b82f6" text-anchor="middle" font-family="system-ui, -apple-system, sans-serif" font-weight="600" opacity="0.9">v0.5.0 (535.42M ops/s)</text>
<circle cx="256.6" cy="64.2" r="3" fill="#3b82f6" stroke="white" stroke-width="1"/>
<text x="256.6" y="56.2" font-size="9" fill="#3b82f6" text-anchor="middle" font-family="system-ui, -apple-system, sans-serif" font-weight="600" opacity="0.9">v0.6.0</text>
<circle cx="305.0" cy="58.5" r="3" fill="#3b82f6" stroke="white" stroke-width="1"/>
<text x="305.0" y="50.5" font-size="9" fill="#3b82f6" text-anchor="middle" font-family="system-ui, -apple-system, sans-serif" font-weight="600" opacity="0.9">v0.6.1</text>
<circle cx="353.4" cy="59.7" r="3" fill="#3b82f6" stroke="white" stroke-width="1"/>
<text x="353.4" y="51.7" font-size="9" fill="#3b82f6" text-anchor="middle" font-family="system-ui, -apple-system, sans-serif" font-weight="600" opacity="0.9">v0.7.0</text>
<circle cx="401.8" cy="64.0" r="3" fill="#3b82f6" stroke="white" stroke-width="1"/>
<text x="401.8" y="56.0" font-size="9" fill="#3b82f6" text-anchor="middle" font-family="system-ui, -apple-system, sans-serif" font-weight="600" opacity="0.9">v0.7.0</text>
<circle cx="450.2" cy="23.0" r="3" fill="#3b82f6" stroke="white" stroke-width="1"/>
<text x="450.2" y="17.0" font-size="9" fill="#3b82f6" text-anchor="middle" font-family="system-ui, -apple-system, sans-serif" font-weight="600" opacity="0.9">v0.7.0 (1.15B ops/s)</text>
<circle cx="498.6" cy="57.1" r="3" fill="#3b82f6" stroke="white" stroke-width="1"/>
<text x="498.6" y="49.1" font-size="9" fill="#3b82f6" text-anchor="middle" font-family="system-ui, -apple-system, sans-serif" font-weight="600" opacity="0.9">v0.8.0</text>
<circle cx="547.0" cy="55.2" r="3" fill="#3b82f6" stroke="white" stroke-width="1"/>
<text x="547.0" y="47.2" font-size="9" fill="#3b82f6" text-anchor="middle" font-family="system-ui, -apple-system, sans-serif" font-weight="600" opacity="0.9">v0.8.0</text>
</svg>