<svg width="615" height="120" viewBox="0 0 615 120" xmlns="http://www.w3.org/2000/svg">
<rect width="615" height="120" fill="transparent"/>
<line x1="63" y1="67.5" x2="547" y2="67.5" stroke="currentColor" stroke-width="0.5" opacity="0.2" stroke-dasharray="2,2"/>
<polyline fill="none" stroke="#3b82f6" stroke-width="2" points="48.0,65.1 97.6,82.1 132.1,65.2 166.7,68.5 201.3,44.7 235.9,45.2 270.4,40.5 305.0,23.0 339.6,40.5 374.1,40.7 408.7,45.0 443.3,40.6 477.9,109.9 512.4,112.0 547.0,109.9" stroke-linecap="round" stroke-linejoin="round"/>
<circle cx="48.0" cy="65.1" r="3" fill="#3b82f6" stroke="white" stroke-width="1"/>
<text x="48.0" y="57.1" font-size="9" fill="#3b82f6" text-anchor="middle" font-family="system-ui, -apple-system, sans-serif" font-weight="600" opacity="0.9">v0.4.1</text>
<circle cx="97.6" cy="82.1" r="3" fill="#3b82f6" stroke="white" stroke-width="1"/>
<text x="97.6" y="74.1" font-size="9" fill="#3b82f6" text-anchor="middle" font-family="system-ui, -apple-system, sans-serif" font-weight="600" opacity="0.9">v0.5.0</text>
<circle cx="132.1" cy="65.2" r="3" fill="#3b82f6" stroke="white" stroke-width="1"/>
<text x="132.1" y="57.2" font-size="9" fill="#3b82f6" text-anchor="middle" font-family="system-ui, -apple-system, sans-serif" font-weight="600" opacity="0.9">v0.5.0</text>
<circle cx="166.7" cy="68.5" r="3" fill="#3b82f6" stroke="white" stroke-width="1"/>
<text x="166.7" y="60.5" font-size="9" fill="#3b82f6" text-anchor="middle" font-family="system-ui, -apple-system, sans-serif" font-weight="600" opacity="0.9">v0.6.0</text>
<circle cx="201.3" cy="44.7" r="3" fill="#3b82f6" stroke="white" stroke-width="1"/>
<text x="201.3" y="36.7" font-size="9" fill="#3b82f6" text-anchor="middle" font-family="system-ui, -apple-system, sans-serif" font-weight="600" opacity="0.9">v0.6.1</text>
<circle cx="235.9" cy="45.2" r="3" fill="#3b82f6" stroke="white" stroke-width="1"/>
<text x="235.9" y="37.2" font-size="9" fill="#3b82f6" text-anchor="middle" font-family="system-ui, -apple-system, sans-serif" font-weight="600" opacity="0.9">v0.7.0</text>
<circle cx="270.4" cy="40.5" r="3" fill="#3b82f6" stroke="white" stroke-width="1"/>
<text x="270.4" y="32.5" font-size="9" fill="#3b82f6" text-anchor="middle" font-family="system-ui, -apple-system, sans-serif" font-weight="600" opacity="0.9">v0.7.0</text>
<circle cx="305.0" cy="23.0" r="3" fill="#3b82f6" stroke="white" stroke-width="1"/>
<text x="305.0" y="17.0" font-size="9" fill="#3b82f6" text-anchor="middle" font-family="system-ui, -apple-system, sans-serif" font-weight="600" opacity="0.9">v0.7.0 (794.30M ops/s)</text>
<circle cx="339.6" cy="40.5" r="3" fill="#3b82f6" stroke="white" stroke-width="1"/>
<text x="339.6" y="32.5" font-size="9" fill="#3b82f6" text-anchor="middle" font-family="system-ui, -apple-system, sans-serif" font-weight="600" opacity="0.9">v0.8.0</text>
<circle cx="374.1" cy="40.7" r="3" fill="#3b82f6" stroke="white" stroke-width="1"/>
<text x="374.1" y="32.7" font-size="9" fill="#3b82f6" text-anchor="middle" font-family="system-ui, -apple-system, sans-serif" font-weight="600" opacity="0.9">v0.8.0</text>
<circle cx="408.7" cy="45.0" r="3" fill="#3b82f6" stroke="white" stroke-width="1"/>
<text x="408.7" y="37.0" font-size="9" fill="#3b82f6" text-anchor="middle" font-family="system-ui, -apple-system, sans-serif" font-weight="600" opacity="0.9">v0.8.0</text>
<circle cx="443.3" cy="40.6" r="3" fill="#3b82f6" stroke="white" stroke-width="1"/>
<text x="443.3" y="32.6" font-size="9" fill="#3b82f6" text-anchor="middle" font-family="system-ui, -apple-system, sans-serif" font-weight="600" opacity="0.9">v0.8.0</text>
<circle cx="477.9" cy="109.9" r="3" fill="#3b82f6" stroke="white" stroke-width="1"/>
<text x="477.9" y="101.9" font-size="9" fill="#3b82f6" text-anchor="middle" font-family="system-ui, -apple-system, sans-serif" font-weight="600" opacity="0.9">v0.8.0</text>
<circle cx="512.4" cy="112.0" r="3" fill="#3b82f6" stroke="white" stroke-width="1"/>
<text x="512.4" y="104.0" font-size="9" fill="#3b82f6" text-anchor="middle" font-family="system-ui, -apple-system, sans-serif" font-weight="600" opacity="0.9">v0.8.0 (86.04M ops/s)</text>
<circle cx="547.0" cy="109.9" r="3" fill="#3b82f6" stroke="white" stroke-width="1"/>
<text x="547.0" y="101.9" font-size="9" fill="#3b82f6" text-anchor="middle" font-family="system-ui, -apple-system, sans-serif" font-weight="600" opacity="0.9">v0.9.0</text>
</svg>