<svg width="615" height="120" viewBox="0 0 615 120" xmlns="http://www.w3.org/2000/svg">
<rect width="615" height="120" fill="transparent"/>
<line x1="63" y1="67.5" x2="547" y2="67.5" stroke="currentColor" stroke-width="0.5" opacity="0.2" stroke-dasharray="2,2"/>
<polyline fill="none" stroke="#3b82f6" stroke-width="2" points="48.0,64.2 95.3,67.2 127.5,67.0 159.8,46.0 192.1,67.7 224.3,67.4 256.6,64.5 288.9,23.0 321.1,63.4 353.4,64.0 385.7,68.1 417.9,74.0 450.2,107.4 482.5,102.7 514.7,112.0 547.0,103.4" stroke-linecap="round" stroke-linejoin="round"/>
<circle cx="48.0" cy="64.2" r="3" fill="#3b82f6" stroke="white" stroke-width="1"/>
<text x="48.0" y="56.2" font-size="9" fill="#3b82f6" text-anchor="middle" font-family="system-ui, -apple-system, sans-serif" font-weight="600" opacity="0.9">v0.4.1</text>
<circle cx="95.3" cy="67.2" r="3" fill="#3b82f6" stroke="white" stroke-width="1"/>
<text x="95.3" y="59.2" font-size="9" fill="#3b82f6" text-anchor="middle" font-family="system-ui, -apple-system, sans-serif" font-weight="600" opacity="0.9">v0.5.0</text>
<circle cx="127.5" cy="67.0" r="3" fill="#3b82f6" stroke="white" stroke-width="1"/>
<text x="127.5" y="59.0" font-size="9" fill="#3b82f6" text-anchor="middle" font-family="system-ui, -apple-system, sans-serif" font-weight="600" opacity="0.9">v0.5.0</text>
<circle cx="159.8" cy="46.0" r="3" fill="#3b82f6" stroke="white" stroke-width="1"/>
<text x="159.8" y="38.0" font-size="9" fill="#3b82f6" text-anchor="middle" font-family="system-ui, -apple-system, sans-serif" font-weight="600" opacity="0.9">v0.6.0</text>
<circle cx="192.1" cy="67.7" r="3" fill="#3b82f6" stroke="white" stroke-width="1"/>
<text x="192.1" y="59.7" font-size="9" fill="#3b82f6" text-anchor="middle" font-family="system-ui, -apple-system, sans-serif" font-weight="600" opacity="0.9">v0.6.1</text>
<circle cx="224.3" cy="67.4" r="3" fill="#3b82f6" stroke="white" stroke-width="1"/>
<text x="224.3" y="59.4" font-size="9" fill="#3b82f6" text-anchor="middle" font-family="system-ui, -apple-system, sans-serif" font-weight="600" opacity="0.9">v0.7.0</text>
<circle cx="256.6" cy="64.5" r="3" fill="#3b82f6" stroke="white" stroke-width="1"/>
<text x="256.6" y="56.5" font-size="9" fill="#3b82f6" text-anchor="middle" font-family="system-ui, -apple-system, sans-serif" font-weight="600" opacity="0.9">v0.7.0</text>
<circle cx="288.9" cy="23.0" r="3" fill="#3b82f6" stroke="white" stroke-width="1"/>
<text x="288.9" y="17.0" font-size="9" fill="#3b82f6" text-anchor="middle" font-family="system-ui, -apple-system, sans-serif" font-weight="600" opacity="0.9">v0.7.0 (220.88K ops/s)</text>
<circle cx="321.1" cy="63.4" r="3" fill="#3b82f6" stroke="white" stroke-width="1"/>
<text x="321.1" y="55.4" font-size="9" fill="#3b82f6" text-anchor="middle" font-family="system-ui, -apple-system, sans-serif" font-weight="600" opacity="0.9">v0.8.0</text>
<circle cx="353.4" cy="64.0" r="3" fill="#3b82f6" stroke="white" stroke-width="1"/>
<text x="353.4" y="56.0" font-size="9" fill="#3b82f6" text-anchor="middle" font-family="system-ui, -apple-system, sans-serif" font-weight="600" opacity="0.9">v0.8.0</text>
<circle cx="385.7" cy="68.1" r="3" fill="#3b82f6" stroke="white" stroke-width="1"/>
<text x="385.7" y="60.1" font-size="9" fill="#3b82f6" text-anchor="middle" font-family="system-ui, -apple-system, sans-serif" font-weight="600" opacity="0.9">v0.8.0</text>
<circle cx="417.9" cy="74.0" r="3" fill="#3b82f6" stroke="white" stroke-width="1"/>
<text x="417.9" y="66.0" font-size="9" fill="#3b82f6" text-anchor="middle" font-family="system-ui, -apple-system, sans-serif" font-weight="600" opacity="0.9">v0.8.0</text>
<circle cx="450.2" cy="107.4" r="3" fill="#3b82f6" stroke="white" stroke-width="1"/>
<text x="450.2" y="99.4" font-size="9" fill="#3b82f6" text-anchor="middle" font-family="system-ui, -apple-system, sans-serif" font-weight="600" opacity="0.9">v0.8.0</text>
<circle cx="482.5" cy="102.7" r="3" fill="#3b82f6" stroke="white" stroke-width="1"/>
<text x="482.5" y="94.7" font-size="9" fill="#3b82f6" text-anchor="middle" font-family="system-ui, -apple-system, sans-serif" font-weight="600" opacity="0.9">v0.8.0</text>
<circle cx="514.7" cy="112.0" r="3" fill="#3b82f6" stroke="white" stroke-width="1"/>
<text x="514.7" y="104.0" font-size="9" fill="#3b82f6" text-anchor="middle" font-family="system-ui, -apple-system, sans-serif" font-weight="600" opacity="0.9">v0.9.0 (116.28K ops/s)</text>
<circle cx="547.0" cy="103.4" r="3" fill="#3b82f6" stroke="white" stroke-width="1"/>
<text x="547.0" y="95.4" font-size="9" fill="#3b82f6" text-anchor="middle" font-family="system-ui, -apple-system, sans-serif" font-weight="600" opacity="0.9">v0.9.0</text>
</svg>