<svg width="615" height="120" viewBox="0 0 615 120" xmlns="http://www.w3.org/2000/svg">
<rect width="615" height="120" fill="transparent"/>
<line x1="63" y1="67.5" x2="547" y2="67.5" stroke="currentColor" stroke-width="0.5" opacity="0.2" stroke-dasharray="2,2"/>
<polyline fill="none" stroke="#3b82f6" stroke-width="2" points="48.0,81.0 100.2,85.9 137.5,90.4 174.7,80.4 211.9,72.9 249.2,77.7 286.4,71.9 323.6,112.0 360.8,23.0 398.1,90.8 435.3,80.1 472.5,72.6 509.8,81.5 547.0,79.9" stroke-linecap="round" stroke-linejoin="round"/>
<circle cx="48.0" cy="81.0" r="3" fill="#3b82f6" stroke="white" stroke-width="1"/>
<text x="48.0" y="73.0" font-size="9" fill="#3b82f6" text-anchor="middle" font-family="system-ui, -apple-system, sans-serif" font-weight="600" opacity="0.9">v0.4.1</text>
<circle cx="100.2" cy="85.9" r="3" fill="#3b82f6" stroke="white" stroke-width="1"/>
<text x="100.2" y="77.9" font-size="9" fill="#3b82f6" text-anchor="middle" font-family="system-ui, -apple-system, sans-serif" font-weight="600" opacity="0.9">v0.4.1</text>
<circle cx="137.5" cy="90.4" r="3" fill="#3b82f6" stroke="white" stroke-width="1"/>
<text x="137.5" y="82.4" font-size="9" fill="#3b82f6" text-anchor="middle" font-family="system-ui, -apple-system, sans-serif" font-weight="600" opacity="0.9">v0.5.0</text>
<circle cx="174.7" cy="80.4" r="3" fill="#3b82f6" stroke="white" stroke-width="1"/>
<text x="174.7" y="72.4" font-size="9" fill="#3b82f6" text-anchor="middle" font-family="system-ui, -apple-system, sans-serif" font-weight="600" opacity="0.9">v0.5.0</text>
<circle cx="211.9" cy="72.9" r="3" fill="#3b82f6" stroke="white" stroke-width="1"/>
<text x="211.9" y="64.9" font-size="9" fill="#3b82f6" text-anchor="middle" font-family="system-ui, -apple-system, sans-serif" font-weight="600" opacity="0.9">v0.6.0</text>
<circle cx="249.2" cy="77.7" r="3" fill="#3b82f6" stroke="white" stroke-width="1"/>
<text x="249.2" y="69.7" font-size="9" fill="#3b82f6" text-anchor="middle" font-family="system-ui, -apple-system, sans-serif" font-weight="600" opacity="0.9">v0.6.1</text>
<circle cx="286.4" cy="71.9" r="3" fill="#3b82f6" stroke="white" stroke-width="1"/>
<text x="286.4" y="63.9" font-size="9" fill="#3b82f6" text-anchor="middle" font-family="system-ui, -apple-system, sans-serif" font-weight="600" opacity="0.9">v0.7.0</text>
<circle cx="323.6" cy="112.0" r="3" fill="#3b82f6" stroke="white" stroke-width="1"/>
<text x="323.6" y="104.0" font-size="9" fill="#3b82f6" text-anchor="middle" font-family="system-ui, -apple-system, sans-serif" font-weight="600" opacity="0.9">v0.7.0 (69.84M ops/s)</text>
<circle cx="360.8" cy="23.0" r="3" fill="#3b82f6" stroke="white" stroke-width="1"/>
<text x="360.8" y="17.0" font-size="9" fill="#3b82f6" text-anchor="middle" font-family="system-ui, -apple-system, sans-serif" font-weight="600" opacity="0.9">v0.7.0 (113.09M ops/s)</text>
<circle cx="398.1" cy="90.8" r="3" fill="#3b82f6" stroke="white" stroke-width="1"/>
<text x="398.1" y="82.8" font-size="9" fill="#3b82f6" text-anchor="middle" font-family="system-ui, -apple-system, sans-serif" font-weight="600" opacity="0.9">v0.8.0</text>
<circle cx="435.3" cy="80.1" r="3" fill="#3b82f6" stroke="white" stroke-width="1"/>
<text x="435.3" y="72.1" font-size="9" fill="#3b82f6" text-anchor="middle" font-family="system-ui, -apple-system, sans-serif" font-weight="600" opacity="0.9">v0.8.0</text>
<circle cx="472.5" cy="72.6" r="3" fill="#3b82f6" stroke="white" stroke-width="1"/>
<text x="472.5" y="64.6" font-size="9" fill="#3b82f6" text-anchor="middle" font-family="system-ui, -apple-system, sans-serif" font-weight="600" opacity="0.9">v0.8.0</text>
<circle cx="509.8" cy="81.5" r="3" fill="#3b82f6" stroke="white" stroke-width="1"/>
<text x="509.8" y="73.5" font-size="9" fill="#3b82f6" text-anchor="middle" font-family="system-ui, -apple-system, sans-serif" font-weight="600" opacity="0.9">v0.8.0</text>
<circle cx="547.0" cy="79.9" r="3" fill="#3b82f6" stroke="white" stroke-width="1"/>
<text x="547.0" y="71.9" font-size="9" fill="#3b82f6" text-anchor="middle" font-family="system-ui, -apple-system, sans-serif" font-weight="600" opacity="0.9">v0.8.0</text>
</svg>