<svg width="615" height="120" viewBox="0 0 615 120" xmlns="http://www.w3.org/2000/svg">
<rect width="615" height="120" fill="transparent"/>
<line x1="63" y1="67.5" x2="547" y2="67.5" stroke="currentColor" stroke-width="0.5" opacity="0.2" stroke-dasharray="2,2"/>
<polyline fill="none" stroke="#3b82f6" stroke-width="2" points="48.0,92.6 100.2,80.3 137.5,106.8 174.7,85.5 211.9,40.2 249.2,112.0 286.4,104.4 323.6,75.0 360.8,23.0 398.1,82.3 435.3,81.5 472.5,102.6 509.8,84.5 547.0,77.9" stroke-linecap="round" stroke-linejoin="round"/>
<circle cx="48.0" cy="92.6" r="3" fill="#3b82f6" stroke="white" stroke-width="1"/>
<text x="48.0" y="84.6" font-size="9" fill="#3b82f6" text-anchor="middle" font-family="system-ui, -apple-system, sans-serif" font-weight="600" opacity="0.9">v0.4.1</text>
<circle cx="100.2" cy="80.3" r="3" fill="#3b82f6" stroke="white" stroke-width="1"/>
<text x="100.2" y="72.3" font-size="9" fill="#3b82f6" text-anchor="middle" font-family="system-ui, -apple-system, sans-serif" font-weight="600" opacity="0.9">v0.4.1</text>
<circle cx="137.5" cy="106.8" r="3" fill="#3b82f6" stroke="white" stroke-width="1"/>
<text x="137.5" y="98.8" font-size="9" fill="#3b82f6" text-anchor="middle" font-family="system-ui, -apple-system, sans-serif" font-weight="600" opacity="0.9">v0.5.0</text>
<circle cx="174.7" cy="85.5" r="3" fill="#3b82f6" stroke="white" stroke-width="1"/>
<text x="174.7" y="77.5" font-size="9" fill="#3b82f6" text-anchor="middle" font-family="system-ui, -apple-system, sans-serif" font-weight="600" opacity="0.9">v0.5.0</text>
<circle cx="211.9" cy="40.2" r="3" fill="#3b82f6" stroke="white" stroke-width="1"/>
<text x="211.9" y="32.2" font-size="9" fill="#3b82f6" text-anchor="middle" font-family="system-ui, -apple-system, sans-serif" font-weight="600" opacity="0.9">v0.6.0</text>
<circle cx="249.2" cy="112.0" r="3" fill="#3b82f6" stroke="white" stroke-width="1"/>
<text x="249.2" y="104.0" font-size="9" fill="#3b82f6" text-anchor="middle" font-family="system-ui, -apple-system, sans-serif" font-weight="600" opacity="0.9">v0.6.1 (11.30M ops/s)</text>
<circle cx="286.4" cy="104.4" r="3" fill="#3b82f6" stroke="white" stroke-width="1"/>
<text x="286.4" y="96.4" font-size="9" fill="#3b82f6" text-anchor="middle" font-family="system-ui, -apple-system, sans-serif" font-weight="600" opacity="0.9">v0.7.0</text>
<circle cx="323.6" cy="75.0" r="3" fill="#3b82f6" stroke="white" stroke-width="1"/>
<text x="323.6" y="67.0" font-size="9" fill="#3b82f6" text-anchor="middle" font-family="system-ui, -apple-system, sans-serif" font-weight="600" opacity="0.9">v0.7.0</text>
<circle cx="360.8" cy="23.0" r="3" fill="#3b82f6" stroke="white" stroke-width="1"/>
<text x="360.8" y="17.0" font-size="9" fill="#3b82f6" text-anchor="middle" font-family="system-ui, -apple-system, sans-serif" font-weight="600" opacity="0.9">v0.7.0 (14.86M ops/s)</text>
<circle cx="398.1" cy="82.3" r="3" fill="#3b82f6" stroke="white" stroke-width="1"/>
<text x="398.1" y="74.3" font-size="9" fill="#3b82f6" text-anchor="middle" font-family="system-ui, -apple-system, sans-serif" font-weight="600" opacity="0.9">v0.8.0</text>
<circle cx="435.3" cy="81.5" r="3" fill="#3b82f6" stroke="white" stroke-width="1"/>
<text x="435.3" y="73.5" font-size="9" fill="#3b82f6" text-anchor="middle" font-family="system-ui, -apple-system, sans-serif" font-weight="600" opacity="0.9">v0.8.0</text>
<circle cx="472.5" cy="102.6" r="3" fill="#3b82f6" stroke="white" stroke-width="1"/>
<text x="472.5" y="94.6" font-size="9" fill="#3b82f6" text-anchor="middle" font-family="system-ui, -apple-system, sans-serif" font-weight="600" opacity="0.9">v0.8.0</text>
<circle cx="509.8" cy="84.5" r="3" fill="#3b82f6" stroke="white" stroke-width="1"/>
<text x="509.8" y="76.5" font-size="9" fill="#3b82f6" text-anchor="middle" font-family="system-ui, -apple-system, sans-serif" font-weight="600" opacity="0.9">v0.8.0</text>
<circle cx="547.0" cy="77.9" r="3" fill="#3b82f6" stroke="white" stroke-width="1"/>
<text x="547.0" y="69.9" font-size="9" fill="#3b82f6" text-anchor="middle" font-family="system-ui, -apple-system, sans-serif" font-weight="600" opacity="0.9">v0.8.0</text>
</svg>