<svg width="755" height="120" viewBox="0 0 755 120" xmlns="http://www.w3.org/2000/svg">
<rect width="755" height="120" fill="transparent"/>
<line x1="63" y1="67.5" x2="547" y2="67.5" stroke="currentColor" stroke-width="0.5" opacity="0.2" stroke-dasharray="2,2"/>
<polyline fill="none" stroke="#3b82f6" stroke-width="2" points="48.0,61.9 91.5,63.9 119.9,61.7 148.4,61.5 176.9,31.2 205.4,65.7 233.8,67.8 262.3,70.8 290.8,23.0 319.2,65.5 347.7,66.6 376.2,67.1 404.6,65.2 433.1,110.7 461.6,108.2 490.1,110.8 518.5,108.4 547.0,112.0" stroke-linecap="round" stroke-linejoin="round"/>
<circle cx="48.0" cy="61.9" r="3" fill="#3b82f6" stroke="white" stroke-width="1"/>
<text x="48.0" y="53.9" font-size="9" fill="#3b82f6" text-anchor="middle" font-family="system-ui, -apple-system, sans-serif" font-weight="600" opacity="0.9">v0.4.1</text>
<circle cx="91.5" cy="63.9" r="3" fill="#3b82f6" stroke="white" stroke-width="1"/>
<text x="91.5" y="55.9" font-size="9" fill="#3b82f6" text-anchor="middle" font-family="system-ui, -apple-system, sans-serif" font-weight="600" opacity="0.9">v0.4.1</text>
<circle cx="119.9" cy="61.7" r="3" fill="#3b82f6" stroke="white" stroke-width="1"/>
<text x="119.9" y="53.7" font-size="9" fill="#3b82f6" text-anchor="middle" font-family="system-ui, -apple-system, sans-serif" font-weight="600" opacity="0.9">v0.5.0</text>
<circle cx="148.4" cy="61.5" r="3" fill="#3b82f6" stroke="white" stroke-width="1"/>
<text x="148.4" y="53.5" font-size="9" fill="#3b82f6" text-anchor="middle" font-family="system-ui, -apple-system, sans-serif" font-weight="600" opacity="0.9">v0.5.0</text>
<circle cx="176.9" cy="31.2" r="3" fill="#3b82f6" stroke="white" stroke-width="1"/>
<text x="176.9" y="23.2" font-size="9" fill="#3b82f6" text-anchor="middle" font-family="system-ui, -apple-system, sans-serif" font-weight="600" opacity="0.9">v0.6.0</text>
<circle cx="205.4" cy="65.7" r="3" fill="#3b82f6" stroke="white" stroke-width="1"/>
<text x="205.4" y="57.7" font-size="9" fill="#3b82f6" text-anchor="middle" font-family="system-ui, -apple-system, sans-serif" font-weight="600" opacity="0.9">v0.6.1</text>
<circle cx="233.8" cy="67.8" r="3" fill="#3b82f6" stroke="white" stroke-width="1"/>
<text x="233.8" y="59.8" font-size="9" fill="#3b82f6" text-anchor="middle" font-family="system-ui, -apple-system, sans-serif" font-weight="600" opacity="0.9">v0.7.0</text>
<circle cx="262.3" cy="70.8" r="3" fill="#3b82f6" stroke="white" stroke-width="1"/>
<text x="262.3" y="62.8" font-size="9" fill="#3b82f6" text-anchor="middle" font-family="system-ui, -apple-system, sans-serif" font-weight="600" opacity="0.9">v0.7.0</text>
<circle cx="290.8" cy="23.0" r="3" fill="#3b82f6" stroke="white" stroke-width="1"/>
<text x="290.8" y="17.0" font-size="9" fill="#3b82f6" text-anchor="middle" font-family="system-ui, -apple-system, sans-serif" font-weight="600" opacity="0.9">v0.7.0 (74.84M ops/s)</text>
<circle cx="319.2" cy="65.5" r="3" fill="#3b82f6" stroke="white" stroke-width="1"/>
<text x="319.2" y="57.5" font-size="9" fill="#3b82f6" text-anchor="middle" font-family="system-ui, -apple-system, sans-serif" font-weight="600" opacity="0.9">v0.8.0</text>
<circle cx="347.7" cy="66.6" r="3" fill="#3b82f6" stroke="white" stroke-width="1"/>
<text x="347.7" y="58.6" font-size="9" fill="#3b82f6" text-anchor="middle" font-family="system-ui, -apple-system, sans-serif" font-weight="600" opacity="0.9">v0.8.0</text>
<circle cx="376.2" cy="67.1" r="3" fill="#3b82f6" stroke="white" stroke-width="1"/>
<text x="376.2" y="59.1" font-size="9" fill="#3b82f6" text-anchor="middle" font-family="system-ui, -apple-system, sans-serif" font-weight="600" opacity="0.9">v0.8.0</text>
<circle cx="404.6" cy="65.2" r="3" fill="#3b82f6" stroke="white" stroke-width="1"/>
<text x="404.6" y="57.2" font-size="9" fill="#3b82f6" text-anchor="middle" font-family="system-ui, -apple-system, sans-serif" font-weight="600" opacity="0.9">v0.8.0</text>
<circle cx="433.1" cy="110.7" r="3" fill="#3b82f6" stroke="white" stroke-width="1"/>
<text x="433.1" y="102.7" font-size="9" fill="#3b82f6" text-anchor="middle" font-family="system-ui, -apple-system, sans-serif" font-weight="600" opacity="0.9">v0.8.0</text>
<circle cx="461.6" cy="108.2" r="3" fill="#3b82f6" stroke="white" stroke-width="1"/>
<text x="461.6" y="100.2" font-size="9" fill="#3b82f6" text-anchor="middle" font-family="system-ui, -apple-system, sans-serif" font-weight="600" opacity="0.9">v0.8.0</text>
<circle cx="490.1" cy="110.8" r="3" fill="#3b82f6" stroke="white" stroke-width="1"/>
<text x="490.1" y="102.8" font-size="9" fill="#3b82f6" text-anchor="middle" font-family="system-ui, -apple-system, sans-serif" font-weight="600" opacity="0.9">v0.9.0</text>
<circle cx="518.5" cy="108.4" r="3" fill="#3b82f6" stroke="white" stroke-width="1"/>
<text x="518.5" y="100.4" font-size="9" fill="#3b82f6" text-anchor="middle" font-family="system-ui, -apple-system, sans-serif" font-weight="600" opacity="0.9">v0.9.0</text>
<circle cx="547.0" cy="112.0" r="3" fill="#3b82f6" stroke="white" stroke-width="1"/>
<text x="547.0" y="104.0" font-size="9" fill="#3b82f6" text-anchor="middle" font-family="system-ui, -apple-system, sans-serif" font-weight="600" opacity="0.9">v0.10.0 (40.61M ops/s)</text>
</svg>