<svg width="615" height="120" viewBox="0 0 615 120" xmlns="http://www.w3.org/2000/svg">
<rect width="615" height="120" fill="transparent"/>
<line x1="63" y1="67.5" x2="547" y2="67.5" stroke="currentColor" stroke-width="0.5" opacity="0.2" stroke-dasharray="2,2"/>
<polyline fill="none" stroke="#3b82f6" stroke-width="2" points="48.0,66.4 100.2,69.7 137.5,69.4 174.7,47.3 211.9,70.2 249.2,69.8 286.4,66.8 323.6,23.0 360.8,65.6 398.1,66.2 435.3,70.6 472.5,76.8 509.8,112.0 547.0,107.1" stroke-linecap="round" stroke-linejoin="round"/>
<circle cx="48.0" cy="66.4" r="3" fill="#3b82f6" stroke="white" stroke-width="1"/>
<text x="48.0" y="58.4" font-size="9" fill="#3b82f6" text-anchor="middle" font-family="system-ui, -apple-system, sans-serif" font-weight="600" opacity="0.9">v0.4.1</text>
<circle cx="100.2" cy="69.7" r="3" fill="#3b82f6" stroke="white" stroke-width="1"/>
<text x="100.2" y="61.7" font-size="9" fill="#3b82f6" text-anchor="middle" font-family="system-ui, -apple-system, sans-serif" font-weight="600" opacity="0.9">v0.5.0</text>
<circle cx="137.5" cy="69.4" r="3" fill="#3b82f6" stroke="white" stroke-width="1"/>
<text x="137.5" y="61.4" font-size="9" fill="#3b82f6" text-anchor="middle" font-family="system-ui, -apple-system, sans-serif" font-weight="600" opacity="0.9">v0.5.0</text>
<circle cx="174.7" cy="47.3" r="3" fill="#3b82f6" stroke="white" stroke-width="1"/>
<text x="174.7" y="39.3" font-size="9" fill="#3b82f6" text-anchor="middle" font-family="system-ui, -apple-system, sans-serif" font-weight="600" opacity="0.9">v0.6.0</text>
<circle cx="211.9" cy="70.2" r="3" fill="#3b82f6" stroke="white" stroke-width="1"/>
<text x="211.9" y="62.2" font-size="9" fill="#3b82f6" text-anchor="middle" font-family="system-ui, -apple-system, sans-serif" font-weight="600" opacity="0.9">v0.6.1</text>
<circle cx="249.2" cy="69.8" r="3" fill="#3b82f6" stroke="white" stroke-width="1"/>
<text x="249.2" y="61.8" font-size="9" fill="#3b82f6" text-anchor="middle" font-family="system-ui, -apple-system, sans-serif" font-weight="600" opacity="0.9">v0.7.0</text>
<circle cx="286.4" cy="66.8" r="3" fill="#3b82f6" stroke="white" stroke-width="1"/>
<text x="286.4" y="58.8" font-size="9" fill="#3b82f6" text-anchor="middle" font-family="system-ui, -apple-system, sans-serif" font-weight="600" opacity="0.9">v0.7.0</text>
<circle cx="323.6" cy="23.0" r="3" fill="#3b82f6" stroke="white" stroke-width="1"/>
<text x="323.6" y="17.0" font-size="9" fill="#3b82f6" text-anchor="middle" font-family="system-ui, -apple-system, sans-serif" font-weight="600" opacity="0.9">v0.7.0 (220.88K ops/s)</text>
<circle cx="360.8" cy="65.6" r="3" fill="#3b82f6" stroke="white" stroke-width="1"/>
<text x="360.8" y="57.6" font-size="9" fill="#3b82f6" text-anchor="middle" font-family="system-ui, -apple-system, sans-serif" font-weight="600" opacity="0.9">v0.8.0</text>
<circle cx="398.1" cy="66.2" r="3" fill="#3b82f6" stroke="white" stroke-width="1"/>
<text x="398.1" y="58.2" font-size="9" fill="#3b82f6" text-anchor="middle" font-family="system-ui, -apple-system, sans-serif" font-weight="600" opacity="0.9">v0.8.0</text>
<circle cx="435.3" cy="70.6" r="3" fill="#3b82f6" stroke="white" stroke-width="1"/>
<text x="435.3" y="62.6" font-size="9" fill="#3b82f6" text-anchor="middle" font-family="system-ui, -apple-system, sans-serif" font-weight="600" opacity="0.9">v0.8.0</text>
<circle cx="472.5" cy="76.8" r="3" fill="#3b82f6" stroke="white" stroke-width="1"/>
<text x="472.5" y="68.8" font-size="9" fill="#3b82f6" text-anchor="middle" font-family="system-ui, -apple-system, sans-serif" font-weight="600" opacity="0.9">v0.8.0</text>
<circle cx="509.8" cy="112.0" r="3" fill="#3b82f6" stroke="white" stroke-width="1"/>
<text x="509.8" y="104.0" font-size="9" fill="#3b82f6" text-anchor="middle" font-family="system-ui, -apple-system, sans-serif" font-weight="600" opacity="0.9">v0.8.0 (121.69K ops/s)</text>
<circle cx="547.0" cy="107.1" r="3" fill="#3b82f6" stroke="white" stroke-width="1"/>
<text x="547.0" y="99.1" font-size="9" fill="#3b82f6" text-anchor="middle" font-family="system-ui, -apple-system, sans-serif" font-weight="600" opacity="0.9">v0.8.0</text>
</svg>