<svg width="615" height="120" viewBox="0 0 615 120" xmlns="http://www.w3.org/2000/svg">
<rect width="615" height="120" fill="transparent"/>
<line x1="63" y1="67.5" x2="547" y2="67.5" stroke="currentColor" stroke-width="0.5" opacity="0.2" stroke-dasharray="2,2"/>
<polyline fill="none" stroke="#3b82f6" stroke-width="2" points="48.0,93.5 107.0,112.0 151.0,111.9 195.0,93.4 239.0,44.6 283.0,59.5 327.0,59.6 371.0,50.8 415.0,23.0 459.0,51.6 503.0,51.0 547.0,58.9" stroke-linecap="round" stroke-linejoin="round"/>
<circle cx="48.0" cy="93.5" r="3" fill="#3b82f6" stroke="white" stroke-width="1"/>
<text x="48.0" y="85.5" font-size="9" fill="#3b82f6" text-anchor="middle" font-family="system-ui, -apple-system, sans-serif" font-weight="600" opacity="0.9">v0.4.1</text>
<circle cx="107.0" cy="112.0" r="3" fill="#3b82f6" stroke="white" stroke-width="1"/>
<text x="107.0" y="104.0" font-size="9" fill="#3b82f6" text-anchor="middle" font-family="system-ui, -apple-system, sans-serif" font-weight="600" opacity="0.9">v0.4.1 (367.26M ops/s)</text>
<circle cx="151.0" cy="111.9" r="3" fill="#3b82f6" stroke="white" stroke-width="1"/>
<text x="151.0" y="103.9" font-size="9" fill="#3b82f6" text-anchor="middle" font-family="system-ui, -apple-system, sans-serif" font-weight="600" opacity="0.9">v0.5.0</text>
<circle cx="195.0" cy="93.4" r="3" fill="#3b82f6" stroke="white" stroke-width="1"/>
<text x="195.0" y="85.4" font-size="9" fill="#3b82f6" text-anchor="middle" font-family="system-ui, -apple-system, sans-serif" font-weight="600" opacity="0.9">v0.5.0</text>
<circle cx="239.0" cy="44.6" r="3" fill="#3b82f6" stroke="white" stroke-width="1"/>
<text x="239.0" y="36.6" font-size="9" fill="#3b82f6" text-anchor="middle" font-family="system-ui, -apple-system, sans-serif" font-weight="600" opacity="0.9">v0.6.0</text>
<circle cx="283.0" cy="59.5" r="3" fill="#3b82f6" stroke="white" stroke-width="1"/>
<text x="283.0" y="51.5" font-size="9" fill="#3b82f6" text-anchor="middle" font-family="system-ui, -apple-system, sans-serif" font-weight="600" opacity="0.9">v0.6.1</text>
<circle cx="327.0" cy="59.6" r="3" fill="#3b82f6" stroke="white" stroke-width="1"/>
<text x="327.0" y="51.6" font-size="9" fill="#3b82f6" text-anchor="middle" font-family="system-ui, -apple-system, sans-serif" font-weight="600" opacity="0.9">v0.7.0</text>
<circle cx="371.0" cy="50.8" r="3" fill="#3b82f6" stroke="white" stroke-width="1"/>
<text x="371.0" y="42.8" font-size="9" fill="#3b82f6" text-anchor="middle" font-family="system-ui, -apple-system, sans-serif" font-weight="600" opacity="0.9">v0.7.0</text>
<circle cx="415.0" cy="23.0" r="3" fill="#3b82f6" stroke="white" stroke-width="1"/>
<text x="415.0" y="17.0" font-size="9" fill="#3b82f6" text-anchor="middle" font-family="system-ui, -apple-system, sans-serif" font-weight="600" opacity="0.9">v0.7.0 (807.50M ops/s)</text>
<circle cx="459.0" cy="51.6" r="3" fill="#3b82f6" stroke="white" stroke-width="1"/>
<text x="459.0" y="43.6" font-size="9" fill="#3b82f6" text-anchor="middle" font-family="system-ui, -apple-system, sans-serif" font-weight="600" opacity="0.9">v0.8.0</text>
<circle cx="503.0" cy="51.0" r="3" fill="#3b82f6" stroke="white" stroke-width="1"/>
<text x="503.0" y="43.0" font-size="9" fill="#3b82f6" text-anchor="middle" font-family="system-ui, -apple-system, sans-serif" font-weight="600" opacity="0.9">v0.8.0</text>
<circle cx="547.0" cy="58.9" r="3" fill="#3b82f6" stroke="white" stroke-width="1"/>
<text x="547.0" y="50.9" font-size="9" fill="#3b82f6" text-anchor="middle" font-family="system-ui, -apple-system, sans-serif" font-weight="600" opacity="0.9">v0.8.0</text>
</svg>